G04 #@! TF.GenerationSoftware,KiCad,Pcbnew,5.0.2-bee76a0~70~ubuntu14.04.1*
G04 #@! TF.CreationDate,2018-12-15T23:15:47-07:00*
G04 #@! TF.ProjectId,relay,72656c61-792e-46b6-9963-61645f706362,rev?*
G04 #@! TF.SameCoordinates,Original*
G04 #@! TF.FileFunction,Copper,L2,Bot*
G04 #@! TF.FilePolarity,Positive*
%FSLAX46Y46*%
G04 Gerber Fmt 4.6, Leading zero omitted, Abs format (unit mm)*
G04 Created by KiCad (PCBNEW 5.0.2-bee76a0~70~ubuntu14.04.1) date Sat 15 Dec 2018 11:15:47 PM MST*
%MOMM*%
%LPD*%
G01*
G04 APERTURE LIST*
G04 #@! TA.AperFunction,ComponentPad*
%ADD10O,1.600000X1.600000*%
G04 #@! TD*
G04 #@! TA.AperFunction,ComponentPad*
%ADD11C,1.600000*%
G04 #@! TD*
G04 #@! TA.AperFunction,ComponentPad*
%ADD12R,1.800000X1.800000*%
G04 #@! TD*
G04 #@! TA.AperFunction,ComponentPad*
%ADD13O,1.800000X1.800000*%
G04 #@! TD*
G04 #@! TA.AperFunction,ComponentPad*
%ADD14C,1.800000*%
G04 #@! TD*
G04 #@! TA.AperFunction,ComponentPad*
%ADD15R,2.600000X2.600000*%
G04 #@! TD*
G04 #@! TA.AperFunction,ComponentPad*
%ADD16C,2.600000*%
G04 #@! TD*
G04 #@! TA.AperFunction,ComponentPad*
%ADD17R,2.500000X2.500000*%
G04 #@! TD*
G04 #@! TA.AperFunction,ComponentPad*
%ADD18O,2.500000X2.500000*%
G04 #@! TD*
G04 #@! TA.AperFunction,ComponentPad*
%ADD19O,1.050000X1.500000*%
G04 #@! TD*
G04 #@! TA.AperFunction,ComponentPad*
%ADD20R,1.050000X1.500000*%
G04 #@! TD*
G04 #@! TA.AperFunction,ComponentPad*
%ADD21R,1.700000X1.700000*%
G04 #@! TD*
G04 #@! TA.AperFunction,ComponentPad*
%ADD22O,1.700000X1.700000*%
G04 #@! TD*
G04 #@! TA.AperFunction,ViaPad*
%ADD23C,0.800000*%
G04 #@! TD*
G04 #@! TA.AperFunction,Conductor*
%ADD24C,1.000000*%
G04 #@! TD*
G04 #@! TA.AperFunction,Conductor*
%ADD25C,4.000000*%
G04 #@! TD*
G04 #@! TA.AperFunction,Conductor*
%ADD26C,0.250000*%
G04 #@! TD*
G04 #@! TA.AperFunction,Conductor*
%ADD27C,0.254000*%
G04 #@! TD*
G04 APERTURE END LIST*
D10*
G04 #@! TO.P,R3,2*
G04 #@! TO.N,trigger*
X89623900Y-85280500D03*
D11*
G04 #@! TO.P,R3,1*
G04 #@! TO.N,Net-(Q1-Pad2)*
X89623900Y-75120500D03*
G04 #@! TD*
D12*
G04 #@! TO.P,D1,1*
G04 #@! TO.N,Net-(D1-Pad1)*
X114208560Y-81889600D03*
D13*
G04 #@! TO.P,D1,2*
G04 #@! TO.N,bus13*
X114208560Y-74269600D03*
G04 #@! TD*
D12*
G04 #@! TO.P,D2,1*
G04 #@! TO.N,Net-(D1-Pad1)*
X112268000Y-85344000D03*
D14*
G04 #@! TO.P,D2,2*
G04 #@! TO.N,Net-(D2-Pad2)*
X112268000Y-87884000D03*
G04 #@! TD*
D15*
G04 #@! TO.P,J3,1*
G04 #@! TO.N,relay_off*
X95001080Y-64698880D03*
D16*
G04 #@! TO.P,J3,2*
G04 #@! TO.N,relay_arm*
X100001080Y-64698880D03*
G04 #@! TO.P,J3,3*
G04 #@! TO.N,relay_on*
X105001080Y-64698880D03*
G04 #@! TD*
D17*
G04 #@! TO.P,K1,1*
G04 #@! TO.N,relay_arm*
X99984560Y-90500200D03*
D18*
G04 #@! TO.P,K1,2*
G04 #@! TO.N,Net-(D1-Pad1)*
X105984560Y-88500200D03*
G04 #@! TO.P,K1,3*
G04 #@! TO.N,relay_on*
X105984560Y-76300200D03*
G04 #@! TO.P,K1,4*
G04 #@! TO.N,relay_off*
X93984560Y-76300200D03*
G04 #@! TO.P,K1,5*
G04 #@! TO.N,bus13*
X93984560Y-88500200D03*
G04 #@! TD*
D19*
G04 #@! TO.P,Q1,2*
G04 #@! TO.N,Net-(Q1-Pad2)*
X87604600Y-70078600D03*
G04 #@! TO.P,Q1,3*
G04 #@! TO.N,Net-(D1-Pad1)*
X88874600Y-70078600D03*
D20*
G04 #@! TO.P,Q1,1*
G04 #@! TO.N,bus11*
X86334600Y-70078600D03*
G04 #@! TD*
D11*
G04 #@! TO.P,R1,1*
G04 #@! TO.N,bus11*
X86144100Y-75120500D03*
D10*
G04 #@! TO.P,R1,2*
G04 #@! TO.N,trigger*
X86144100Y-85280500D03*
G04 #@! TD*
D11*
G04 #@! TO.P,R2,1*
G04 #@! TO.N,bus13*
X110357920Y-70916800D03*
D10*
G04 #@! TO.P,R2,2*
G04 #@! TO.N,Net-(D2-Pad2)*
X110357920Y-81076800D03*
G04 #@! TD*
D21*
G04 #@! TO.P,J2,1*
G04 #@! TO.N,GND*
X114208560Y-68244720D03*
D22*
G04 #@! TO.P,J2,2*
G04 #@! TO.N,VCC*
X114208560Y-70784720D03*
G04 #@! TD*
D21*
G04 #@! TO.P,J4,1*
G04 #@! TO.N,bus1*
X107950000Y-107188000D03*
D22*
G04 #@! TO.P,J4,2*
G04 #@! TO.N,bus2*
X107950000Y-109728000D03*
G04 #@! TO.P,J4,3*
G04 #@! TO.N,bus3*
X105410000Y-107188000D03*
G04 #@! TO.P,J4,4*
G04 #@! TO.N,bus4*
X105410000Y-109728000D03*
G04 #@! TO.P,J4,5*
G04 #@! TO.N,bus5*
X102870000Y-107188000D03*
G04 #@! TO.P,J4,6*
G04 #@! TO.N,bus6*
X102870000Y-109728000D03*
G04 #@! TO.P,J4,7*
G04 #@! TO.N,bus7*
X100330000Y-107188000D03*
G04 #@! TO.P,J4,8*
G04 #@! TO.N,bus8*
X100330000Y-109728000D03*
G04 #@! TO.P,J4,9*
G04 #@! TO.N,bus9*
X97790000Y-107188000D03*
G04 #@! TO.P,J4,10*
G04 #@! TO.N,bus10*
X97790000Y-109728000D03*
G04 #@! TO.P,J4,11*
G04 #@! TO.N,bus11*
X95250000Y-107188000D03*
G04 #@! TO.P,J4,12*
X95250000Y-109728000D03*
G04 #@! TO.P,J4,13*
G04 #@! TO.N,bus13*
X92710000Y-107188000D03*
G04 #@! TO.P,J4,14*
X92710000Y-109728000D03*
G04 #@! TD*
D23*
G04 #@! TO.N,bus3*
X109220000Y-94996000D03*
G04 #@! TO.N,bus4*
X106680000Y-94996000D03*
G04 #@! TO.N,bus5*
X104140000Y-94996000D03*
G04 #@! TO.N,bus6*
X101600000Y-94996000D03*
G04 #@! TO.N,bus7*
X99060000Y-94996000D03*
G04 #@! TO.N,bus8*
X96520000Y-94996000D03*
G04 #@! TO.N,bus9*
X93980000Y-94996000D03*
G04 #@! TO.N,bus10*
X91440000Y-94996000D03*
G04 #@! TD*
D24*
G04 #@! TO.N,Net-(D1-Pad1)*
X114208560Y-82641440D02*
X114208560Y-81889600D01*
X112268000Y-84582000D02*
X114208560Y-82641440D01*
X112268000Y-85344000D02*
X112268000Y-84582000D01*
X105984560Y-88325440D02*
X105984560Y-88500200D01*
X88874600Y-70078600D02*
X88874600Y-67081400D01*
X90424000Y-63754000D02*
X90424000Y-60706000D01*
X88874600Y-67081400D02*
X88900000Y-67056000D01*
X88900000Y-65278000D02*
X90424000Y-63754000D01*
X90424000Y-60706000D02*
X92417990Y-58712010D01*
X106210010Y-58712010D02*
X108458000Y-60960000D01*
X92417990Y-58712010D02*
X106210010Y-58712010D01*
X108458000Y-60960000D02*
X108458000Y-85852000D01*
X88900000Y-67056000D02*
X88900000Y-65278000D01*
X108458000Y-85852000D02*
X105984560Y-88325440D01*
X108458000Y-75692000D02*
X108458000Y-75438000D01*
X114208560Y-81442560D02*
X108458000Y-75692000D01*
X114208560Y-81889600D02*
X114208560Y-81442560D01*
D25*
G04 #@! TO.N,relay_arm*
X100001080Y-90483680D02*
X99984560Y-90500200D01*
D24*
G04 #@! TO.N,bus13*
X92710000Y-106426000D02*
X92710000Y-108966000D01*
X88392000Y-102108000D02*
X92710000Y-106426000D01*
X88392000Y-94092760D02*
X88392000Y-102108000D01*
X93984560Y-88500200D02*
X88392000Y-94092760D01*
D26*
G04 #@! TO.N,bus3*
X105410000Y-106426000D02*
X105410000Y-98806000D01*
X105410000Y-98806000D02*
X109220000Y-94996000D01*
G04 #@! TO.N,bus4*
X104560001Y-108116001D02*
X105410000Y-108966000D01*
X104140000Y-107696000D02*
X104560001Y-108116001D01*
X104140000Y-98586000D02*
X104140000Y-107696000D01*
X106680000Y-96046000D02*
X104140000Y-98586000D01*
X106680000Y-94996000D02*
X106680000Y-96046000D01*
G04 #@! TO.N,bus5*
X102870000Y-96266000D02*
X104140000Y-94996000D01*
X102870000Y-106426000D02*
X102870000Y-96266000D01*
G04 #@! TO.N,bus6*
X101600000Y-107696000D02*
X101600000Y-94996000D01*
X102870000Y-108966000D02*
X101600000Y-107696000D01*
G04 #@! TO.N,bus7*
X100330000Y-96266000D02*
X99060000Y-94996000D01*
X100330000Y-106426000D02*
X100330000Y-96266000D01*
G04 #@! TO.N,bus8*
X99060000Y-97536000D02*
X96520000Y-94996000D01*
X99060000Y-107696000D02*
X99060000Y-97536000D01*
X100330000Y-108966000D02*
X99060000Y-107696000D01*
G04 #@! TO.N,bus9*
X97790000Y-98806000D02*
X93980000Y-94996000D01*
X97790000Y-106426000D02*
X97790000Y-98806000D01*
G04 #@! TO.N,bus10*
X96520000Y-100076000D02*
X91440000Y-94996000D01*
X96520000Y-107696000D02*
X96520000Y-100076000D01*
X97790000Y-108966000D02*
X96520000Y-107696000D01*
G04 #@! TD*
D27*
G04 #@! TO.N,relay_arm*
G36*
X107315000Y-61057266D02*
X107315000Y-75362823D01*
X107157561Y-75127199D01*
X106619384Y-74767600D01*
X106144802Y-74673200D01*
X105824318Y-74673200D01*
X105349736Y-74767600D01*
X104811559Y-75127199D01*
X104451960Y-75665376D01*
X104325686Y-76300200D01*
X104451960Y-76935024D01*
X104811559Y-77473201D01*
X105349736Y-77832800D01*
X105824318Y-77927200D01*
X106144802Y-77927200D01*
X106619384Y-77832800D01*
X107157561Y-77473201D01*
X107315000Y-77237577D01*
X107315000Y-85754735D01*
X106187953Y-86881783D01*
X106144802Y-86873200D01*
X105824318Y-86873200D01*
X105349736Y-86967600D01*
X104811559Y-87327199D01*
X104451960Y-87865376D01*
X104325686Y-88500200D01*
X104451960Y-89135024D01*
X104811559Y-89673201D01*
X105349736Y-90032800D01*
X105824318Y-90127200D01*
X106144802Y-90127200D01*
X106619384Y-90032800D01*
X107157561Y-89673201D01*
X107315000Y-89437577D01*
X107315000Y-93599000D01*
X92583000Y-93599000D01*
X92583000Y-91142024D01*
X93635402Y-90089622D01*
X93824318Y-90127200D01*
X94144802Y-90127200D01*
X94619384Y-90032800D01*
X95157561Y-89673201D01*
X95517160Y-89135024D01*
X95643434Y-88500200D01*
X95517160Y-87865376D01*
X95157561Y-87327199D01*
X94619384Y-86967600D01*
X94144802Y-86873200D01*
X93824318Y-86873200D01*
X93349736Y-86967600D01*
X92811559Y-87327199D01*
X92583000Y-87669261D01*
X92583000Y-77131139D01*
X92811559Y-77473201D01*
X93349736Y-77832800D01*
X93824318Y-77927200D01*
X94144802Y-77927200D01*
X94619384Y-77832800D01*
X95157561Y-77473201D01*
X95517160Y-76935024D01*
X95643434Y-76300200D01*
X95517160Y-75665376D01*
X95157561Y-75127199D01*
X94619384Y-74767600D01*
X94144802Y-74673200D01*
X93824318Y-74673200D01*
X93349736Y-74767600D01*
X92811559Y-75127199D01*
X92583000Y-75469261D01*
X92583000Y-63398880D01*
X93316695Y-63398880D01*
X93316695Y-65998880D01*
X93345955Y-66145978D01*
X93429279Y-66270681D01*
X93553982Y-66354005D01*
X93701080Y-66383265D01*
X96301080Y-66383265D01*
X96448178Y-66354005D01*
X96572881Y-66270681D01*
X96656205Y-66145978D01*
X96685465Y-65998880D01*
X96685465Y-64365304D01*
X103324080Y-64365304D01*
X103324080Y-65032456D01*
X103579388Y-65648824D01*
X104051136Y-66120572D01*
X104667504Y-66375880D01*
X105334656Y-66375880D01*
X105951024Y-66120572D01*
X106422772Y-65648824D01*
X106678080Y-65032456D01*
X106678080Y-64365304D01*
X106422772Y-63748936D01*
X105951024Y-63277188D01*
X105334656Y-63021880D01*
X104667504Y-63021880D01*
X104051136Y-63277188D01*
X103579388Y-63748936D01*
X103324080Y-64365304D01*
X96685465Y-64365304D01*
X96685465Y-63398880D01*
X96656205Y-63251782D01*
X96572881Y-63127079D01*
X96448178Y-63043755D01*
X96301080Y-63014495D01*
X93701080Y-63014495D01*
X93553982Y-63043755D01*
X93429279Y-63127079D01*
X93345955Y-63251782D01*
X93316695Y-63398880D01*
X92583000Y-63398880D01*
X92583000Y-60579000D01*
X106836735Y-60579000D01*
X107315000Y-61057266D01*
X107315000Y-61057266D01*
G37*
X107315000Y-61057266D02*
X107315000Y-75362823D01*
X107157561Y-75127199D01*
X106619384Y-74767600D01*
X106144802Y-74673200D01*
X105824318Y-74673200D01*
X105349736Y-74767600D01*
X104811559Y-75127199D01*
X104451960Y-75665376D01*
X104325686Y-76300200D01*
X104451960Y-76935024D01*
X104811559Y-77473201D01*
X105349736Y-77832800D01*
X105824318Y-77927200D01*
X106144802Y-77927200D01*
X106619384Y-77832800D01*
X107157561Y-77473201D01*
X107315000Y-77237577D01*
X107315000Y-85754735D01*
X106187953Y-86881783D01*
X106144802Y-86873200D01*
X105824318Y-86873200D01*
X105349736Y-86967600D01*
X104811559Y-87327199D01*
X104451960Y-87865376D01*
X104325686Y-88500200D01*
X104451960Y-89135024D01*
X104811559Y-89673201D01*
X105349736Y-90032800D01*
X105824318Y-90127200D01*
X106144802Y-90127200D01*
X106619384Y-90032800D01*
X107157561Y-89673201D01*
X107315000Y-89437577D01*
X107315000Y-93599000D01*
X92583000Y-93599000D01*
X92583000Y-91142024D01*
X93635402Y-90089622D01*
X93824318Y-90127200D01*
X94144802Y-90127200D01*
X94619384Y-90032800D01*
X95157561Y-89673201D01*
X95517160Y-89135024D01*
X95643434Y-88500200D01*
X95517160Y-87865376D01*
X95157561Y-87327199D01*
X94619384Y-86967600D01*
X94144802Y-86873200D01*
X93824318Y-86873200D01*
X93349736Y-86967600D01*
X92811559Y-87327199D01*
X92583000Y-87669261D01*
X92583000Y-77131139D01*
X92811559Y-77473201D01*
X93349736Y-77832800D01*
X93824318Y-77927200D01*
X94144802Y-77927200D01*
X94619384Y-77832800D01*
X95157561Y-77473201D01*
X95517160Y-76935024D01*
X95643434Y-76300200D01*
X95517160Y-75665376D01*
X95157561Y-75127199D01*
X94619384Y-74767600D01*
X94144802Y-74673200D01*
X93824318Y-74673200D01*
X93349736Y-74767600D01*
X92811559Y-75127199D01*
X92583000Y-75469261D01*
X92583000Y-63398880D01*
X93316695Y-63398880D01*
X93316695Y-65998880D01*
X93345955Y-66145978D01*
X93429279Y-66270681D01*
X93553982Y-66354005D01*
X93701080Y-66383265D01*
X96301080Y-66383265D01*
X96448178Y-66354005D01*
X96572881Y-66270681D01*
X96656205Y-66145978D01*
X96685465Y-65998880D01*
X96685465Y-64365304D01*
X103324080Y-64365304D01*
X103324080Y-65032456D01*
X103579388Y-65648824D01*
X104051136Y-66120572D01*
X104667504Y-66375880D01*
X105334656Y-66375880D01*
X105951024Y-66120572D01*
X106422772Y-65648824D01*
X106678080Y-65032456D01*
X106678080Y-64365304D01*
X106422772Y-63748936D01*
X105951024Y-63277188D01*
X105334656Y-63021880D01*
X104667504Y-63021880D01*
X104051136Y-63277188D01*
X103579388Y-63748936D01*
X103324080Y-64365304D01*
X96685465Y-64365304D01*
X96685465Y-63398880D01*
X96656205Y-63251782D01*
X96572881Y-63127079D01*
X96448178Y-63043755D01*
X96301080Y-63014495D01*
X93701080Y-63014495D01*
X93553982Y-63043755D01*
X93429279Y-63127079D01*
X93345955Y-63251782D01*
X93316695Y-63398880D01*
X92583000Y-63398880D01*
X92583000Y-60579000D01*
X106836735Y-60579000D01*
X107315000Y-61057266D01*
G04 #@! TD*
M02*
