M48
;DRILL file {KiCad 5.0.1-33cea8e~68~ubuntu14.04.1} date Fri 23 Nov 2018 03:54:45 PM PST
;FORMAT={-:-/ absolute / inch / decimal}
FMAT,2
INCH,TZ
T1C0.0157
T2C0.0295
T3C0.0315
T4C0.0354
T5C0.0394
T6C0.0512
%
G90
G05
M72
T1
X3.6Y-3.74
X3.7Y-3.74
X3.8Y-3.74
X3.9Y-3.74
X4.Y-3.74
X4.1Y-3.74
X4.2Y-3.74
X4.3Y-3.74
T2
X3.399Y-2.759
X3.449Y-2.759
X3.499Y-2.759
T3
X4.3448Y-2.792
X4.3448Y-3.192
X3.3915Y-2.9575
X3.3915Y-3.3575
X3.5285Y-2.9575
X3.5285Y-3.3575
T4
X4.4964Y-2.924
X4.4964Y-3.224
X4.42Y-3.36
X4.42Y-3.46
T5
X3.65Y-4.19
X3.65Y-4.29
X3.75Y-4.19
X3.75Y-4.29
X3.85Y-4.19
X3.85Y-4.29
X3.95Y-4.19
X3.95Y-4.29
X4.05Y-4.19
X4.05Y-4.29
X4.15Y-4.19
X4.15Y-4.29
X4.25Y-4.19
X4.25Y-4.29
X4.4964Y-2.6868
X4.4964Y-2.7868
T6
X3.7002Y-3.0039
X3.7002Y-3.4843
X3.9364Y-3.563
X4.1726Y-3.0039
X4.1726Y-3.4843
X3.7402Y-2.5472
X3.9371Y-2.5472
X4.1339Y-2.5472
T0
M30
