G04 #@! TF.GenerationSoftware,KiCad,Pcbnew,5.0.1-33cea8e~68~ubuntu14.04.1*
G04 #@! TF.CreationDate,2018-11-23T15:16:42-08:00*
G04 #@! TF.ProjectId,run,72756E2E6B696361645F706362000000,rev?*
G04 #@! TF.SameCoordinates,Original*
G04 #@! TF.FileFunction,Legend,Top*
G04 #@! TF.FilePolarity,Positive*
%FSLAX46Y46*%
G04 Gerber Fmt 4.6, Leading zero omitted, Abs format (unit mm)*
G04 Created by KiCad (PCBNEW 5.0.1-33cea8e~68~ubuntu14.04.1) date Fri 23 Nov 2018 03:16:42 PM PST*
%MOMM*%
%LPD*%
G01*
G04 APERTURE LIST*
%ADD10C,0.150000*%
%ADD11C,0.300000*%
%ADD12C,0.200000*%
%ADD13C,0.120000*%
G04 APERTURE END LIST*
D10*
X137778571Y-123036571D02*
X137778571Y-122250857D01*
X137707142Y-122108000D01*
X137564285Y-122036571D01*
X137278571Y-122036571D01*
X137135714Y-122108000D01*
X137778571Y-122965142D02*
X137635714Y-123036571D01*
X137278571Y-123036571D01*
X137135714Y-122965142D01*
X137064285Y-122822285D01*
X137064285Y-122679428D01*
X137135714Y-122536571D01*
X137278571Y-122465142D01*
X137635714Y-122465142D01*
X137778571Y-122393714D01*
X139135714Y-122965142D02*
X138992857Y-123036571D01*
X138707142Y-123036571D01*
X138564285Y-122965142D01*
X138492857Y-122893714D01*
X138421428Y-122750857D01*
X138421428Y-122322285D01*
X138492857Y-122179428D01*
X138564285Y-122108000D01*
X138707142Y-122036571D01*
X138992857Y-122036571D01*
X139135714Y-122108000D01*
X139564285Y-122036571D02*
X140135714Y-122036571D01*
X139778571Y-121536571D02*
X139778571Y-122822285D01*
X139850000Y-122965142D01*
X139992857Y-123036571D01*
X140135714Y-123036571D01*
X140635714Y-123036571D02*
X140635714Y-122036571D01*
X140635714Y-121536571D02*
X140564285Y-121608000D01*
X140635714Y-121679428D01*
X140707142Y-121608000D01*
X140635714Y-121536571D01*
X140635714Y-121679428D01*
X141207142Y-122036571D02*
X141564285Y-123036571D01*
X141921428Y-122036571D01*
X143064285Y-122965142D02*
X142921428Y-123036571D01*
X142635714Y-123036571D01*
X142492857Y-122965142D01*
X142421428Y-122822285D01*
X142421428Y-122250857D01*
X142492857Y-122108000D01*
X142635714Y-122036571D01*
X142921428Y-122036571D01*
X143064285Y-122108000D01*
X143135714Y-122250857D01*
X143135714Y-122393714D01*
X142421428Y-122536571D01*
D11*
X148150000Y-129307142D02*
X148721428Y-129307142D01*
X149007142Y-129450000D01*
X149292857Y-129735714D01*
X149435714Y-130307142D01*
X149435714Y-131307142D01*
X149292857Y-131878571D01*
X149007142Y-132164285D01*
X148721428Y-132307142D01*
X148150000Y-132307142D01*
X147864285Y-132164285D01*
X147578571Y-131878571D01*
X147435714Y-131307142D01*
X147435714Y-130307142D01*
X147578571Y-129735714D01*
X147864285Y-129450000D01*
X148150000Y-129307142D01*
X150721428Y-129307142D02*
X150721428Y-131735714D01*
X150864285Y-132021428D01*
X151007142Y-132164285D01*
X151292857Y-132307142D01*
X151864285Y-132307142D01*
X152150000Y-132164285D01*
X152292857Y-132021428D01*
X152435714Y-131735714D01*
X152435714Y-129307142D01*
X153435714Y-129307142D02*
X155150000Y-129307142D01*
X154292857Y-132307142D02*
X154292857Y-129307142D01*
X131464857Y-121415714D02*
X131536285Y-121201428D01*
X131607714Y-121130000D01*
X131750571Y-121058571D01*
X131964857Y-121058571D01*
X132107714Y-121130000D01*
X132179142Y-121201428D01*
X132250571Y-121344285D01*
X132250571Y-121915714D01*
X130750571Y-121915714D01*
X130750571Y-121415714D01*
X130822000Y-121272857D01*
X130893428Y-121201428D01*
X131036285Y-121130000D01*
X131179142Y-121130000D01*
X131322000Y-121201428D01*
X131393428Y-121272857D01*
X131464857Y-121415714D01*
X131464857Y-121915714D01*
X130750571Y-120130000D02*
X130750571Y-119844285D01*
X130822000Y-119701428D01*
X130964857Y-119558571D01*
X131250571Y-119487142D01*
X131750571Y-119487142D01*
X132036285Y-119558571D01*
X132179142Y-119701428D01*
X132250571Y-119844285D01*
X132250571Y-120130000D01*
X132179142Y-120272857D01*
X132036285Y-120415714D01*
X131750571Y-120487142D01*
X131250571Y-120487142D01*
X130964857Y-120415714D01*
X130822000Y-120272857D01*
X130750571Y-120130000D01*
X130750571Y-118558571D02*
X130750571Y-118272857D01*
X130822000Y-118130000D01*
X130964857Y-117987142D01*
X131250571Y-117915714D01*
X131750571Y-117915714D01*
X132036285Y-117987142D01*
X132179142Y-118130000D01*
X132250571Y-118272857D01*
X132250571Y-118558571D01*
X132179142Y-118701428D01*
X132036285Y-118844285D01*
X131750571Y-118915714D01*
X131250571Y-118915714D01*
X130964857Y-118844285D01*
X130822000Y-118701428D01*
X130750571Y-118558571D01*
X130750571Y-117487142D02*
X130750571Y-116630000D01*
X132250571Y-117058571D02*
X130750571Y-117058571D01*
X131464857Y-113732285D02*
X131464857Y-114232285D01*
X132250571Y-114232285D02*
X130750571Y-114232285D01*
X130750571Y-113518000D01*
X130750571Y-113160857D02*
X130750571Y-112303714D01*
X132250571Y-112732285D02*
X130750571Y-112732285D01*
X132250571Y-111803714D02*
X130750571Y-111803714D01*
X130750571Y-111446571D01*
X130822000Y-111232285D01*
X130964857Y-111089428D01*
X131107714Y-111018000D01*
X131393428Y-110946571D01*
X131607714Y-110946571D01*
X131893428Y-111018000D01*
X132036285Y-111089428D01*
X132179142Y-111232285D01*
X132250571Y-111446571D01*
X132250571Y-111803714D01*
X132250571Y-110303714D02*
X130750571Y-110303714D01*
D10*
X148121428Y-169071428D02*
X148430952Y-169938095D01*
X148740476Y-169071428D01*
X149173809Y-168761904D02*
X149235714Y-168700000D01*
X149359523Y-168638095D01*
X149669047Y-168638095D01*
X149792857Y-168700000D01*
X149854761Y-168761904D01*
X149916666Y-168885714D01*
X149916666Y-169009523D01*
X149854761Y-169195238D01*
X149111904Y-169938095D01*
X149916666Y-169938095D01*
D12*
X148262857Y-147987142D02*
X148320000Y-147930000D01*
X148434285Y-147872857D01*
X148720000Y-147872857D01*
X148834285Y-147930000D01*
X148891428Y-147987142D01*
X148948571Y-148101428D01*
X148948571Y-148215714D01*
X148891428Y-148387142D01*
X148205714Y-149072857D01*
X148948571Y-149072857D01*
X149462857Y-148444285D02*
X150377142Y-148444285D01*
X150377142Y-148787142D02*
X149462857Y-148787142D01*
X150948571Y-149072857D02*
X150948571Y-147872857D01*
X151634285Y-149072857D01*
X151634285Y-147872857D01*
X152662857Y-149015714D02*
X152548571Y-149072857D01*
X152320000Y-149072857D01*
X152205714Y-149015714D01*
X152148571Y-148901428D01*
X152148571Y-148444285D01*
X152205714Y-148330000D01*
X152320000Y-148272857D01*
X152548571Y-148272857D01*
X152662857Y-148330000D01*
X152720000Y-148444285D01*
X152720000Y-148558571D01*
X152148571Y-148672857D01*
X153120000Y-149072857D02*
X153748571Y-148272857D01*
X153120000Y-148272857D02*
X153748571Y-149072857D01*
X154034285Y-148272857D02*
X154491428Y-148272857D01*
X154205714Y-147872857D02*
X154205714Y-148901428D01*
X154262857Y-149015714D01*
X154377142Y-149072857D01*
X154491428Y-149072857D01*
X149020000Y-147332857D02*
X148334285Y-147332857D01*
X148677142Y-147332857D02*
X148677142Y-146132857D01*
X148562857Y-146304285D01*
X148448571Y-146418571D01*
X148334285Y-146475714D01*
X149534285Y-146704285D02*
X150448571Y-146704285D01*
X150448571Y-147047142D02*
X149534285Y-147047142D01*
X151420000Y-146704285D02*
X151020000Y-146704285D01*
X151020000Y-147332857D02*
X151020000Y-146132857D01*
X151591428Y-146132857D01*
X152048571Y-147332857D02*
X152048571Y-146532857D01*
X152048571Y-146132857D02*
X151991428Y-146190000D01*
X152048571Y-146247142D01*
X152105714Y-146190000D01*
X152048571Y-146132857D01*
X152048571Y-146247142D01*
X152620000Y-147332857D02*
X152620000Y-146532857D01*
X152620000Y-146761428D02*
X152677142Y-146647142D01*
X152734285Y-146590000D01*
X152848571Y-146532857D01*
X152962857Y-146532857D01*
X153305714Y-147275714D02*
X153420000Y-147332857D01*
X153648571Y-147332857D01*
X153762857Y-147275714D01*
X153820000Y-147161428D01*
X153820000Y-147104285D01*
X153762857Y-146990000D01*
X153648571Y-146932857D01*
X153477142Y-146932857D01*
X153362857Y-146875714D01*
X153305714Y-146761428D01*
X153305714Y-146704285D01*
X153362857Y-146590000D01*
X153477142Y-146532857D01*
X153648571Y-146532857D01*
X153762857Y-146590000D01*
X154162857Y-146532857D02*
X154620000Y-146532857D01*
X154334285Y-146132857D02*
X154334285Y-147161428D01*
X154391428Y-147275714D01*
X154505714Y-147332857D01*
X154620000Y-147332857D01*
D11*
X147850000Y-155007142D02*
X147850000Y-152007142D01*
X149278571Y-155007142D02*
X149278571Y-152007142D01*
X149992857Y-152007142D01*
X150421428Y-152150000D01*
X150707142Y-152435714D01*
X150850000Y-152721428D01*
X150992857Y-153292857D01*
X150992857Y-153721428D01*
X150850000Y-154292857D01*
X150707142Y-154578571D01*
X150421428Y-154864285D01*
X149992857Y-155007142D01*
X149278571Y-155007142D01*
X147664285Y-143807142D02*
X147664285Y-140807142D01*
X149378571Y-143807142D01*
X149378571Y-140807142D01*
X150807142Y-142235714D02*
X151807142Y-142235714D01*
X152235714Y-143807142D02*
X150807142Y-143807142D01*
X150807142Y-140807142D01*
X152235714Y-140807142D01*
X153235714Y-140807142D02*
X155235714Y-143807142D01*
X155235714Y-140807142D02*
X153235714Y-143807142D01*
X155950000Y-140807142D02*
X157664285Y-140807142D01*
X156807142Y-143807142D02*
X156807142Y-140807142D01*
D10*
X131429428Y-100500571D02*
X131429428Y-99500571D01*
X131429428Y-99786285D02*
X131500857Y-99643428D01*
X131572285Y-99572000D01*
X131715142Y-99500571D01*
X131858000Y-99500571D01*
X132929428Y-100429142D02*
X132786571Y-100500571D01*
X132500857Y-100500571D01*
X132358000Y-100429142D01*
X132286571Y-100286285D01*
X132286571Y-99714857D01*
X132358000Y-99572000D01*
X132500857Y-99500571D01*
X132786571Y-99500571D01*
X132929428Y-99572000D01*
X133000857Y-99714857D01*
X133000857Y-99857714D01*
X132286571Y-100000571D01*
X133572285Y-100429142D02*
X133715142Y-100500571D01*
X134000857Y-100500571D01*
X134143714Y-100429142D01*
X134215142Y-100286285D01*
X134215142Y-100214857D01*
X134143714Y-100072000D01*
X134000857Y-100000571D01*
X133786571Y-100000571D01*
X133643714Y-99929142D01*
X133572285Y-99786285D01*
X133572285Y-99714857D01*
X133643714Y-99572000D01*
X133786571Y-99500571D01*
X134000857Y-99500571D01*
X134143714Y-99572000D01*
X135429428Y-100429142D02*
X135286571Y-100500571D01*
X135000857Y-100500571D01*
X134858000Y-100429142D01*
X134786571Y-100286285D01*
X134786571Y-99714857D01*
X134858000Y-99572000D01*
X135000857Y-99500571D01*
X135286571Y-99500571D01*
X135429428Y-99572000D01*
X135500857Y-99714857D01*
X135500857Y-99857714D01*
X134786571Y-100000571D01*
X135929428Y-99500571D02*
X136500857Y-99500571D01*
X136143714Y-99000571D02*
X136143714Y-100286285D01*
X136215142Y-100429142D01*
X136358000Y-100500571D01*
X136500857Y-100500571D01*
D12*
X135950000Y-165000000D02*
X147250000Y-165000000D01*
X135959800Y-169957600D02*
X135959800Y-165030000D01*
X147250000Y-169950000D02*
X135959800Y-169957600D01*
X147250000Y-165022400D02*
X147250000Y-169950000D01*
D11*
X138708333Y-169459523D02*
X137425000Y-167554761D01*
X136508333Y-169459523D02*
X136508333Y-165459523D01*
X137975000Y-165459523D01*
X138341666Y-165650000D01*
X138525000Y-165840476D01*
X138708333Y-166221428D01*
X138708333Y-166792857D01*
X138525000Y-167173809D01*
X138341666Y-167364285D01*
X137975000Y-167554761D01*
X136508333Y-167554761D01*
X140358333Y-165459523D02*
X140358333Y-168697619D01*
X140541666Y-169078571D01*
X140725000Y-169269047D01*
X141091666Y-169459523D01*
X141825000Y-169459523D01*
X142191666Y-169269047D01*
X142375000Y-169078571D01*
X142558333Y-168697619D01*
X142558333Y-165459523D01*
X144391666Y-169459523D02*
X144391666Y-165459523D01*
X146591666Y-169459523D01*
X146591666Y-165459523D01*
D10*
X149570571Y-109136571D02*
X149570571Y-108350857D01*
X149499142Y-108208000D01*
X149356285Y-108136571D01*
X149070571Y-108136571D01*
X148927714Y-108208000D01*
X149570571Y-109065142D02*
X149427714Y-109136571D01*
X149070571Y-109136571D01*
X148927714Y-109065142D01*
X148856285Y-108922285D01*
X148856285Y-108779428D01*
X148927714Y-108636571D01*
X149070571Y-108565142D01*
X149427714Y-108565142D01*
X149570571Y-108493714D01*
X150927714Y-109065142D02*
X150784857Y-109136571D01*
X150499142Y-109136571D01*
X150356285Y-109065142D01*
X150284857Y-108993714D01*
X150213428Y-108850857D01*
X150213428Y-108422285D01*
X150284857Y-108279428D01*
X150356285Y-108208000D01*
X150499142Y-108136571D01*
X150784857Y-108136571D01*
X150927714Y-108208000D01*
X151356285Y-108136571D02*
X151927714Y-108136571D01*
X151570571Y-107636571D02*
X151570571Y-108922285D01*
X151642000Y-109065142D01*
X151784857Y-109136571D01*
X151927714Y-109136571D01*
X152427714Y-109136571D02*
X152427714Y-108136571D01*
X152427714Y-107636571D02*
X152356285Y-107708000D01*
X152427714Y-107779428D01*
X152499142Y-107708000D01*
X152427714Y-107636571D01*
X152427714Y-107779428D01*
X152999142Y-108136571D02*
X153356285Y-109136571D01*
X153713428Y-108136571D01*
X154856285Y-109065142D02*
X154713428Y-109136571D01*
X154427714Y-109136571D01*
X154284857Y-109065142D01*
X154213428Y-108922285D01*
X154213428Y-108350857D01*
X154284857Y-108208000D01*
X154427714Y-108136571D01*
X154713428Y-108136571D01*
X154856285Y-108208000D01*
X154927714Y-108350857D01*
X154927714Y-108493714D01*
X154213428Y-108636571D01*
D13*
G04 #@! TO.C,C2*
X146164721Y-119958000D02*
X146490279Y-119958000D01*
X146164721Y-118938000D02*
X146490279Y-118938000D01*
G04 #@! TO.C,C3*
X146289721Y-120928000D02*
X146615279Y-120928000D01*
X146289721Y-121948000D02*
X146615279Y-121948000D01*
G04 #@! TO.C,C4*
X137094279Y-107444000D02*
X136768721Y-107444000D01*
X137094279Y-106424000D02*
X136768721Y-106424000D01*
G04 #@! TO.C,C5*
X136717721Y-103634000D02*
X137043279Y-103634000D01*
X136717721Y-102614000D02*
X137043279Y-102614000D01*
G04 #@! TO.C,J5*
X132528000Y-93666000D02*
X132528000Y-98866000D01*
X147828000Y-93666000D02*
X132528000Y-93666000D01*
X150428000Y-98866000D02*
X132528000Y-98866000D01*
X147828000Y-93666000D02*
X147828000Y-96266000D01*
X147828000Y-96266000D02*
X150428000Y-96266000D01*
X150428000Y-96266000D02*
X150428000Y-98866000D01*
X149098000Y-93666000D02*
X150428000Y-93666000D01*
X150428000Y-93666000D02*
X150428000Y-94996000D01*
G04 #@! TO.C,R1*
X140809721Y-106360000D02*
X141135279Y-106360000D01*
X140809721Y-107380000D02*
X141135279Y-107380000D01*
G04 #@! TO.C,R2*
X133280279Y-107340000D02*
X132954721Y-107340000D01*
X133280279Y-106320000D02*
X132954721Y-106320000D01*
G04 #@! TO.C,R4*
X146079721Y-113918000D02*
X146405279Y-113918000D01*
X146079721Y-112898000D02*
X146405279Y-112898000D01*
G04 #@! TO.C,SW2*
X146826000Y-106764000D02*
X144766000Y-106764000D01*
X146826000Y-102024000D02*
X144766000Y-102024000D01*
X148166000Y-102024000D02*
X147766000Y-102024000D01*
X148166000Y-106764000D02*
X148166000Y-102024000D01*
X148166000Y-106764000D02*
X147766000Y-106764000D01*
X143426000Y-102024000D02*
X143826000Y-102024000D01*
X143426000Y-106764000D02*
X143826000Y-106764000D01*
X143426000Y-106764000D02*
X143426000Y-102024000D01*
G04 #@! TO.C,SW3*
X132462000Y-105724000D02*
X127722000Y-105724000D01*
X132462000Y-105724000D02*
X132462000Y-105324000D01*
X127722000Y-105724000D02*
X127722000Y-105324000D01*
X132462000Y-100984000D02*
X132462000Y-101384000D01*
X132462000Y-100984000D02*
X127722000Y-100984000D01*
X127722000Y-100984000D02*
X127722000Y-101384000D01*
X127722000Y-102324000D02*
X127722000Y-104384000D01*
X132462000Y-102324000D02*
X132462000Y-104384000D01*
G04 #@! TO.C,SW4*
X146678000Y-146872000D02*
X146678000Y-136592000D01*
X126118000Y-146872000D02*
X146678000Y-146872000D01*
X126118000Y-136592000D02*
X126118000Y-146872000D01*
X146678000Y-136592000D02*
X126118000Y-136592000D01*
X146618000Y-144382000D02*
X146618000Y-142732000D01*
X126178000Y-144382000D02*
X146618000Y-144382000D01*
X126178000Y-139082000D02*
X126178000Y-144382000D01*
X146618000Y-139082000D02*
X126178000Y-139082000D01*
X146618000Y-140732000D02*
X146618000Y-139082000D01*
X146618000Y-142732000D02*
G75*
G02X146618000Y-140732000I0J1000000D01*
G01*
G04 #@! TO.C,SW5*
X146618000Y-131302000D02*
G75*
G02X146618000Y-129302000I0J1000000D01*
G01*
X146618000Y-129302000D02*
X146618000Y-127652000D01*
X146618000Y-127652000D02*
X126178000Y-127652000D01*
X126178000Y-127652000D02*
X126178000Y-132952000D01*
X126178000Y-132952000D02*
X146618000Y-132952000D01*
X146618000Y-132952000D02*
X146618000Y-131302000D01*
X146678000Y-125162000D02*
X126118000Y-125162000D01*
X126118000Y-125162000D02*
X126118000Y-135442000D01*
X126118000Y-135442000D02*
X146678000Y-135442000D01*
X146678000Y-135442000D02*
X146678000Y-125162000D01*
G04 #@! TO.C,SW6*
X146610000Y-154030000D02*
G75*
G02X146610000Y-152030000I0J1000000D01*
G01*
X146610000Y-152030000D02*
X146610000Y-150380000D01*
X146610000Y-150380000D02*
X126170000Y-150380000D01*
X126170000Y-150380000D02*
X126170000Y-155680000D01*
X126170000Y-155680000D02*
X146610000Y-155680000D01*
X146610000Y-155680000D02*
X146610000Y-154030000D01*
X146670000Y-147890000D02*
X126110000Y-147890000D01*
X126110000Y-147890000D02*
X126110000Y-158170000D01*
X126110000Y-158170000D02*
X146670000Y-158170000D01*
X146670000Y-158170000D02*
X146670000Y-147890000D01*
D10*
G04 #@! TO.C,U1*
X134085000Y-118335000D02*
X134310000Y-118335000D01*
X134085000Y-111085000D02*
X134410000Y-111085000D01*
X141335000Y-111085000D02*
X141010000Y-111085000D01*
X141335000Y-118335000D02*
X141010000Y-118335000D01*
X134085000Y-118335000D02*
X134085000Y-118010000D01*
X141335000Y-118335000D02*
X141335000Y-118010000D01*
X141335000Y-111085000D02*
X141335000Y-111410000D01*
X134085000Y-111085000D02*
X134085000Y-111410000D01*
X134310000Y-118335000D02*
X134310000Y-119760000D01*
D13*
G04 #@! TO.C,Y1*
X154950000Y-123688000D02*
X154950000Y-111088000D01*
X154950000Y-111088000D02*
X149850000Y-111088000D01*
X149850000Y-111088000D02*
X149850000Y-123688000D01*
G04 #@! TO.C,C1*
X146505279Y-117008000D02*
X146179721Y-117008000D01*
X146505279Y-118028000D02*
X146179721Y-118028000D01*
G04 #@! TO.C,R7*
X146304721Y-122958000D02*
X146630279Y-122958000D01*
X146304721Y-123978000D02*
X146630279Y-123978000D01*
G04 #@! TO.C,D2*
X133262500Y-123385000D02*
X135547500Y-123385000D01*
X135547500Y-123385000D02*
X135547500Y-121915000D01*
X135547500Y-121915000D02*
X133262500Y-121915000D01*
G04 #@! TO.C,C2*
D10*
X148663333Y-119915142D02*
X148615714Y-119962761D01*
X148472857Y-120010380D01*
X148377619Y-120010380D01*
X148234761Y-119962761D01*
X148139523Y-119867523D01*
X148091904Y-119772285D01*
X148044285Y-119581809D01*
X148044285Y-119438952D01*
X148091904Y-119248476D01*
X148139523Y-119153238D01*
X148234761Y-119058000D01*
X148377619Y-119010380D01*
X148472857Y-119010380D01*
X148615714Y-119058000D01*
X148663333Y-119105619D01*
X149044285Y-119105619D02*
X149091904Y-119058000D01*
X149187142Y-119010380D01*
X149425238Y-119010380D01*
X149520476Y-119058000D01*
X149568095Y-119105619D01*
X149615714Y-119200857D01*
X149615714Y-119296095D01*
X149568095Y-119438952D01*
X148996666Y-120010380D01*
X149615714Y-120010380D01*
G04 #@! TO.C,C3*
X148813333Y-121935142D02*
X148765714Y-121982761D01*
X148622857Y-122030380D01*
X148527619Y-122030380D01*
X148384761Y-121982761D01*
X148289523Y-121887523D01*
X148241904Y-121792285D01*
X148194285Y-121601809D01*
X148194285Y-121458952D01*
X148241904Y-121268476D01*
X148289523Y-121173238D01*
X148384761Y-121078000D01*
X148527619Y-121030380D01*
X148622857Y-121030380D01*
X148765714Y-121078000D01*
X148813333Y-121125619D01*
X149146666Y-121030380D02*
X149765714Y-121030380D01*
X149432380Y-121411333D01*
X149575238Y-121411333D01*
X149670476Y-121458952D01*
X149718095Y-121506571D01*
X149765714Y-121601809D01*
X149765714Y-121839904D01*
X149718095Y-121935142D01*
X149670476Y-121982761D01*
X149575238Y-122030380D01*
X149289523Y-122030380D01*
X149194285Y-121982761D01*
X149146666Y-121935142D01*
G04 #@! TO.C,C4*
X136993333Y-108815142D02*
X136945714Y-108862761D01*
X136802857Y-108910380D01*
X136707619Y-108910380D01*
X136564761Y-108862761D01*
X136469523Y-108767523D01*
X136421904Y-108672285D01*
X136374285Y-108481809D01*
X136374285Y-108338952D01*
X136421904Y-108148476D01*
X136469523Y-108053238D01*
X136564761Y-107958000D01*
X136707619Y-107910380D01*
X136802857Y-107910380D01*
X136945714Y-107958000D01*
X136993333Y-108005619D01*
X137850476Y-108243714D02*
X137850476Y-108910380D01*
X137612380Y-107862761D02*
X137374285Y-108577047D01*
X137993333Y-108577047D01*
G04 #@! TO.C,C5*
X136663833Y-105259142D02*
X136616214Y-105306761D01*
X136473357Y-105354380D01*
X136378119Y-105354380D01*
X136235261Y-105306761D01*
X136140023Y-105211523D01*
X136092404Y-105116285D01*
X136044785Y-104925809D01*
X136044785Y-104782952D01*
X136092404Y-104592476D01*
X136140023Y-104497238D01*
X136235261Y-104402000D01*
X136378119Y-104354380D01*
X136473357Y-104354380D01*
X136616214Y-104402000D01*
X136663833Y-104449619D01*
X137568595Y-104354380D02*
X137092404Y-104354380D01*
X137044785Y-104830571D01*
X137092404Y-104782952D01*
X137187642Y-104735333D01*
X137425738Y-104735333D01*
X137520976Y-104782952D01*
X137568595Y-104830571D01*
X137616214Y-104925809D01*
X137616214Y-105163904D01*
X137568595Y-105259142D01*
X137520976Y-105306761D01*
X137425738Y-105354380D01*
X137187642Y-105354380D01*
X137092404Y-105306761D01*
X137044785Y-105259142D01*
G04 #@! TO.C,H1*
X154178095Y-166314380D02*
X154178095Y-165314380D01*
X154178095Y-165790571D02*
X154749523Y-165790571D01*
X154749523Y-166314380D02*
X154749523Y-165314380D01*
X155749523Y-166314380D02*
X155178095Y-166314380D01*
X155463809Y-166314380D02*
X155463809Y-165314380D01*
X155368571Y-165457238D01*
X155273333Y-165552476D01*
X155178095Y-165600095D01*
G04 #@! TO.C,H2*
X127254095Y-167330380D02*
X127254095Y-166330380D01*
X127254095Y-166806571D02*
X127825523Y-166806571D01*
X127825523Y-167330380D02*
X127825523Y-166330380D01*
X128254095Y-166425619D02*
X128301714Y-166378000D01*
X128396952Y-166330380D01*
X128635047Y-166330380D01*
X128730285Y-166378000D01*
X128777904Y-166425619D01*
X128825523Y-166520857D01*
X128825523Y-166616095D01*
X128777904Y-166758952D01*
X128206476Y-167330380D01*
X128825523Y-167330380D01*
G04 #@! TO.C,H3*
X153924095Y-98242380D02*
X153924095Y-97242380D01*
X153924095Y-97718571D02*
X154495523Y-97718571D01*
X154495523Y-98242380D02*
X154495523Y-97242380D01*
X154876476Y-97242380D02*
X155495523Y-97242380D01*
X155162190Y-97623333D01*
X155305047Y-97623333D01*
X155400285Y-97670952D01*
X155447904Y-97718571D01*
X155495523Y-97813809D01*
X155495523Y-98051904D01*
X155447904Y-98147142D01*
X155400285Y-98194761D01*
X155305047Y-98242380D01*
X155019333Y-98242380D01*
X154924095Y-98194761D01*
X154876476Y-98147142D01*
G04 #@! TO.C,H4*
X127254095Y-97226380D02*
X127254095Y-96226380D01*
X127254095Y-96702571D02*
X127825523Y-96702571D01*
X127825523Y-97226380D02*
X127825523Y-96226380D01*
X128730285Y-96559714D02*
X128730285Y-97226380D01*
X128492190Y-96178761D02*
X128254095Y-96893047D01*
X128873142Y-96893047D01*
G04 #@! TO.C,H5*
X150803595Y-102170380D02*
X150803595Y-101170380D01*
X150803595Y-101646571D02*
X151375023Y-101646571D01*
X151375023Y-102170380D02*
X151375023Y-101170380D01*
X152327404Y-101170380D02*
X151851214Y-101170380D01*
X151803595Y-101646571D01*
X151851214Y-101598952D01*
X151946452Y-101551333D01*
X152184547Y-101551333D01*
X152279785Y-101598952D01*
X152327404Y-101646571D01*
X152375023Y-101741809D01*
X152375023Y-101979904D01*
X152327404Y-102075142D01*
X152279785Y-102122761D01*
X152184547Y-102170380D01*
X151946452Y-102170380D01*
X151851214Y-102122761D01*
X151803595Y-102075142D01*
G04 #@! TO.C,J5*
X150880380Y-96599333D02*
X151594666Y-96599333D01*
X151737523Y-96646952D01*
X151832761Y-96742190D01*
X151880380Y-96885047D01*
X151880380Y-96980285D01*
X150880380Y-95646952D02*
X150880380Y-96123142D01*
X151356571Y-96170761D01*
X151308952Y-96123142D01*
X151261333Y-96027904D01*
X151261333Y-95789809D01*
X151308952Y-95694571D01*
X151356571Y-95646952D01*
X151451809Y-95599333D01*
X151689904Y-95599333D01*
X151785142Y-95646952D01*
X151832761Y-95694571D01*
X151880380Y-95789809D01*
X151880380Y-96027904D01*
X151832761Y-96123142D01*
X151785142Y-96170761D01*
G04 #@! TO.C,R1*
X140833333Y-108832380D02*
X140500000Y-108356190D01*
X140261904Y-108832380D02*
X140261904Y-107832380D01*
X140642857Y-107832380D01*
X140738095Y-107880000D01*
X140785714Y-107927619D01*
X140833333Y-108022857D01*
X140833333Y-108165714D01*
X140785714Y-108260952D01*
X140738095Y-108308571D01*
X140642857Y-108356190D01*
X140261904Y-108356190D01*
X141785714Y-108832380D02*
X141214285Y-108832380D01*
X141500000Y-108832380D02*
X141500000Y-107832380D01*
X141404761Y-107975238D01*
X141309523Y-108070476D01*
X141214285Y-108118095D01*
G04 #@! TO.C,R2*
X132950833Y-108712380D02*
X132617500Y-108236190D01*
X132379404Y-108712380D02*
X132379404Y-107712380D01*
X132760357Y-107712380D01*
X132855595Y-107760000D01*
X132903214Y-107807619D01*
X132950833Y-107902857D01*
X132950833Y-108045714D01*
X132903214Y-108140952D01*
X132855595Y-108188571D01*
X132760357Y-108236190D01*
X132379404Y-108236190D01*
X133331785Y-107807619D02*
X133379404Y-107760000D01*
X133474642Y-107712380D01*
X133712738Y-107712380D01*
X133807976Y-107760000D01*
X133855595Y-107807619D01*
X133903214Y-107902857D01*
X133903214Y-107998095D01*
X133855595Y-108140952D01*
X133284166Y-108712380D01*
X133903214Y-108712380D01*
G04 #@! TO.C,R4*
X148573333Y-113940380D02*
X148240000Y-113464190D01*
X148001904Y-113940380D02*
X148001904Y-112940380D01*
X148382857Y-112940380D01*
X148478095Y-112988000D01*
X148525714Y-113035619D01*
X148573333Y-113130857D01*
X148573333Y-113273714D01*
X148525714Y-113368952D01*
X148478095Y-113416571D01*
X148382857Y-113464190D01*
X148001904Y-113464190D01*
X149430476Y-113273714D02*
X149430476Y-113940380D01*
X149192380Y-112892761D02*
X148954285Y-113607047D01*
X149573333Y-113607047D01*
G04 #@! TO.C,SW2*
X144388666Y-104860761D02*
X144531523Y-104908380D01*
X144769619Y-104908380D01*
X144864857Y-104860761D01*
X144912476Y-104813142D01*
X144960095Y-104717904D01*
X144960095Y-104622666D01*
X144912476Y-104527428D01*
X144864857Y-104479809D01*
X144769619Y-104432190D01*
X144579142Y-104384571D01*
X144483904Y-104336952D01*
X144436285Y-104289333D01*
X144388666Y-104194095D01*
X144388666Y-104098857D01*
X144436285Y-104003619D01*
X144483904Y-103956000D01*
X144579142Y-103908380D01*
X144817238Y-103908380D01*
X144960095Y-103956000D01*
X145293428Y-103908380D02*
X145531523Y-104908380D01*
X145722000Y-104194095D01*
X145912476Y-104908380D01*
X146150571Y-103908380D01*
X146483904Y-104003619D02*
X146531523Y-103956000D01*
X146626761Y-103908380D01*
X146864857Y-103908380D01*
X146960095Y-103956000D01*
X147007714Y-104003619D01*
X147055333Y-104098857D01*
X147055333Y-104194095D01*
X147007714Y-104336952D01*
X146436285Y-104908380D01*
X147055333Y-104908380D01*
G04 #@! TO.C,SW3*
X130430761Y-104817333D02*
X130478380Y-104674476D01*
X130478380Y-104436380D01*
X130430761Y-104341142D01*
X130383142Y-104293523D01*
X130287904Y-104245904D01*
X130192666Y-104245904D01*
X130097428Y-104293523D01*
X130049809Y-104341142D01*
X130002190Y-104436380D01*
X129954571Y-104626857D01*
X129906952Y-104722095D01*
X129859333Y-104769714D01*
X129764095Y-104817333D01*
X129668857Y-104817333D01*
X129573619Y-104769714D01*
X129526000Y-104722095D01*
X129478380Y-104626857D01*
X129478380Y-104388761D01*
X129526000Y-104245904D01*
X129478380Y-103912571D02*
X130478380Y-103674476D01*
X129764095Y-103484000D01*
X130478380Y-103293523D01*
X129478380Y-103055428D01*
X129478380Y-102769714D02*
X129478380Y-102150666D01*
X129859333Y-102484000D01*
X129859333Y-102341142D01*
X129906952Y-102245904D01*
X129954571Y-102198285D01*
X130049809Y-102150666D01*
X130287904Y-102150666D01*
X130383142Y-102198285D01*
X130430761Y-102245904D01*
X130478380Y-102341142D01*
X130478380Y-102626857D01*
X130430761Y-102722095D01*
X130383142Y-102769714D01*
G04 #@! TO.C,SW4*
X130492666Y-142898761D02*
X130635523Y-142946380D01*
X130873619Y-142946380D01*
X130968857Y-142898761D01*
X131016476Y-142851142D01*
X131064095Y-142755904D01*
X131064095Y-142660666D01*
X131016476Y-142565428D01*
X130968857Y-142517809D01*
X130873619Y-142470190D01*
X130683142Y-142422571D01*
X130587904Y-142374952D01*
X130540285Y-142327333D01*
X130492666Y-142232095D01*
X130492666Y-142136857D01*
X130540285Y-142041619D01*
X130587904Y-141994000D01*
X130683142Y-141946380D01*
X130921238Y-141946380D01*
X131064095Y-141994000D01*
X131397428Y-141946380D02*
X131635523Y-142946380D01*
X131826000Y-142232095D01*
X132016476Y-142946380D01*
X132254571Y-141946380D01*
X133064095Y-142279714D02*
X133064095Y-142946380D01*
X132826000Y-141898761D02*
X132587904Y-142613047D01*
X133206952Y-142613047D01*
G04 #@! TO.C,SW5*
X130746666Y-130706761D02*
X130889523Y-130754380D01*
X131127619Y-130754380D01*
X131222857Y-130706761D01*
X131270476Y-130659142D01*
X131318095Y-130563904D01*
X131318095Y-130468666D01*
X131270476Y-130373428D01*
X131222857Y-130325809D01*
X131127619Y-130278190D01*
X130937142Y-130230571D01*
X130841904Y-130182952D01*
X130794285Y-130135333D01*
X130746666Y-130040095D01*
X130746666Y-129944857D01*
X130794285Y-129849619D01*
X130841904Y-129802000D01*
X130937142Y-129754380D01*
X131175238Y-129754380D01*
X131318095Y-129802000D01*
X131651428Y-129754380D02*
X131889523Y-130754380D01*
X132080000Y-130040095D01*
X132270476Y-130754380D01*
X132508571Y-129754380D01*
X133365714Y-129754380D02*
X132889523Y-129754380D01*
X132841904Y-130230571D01*
X132889523Y-130182952D01*
X132984761Y-130135333D01*
X133222857Y-130135333D01*
X133318095Y-130182952D01*
X133365714Y-130230571D01*
X133413333Y-130325809D01*
X133413333Y-130563904D01*
X133365714Y-130659142D01*
X133318095Y-130706761D01*
X133222857Y-130754380D01*
X132984761Y-130754380D01*
X132889523Y-130706761D01*
X132841904Y-130659142D01*
G04 #@! TO.C,SW6*
X139120666Y-153688761D02*
X139263523Y-153736380D01*
X139501619Y-153736380D01*
X139596857Y-153688761D01*
X139644476Y-153641142D01*
X139692095Y-153545904D01*
X139692095Y-153450666D01*
X139644476Y-153355428D01*
X139596857Y-153307809D01*
X139501619Y-153260190D01*
X139311142Y-153212571D01*
X139215904Y-153164952D01*
X139168285Y-153117333D01*
X139120666Y-153022095D01*
X139120666Y-152926857D01*
X139168285Y-152831619D01*
X139215904Y-152784000D01*
X139311142Y-152736380D01*
X139549238Y-152736380D01*
X139692095Y-152784000D01*
X140025428Y-152736380D02*
X140263523Y-153736380D01*
X140454000Y-153022095D01*
X140644476Y-153736380D01*
X140882571Y-152736380D01*
X141692095Y-152736380D02*
X141501619Y-152736380D01*
X141406380Y-152784000D01*
X141358761Y-152831619D01*
X141263523Y-152974476D01*
X141215904Y-153164952D01*
X141215904Y-153545904D01*
X141263523Y-153641142D01*
X141311142Y-153688761D01*
X141406380Y-153736380D01*
X141596857Y-153736380D01*
X141692095Y-153688761D01*
X141739714Y-153641142D01*
X141787333Y-153545904D01*
X141787333Y-153307809D01*
X141739714Y-153212571D01*
X141692095Y-153164952D01*
X141596857Y-153117333D01*
X141406380Y-153117333D01*
X141311142Y-153164952D01*
X141263523Y-153212571D01*
X141215904Y-153307809D01*
G04 #@! TO.C,U1*
X136652095Y-114260380D02*
X136652095Y-115069904D01*
X136699714Y-115165142D01*
X136747333Y-115212761D01*
X136842571Y-115260380D01*
X137033047Y-115260380D01*
X137128285Y-115212761D01*
X137175904Y-115165142D01*
X137223523Y-115069904D01*
X137223523Y-114260380D01*
X138223523Y-115260380D02*
X137652095Y-115260380D01*
X137937809Y-115260380D02*
X137937809Y-114260380D01*
X137842571Y-114403238D01*
X137747333Y-114498476D01*
X137652095Y-114546095D01*
G04 #@! TO.C,Y1*
X152083809Y-117634190D02*
X152083809Y-118110380D01*
X151750476Y-117110380D02*
X152083809Y-117634190D01*
X152417142Y-117110380D01*
X153274285Y-118110380D02*
X152702857Y-118110380D01*
X152988571Y-118110380D02*
X152988571Y-117110380D01*
X152893333Y-117253238D01*
X152798095Y-117348476D01*
X152702857Y-117396095D01*
G04 #@! TO.C,C1*
X148663333Y-117895142D02*
X148615714Y-117942761D01*
X148472857Y-117990380D01*
X148377619Y-117990380D01*
X148234761Y-117942761D01*
X148139523Y-117847523D01*
X148091904Y-117752285D01*
X148044285Y-117561809D01*
X148044285Y-117418952D01*
X148091904Y-117228476D01*
X148139523Y-117133238D01*
X148234761Y-117038000D01*
X148377619Y-116990380D01*
X148472857Y-116990380D01*
X148615714Y-117038000D01*
X148663333Y-117085619D01*
X149615714Y-117990380D02*
X149044285Y-117990380D01*
X149330000Y-117990380D02*
X149330000Y-116990380D01*
X149234761Y-117133238D01*
X149139523Y-117228476D01*
X149044285Y-117276095D01*
G04 #@! TO.C,J1*
X124674380Y-121745333D02*
X125388666Y-121745333D01*
X125531523Y-121792952D01*
X125626761Y-121888190D01*
X125674380Y-122031047D01*
X125674380Y-122126285D01*
X125674380Y-120745333D02*
X125674380Y-121316761D01*
X125674380Y-121031047D02*
X124674380Y-121031047D01*
X124817238Y-121126285D01*
X124912476Y-121221523D01*
X124960095Y-121316761D01*
G04 #@! TO.C,J3*
X129754380Y-109807333D02*
X130468666Y-109807333D01*
X130611523Y-109854952D01*
X130706761Y-109950190D01*
X130754380Y-110093047D01*
X130754380Y-110188285D01*
X129754380Y-109426380D02*
X129754380Y-108807333D01*
X130135333Y-109140666D01*
X130135333Y-108997809D01*
X130182952Y-108902571D01*
X130230571Y-108854952D01*
X130325809Y-108807333D01*
X130563904Y-108807333D01*
X130659142Y-108854952D01*
X130706761Y-108902571D01*
X130754380Y-108997809D01*
X130754380Y-109283523D01*
X130706761Y-109378761D01*
X130659142Y-109426380D01*
G04 #@! TO.C,R7*
X148763333Y-124060380D02*
X148430000Y-123584190D01*
X148191904Y-124060380D02*
X148191904Y-123060380D01*
X148572857Y-123060380D01*
X148668095Y-123108000D01*
X148715714Y-123155619D01*
X148763333Y-123250857D01*
X148763333Y-123393714D01*
X148715714Y-123488952D01*
X148668095Y-123536571D01*
X148572857Y-123584190D01*
X148191904Y-123584190D01*
X149096666Y-123060380D02*
X149763333Y-123060380D01*
X149334761Y-124060380D01*
G04 #@! TO.C,D2*
X133627904Y-121610380D02*
X133627904Y-120610380D01*
X133866000Y-120610380D01*
X134008857Y-120658000D01*
X134104095Y-120753238D01*
X134151714Y-120848476D01*
X134199333Y-121038952D01*
X134199333Y-121181809D01*
X134151714Y-121372285D01*
X134104095Y-121467523D01*
X134008857Y-121562761D01*
X133866000Y-121610380D01*
X133627904Y-121610380D01*
X134580285Y-120705619D02*
X134627904Y-120658000D01*
X134723142Y-120610380D01*
X134961238Y-120610380D01*
X135056476Y-120658000D01*
X135104095Y-120705619D01*
X135151714Y-120800857D01*
X135151714Y-120896095D01*
X135104095Y-121038952D01*
X134532666Y-121610380D01*
X135151714Y-121610380D01*
G04 #@! TD*
M02*
