G04 #@! TF.GenerationSoftware,KiCad,Pcbnew,5.0.0-fee4fd1~66~ubuntu14.04.1*
G04 #@! TF.CreationDate,2018-10-15T15:44:16-07:00*
G04 #@! TF.ProjectId,run,72756E2E6B696361645F706362000000,rev?*
G04 #@! TF.SameCoordinates,Original*
G04 #@! TF.FileFunction,Copper,L1,Top,Signal*
G04 #@! TF.FilePolarity,Positive*
%FSLAX46Y46*%
G04 Gerber Fmt 4.6, Leading zero omitted, Abs format (unit mm)*
G04 Created by KiCad (PCBNEW 5.0.0-fee4fd1~66~ubuntu14.04.1) date Mon Oct 15 15:44:16 2018*
%MOMM*%
%LPD*%
G01*
G04 APERTURE LIST*
G04 #@! TA.AperFunction,ComponentPad*
%ADD10R,1.600000X1.600000*%
G04 #@! TD*
G04 #@! TA.AperFunction,ComponentPad*
%ADD11O,1.600000X1.600000*%
G04 #@! TD*
G04 #@! TA.AperFunction,ComponentPad*
%ADD12R,1.700000X1.700000*%
G04 #@! TD*
G04 #@! TA.AperFunction,ComponentPad*
%ADD13O,1.700000X1.700000*%
G04 #@! TD*
G04 #@! TA.AperFunction,ComponentPad*
%ADD14C,1.600000*%
G04 #@! TD*
G04 #@! TA.AperFunction,ComponentPad*
%ADD15R,1.800000X1.800000*%
G04 #@! TD*
G04 #@! TA.AperFunction,ComponentPad*
%ADD16C,1.800000*%
G04 #@! TD*
G04 #@! TA.AperFunction,ComponentPad*
%ADD17C,2.000000*%
G04 #@! TD*
G04 #@! TA.AperFunction,ComponentPad*
%ADD18C,1.500000*%
G04 #@! TD*
G04 #@! TA.AperFunction,Conductor*
%ADD19C,0.250000*%
G04 #@! TD*
G04 #@! TA.AperFunction,Conductor*
%ADD20C,1.000000*%
G04 #@! TD*
G04 #@! TA.AperFunction,Conductor*
%ADD21C,2.000000*%
G04 #@! TD*
G04 APERTURE END LIST*
D10*
G04 #@! TO.P,U1,1*
G04 #@! TO.N,RESET*
X125933200Y-93065600D03*
D11*
G04 #@! TO.P,U1,15*
G04 #@! TO.N,d9*
X158953200Y-85445600D03*
G04 #@! TO.P,U1,2*
G04 #@! TO.N,RX*
X128473200Y-93065600D03*
G04 #@! TO.P,U1,16*
G04 #@! TO.N,d10*
X156413200Y-85445600D03*
G04 #@! TO.P,U1,3*
G04 #@! TO.N,TX*
X131013200Y-93065600D03*
G04 #@! TO.P,U1,17*
G04 #@! TO.N,d11*
X153873200Y-85445600D03*
G04 #@! TO.P,U1,4*
G04 #@! TO.N,d2*
X133553200Y-93065600D03*
G04 #@! TO.P,U1,18*
G04 #@! TO.N,d12*
X151333200Y-85445600D03*
G04 #@! TO.P,U1,5*
G04 #@! TO.N,d3*
X136093200Y-93065600D03*
G04 #@! TO.P,U1,19*
G04 #@! TO.N,d13*
X148793200Y-85445600D03*
G04 #@! TO.P,U1,6*
G04 #@! TO.N,d4*
X138633200Y-93065600D03*
G04 #@! TO.P,U1,20*
G04 #@! TO.N,VCC*
X146253200Y-85445600D03*
G04 #@! TO.P,U1,7*
X141173200Y-93065600D03*
G04 #@! TO.P,U1,21*
G04 #@! TO.N,AREF*
X143713200Y-85445600D03*
G04 #@! TO.P,U1,8*
G04 #@! TO.N,GND*
X143713200Y-93065600D03*
G04 #@! TO.P,U1,22*
X141173200Y-85445600D03*
G04 #@! TO.P,U1,9*
G04 #@! TO.N,XTAL1*
X146253200Y-93065600D03*
G04 #@! TO.P,U1,23*
G04 #@! TO.N,a0*
X138633200Y-85445600D03*
G04 #@! TO.P,U1,10*
G04 #@! TO.N,XTAL2*
X148793200Y-93065600D03*
G04 #@! TO.P,U1,24*
G04 #@! TO.N,a1*
X136093200Y-85445600D03*
G04 #@! TO.P,U1,11*
G04 #@! TO.N,d5*
X151333200Y-93065600D03*
G04 #@! TO.P,U1,25*
G04 #@! TO.N,a2*
X133553200Y-85445600D03*
G04 #@! TO.P,U1,12*
G04 #@! TO.N,d6*
X153873200Y-93065600D03*
G04 #@! TO.P,U1,26*
G04 #@! TO.N,a3*
X131013200Y-85445600D03*
G04 #@! TO.P,U1,13*
G04 #@! TO.N,d7*
X156413200Y-93065600D03*
G04 #@! TO.P,U1,27*
G04 #@! TO.N,a4*
X128473200Y-85445600D03*
G04 #@! TO.P,U1,14*
G04 #@! TO.N,d8*
X158953200Y-93065600D03*
G04 #@! TO.P,U1,28*
G04 #@! TO.N,a5*
X125933200Y-85445600D03*
G04 #@! TD*
D12*
G04 #@! TO.P,J3,1*
G04 #@! TO.N,GND*
X130784600Y-121513600D03*
D13*
G04 #@! TO.P,J3,2*
X130784600Y-118973600D03*
G04 #@! TO.P,J3,3*
G04 #@! TO.N,VCC*
X130784600Y-116433600D03*
G04 #@! TO.P,J3,4*
G04 #@! TO.N,RX*
X130784600Y-113893600D03*
G04 #@! TO.P,J3,5*
G04 #@! TO.N,TX*
X130784600Y-111353600D03*
G04 #@! TO.P,J3,6*
G04 #@! TO.N,DTR*
X130784600Y-108813600D03*
G04 #@! TD*
D10*
G04 #@! TO.P,C1,1*
G04 #@! TO.N,VCC*
X126492000Y-99822000D03*
D14*
G04 #@! TO.P,C1,2*
G04 #@! TO.N,GND*
X128992000Y-99822000D03*
G04 #@! TD*
G04 #@! TO.P,C2,2*
G04 #@! TO.N,XTAL1*
X147066000Y-81036800D03*
G04 #@! TO.P,C2,1*
G04 #@! TO.N,GND*
X147066000Y-78536800D03*
G04 #@! TD*
G04 #@! TO.P,C3,1*
G04 #@! TO.N,GND*
X147040600Y-76149200D03*
G04 #@! TO.P,C3,2*
G04 #@! TO.N,XTAL2*
X149540600Y-76149200D03*
G04 #@! TD*
D11*
G04 #@! TO.P,C4,2*
G04 #@! TO.N,GND*
X129895600Y-74567400D03*
D14*
G04 #@! TO.P,C4,1*
G04 #@! TO.N,AREF*
X129895600Y-82067400D03*
G04 #@! TD*
G04 #@! TO.P,C5,1*
G04 #@! TO.N,RESET*
X126085600Y-74574400D03*
D11*
G04 #@! TO.P,C5,2*
G04 #@! TO.N,DTR*
X126085600Y-82074400D03*
G04 #@! TD*
D15*
G04 #@! TO.P,D1,1*
G04 #@! TO.N,GND*
X145338800Y-68605400D03*
D16*
G04 #@! TO.P,D1,2*
G04 #@! TO.N,Net-(D1-Pad2)*
X142798800Y-68605400D03*
G04 #@! TD*
D13*
G04 #@! TO.P,J1,3*
G04 #@! TO.N,VCC*
X126238000Y-116840000D03*
G04 #@! TO.P,J1,2*
G04 #@! TO.N,GND*
X126238000Y-114300000D03*
D12*
G04 #@! TO.P,J1,1*
G04 #@! TO.N,a0*
X126238000Y-111760000D03*
G04 #@! TD*
G04 #@! TO.P,J2,1*
G04 #@! TO.N,a1*
X159258000Y-111760000D03*
D13*
G04 #@! TO.P,J2,2*
G04 #@! TO.N,GND*
X159258000Y-114300000D03*
G04 #@! TO.P,J2,3*
G04 #@! TO.N,VCC*
X159258000Y-116840000D03*
G04 #@! TD*
D12*
G04 #@! TO.P,J4,1*
G04 #@! TO.N,a2*
X149910800Y-67183000D03*
D13*
G04 #@! TO.P,J4,2*
G04 #@! TO.N,GND*
X152450800Y-67183000D03*
G04 #@! TO.P,J4,3*
G04 #@! TO.N,VCC*
X154990800Y-67183000D03*
G04 #@! TD*
D14*
G04 #@! TO.P,R1,1*
G04 #@! TO.N,Net-(D1-Pad2)*
X136677400Y-71932800D03*
D11*
G04 #@! TO.P,R1,2*
G04 #@! TO.N,a2*
X136677400Y-82092800D03*
G04 #@! TD*
G04 #@! TO.P,R2,2*
G04 #@! TO.N,RESET*
X133400800Y-71932800D03*
D14*
G04 #@! TO.P,R2,1*
G04 #@! TO.N,VCC*
X133400800Y-82092800D03*
G04 #@! TD*
D17*
G04 #@! TO.P,SW2,2*
G04 #@! TO.N,GND*
X152196800Y-76356600D03*
G04 #@! TO.P,SW2,1*
G04 #@! TO.N,a3*
X152196800Y-71856600D03*
G04 #@! TO.P,SW2,4*
G04 #@! TO.N,Net-(SW2-Pad3)*
X158696800Y-76356600D03*
G04 #@! TO.P,SW2,3*
X158696800Y-71856600D03*
G04 #@! TD*
G04 #@! TO.P,SW3,3*
G04 #@! TO.N,Net-(SW3-Pad3)*
X139954000Y-75135600D03*
G04 #@! TO.P,SW3,4*
X144454000Y-75135600D03*
G04 #@! TO.P,SW3,1*
G04 #@! TO.N,GND*
X139954000Y-81635600D03*
G04 #@! TO.P,SW3,2*
G04 #@! TO.N,RESET*
X144454000Y-81635600D03*
G04 #@! TD*
D18*
G04 #@! TO.P,Y1,1*
G04 #@! TO.N,XTAL1*
X151815800Y-80797400D03*
G04 #@! TO.P,Y1,2*
G04 #@! TO.N,XTAL2*
X156715800Y-80797400D03*
G04 #@! TD*
D17*
G04 #@! TO.P,SW1,3*
G04 #@! TO.N,Net-(SW1-Pad3)*
X141884400Y-106347400D03*
G04 #@! TO.P,SW1,4*
G04 #@! TO.N,Net-(SW1-Pad4)*
X137384400Y-106347400D03*
G04 #@! TO.P,SW1,1*
G04 #@! TO.N,d2*
X141884400Y-99847400D03*
G04 #@! TO.P,SW1,2*
G04 #@! TO.N,GND*
X137384400Y-99847400D03*
G04 #@! TD*
D19*
G04 #@! TO.N,GND*
X132885800Y-74567400D02*
X139954000Y-81635600D01*
X129895600Y-74567400D02*
X132885800Y-74567400D01*
D20*
X130251200Y-118821200D02*
X130378200Y-118948200D01*
D21*
X130632200Y-118821200D02*
X130784600Y-118973600D01*
D20*
X147040600Y-78511400D02*
X147066000Y-78536800D01*
X147040600Y-76149200D02*
X147040600Y-78511400D01*
X143713200Y-93065600D02*
X143713200Y-90500200D01*
X141173200Y-87960200D02*
X141173200Y-85445600D01*
X143713200Y-90500200D02*
X141173200Y-87960200D01*
D19*
X130784600Y-118973600D02*
X130784600Y-121513600D01*
D20*
X160681001Y-82057799D02*
X154497202Y-75874000D01*
X154497202Y-75874000D02*
X153611013Y-75874000D01*
X153611013Y-75874000D02*
X152196800Y-75874000D01*
X139954000Y-83870800D02*
X139954000Y-81635600D01*
X141173200Y-85090000D02*
X139954000Y-83870800D01*
X141173200Y-85445600D02*
X141173200Y-85090000D01*
X144424400Y-78765400D02*
X147040600Y-76149200D01*
X142900400Y-78765400D02*
X144424400Y-78765400D01*
X140030200Y-81635600D02*
X142900400Y-78765400D01*
X139954000Y-81635600D02*
X140030200Y-81635600D01*
D19*
X130505200Y-121234200D02*
X130784600Y-121513600D01*
X126365000Y-121234200D02*
X130505200Y-121234200D01*
D21*
X127440081Y-114300000D02*
X128524000Y-115383919D01*
X129582519Y-118973600D02*
X130784600Y-118973600D01*
X128524000Y-117915081D02*
X129582519Y-118973600D01*
X128524000Y-115383919D02*
X128524000Y-117915081D01*
D20*
X128992000Y-99822000D02*
X128992000Y-105704000D01*
X128992000Y-105704000D02*
X128270000Y-106426000D01*
X127440081Y-114300000D02*
X126238000Y-114300000D01*
X128270000Y-113470081D02*
X127440081Y-114300000D01*
X128270000Y-106426000D02*
X128270000Y-113470081D01*
D19*
X158259601Y-120108801D02*
X159359600Y-121208800D01*
X158082999Y-119932199D02*
X158259601Y-120108801D01*
X158082999Y-115475001D02*
X158082999Y-119932199D01*
X159258000Y-114300000D02*
X158082999Y-115475001D01*
D20*
X160460081Y-114300000D02*
X160903212Y-113856869D01*
X160681001Y-84341658D02*
X160681001Y-82057799D01*
X160903212Y-113856869D02*
X160903212Y-84563869D01*
X160903212Y-84563869D02*
X160681001Y-84341658D01*
X159258000Y-114300000D02*
X160460081Y-114300000D01*
X153196799Y-75356601D02*
X152196800Y-76356600D01*
X153896801Y-69831082D02*
X153896801Y-74656599D01*
X153896801Y-74656599D02*
X153196799Y-75356601D01*
X152450800Y-68385081D02*
X153896801Y-69831082D01*
X152196800Y-74942387D02*
X151574813Y-74320400D01*
X152196800Y-76356600D02*
X152196800Y-74942387D01*
X148869400Y-74320400D02*
X147040600Y-76149200D01*
X151574813Y-74320400D02*
X148869400Y-74320400D01*
D19*
X157194118Y-69831082D02*
X153896801Y-69831082D01*
X159385000Y-67640200D02*
X157194118Y-69831082D01*
X147040600Y-75017830D02*
X147040600Y-76149200D01*
D20*
X152450800Y-67183000D02*
X152450800Y-68385081D01*
D21*
X130784600Y-118973600D02*
X141274800Y-118973600D01*
X141274800Y-118973600D02*
X145948400Y-114300000D01*
D19*
X151600801Y-68032999D02*
X152450800Y-67183000D01*
X151275799Y-68358001D02*
X151600801Y-68032999D01*
X148800799Y-68358001D02*
X151275799Y-68358001D01*
X147059199Y-66616401D02*
X148800799Y-68358001D01*
X127490399Y-66616401D02*
X147059199Y-66616401D01*
X126390400Y-67716400D02*
X127490399Y-66616401D01*
X147040600Y-69157200D02*
X147040600Y-73583800D01*
X146488800Y-68605400D02*
X147040600Y-69157200D01*
X145338800Y-68605400D02*
X146488800Y-68605400D01*
X147040600Y-73583800D02*
X147040600Y-75017830D01*
X147040600Y-72701800D02*
X147040600Y-73583800D01*
D21*
X151384000Y-114300000D02*
X159258000Y-114300000D01*
X145948400Y-114300000D02*
X151384000Y-114300000D01*
D19*
X138125200Y-99847400D02*
X151980900Y-113703100D01*
X137384400Y-99847400D02*
X138125200Y-99847400D01*
G04 #@! TO.N,XTAL1*
X147813400Y-80289400D02*
X147066000Y-81036800D01*
X151866600Y-80289400D02*
X147813400Y-80289400D01*
X147066000Y-82168170D02*
X147200401Y-82302571D01*
X147066000Y-81036800D02*
X147066000Y-82168170D01*
X146253200Y-91934230D02*
X146253200Y-93065600D01*
X146253200Y-87349190D02*
X146253200Y-91934230D01*
X147497800Y-86104590D02*
X146253200Y-87349190D01*
X147497800Y-82599970D02*
X147497800Y-86104590D01*
X147066000Y-82168170D02*
X147497800Y-82599970D01*
G04 #@! TO.N,XTAL2*
X149540600Y-76149200D02*
X151801200Y-78409800D01*
X154887000Y-78409800D02*
X156766600Y-80289400D01*
X151801200Y-78409800D02*
X154887000Y-78409800D01*
X156016601Y-81039399D02*
X156766600Y-80289400D01*
X152577800Y-84478200D02*
X156016601Y-81039399D01*
X152577800Y-89281000D02*
X152577800Y-84478200D01*
X148793200Y-93065600D02*
X152577800Y-89281000D01*
G04 #@! TO.N,RESET*
X124104400Y-90186800D02*
X125933200Y-92015600D01*
X125933200Y-92015600D02*
X125933200Y-93065600D01*
X124104400Y-76555600D02*
X124104400Y-90186800D01*
X126085600Y-74574400D02*
X124104400Y-76555600D01*
G04 #@! TO.N,DTR*
X127216970Y-82074400D02*
X126085600Y-82074400D01*
X129743200Y-84600630D02*
X127216970Y-82074400D01*
X129743200Y-93802200D02*
X129743200Y-84600630D01*
X130784600Y-94843600D02*
X129743200Y-93802200D01*
X130784600Y-108813600D02*
X130784600Y-94843600D01*
G04 #@! TO.N,Net-(D1-Pad2)*
X139954000Y-68656200D02*
X136677400Y-71932800D01*
X141475208Y-68656200D02*
X141427200Y-68656200D01*
X142798800Y-68605400D02*
X141526008Y-68605400D01*
X141526008Y-68605400D02*
X141475208Y-68656200D01*
X141427200Y-68656200D02*
X139954000Y-68656200D01*
X141605000Y-68656200D02*
X141427200Y-68656200D01*
G04 #@! TO.N,TX*
X131813199Y-93865599D02*
X131013200Y-93065600D01*
X132410200Y-94462600D02*
X131813199Y-93865599D01*
X132410200Y-109728000D02*
X132410200Y-94462600D01*
X130784600Y-111353600D02*
X132410200Y-109728000D01*
G04 #@! TO.N,a2*
X133553200Y-85217000D02*
X133553200Y-85445600D01*
X136677400Y-82092800D02*
X133553200Y-85217000D01*
G04 #@! TO.N,a3*
X131990199Y-70807799D02*
X128770599Y-74027399D01*
X128770599Y-75107401D02*
X131813199Y-78150001D01*
X137165991Y-70807799D02*
X131990199Y-70807799D01*
X131813199Y-84645601D02*
X131013200Y-85445600D01*
X140790790Y-67183000D02*
X137165991Y-70807799D01*
X146786600Y-67183000D02*
X140790790Y-67183000D01*
X131813199Y-78150001D02*
X131813199Y-84645601D01*
X128770599Y-74027399D02*
X128770599Y-75107401D01*
X151460200Y-71856600D02*
X146786600Y-67183000D01*
X152196800Y-71856600D02*
X151460200Y-71856600D01*
G04 #@! TO.N,Net-(SW2-Pad3)*
X158696800Y-71374000D02*
X158696800Y-75874000D01*
G04 #@! TO.N,Net-(SW3-Pad3)*
X139954000Y-75135600D02*
X144454000Y-75135600D01*
G04 #@! TO.N,d2*
X133553200Y-93065600D02*
X136677400Y-96189800D01*
X138226800Y-96189800D02*
X141884400Y-99847400D01*
X136677400Y-96189800D02*
X138226800Y-96189800D01*
G04 #@! TD*
M02*
