G04 #@! TF.GenerationSoftware,KiCad,Pcbnew,5.0.0-fee4fd1~66~ubuntu14.04.1*
G04 #@! TF.CreationDate,2018-10-15T15:44:16-07:00*
G04 #@! TF.ProjectId,run,72756E2E6B696361645F706362000000,rev?*
G04 #@! TF.SameCoordinates,Original*
G04 #@! TF.FileFunction,Legend,Top*
G04 #@! TF.FilePolarity,Positive*
%FSLAX46Y46*%
G04 Gerber Fmt 4.6, Leading zero omitted, Abs format (unit mm)*
G04 Created by KiCad (PCBNEW 5.0.0-fee4fd1~66~ubuntu14.04.1) date Mon Oct 15 15:44:16 2018*
%MOMM*%
%LPD*%
G01*
G04 APERTURE LIST*
%ADD10C,0.300000*%
%ADD11C,0.200000*%
%ADD12C,0.150000*%
%ADD13C,0.120000*%
G04 APERTURE END LIST*
D10*
X145149085Y-104054161D02*
X144482419Y-103101780D01*
X144006228Y-104054161D02*
X144006228Y-102054161D01*
X144768133Y-102054161D01*
X144958609Y-102149400D01*
X145053847Y-102244638D01*
X145149085Y-102435114D01*
X145149085Y-102720828D01*
X145053847Y-102911304D01*
X144958609Y-103006542D01*
X144768133Y-103101780D01*
X144006228Y-103101780D01*
X146006228Y-102054161D02*
X146006228Y-103673209D01*
X146101466Y-103863685D01*
X146196704Y-103958923D01*
X146387180Y-104054161D01*
X146768133Y-104054161D01*
X146958609Y-103958923D01*
X147053847Y-103863685D01*
X147149085Y-103673209D01*
X147149085Y-102054161D01*
X148101466Y-104054161D02*
X148101466Y-102054161D01*
X149244323Y-104054161D01*
X149244323Y-102054161D01*
X151625276Y-101958923D02*
X149910990Y-104530352D01*
X152196704Y-103958923D02*
X152482419Y-104054161D01*
X152958609Y-104054161D01*
X153149085Y-103958923D01*
X153244323Y-103863685D01*
X153339561Y-103673209D01*
X153339561Y-103482733D01*
X153244323Y-103292257D01*
X153149085Y-103197019D01*
X152958609Y-103101780D01*
X152577657Y-103006542D01*
X152387180Y-102911304D01*
X152291942Y-102816066D01*
X152196704Y-102625590D01*
X152196704Y-102435114D01*
X152291942Y-102244638D01*
X152387180Y-102149400D01*
X152577657Y-102054161D01*
X153053847Y-102054161D01*
X153339561Y-102149400D01*
X153910990Y-102054161D02*
X155053847Y-102054161D01*
X154482419Y-104054161D02*
X154482419Y-102054161D01*
X156101466Y-102054161D02*
X156482419Y-102054161D01*
X156672895Y-102149400D01*
X156863371Y-102339876D01*
X156958609Y-102720828D01*
X156958609Y-103387495D01*
X156863371Y-103768447D01*
X156672895Y-103958923D01*
X156482419Y-104054161D01*
X156101466Y-104054161D01*
X155910990Y-103958923D01*
X155720514Y-103768447D01*
X155625276Y-103387495D01*
X155625276Y-102720828D01*
X155720514Y-102339876D01*
X155910990Y-102149400D01*
X156101466Y-102054161D01*
X157815752Y-104054161D02*
X157815752Y-102054161D01*
X158577657Y-102054161D01*
X158768133Y-102149400D01*
X158863371Y-102244638D01*
X158958609Y-102435114D01*
X158958609Y-102720828D01*
X158863371Y-102911304D01*
X158768133Y-103006542D01*
X158577657Y-103101780D01*
X157815752Y-103101780D01*
D11*
X157181800Y-107845361D02*
X157562752Y-107845361D01*
X157753228Y-107940600D01*
X157943704Y-108131076D01*
X158038942Y-108512028D01*
X158038942Y-109178695D01*
X157943704Y-109559647D01*
X157753228Y-109750123D01*
X157562752Y-109845361D01*
X157181800Y-109845361D01*
X156991323Y-109750123D01*
X156800847Y-109559647D01*
X156705609Y-109178695D01*
X156705609Y-108512028D01*
X156800847Y-108131076D01*
X156991323Y-107940600D01*
X157181800Y-107845361D01*
X158896085Y-107845361D02*
X158896085Y-109464409D01*
X158991323Y-109654885D01*
X159086561Y-109750123D01*
X159277038Y-109845361D01*
X159657990Y-109845361D01*
X159848466Y-109750123D01*
X159943704Y-109654885D01*
X160038942Y-109464409D01*
X160038942Y-107845361D01*
X160705609Y-107845361D02*
X161848466Y-107845361D01*
X161277038Y-109845361D02*
X161277038Y-107845361D01*
D12*
X138720628Y-71146228D02*
X139030152Y-72012895D01*
X139339676Y-71146228D01*
X140515866Y-72012895D02*
X139773009Y-72012895D01*
X140144438Y-72012895D02*
X140144438Y-70712895D01*
X140020628Y-70898609D01*
X139896819Y-71022419D01*
X139773009Y-71084323D01*
X158690571Y-114022000D02*
X158690571Y-113736285D01*
X158762000Y-113593428D01*
X158904857Y-113450571D01*
X159190571Y-113379142D01*
X159690571Y-113379142D01*
X159976285Y-113450571D01*
X160119142Y-113593428D01*
X160190571Y-113736285D01*
X160190571Y-114022000D01*
X160119142Y-114164857D01*
X159976285Y-114307714D01*
X159690571Y-114379142D01*
X159190571Y-114379142D01*
X158904857Y-114307714D01*
X158762000Y-114164857D01*
X158690571Y-114022000D01*
X158690571Y-112736285D02*
X159904857Y-112736285D01*
X160047714Y-112664857D01*
X160119142Y-112593428D01*
X160190571Y-112450571D01*
X160190571Y-112164857D01*
X160119142Y-112022000D01*
X160047714Y-111950571D01*
X159904857Y-111879142D01*
X158690571Y-111879142D01*
X158690571Y-111379142D02*
X158690571Y-110522000D01*
X160190571Y-110950571D02*
X158690571Y-110950571D01*
X132751580Y-109291380D02*
X132418247Y-108815190D01*
X132180152Y-109291380D02*
X132180152Y-108291380D01*
X132561104Y-108291380D01*
X132656342Y-108339000D01*
X132703961Y-108386619D01*
X132751580Y-108481857D01*
X132751580Y-108624714D01*
X132703961Y-108719952D01*
X132656342Y-108767571D01*
X132561104Y-108815190D01*
X132180152Y-108815190D01*
X133037295Y-108291380D02*
X133608723Y-108291380D01*
X133323009Y-109291380D02*
X133323009Y-108291380D01*
X133894438Y-109243761D02*
X134037295Y-109291380D01*
X134275390Y-109291380D01*
X134370628Y-109243761D01*
X134418247Y-109196142D01*
X134465866Y-109100904D01*
X134465866Y-109005666D01*
X134418247Y-108910428D01*
X134370628Y-108862809D01*
X134275390Y-108815190D01*
X134084914Y-108767571D01*
X133989676Y-108719952D01*
X133942057Y-108672333D01*
X133894438Y-108577095D01*
X133894438Y-108481857D01*
X133942057Y-108386619D01*
X133989676Y-108339000D01*
X134084914Y-108291380D01*
X134323009Y-108291380D01*
X134465866Y-108339000D01*
D11*
X124733180Y-109235761D02*
X124733180Y-107235761D01*
X125685561Y-109235761D02*
X125685561Y-107235761D01*
X126828419Y-109235761D01*
X126828419Y-107235761D01*
D12*
X147976057Y-70125400D02*
X148690342Y-70125400D01*
X147833200Y-70553971D02*
X148333200Y-69053971D01*
X148833200Y-70553971D01*
X150190342Y-70411114D02*
X150118914Y-70482542D01*
X149904628Y-70553971D01*
X149761771Y-70553971D01*
X149547485Y-70482542D01*
X149404628Y-70339685D01*
X149333200Y-70196828D01*
X149261771Y-69911114D01*
X149261771Y-69696828D01*
X149333200Y-69411114D01*
X149404628Y-69268257D01*
X149547485Y-69125400D01*
X149761771Y-69053971D01*
X149904628Y-69053971D01*
X150118914Y-69125400D01*
X150190342Y-69196828D01*
X150618914Y-69053971D02*
X151476057Y-69053971D01*
X151047485Y-70553971D02*
X151047485Y-69053971D01*
X151976057Y-70553971D02*
X151976057Y-69053971D01*
X152476057Y-69053971D02*
X152976057Y-70553971D01*
X153476057Y-69053971D01*
X153976057Y-69768257D02*
X154476057Y-69768257D01*
X154690342Y-70553971D02*
X153976057Y-70553971D01*
X153976057Y-69053971D01*
X154690342Y-69053971D01*
X138668428Y-84015971D02*
X138668428Y-83015971D01*
X138668428Y-83301685D02*
X138739857Y-83158828D01*
X138811285Y-83087400D01*
X138954142Y-83015971D01*
X139097000Y-83015971D01*
X140168428Y-83944542D02*
X140025571Y-84015971D01*
X139739857Y-84015971D01*
X139597000Y-83944542D01*
X139525571Y-83801685D01*
X139525571Y-83230257D01*
X139597000Y-83087400D01*
X139739857Y-83015971D01*
X140025571Y-83015971D01*
X140168428Y-83087400D01*
X140239857Y-83230257D01*
X140239857Y-83373114D01*
X139525571Y-83515971D01*
X140811285Y-83944542D02*
X140954142Y-84015971D01*
X141239857Y-84015971D01*
X141382714Y-83944542D01*
X141454142Y-83801685D01*
X141454142Y-83730257D01*
X141382714Y-83587400D01*
X141239857Y-83515971D01*
X141025571Y-83515971D01*
X140882714Y-83444542D01*
X140811285Y-83301685D01*
X140811285Y-83230257D01*
X140882714Y-83087400D01*
X141025571Y-83015971D01*
X141239857Y-83015971D01*
X141382714Y-83087400D01*
X142668428Y-83944542D02*
X142525571Y-84015971D01*
X142239857Y-84015971D01*
X142097000Y-83944542D01*
X142025571Y-83801685D01*
X142025571Y-83230257D01*
X142097000Y-83087400D01*
X142239857Y-83015971D01*
X142525571Y-83015971D01*
X142668428Y-83087400D01*
X142739857Y-83230257D01*
X142739857Y-83373114D01*
X142025571Y-83515971D01*
X143168428Y-83015971D02*
X143739857Y-83015971D01*
X143382714Y-82515971D02*
X143382714Y-83801685D01*
X143454142Y-83944542D01*
X143597000Y-84015971D01*
X143739857Y-84015971D01*
D11*
X129184400Y-70485000D02*
X129184400Y-65557400D01*
X140258800Y-70485000D02*
X129184400Y-70485000D01*
X140284200Y-65532000D02*
X140284200Y-70459600D01*
X129184400Y-65557400D02*
X140309600Y-65557400D01*
D10*
X131905333Y-70008523D02*
X130622000Y-68103761D01*
X129705333Y-70008523D02*
X129705333Y-66008523D01*
X131172000Y-66008523D01*
X131538666Y-66199000D01*
X131722000Y-66389476D01*
X131905333Y-66770428D01*
X131905333Y-67341857D01*
X131722000Y-67722809D01*
X131538666Y-67913285D01*
X131172000Y-68103761D01*
X129705333Y-68103761D01*
X133555333Y-66008523D02*
X133555333Y-69246619D01*
X133738666Y-69627571D01*
X133922000Y-69818047D01*
X134288666Y-70008523D01*
X135022000Y-70008523D01*
X135388666Y-69818047D01*
X135572000Y-69627571D01*
X135755333Y-69246619D01*
X135755333Y-66008523D01*
X137588666Y-70008523D02*
X137588666Y-66008523D01*
X139788666Y-70008523D01*
X139788666Y-66008523D01*
D13*
G04 #@! TO.C,U1*
X124603200Y-88255600D02*
G75*
G02X124603200Y-90255600I0J-1000000D01*
G01*
X124603200Y-90255600D02*
X124603200Y-91905600D01*
X124603200Y-91905600D02*
X160283200Y-91905600D01*
X160283200Y-91905600D02*
X160283200Y-86605600D01*
X160283200Y-86605600D02*
X124603200Y-86605600D01*
X124603200Y-86605600D02*
X124603200Y-88255600D01*
G04 #@! TO.C,J3*
X132114600Y-107483600D02*
X129454600Y-107483600D01*
X132114600Y-120243600D02*
X132114600Y-107483600D01*
X129454600Y-120243600D02*
X129454600Y-107483600D01*
X132114600Y-120243600D02*
X129454600Y-120243600D01*
X132114600Y-121513600D02*
X132114600Y-122843600D01*
X132114600Y-122843600D02*
X130784600Y-122843600D01*
G04 #@! TO.C,C1*
X130862000Y-99822000D02*
G75*
G03X130862000Y-99822000I-3120000J0D01*
G01*
X124402251Y-98067000D02*
X125002251Y-98067000D01*
X124702251Y-97767000D02*
X124702251Y-98367000D01*
G04 #@! TO.C,C2*
X146146000Y-79157800D02*
X146146000Y-80415800D01*
X147986000Y-79157800D02*
X147986000Y-80415800D01*
G04 #@! TO.C,C3*
X147661600Y-75229200D02*
X148919600Y-75229200D01*
X147661600Y-77069200D02*
X148919600Y-77069200D01*
G04 #@! TO.C,C4*
X129895600Y-75607400D02*
X129895600Y-75647400D01*
X129895600Y-81027400D02*
X129895600Y-80987400D01*
X128225600Y-75647400D02*
X128225600Y-80987400D01*
X131565600Y-75647400D02*
X128225600Y-75647400D01*
X131565600Y-80987400D02*
X131565600Y-75647400D01*
X128225600Y-80987400D02*
X131565600Y-80987400D01*
G04 #@! TO.C,C5*
X127755600Y-75654400D02*
X124415600Y-75654400D01*
X124415600Y-75654400D02*
X124415600Y-80994400D01*
X124415600Y-80994400D02*
X127755600Y-80994400D01*
X127755600Y-80994400D02*
X127755600Y-75654400D01*
X126085600Y-75614400D02*
X126085600Y-75654400D01*
X126085600Y-81034400D02*
X126085600Y-80994400D01*
G04 #@! TO.C,D1*
X141078800Y-68604938D02*
G75*
G03X146628800Y-70150230I2990000J-462D01*
G01*
X141078800Y-68605862D02*
G75*
G02X146628800Y-67060570I2990000J462D01*
G01*
X146568800Y-68605400D02*
G75*
G03X146568800Y-68605400I-2500000J0D01*
G01*
X146628800Y-70150400D02*
X146628800Y-67060400D01*
G04 #@! TO.C,J1*
X124908000Y-110430000D02*
X126238000Y-110430000D01*
X124908000Y-111760000D02*
X124908000Y-110430000D01*
X124908000Y-113030000D02*
X127568000Y-113030000D01*
X127568000Y-113030000D02*
X127568000Y-118170000D01*
X124908000Y-113030000D02*
X124908000Y-118170000D01*
X124908000Y-118170000D02*
X127568000Y-118170000D01*
G04 #@! TO.C,J2*
X157928000Y-118170000D02*
X160588000Y-118170000D01*
X157928000Y-113030000D02*
X157928000Y-118170000D01*
X160588000Y-113030000D02*
X160588000Y-118170000D01*
X157928000Y-113030000D02*
X160588000Y-113030000D01*
X157928000Y-111760000D02*
X157928000Y-110430000D01*
X157928000Y-110430000D02*
X159258000Y-110430000D01*
G04 #@! TO.C,J4*
X156320800Y-68513000D02*
X156320800Y-65853000D01*
X151180800Y-68513000D02*
X156320800Y-68513000D01*
X151180800Y-65853000D02*
X156320800Y-65853000D01*
X151180800Y-68513000D02*
X151180800Y-65853000D01*
X149910800Y-68513000D02*
X148580800Y-68513000D01*
X148580800Y-68513000D02*
X148580800Y-67183000D01*
G04 #@! TO.C,R1*
X138047400Y-73742800D02*
X135307400Y-73742800D01*
X135307400Y-73742800D02*
X135307400Y-80282800D01*
X135307400Y-80282800D02*
X138047400Y-80282800D01*
X138047400Y-80282800D02*
X138047400Y-73742800D01*
X136677400Y-72972800D02*
X136677400Y-73742800D01*
X136677400Y-81052800D02*
X136677400Y-80282800D01*
G04 #@! TO.C,R2*
X133400800Y-72972800D02*
X133400800Y-73742800D01*
X133400800Y-81052800D02*
X133400800Y-80282800D01*
X132030800Y-73742800D02*
X132030800Y-80282800D01*
X134770800Y-73742800D02*
X132030800Y-73742800D01*
X134770800Y-80282800D02*
X134770800Y-73742800D01*
X132030800Y-80282800D02*
X134770800Y-80282800D01*
G04 #@! TO.C,SW2*
X153196800Y-77356600D02*
X157696800Y-77356600D01*
X151946800Y-73356600D02*
X151946800Y-74856600D01*
X157696800Y-70856600D02*
X153196800Y-70856600D01*
X158946800Y-74856600D02*
X158946800Y-73356600D01*
G04 #@! TO.C,SW3*
X142954000Y-74885600D02*
X141454000Y-74885600D01*
X138954000Y-76135600D02*
X138954000Y-80635600D01*
X141454000Y-81885600D02*
X142954000Y-81885600D01*
X145454000Y-80635600D02*
X145454000Y-76135600D01*
G04 #@! TO.C,Y1*
X151140800Y-78272400D02*
X157390800Y-78272400D01*
X151140800Y-83322400D02*
X157390800Y-83322400D01*
X151140800Y-83322400D02*
G75*
G02X151140800Y-78272400I0J2525000D01*
G01*
X157390800Y-83322400D02*
G75*
G03X157390800Y-78272400I0J2525000D01*
G01*
G04 #@! TO.C,SW1*
X138884400Y-106597400D02*
X140384400Y-106597400D01*
X142884400Y-105347400D02*
X142884400Y-100847400D01*
X140384400Y-99597400D02*
X138884400Y-99597400D01*
X136384400Y-100847400D02*
X136384400Y-105347400D01*
G04 #@! TO.C,U1*
D12*
X124587095Y-94321380D02*
X124587095Y-95130904D01*
X124634714Y-95226142D01*
X124682333Y-95273761D01*
X124777571Y-95321380D01*
X124968047Y-95321380D01*
X125063285Y-95273761D01*
X125110904Y-95226142D01*
X125158523Y-95130904D01*
X125158523Y-94321380D01*
X126158523Y-95321380D02*
X125587095Y-95321380D01*
X125872809Y-95321380D02*
X125872809Y-94321380D01*
X125777571Y-94464238D01*
X125682333Y-94559476D01*
X125587095Y-94607095D01*
G04 #@! TO.C,J3*
X128698666Y-122134380D02*
X128698666Y-122848666D01*
X128651047Y-122991523D01*
X128555809Y-123086761D01*
X128412952Y-123134380D01*
X128317714Y-123134380D01*
X129079619Y-122134380D02*
X129698666Y-122134380D01*
X129365333Y-122515333D01*
X129508190Y-122515333D01*
X129603428Y-122562952D01*
X129651047Y-122610571D01*
X129698666Y-122705809D01*
X129698666Y-122943904D01*
X129651047Y-123039142D01*
X129603428Y-123086761D01*
X129508190Y-123134380D01*
X129222476Y-123134380D01*
X129127238Y-123086761D01*
X129079619Y-123039142D01*
X129808409Y-106412171D02*
X129475076Y-106412171D01*
X129475076Y-106935980D02*
X129475076Y-105935980D01*
X129951266Y-105935980D01*
X130189361Y-105935980D02*
X130760790Y-105935980D01*
X130475076Y-106935980D02*
X130475076Y-105935980D01*
X131094123Y-106935980D02*
X131094123Y-105935980D01*
X131332219Y-105935980D01*
X131475076Y-105983600D01*
X131570314Y-106078838D01*
X131617933Y-106174076D01*
X131665552Y-106364552D01*
X131665552Y-106507409D01*
X131617933Y-106697885D01*
X131570314Y-106793123D01*
X131475076Y-106888361D01*
X131332219Y-106935980D01*
X131094123Y-106935980D01*
X132094123Y-106935980D02*
X132094123Y-105935980D01*
G04 #@! TO.C,C1*
X127575333Y-95929142D02*
X127527714Y-95976761D01*
X127384857Y-96024380D01*
X127289619Y-96024380D01*
X127146761Y-95976761D01*
X127051523Y-95881523D01*
X127003904Y-95786285D01*
X126956285Y-95595809D01*
X126956285Y-95452952D01*
X127003904Y-95262476D01*
X127051523Y-95167238D01*
X127146761Y-95072000D01*
X127289619Y-95024380D01*
X127384857Y-95024380D01*
X127527714Y-95072000D01*
X127575333Y-95119619D01*
X128527714Y-96024380D02*
X127956285Y-96024380D01*
X128242000Y-96024380D02*
X128242000Y-95024380D01*
X128146761Y-95167238D01*
X128051523Y-95262476D01*
X127956285Y-95310095D01*
G04 #@! TO.C,C2*
X146797733Y-83288142D02*
X146750114Y-83335761D01*
X146607257Y-83383380D01*
X146512019Y-83383380D01*
X146369161Y-83335761D01*
X146273923Y-83240523D01*
X146226304Y-83145285D01*
X146178685Y-82954809D01*
X146178685Y-82811952D01*
X146226304Y-82621476D01*
X146273923Y-82526238D01*
X146369161Y-82431000D01*
X146512019Y-82383380D01*
X146607257Y-82383380D01*
X146750114Y-82431000D01*
X146797733Y-82478619D01*
X147178685Y-82478619D02*
X147226304Y-82431000D01*
X147321542Y-82383380D01*
X147559638Y-82383380D01*
X147654876Y-82431000D01*
X147702495Y-82478619D01*
X147750114Y-82573857D01*
X147750114Y-82669095D01*
X147702495Y-82811952D01*
X147131066Y-83383380D01*
X147750114Y-83383380D01*
G04 #@! TO.C,C3*
X148123933Y-74456342D02*
X148076314Y-74503961D01*
X147933457Y-74551580D01*
X147838219Y-74551580D01*
X147695361Y-74503961D01*
X147600123Y-74408723D01*
X147552504Y-74313485D01*
X147504885Y-74123009D01*
X147504885Y-73980152D01*
X147552504Y-73789676D01*
X147600123Y-73694438D01*
X147695361Y-73599200D01*
X147838219Y-73551580D01*
X147933457Y-73551580D01*
X148076314Y-73599200D01*
X148123933Y-73646819D01*
X148457266Y-73551580D02*
X149076314Y-73551580D01*
X148742980Y-73932533D01*
X148885838Y-73932533D01*
X148981076Y-73980152D01*
X149028695Y-74027771D01*
X149076314Y-74123009D01*
X149076314Y-74361104D01*
X149028695Y-74456342D01*
X148981076Y-74503961D01*
X148885838Y-74551580D01*
X148600123Y-74551580D01*
X148504885Y-74503961D01*
X148457266Y-74456342D01*
G04 #@! TO.C,C4*
X129474933Y-83973942D02*
X129427314Y-84021561D01*
X129284457Y-84069180D01*
X129189219Y-84069180D01*
X129046361Y-84021561D01*
X128951123Y-83926323D01*
X128903504Y-83831085D01*
X128855885Y-83640609D01*
X128855885Y-83497752D01*
X128903504Y-83307276D01*
X128951123Y-83212038D01*
X129046361Y-83116800D01*
X129189219Y-83069180D01*
X129284457Y-83069180D01*
X129427314Y-83116800D01*
X129474933Y-83164419D01*
X130332076Y-83402514D02*
X130332076Y-84069180D01*
X130093980Y-83021561D02*
X129855885Y-83735847D01*
X130474933Y-83735847D01*
G04 #@! TO.C,C5*
X125741133Y-84304142D02*
X125693514Y-84351761D01*
X125550657Y-84399380D01*
X125455419Y-84399380D01*
X125312561Y-84351761D01*
X125217323Y-84256523D01*
X125169704Y-84161285D01*
X125122085Y-83970809D01*
X125122085Y-83827952D01*
X125169704Y-83637476D01*
X125217323Y-83542238D01*
X125312561Y-83447000D01*
X125455419Y-83399380D01*
X125550657Y-83399380D01*
X125693514Y-83447000D01*
X125741133Y-83494619D01*
X126645895Y-83399380D02*
X126169704Y-83399380D01*
X126122085Y-83875571D01*
X126169704Y-83827952D01*
X126264942Y-83780333D01*
X126503038Y-83780333D01*
X126598276Y-83827952D01*
X126645895Y-83875571D01*
X126693514Y-83970809D01*
X126693514Y-84208904D01*
X126645895Y-84304142D01*
X126598276Y-84351761D01*
X126503038Y-84399380D01*
X126264942Y-84399380D01*
X126169704Y-84351761D01*
X126122085Y-84304142D01*
G04 #@! TO.C,D1*
X145286504Y-72664580D02*
X145286504Y-71664580D01*
X145524600Y-71664580D01*
X145667457Y-71712200D01*
X145762695Y-71807438D01*
X145810314Y-71902676D01*
X145857933Y-72093152D01*
X145857933Y-72236009D01*
X145810314Y-72426485D01*
X145762695Y-72521723D01*
X145667457Y-72616961D01*
X145524600Y-72664580D01*
X145286504Y-72664580D01*
X146810314Y-72664580D02*
X146238885Y-72664580D01*
X146524600Y-72664580D02*
X146524600Y-71664580D01*
X146429361Y-71807438D01*
X146334123Y-71902676D01*
X146238885Y-71950295D01*
G04 #@! TO.C,J1*
X127936666Y-110602780D02*
X127936666Y-111317066D01*
X127889047Y-111459923D01*
X127793809Y-111555161D01*
X127650952Y-111602780D01*
X127555714Y-111602780D01*
X128936666Y-111602780D02*
X128365238Y-111602780D01*
X128650952Y-111602780D02*
X128650952Y-110602780D01*
X128555714Y-110745638D01*
X128460476Y-110840876D01*
X128365238Y-110888495D01*
G04 #@! TO.C,J2*
X156765666Y-117511580D02*
X156765666Y-118225866D01*
X156718047Y-118368723D01*
X156622809Y-118463961D01*
X156479952Y-118511580D01*
X156384714Y-118511580D01*
X157194238Y-117606819D02*
X157241857Y-117559200D01*
X157337095Y-117511580D01*
X157575190Y-117511580D01*
X157670428Y-117559200D01*
X157718047Y-117606819D01*
X157765666Y-117702057D01*
X157765666Y-117797295D01*
X157718047Y-117940152D01*
X157146619Y-118511580D01*
X157765666Y-118511580D01*
G04 #@! TO.C,J4*
X147062866Y-65746380D02*
X147062866Y-66460666D01*
X147015247Y-66603523D01*
X146920009Y-66698761D01*
X146777152Y-66746380D01*
X146681914Y-66746380D01*
X147967628Y-66079714D02*
X147967628Y-66746380D01*
X147729533Y-65698761D02*
X147491438Y-66413047D01*
X148110485Y-66413047D01*
G04 #@! TO.C,R1*
X136459933Y-84246980D02*
X136126600Y-83770790D01*
X135888504Y-84246980D02*
X135888504Y-83246980D01*
X136269457Y-83246980D01*
X136364695Y-83294600D01*
X136412314Y-83342219D01*
X136459933Y-83437457D01*
X136459933Y-83580314D01*
X136412314Y-83675552D01*
X136364695Y-83723171D01*
X136269457Y-83770790D01*
X135888504Y-83770790D01*
X137412314Y-84246980D02*
X136840885Y-84246980D01*
X137126600Y-84246980D02*
X137126600Y-83246980D01*
X137031361Y-83389838D01*
X136936123Y-83485076D01*
X136840885Y-83532695D01*
G04 #@! TO.C,R2*
X133234133Y-84196180D02*
X132900800Y-83719990D01*
X132662704Y-84196180D02*
X132662704Y-83196180D01*
X133043657Y-83196180D01*
X133138895Y-83243800D01*
X133186514Y-83291419D01*
X133234133Y-83386657D01*
X133234133Y-83529514D01*
X133186514Y-83624752D01*
X133138895Y-83672371D01*
X133043657Y-83719990D01*
X132662704Y-83719990D01*
X133615085Y-83291419D02*
X133662704Y-83243800D01*
X133757942Y-83196180D01*
X133996038Y-83196180D01*
X134091276Y-83243800D01*
X134138895Y-83291419D01*
X134186514Y-83386657D01*
X134186514Y-83481895D01*
X134138895Y-83624752D01*
X133567466Y-84196180D01*
X134186514Y-84196180D01*
G04 #@! TO.C,SW2*
X153606666Y-73150361D02*
X153749523Y-73197980D01*
X153987619Y-73197980D01*
X154082857Y-73150361D01*
X154130476Y-73102742D01*
X154178095Y-73007504D01*
X154178095Y-72912266D01*
X154130476Y-72817028D01*
X154082857Y-72769409D01*
X153987619Y-72721790D01*
X153797142Y-72674171D01*
X153701904Y-72626552D01*
X153654285Y-72578933D01*
X153606666Y-72483695D01*
X153606666Y-72388457D01*
X153654285Y-72293219D01*
X153701904Y-72245600D01*
X153797142Y-72197980D01*
X154035238Y-72197980D01*
X154178095Y-72245600D01*
X154511428Y-72197980D02*
X154749523Y-73197980D01*
X154940000Y-72483695D01*
X155130476Y-73197980D01*
X155368571Y-72197980D01*
X155701904Y-72293219D02*
X155749523Y-72245600D01*
X155844761Y-72197980D01*
X156082857Y-72197980D01*
X156178095Y-72245600D01*
X156225714Y-72293219D01*
X156273333Y-72388457D01*
X156273333Y-72483695D01*
X156225714Y-72626552D01*
X155654285Y-73197980D01*
X156273333Y-73197980D01*
G04 #@! TO.C,SW3*
X139128666Y-79906761D02*
X139271523Y-79954380D01*
X139509619Y-79954380D01*
X139604857Y-79906761D01*
X139652476Y-79859142D01*
X139700095Y-79763904D01*
X139700095Y-79668666D01*
X139652476Y-79573428D01*
X139604857Y-79525809D01*
X139509619Y-79478190D01*
X139319142Y-79430571D01*
X139223904Y-79382952D01*
X139176285Y-79335333D01*
X139128666Y-79240095D01*
X139128666Y-79144857D01*
X139176285Y-79049619D01*
X139223904Y-79002000D01*
X139319142Y-78954380D01*
X139557238Y-78954380D01*
X139700095Y-79002000D01*
X140033428Y-78954380D02*
X140271523Y-79954380D01*
X140462000Y-79240095D01*
X140652476Y-79954380D01*
X140890571Y-78954380D01*
X141176285Y-78954380D02*
X141795333Y-78954380D01*
X141462000Y-79335333D01*
X141604857Y-79335333D01*
X141700095Y-79382952D01*
X141747714Y-79430571D01*
X141795333Y-79525809D01*
X141795333Y-79763904D01*
X141747714Y-79859142D01*
X141700095Y-79906761D01*
X141604857Y-79954380D01*
X141319142Y-79954380D01*
X141223904Y-79906761D01*
X141176285Y-79859142D01*
G04 #@! TO.C,Y1*
X153789609Y-77248590D02*
X153789609Y-77724780D01*
X153456276Y-76724780D02*
X153789609Y-77248590D01*
X154122942Y-76724780D01*
X154980085Y-77724780D02*
X154408657Y-77724780D01*
X154694371Y-77724780D02*
X154694371Y-76724780D01*
X154599133Y-76867638D01*
X154503895Y-76962876D01*
X154408657Y-77010495D01*
G04 #@! TO.C,H1*
X125603095Y-118486580D02*
X125603095Y-117486580D01*
X125603095Y-117962771D02*
X126174523Y-117962771D01*
X126174523Y-118486580D02*
X126174523Y-117486580D01*
X127174523Y-118486580D02*
X126603095Y-118486580D01*
X126888809Y-118486580D02*
X126888809Y-117486580D01*
X126793571Y-117629438D01*
X126698333Y-117724676D01*
X126603095Y-117772295D01*
G04 #@! TO.C,H2*
X158597695Y-118461180D02*
X158597695Y-117461180D01*
X158597695Y-117937371D02*
X159169123Y-117937371D01*
X159169123Y-118461180D02*
X159169123Y-117461180D01*
X159597695Y-117556419D02*
X159645314Y-117508800D01*
X159740552Y-117461180D01*
X159978647Y-117461180D01*
X160073885Y-117508800D01*
X160121504Y-117556419D01*
X160169123Y-117651657D01*
X160169123Y-117746895D01*
X160121504Y-117889752D01*
X159550076Y-118461180D01*
X160169123Y-118461180D01*
G04 #@! TO.C,H3*
X159435895Y-70226180D02*
X159435895Y-69226180D01*
X159435895Y-69702371D02*
X160007323Y-69702371D01*
X160007323Y-70226180D02*
X160007323Y-69226180D01*
X160388276Y-69226180D02*
X161007323Y-69226180D01*
X160673990Y-69607133D01*
X160816847Y-69607133D01*
X160912085Y-69654752D01*
X160959704Y-69702371D01*
X161007323Y-69797609D01*
X161007323Y-70035704D01*
X160959704Y-70130942D01*
X160912085Y-70178561D01*
X160816847Y-70226180D01*
X160531133Y-70226180D01*
X160435895Y-70178561D01*
X160388276Y-70130942D01*
G04 #@! TO.C,H4*
X125628495Y-71292980D02*
X125628495Y-70292980D01*
X125628495Y-70769171D02*
X126199923Y-70769171D01*
X126199923Y-71292980D02*
X126199923Y-70292980D01*
X127104685Y-70626314D02*
X127104685Y-71292980D01*
X126866590Y-70245361D02*
X126628495Y-70959647D01*
X127247542Y-70959647D01*
G04 #@! TO.C,SW1*
X132804066Y-99134561D02*
X132946923Y-99182180D01*
X133185019Y-99182180D01*
X133280257Y-99134561D01*
X133327876Y-99086942D01*
X133375495Y-98991704D01*
X133375495Y-98896466D01*
X133327876Y-98801228D01*
X133280257Y-98753609D01*
X133185019Y-98705990D01*
X132994542Y-98658371D01*
X132899304Y-98610752D01*
X132851685Y-98563133D01*
X132804066Y-98467895D01*
X132804066Y-98372657D01*
X132851685Y-98277419D01*
X132899304Y-98229800D01*
X132994542Y-98182180D01*
X133232638Y-98182180D01*
X133375495Y-98229800D01*
X133708828Y-98182180D02*
X133946923Y-99182180D01*
X134137400Y-98467895D01*
X134327876Y-99182180D01*
X134565971Y-98182180D01*
X135470733Y-99182180D02*
X134899304Y-99182180D01*
X135185019Y-99182180D02*
X135185019Y-98182180D01*
X135089780Y-98325038D01*
X134994542Y-98420276D01*
X134899304Y-98467895D01*
G04 #@! TD*
M02*
