G04 #@! TF.GenerationSoftware,KiCad,Pcbnew,5.0.1-33cea8e~68~ubuntu14.04.1*
G04 #@! TF.CreationDate,2018-11-20T23:38:41-08:00*
G04 #@! TF.ProjectId,run,72756E2E6B696361645F706362000000,rev?*
G04 #@! TF.SameCoordinates,Original*
G04 #@! TF.FileFunction,Copper,L2,Bot,Signal*
G04 #@! TF.FilePolarity,Positive*
%FSLAX46Y46*%
G04 Gerber Fmt 4.6, Leading zero omitted, Abs format (unit mm)*
G04 Created by KiCad (PCBNEW 5.0.1-33cea8e~68~ubuntu14.04.1) date Tue 20 Nov 2018 11:38:41 PM PST*
%MOMM*%
%LPD*%
G01*
G04 APERTURE LIST*
G04 #@! TA.AperFunction,ComponentPad*
%ADD10R,1.800000X1.800000*%
G04 #@! TD*
G04 #@! TA.AperFunction,ComponentPad*
%ADD11C,1.800000*%
G04 #@! TD*
G04 #@! TA.AperFunction,ComponentPad*
%ADD12C,6.400000*%
G04 #@! TD*
G04 #@! TA.AperFunction,ComponentPad*
%ADD13R,1.700000X1.700000*%
G04 #@! TD*
G04 #@! TA.AperFunction,ComponentPad*
%ADD14O,1.700000X1.700000*%
G04 #@! TD*
G04 #@! TA.AperFunction,SMDPad,CuDef*
%ADD15R,5.000000X2.000000*%
G04 #@! TD*
G04 #@! TA.AperFunction,ComponentPad*
%ADD16C,2.000000*%
G04 #@! TD*
G04 #@! TA.AperFunction,ViaPad*
%ADD17C,0.800000*%
G04 #@! TD*
G04 #@! TA.AperFunction,Conductor*
%ADD18C,0.160000*%
G04 #@! TD*
G04 APERTURE END LIST*
D10*
G04 #@! TO.P,D1,1*
G04 #@! TO.N,bus13*
X150114000Y-103203000D03*
D11*
G04 #@! TO.P,D1,2*
G04 #@! TO.N,Net-(D1-Pad2)*
X152654000Y-103203000D03*
G04 #@! TD*
D12*
G04 #@! TO.P,H1,1*
G04 #@! TO.N,Net-(H1-Pad1)*
X154686000Y-166624000D03*
G04 #@! TD*
G04 #@! TO.P,H2,1*
G04 #@! TO.N,Net-(H2-Pad1)*
X128016000Y-166624000D03*
G04 #@! TD*
G04 #@! TO.P,H3,1*
G04 #@! TO.N,Net-(H3-Pad1)*
X154686000Y-96774000D03*
G04 #@! TD*
G04 #@! TO.P,H4,1*
G04 #@! TO.N,Net-(H4-Pad1)*
X128016000Y-96774000D03*
G04 #@! TD*
D13*
G04 #@! TO.P,J5,1*
G04 #@! TO.N,bus1*
X149098000Y-94996000D03*
D14*
G04 #@! TO.P,J5,2*
G04 #@! TO.N,bus2*
X149098000Y-97536000D03*
G04 #@! TO.P,J5,3*
G04 #@! TO.N,bus3*
X146558000Y-94996000D03*
G04 #@! TO.P,J5,4*
G04 #@! TO.N,bus4*
X146558000Y-97536000D03*
G04 #@! TO.P,J5,5*
G04 #@! TO.N,bus5*
X144018000Y-94996000D03*
G04 #@! TO.P,J5,6*
G04 #@! TO.N,bus6*
X144018000Y-97536000D03*
G04 #@! TO.P,J5,7*
G04 #@! TO.N,bus7*
X141478000Y-94996000D03*
G04 #@! TO.P,J5,8*
G04 #@! TO.N,bus8*
X141478000Y-97536000D03*
G04 #@! TO.P,J5,9*
G04 #@! TO.N,RX*
X138938000Y-94996000D03*
G04 #@! TO.P,J5,10*
G04 #@! TO.N,TX*
X138938000Y-97536000D03*
G04 #@! TO.P,J5,11*
G04 #@! TO.N,bus11*
X136398000Y-94996000D03*
G04 #@! TO.P,J5,12*
X136398000Y-97536000D03*
G04 #@! TO.P,J5,13*
G04 #@! TO.N,bus13*
X133858000Y-94996000D03*
G04 #@! TO.P,J5,14*
X133858000Y-97536000D03*
G04 #@! TD*
D15*
G04 #@! TO.P,J1,6*
G04 #@! TO.N,d13*
X127762000Y-117602000D03*
G04 #@! TO.P,J1,5*
G04 #@! TO.N,d12*
X127762000Y-120142000D03*
G04 #@! TO.P,J1,4*
G04 #@! TO.N,d11*
X127762000Y-122682000D03*
G04 #@! TD*
G04 #@! TO.P,J3,4*
G04 #@! TO.N,RX*
X127762000Y-108204000D03*
G04 #@! TO.P,J3,5*
G04 #@! TO.N,TX*
X127762000Y-110744000D03*
G04 #@! TO.P,J3,6*
G04 #@! TO.N,DTR*
X127762000Y-113284000D03*
G04 #@! TD*
D16*
G04 #@! TO.P,SW1,3*
G04 #@! TO.N,N/C*
X138000000Y-160550000D03*
G04 #@! TO.P,SW1,4*
X138000000Y-165050000D03*
G04 #@! TO.P,SW1,1*
G04 #@! TO.N,d2*
X144500000Y-160550000D03*
G04 #@! TO.P,SW1,2*
G04 #@! TO.N,bus13*
X144500000Y-165050000D03*
G04 #@! TD*
D17*
G04 #@! TO.N,XTAL1*
X147115000Y-119448000D03*
X143171023Y-122443010D03*
G04 #@! TO.N,XTAL2*
X147240000Y-121438000D03*
X143164706Y-121375669D03*
G04 #@! TO.N,RESET*
X133692000Y-101854000D03*
X132331079Y-106827877D03*
G04 #@! TO.N,DTR*
X137668000Y-103124000D03*
G04 #@! TO.N,a0*
X135209990Y-108448404D03*
X131530010Y-108519957D03*
G04 #@! TO.N,a1*
X145288000Y-145542000D03*
X142748000Y-145542000D03*
X140208000Y-145542000D03*
X137668000Y-145542000D03*
X135128000Y-145542000D03*
X132588000Y-145542000D03*
X130048000Y-145542000D03*
X127608406Y-145441594D03*
X132550000Y-110350000D03*
G04 #@! TO.N,RX*
X127508000Y-126492000D03*
X134574252Y-115923872D03*
G04 #@! TO.N,TX*
X135607634Y-113833776D03*
X131880010Y-116303331D03*
G04 #@! TO.N,a2*
X141666000Y-106934000D03*
X135000000Y-117350000D03*
X134850000Y-122650000D03*
X138558592Y-113511464D03*
G04 #@! TO.N,d10*
X145455000Y-113408000D03*
X147600000Y-157250000D03*
G04 #@! TO.N,d11*
X153150000Y-110000000D03*
G04 #@! TO.N,a3*
X144296000Y-107994000D03*
X139530065Y-115631332D03*
G04 #@! TO.N,d12*
X154432000Y-109474000D03*
X133650000Y-153600000D03*
X132900000Y-142550000D03*
G04 #@! TO.N,d13*
X124909241Y-115363077D03*
X145899998Y-99050000D03*
X139100535Y-112085325D03*
G04 #@! TO.N,a5*
X135382000Y-114808000D03*
X130048000Y-128524000D03*
X129540000Y-132080000D03*
X136253962Y-123326154D03*
X147800000Y-128750000D03*
X135750000Y-121000000D03*
G04 #@! TO.N,bus11*
X133905000Y-106830000D03*
X147030000Y-113408000D03*
X128150000Y-115730010D03*
X138950000Y-122700000D03*
X130929532Y-118659476D03*
X133649999Y-109080010D03*
X144350000Y-110400000D03*
G04 #@! TO.N,bus13*
X133692000Y-104854000D03*
X135890008Y-105894021D03*
X126534313Y-115500016D03*
X129550000Y-115450000D03*
G04 #@! TO.N,Net-(D2-Pad2)*
X132588000Y-134112000D03*
X137668000Y-134112000D03*
X135128000Y-134112000D03*
X130048000Y-134112000D03*
X127508000Y-134112000D03*
G04 #@! TO.N,bus1*
X145288002Y-137922002D03*
G04 #@! TO.N,bus2*
X145288000Y-126492000D03*
G04 #@! TO.N,bus3*
X142748000Y-126492000D03*
G04 #@! TO.N,bus4*
X140208000Y-126492000D03*
G04 #@! TO.N,bus5*
X137668000Y-126492000D03*
G04 #@! TO.N,bus6*
X135128000Y-126492000D03*
G04 #@! TO.N,bus7*
X132588000Y-126746000D03*
G04 #@! TO.N,bus8*
X130301241Y-126692439D03*
G04 #@! TO.N,Net-(D2-Pad2)*
X142748000Y-134112000D03*
X145288000Y-134112000D03*
X140300000Y-134112000D03*
G04 #@! TD*
D18*
G04 #@! TO.N,XTAL1*
X143228013Y-122500000D02*
X143171023Y-122443010D01*
X147900000Y-122500000D02*
X143228013Y-122500000D01*
X148250000Y-122150000D02*
X147900000Y-122500000D01*
X148250000Y-120583000D02*
X148250000Y-122150000D01*
X147115000Y-119448000D02*
X148250000Y-120583000D01*
G04 #@! TO.N,XTAL2*
X143227037Y-121438000D02*
X143164706Y-121375669D01*
X147240000Y-121438000D02*
X143227037Y-121438000D01*
G04 #@! TO.N,RESET*
X132331079Y-104074921D02*
X132331079Y-106262192D01*
X133692000Y-101854000D02*
X133692000Y-102714000D01*
X132331079Y-106262192D02*
X132331079Y-106827877D01*
X133692000Y-102714000D02*
X132331079Y-104074921D01*
G04 #@! TO.N,DTR*
X129540000Y-100584000D02*
X124586010Y-105537990D01*
X125222000Y-113284000D02*
X127762000Y-113284000D01*
X124586010Y-112648010D02*
X125222000Y-113284000D01*
X135128000Y-100584000D02*
X129540000Y-100584000D01*
X124586010Y-105537990D02*
X124586010Y-112648010D01*
X137668000Y-103124000D02*
X135128000Y-100584000D01*
G04 #@! TO.N,a0*
X131649967Y-108400000D02*
X131530010Y-108519957D01*
X135161586Y-108400000D02*
X131649967Y-108400000D01*
X135209990Y-108448404D02*
X135161586Y-108400000D01*
G04 #@! TO.N,a1*
X127708812Y-145542000D02*
X127608406Y-145441594D01*
X145288000Y-145542000D02*
X127708812Y-145542000D01*
X132550000Y-110915685D02*
X132550000Y-110350000D01*
X132600000Y-110965685D02*
X132550000Y-110915685D01*
X132600000Y-116589743D02*
X132600000Y-110965685D01*
X126385989Y-135275989D02*
X126385989Y-125834879D01*
X135128000Y-143728000D02*
X130338000Y-138938000D01*
X130048000Y-138938000D02*
X126385989Y-135275989D01*
X126385989Y-125834879D02*
X127654858Y-124566010D01*
X130338000Y-138938000D02*
X130048000Y-138938000D01*
X127654858Y-124566010D02*
X130451122Y-124566010D01*
X130451122Y-124566010D02*
X132458823Y-122558309D01*
X132458823Y-122558309D02*
X132458823Y-116730920D01*
X135128000Y-145542000D02*
X135128000Y-143728000D01*
X132458823Y-116730920D02*
X132600000Y-116589743D01*
G04 #@! TO.N,RX*
X135890000Y-108966000D02*
X135890000Y-107671988D01*
X139044011Y-104517977D02*
X137643988Y-105918000D01*
X137643988Y-105918000D02*
X135890000Y-107671988D01*
X139044011Y-99822000D02*
X139044011Y-104517977D01*
X137650000Y-98427989D02*
X139044011Y-99822000D01*
X137650000Y-96284000D02*
X137650000Y-98427989D01*
X138938000Y-94996000D02*
X137650000Y-96284000D01*
X128371988Y-107671988D02*
X135890000Y-107671988D01*
X128133986Y-107433986D02*
X128371988Y-107671988D01*
X127516014Y-107433986D02*
X128133986Y-107433986D01*
X126746000Y-108204000D02*
X127516014Y-107433986D01*
X134786001Y-110069999D02*
X135890000Y-108966000D01*
X134780001Y-110069999D02*
X134786001Y-110069999D01*
X133532445Y-111317555D02*
X134780001Y-110069999D01*
X133532445Y-117095433D02*
X133532445Y-111317555D01*
X133202011Y-117425867D02*
X133532445Y-117095433D01*
X130701725Y-125582011D02*
X133202011Y-123081725D01*
X133202011Y-123081725D02*
X133202011Y-117425867D01*
X129377989Y-125582011D02*
X130701725Y-125582011D01*
X128468000Y-126492000D02*
X129377989Y-125582011D01*
X127508000Y-126492000D02*
X128468000Y-126492000D01*
X134574252Y-115358187D02*
X134574252Y-115923872D01*
X134574252Y-110281748D02*
X134574252Y-115358187D01*
X134786001Y-110069999D02*
X134574252Y-110281748D01*
G04 #@! TO.N,TX*
X136291989Y-108050351D02*
X136291989Y-110342011D01*
X135607634Y-113268091D02*
X135607634Y-113833776D01*
X140208000Y-104134340D02*
X136291989Y-108050351D01*
X135607634Y-111026366D02*
X135607634Y-113268091D01*
X140208000Y-98806000D02*
X140208000Y-104134340D01*
X136291989Y-110342011D02*
X135607634Y-111026366D01*
X138938000Y-97536000D02*
X140208000Y-98806000D01*
X126746000Y-110744000D02*
X130417672Y-110744000D01*
X130417672Y-110744000D02*
X131880010Y-112206338D01*
X131880010Y-115737646D02*
X131880010Y-116303331D01*
X131880010Y-112206338D02*
X131880010Y-115737646D01*
G04 #@! TO.N,a2*
X135000000Y-117350000D02*
X134349988Y-118000012D01*
X134388388Y-122188388D02*
X134850000Y-122650000D01*
X134349988Y-122149988D02*
X134388388Y-122188388D01*
X134349988Y-118000012D02*
X134349988Y-122149988D01*
X141666000Y-110484000D02*
X138638536Y-113511464D01*
X138638536Y-113511464D02*
X138558592Y-113511464D01*
X141666000Y-106934000D02*
X141666000Y-110484000D01*
G04 #@! TO.N,d10*
X145455000Y-113983000D02*
X150595999Y-119123999D01*
X150595999Y-119123999D02*
X150595999Y-131344001D01*
X145455000Y-113408000D02*
X145455000Y-113983000D01*
X150595999Y-131344001D02*
X144526000Y-137414000D01*
X144526000Y-141732000D02*
X147600000Y-144806000D01*
X147600000Y-156684315D02*
X147600000Y-157250000D01*
X144526000Y-137414000D02*
X144526000Y-141732000D01*
X147600000Y-144806000D02*
X147600000Y-156684315D01*
G04 #@! TO.N,d11*
X153150000Y-110000000D02*
X153150000Y-154340868D01*
X153150000Y-154340868D02*
X148990868Y-158500000D01*
X139705132Y-158500000D02*
X125157969Y-143952837D01*
X148990868Y-158500000D02*
X139705132Y-158500000D01*
X125157969Y-143952837D02*
X125157969Y-125540031D01*
X125157969Y-125540031D02*
X128016000Y-122682000D01*
G04 #@! TO.N,a3*
X139930064Y-115231333D02*
X139530065Y-115631332D01*
X144296000Y-107994000D02*
X144296000Y-108094000D01*
X143436000Y-111725397D02*
X139930064Y-115231333D01*
X143436000Y-108954000D02*
X143436000Y-111725397D01*
X144296000Y-108094000D02*
X143436000Y-108954000D01*
G04 #@! TO.N,d12*
X134049999Y-153999999D02*
X133650000Y-153600000D01*
X154432000Y-153568000D02*
X148950000Y-159050000D01*
X139100000Y-159050000D02*
X134049999Y-153999999D01*
X148950000Y-159050000D02*
X139100000Y-159050000D01*
X154432000Y-109474000D02*
X154432000Y-153568000D01*
X127505737Y-124205999D02*
X126025980Y-125685756D01*
X128016000Y-120142000D02*
X130142000Y-120142000D01*
X131064000Y-123444000D02*
X130302001Y-124205999D01*
X131064000Y-121064000D02*
X131064000Y-123444000D01*
X130142000Y-120142000D02*
X131064000Y-121064000D01*
X132500001Y-142150001D02*
X132900000Y-142550000D01*
X126025980Y-135675980D02*
X132500001Y-142150001D01*
X126025980Y-125685756D02*
X126025980Y-135675980D01*
X130302001Y-124205999D02*
X127505737Y-124205999D01*
G04 #@! TO.N,d13*
X126262000Y-117602000D02*
X124909241Y-116249241D01*
X124909241Y-116249241D02*
X124909241Y-115928762D01*
X124909241Y-115928762D02*
X124909241Y-115363077D01*
X127762000Y-117602000D02*
X126262000Y-117602000D01*
X139100535Y-107787465D02*
X139100535Y-111519640D01*
X145899998Y-100988002D02*
X139100535Y-107787465D01*
X139100535Y-111519640D02*
X139100535Y-112085325D01*
X145899998Y-99050000D02*
X145899998Y-100988002D01*
G04 #@! TO.N,a5*
X132588000Y-125222000D02*
X134358116Y-125222000D01*
X131826000Y-126746000D02*
X131826000Y-125984000D01*
X135853963Y-123726153D02*
X136253962Y-123326154D01*
X130048000Y-128524000D02*
X131826000Y-126746000D01*
X131826000Y-125984000D02*
X132588000Y-125222000D01*
X134358116Y-125222000D02*
X135853963Y-123726153D01*
X147400001Y-129149999D02*
X147800000Y-128750000D01*
X144470000Y-132080000D02*
X147400001Y-129149999D01*
X129540000Y-132080000D02*
X144470000Y-132080000D01*
X135382000Y-115373685D02*
X135750000Y-115741685D01*
X135382000Y-114808000D02*
X135382000Y-115373685D01*
X135750000Y-115741685D02*
X135750000Y-121000000D01*
G04 #@! TO.N,bus11*
X134442500Y-106830000D02*
X133905000Y-106830000D01*
X135960433Y-106830000D02*
X134442500Y-106830000D01*
X138517999Y-100076000D02*
X138517999Y-104272434D01*
X136398000Y-97956001D02*
X138517999Y-100076000D01*
X138517999Y-104272434D02*
X135960433Y-106830000D01*
X136398000Y-97536000D02*
X136398000Y-97956001D01*
X130295694Y-116130009D02*
X130929532Y-116763847D01*
X130929532Y-116763847D02*
X130929532Y-118093791D01*
X128150000Y-115730010D02*
X128549999Y-116130009D01*
X130929532Y-118093791D02*
X130929532Y-118659476D01*
X128549999Y-116130009D02*
X130295694Y-116130009D01*
X127508000Y-125222000D02*
X130552604Y-125222000D01*
X130552604Y-125222000D02*
X132842000Y-122932604D01*
X132842000Y-122932604D02*
X132842000Y-116856875D01*
X138950000Y-122700000D02*
X138950000Y-127412000D01*
X129820001Y-131344001D02*
X126746000Y-128270000D01*
X135017999Y-131344001D02*
X129820001Y-131344001D01*
X138950000Y-127412000D02*
X135017999Y-131344001D01*
X126746000Y-125984000D02*
X127508000Y-125222000D01*
X132976402Y-116722473D02*
X132976402Y-110930002D01*
X132842000Y-116856875D02*
X132976402Y-116722473D01*
X132976402Y-110930002D02*
X133649999Y-110256405D01*
X133649999Y-110256405D02*
X133649999Y-109645695D01*
X133649999Y-109645695D02*
X133649999Y-109080010D01*
X126746000Y-128270000D02*
X126746000Y-125984000D01*
X144350000Y-110728000D02*
X144350000Y-110400000D01*
X147030000Y-113408000D02*
X144350000Y-110728000D01*
G04 #@! TO.N,bus13*
X133692000Y-104854000D02*
X134849987Y-104854000D01*
X135490009Y-105494022D02*
X135890008Y-105894021D01*
X134849987Y-104854000D02*
X135490009Y-105494022D01*
X126984328Y-115050001D02*
X129150001Y-115050001D01*
X126534313Y-115500016D02*
X126984328Y-115050001D01*
X129150001Y-115050001D02*
X129550000Y-115450000D01*
G04 #@! TO.N,Net-(D2-Pad2)*
X127508000Y-134112000D02*
X137668000Y-134112000D01*
G04 #@! TO.N,bus1*
X145853687Y-137922002D02*
X145288002Y-137922002D01*
X152278012Y-131497677D02*
X145853687Y-137922002D01*
X148350000Y-116368868D02*
X152278012Y-120296880D01*
X148350000Y-101226402D02*
X148350000Y-116368868D01*
X152278012Y-120296880D02*
X152278012Y-131497677D01*
X150368000Y-99208402D02*
X148350000Y-101226402D01*
X150368000Y-95256000D02*
X150368000Y-99208402D01*
X150108000Y-94996000D02*
X150368000Y-95256000D01*
X149098000Y-94996000D02*
X150108000Y-94996000D01*
G04 #@! TO.N,bus2*
X146248000Y-126492000D02*
X149097999Y-123642001D01*
X149098000Y-99825396D02*
X149098000Y-98738081D01*
X138850055Y-116130801D02*
X138850055Y-115199945D01*
X139143589Y-116424336D02*
X138850055Y-116130801D01*
X143066034Y-105857362D02*
X149098000Y-99825396D01*
X145380336Y-116424336D02*
X139143589Y-116424336D01*
X138850055Y-115199945D02*
X143066034Y-110983966D01*
X143066034Y-110983966D02*
X143066034Y-105857362D01*
X149097999Y-120141999D02*
X145380336Y-116424336D01*
X149097999Y-123642001D02*
X149097999Y-120141999D01*
X149098000Y-98738081D02*
X149098000Y-97536000D01*
X145288000Y-126492000D02*
X146248000Y-126492000D01*
G04 #@! TO.N,bus3*
X147407999Y-95845999D02*
X146558000Y-94996000D01*
X142748000Y-125532000D02*
X142479967Y-125263967D01*
X138490044Y-115050824D02*
X142706023Y-110834845D01*
X142479967Y-120269847D02*
X138490044Y-116279922D01*
X147830264Y-96268264D02*
X147407999Y-95845999D01*
X142706023Y-110834845D02*
X142706024Y-105708240D01*
X142706024Y-105708240D02*
X147830264Y-100584000D01*
X142748000Y-126492000D02*
X142748000Y-125532000D01*
X138490044Y-116279922D02*
X138490044Y-115050824D01*
X142479967Y-125263967D02*
X142479967Y-120269847D01*
X147830264Y-100584000D02*
X147830264Y-96268264D01*
G04 #@! TO.N,bus4*
X138130033Y-116429043D02*
X138130033Y-114901703D01*
X147407999Y-98385999D02*
X146558000Y-97536000D01*
X138130033Y-114901703D02*
X142346010Y-110685726D01*
X142346010Y-110685726D02*
X142346010Y-105559122D01*
X140208000Y-126492000D02*
X140208000Y-118507012D01*
X147407999Y-100497133D02*
X147407999Y-98385999D01*
X140208000Y-118507012D02*
X138130033Y-116429043D01*
X142346010Y-105559122D02*
X147407999Y-100497133D01*
G04 #@! TO.N,Net-(D2-Pad2)*
X140208000Y-134112000D02*
X140300000Y-134112000D01*
X137668000Y-134112000D02*
X140208000Y-134112000D01*
X140300000Y-134112000D02*
X145288000Y-134112000D01*
G04 #@! TO.N,bus5*
X137770022Y-126389978D02*
X137668000Y-126492000D01*
X145169998Y-101208870D02*
X137770022Y-108608846D01*
X145169998Y-96147998D02*
X145169998Y-101208870D01*
X137770022Y-108608846D02*
X137770022Y-126389978D01*
X144018000Y-94996000D02*
X145169998Y-96147998D01*
G04 #@! TO.N,bus6*
X144018000Y-98738081D02*
X144018000Y-97536000D01*
X144018000Y-101851736D02*
X144018000Y-98738081D01*
X137410011Y-108459725D02*
X144018000Y-101851736D01*
X137410011Y-124289989D02*
X137410011Y-108459725D01*
X135208000Y-126492000D02*
X137410011Y-124289989D01*
X135128000Y-126492000D02*
X135208000Y-126492000D01*
G04 #@! TO.N,bus7*
X142750000Y-96268000D02*
X142750000Y-102610604D01*
X133840518Y-126746000D02*
X133153685Y-126746000D01*
X137050000Y-123536518D02*
X133840518Y-126746000D01*
X137050000Y-108310604D02*
X137050000Y-123536518D01*
X142750000Y-102610604D02*
X137050000Y-108310604D01*
X141478000Y-94996000D02*
X142750000Y-96268000D01*
X133153685Y-126746000D02*
X132588000Y-126746000D01*
G04 #@! TO.N,bus8*
X135176402Y-123330002D02*
X136652000Y-121854404D01*
X141478000Y-103373472D02*
X141478000Y-98738081D01*
X141478000Y-98738081D02*
X141478000Y-97536000D01*
X130301241Y-126692439D02*
X133663678Y-123330002D01*
X136652000Y-121854404D02*
X136652000Y-108199472D01*
X133663678Y-123330002D02*
X135176402Y-123330002D01*
X136652000Y-108199472D02*
X141478000Y-103373472D01*
G04 #@! TD*
G04 #@! TO.N,bus11*
G36*
X152714738Y-93823799D02*
X151735799Y-94802738D01*
X151206000Y-96081785D01*
X151206000Y-97466215D01*
X151735799Y-98745262D01*
X152714738Y-99724201D01*
X153993785Y-100254000D01*
X155378215Y-100254000D01*
X156657262Y-99724201D01*
X157636201Y-98745262D01*
X158156001Y-97490355D01*
X158156000Y-165907643D01*
X157636201Y-164652738D01*
X156657262Y-163673799D01*
X155378215Y-163144000D01*
X153993785Y-163144000D01*
X152714738Y-163673799D01*
X151735799Y-164652738D01*
X151206000Y-165931785D01*
X151206000Y-167316215D01*
X151735799Y-168595262D01*
X152714738Y-169574201D01*
X153969643Y-170094000D01*
X128732357Y-170094000D01*
X129987262Y-169574201D01*
X130966201Y-168595262D01*
X131496000Y-167316215D01*
X131496000Y-165931785D01*
X131025291Y-164795392D01*
X136720000Y-164795392D01*
X136720000Y-165304608D01*
X136914868Y-165775062D01*
X137274938Y-166135132D01*
X137745392Y-166330000D01*
X138254608Y-166330000D01*
X138725062Y-166135132D01*
X139085132Y-165775062D01*
X139280000Y-165304608D01*
X139280000Y-164795392D01*
X143220000Y-164795392D01*
X143220000Y-165304608D01*
X143414868Y-165775062D01*
X143774938Y-166135132D01*
X144245392Y-166330000D01*
X144754608Y-166330000D01*
X145225062Y-166135132D01*
X145585132Y-165775062D01*
X145780000Y-165304608D01*
X145780000Y-164795392D01*
X145585132Y-164324938D01*
X145225062Y-163964868D01*
X144754608Y-163770000D01*
X144245392Y-163770000D01*
X143774938Y-163964868D01*
X143414868Y-164324938D01*
X143220000Y-164795392D01*
X139280000Y-164795392D01*
X139085132Y-164324938D01*
X138725062Y-163964868D01*
X138254608Y-163770000D01*
X137745392Y-163770000D01*
X137274938Y-163964868D01*
X136914868Y-164324938D01*
X136720000Y-164795392D01*
X131025291Y-164795392D01*
X130966201Y-164652738D01*
X129987262Y-163673799D01*
X128708215Y-163144000D01*
X127323785Y-163144000D01*
X126044738Y-163673799D01*
X125065799Y-164652738D01*
X124546000Y-165907643D01*
X124546000Y-160295392D01*
X136720000Y-160295392D01*
X136720000Y-160804608D01*
X136914868Y-161275062D01*
X137274938Y-161635132D01*
X137745392Y-161830000D01*
X138254608Y-161830000D01*
X138725062Y-161635132D01*
X139085132Y-161275062D01*
X139280000Y-160804608D01*
X139280000Y-160295392D01*
X139085132Y-159824938D01*
X138725062Y-159464868D01*
X138254608Y-159270000D01*
X137745392Y-159270000D01*
X137274938Y-159464868D01*
X136914868Y-159824938D01*
X136720000Y-160295392D01*
X124546000Y-160295392D01*
X124546000Y-116268400D01*
X124549241Y-116284693D01*
X124570129Y-116389705D01*
X124649696Y-116508785D01*
X124679752Y-116528868D01*
X124905144Y-116754260D01*
X124905144Y-118602000D01*
X124932308Y-118738563D01*
X125009665Y-118854335D01*
X125036102Y-118872000D01*
X125009665Y-118889665D01*
X124932308Y-119005437D01*
X124905144Y-119142000D01*
X124905144Y-121142000D01*
X124932308Y-121278563D01*
X125009665Y-121394335D01*
X125036102Y-121412000D01*
X125009665Y-121429665D01*
X124932308Y-121545437D01*
X124905144Y-121682000D01*
X124905144Y-123682000D01*
X124932308Y-123818563D01*
X125009665Y-123934335D01*
X125125437Y-124011692D01*
X125262000Y-124038856D01*
X126150028Y-124038856D01*
X124928480Y-125260403D01*
X124898425Y-125280486D01*
X124878342Y-125310542D01*
X124818857Y-125399567D01*
X124790917Y-125540031D01*
X124797970Y-125575489D01*
X124797969Y-143917384D01*
X124790917Y-143952837D01*
X124813648Y-144067112D01*
X124818857Y-144093301D01*
X124898424Y-144212381D01*
X124928480Y-144232464D01*
X133616015Y-152920000D01*
X133514740Y-152920000D01*
X133264811Y-153023524D01*
X133073524Y-153214811D01*
X132970000Y-153464740D01*
X132970000Y-153735260D01*
X133073524Y-153985189D01*
X133264811Y-154176476D01*
X133514740Y-154280000D01*
X133785260Y-154280000D01*
X133810449Y-154269566D01*
X133820509Y-154279626D01*
X133820512Y-154279628D01*
X138820372Y-159279489D01*
X138840455Y-159309545D01*
X138870510Y-159329627D01*
X138959535Y-159389112D01*
X139100000Y-159417052D01*
X139135453Y-159410000D01*
X143907401Y-159410000D01*
X143774938Y-159464868D01*
X143414868Y-159824938D01*
X143220000Y-160295392D01*
X143220000Y-160804608D01*
X143414868Y-161275062D01*
X143774938Y-161635132D01*
X144245392Y-161830000D01*
X144754608Y-161830000D01*
X145225062Y-161635132D01*
X145585132Y-161275062D01*
X145780000Y-160804608D01*
X145780000Y-160295392D01*
X145585132Y-159824938D01*
X145225062Y-159464868D01*
X145092599Y-159410000D01*
X148914547Y-159410000D01*
X148950000Y-159417052D01*
X148985453Y-159410000D01*
X149090465Y-159389112D01*
X149209545Y-159309545D01*
X149229630Y-159279486D01*
X154661489Y-153847628D01*
X154691545Y-153827545D01*
X154771112Y-153708465D01*
X154792000Y-153603453D01*
X154799052Y-153568000D01*
X154792000Y-153532547D01*
X154792000Y-110060910D01*
X154817189Y-110050476D01*
X155008476Y-109859189D01*
X155112000Y-109609260D01*
X155112000Y-109338740D01*
X155008476Y-109088811D01*
X154817189Y-108897524D01*
X154567260Y-108794000D01*
X154296740Y-108794000D01*
X154046811Y-108897524D01*
X153855524Y-109088811D01*
X153752000Y-109338740D01*
X153752000Y-109609260D01*
X153855524Y-109859189D01*
X154046811Y-110050476D01*
X154072000Y-110060910D01*
X154072001Y-153418882D01*
X153510000Y-153980883D01*
X153510000Y-110586910D01*
X153535189Y-110576476D01*
X153726476Y-110385189D01*
X153830000Y-110135260D01*
X153830000Y-109864740D01*
X153726476Y-109614811D01*
X153535189Y-109423524D01*
X153285260Y-109320000D01*
X153014740Y-109320000D01*
X152764811Y-109423524D01*
X152573524Y-109614811D01*
X152470000Y-109864740D01*
X152470000Y-110135260D01*
X152573524Y-110385189D01*
X152764811Y-110576476D01*
X152790000Y-110586910D01*
X152790001Y-154191750D01*
X148841752Y-158140000D01*
X139854249Y-158140000D01*
X127808844Y-146094596D01*
X127993595Y-146018070D01*
X128109665Y-145902000D01*
X129461090Y-145902000D01*
X129471524Y-145927189D01*
X129662811Y-146118476D01*
X129912740Y-146222000D01*
X130183260Y-146222000D01*
X130433189Y-146118476D01*
X130624476Y-145927189D01*
X130634910Y-145902000D01*
X132001090Y-145902000D01*
X132011524Y-145927189D01*
X132202811Y-146118476D01*
X132452740Y-146222000D01*
X132723260Y-146222000D01*
X132973189Y-146118476D01*
X133164476Y-145927189D01*
X133174910Y-145902000D01*
X134541090Y-145902000D01*
X134551524Y-145927189D01*
X134742811Y-146118476D01*
X134992740Y-146222000D01*
X135263260Y-146222000D01*
X135513189Y-146118476D01*
X135704476Y-145927189D01*
X135714910Y-145902000D01*
X137081090Y-145902000D01*
X137091524Y-145927189D01*
X137282811Y-146118476D01*
X137532740Y-146222000D01*
X137803260Y-146222000D01*
X138053189Y-146118476D01*
X138244476Y-145927189D01*
X138254910Y-145902000D01*
X139621090Y-145902000D01*
X139631524Y-145927189D01*
X139822811Y-146118476D01*
X140072740Y-146222000D01*
X140343260Y-146222000D01*
X140593189Y-146118476D01*
X140784476Y-145927189D01*
X140794910Y-145902000D01*
X142161090Y-145902000D01*
X142171524Y-145927189D01*
X142362811Y-146118476D01*
X142612740Y-146222000D01*
X142883260Y-146222000D01*
X143133189Y-146118476D01*
X143324476Y-145927189D01*
X143334910Y-145902000D01*
X144701090Y-145902000D01*
X144711524Y-145927189D01*
X144902811Y-146118476D01*
X145152740Y-146222000D01*
X145423260Y-146222000D01*
X145673189Y-146118476D01*
X145864476Y-145927189D01*
X145968000Y-145677260D01*
X145968000Y-145406740D01*
X145864476Y-145156811D01*
X145673189Y-144965524D01*
X145423260Y-144862000D01*
X145152740Y-144862000D01*
X144902811Y-144965524D01*
X144711524Y-145156811D01*
X144701090Y-145182000D01*
X143334910Y-145182000D01*
X143324476Y-145156811D01*
X143133189Y-144965524D01*
X142883260Y-144862000D01*
X142612740Y-144862000D01*
X142362811Y-144965524D01*
X142171524Y-145156811D01*
X142161090Y-145182000D01*
X140794910Y-145182000D01*
X140784476Y-145156811D01*
X140593189Y-144965524D01*
X140343260Y-144862000D01*
X140072740Y-144862000D01*
X139822811Y-144965524D01*
X139631524Y-145156811D01*
X139621090Y-145182000D01*
X138254910Y-145182000D01*
X138244476Y-145156811D01*
X138053189Y-144965524D01*
X137803260Y-144862000D01*
X137532740Y-144862000D01*
X137282811Y-144965524D01*
X137091524Y-145156811D01*
X137081090Y-145182000D01*
X135714910Y-145182000D01*
X135704476Y-145156811D01*
X135513189Y-144965524D01*
X135488000Y-144955090D01*
X135488000Y-143763453D01*
X135495052Y-143728000D01*
X135467112Y-143587535D01*
X135407627Y-143498510D01*
X135387545Y-143468455D01*
X135357489Y-143448372D01*
X130617630Y-138708514D01*
X130597545Y-138678455D01*
X130478465Y-138598888D01*
X130373453Y-138578000D01*
X130338000Y-138570948D01*
X130302547Y-138578000D01*
X130197117Y-138578000D01*
X126745989Y-135126873D01*
X126745989Y-133976740D01*
X126828000Y-133976740D01*
X126828000Y-134247260D01*
X126931524Y-134497189D01*
X127122811Y-134688476D01*
X127372740Y-134792000D01*
X127643260Y-134792000D01*
X127893189Y-134688476D01*
X128084476Y-134497189D01*
X128094910Y-134472000D01*
X129461090Y-134472000D01*
X129471524Y-134497189D01*
X129662811Y-134688476D01*
X129912740Y-134792000D01*
X130183260Y-134792000D01*
X130433189Y-134688476D01*
X130624476Y-134497189D01*
X130634910Y-134472000D01*
X132001090Y-134472000D01*
X132011524Y-134497189D01*
X132202811Y-134688476D01*
X132452740Y-134792000D01*
X132723260Y-134792000D01*
X132973189Y-134688476D01*
X133164476Y-134497189D01*
X133174910Y-134472000D01*
X134541090Y-134472000D01*
X134551524Y-134497189D01*
X134742811Y-134688476D01*
X134992740Y-134792000D01*
X135263260Y-134792000D01*
X135513189Y-134688476D01*
X135704476Y-134497189D01*
X135714910Y-134472000D01*
X137081090Y-134472000D01*
X137091524Y-134497189D01*
X137282811Y-134688476D01*
X137532740Y-134792000D01*
X137803260Y-134792000D01*
X138053189Y-134688476D01*
X138244476Y-134497189D01*
X138254910Y-134472000D01*
X139713090Y-134472000D01*
X139723524Y-134497189D01*
X139914811Y-134688476D01*
X140164740Y-134792000D01*
X140435260Y-134792000D01*
X140685189Y-134688476D01*
X140876476Y-134497189D01*
X140886910Y-134472000D01*
X142161090Y-134472000D01*
X142171524Y-134497189D01*
X142362811Y-134688476D01*
X142612740Y-134792000D01*
X142883260Y-134792000D01*
X143133189Y-134688476D01*
X143324476Y-134497189D01*
X143334910Y-134472000D01*
X144701090Y-134472000D01*
X144711524Y-134497189D01*
X144902811Y-134688476D01*
X145152740Y-134792000D01*
X145423260Y-134792000D01*
X145673189Y-134688476D01*
X145864476Y-134497189D01*
X145968000Y-134247260D01*
X145968000Y-133976740D01*
X145864476Y-133726811D01*
X145673189Y-133535524D01*
X145423260Y-133432000D01*
X145152740Y-133432000D01*
X144902811Y-133535524D01*
X144711524Y-133726811D01*
X144701090Y-133752000D01*
X143334910Y-133752000D01*
X143324476Y-133726811D01*
X143133189Y-133535524D01*
X142883260Y-133432000D01*
X142612740Y-133432000D01*
X142362811Y-133535524D01*
X142171524Y-133726811D01*
X142161090Y-133752000D01*
X140886910Y-133752000D01*
X140876476Y-133726811D01*
X140685189Y-133535524D01*
X140435260Y-133432000D01*
X140164740Y-133432000D01*
X139914811Y-133535524D01*
X139723524Y-133726811D01*
X139713090Y-133752000D01*
X138254910Y-133752000D01*
X138244476Y-133726811D01*
X138053189Y-133535524D01*
X137803260Y-133432000D01*
X137532740Y-133432000D01*
X137282811Y-133535524D01*
X137091524Y-133726811D01*
X137081090Y-133752000D01*
X135714910Y-133752000D01*
X135704476Y-133726811D01*
X135513189Y-133535524D01*
X135263260Y-133432000D01*
X134992740Y-133432000D01*
X134742811Y-133535524D01*
X134551524Y-133726811D01*
X134541090Y-133752000D01*
X133174910Y-133752000D01*
X133164476Y-133726811D01*
X132973189Y-133535524D01*
X132723260Y-133432000D01*
X132452740Y-133432000D01*
X132202811Y-133535524D01*
X132011524Y-133726811D01*
X132001090Y-133752000D01*
X130634910Y-133752000D01*
X130624476Y-133726811D01*
X130433189Y-133535524D01*
X130183260Y-133432000D01*
X129912740Y-133432000D01*
X129662811Y-133535524D01*
X129471524Y-133726811D01*
X129461090Y-133752000D01*
X128094910Y-133752000D01*
X128084476Y-133726811D01*
X127893189Y-133535524D01*
X127643260Y-133432000D01*
X127372740Y-133432000D01*
X127122811Y-133535524D01*
X126931524Y-133726811D01*
X126828000Y-133976740D01*
X126745989Y-133976740D01*
X126745989Y-131944740D01*
X128860000Y-131944740D01*
X128860000Y-132215260D01*
X128963524Y-132465189D01*
X129154811Y-132656476D01*
X129404740Y-132760000D01*
X129675260Y-132760000D01*
X129925189Y-132656476D01*
X130116476Y-132465189D01*
X130126910Y-132440000D01*
X144434547Y-132440000D01*
X144470000Y-132447052D01*
X144505453Y-132440000D01*
X144610465Y-132419112D01*
X144729545Y-132339545D01*
X144749630Y-132309486D01*
X147639551Y-129419566D01*
X147664740Y-129430000D01*
X147935260Y-129430000D01*
X148185189Y-129326476D01*
X148376476Y-129135189D01*
X148480000Y-128885260D01*
X148480000Y-128614740D01*
X148376476Y-128364811D01*
X148185189Y-128173524D01*
X147935260Y-128070000D01*
X147664740Y-128070000D01*
X147414811Y-128173524D01*
X147223524Y-128364811D01*
X147120000Y-128614740D01*
X147120000Y-128885260D01*
X147130434Y-128910449D01*
X144320884Y-131720000D01*
X130126910Y-131720000D01*
X130116476Y-131694811D01*
X129925189Y-131503524D01*
X129675260Y-131400000D01*
X129404740Y-131400000D01*
X129154811Y-131503524D01*
X128963524Y-131694811D01*
X128860000Y-131944740D01*
X126745989Y-131944740D01*
X126745989Y-125983995D01*
X127803975Y-124926010D01*
X130415669Y-124926010D01*
X130451122Y-124933062D01*
X130486575Y-124926010D01*
X130591587Y-124905122D01*
X130710667Y-124825555D01*
X130730752Y-124795497D01*
X132688314Y-122837935D01*
X132718367Y-122817854D01*
X132738448Y-122787801D01*
X132738450Y-122787799D01*
X132797935Y-122698774D01*
X132825875Y-122558309D01*
X132818823Y-122522856D01*
X132818823Y-116880036D01*
X132829488Y-116869371D01*
X132859544Y-116849288D01*
X132939112Y-116730208D01*
X132960000Y-116625196D01*
X132960000Y-116625192D01*
X132967051Y-116589744D01*
X132960000Y-116554296D01*
X132960000Y-111001138D01*
X132967052Y-110965685D01*
X132955260Y-110906405D01*
X133126476Y-110735189D01*
X133230000Y-110485260D01*
X133230000Y-110214740D01*
X133126476Y-109964811D01*
X132935189Y-109773524D01*
X132685260Y-109670000D01*
X132414740Y-109670000D01*
X132164811Y-109773524D01*
X131973524Y-109964811D01*
X131870000Y-110214740D01*
X131870000Y-110485260D01*
X131973524Y-110735189D01*
X132164811Y-110926476D01*
X132186916Y-110935632D01*
X132203582Y-111019418D01*
X132210888Y-111056149D01*
X132240001Y-111099719D01*
X132240001Y-112170839D01*
X132219122Y-112065873D01*
X132181136Y-112009025D01*
X132159637Y-111976848D01*
X132159635Y-111976846D01*
X132139554Y-111946793D01*
X132109501Y-111926712D01*
X130697301Y-110514513D01*
X130677217Y-110484455D01*
X130618856Y-110445459D01*
X130618856Y-109744000D01*
X130591692Y-109607437D01*
X130514335Y-109491665D01*
X130487898Y-109474000D01*
X130514335Y-109456335D01*
X130591692Y-109340563D01*
X130618856Y-109204000D01*
X130618856Y-108031988D01*
X131056314Y-108031988D01*
X130953534Y-108134768D01*
X130850010Y-108384697D01*
X130850010Y-108655217D01*
X130953534Y-108905146D01*
X131144821Y-109096433D01*
X131394750Y-109199957D01*
X131665270Y-109199957D01*
X131915199Y-109096433D01*
X132106486Y-108905146D01*
X132166607Y-108760000D01*
X134603031Y-108760000D01*
X134633514Y-108833593D01*
X134824801Y-109024880D01*
X135074730Y-109128404D01*
X135218479Y-109128404D01*
X134568597Y-109778287D01*
X134520456Y-109810454D01*
X134500373Y-109840510D01*
X134326678Y-110014205D01*
X134314707Y-110022204D01*
X134306708Y-110034175D01*
X133302956Y-111037928D01*
X133272901Y-111058010D01*
X133252818Y-111088066D01*
X133193333Y-111177091D01*
X133165393Y-111317555D01*
X133172446Y-111353013D01*
X133172445Y-116946316D01*
X132972522Y-117146240D01*
X132942467Y-117166322D01*
X132922384Y-117196378D01*
X132862899Y-117285403D01*
X132834959Y-117425867D01*
X132842012Y-117461325D01*
X132842011Y-122932608D01*
X130552609Y-125222011D01*
X129413442Y-125222011D01*
X129377989Y-125214959D01*
X129342536Y-125222011D01*
X129237524Y-125242899D01*
X129118444Y-125322466D01*
X129098361Y-125352522D01*
X128318884Y-126132000D01*
X128094910Y-126132000D01*
X128084476Y-126106811D01*
X127893189Y-125915524D01*
X127643260Y-125812000D01*
X127372740Y-125812000D01*
X127122811Y-125915524D01*
X126931524Y-126106811D01*
X126828000Y-126356740D01*
X126828000Y-126627260D01*
X126931524Y-126877189D01*
X127122811Y-127068476D01*
X127372740Y-127172000D01*
X127643260Y-127172000D01*
X127893189Y-127068476D01*
X128084476Y-126877189D01*
X128094910Y-126852000D01*
X128432547Y-126852000D01*
X128468000Y-126859052D01*
X128503453Y-126852000D01*
X128608465Y-126831112D01*
X128727545Y-126751545D01*
X128747629Y-126721487D01*
X129527106Y-125942011D01*
X130542553Y-125942011D01*
X130461691Y-126022873D01*
X130436501Y-126012439D01*
X130165981Y-126012439D01*
X129916052Y-126115963D01*
X129724765Y-126307250D01*
X129621241Y-126557179D01*
X129621241Y-126827699D01*
X129724765Y-127077628D01*
X129916052Y-127268915D01*
X130165981Y-127372439D01*
X130436501Y-127372439D01*
X130686430Y-127268915D01*
X130877717Y-127077628D01*
X130981241Y-126827699D01*
X130981241Y-126557179D01*
X130970807Y-126531989D01*
X131466001Y-126036795D01*
X131466000Y-126596883D01*
X130208450Y-127854434D01*
X130183260Y-127844000D01*
X129912740Y-127844000D01*
X129662811Y-127947524D01*
X129471524Y-128138811D01*
X129368000Y-128388740D01*
X129368000Y-128659260D01*
X129471524Y-128909189D01*
X129662811Y-129100476D01*
X129912740Y-129204000D01*
X130183260Y-129204000D01*
X130433189Y-129100476D01*
X130624476Y-128909189D01*
X130728000Y-128659260D01*
X130728000Y-128388740D01*
X130717566Y-128363550D01*
X131993483Y-127087634D01*
X132011524Y-127131189D01*
X132202811Y-127322476D01*
X132452740Y-127426000D01*
X132723260Y-127426000D01*
X132973189Y-127322476D01*
X133164476Y-127131189D01*
X133174910Y-127106000D01*
X133805065Y-127106000D01*
X133840518Y-127113052D01*
X133875971Y-127106000D01*
X133980983Y-127085112D01*
X134100063Y-127005545D01*
X134120148Y-126975486D01*
X134453967Y-126641667D01*
X134551524Y-126877189D01*
X134742811Y-127068476D01*
X134992740Y-127172000D01*
X135263260Y-127172000D01*
X135513189Y-127068476D01*
X135704476Y-126877189D01*
X135808000Y-126627260D01*
X135808000Y-126401116D01*
X137410023Y-124799094D01*
X137410023Y-125862831D01*
X137282811Y-125915524D01*
X137091524Y-126106811D01*
X136988000Y-126356740D01*
X136988000Y-126627260D01*
X137091524Y-126877189D01*
X137282811Y-127068476D01*
X137532740Y-127172000D01*
X137803260Y-127172000D01*
X138053189Y-127068476D01*
X138244476Y-126877189D01*
X138348000Y-126627260D01*
X138348000Y-126356740D01*
X138244476Y-126106811D01*
X138130022Y-125992357D01*
X138130022Y-116938148D01*
X139848001Y-118656130D01*
X139848000Y-125905090D01*
X139822811Y-125915524D01*
X139631524Y-126106811D01*
X139528000Y-126356740D01*
X139528000Y-126627260D01*
X139631524Y-126877189D01*
X139822811Y-127068476D01*
X140072740Y-127172000D01*
X140343260Y-127172000D01*
X140593189Y-127068476D01*
X140784476Y-126877189D01*
X140888000Y-126627260D01*
X140888000Y-126356740D01*
X140784476Y-126106811D01*
X140593189Y-125915524D01*
X140568000Y-125905090D01*
X140568000Y-118866996D01*
X142119968Y-120418965D01*
X142119967Y-125228514D01*
X142112915Y-125263967D01*
X142138290Y-125391535D01*
X142140855Y-125404431D01*
X142220422Y-125523511D01*
X142250478Y-125543594D01*
X142388001Y-125681117D01*
X142388001Y-125905090D01*
X142362811Y-125915524D01*
X142171524Y-126106811D01*
X142068000Y-126356740D01*
X142068000Y-126627260D01*
X142171524Y-126877189D01*
X142362811Y-127068476D01*
X142612740Y-127172000D01*
X142883260Y-127172000D01*
X143133189Y-127068476D01*
X143324476Y-126877189D01*
X143428000Y-126627260D01*
X143428000Y-126356740D01*
X143324476Y-126106811D01*
X143133189Y-125915524D01*
X143108000Y-125905090D01*
X143108000Y-125567453D01*
X143115052Y-125532000D01*
X143087112Y-125391535D01*
X143027627Y-125302510D01*
X143007545Y-125272455D01*
X142977489Y-125252372D01*
X142839967Y-125114851D01*
X142839967Y-123041909D01*
X143035763Y-123123010D01*
X143306283Y-123123010D01*
X143556212Y-123019486D01*
X143715698Y-122860000D01*
X147864547Y-122860000D01*
X147900000Y-122867052D01*
X147935453Y-122860000D01*
X148040465Y-122839112D01*
X148159545Y-122759545D01*
X148179629Y-122729487D01*
X148479489Y-122429628D01*
X148509545Y-122409545D01*
X148589112Y-122290465D01*
X148610000Y-122185453D01*
X148617052Y-122150000D01*
X148610000Y-122114547D01*
X148610000Y-120618447D01*
X148617051Y-120582999D01*
X148610000Y-120547551D01*
X148610000Y-120547547D01*
X148589112Y-120442535D01*
X148541640Y-120371489D01*
X148529627Y-120353510D01*
X148529625Y-120353508D01*
X148509544Y-120323455D01*
X148479491Y-120303374D01*
X147784566Y-119608450D01*
X147795000Y-119583260D01*
X147795000Y-119348117D01*
X148738000Y-120291117D01*
X148737999Y-123492884D01*
X146098884Y-126132000D01*
X145874910Y-126132000D01*
X145864476Y-126106811D01*
X145673189Y-125915524D01*
X145423260Y-125812000D01*
X145152740Y-125812000D01*
X144902811Y-125915524D01*
X144711524Y-126106811D01*
X144608000Y-126356740D01*
X144608000Y-126627260D01*
X144711524Y-126877189D01*
X144902811Y-127068476D01*
X145152740Y-127172000D01*
X145423260Y-127172000D01*
X145673189Y-127068476D01*
X145864476Y-126877189D01*
X145874910Y-126852000D01*
X146212547Y-126852000D01*
X146248000Y-126859052D01*
X146283453Y-126852000D01*
X146388465Y-126831112D01*
X146507545Y-126751545D01*
X146527630Y-126721486D01*
X149327490Y-123921627D01*
X149357543Y-123901546D01*
X149377624Y-123871493D01*
X149377626Y-123871491D01*
X149418010Y-123811052D01*
X149437111Y-123782466D01*
X149457999Y-123677454D01*
X149457999Y-123677450D01*
X149465050Y-123642002D01*
X149457999Y-123606554D01*
X149457999Y-120177446D01*
X149465050Y-120141998D01*
X149457999Y-120106550D01*
X149457999Y-120106546D01*
X149437111Y-120001534D01*
X149357544Y-119882454D01*
X149327488Y-119862371D01*
X145659966Y-116194850D01*
X145639881Y-116164791D01*
X145520801Y-116085224D01*
X145415789Y-116064336D01*
X145380336Y-116057284D01*
X145344883Y-116064336D01*
X140058726Y-116064336D01*
X140106541Y-116016521D01*
X140210065Y-115766592D01*
X140210065Y-115496072D01*
X140199631Y-115470883D01*
X140209691Y-115460823D01*
X140209693Y-115460820D01*
X143665489Y-112005025D01*
X143695545Y-111984942D01*
X143775112Y-111865862D01*
X143796000Y-111760850D01*
X143796000Y-111760846D01*
X143803051Y-111725398D01*
X143796000Y-111689950D01*
X143796000Y-109103116D01*
X144225117Y-108674000D01*
X144431260Y-108674000D01*
X144681189Y-108570476D01*
X144872476Y-108379189D01*
X144976000Y-108129260D01*
X144976000Y-107858740D01*
X144872476Y-107608811D01*
X144681189Y-107417524D01*
X144431260Y-107314000D01*
X144160740Y-107314000D01*
X143910811Y-107417524D01*
X143719524Y-107608811D01*
X143616000Y-107858740D01*
X143616000Y-108129260D01*
X143655723Y-108225160D01*
X143426034Y-108454850D01*
X143426034Y-106006478D01*
X147990000Y-101442513D01*
X147990001Y-116008885D01*
X145902891Y-113921774D01*
X146031476Y-113793189D01*
X146135000Y-113543260D01*
X146135000Y-113272740D01*
X146031476Y-113022811D01*
X145840189Y-112831524D01*
X145590260Y-112728000D01*
X145319740Y-112728000D01*
X145069811Y-112831524D01*
X144878524Y-113022811D01*
X144775000Y-113272740D01*
X144775000Y-113543260D01*
X144878524Y-113793189D01*
X145069811Y-113984476D01*
X145089896Y-113992796D01*
X145115888Y-114123464D01*
X145167581Y-114200828D01*
X145195456Y-114242545D01*
X145225512Y-114262628D01*
X150235999Y-119273116D01*
X150236000Y-131194883D01*
X144296511Y-137134373D01*
X144266455Y-137154456D01*
X144246373Y-137184511D01*
X144186888Y-137273536D01*
X144158948Y-137414000D01*
X144166000Y-137449453D01*
X144166001Y-141696542D01*
X144158948Y-141732000D01*
X144186888Y-141872464D01*
X144186889Y-141872465D01*
X144266456Y-141991545D01*
X144296511Y-142011628D01*
X147240000Y-144955117D01*
X147240001Y-156648858D01*
X147240000Y-156648863D01*
X147240000Y-156663090D01*
X147214811Y-156673524D01*
X147023524Y-156864811D01*
X146920000Y-157114740D01*
X146920000Y-157385260D01*
X147023524Y-157635189D01*
X147214811Y-157826476D01*
X147464740Y-157930000D01*
X147735260Y-157930000D01*
X147985189Y-157826476D01*
X148176476Y-157635189D01*
X148280000Y-157385260D01*
X148280000Y-157114740D01*
X148176476Y-156864811D01*
X147985189Y-156673524D01*
X147960000Y-156663090D01*
X147960000Y-144841447D01*
X147967051Y-144805999D01*
X147960000Y-144770551D01*
X147960000Y-144770547D01*
X147939112Y-144665535D01*
X147901126Y-144608687D01*
X147879627Y-144576510D01*
X147879625Y-144576508D01*
X147859544Y-144546455D01*
X147829491Y-144526374D01*
X144886000Y-141582884D01*
X144886000Y-138481665D01*
X144902813Y-138498478D01*
X145152742Y-138602002D01*
X145423262Y-138602002D01*
X145673191Y-138498478D01*
X145864478Y-138307191D01*
X145873634Y-138285086D01*
X145889140Y-138282002D01*
X145994152Y-138261114D01*
X146113232Y-138181547D01*
X146133317Y-138151488D01*
X152507501Y-131777305D01*
X152537557Y-131757222D01*
X152617124Y-131638142D01*
X152638012Y-131533130D01*
X152645064Y-131497677D01*
X152638012Y-131462224D01*
X152638012Y-120332333D01*
X152645064Y-120296880D01*
X152617124Y-120156415D01*
X152557639Y-120067390D01*
X152557637Y-120067388D01*
X152537556Y-120037335D01*
X152507503Y-120017254D01*
X148710000Y-116219752D01*
X148710000Y-102303000D01*
X148928515Y-102303000D01*
X148928515Y-104103000D01*
X148950246Y-104212250D01*
X149012132Y-104304868D01*
X149104750Y-104366754D01*
X149214000Y-104388485D01*
X150436294Y-104388485D01*
X149971713Y-104853066D01*
X149685500Y-105544045D01*
X149685500Y-106291955D01*
X149971713Y-106982934D01*
X150500566Y-107511787D01*
X151191545Y-107798000D01*
X151939455Y-107798000D01*
X152630434Y-107511787D01*
X153159287Y-106982934D01*
X153445500Y-106291955D01*
X153445500Y-105544045D01*
X153159287Y-104853066D01*
X152689221Y-104383000D01*
X152888717Y-104383000D01*
X153322417Y-104203356D01*
X153654356Y-103871417D01*
X153834000Y-103437717D01*
X153834000Y-102968283D01*
X153654356Y-102534583D01*
X153322417Y-102202644D01*
X152888717Y-102023000D01*
X152419283Y-102023000D01*
X151985583Y-102202644D01*
X151653644Y-102534583D01*
X151474000Y-102968283D01*
X151474000Y-103437717D01*
X151653644Y-103871417D01*
X151820227Y-104038000D01*
X151299485Y-104038000D01*
X151299485Y-102303000D01*
X151277754Y-102193750D01*
X151215868Y-102101132D01*
X151123250Y-102039246D01*
X151014000Y-102017515D01*
X149214000Y-102017515D01*
X149104750Y-102039246D01*
X149012132Y-102101132D01*
X148950246Y-102193750D01*
X148928515Y-102303000D01*
X148710000Y-102303000D01*
X148710000Y-101375518D01*
X150597489Y-99488030D01*
X150627545Y-99467947D01*
X150707112Y-99348867D01*
X150728000Y-99243855D01*
X150735052Y-99208402D01*
X150728000Y-99172949D01*
X150728000Y-95291453D01*
X150735052Y-95256000D01*
X150707112Y-95115535D01*
X150647627Y-95026510D01*
X150647625Y-95026508D01*
X150627544Y-94996455D01*
X150597491Y-94976374D01*
X150387629Y-94766513D01*
X150367545Y-94736455D01*
X150248465Y-94656888D01*
X150233485Y-94653908D01*
X150233485Y-94146000D01*
X150211754Y-94036750D01*
X150149868Y-93944132D01*
X150057250Y-93882246D01*
X149948000Y-93860515D01*
X148248000Y-93860515D01*
X148138750Y-93882246D01*
X148046132Y-93944132D01*
X147984246Y-94036750D01*
X147962515Y-94146000D01*
X147962515Y-95846000D01*
X147973787Y-95902671D01*
X147687628Y-95616512D01*
X147687626Y-95616509D01*
X147576608Y-95505492D01*
X147622437Y-95436904D01*
X147710138Y-94996000D01*
X147622437Y-94555096D01*
X147372685Y-94181315D01*
X146998904Y-93931563D01*
X146669296Y-93866000D01*
X146446704Y-93866000D01*
X146117096Y-93931563D01*
X145743315Y-94181315D01*
X145493563Y-94555096D01*
X145405862Y-94996000D01*
X145493563Y-95436904D01*
X145743315Y-95810685D01*
X146117096Y-96060437D01*
X146446704Y-96126000D01*
X146669296Y-96126000D01*
X146998904Y-96060437D01*
X147067492Y-96014608D01*
X147178509Y-96125626D01*
X147178512Y-96125628D01*
X147470265Y-96417382D01*
X147470265Y-96867354D01*
X147372685Y-96721315D01*
X146998904Y-96471563D01*
X146669296Y-96406000D01*
X146446704Y-96406000D01*
X146117096Y-96471563D01*
X145743315Y-96721315D01*
X145529998Y-97040567D01*
X145529998Y-96183446D01*
X145537049Y-96147997D01*
X145529998Y-96112546D01*
X145529998Y-96112545D01*
X145509110Y-96007533D01*
X145474175Y-95955250D01*
X145449625Y-95918508D01*
X145449623Y-95918506D01*
X145429542Y-95888453D01*
X145399489Y-95868372D01*
X145036608Y-95505492D01*
X145082437Y-95436904D01*
X145170138Y-94996000D01*
X145082437Y-94555096D01*
X144832685Y-94181315D01*
X144458904Y-93931563D01*
X144129296Y-93866000D01*
X143906704Y-93866000D01*
X143577096Y-93931563D01*
X143203315Y-94181315D01*
X142953563Y-94555096D01*
X142865862Y-94996000D01*
X142953563Y-95436904D01*
X143203315Y-95810685D01*
X143577096Y-96060437D01*
X143906704Y-96126000D01*
X144129296Y-96126000D01*
X144458904Y-96060437D01*
X144527492Y-96014608D01*
X144809998Y-96297115D01*
X144809998Y-96706156D01*
X144458904Y-96471563D01*
X144129296Y-96406000D01*
X143906704Y-96406000D01*
X143577096Y-96471563D01*
X143203315Y-96721315D01*
X143110000Y-96860971D01*
X143110000Y-96303453D01*
X143117052Y-96268000D01*
X143089112Y-96127535D01*
X143029627Y-96038510D01*
X143029625Y-96038508D01*
X143009544Y-96008455D01*
X142979491Y-95988374D01*
X142496608Y-95505492D01*
X142542437Y-95436904D01*
X142630138Y-94996000D01*
X142542437Y-94555096D01*
X142292685Y-94181315D01*
X141918904Y-93931563D01*
X141589296Y-93866000D01*
X141366704Y-93866000D01*
X141037096Y-93931563D01*
X140663315Y-94181315D01*
X140413563Y-94555096D01*
X140325862Y-94996000D01*
X140413563Y-95436904D01*
X140663315Y-95810685D01*
X141037096Y-96060437D01*
X141366704Y-96126000D01*
X141589296Y-96126000D01*
X141918904Y-96060437D01*
X141987492Y-96014608D01*
X142390000Y-96417117D01*
X142390000Y-96866958D01*
X142292685Y-96721315D01*
X141918904Y-96471563D01*
X141589296Y-96406000D01*
X141366704Y-96406000D01*
X141037096Y-96471563D01*
X140663315Y-96721315D01*
X140413563Y-97095096D01*
X140325862Y-97536000D01*
X140413563Y-97976904D01*
X140663315Y-98350685D01*
X141037096Y-98600437D01*
X141118000Y-98616530D01*
X141118000Y-98773533D01*
X141118001Y-98773538D01*
X141118000Y-103224355D01*
X140568000Y-103774355D01*
X140568000Y-98841447D01*
X140575051Y-98805999D01*
X140568000Y-98770551D01*
X140568000Y-98770547D01*
X140547112Y-98665535D01*
X140501729Y-98597616D01*
X140487627Y-98576510D01*
X140487625Y-98576508D01*
X140467544Y-98546455D01*
X140437491Y-98526374D01*
X139956608Y-98045492D01*
X140002437Y-97976904D01*
X140090138Y-97536000D01*
X140002437Y-97095096D01*
X139752685Y-96721315D01*
X139378904Y-96471563D01*
X139049296Y-96406000D01*
X138826704Y-96406000D01*
X138497096Y-96471563D01*
X138123315Y-96721315D01*
X138010000Y-96890903D01*
X138010000Y-96433116D01*
X138428508Y-96014608D01*
X138497096Y-96060437D01*
X138826704Y-96126000D01*
X139049296Y-96126000D01*
X139378904Y-96060437D01*
X139752685Y-95810685D01*
X140002437Y-95436904D01*
X140090138Y-94996000D01*
X140002437Y-94555096D01*
X139752685Y-94181315D01*
X139378904Y-93931563D01*
X139049296Y-93866000D01*
X138826704Y-93866000D01*
X138497096Y-93931563D01*
X138123315Y-94181315D01*
X137873563Y-94555096D01*
X137785862Y-94996000D01*
X137873563Y-95436904D01*
X137919392Y-95505492D01*
X137420511Y-96004373D01*
X137390455Y-96024456D01*
X137331596Y-96112545D01*
X137310888Y-96143536D01*
X137282948Y-96284000D01*
X137290000Y-96319453D01*
X137290000Y-96941381D01*
X137224560Y-96825411D01*
X136889711Y-96563191D01*
X136738185Y-96500445D01*
X136572000Y-96520803D01*
X136572000Y-97362000D01*
X136592000Y-97362000D01*
X136592000Y-97710000D01*
X136572000Y-97710000D01*
X136572000Y-98551197D01*
X136738185Y-98571555D01*
X136889711Y-98508809D01*
X137224560Y-98246589D01*
X137290001Y-98130618D01*
X137290001Y-98392531D01*
X137282948Y-98427989D01*
X137310888Y-98568453D01*
X137310889Y-98568454D01*
X137390456Y-98687534D01*
X137420511Y-98707616D01*
X138684011Y-99971117D01*
X138684012Y-104368859D01*
X137414501Y-105638371D01*
X137414498Y-105638373D01*
X135740884Y-107311988D01*
X132808633Y-107311988D01*
X132907555Y-107213066D01*
X133011079Y-106963137D01*
X133011079Y-106692617D01*
X132907555Y-106442688D01*
X132716268Y-106251401D01*
X132691079Y-106240967D01*
X132691079Y-104718740D01*
X133012000Y-104718740D01*
X133012000Y-104989260D01*
X133115524Y-105239189D01*
X133306811Y-105430476D01*
X133556740Y-105534000D01*
X133827260Y-105534000D01*
X134077189Y-105430476D01*
X134268476Y-105239189D01*
X134278910Y-105214000D01*
X134700871Y-105214000D01*
X135220442Y-105733572D01*
X135210008Y-105758761D01*
X135210008Y-106029281D01*
X135313532Y-106279210D01*
X135504819Y-106470497D01*
X135754748Y-106574021D01*
X136025268Y-106574021D01*
X136275197Y-106470497D01*
X136466484Y-106279210D01*
X136570008Y-106029281D01*
X136570008Y-105758761D01*
X136466484Y-105508832D01*
X136275197Y-105317545D01*
X136025268Y-105214021D01*
X135754748Y-105214021D01*
X135729559Y-105224455D01*
X135129616Y-104624513D01*
X135109532Y-104594455D01*
X134990452Y-104514888D01*
X134885440Y-104494000D01*
X134849987Y-104486948D01*
X134814534Y-104494000D01*
X134278910Y-104494000D01*
X134268476Y-104468811D01*
X134077189Y-104277524D01*
X133827260Y-104174000D01*
X133556740Y-104174000D01*
X133306811Y-104277524D01*
X133115524Y-104468811D01*
X133012000Y-104718740D01*
X132691079Y-104718740D01*
X132691079Y-104224037D01*
X133921489Y-102993628D01*
X133951545Y-102973545D01*
X134031112Y-102854465D01*
X134052000Y-102749453D01*
X134059052Y-102714000D01*
X134052000Y-102678547D01*
X134052000Y-102440910D01*
X134077189Y-102430476D01*
X134268476Y-102239189D01*
X134372000Y-101989260D01*
X134372000Y-101718740D01*
X134268476Y-101468811D01*
X134077189Y-101277524D01*
X133827260Y-101174000D01*
X133556740Y-101174000D01*
X133306811Y-101277524D01*
X133115524Y-101468811D01*
X133012000Y-101718740D01*
X133012000Y-101989260D01*
X133115524Y-102239189D01*
X133306811Y-102430476D01*
X133332001Y-102440910D01*
X133332001Y-102564882D01*
X132101590Y-103795294D01*
X132071534Y-103815377D01*
X132034089Y-103871417D01*
X131991967Y-103934457D01*
X131964027Y-104074921D01*
X131971079Y-104110374D01*
X131971080Y-106226735D01*
X131971079Y-106226740D01*
X131971079Y-106240967D01*
X131945890Y-106251401D01*
X131754603Y-106442688D01*
X131651079Y-106692617D01*
X131651079Y-106963137D01*
X131754603Y-107213066D01*
X131853525Y-107311988D01*
X130618856Y-107311988D01*
X130618856Y-107204000D01*
X130591692Y-107067437D01*
X130514335Y-106951665D01*
X130398563Y-106874308D01*
X130262000Y-106847144D01*
X125262000Y-106847144D01*
X125125437Y-106874308D01*
X125009665Y-106951665D01*
X124946010Y-107046931D01*
X124946010Y-105687106D01*
X129689117Y-100944000D01*
X134978884Y-100944000D01*
X136998434Y-102963551D01*
X136988000Y-102988740D01*
X136988000Y-103259260D01*
X137091524Y-103509189D01*
X137282811Y-103700476D01*
X137532740Y-103804000D01*
X137803260Y-103804000D01*
X138053189Y-103700476D01*
X138244476Y-103509189D01*
X138348000Y-103259260D01*
X138348000Y-102988740D01*
X138244476Y-102738811D01*
X138053189Y-102547524D01*
X137803260Y-102444000D01*
X137532740Y-102444000D01*
X137507551Y-102454434D01*
X135407630Y-100354514D01*
X135387545Y-100324455D01*
X135268465Y-100244888D01*
X135163453Y-100224000D01*
X135128000Y-100216948D01*
X135092547Y-100224000D01*
X129575453Y-100224000D01*
X129540000Y-100216948D01*
X129504547Y-100224000D01*
X129399535Y-100244888D01*
X129280455Y-100324455D01*
X129260372Y-100354511D01*
X124546000Y-105068884D01*
X124546000Y-97490357D01*
X125065799Y-98745262D01*
X126044738Y-99724201D01*
X127323785Y-100254000D01*
X128708215Y-100254000D01*
X129987262Y-99724201D01*
X130966201Y-98745262D01*
X131467094Y-97536000D01*
X132705862Y-97536000D01*
X132793563Y-97976904D01*
X133043315Y-98350685D01*
X133417096Y-98600437D01*
X133746704Y-98666000D01*
X133969296Y-98666000D01*
X134298904Y-98600437D01*
X134672685Y-98350685D01*
X134922437Y-97976904D01*
X134942470Y-97876188D01*
X135362427Y-97876188D01*
X135571440Y-98246589D01*
X135906289Y-98508809D01*
X136057815Y-98571555D01*
X136224000Y-98551197D01*
X136224000Y-97710000D01*
X135381960Y-97710000D01*
X135362427Y-97876188D01*
X134942470Y-97876188D01*
X135010138Y-97536000D01*
X134942471Y-97195812D01*
X135362427Y-97195812D01*
X135381960Y-97362000D01*
X136224000Y-97362000D01*
X136224000Y-96520803D01*
X136057815Y-96500445D01*
X135906289Y-96563191D01*
X135571440Y-96825411D01*
X135362427Y-97195812D01*
X134942471Y-97195812D01*
X134922437Y-97095096D01*
X134672685Y-96721315D01*
X134298904Y-96471563D01*
X133969296Y-96406000D01*
X133746704Y-96406000D01*
X133417096Y-96471563D01*
X133043315Y-96721315D01*
X132793563Y-97095096D01*
X132705862Y-97536000D01*
X131467094Y-97536000D01*
X131496000Y-97466215D01*
X131496000Y-96081785D01*
X131046253Y-94996000D01*
X132705862Y-94996000D01*
X132793563Y-95436904D01*
X133043315Y-95810685D01*
X133417096Y-96060437D01*
X133746704Y-96126000D01*
X133969296Y-96126000D01*
X134298904Y-96060437D01*
X134672685Y-95810685D01*
X134922437Y-95436904D01*
X134942470Y-95336188D01*
X135362427Y-95336188D01*
X135571440Y-95706589D01*
X135906289Y-95968809D01*
X136057815Y-96031555D01*
X136224000Y-96011197D01*
X136224000Y-95170000D01*
X136572000Y-95170000D01*
X136572000Y-96011197D01*
X136738185Y-96031555D01*
X136889711Y-95968809D01*
X137224560Y-95706589D01*
X137433573Y-95336188D01*
X137414040Y-95170000D01*
X136572000Y-95170000D01*
X136224000Y-95170000D01*
X135381960Y-95170000D01*
X135362427Y-95336188D01*
X134942470Y-95336188D01*
X135010138Y-94996000D01*
X134942471Y-94655812D01*
X135362427Y-94655812D01*
X135381960Y-94822000D01*
X136224000Y-94822000D01*
X136224000Y-93980803D01*
X136572000Y-93980803D01*
X136572000Y-94822000D01*
X137414040Y-94822000D01*
X137433573Y-94655812D01*
X137224560Y-94285411D01*
X136889711Y-94023191D01*
X136738185Y-93960445D01*
X136572000Y-93980803D01*
X136224000Y-93980803D01*
X136057815Y-93960445D01*
X135906289Y-94023191D01*
X135571440Y-94285411D01*
X135362427Y-94655812D01*
X134942471Y-94655812D01*
X134922437Y-94555096D01*
X134672685Y-94181315D01*
X134298904Y-93931563D01*
X133969296Y-93866000D01*
X133746704Y-93866000D01*
X133417096Y-93931563D01*
X133043315Y-94181315D01*
X132793563Y-94555096D01*
X132705862Y-94996000D01*
X131046253Y-94996000D01*
X130966201Y-94802738D01*
X129987262Y-93823799D01*
X128732357Y-93304000D01*
X153969643Y-93304000D01*
X152714738Y-93823799D01*
X152714738Y-93823799D01*
G37*
X152714738Y-93823799D02*
X151735799Y-94802738D01*
X151206000Y-96081785D01*
X151206000Y-97466215D01*
X151735799Y-98745262D01*
X152714738Y-99724201D01*
X153993785Y-100254000D01*
X155378215Y-100254000D01*
X156657262Y-99724201D01*
X157636201Y-98745262D01*
X158156001Y-97490355D01*
X158156000Y-165907643D01*
X157636201Y-164652738D01*
X156657262Y-163673799D01*
X155378215Y-163144000D01*
X153993785Y-163144000D01*
X152714738Y-163673799D01*
X151735799Y-164652738D01*
X151206000Y-165931785D01*
X151206000Y-167316215D01*
X151735799Y-168595262D01*
X152714738Y-169574201D01*
X153969643Y-170094000D01*
X128732357Y-170094000D01*
X129987262Y-169574201D01*
X130966201Y-168595262D01*
X131496000Y-167316215D01*
X131496000Y-165931785D01*
X131025291Y-164795392D01*
X136720000Y-164795392D01*
X136720000Y-165304608D01*
X136914868Y-165775062D01*
X137274938Y-166135132D01*
X137745392Y-166330000D01*
X138254608Y-166330000D01*
X138725062Y-166135132D01*
X139085132Y-165775062D01*
X139280000Y-165304608D01*
X139280000Y-164795392D01*
X143220000Y-164795392D01*
X143220000Y-165304608D01*
X143414868Y-165775062D01*
X143774938Y-166135132D01*
X144245392Y-166330000D01*
X144754608Y-166330000D01*
X145225062Y-166135132D01*
X145585132Y-165775062D01*
X145780000Y-165304608D01*
X145780000Y-164795392D01*
X145585132Y-164324938D01*
X145225062Y-163964868D01*
X144754608Y-163770000D01*
X144245392Y-163770000D01*
X143774938Y-163964868D01*
X143414868Y-164324938D01*
X143220000Y-164795392D01*
X139280000Y-164795392D01*
X139085132Y-164324938D01*
X138725062Y-163964868D01*
X138254608Y-163770000D01*
X137745392Y-163770000D01*
X137274938Y-163964868D01*
X136914868Y-164324938D01*
X136720000Y-164795392D01*
X131025291Y-164795392D01*
X130966201Y-164652738D01*
X129987262Y-163673799D01*
X128708215Y-163144000D01*
X127323785Y-163144000D01*
X126044738Y-163673799D01*
X125065799Y-164652738D01*
X124546000Y-165907643D01*
X124546000Y-160295392D01*
X136720000Y-160295392D01*
X136720000Y-160804608D01*
X136914868Y-161275062D01*
X137274938Y-161635132D01*
X137745392Y-161830000D01*
X138254608Y-161830000D01*
X138725062Y-161635132D01*
X139085132Y-161275062D01*
X139280000Y-160804608D01*
X139280000Y-160295392D01*
X139085132Y-159824938D01*
X138725062Y-159464868D01*
X138254608Y-159270000D01*
X137745392Y-159270000D01*
X137274938Y-159464868D01*
X136914868Y-159824938D01*
X136720000Y-160295392D01*
X124546000Y-160295392D01*
X124546000Y-116268400D01*
X124549241Y-116284693D01*
X124570129Y-116389705D01*
X124649696Y-116508785D01*
X124679752Y-116528868D01*
X124905144Y-116754260D01*
X124905144Y-118602000D01*
X124932308Y-118738563D01*
X125009665Y-118854335D01*
X125036102Y-118872000D01*
X125009665Y-118889665D01*
X124932308Y-119005437D01*
X124905144Y-119142000D01*
X124905144Y-121142000D01*
X124932308Y-121278563D01*
X125009665Y-121394335D01*
X125036102Y-121412000D01*
X125009665Y-121429665D01*
X124932308Y-121545437D01*
X124905144Y-121682000D01*
X124905144Y-123682000D01*
X124932308Y-123818563D01*
X125009665Y-123934335D01*
X125125437Y-124011692D01*
X125262000Y-124038856D01*
X126150028Y-124038856D01*
X124928480Y-125260403D01*
X124898425Y-125280486D01*
X124878342Y-125310542D01*
X124818857Y-125399567D01*
X124790917Y-125540031D01*
X124797970Y-125575489D01*
X124797969Y-143917384D01*
X124790917Y-143952837D01*
X124813648Y-144067112D01*
X124818857Y-144093301D01*
X124898424Y-144212381D01*
X124928480Y-144232464D01*
X133616015Y-152920000D01*
X133514740Y-152920000D01*
X133264811Y-153023524D01*
X133073524Y-153214811D01*
X132970000Y-153464740D01*
X132970000Y-153735260D01*
X133073524Y-153985189D01*
X133264811Y-154176476D01*
X133514740Y-154280000D01*
X133785260Y-154280000D01*
X133810449Y-154269566D01*
X133820509Y-154279626D01*
X133820512Y-154279628D01*
X138820372Y-159279489D01*
X138840455Y-159309545D01*
X138870510Y-159329627D01*
X138959535Y-159389112D01*
X139100000Y-159417052D01*
X139135453Y-159410000D01*
X143907401Y-159410000D01*
X143774938Y-159464868D01*
X143414868Y-159824938D01*
X143220000Y-160295392D01*
X143220000Y-160804608D01*
X143414868Y-161275062D01*
X143774938Y-161635132D01*
X144245392Y-161830000D01*
X144754608Y-161830000D01*
X145225062Y-161635132D01*
X145585132Y-161275062D01*
X145780000Y-160804608D01*
X145780000Y-160295392D01*
X145585132Y-159824938D01*
X145225062Y-159464868D01*
X145092599Y-159410000D01*
X148914547Y-159410000D01*
X148950000Y-159417052D01*
X148985453Y-159410000D01*
X149090465Y-159389112D01*
X149209545Y-159309545D01*
X149229630Y-159279486D01*
X154661489Y-153847628D01*
X154691545Y-153827545D01*
X154771112Y-153708465D01*
X154792000Y-153603453D01*
X154799052Y-153568000D01*
X154792000Y-153532547D01*
X154792000Y-110060910D01*
X154817189Y-110050476D01*
X155008476Y-109859189D01*
X155112000Y-109609260D01*
X155112000Y-109338740D01*
X155008476Y-109088811D01*
X154817189Y-108897524D01*
X154567260Y-108794000D01*
X154296740Y-108794000D01*
X154046811Y-108897524D01*
X153855524Y-109088811D01*
X153752000Y-109338740D01*
X153752000Y-109609260D01*
X153855524Y-109859189D01*
X154046811Y-110050476D01*
X154072000Y-110060910D01*
X154072001Y-153418882D01*
X153510000Y-153980883D01*
X153510000Y-110586910D01*
X153535189Y-110576476D01*
X153726476Y-110385189D01*
X153830000Y-110135260D01*
X153830000Y-109864740D01*
X153726476Y-109614811D01*
X153535189Y-109423524D01*
X153285260Y-109320000D01*
X153014740Y-109320000D01*
X152764811Y-109423524D01*
X152573524Y-109614811D01*
X152470000Y-109864740D01*
X152470000Y-110135260D01*
X152573524Y-110385189D01*
X152764811Y-110576476D01*
X152790000Y-110586910D01*
X152790001Y-154191750D01*
X148841752Y-158140000D01*
X139854249Y-158140000D01*
X127808844Y-146094596D01*
X127993595Y-146018070D01*
X128109665Y-145902000D01*
X129461090Y-145902000D01*
X129471524Y-145927189D01*
X129662811Y-146118476D01*
X129912740Y-146222000D01*
X130183260Y-146222000D01*
X130433189Y-146118476D01*
X130624476Y-145927189D01*
X130634910Y-145902000D01*
X132001090Y-145902000D01*
X132011524Y-145927189D01*
X132202811Y-146118476D01*
X132452740Y-146222000D01*
X132723260Y-146222000D01*
X132973189Y-146118476D01*
X133164476Y-145927189D01*
X133174910Y-145902000D01*
X134541090Y-145902000D01*
X134551524Y-145927189D01*
X134742811Y-146118476D01*
X134992740Y-146222000D01*
X135263260Y-146222000D01*
X135513189Y-146118476D01*
X135704476Y-145927189D01*
X135714910Y-145902000D01*
X137081090Y-145902000D01*
X137091524Y-145927189D01*
X137282811Y-146118476D01*
X137532740Y-146222000D01*
X137803260Y-146222000D01*
X138053189Y-146118476D01*
X138244476Y-145927189D01*
X138254910Y-145902000D01*
X139621090Y-145902000D01*
X139631524Y-145927189D01*
X139822811Y-146118476D01*
X140072740Y-146222000D01*
X140343260Y-146222000D01*
X140593189Y-146118476D01*
X140784476Y-145927189D01*
X140794910Y-145902000D01*
X142161090Y-145902000D01*
X142171524Y-145927189D01*
X142362811Y-146118476D01*
X142612740Y-146222000D01*
X142883260Y-146222000D01*
X143133189Y-146118476D01*
X143324476Y-145927189D01*
X143334910Y-145902000D01*
X144701090Y-145902000D01*
X144711524Y-145927189D01*
X144902811Y-146118476D01*
X145152740Y-146222000D01*
X145423260Y-146222000D01*
X145673189Y-146118476D01*
X145864476Y-145927189D01*
X145968000Y-145677260D01*
X145968000Y-145406740D01*
X145864476Y-145156811D01*
X145673189Y-144965524D01*
X145423260Y-144862000D01*
X145152740Y-144862000D01*
X144902811Y-144965524D01*
X144711524Y-145156811D01*
X144701090Y-145182000D01*
X143334910Y-145182000D01*
X143324476Y-145156811D01*
X143133189Y-144965524D01*
X142883260Y-144862000D01*
X142612740Y-144862000D01*
X142362811Y-144965524D01*
X142171524Y-145156811D01*
X142161090Y-145182000D01*
X140794910Y-145182000D01*
X140784476Y-145156811D01*
X140593189Y-144965524D01*
X140343260Y-144862000D01*
X140072740Y-144862000D01*
X139822811Y-144965524D01*
X139631524Y-145156811D01*
X139621090Y-145182000D01*
X138254910Y-145182000D01*
X138244476Y-145156811D01*
X138053189Y-144965524D01*
X137803260Y-144862000D01*
X137532740Y-144862000D01*
X137282811Y-144965524D01*
X137091524Y-145156811D01*
X137081090Y-145182000D01*
X135714910Y-145182000D01*
X135704476Y-145156811D01*
X135513189Y-144965524D01*
X135488000Y-144955090D01*
X135488000Y-143763453D01*
X135495052Y-143728000D01*
X135467112Y-143587535D01*
X135407627Y-143498510D01*
X135387545Y-143468455D01*
X135357489Y-143448372D01*
X130617630Y-138708514D01*
X130597545Y-138678455D01*
X130478465Y-138598888D01*
X130373453Y-138578000D01*
X130338000Y-138570948D01*
X130302547Y-138578000D01*
X130197117Y-138578000D01*
X126745989Y-135126873D01*
X126745989Y-133976740D01*
X126828000Y-133976740D01*
X126828000Y-134247260D01*
X126931524Y-134497189D01*
X127122811Y-134688476D01*
X127372740Y-134792000D01*
X127643260Y-134792000D01*
X127893189Y-134688476D01*
X128084476Y-134497189D01*
X128094910Y-134472000D01*
X129461090Y-134472000D01*
X129471524Y-134497189D01*
X129662811Y-134688476D01*
X129912740Y-134792000D01*
X130183260Y-134792000D01*
X130433189Y-134688476D01*
X130624476Y-134497189D01*
X130634910Y-134472000D01*
X132001090Y-134472000D01*
X132011524Y-134497189D01*
X132202811Y-134688476D01*
X132452740Y-134792000D01*
X132723260Y-134792000D01*
X132973189Y-134688476D01*
X133164476Y-134497189D01*
X133174910Y-134472000D01*
X134541090Y-134472000D01*
X134551524Y-134497189D01*
X134742811Y-134688476D01*
X134992740Y-134792000D01*
X135263260Y-134792000D01*
X135513189Y-134688476D01*
X135704476Y-134497189D01*
X135714910Y-134472000D01*
X137081090Y-134472000D01*
X137091524Y-134497189D01*
X137282811Y-134688476D01*
X137532740Y-134792000D01*
X137803260Y-134792000D01*
X138053189Y-134688476D01*
X138244476Y-134497189D01*
X138254910Y-134472000D01*
X139713090Y-134472000D01*
X139723524Y-134497189D01*
X139914811Y-134688476D01*
X140164740Y-134792000D01*
X140435260Y-134792000D01*
X140685189Y-134688476D01*
X140876476Y-134497189D01*
X140886910Y-134472000D01*
X142161090Y-134472000D01*
X142171524Y-134497189D01*
X142362811Y-134688476D01*
X142612740Y-134792000D01*
X142883260Y-134792000D01*
X143133189Y-134688476D01*
X143324476Y-134497189D01*
X143334910Y-134472000D01*
X144701090Y-134472000D01*
X144711524Y-134497189D01*
X144902811Y-134688476D01*
X145152740Y-134792000D01*
X145423260Y-134792000D01*
X145673189Y-134688476D01*
X145864476Y-134497189D01*
X145968000Y-134247260D01*
X145968000Y-133976740D01*
X145864476Y-133726811D01*
X145673189Y-133535524D01*
X145423260Y-133432000D01*
X145152740Y-133432000D01*
X144902811Y-133535524D01*
X144711524Y-133726811D01*
X144701090Y-133752000D01*
X143334910Y-133752000D01*
X143324476Y-133726811D01*
X143133189Y-133535524D01*
X142883260Y-133432000D01*
X142612740Y-133432000D01*
X142362811Y-133535524D01*
X142171524Y-133726811D01*
X142161090Y-133752000D01*
X140886910Y-133752000D01*
X140876476Y-133726811D01*
X140685189Y-133535524D01*
X140435260Y-133432000D01*
X140164740Y-133432000D01*
X139914811Y-133535524D01*
X139723524Y-133726811D01*
X139713090Y-133752000D01*
X138254910Y-133752000D01*
X138244476Y-133726811D01*
X138053189Y-133535524D01*
X137803260Y-133432000D01*
X137532740Y-133432000D01*
X137282811Y-133535524D01*
X137091524Y-133726811D01*
X137081090Y-133752000D01*
X135714910Y-133752000D01*
X135704476Y-133726811D01*
X135513189Y-133535524D01*
X135263260Y-133432000D01*
X134992740Y-133432000D01*
X134742811Y-133535524D01*
X134551524Y-133726811D01*
X134541090Y-133752000D01*
X133174910Y-133752000D01*
X133164476Y-133726811D01*
X132973189Y-133535524D01*
X132723260Y-133432000D01*
X132452740Y-133432000D01*
X132202811Y-133535524D01*
X132011524Y-133726811D01*
X132001090Y-133752000D01*
X130634910Y-133752000D01*
X130624476Y-133726811D01*
X130433189Y-133535524D01*
X130183260Y-133432000D01*
X129912740Y-133432000D01*
X129662811Y-133535524D01*
X129471524Y-133726811D01*
X129461090Y-133752000D01*
X128094910Y-133752000D01*
X128084476Y-133726811D01*
X127893189Y-133535524D01*
X127643260Y-133432000D01*
X127372740Y-133432000D01*
X127122811Y-133535524D01*
X126931524Y-133726811D01*
X126828000Y-133976740D01*
X126745989Y-133976740D01*
X126745989Y-131944740D01*
X128860000Y-131944740D01*
X128860000Y-132215260D01*
X128963524Y-132465189D01*
X129154811Y-132656476D01*
X129404740Y-132760000D01*
X129675260Y-132760000D01*
X129925189Y-132656476D01*
X130116476Y-132465189D01*
X130126910Y-132440000D01*
X144434547Y-132440000D01*
X144470000Y-132447052D01*
X144505453Y-132440000D01*
X144610465Y-132419112D01*
X144729545Y-132339545D01*
X144749630Y-132309486D01*
X147639551Y-129419566D01*
X147664740Y-129430000D01*
X147935260Y-129430000D01*
X148185189Y-129326476D01*
X148376476Y-129135189D01*
X148480000Y-128885260D01*
X148480000Y-128614740D01*
X148376476Y-128364811D01*
X148185189Y-128173524D01*
X147935260Y-128070000D01*
X147664740Y-128070000D01*
X147414811Y-128173524D01*
X147223524Y-128364811D01*
X147120000Y-128614740D01*
X147120000Y-128885260D01*
X147130434Y-128910449D01*
X144320884Y-131720000D01*
X130126910Y-131720000D01*
X130116476Y-131694811D01*
X129925189Y-131503524D01*
X129675260Y-131400000D01*
X129404740Y-131400000D01*
X129154811Y-131503524D01*
X128963524Y-131694811D01*
X128860000Y-131944740D01*
X126745989Y-131944740D01*
X126745989Y-125983995D01*
X127803975Y-124926010D01*
X130415669Y-124926010D01*
X130451122Y-124933062D01*
X130486575Y-124926010D01*
X130591587Y-124905122D01*
X130710667Y-124825555D01*
X130730752Y-124795497D01*
X132688314Y-122837935D01*
X132718367Y-122817854D01*
X132738448Y-122787801D01*
X132738450Y-122787799D01*
X132797935Y-122698774D01*
X132825875Y-122558309D01*
X132818823Y-122522856D01*
X132818823Y-116880036D01*
X132829488Y-116869371D01*
X132859544Y-116849288D01*
X132939112Y-116730208D01*
X132960000Y-116625196D01*
X132960000Y-116625192D01*
X132967051Y-116589744D01*
X132960000Y-116554296D01*
X132960000Y-111001138D01*
X132967052Y-110965685D01*
X132955260Y-110906405D01*
X133126476Y-110735189D01*
X133230000Y-110485260D01*
X133230000Y-110214740D01*
X133126476Y-109964811D01*
X132935189Y-109773524D01*
X132685260Y-109670000D01*
X132414740Y-109670000D01*
X132164811Y-109773524D01*
X131973524Y-109964811D01*
X131870000Y-110214740D01*
X131870000Y-110485260D01*
X131973524Y-110735189D01*
X132164811Y-110926476D01*
X132186916Y-110935632D01*
X132203582Y-111019418D01*
X132210888Y-111056149D01*
X132240001Y-111099719D01*
X132240001Y-112170839D01*
X132219122Y-112065873D01*
X132181136Y-112009025D01*
X132159637Y-111976848D01*
X132159635Y-111976846D01*
X132139554Y-111946793D01*
X132109501Y-111926712D01*
X130697301Y-110514513D01*
X130677217Y-110484455D01*
X130618856Y-110445459D01*
X130618856Y-109744000D01*
X130591692Y-109607437D01*
X130514335Y-109491665D01*
X130487898Y-109474000D01*
X130514335Y-109456335D01*
X130591692Y-109340563D01*
X130618856Y-109204000D01*
X130618856Y-108031988D01*
X131056314Y-108031988D01*
X130953534Y-108134768D01*
X130850010Y-108384697D01*
X130850010Y-108655217D01*
X130953534Y-108905146D01*
X131144821Y-109096433D01*
X131394750Y-109199957D01*
X131665270Y-109199957D01*
X131915199Y-109096433D01*
X132106486Y-108905146D01*
X132166607Y-108760000D01*
X134603031Y-108760000D01*
X134633514Y-108833593D01*
X134824801Y-109024880D01*
X135074730Y-109128404D01*
X135218479Y-109128404D01*
X134568597Y-109778287D01*
X134520456Y-109810454D01*
X134500373Y-109840510D01*
X134326678Y-110014205D01*
X134314707Y-110022204D01*
X134306708Y-110034175D01*
X133302956Y-111037928D01*
X133272901Y-111058010D01*
X133252818Y-111088066D01*
X133193333Y-111177091D01*
X133165393Y-111317555D01*
X133172446Y-111353013D01*
X133172445Y-116946316D01*
X132972522Y-117146240D01*
X132942467Y-117166322D01*
X132922384Y-117196378D01*
X132862899Y-117285403D01*
X132834959Y-117425867D01*
X132842012Y-117461325D01*
X132842011Y-122932608D01*
X130552609Y-125222011D01*
X129413442Y-125222011D01*
X129377989Y-125214959D01*
X129342536Y-125222011D01*
X129237524Y-125242899D01*
X129118444Y-125322466D01*
X129098361Y-125352522D01*
X128318884Y-126132000D01*
X128094910Y-126132000D01*
X128084476Y-126106811D01*
X127893189Y-125915524D01*
X127643260Y-125812000D01*
X127372740Y-125812000D01*
X127122811Y-125915524D01*
X126931524Y-126106811D01*
X126828000Y-126356740D01*
X126828000Y-126627260D01*
X126931524Y-126877189D01*
X127122811Y-127068476D01*
X127372740Y-127172000D01*
X127643260Y-127172000D01*
X127893189Y-127068476D01*
X128084476Y-126877189D01*
X128094910Y-126852000D01*
X128432547Y-126852000D01*
X128468000Y-126859052D01*
X128503453Y-126852000D01*
X128608465Y-126831112D01*
X128727545Y-126751545D01*
X128747629Y-126721487D01*
X129527106Y-125942011D01*
X130542553Y-125942011D01*
X130461691Y-126022873D01*
X130436501Y-126012439D01*
X130165981Y-126012439D01*
X129916052Y-126115963D01*
X129724765Y-126307250D01*
X129621241Y-126557179D01*
X129621241Y-126827699D01*
X129724765Y-127077628D01*
X129916052Y-127268915D01*
X130165981Y-127372439D01*
X130436501Y-127372439D01*
X130686430Y-127268915D01*
X130877717Y-127077628D01*
X130981241Y-126827699D01*
X130981241Y-126557179D01*
X130970807Y-126531989D01*
X131466001Y-126036795D01*
X131466000Y-126596883D01*
X130208450Y-127854434D01*
X130183260Y-127844000D01*
X129912740Y-127844000D01*
X129662811Y-127947524D01*
X129471524Y-128138811D01*
X129368000Y-128388740D01*
X129368000Y-128659260D01*
X129471524Y-128909189D01*
X129662811Y-129100476D01*
X129912740Y-129204000D01*
X130183260Y-129204000D01*
X130433189Y-129100476D01*
X130624476Y-128909189D01*
X130728000Y-128659260D01*
X130728000Y-128388740D01*
X130717566Y-128363550D01*
X131993483Y-127087634D01*
X132011524Y-127131189D01*
X132202811Y-127322476D01*
X132452740Y-127426000D01*
X132723260Y-127426000D01*
X132973189Y-127322476D01*
X133164476Y-127131189D01*
X133174910Y-127106000D01*
X133805065Y-127106000D01*
X133840518Y-127113052D01*
X133875971Y-127106000D01*
X133980983Y-127085112D01*
X134100063Y-127005545D01*
X134120148Y-126975486D01*
X134453967Y-126641667D01*
X134551524Y-126877189D01*
X134742811Y-127068476D01*
X134992740Y-127172000D01*
X135263260Y-127172000D01*
X135513189Y-127068476D01*
X135704476Y-126877189D01*
X135808000Y-126627260D01*
X135808000Y-126401116D01*
X137410023Y-124799094D01*
X137410023Y-125862831D01*
X137282811Y-125915524D01*
X137091524Y-126106811D01*
X136988000Y-126356740D01*
X136988000Y-126627260D01*
X137091524Y-126877189D01*
X137282811Y-127068476D01*
X137532740Y-127172000D01*
X137803260Y-127172000D01*
X138053189Y-127068476D01*
X138244476Y-126877189D01*
X138348000Y-126627260D01*
X138348000Y-126356740D01*
X138244476Y-126106811D01*
X138130022Y-125992357D01*
X138130022Y-116938148D01*
X139848001Y-118656130D01*
X139848000Y-125905090D01*
X139822811Y-125915524D01*
X139631524Y-126106811D01*
X139528000Y-126356740D01*
X139528000Y-126627260D01*
X139631524Y-126877189D01*
X139822811Y-127068476D01*
X140072740Y-127172000D01*
X140343260Y-127172000D01*
X140593189Y-127068476D01*
X140784476Y-126877189D01*
X140888000Y-126627260D01*
X140888000Y-126356740D01*
X140784476Y-126106811D01*
X140593189Y-125915524D01*
X140568000Y-125905090D01*
X140568000Y-118866996D01*
X142119968Y-120418965D01*
X142119967Y-125228514D01*
X142112915Y-125263967D01*
X142138290Y-125391535D01*
X142140855Y-125404431D01*
X142220422Y-125523511D01*
X142250478Y-125543594D01*
X142388001Y-125681117D01*
X142388001Y-125905090D01*
X142362811Y-125915524D01*
X142171524Y-126106811D01*
X142068000Y-126356740D01*
X142068000Y-126627260D01*
X142171524Y-126877189D01*
X142362811Y-127068476D01*
X142612740Y-127172000D01*
X142883260Y-127172000D01*
X143133189Y-127068476D01*
X143324476Y-126877189D01*
X143428000Y-126627260D01*
X143428000Y-126356740D01*
X143324476Y-126106811D01*
X143133189Y-125915524D01*
X143108000Y-125905090D01*
X143108000Y-125567453D01*
X143115052Y-125532000D01*
X143087112Y-125391535D01*
X143027627Y-125302510D01*
X143007545Y-125272455D01*
X142977489Y-125252372D01*
X142839967Y-125114851D01*
X142839967Y-123041909D01*
X143035763Y-123123010D01*
X143306283Y-123123010D01*
X143556212Y-123019486D01*
X143715698Y-122860000D01*
X147864547Y-122860000D01*
X147900000Y-122867052D01*
X147935453Y-122860000D01*
X148040465Y-122839112D01*
X148159545Y-122759545D01*
X148179629Y-122729487D01*
X148479489Y-122429628D01*
X148509545Y-122409545D01*
X148589112Y-122290465D01*
X148610000Y-122185453D01*
X148617052Y-122150000D01*
X148610000Y-122114547D01*
X148610000Y-120618447D01*
X148617051Y-120582999D01*
X148610000Y-120547551D01*
X148610000Y-120547547D01*
X148589112Y-120442535D01*
X148541640Y-120371489D01*
X148529627Y-120353510D01*
X148529625Y-120353508D01*
X148509544Y-120323455D01*
X148479491Y-120303374D01*
X147784566Y-119608450D01*
X147795000Y-119583260D01*
X147795000Y-119348117D01*
X148738000Y-120291117D01*
X148737999Y-123492884D01*
X146098884Y-126132000D01*
X145874910Y-126132000D01*
X145864476Y-126106811D01*
X145673189Y-125915524D01*
X145423260Y-125812000D01*
X145152740Y-125812000D01*
X144902811Y-125915524D01*
X144711524Y-126106811D01*
X144608000Y-126356740D01*
X144608000Y-126627260D01*
X144711524Y-126877189D01*
X144902811Y-127068476D01*
X145152740Y-127172000D01*
X145423260Y-127172000D01*
X145673189Y-127068476D01*
X145864476Y-126877189D01*
X145874910Y-126852000D01*
X146212547Y-126852000D01*
X146248000Y-126859052D01*
X146283453Y-126852000D01*
X146388465Y-126831112D01*
X146507545Y-126751545D01*
X146527630Y-126721486D01*
X149327490Y-123921627D01*
X149357543Y-123901546D01*
X149377624Y-123871493D01*
X149377626Y-123871491D01*
X149418010Y-123811052D01*
X149437111Y-123782466D01*
X149457999Y-123677454D01*
X149457999Y-123677450D01*
X149465050Y-123642002D01*
X149457999Y-123606554D01*
X149457999Y-120177446D01*
X149465050Y-120141998D01*
X149457999Y-120106550D01*
X149457999Y-120106546D01*
X149437111Y-120001534D01*
X149357544Y-119882454D01*
X149327488Y-119862371D01*
X145659966Y-116194850D01*
X145639881Y-116164791D01*
X145520801Y-116085224D01*
X145415789Y-116064336D01*
X145380336Y-116057284D01*
X145344883Y-116064336D01*
X140058726Y-116064336D01*
X140106541Y-116016521D01*
X140210065Y-115766592D01*
X140210065Y-115496072D01*
X140199631Y-115470883D01*
X140209691Y-115460823D01*
X140209693Y-115460820D01*
X143665489Y-112005025D01*
X143695545Y-111984942D01*
X143775112Y-111865862D01*
X143796000Y-111760850D01*
X143796000Y-111760846D01*
X143803051Y-111725398D01*
X143796000Y-111689950D01*
X143796000Y-109103116D01*
X144225117Y-108674000D01*
X144431260Y-108674000D01*
X144681189Y-108570476D01*
X144872476Y-108379189D01*
X144976000Y-108129260D01*
X144976000Y-107858740D01*
X144872476Y-107608811D01*
X144681189Y-107417524D01*
X144431260Y-107314000D01*
X144160740Y-107314000D01*
X143910811Y-107417524D01*
X143719524Y-107608811D01*
X143616000Y-107858740D01*
X143616000Y-108129260D01*
X143655723Y-108225160D01*
X143426034Y-108454850D01*
X143426034Y-106006478D01*
X147990000Y-101442513D01*
X147990001Y-116008885D01*
X145902891Y-113921774D01*
X146031476Y-113793189D01*
X146135000Y-113543260D01*
X146135000Y-113272740D01*
X146031476Y-113022811D01*
X145840189Y-112831524D01*
X145590260Y-112728000D01*
X145319740Y-112728000D01*
X145069811Y-112831524D01*
X144878524Y-113022811D01*
X144775000Y-113272740D01*
X144775000Y-113543260D01*
X144878524Y-113793189D01*
X145069811Y-113984476D01*
X145089896Y-113992796D01*
X145115888Y-114123464D01*
X145167581Y-114200828D01*
X145195456Y-114242545D01*
X145225512Y-114262628D01*
X150235999Y-119273116D01*
X150236000Y-131194883D01*
X144296511Y-137134373D01*
X144266455Y-137154456D01*
X144246373Y-137184511D01*
X144186888Y-137273536D01*
X144158948Y-137414000D01*
X144166000Y-137449453D01*
X144166001Y-141696542D01*
X144158948Y-141732000D01*
X144186888Y-141872464D01*
X144186889Y-141872465D01*
X144266456Y-141991545D01*
X144296511Y-142011628D01*
X147240000Y-144955117D01*
X147240001Y-156648858D01*
X147240000Y-156648863D01*
X147240000Y-156663090D01*
X147214811Y-156673524D01*
X147023524Y-156864811D01*
X146920000Y-157114740D01*
X146920000Y-157385260D01*
X147023524Y-157635189D01*
X147214811Y-157826476D01*
X147464740Y-157930000D01*
X147735260Y-157930000D01*
X147985189Y-157826476D01*
X148176476Y-157635189D01*
X148280000Y-157385260D01*
X148280000Y-157114740D01*
X148176476Y-156864811D01*
X147985189Y-156673524D01*
X147960000Y-156663090D01*
X147960000Y-144841447D01*
X147967051Y-144805999D01*
X147960000Y-144770551D01*
X147960000Y-144770547D01*
X147939112Y-144665535D01*
X147901126Y-144608687D01*
X147879627Y-144576510D01*
X147879625Y-144576508D01*
X147859544Y-144546455D01*
X147829491Y-144526374D01*
X144886000Y-141582884D01*
X144886000Y-138481665D01*
X144902813Y-138498478D01*
X145152742Y-138602002D01*
X145423262Y-138602002D01*
X145673191Y-138498478D01*
X145864478Y-138307191D01*
X145873634Y-138285086D01*
X145889140Y-138282002D01*
X145994152Y-138261114D01*
X146113232Y-138181547D01*
X146133317Y-138151488D01*
X152507501Y-131777305D01*
X152537557Y-131757222D01*
X152617124Y-131638142D01*
X152638012Y-131533130D01*
X152645064Y-131497677D01*
X152638012Y-131462224D01*
X152638012Y-120332333D01*
X152645064Y-120296880D01*
X152617124Y-120156415D01*
X152557639Y-120067390D01*
X152557637Y-120067388D01*
X152537556Y-120037335D01*
X152507503Y-120017254D01*
X148710000Y-116219752D01*
X148710000Y-102303000D01*
X148928515Y-102303000D01*
X148928515Y-104103000D01*
X148950246Y-104212250D01*
X149012132Y-104304868D01*
X149104750Y-104366754D01*
X149214000Y-104388485D01*
X150436294Y-104388485D01*
X149971713Y-104853066D01*
X149685500Y-105544045D01*
X149685500Y-106291955D01*
X149971713Y-106982934D01*
X150500566Y-107511787D01*
X151191545Y-107798000D01*
X151939455Y-107798000D01*
X152630434Y-107511787D01*
X153159287Y-106982934D01*
X153445500Y-106291955D01*
X153445500Y-105544045D01*
X153159287Y-104853066D01*
X152689221Y-104383000D01*
X152888717Y-104383000D01*
X153322417Y-104203356D01*
X153654356Y-103871417D01*
X153834000Y-103437717D01*
X153834000Y-102968283D01*
X153654356Y-102534583D01*
X153322417Y-102202644D01*
X152888717Y-102023000D01*
X152419283Y-102023000D01*
X151985583Y-102202644D01*
X151653644Y-102534583D01*
X151474000Y-102968283D01*
X151474000Y-103437717D01*
X151653644Y-103871417D01*
X151820227Y-104038000D01*
X151299485Y-104038000D01*
X151299485Y-102303000D01*
X151277754Y-102193750D01*
X151215868Y-102101132D01*
X151123250Y-102039246D01*
X151014000Y-102017515D01*
X149214000Y-102017515D01*
X149104750Y-102039246D01*
X149012132Y-102101132D01*
X148950246Y-102193750D01*
X148928515Y-102303000D01*
X148710000Y-102303000D01*
X148710000Y-101375518D01*
X150597489Y-99488030D01*
X150627545Y-99467947D01*
X150707112Y-99348867D01*
X150728000Y-99243855D01*
X150735052Y-99208402D01*
X150728000Y-99172949D01*
X150728000Y-95291453D01*
X150735052Y-95256000D01*
X150707112Y-95115535D01*
X150647627Y-95026510D01*
X150647625Y-95026508D01*
X150627544Y-94996455D01*
X150597491Y-94976374D01*
X150387629Y-94766513D01*
X150367545Y-94736455D01*
X150248465Y-94656888D01*
X150233485Y-94653908D01*
X150233485Y-94146000D01*
X150211754Y-94036750D01*
X150149868Y-93944132D01*
X150057250Y-93882246D01*
X149948000Y-93860515D01*
X148248000Y-93860515D01*
X148138750Y-93882246D01*
X148046132Y-93944132D01*
X147984246Y-94036750D01*
X147962515Y-94146000D01*
X147962515Y-95846000D01*
X147973787Y-95902671D01*
X147687628Y-95616512D01*
X147687626Y-95616509D01*
X147576608Y-95505492D01*
X147622437Y-95436904D01*
X147710138Y-94996000D01*
X147622437Y-94555096D01*
X147372685Y-94181315D01*
X146998904Y-93931563D01*
X146669296Y-93866000D01*
X146446704Y-93866000D01*
X146117096Y-93931563D01*
X145743315Y-94181315D01*
X145493563Y-94555096D01*
X145405862Y-94996000D01*
X145493563Y-95436904D01*
X145743315Y-95810685D01*
X146117096Y-96060437D01*
X146446704Y-96126000D01*
X146669296Y-96126000D01*
X146998904Y-96060437D01*
X147067492Y-96014608D01*
X147178509Y-96125626D01*
X147178512Y-96125628D01*
X147470265Y-96417382D01*
X147470265Y-96867354D01*
X147372685Y-96721315D01*
X146998904Y-96471563D01*
X146669296Y-96406000D01*
X146446704Y-96406000D01*
X146117096Y-96471563D01*
X145743315Y-96721315D01*
X145529998Y-97040567D01*
X145529998Y-96183446D01*
X145537049Y-96147997D01*
X145529998Y-96112546D01*
X145529998Y-96112545D01*
X145509110Y-96007533D01*
X145474175Y-95955250D01*
X145449625Y-95918508D01*
X145449623Y-95918506D01*
X145429542Y-95888453D01*
X145399489Y-95868372D01*
X145036608Y-95505492D01*
X145082437Y-95436904D01*
X145170138Y-94996000D01*
X145082437Y-94555096D01*
X144832685Y-94181315D01*
X144458904Y-93931563D01*
X144129296Y-93866000D01*
X143906704Y-93866000D01*
X143577096Y-93931563D01*
X143203315Y-94181315D01*
X142953563Y-94555096D01*
X142865862Y-94996000D01*
X142953563Y-95436904D01*
X143203315Y-95810685D01*
X143577096Y-96060437D01*
X143906704Y-96126000D01*
X144129296Y-96126000D01*
X144458904Y-96060437D01*
X144527492Y-96014608D01*
X144809998Y-96297115D01*
X144809998Y-96706156D01*
X144458904Y-96471563D01*
X144129296Y-96406000D01*
X143906704Y-96406000D01*
X143577096Y-96471563D01*
X143203315Y-96721315D01*
X143110000Y-96860971D01*
X143110000Y-96303453D01*
X143117052Y-96268000D01*
X143089112Y-96127535D01*
X143029627Y-96038510D01*
X143029625Y-96038508D01*
X143009544Y-96008455D01*
X142979491Y-95988374D01*
X142496608Y-95505492D01*
X142542437Y-95436904D01*
X142630138Y-94996000D01*
X142542437Y-94555096D01*
X142292685Y-94181315D01*
X141918904Y-93931563D01*
X141589296Y-93866000D01*
X141366704Y-93866000D01*
X141037096Y-93931563D01*
X140663315Y-94181315D01*
X140413563Y-94555096D01*
X140325862Y-94996000D01*
X140413563Y-95436904D01*
X140663315Y-95810685D01*
X141037096Y-96060437D01*
X141366704Y-96126000D01*
X141589296Y-96126000D01*
X141918904Y-96060437D01*
X141987492Y-96014608D01*
X142390000Y-96417117D01*
X142390000Y-96866958D01*
X142292685Y-96721315D01*
X141918904Y-96471563D01*
X141589296Y-96406000D01*
X141366704Y-96406000D01*
X141037096Y-96471563D01*
X140663315Y-96721315D01*
X140413563Y-97095096D01*
X140325862Y-97536000D01*
X140413563Y-97976904D01*
X140663315Y-98350685D01*
X141037096Y-98600437D01*
X141118000Y-98616530D01*
X141118000Y-98773533D01*
X141118001Y-98773538D01*
X141118000Y-103224355D01*
X140568000Y-103774355D01*
X140568000Y-98841447D01*
X140575051Y-98805999D01*
X140568000Y-98770551D01*
X140568000Y-98770547D01*
X140547112Y-98665535D01*
X140501729Y-98597616D01*
X140487627Y-98576510D01*
X140487625Y-98576508D01*
X140467544Y-98546455D01*
X140437491Y-98526374D01*
X139956608Y-98045492D01*
X140002437Y-97976904D01*
X140090138Y-97536000D01*
X140002437Y-97095096D01*
X139752685Y-96721315D01*
X139378904Y-96471563D01*
X139049296Y-96406000D01*
X138826704Y-96406000D01*
X138497096Y-96471563D01*
X138123315Y-96721315D01*
X138010000Y-96890903D01*
X138010000Y-96433116D01*
X138428508Y-96014608D01*
X138497096Y-96060437D01*
X138826704Y-96126000D01*
X139049296Y-96126000D01*
X139378904Y-96060437D01*
X139752685Y-95810685D01*
X140002437Y-95436904D01*
X140090138Y-94996000D01*
X140002437Y-94555096D01*
X139752685Y-94181315D01*
X139378904Y-93931563D01*
X139049296Y-93866000D01*
X138826704Y-93866000D01*
X138497096Y-93931563D01*
X138123315Y-94181315D01*
X137873563Y-94555096D01*
X137785862Y-94996000D01*
X137873563Y-95436904D01*
X137919392Y-95505492D01*
X137420511Y-96004373D01*
X137390455Y-96024456D01*
X137331596Y-96112545D01*
X137310888Y-96143536D01*
X137282948Y-96284000D01*
X137290000Y-96319453D01*
X137290000Y-96941381D01*
X137224560Y-96825411D01*
X136889711Y-96563191D01*
X136738185Y-96500445D01*
X136572000Y-96520803D01*
X136572000Y-97362000D01*
X136592000Y-97362000D01*
X136592000Y-97710000D01*
X136572000Y-97710000D01*
X136572000Y-98551197D01*
X136738185Y-98571555D01*
X136889711Y-98508809D01*
X137224560Y-98246589D01*
X137290001Y-98130618D01*
X137290001Y-98392531D01*
X137282948Y-98427989D01*
X137310888Y-98568453D01*
X137310889Y-98568454D01*
X137390456Y-98687534D01*
X137420511Y-98707616D01*
X138684011Y-99971117D01*
X138684012Y-104368859D01*
X137414501Y-105638371D01*
X137414498Y-105638373D01*
X135740884Y-107311988D01*
X132808633Y-107311988D01*
X132907555Y-107213066D01*
X133011079Y-106963137D01*
X133011079Y-106692617D01*
X132907555Y-106442688D01*
X132716268Y-106251401D01*
X132691079Y-106240967D01*
X132691079Y-104718740D01*
X133012000Y-104718740D01*
X133012000Y-104989260D01*
X133115524Y-105239189D01*
X133306811Y-105430476D01*
X133556740Y-105534000D01*
X133827260Y-105534000D01*
X134077189Y-105430476D01*
X134268476Y-105239189D01*
X134278910Y-105214000D01*
X134700871Y-105214000D01*
X135220442Y-105733572D01*
X135210008Y-105758761D01*
X135210008Y-106029281D01*
X135313532Y-106279210D01*
X135504819Y-106470497D01*
X135754748Y-106574021D01*
X136025268Y-106574021D01*
X136275197Y-106470497D01*
X136466484Y-106279210D01*
X136570008Y-106029281D01*
X136570008Y-105758761D01*
X136466484Y-105508832D01*
X136275197Y-105317545D01*
X136025268Y-105214021D01*
X135754748Y-105214021D01*
X135729559Y-105224455D01*
X135129616Y-104624513D01*
X135109532Y-104594455D01*
X134990452Y-104514888D01*
X134885440Y-104494000D01*
X134849987Y-104486948D01*
X134814534Y-104494000D01*
X134278910Y-104494000D01*
X134268476Y-104468811D01*
X134077189Y-104277524D01*
X133827260Y-104174000D01*
X133556740Y-104174000D01*
X133306811Y-104277524D01*
X133115524Y-104468811D01*
X133012000Y-104718740D01*
X132691079Y-104718740D01*
X132691079Y-104224037D01*
X133921489Y-102993628D01*
X133951545Y-102973545D01*
X134031112Y-102854465D01*
X134052000Y-102749453D01*
X134059052Y-102714000D01*
X134052000Y-102678547D01*
X134052000Y-102440910D01*
X134077189Y-102430476D01*
X134268476Y-102239189D01*
X134372000Y-101989260D01*
X134372000Y-101718740D01*
X134268476Y-101468811D01*
X134077189Y-101277524D01*
X133827260Y-101174000D01*
X133556740Y-101174000D01*
X133306811Y-101277524D01*
X133115524Y-101468811D01*
X133012000Y-101718740D01*
X133012000Y-101989260D01*
X133115524Y-102239189D01*
X133306811Y-102430476D01*
X133332001Y-102440910D01*
X133332001Y-102564882D01*
X132101590Y-103795294D01*
X132071534Y-103815377D01*
X132034089Y-103871417D01*
X131991967Y-103934457D01*
X131964027Y-104074921D01*
X131971079Y-104110374D01*
X131971080Y-106226735D01*
X131971079Y-106226740D01*
X131971079Y-106240967D01*
X131945890Y-106251401D01*
X131754603Y-106442688D01*
X131651079Y-106692617D01*
X131651079Y-106963137D01*
X131754603Y-107213066D01*
X131853525Y-107311988D01*
X130618856Y-107311988D01*
X130618856Y-107204000D01*
X130591692Y-107067437D01*
X130514335Y-106951665D01*
X130398563Y-106874308D01*
X130262000Y-106847144D01*
X125262000Y-106847144D01*
X125125437Y-106874308D01*
X125009665Y-106951665D01*
X124946010Y-107046931D01*
X124946010Y-105687106D01*
X129689117Y-100944000D01*
X134978884Y-100944000D01*
X136998434Y-102963551D01*
X136988000Y-102988740D01*
X136988000Y-103259260D01*
X137091524Y-103509189D01*
X137282811Y-103700476D01*
X137532740Y-103804000D01*
X137803260Y-103804000D01*
X138053189Y-103700476D01*
X138244476Y-103509189D01*
X138348000Y-103259260D01*
X138348000Y-102988740D01*
X138244476Y-102738811D01*
X138053189Y-102547524D01*
X137803260Y-102444000D01*
X137532740Y-102444000D01*
X137507551Y-102454434D01*
X135407630Y-100354514D01*
X135387545Y-100324455D01*
X135268465Y-100244888D01*
X135163453Y-100224000D01*
X135128000Y-100216948D01*
X135092547Y-100224000D01*
X129575453Y-100224000D01*
X129540000Y-100216948D01*
X129504547Y-100224000D01*
X129399535Y-100244888D01*
X129280455Y-100324455D01*
X129260372Y-100354511D01*
X124546000Y-105068884D01*
X124546000Y-97490357D01*
X125065799Y-98745262D01*
X126044738Y-99724201D01*
X127323785Y-100254000D01*
X128708215Y-100254000D01*
X129987262Y-99724201D01*
X130966201Y-98745262D01*
X131467094Y-97536000D01*
X132705862Y-97536000D01*
X132793563Y-97976904D01*
X133043315Y-98350685D01*
X133417096Y-98600437D01*
X133746704Y-98666000D01*
X133969296Y-98666000D01*
X134298904Y-98600437D01*
X134672685Y-98350685D01*
X134922437Y-97976904D01*
X134942470Y-97876188D01*
X135362427Y-97876188D01*
X135571440Y-98246589D01*
X135906289Y-98508809D01*
X136057815Y-98571555D01*
X136224000Y-98551197D01*
X136224000Y-97710000D01*
X135381960Y-97710000D01*
X135362427Y-97876188D01*
X134942470Y-97876188D01*
X135010138Y-97536000D01*
X134942471Y-97195812D01*
X135362427Y-97195812D01*
X135381960Y-97362000D01*
X136224000Y-97362000D01*
X136224000Y-96520803D01*
X136057815Y-96500445D01*
X135906289Y-96563191D01*
X135571440Y-96825411D01*
X135362427Y-97195812D01*
X134942471Y-97195812D01*
X134922437Y-97095096D01*
X134672685Y-96721315D01*
X134298904Y-96471563D01*
X133969296Y-96406000D01*
X133746704Y-96406000D01*
X133417096Y-96471563D01*
X133043315Y-96721315D01*
X132793563Y-97095096D01*
X132705862Y-97536000D01*
X131467094Y-97536000D01*
X131496000Y-97466215D01*
X131496000Y-96081785D01*
X131046253Y-94996000D01*
X132705862Y-94996000D01*
X132793563Y-95436904D01*
X133043315Y-95810685D01*
X133417096Y-96060437D01*
X133746704Y-96126000D01*
X133969296Y-96126000D01*
X134298904Y-96060437D01*
X134672685Y-95810685D01*
X134922437Y-95436904D01*
X134942470Y-95336188D01*
X135362427Y-95336188D01*
X135571440Y-95706589D01*
X135906289Y-95968809D01*
X136057815Y-96031555D01*
X136224000Y-96011197D01*
X136224000Y-95170000D01*
X136572000Y-95170000D01*
X136572000Y-96011197D01*
X136738185Y-96031555D01*
X136889711Y-95968809D01*
X137224560Y-95706589D01*
X137433573Y-95336188D01*
X137414040Y-95170000D01*
X136572000Y-95170000D01*
X136224000Y-95170000D01*
X135381960Y-95170000D01*
X135362427Y-95336188D01*
X134942470Y-95336188D01*
X135010138Y-94996000D01*
X134942471Y-94655812D01*
X135362427Y-94655812D01*
X135381960Y-94822000D01*
X136224000Y-94822000D01*
X136224000Y-93980803D01*
X136572000Y-93980803D01*
X136572000Y-94822000D01*
X137414040Y-94822000D01*
X137433573Y-94655812D01*
X137224560Y-94285411D01*
X136889711Y-94023191D01*
X136738185Y-93960445D01*
X136572000Y-93980803D01*
X136224000Y-93980803D01*
X136057815Y-93960445D01*
X135906289Y-94023191D01*
X135571440Y-94285411D01*
X135362427Y-94655812D01*
X134942471Y-94655812D01*
X134922437Y-94555096D01*
X134672685Y-94181315D01*
X134298904Y-93931563D01*
X133969296Y-93866000D01*
X133746704Y-93866000D01*
X133417096Y-93931563D01*
X133043315Y-94181315D01*
X132793563Y-94555096D01*
X132705862Y-94996000D01*
X131046253Y-94996000D01*
X130966201Y-94802738D01*
X129987262Y-93823799D01*
X128732357Y-93304000D01*
X153969643Y-93304000D01*
X152714738Y-93823799D01*
G36*
X131520010Y-112355455D02*
X131520011Y-115702189D01*
X131520010Y-115702194D01*
X131520010Y-115716421D01*
X131494821Y-115726855D01*
X131303534Y-115918142D01*
X131200010Y-116168071D01*
X131200010Y-116438591D01*
X131303534Y-116688520D01*
X131494821Y-116879807D01*
X131744750Y-116983331D01*
X132015270Y-116983331D01*
X132098824Y-116948722D01*
X132098823Y-122409192D01*
X131424000Y-123084015D01*
X131424000Y-121099453D01*
X131431052Y-121064000D01*
X131403112Y-120923535D01*
X131343627Y-120834510D01*
X131343625Y-120834508D01*
X131323544Y-120804455D01*
X131293491Y-120784374D01*
X130618856Y-120109740D01*
X130618856Y-119142000D01*
X130591692Y-119005437D01*
X130514335Y-118889665D01*
X130487898Y-118872000D01*
X130514335Y-118854335D01*
X130591692Y-118738563D01*
X130618856Y-118602000D01*
X130618856Y-116602000D01*
X130591692Y-116465437D01*
X130514335Y-116349665D01*
X130398563Y-116272308D01*
X130262000Y-116245144D01*
X125414260Y-116245144D01*
X125269241Y-116100125D01*
X125269241Y-115949987D01*
X125294430Y-115939553D01*
X125485717Y-115748266D01*
X125589241Y-115498337D01*
X125589241Y-115364756D01*
X125854313Y-115364756D01*
X125854313Y-115635276D01*
X125957837Y-115885205D01*
X126149124Y-116076492D01*
X126399053Y-116180016D01*
X126669573Y-116180016D01*
X126919502Y-116076492D01*
X127110789Y-115885205D01*
X127214313Y-115635276D01*
X127214313Y-115410001D01*
X128870000Y-115410001D01*
X128870000Y-115585260D01*
X128973524Y-115835189D01*
X129164811Y-116026476D01*
X129414740Y-116130000D01*
X129685260Y-116130000D01*
X129935189Y-116026476D01*
X130126476Y-115835189D01*
X130230000Y-115585260D01*
X130230000Y-115314740D01*
X130126476Y-115064811D01*
X129935189Y-114873524D01*
X129685260Y-114770000D01*
X129414740Y-114770000D01*
X129392635Y-114779156D01*
X129290466Y-114710889D01*
X129185454Y-114690001D01*
X129150001Y-114682949D01*
X129114548Y-114690001D01*
X127019775Y-114690001D01*
X126984327Y-114682950D01*
X126948879Y-114690001D01*
X126948875Y-114690001D01*
X126843863Y-114710889D01*
X126724783Y-114790456D01*
X126704700Y-114820512D01*
X126694762Y-114830450D01*
X126669573Y-114820016D01*
X126399053Y-114820016D01*
X126149124Y-114923540D01*
X125957837Y-115114827D01*
X125854313Y-115364756D01*
X125589241Y-115364756D01*
X125589241Y-115227817D01*
X125485717Y-114977888D01*
X125294430Y-114786601D01*
X125044501Y-114683077D01*
X124773981Y-114683077D01*
X124546000Y-114777510D01*
X124546000Y-113117116D01*
X124905144Y-113476261D01*
X124905144Y-114284000D01*
X124932308Y-114420563D01*
X125009665Y-114536335D01*
X125125437Y-114613692D01*
X125262000Y-114640856D01*
X130262000Y-114640856D01*
X130398563Y-114613692D01*
X130514335Y-114536335D01*
X130591692Y-114420563D01*
X130618856Y-114284000D01*
X130618856Y-112284000D01*
X130591692Y-112147437D01*
X130514335Y-112031665D01*
X130487898Y-112014000D01*
X130514335Y-111996335D01*
X130591692Y-111880563D01*
X130618856Y-111744000D01*
X130618856Y-111454300D01*
X131520010Y-112355455D01*
X131520010Y-112355455D01*
G37*
X131520010Y-112355455D02*
X131520011Y-115702189D01*
X131520010Y-115702194D01*
X131520010Y-115716421D01*
X131494821Y-115726855D01*
X131303534Y-115918142D01*
X131200010Y-116168071D01*
X131200010Y-116438591D01*
X131303534Y-116688520D01*
X131494821Y-116879807D01*
X131744750Y-116983331D01*
X132015270Y-116983331D01*
X132098824Y-116948722D01*
X132098823Y-122409192D01*
X131424000Y-123084015D01*
X131424000Y-121099453D01*
X131431052Y-121064000D01*
X131403112Y-120923535D01*
X131343627Y-120834510D01*
X131343625Y-120834508D01*
X131323544Y-120804455D01*
X131293491Y-120784374D01*
X130618856Y-120109740D01*
X130618856Y-119142000D01*
X130591692Y-119005437D01*
X130514335Y-118889665D01*
X130487898Y-118872000D01*
X130514335Y-118854335D01*
X130591692Y-118738563D01*
X130618856Y-118602000D01*
X130618856Y-116602000D01*
X130591692Y-116465437D01*
X130514335Y-116349665D01*
X130398563Y-116272308D01*
X130262000Y-116245144D01*
X125414260Y-116245144D01*
X125269241Y-116100125D01*
X125269241Y-115949987D01*
X125294430Y-115939553D01*
X125485717Y-115748266D01*
X125589241Y-115498337D01*
X125589241Y-115364756D01*
X125854313Y-115364756D01*
X125854313Y-115635276D01*
X125957837Y-115885205D01*
X126149124Y-116076492D01*
X126399053Y-116180016D01*
X126669573Y-116180016D01*
X126919502Y-116076492D01*
X127110789Y-115885205D01*
X127214313Y-115635276D01*
X127214313Y-115410001D01*
X128870000Y-115410001D01*
X128870000Y-115585260D01*
X128973524Y-115835189D01*
X129164811Y-116026476D01*
X129414740Y-116130000D01*
X129685260Y-116130000D01*
X129935189Y-116026476D01*
X130126476Y-115835189D01*
X130230000Y-115585260D01*
X130230000Y-115314740D01*
X130126476Y-115064811D01*
X129935189Y-114873524D01*
X129685260Y-114770000D01*
X129414740Y-114770000D01*
X129392635Y-114779156D01*
X129290466Y-114710889D01*
X129185454Y-114690001D01*
X129150001Y-114682949D01*
X129114548Y-114690001D01*
X127019775Y-114690001D01*
X126984327Y-114682950D01*
X126948879Y-114690001D01*
X126948875Y-114690001D01*
X126843863Y-114710889D01*
X126724783Y-114790456D01*
X126704700Y-114820512D01*
X126694762Y-114830450D01*
X126669573Y-114820016D01*
X126399053Y-114820016D01*
X126149124Y-114923540D01*
X125957837Y-115114827D01*
X125854313Y-115364756D01*
X125589241Y-115364756D01*
X125589241Y-115227817D01*
X125485717Y-114977888D01*
X125294430Y-114786601D01*
X125044501Y-114683077D01*
X124773981Y-114683077D01*
X124546000Y-114777510D01*
X124546000Y-113117116D01*
X124905144Y-113476261D01*
X124905144Y-114284000D01*
X124932308Y-114420563D01*
X125009665Y-114536335D01*
X125125437Y-114613692D01*
X125262000Y-114640856D01*
X130262000Y-114640856D01*
X130398563Y-114613692D01*
X130514335Y-114536335D01*
X130591692Y-114420563D01*
X130618856Y-114284000D01*
X130618856Y-112284000D01*
X130591692Y-112147437D01*
X130514335Y-112031665D01*
X130487898Y-112014000D01*
X130514335Y-111996335D01*
X130591692Y-111880563D01*
X130618856Y-111744000D01*
X130618856Y-111454300D01*
X131520010Y-112355455D01*
G04 #@! TD*
M02*
