M48
;DRILL file {KiCad 5.0.1-33cea8e~68~ubuntu14.04.1} date Tue 20 Nov 2018 11:38:43 PM PST
;FORMAT={-:-/ absolute / inch / decimal}
FMAT,2
INCH,TZ
T1C0.0157
T2C0.0354
T3C0.0394
T4C0.0433
T5C0.1260
%
G90
G05
M72
T1
X4.9177Y-4.5419
X4.9817Y-4.5472
X5.02Y-4.98
X5.02Y-5.28
X5.024Y-5.726
X5.0453Y-4.5563
X5.1Y-5.2
X5.1004Y-4.5453
X5.12Y-5.06
X5.12Y-5.28
X5.12Y-5.73
X5.13Y-4.9879
X5.1547Y-4.6716
X5.1783Y-4.2724
X5.1921Y-4.5789
X5.2099Y-4.2058
X5.2185Y-4.3445
X5.22Y-4.99
X5.22Y-5.28
X5.22Y-5.73
X5.2323Y-5.6122
X5.2618Y-4.2945
X5.2618Y-6.0472
X5.2635Y-4.01
X5.2635Y-4.1281
X5.2719Y-4.2059
X5.2982Y-4.5639
X5.3091Y-4.8287
X5.315Y-4.6201
X5.32Y-4.98
X5.32Y-5.28
X5.32Y-5.73
X5.3232Y-4.2696
X5.33Y-4.52
X5.3389Y-4.4816
X5.3445Y-4.7638
X5.35Y-4.1691
X5.3643Y-4.8554
X5.42Y-4.06
X5.42Y-4.98
X5.42Y-5.28
X5.42Y-5.73
X5.4551Y-4.469
X5.4705Y-4.8307
X5.4764Y-4.4128
X5.4933Y-4.5524
X5.52Y-4.98
X5.52Y-5.73
X5.5236Y-5.28
X5.5774Y-4.21
X5.62Y-4.98
X5.62Y-5.28
X5.62Y-5.73
X5.6364Y-4.7786
X5.6367Y-4.8206
X5.6809Y-4.2517
X5.6831Y-4.3465
X5.72Y-4.98
X5.72Y-5.28
X5.72Y-5.73
X5.72Y-5.43
X5.7266Y-4.4649
X5.7441Y-3.8996
X5.7886Y-4.4649
X5.7919Y-4.7027
X5.7969Y-4.781
X5.811Y-6.1909
X5.8189Y-5.0689
X6.0295Y-4.3307
X6.08Y-4.31
T2
X5.91Y-4.0631
X6.01Y-4.0631
T3
X5.27Y-3.74
X5.27Y-3.84
X5.37Y-3.74
X5.37Y-3.84
X5.47Y-3.74
X5.47Y-3.84
X5.57Y-3.74
X5.57Y-3.84
X5.67Y-3.74
X5.67Y-3.84
X5.77Y-3.74
X5.77Y-3.84
X5.87Y-3.74
X5.87Y-3.84
T4
X5.4331Y-6.3209
X5.4331Y-6.498
X5.689Y-6.3209
X5.689Y-6.498
T5
X6.09Y-3.81
X5.04Y-3.81
X5.04Y-6.56
X6.09Y-6.56
T0
M30
