G04 #@! TF.GenerationSoftware,KiCad,Pcbnew,5.0.1-33cea8e~68~ubuntu14.04.1*
G04 #@! TF.CreationDate,2018-11-23T14:42:36-08:00*
G04 #@! TF.ProjectId,while,7768696C652E6B696361645F70636200,rev?*
G04 #@! TF.SameCoordinates,Original*
G04 #@! TF.FileFunction,Paste,Top*
G04 #@! TF.FilePolarity,Positive*
%FSLAX46Y46*%
G04 Gerber Fmt 4.6, Leading zero omitted, Abs format (unit mm)*
G04 Created by KiCad (PCBNEW 5.0.1-33cea8e~68~ubuntu14.04.1) date Fri 23 Nov 2018 02:42:36 PM PST*
%MOMM*%
%LPD*%
G01*
G04 APERTURE LIST*
%ADD10R,1.600000X1.600000*%
%ADD11C,0.100000*%
%ADD12C,0.875000*%
%ADD13R,1.400000X1.600000*%
%ADD14R,1.600000X1.400000*%
%ADD15R,0.550000X1.600000*%
%ADD16R,1.600000X0.550000*%
%ADD17R,2.000000X4.500000*%
%ADD18R,5.000000X2.000000*%
G04 APERTURE END LIST*
D10*
G04 #@! TO.C,SW5*
X145288000Y-126492000D03*
X127508000Y-134112000D03*
X142748000Y-126492000D03*
X130048000Y-134112000D03*
X140208000Y-126492000D03*
X132588000Y-134112000D03*
X137668000Y-126492000D03*
X135128000Y-134112000D03*
X135128000Y-126492000D03*
X137668000Y-134112000D03*
X132588000Y-126492000D03*
X140208000Y-134112000D03*
X130048000Y-126492000D03*
X142748000Y-134112000D03*
X127508000Y-126492000D03*
X145288000Y-134112000D03*
G04 #@! TD*
D11*
G04 #@! TO.C,C2*
G36*
X147355191Y-118974053D02*
X147376426Y-118977203D01*
X147397250Y-118982419D01*
X147417462Y-118989651D01*
X147436868Y-118998830D01*
X147455281Y-119009866D01*
X147472524Y-119022654D01*
X147488430Y-119037070D01*
X147502846Y-119052976D01*
X147515634Y-119070219D01*
X147526670Y-119088632D01*
X147535849Y-119108038D01*
X147543081Y-119128250D01*
X147548297Y-119149074D01*
X147551447Y-119170309D01*
X147552500Y-119191750D01*
X147552500Y-119704250D01*
X147551447Y-119725691D01*
X147548297Y-119746926D01*
X147543081Y-119767750D01*
X147535849Y-119787962D01*
X147526670Y-119807368D01*
X147515634Y-119825781D01*
X147502846Y-119843024D01*
X147488430Y-119858930D01*
X147472524Y-119873346D01*
X147455281Y-119886134D01*
X147436868Y-119897170D01*
X147417462Y-119906349D01*
X147397250Y-119913581D01*
X147376426Y-119918797D01*
X147355191Y-119921947D01*
X147333750Y-119923000D01*
X146896250Y-119923000D01*
X146874809Y-119921947D01*
X146853574Y-119918797D01*
X146832750Y-119913581D01*
X146812538Y-119906349D01*
X146793132Y-119897170D01*
X146774719Y-119886134D01*
X146757476Y-119873346D01*
X146741570Y-119858930D01*
X146727154Y-119843024D01*
X146714366Y-119825781D01*
X146703330Y-119807368D01*
X146694151Y-119787962D01*
X146686919Y-119767750D01*
X146681703Y-119746926D01*
X146678553Y-119725691D01*
X146677500Y-119704250D01*
X146677500Y-119191750D01*
X146678553Y-119170309D01*
X146681703Y-119149074D01*
X146686919Y-119128250D01*
X146694151Y-119108038D01*
X146703330Y-119088632D01*
X146714366Y-119070219D01*
X146727154Y-119052976D01*
X146741570Y-119037070D01*
X146757476Y-119022654D01*
X146774719Y-119009866D01*
X146793132Y-118998830D01*
X146812538Y-118989651D01*
X146832750Y-118982419D01*
X146853574Y-118977203D01*
X146874809Y-118974053D01*
X146896250Y-118973000D01*
X147333750Y-118973000D01*
X147355191Y-118974053D01*
X147355191Y-118974053D01*
G37*
D12*
X147115000Y-119448000D03*
D11*
G36*
X145780191Y-118974053D02*
X145801426Y-118977203D01*
X145822250Y-118982419D01*
X145842462Y-118989651D01*
X145861868Y-118998830D01*
X145880281Y-119009866D01*
X145897524Y-119022654D01*
X145913430Y-119037070D01*
X145927846Y-119052976D01*
X145940634Y-119070219D01*
X145951670Y-119088632D01*
X145960849Y-119108038D01*
X145968081Y-119128250D01*
X145973297Y-119149074D01*
X145976447Y-119170309D01*
X145977500Y-119191750D01*
X145977500Y-119704250D01*
X145976447Y-119725691D01*
X145973297Y-119746926D01*
X145968081Y-119767750D01*
X145960849Y-119787962D01*
X145951670Y-119807368D01*
X145940634Y-119825781D01*
X145927846Y-119843024D01*
X145913430Y-119858930D01*
X145897524Y-119873346D01*
X145880281Y-119886134D01*
X145861868Y-119897170D01*
X145842462Y-119906349D01*
X145822250Y-119913581D01*
X145801426Y-119918797D01*
X145780191Y-119921947D01*
X145758750Y-119923000D01*
X145321250Y-119923000D01*
X145299809Y-119921947D01*
X145278574Y-119918797D01*
X145257750Y-119913581D01*
X145237538Y-119906349D01*
X145218132Y-119897170D01*
X145199719Y-119886134D01*
X145182476Y-119873346D01*
X145166570Y-119858930D01*
X145152154Y-119843024D01*
X145139366Y-119825781D01*
X145128330Y-119807368D01*
X145119151Y-119787962D01*
X145111919Y-119767750D01*
X145106703Y-119746926D01*
X145103553Y-119725691D01*
X145102500Y-119704250D01*
X145102500Y-119191750D01*
X145103553Y-119170309D01*
X145106703Y-119149074D01*
X145111919Y-119128250D01*
X145119151Y-119108038D01*
X145128330Y-119088632D01*
X145139366Y-119070219D01*
X145152154Y-119052976D01*
X145166570Y-119037070D01*
X145182476Y-119022654D01*
X145199719Y-119009866D01*
X145218132Y-118998830D01*
X145237538Y-118989651D01*
X145257750Y-118982419D01*
X145278574Y-118977203D01*
X145299809Y-118974053D01*
X145321250Y-118973000D01*
X145758750Y-118973000D01*
X145780191Y-118974053D01*
X145780191Y-118974053D01*
G37*
D12*
X145540000Y-119448000D03*
G04 #@! TD*
D11*
G04 #@! TO.C,C3*
G36*
X145905191Y-120964053D02*
X145926426Y-120967203D01*
X145947250Y-120972419D01*
X145967462Y-120979651D01*
X145986868Y-120988830D01*
X146005281Y-120999866D01*
X146022524Y-121012654D01*
X146038430Y-121027070D01*
X146052846Y-121042976D01*
X146065634Y-121060219D01*
X146076670Y-121078632D01*
X146085849Y-121098038D01*
X146093081Y-121118250D01*
X146098297Y-121139074D01*
X146101447Y-121160309D01*
X146102500Y-121181750D01*
X146102500Y-121694250D01*
X146101447Y-121715691D01*
X146098297Y-121736926D01*
X146093081Y-121757750D01*
X146085849Y-121777962D01*
X146076670Y-121797368D01*
X146065634Y-121815781D01*
X146052846Y-121833024D01*
X146038430Y-121848930D01*
X146022524Y-121863346D01*
X146005281Y-121876134D01*
X145986868Y-121887170D01*
X145967462Y-121896349D01*
X145947250Y-121903581D01*
X145926426Y-121908797D01*
X145905191Y-121911947D01*
X145883750Y-121913000D01*
X145446250Y-121913000D01*
X145424809Y-121911947D01*
X145403574Y-121908797D01*
X145382750Y-121903581D01*
X145362538Y-121896349D01*
X145343132Y-121887170D01*
X145324719Y-121876134D01*
X145307476Y-121863346D01*
X145291570Y-121848930D01*
X145277154Y-121833024D01*
X145264366Y-121815781D01*
X145253330Y-121797368D01*
X145244151Y-121777962D01*
X145236919Y-121757750D01*
X145231703Y-121736926D01*
X145228553Y-121715691D01*
X145227500Y-121694250D01*
X145227500Y-121181750D01*
X145228553Y-121160309D01*
X145231703Y-121139074D01*
X145236919Y-121118250D01*
X145244151Y-121098038D01*
X145253330Y-121078632D01*
X145264366Y-121060219D01*
X145277154Y-121042976D01*
X145291570Y-121027070D01*
X145307476Y-121012654D01*
X145324719Y-120999866D01*
X145343132Y-120988830D01*
X145362538Y-120979651D01*
X145382750Y-120972419D01*
X145403574Y-120967203D01*
X145424809Y-120964053D01*
X145446250Y-120963000D01*
X145883750Y-120963000D01*
X145905191Y-120964053D01*
X145905191Y-120964053D01*
G37*
D12*
X145665000Y-121438000D03*
D11*
G36*
X147480191Y-120964053D02*
X147501426Y-120967203D01*
X147522250Y-120972419D01*
X147542462Y-120979651D01*
X147561868Y-120988830D01*
X147580281Y-120999866D01*
X147597524Y-121012654D01*
X147613430Y-121027070D01*
X147627846Y-121042976D01*
X147640634Y-121060219D01*
X147651670Y-121078632D01*
X147660849Y-121098038D01*
X147668081Y-121118250D01*
X147673297Y-121139074D01*
X147676447Y-121160309D01*
X147677500Y-121181750D01*
X147677500Y-121694250D01*
X147676447Y-121715691D01*
X147673297Y-121736926D01*
X147668081Y-121757750D01*
X147660849Y-121777962D01*
X147651670Y-121797368D01*
X147640634Y-121815781D01*
X147627846Y-121833024D01*
X147613430Y-121848930D01*
X147597524Y-121863346D01*
X147580281Y-121876134D01*
X147561868Y-121887170D01*
X147542462Y-121896349D01*
X147522250Y-121903581D01*
X147501426Y-121908797D01*
X147480191Y-121911947D01*
X147458750Y-121913000D01*
X147021250Y-121913000D01*
X146999809Y-121911947D01*
X146978574Y-121908797D01*
X146957750Y-121903581D01*
X146937538Y-121896349D01*
X146918132Y-121887170D01*
X146899719Y-121876134D01*
X146882476Y-121863346D01*
X146866570Y-121848930D01*
X146852154Y-121833024D01*
X146839366Y-121815781D01*
X146828330Y-121797368D01*
X146819151Y-121777962D01*
X146811919Y-121757750D01*
X146806703Y-121736926D01*
X146803553Y-121715691D01*
X146802500Y-121694250D01*
X146802500Y-121181750D01*
X146803553Y-121160309D01*
X146806703Y-121139074D01*
X146811919Y-121118250D01*
X146819151Y-121098038D01*
X146828330Y-121078632D01*
X146839366Y-121060219D01*
X146852154Y-121042976D01*
X146866570Y-121027070D01*
X146882476Y-121012654D01*
X146899719Y-120999866D01*
X146918132Y-120988830D01*
X146937538Y-120979651D01*
X146957750Y-120972419D01*
X146978574Y-120967203D01*
X146999809Y-120964053D01*
X147021250Y-120963000D01*
X147458750Y-120963000D01*
X147480191Y-120964053D01*
X147480191Y-120964053D01*
G37*
D12*
X147240000Y-121438000D03*
G04 #@! TD*
D11*
G04 #@! TO.C,C4*
G36*
X137959191Y-106460053D02*
X137980426Y-106463203D01*
X138001250Y-106468419D01*
X138021462Y-106475651D01*
X138040868Y-106484830D01*
X138059281Y-106495866D01*
X138076524Y-106508654D01*
X138092430Y-106523070D01*
X138106846Y-106538976D01*
X138119634Y-106556219D01*
X138130670Y-106574632D01*
X138139849Y-106594038D01*
X138147081Y-106614250D01*
X138152297Y-106635074D01*
X138155447Y-106656309D01*
X138156500Y-106677750D01*
X138156500Y-107190250D01*
X138155447Y-107211691D01*
X138152297Y-107232926D01*
X138147081Y-107253750D01*
X138139849Y-107273962D01*
X138130670Y-107293368D01*
X138119634Y-107311781D01*
X138106846Y-107329024D01*
X138092430Y-107344930D01*
X138076524Y-107359346D01*
X138059281Y-107372134D01*
X138040868Y-107383170D01*
X138021462Y-107392349D01*
X138001250Y-107399581D01*
X137980426Y-107404797D01*
X137959191Y-107407947D01*
X137937750Y-107409000D01*
X137500250Y-107409000D01*
X137478809Y-107407947D01*
X137457574Y-107404797D01*
X137436750Y-107399581D01*
X137416538Y-107392349D01*
X137397132Y-107383170D01*
X137378719Y-107372134D01*
X137361476Y-107359346D01*
X137345570Y-107344930D01*
X137331154Y-107329024D01*
X137318366Y-107311781D01*
X137307330Y-107293368D01*
X137298151Y-107273962D01*
X137290919Y-107253750D01*
X137285703Y-107232926D01*
X137282553Y-107211691D01*
X137281500Y-107190250D01*
X137281500Y-106677750D01*
X137282553Y-106656309D01*
X137285703Y-106635074D01*
X137290919Y-106614250D01*
X137298151Y-106594038D01*
X137307330Y-106574632D01*
X137318366Y-106556219D01*
X137331154Y-106538976D01*
X137345570Y-106523070D01*
X137361476Y-106508654D01*
X137378719Y-106495866D01*
X137397132Y-106484830D01*
X137416538Y-106475651D01*
X137436750Y-106468419D01*
X137457574Y-106463203D01*
X137478809Y-106460053D01*
X137500250Y-106459000D01*
X137937750Y-106459000D01*
X137959191Y-106460053D01*
X137959191Y-106460053D01*
G37*
D12*
X137719000Y-106934000D03*
D11*
G36*
X136384191Y-106460053D02*
X136405426Y-106463203D01*
X136426250Y-106468419D01*
X136446462Y-106475651D01*
X136465868Y-106484830D01*
X136484281Y-106495866D01*
X136501524Y-106508654D01*
X136517430Y-106523070D01*
X136531846Y-106538976D01*
X136544634Y-106556219D01*
X136555670Y-106574632D01*
X136564849Y-106594038D01*
X136572081Y-106614250D01*
X136577297Y-106635074D01*
X136580447Y-106656309D01*
X136581500Y-106677750D01*
X136581500Y-107190250D01*
X136580447Y-107211691D01*
X136577297Y-107232926D01*
X136572081Y-107253750D01*
X136564849Y-107273962D01*
X136555670Y-107293368D01*
X136544634Y-107311781D01*
X136531846Y-107329024D01*
X136517430Y-107344930D01*
X136501524Y-107359346D01*
X136484281Y-107372134D01*
X136465868Y-107383170D01*
X136446462Y-107392349D01*
X136426250Y-107399581D01*
X136405426Y-107404797D01*
X136384191Y-107407947D01*
X136362750Y-107409000D01*
X135925250Y-107409000D01*
X135903809Y-107407947D01*
X135882574Y-107404797D01*
X135861750Y-107399581D01*
X135841538Y-107392349D01*
X135822132Y-107383170D01*
X135803719Y-107372134D01*
X135786476Y-107359346D01*
X135770570Y-107344930D01*
X135756154Y-107329024D01*
X135743366Y-107311781D01*
X135732330Y-107293368D01*
X135723151Y-107273962D01*
X135715919Y-107253750D01*
X135710703Y-107232926D01*
X135707553Y-107211691D01*
X135706500Y-107190250D01*
X135706500Y-106677750D01*
X135707553Y-106656309D01*
X135710703Y-106635074D01*
X135715919Y-106614250D01*
X135723151Y-106594038D01*
X135732330Y-106574632D01*
X135743366Y-106556219D01*
X135756154Y-106538976D01*
X135770570Y-106523070D01*
X135786476Y-106508654D01*
X135803719Y-106495866D01*
X135822132Y-106484830D01*
X135841538Y-106475651D01*
X135861750Y-106468419D01*
X135882574Y-106463203D01*
X135903809Y-106460053D01*
X135925250Y-106459000D01*
X136362750Y-106459000D01*
X136384191Y-106460053D01*
X136384191Y-106460053D01*
G37*
D12*
X136144000Y-106934000D03*
G04 #@! TD*
D11*
G04 #@! TO.C,C5*
G36*
X137908191Y-102650053D02*
X137929426Y-102653203D01*
X137950250Y-102658419D01*
X137970462Y-102665651D01*
X137989868Y-102674830D01*
X138008281Y-102685866D01*
X138025524Y-102698654D01*
X138041430Y-102713070D01*
X138055846Y-102728976D01*
X138068634Y-102746219D01*
X138079670Y-102764632D01*
X138088849Y-102784038D01*
X138096081Y-102804250D01*
X138101297Y-102825074D01*
X138104447Y-102846309D01*
X138105500Y-102867750D01*
X138105500Y-103380250D01*
X138104447Y-103401691D01*
X138101297Y-103422926D01*
X138096081Y-103443750D01*
X138088849Y-103463962D01*
X138079670Y-103483368D01*
X138068634Y-103501781D01*
X138055846Y-103519024D01*
X138041430Y-103534930D01*
X138025524Y-103549346D01*
X138008281Y-103562134D01*
X137989868Y-103573170D01*
X137970462Y-103582349D01*
X137950250Y-103589581D01*
X137929426Y-103594797D01*
X137908191Y-103597947D01*
X137886750Y-103599000D01*
X137449250Y-103599000D01*
X137427809Y-103597947D01*
X137406574Y-103594797D01*
X137385750Y-103589581D01*
X137365538Y-103582349D01*
X137346132Y-103573170D01*
X137327719Y-103562134D01*
X137310476Y-103549346D01*
X137294570Y-103534930D01*
X137280154Y-103519024D01*
X137267366Y-103501781D01*
X137256330Y-103483368D01*
X137247151Y-103463962D01*
X137239919Y-103443750D01*
X137234703Y-103422926D01*
X137231553Y-103401691D01*
X137230500Y-103380250D01*
X137230500Y-102867750D01*
X137231553Y-102846309D01*
X137234703Y-102825074D01*
X137239919Y-102804250D01*
X137247151Y-102784038D01*
X137256330Y-102764632D01*
X137267366Y-102746219D01*
X137280154Y-102728976D01*
X137294570Y-102713070D01*
X137310476Y-102698654D01*
X137327719Y-102685866D01*
X137346132Y-102674830D01*
X137365538Y-102665651D01*
X137385750Y-102658419D01*
X137406574Y-102653203D01*
X137427809Y-102650053D01*
X137449250Y-102649000D01*
X137886750Y-102649000D01*
X137908191Y-102650053D01*
X137908191Y-102650053D01*
G37*
D12*
X137668000Y-103124000D03*
D11*
G36*
X136333191Y-102650053D02*
X136354426Y-102653203D01*
X136375250Y-102658419D01*
X136395462Y-102665651D01*
X136414868Y-102674830D01*
X136433281Y-102685866D01*
X136450524Y-102698654D01*
X136466430Y-102713070D01*
X136480846Y-102728976D01*
X136493634Y-102746219D01*
X136504670Y-102764632D01*
X136513849Y-102784038D01*
X136521081Y-102804250D01*
X136526297Y-102825074D01*
X136529447Y-102846309D01*
X136530500Y-102867750D01*
X136530500Y-103380250D01*
X136529447Y-103401691D01*
X136526297Y-103422926D01*
X136521081Y-103443750D01*
X136513849Y-103463962D01*
X136504670Y-103483368D01*
X136493634Y-103501781D01*
X136480846Y-103519024D01*
X136466430Y-103534930D01*
X136450524Y-103549346D01*
X136433281Y-103562134D01*
X136414868Y-103573170D01*
X136395462Y-103582349D01*
X136375250Y-103589581D01*
X136354426Y-103594797D01*
X136333191Y-103597947D01*
X136311750Y-103599000D01*
X135874250Y-103599000D01*
X135852809Y-103597947D01*
X135831574Y-103594797D01*
X135810750Y-103589581D01*
X135790538Y-103582349D01*
X135771132Y-103573170D01*
X135752719Y-103562134D01*
X135735476Y-103549346D01*
X135719570Y-103534930D01*
X135705154Y-103519024D01*
X135692366Y-103501781D01*
X135681330Y-103483368D01*
X135672151Y-103463962D01*
X135664919Y-103443750D01*
X135659703Y-103422926D01*
X135656553Y-103401691D01*
X135655500Y-103380250D01*
X135655500Y-102867750D01*
X135656553Y-102846309D01*
X135659703Y-102825074D01*
X135664919Y-102804250D01*
X135672151Y-102784038D01*
X135681330Y-102764632D01*
X135692366Y-102746219D01*
X135705154Y-102728976D01*
X135719570Y-102713070D01*
X135735476Y-102698654D01*
X135752719Y-102685866D01*
X135771132Y-102674830D01*
X135790538Y-102665651D01*
X135810750Y-102658419D01*
X135831574Y-102653203D01*
X135852809Y-102650053D01*
X135874250Y-102649000D01*
X136311750Y-102649000D01*
X136333191Y-102650053D01*
X136333191Y-102650053D01*
G37*
D12*
X136093000Y-103124000D03*
G04 #@! TD*
D11*
G04 #@! TO.C,R1*
G36*
X140425191Y-106396053D02*
X140446426Y-106399203D01*
X140467250Y-106404419D01*
X140487462Y-106411651D01*
X140506868Y-106420830D01*
X140525281Y-106431866D01*
X140542524Y-106444654D01*
X140558430Y-106459070D01*
X140572846Y-106474976D01*
X140585634Y-106492219D01*
X140596670Y-106510632D01*
X140605849Y-106530038D01*
X140613081Y-106550250D01*
X140618297Y-106571074D01*
X140621447Y-106592309D01*
X140622500Y-106613750D01*
X140622500Y-107126250D01*
X140621447Y-107147691D01*
X140618297Y-107168926D01*
X140613081Y-107189750D01*
X140605849Y-107209962D01*
X140596670Y-107229368D01*
X140585634Y-107247781D01*
X140572846Y-107265024D01*
X140558430Y-107280930D01*
X140542524Y-107295346D01*
X140525281Y-107308134D01*
X140506868Y-107319170D01*
X140487462Y-107328349D01*
X140467250Y-107335581D01*
X140446426Y-107340797D01*
X140425191Y-107343947D01*
X140403750Y-107345000D01*
X139966250Y-107345000D01*
X139944809Y-107343947D01*
X139923574Y-107340797D01*
X139902750Y-107335581D01*
X139882538Y-107328349D01*
X139863132Y-107319170D01*
X139844719Y-107308134D01*
X139827476Y-107295346D01*
X139811570Y-107280930D01*
X139797154Y-107265024D01*
X139784366Y-107247781D01*
X139773330Y-107229368D01*
X139764151Y-107209962D01*
X139756919Y-107189750D01*
X139751703Y-107168926D01*
X139748553Y-107147691D01*
X139747500Y-107126250D01*
X139747500Y-106613750D01*
X139748553Y-106592309D01*
X139751703Y-106571074D01*
X139756919Y-106550250D01*
X139764151Y-106530038D01*
X139773330Y-106510632D01*
X139784366Y-106492219D01*
X139797154Y-106474976D01*
X139811570Y-106459070D01*
X139827476Y-106444654D01*
X139844719Y-106431866D01*
X139863132Y-106420830D01*
X139882538Y-106411651D01*
X139902750Y-106404419D01*
X139923574Y-106399203D01*
X139944809Y-106396053D01*
X139966250Y-106395000D01*
X140403750Y-106395000D01*
X140425191Y-106396053D01*
X140425191Y-106396053D01*
G37*
D12*
X140185000Y-106870000D03*
D11*
G36*
X142000191Y-106396053D02*
X142021426Y-106399203D01*
X142042250Y-106404419D01*
X142062462Y-106411651D01*
X142081868Y-106420830D01*
X142100281Y-106431866D01*
X142117524Y-106444654D01*
X142133430Y-106459070D01*
X142147846Y-106474976D01*
X142160634Y-106492219D01*
X142171670Y-106510632D01*
X142180849Y-106530038D01*
X142188081Y-106550250D01*
X142193297Y-106571074D01*
X142196447Y-106592309D01*
X142197500Y-106613750D01*
X142197500Y-107126250D01*
X142196447Y-107147691D01*
X142193297Y-107168926D01*
X142188081Y-107189750D01*
X142180849Y-107209962D01*
X142171670Y-107229368D01*
X142160634Y-107247781D01*
X142147846Y-107265024D01*
X142133430Y-107280930D01*
X142117524Y-107295346D01*
X142100281Y-107308134D01*
X142081868Y-107319170D01*
X142062462Y-107328349D01*
X142042250Y-107335581D01*
X142021426Y-107340797D01*
X142000191Y-107343947D01*
X141978750Y-107345000D01*
X141541250Y-107345000D01*
X141519809Y-107343947D01*
X141498574Y-107340797D01*
X141477750Y-107335581D01*
X141457538Y-107328349D01*
X141438132Y-107319170D01*
X141419719Y-107308134D01*
X141402476Y-107295346D01*
X141386570Y-107280930D01*
X141372154Y-107265024D01*
X141359366Y-107247781D01*
X141348330Y-107229368D01*
X141339151Y-107209962D01*
X141331919Y-107189750D01*
X141326703Y-107168926D01*
X141323553Y-107147691D01*
X141322500Y-107126250D01*
X141322500Y-106613750D01*
X141323553Y-106592309D01*
X141326703Y-106571074D01*
X141331919Y-106550250D01*
X141339151Y-106530038D01*
X141348330Y-106510632D01*
X141359366Y-106492219D01*
X141372154Y-106474976D01*
X141386570Y-106459070D01*
X141402476Y-106444654D01*
X141419719Y-106431866D01*
X141438132Y-106420830D01*
X141457538Y-106411651D01*
X141477750Y-106404419D01*
X141498574Y-106399203D01*
X141519809Y-106396053D01*
X141541250Y-106395000D01*
X141978750Y-106395000D01*
X142000191Y-106396053D01*
X142000191Y-106396053D01*
G37*
D12*
X141760000Y-106870000D03*
G04 #@! TD*
D11*
G04 #@! TO.C,R2*
G36*
X134145191Y-106356053D02*
X134166426Y-106359203D01*
X134187250Y-106364419D01*
X134207462Y-106371651D01*
X134226868Y-106380830D01*
X134245281Y-106391866D01*
X134262524Y-106404654D01*
X134278430Y-106419070D01*
X134292846Y-106434976D01*
X134305634Y-106452219D01*
X134316670Y-106470632D01*
X134325849Y-106490038D01*
X134333081Y-106510250D01*
X134338297Y-106531074D01*
X134341447Y-106552309D01*
X134342500Y-106573750D01*
X134342500Y-107086250D01*
X134341447Y-107107691D01*
X134338297Y-107128926D01*
X134333081Y-107149750D01*
X134325849Y-107169962D01*
X134316670Y-107189368D01*
X134305634Y-107207781D01*
X134292846Y-107225024D01*
X134278430Y-107240930D01*
X134262524Y-107255346D01*
X134245281Y-107268134D01*
X134226868Y-107279170D01*
X134207462Y-107288349D01*
X134187250Y-107295581D01*
X134166426Y-107300797D01*
X134145191Y-107303947D01*
X134123750Y-107305000D01*
X133686250Y-107305000D01*
X133664809Y-107303947D01*
X133643574Y-107300797D01*
X133622750Y-107295581D01*
X133602538Y-107288349D01*
X133583132Y-107279170D01*
X133564719Y-107268134D01*
X133547476Y-107255346D01*
X133531570Y-107240930D01*
X133517154Y-107225024D01*
X133504366Y-107207781D01*
X133493330Y-107189368D01*
X133484151Y-107169962D01*
X133476919Y-107149750D01*
X133471703Y-107128926D01*
X133468553Y-107107691D01*
X133467500Y-107086250D01*
X133467500Y-106573750D01*
X133468553Y-106552309D01*
X133471703Y-106531074D01*
X133476919Y-106510250D01*
X133484151Y-106490038D01*
X133493330Y-106470632D01*
X133504366Y-106452219D01*
X133517154Y-106434976D01*
X133531570Y-106419070D01*
X133547476Y-106404654D01*
X133564719Y-106391866D01*
X133583132Y-106380830D01*
X133602538Y-106371651D01*
X133622750Y-106364419D01*
X133643574Y-106359203D01*
X133664809Y-106356053D01*
X133686250Y-106355000D01*
X134123750Y-106355000D01*
X134145191Y-106356053D01*
X134145191Y-106356053D01*
G37*
D12*
X133905000Y-106830000D03*
D11*
G36*
X132570191Y-106356053D02*
X132591426Y-106359203D01*
X132612250Y-106364419D01*
X132632462Y-106371651D01*
X132651868Y-106380830D01*
X132670281Y-106391866D01*
X132687524Y-106404654D01*
X132703430Y-106419070D01*
X132717846Y-106434976D01*
X132730634Y-106452219D01*
X132741670Y-106470632D01*
X132750849Y-106490038D01*
X132758081Y-106510250D01*
X132763297Y-106531074D01*
X132766447Y-106552309D01*
X132767500Y-106573750D01*
X132767500Y-107086250D01*
X132766447Y-107107691D01*
X132763297Y-107128926D01*
X132758081Y-107149750D01*
X132750849Y-107169962D01*
X132741670Y-107189368D01*
X132730634Y-107207781D01*
X132717846Y-107225024D01*
X132703430Y-107240930D01*
X132687524Y-107255346D01*
X132670281Y-107268134D01*
X132651868Y-107279170D01*
X132632462Y-107288349D01*
X132612250Y-107295581D01*
X132591426Y-107300797D01*
X132570191Y-107303947D01*
X132548750Y-107305000D01*
X132111250Y-107305000D01*
X132089809Y-107303947D01*
X132068574Y-107300797D01*
X132047750Y-107295581D01*
X132027538Y-107288349D01*
X132008132Y-107279170D01*
X131989719Y-107268134D01*
X131972476Y-107255346D01*
X131956570Y-107240930D01*
X131942154Y-107225024D01*
X131929366Y-107207781D01*
X131918330Y-107189368D01*
X131909151Y-107169962D01*
X131901919Y-107149750D01*
X131896703Y-107128926D01*
X131893553Y-107107691D01*
X131892500Y-107086250D01*
X131892500Y-106573750D01*
X131893553Y-106552309D01*
X131896703Y-106531074D01*
X131901919Y-106510250D01*
X131909151Y-106490038D01*
X131918330Y-106470632D01*
X131929366Y-106452219D01*
X131942154Y-106434976D01*
X131956570Y-106419070D01*
X131972476Y-106404654D01*
X131989719Y-106391866D01*
X132008132Y-106380830D01*
X132027538Y-106371651D01*
X132047750Y-106364419D01*
X132068574Y-106359203D01*
X132089809Y-106356053D01*
X132111250Y-106355000D01*
X132548750Y-106355000D01*
X132570191Y-106356053D01*
X132570191Y-106356053D01*
G37*
D12*
X132330000Y-106830000D03*
G04 #@! TD*
D11*
G04 #@! TO.C,R4*
G36*
X147270191Y-112934053D02*
X147291426Y-112937203D01*
X147312250Y-112942419D01*
X147332462Y-112949651D01*
X147351868Y-112958830D01*
X147370281Y-112969866D01*
X147387524Y-112982654D01*
X147403430Y-112997070D01*
X147417846Y-113012976D01*
X147430634Y-113030219D01*
X147441670Y-113048632D01*
X147450849Y-113068038D01*
X147458081Y-113088250D01*
X147463297Y-113109074D01*
X147466447Y-113130309D01*
X147467500Y-113151750D01*
X147467500Y-113664250D01*
X147466447Y-113685691D01*
X147463297Y-113706926D01*
X147458081Y-113727750D01*
X147450849Y-113747962D01*
X147441670Y-113767368D01*
X147430634Y-113785781D01*
X147417846Y-113803024D01*
X147403430Y-113818930D01*
X147387524Y-113833346D01*
X147370281Y-113846134D01*
X147351868Y-113857170D01*
X147332462Y-113866349D01*
X147312250Y-113873581D01*
X147291426Y-113878797D01*
X147270191Y-113881947D01*
X147248750Y-113883000D01*
X146811250Y-113883000D01*
X146789809Y-113881947D01*
X146768574Y-113878797D01*
X146747750Y-113873581D01*
X146727538Y-113866349D01*
X146708132Y-113857170D01*
X146689719Y-113846134D01*
X146672476Y-113833346D01*
X146656570Y-113818930D01*
X146642154Y-113803024D01*
X146629366Y-113785781D01*
X146618330Y-113767368D01*
X146609151Y-113747962D01*
X146601919Y-113727750D01*
X146596703Y-113706926D01*
X146593553Y-113685691D01*
X146592500Y-113664250D01*
X146592500Y-113151750D01*
X146593553Y-113130309D01*
X146596703Y-113109074D01*
X146601919Y-113088250D01*
X146609151Y-113068038D01*
X146618330Y-113048632D01*
X146629366Y-113030219D01*
X146642154Y-113012976D01*
X146656570Y-112997070D01*
X146672476Y-112982654D01*
X146689719Y-112969866D01*
X146708132Y-112958830D01*
X146727538Y-112949651D01*
X146747750Y-112942419D01*
X146768574Y-112937203D01*
X146789809Y-112934053D01*
X146811250Y-112933000D01*
X147248750Y-112933000D01*
X147270191Y-112934053D01*
X147270191Y-112934053D01*
G37*
D12*
X147030000Y-113408000D03*
D11*
G36*
X145695191Y-112934053D02*
X145716426Y-112937203D01*
X145737250Y-112942419D01*
X145757462Y-112949651D01*
X145776868Y-112958830D01*
X145795281Y-112969866D01*
X145812524Y-112982654D01*
X145828430Y-112997070D01*
X145842846Y-113012976D01*
X145855634Y-113030219D01*
X145866670Y-113048632D01*
X145875849Y-113068038D01*
X145883081Y-113088250D01*
X145888297Y-113109074D01*
X145891447Y-113130309D01*
X145892500Y-113151750D01*
X145892500Y-113664250D01*
X145891447Y-113685691D01*
X145888297Y-113706926D01*
X145883081Y-113727750D01*
X145875849Y-113747962D01*
X145866670Y-113767368D01*
X145855634Y-113785781D01*
X145842846Y-113803024D01*
X145828430Y-113818930D01*
X145812524Y-113833346D01*
X145795281Y-113846134D01*
X145776868Y-113857170D01*
X145757462Y-113866349D01*
X145737250Y-113873581D01*
X145716426Y-113878797D01*
X145695191Y-113881947D01*
X145673750Y-113883000D01*
X145236250Y-113883000D01*
X145214809Y-113881947D01*
X145193574Y-113878797D01*
X145172750Y-113873581D01*
X145152538Y-113866349D01*
X145133132Y-113857170D01*
X145114719Y-113846134D01*
X145097476Y-113833346D01*
X145081570Y-113818930D01*
X145067154Y-113803024D01*
X145054366Y-113785781D01*
X145043330Y-113767368D01*
X145034151Y-113747962D01*
X145026919Y-113727750D01*
X145021703Y-113706926D01*
X145018553Y-113685691D01*
X145017500Y-113664250D01*
X145017500Y-113151750D01*
X145018553Y-113130309D01*
X145021703Y-113109074D01*
X145026919Y-113088250D01*
X145034151Y-113068038D01*
X145043330Y-113048632D01*
X145054366Y-113030219D01*
X145067154Y-113012976D01*
X145081570Y-112997070D01*
X145097476Y-112982654D01*
X145114719Y-112969866D01*
X145133132Y-112958830D01*
X145152538Y-112949651D01*
X145172750Y-112942419D01*
X145193574Y-112937203D01*
X145214809Y-112934053D01*
X145236250Y-112933000D01*
X145673750Y-112933000D01*
X145695191Y-112934053D01*
X145695191Y-112934053D01*
G37*
D12*
X145455000Y-113408000D03*
G04 #@! TD*
D13*
G04 #@! TO.C,SW2*
X147296000Y-107994000D03*
X147296000Y-100794000D03*
X144296000Y-107994000D03*
X144296000Y-100794000D03*
G04 #@! TD*
D14*
G04 #@! TO.C,SW3*
X126492000Y-104854000D03*
X133692000Y-104854000D03*
X126492000Y-101854000D03*
X133692000Y-101854000D03*
G04 #@! TD*
D10*
G04 #@! TO.C,SW4*
X145288000Y-145542000D03*
X127508000Y-137922000D03*
X142748000Y-145542000D03*
X130048000Y-137922000D03*
X140208000Y-145542000D03*
X132588000Y-137922000D03*
X137668000Y-145542000D03*
X135128000Y-137922000D03*
X135128000Y-145542000D03*
X137668000Y-137922000D03*
X132588000Y-145542000D03*
X140208000Y-137922000D03*
X130048000Y-145542000D03*
X142748000Y-137922000D03*
X127508000Y-145542000D03*
X145288000Y-137922000D03*
G04 #@! TD*
G04 #@! TO.C,SW6*
X145240000Y-149320000D03*
X127460000Y-156940000D03*
X142700000Y-149320000D03*
X130000000Y-156940000D03*
X140160000Y-149320000D03*
X132540000Y-156940000D03*
X137620000Y-149320000D03*
X135080000Y-156940000D03*
X135080000Y-149320000D03*
X137620000Y-156940000D03*
X132540000Y-149320000D03*
X140160000Y-156940000D03*
X130000000Y-149320000D03*
X142700000Y-156940000D03*
X127460000Y-149320000D03*
X145240000Y-156940000D03*
G04 #@! TD*
D15*
G04 #@! TO.C,U1*
X134910000Y-118960000D03*
X135710000Y-118960000D03*
X136510000Y-118960000D03*
X137310000Y-118960000D03*
X138110000Y-118960000D03*
X138910000Y-118960000D03*
X139710000Y-118960000D03*
X140510000Y-118960000D03*
D16*
X141960000Y-117510000D03*
X141960000Y-116710000D03*
X141960000Y-115910000D03*
X141960000Y-115110000D03*
X141960000Y-114310000D03*
X141960000Y-113510000D03*
X141960000Y-112710000D03*
X141960000Y-111910000D03*
D15*
X140510000Y-110460000D03*
X139710000Y-110460000D03*
X138910000Y-110460000D03*
X138110000Y-110460000D03*
X137310000Y-110460000D03*
X136510000Y-110460000D03*
X135710000Y-110460000D03*
X134910000Y-110460000D03*
D16*
X133460000Y-111910000D03*
X133460000Y-112710000D03*
X133460000Y-113510000D03*
X133460000Y-114310000D03*
X133460000Y-115110000D03*
X133460000Y-115910000D03*
X133460000Y-116710000D03*
X133460000Y-117510000D03*
G04 #@! TD*
D17*
G04 #@! TO.C,Y1*
X152400000Y-113538000D03*
X152400000Y-122038000D03*
G04 #@! TD*
D11*
G04 #@! TO.C,C1*
G36*
X145795191Y-117044053D02*
X145816426Y-117047203D01*
X145837250Y-117052419D01*
X145857462Y-117059651D01*
X145876868Y-117068830D01*
X145895281Y-117079866D01*
X145912524Y-117092654D01*
X145928430Y-117107070D01*
X145942846Y-117122976D01*
X145955634Y-117140219D01*
X145966670Y-117158632D01*
X145975849Y-117178038D01*
X145983081Y-117198250D01*
X145988297Y-117219074D01*
X145991447Y-117240309D01*
X145992500Y-117261750D01*
X145992500Y-117774250D01*
X145991447Y-117795691D01*
X145988297Y-117816926D01*
X145983081Y-117837750D01*
X145975849Y-117857962D01*
X145966670Y-117877368D01*
X145955634Y-117895781D01*
X145942846Y-117913024D01*
X145928430Y-117928930D01*
X145912524Y-117943346D01*
X145895281Y-117956134D01*
X145876868Y-117967170D01*
X145857462Y-117976349D01*
X145837250Y-117983581D01*
X145816426Y-117988797D01*
X145795191Y-117991947D01*
X145773750Y-117993000D01*
X145336250Y-117993000D01*
X145314809Y-117991947D01*
X145293574Y-117988797D01*
X145272750Y-117983581D01*
X145252538Y-117976349D01*
X145233132Y-117967170D01*
X145214719Y-117956134D01*
X145197476Y-117943346D01*
X145181570Y-117928930D01*
X145167154Y-117913024D01*
X145154366Y-117895781D01*
X145143330Y-117877368D01*
X145134151Y-117857962D01*
X145126919Y-117837750D01*
X145121703Y-117816926D01*
X145118553Y-117795691D01*
X145117500Y-117774250D01*
X145117500Y-117261750D01*
X145118553Y-117240309D01*
X145121703Y-117219074D01*
X145126919Y-117198250D01*
X145134151Y-117178038D01*
X145143330Y-117158632D01*
X145154366Y-117140219D01*
X145167154Y-117122976D01*
X145181570Y-117107070D01*
X145197476Y-117092654D01*
X145214719Y-117079866D01*
X145233132Y-117068830D01*
X145252538Y-117059651D01*
X145272750Y-117052419D01*
X145293574Y-117047203D01*
X145314809Y-117044053D01*
X145336250Y-117043000D01*
X145773750Y-117043000D01*
X145795191Y-117044053D01*
X145795191Y-117044053D01*
G37*
D12*
X145555000Y-117518000D03*
D11*
G36*
X147370191Y-117044053D02*
X147391426Y-117047203D01*
X147412250Y-117052419D01*
X147432462Y-117059651D01*
X147451868Y-117068830D01*
X147470281Y-117079866D01*
X147487524Y-117092654D01*
X147503430Y-117107070D01*
X147517846Y-117122976D01*
X147530634Y-117140219D01*
X147541670Y-117158632D01*
X147550849Y-117178038D01*
X147558081Y-117198250D01*
X147563297Y-117219074D01*
X147566447Y-117240309D01*
X147567500Y-117261750D01*
X147567500Y-117774250D01*
X147566447Y-117795691D01*
X147563297Y-117816926D01*
X147558081Y-117837750D01*
X147550849Y-117857962D01*
X147541670Y-117877368D01*
X147530634Y-117895781D01*
X147517846Y-117913024D01*
X147503430Y-117928930D01*
X147487524Y-117943346D01*
X147470281Y-117956134D01*
X147451868Y-117967170D01*
X147432462Y-117976349D01*
X147412250Y-117983581D01*
X147391426Y-117988797D01*
X147370191Y-117991947D01*
X147348750Y-117993000D01*
X146911250Y-117993000D01*
X146889809Y-117991947D01*
X146868574Y-117988797D01*
X146847750Y-117983581D01*
X146827538Y-117976349D01*
X146808132Y-117967170D01*
X146789719Y-117956134D01*
X146772476Y-117943346D01*
X146756570Y-117928930D01*
X146742154Y-117913024D01*
X146729366Y-117895781D01*
X146718330Y-117877368D01*
X146709151Y-117857962D01*
X146701919Y-117837750D01*
X146696703Y-117816926D01*
X146693553Y-117795691D01*
X146692500Y-117774250D01*
X146692500Y-117261750D01*
X146693553Y-117240309D01*
X146696703Y-117219074D01*
X146701919Y-117198250D01*
X146709151Y-117178038D01*
X146718330Y-117158632D01*
X146729366Y-117140219D01*
X146742154Y-117122976D01*
X146756570Y-117107070D01*
X146772476Y-117092654D01*
X146789719Y-117079866D01*
X146808132Y-117068830D01*
X146827538Y-117059651D01*
X146847750Y-117052419D01*
X146868574Y-117047203D01*
X146889809Y-117044053D01*
X146911250Y-117043000D01*
X147348750Y-117043000D01*
X147370191Y-117044053D01*
X147370191Y-117044053D01*
G37*
D12*
X147130000Y-117518000D03*
G04 #@! TD*
D18*
G04 #@! TO.C,J1*
X127762000Y-117602000D03*
X127762000Y-120142000D03*
X127762000Y-122682000D03*
X127762000Y-117602000D03*
X127762000Y-120142000D03*
X127762000Y-122682000D03*
G04 #@! TD*
G04 #@! TO.C,J3*
X127762000Y-108204000D03*
X127762000Y-110744000D03*
X127762000Y-113284000D03*
X127762000Y-108204000D03*
X127762000Y-110744000D03*
X127762000Y-113284000D03*
G04 #@! TD*
D11*
G04 #@! TO.C,R7*
G36*
X142402691Y-120996053D02*
X142423926Y-120999203D01*
X142444750Y-121004419D01*
X142464962Y-121011651D01*
X142484368Y-121020830D01*
X142502781Y-121031866D01*
X142520024Y-121044654D01*
X142535930Y-121059070D01*
X142550346Y-121074976D01*
X142563134Y-121092219D01*
X142574170Y-121110632D01*
X142583349Y-121130038D01*
X142590581Y-121150250D01*
X142595797Y-121171074D01*
X142598947Y-121192309D01*
X142600000Y-121213750D01*
X142600000Y-121726250D01*
X142598947Y-121747691D01*
X142595797Y-121768926D01*
X142590581Y-121789750D01*
X142583349Y-121809962D01*
X142574170Y-121829368D01*
X142563134Y-121847781D01*
X142550346Y-121865024D01*
X142535930Y-121880930D01*
X142520024Y-121895346D01*
X142502781Y-121908134D01*
X142484368Y-121919170D01*
X142464962Y-121928349D01*
X142444750Y-121935581D01*
X142423926Y-121940797D01*
X142402691Y-121943947D01*
X142381250Y-121945000D01*
X141943750Y-121945000D01*
X141922309Y-121943947D01*
X141901074Y-121940797D01*
X141880250Y-121935581D01*
X141860038Y-121928349D01*
X141840632Y-121919170D01*
X141822219Y-121908134D01*
X141804976Y-121895346D01*
X141789070Y-121880930D01*
X141774654Y-121865024D01*
X141761866Y-121847781D01*
X141750830Y-121829368D01*
X141741651Y-121809962D01*
X141734419Y-121789750D01*
X141729203Y-121768926D01*
X141726053Y-121747691D01*
X141725000Y-121726250D01*
X141725000Y-121213750D01*
X141726053Y-121192309D01*
X141729203Y-121171074D01*
X141734419Y-121150250D01*
X141741651Y-121130038D01*
X141750830Y-121110632D01*
X141761866Y-121092219D01*
X141774654Y-121074976D01*
X141789070Y-121059070D01*
X141804976Y-121044654D01*
X141822219Y-121031866D01*
X141840632Y-121020830D01*
X141860038Y-121011651D01*
X141880250Y-121004419D01*
X141901074Y-120999203D01*
X141922309Y-120996053D01*
X141943750Y-120995000D01*
X142381250Y-120995000D01*
X142402691Y-120996053D01*
X142402691Y-120996053D01*
G37*
D12*
X142162500Y-121470000D03*
D11*
G36*
X143977691Y-120996053D02*
X143998926Y-120999203D01*
X144019750Y-121004419D01*
X144039962Y-121011651D01*
X144059368Y-121020830D01*
X144077781Y-121031866D01*
X144095024Y-121044654D01*
X144110930Y-121059070D01*
X144125346Y-121074976D01*
X144138134Y-121092219D01*
X144149170Y-121110632D01*
X144158349Y-121130038D01*
X144165581Y-121150250D01*
X144170797Y-121171074D01*
X144173947Y-121192309D01*
X144175000Y-121213750D01*
X144175000Y-121726250D01*
X144173947Y-121747691D01*
X144170797Y-121768926D01*
X144165581Y-121789750D01*
X144158349Y-121809962D01*
X144149170Y-121829368D01*
X144138134Y-121847781D01*
X144125346Y-121865024D01*
X144110930Y-121880930D01*
X144095024Y-121895346D01*
X144077781Y-121908134D01*
X144059368Y-121919170D01*
X144039962Y-121928349D01*
X144019750Y-121935581D01*
X143998926Y-121940797D01*
X143977691Y-121943947D01*
X143956250Y-121945000D01*
X143518750Y-121945000D01*
X143497309Y-121943947D01*
X143476074Y-121940797D01*
X143455250Y-121935581D01*
X143435038Y-121928349D01*
X143415632Y-121919170D01*
X143397219Y-121908134D01*
X143379976Y-121895346D01*
X143364070Y-121880930D01*
X143349654Y-121865024D01*
X143336866Y-121847781D01*
X143325830Y-121829368D01*
X143316651Y-121809962D01*
X143309419Y-121789750D01*
X143304203Y-121768926D01*
X143301053Y-121747691D01*
X143300000Y-121726250D01*
X143300000Y-121213750D01*
X143301053Y-121192309D01*
X143304203Y-121171074D01*
X143309419Y-121150250D01*
X143316651Y-121130038D01*
X143325830Y-121110632D01*
X143336866Y-121092219D01*
X143349654Y-121074976D01*
X143364070Y-121059070D01*
X143379976Y-121044654D01*
X143397219Y-121031866D01*
X143415632Y-121020830D01*
X143435038Y-121011651D01*
X143455250Y-121004419D01*
X143476074Y-120999203D01*
X143497309Y-120996053D01*
X143518750Y-120995000D01*
X143956250Y-120995000D01*
X143977691Y-120996053D01*
X143977691Y-120996053D01*
G37*
D12*
X143737500Y-121470000D03*
G04 #@! TD*
D11*
G04 #@! TO.C,D2*
G36*
X135115191Y-120636053D02*
X135136426Y-120639203D01*
X135157250Y-120644419D01*
X135177462Y-120651651D01*
X135196868Y-120660830D01*
X135215281Y-120671866D01*
X135232524Y-120684654D01*
X135248430Y-120699070D01*
X135262846Y-120714976D01*
X135275634Y-120732219D01*
X135286670Y-120750632D01*
X135295849Y-120770038D01*
X135303081Y-120790250D01*
X135308297Y-120811074D01*
X135311447Y-120832309D01*
X135312500Y-120853750D01*
X135312500Y-121366250D01*
X135311447Y-121387691D01*
X135308297Y-121408926D01*
X135303081Y-121429750D01*
X135295849Y-121449962D01*
X135286670Y-121469368D01*
X135275634Y-121487781D01*
X135262846Y-121505024D01*
X135248430Y-121520930D01*
X135232524Y-121535346D01*
X135215281Y-121548134D01*
X135196868Y-121559170D01*
X135177462Y-121568349D01*
X135157250Y-121575581D01*
X135136426Y-121580797D01*
X135115191Y-121583947D01*
X135093750Y-121585000D01*
X134656250Y-121585000D01*
X134634809Y-121583947D01*
X134613574Y-121580797D01*
X134592750Y-121575581D01*
X134572538Y-121568349D01*
X134553132Y-121559170D01*
X134534719Y-121548134D01*
X134517476Y-121535346D01*
X134501570Y-121520930D01*
X134487154Y-121505024D01*
X134474366Y-121487781D01*
X134463330Y-121469368D01*
X134454151Y-121449962D01*
X134446919Y-121429750D01*
X134441703Y-121408926D01*
X134438553Y-121387691D01*
X134437500Y-121366250D01*
X134437500Y-120853750D01*
X134438553Y-120832309D01*
X134441703Y-120811074D01*
X134446919Y-120790250D01*
X134454151Y-120770038D01*
X134463330Y-120750632D01*
X134474366Y-120732219D01*
X134487154Y-120714976D01*
X134501570Y-120699070D01*
X134517476Y-120684654D01*
X134534719Y-120671866D01*
X134553132Y-120660830D01*
X134572538Y-120651651D01*
X134592750Y-120644419D01*
X134613574Y-120639203D01*
X134634809Y-120636053D01*
X134656250Y-120635000D01*
X135093750Y-120635000D01*
X135115191Y-120636053D01*
X135115191Y-120636053D01*
G37*
D12*
X134875000Y-121110000D03*
D11*
G36*
X133540191Y-120636053D02*
X133561426Y-120639203D01*
X133582250Y-120644419D01*
X133602462Y-120651651D01*
X133621868Y-120660830D01*
X133640281Y-120671866D01*
X133657524Y-120684654D01*
X133673430Y-120699070D01*
X133687846Y-120714976D01*
X133700634Y-120732219D01*
X133711670Y-120750632D01*
X133720849Y-120770038D01*
X133728081Y-120790250D01*
X133733297Y-120811074D01*
X133736447Y-120832309D01*
X133737500Y-120853750D01*
X133737500Y-121366250D01*
X133736447Y-121387691D01*
X133733297Y-121408926D01*
X133728081Y-121429750D01*
X133720849Y-121449962D01*
X133711670Y-121469368D01*
X133700634Y-121487781D01*
X133687846Y-121505024D01*
X133673430Y-121520930D01*
X133657524Y-121535346D01*
X133640281Y-121548134D01*
X133621868Y-121559170D01*
X133602462Y-121568349D01*
X133582250Y-121575581D01*
X133561426Y-121580797D01*
X133540191Y-121583947D01*
X133518750Y-121585000D01*
X133081250Y-121585000D01*
X133059809Y-121583947D01*
X133038574Y-121580797D01*
X133017750Y-121575581D01*
X132997538Y-121568349D01*
X132978132Y-121559170D01*
X132959719Y-121548134D01*
X132942476Y-121535346D01*
X132926570Y-121520930D01*
X132912154Y-121505024D01*
X132899366Y-121487781D01*
X132888330Y-121469368D01*
X132879151Y-121449962D01*
X132871919Y-121429750D01*
X132866703Y-121408926D01*
X132863553Y-121387691D01*
X132862500Y-121366250D01*
X132862500Y-120853750D01*
X132863553Y-120832309D01*
X132866703Y-120811074D01*
X132871919Y-120790250D01*
X132879151Y-120770038D01*
X132888330Y-120750632D01*
X132899366Y-120732219D01*
X132912154Y-120714976D01*
X132926570Y-120699070D01*
X132942476Y-120684654D01*
X132959719Y-120671866D01*
X132978132Y-120660830D01*
X132997538Y-120651651D01*
X133017750Y-120644419D01*
X133038574Y-120639203D01*
X133059809Y-120636053D01*
X133081250Y-120635000D01*
X133518750Y-120635000D01*
X133540191Y-120636053D01*
X133540191Y-120636053D01*
G37*
D12*
X133300000Y-121110000D03*
G04 #@! TD*
M02*
