M48
;DRILL file {KiCad 5.0.2-bee76a0~70~ubuntu14.04.1} date Fri 14 Dec 2018 04:25:14 PM MST
;FORMAT={-:-/ absolute / inch / decimal}
FMAT,2
INCH,TZ
T1C0.0157
T2C0.0354
T3C0.0394
T4C0.1260
%
G90
G05
T1
X4.9177Y-4.5419
X4.9817Y-4.5472
X5.02Y-4.98
X5.02Y-5.28
X5.034Y-5.716
X5.0453Y-4.5563
X5.1Y-5.2
X5.1004Y-4.5453
X5.12Y-4.98
X5.12Y-5.28
X5.12Y-5.73
X5.1244Y-5.0705
X5.1538Y-4.6835
X5.1783Y-4.2724
X5.1921Y-4.5789
X5.2099Y-4.2058
X5.2185Y-4.3445
X5.22Y-4.98
X5.22Y-5.28
X5.22Y-5.73
X5.2323Y-5.6122
X5.2618Y-4.2945
X5.2618Y-6.0472
X5.2635Y-4.01
X5.2635Y-4.1281
X5.2641Y-4.6988
X5.2719Y-4.2059
X5.31Y-4.7681
X5.315Y-4.6201
X5.3177Y-4.9827
X5.3181Y-4.2694
X5.32Y-5.28
X5.32Y-5.73
X5.324Y-4.5591
X5.3301Y-4.5194
X5.339Y-4.481
X5.35Y-4.1691
X5.3776Y-4.7909
X5.4173Y-4.9815
X5.42Y-4.06
X5.42Y-5.28
X5.42Y-5.73
X5.4551Y-4.469
X5.4689Y-4.7555
X5.4733Y-4.416
X5.4957Y-4.5524
X5.52Y-5.28
X5.52Y-5.73
X5.5248Y-4.9823
X5.5767Y-4.6755
X5.5774Y-4.21
X5.5866Y-4.7146
X5.62Y-5.28
X5.62Y-5.43
X5.62Y-5.73
X5.624Y-4.9809
X5.6809Y-4.2517
X5.72Y-5.28
X5.72Y-5.73
X5.72Y-5.43
X5.7201Y-4.9815
X5.7266Y-4.4649
X5.7441Y-3.8996
X5.7776Y-4.3583
X5.7886Y-4.4649
X5.7919Y-4.7027
X5.7969Y-4.781
X5.811Y-6.1909
X5.84Y-4.95
X6.0295Y-4.3307
X6.08Y-4.31
T2
X5.91Y-4.0631
X6.01Y-4.0631
T3
X5.27Y-3.74
X5.27Y-3.84
X5.37Y-3.74
X5.37Y-3.84
X5.47Y-3.74
X5.47Y-3.84
X5.57Y-3.74
X5.57Y-3.84
X5.67Y-3.74
X5.67Y-3.84
X5.77Y-3.74
X5.77Y-3.84
X5.87Y-3.74
X5.87Y-3.84
X5.2626Y-6.3209
X5.3626Y-6.3209
X5.4626Y-6.3209
T4
X5.04Y-3.81
X6.09Y-3.81
X5.04Y-6.56
X6.09Y-6.56
T0
M30
