G04 #@! TF.GenerationSoftware,KiCad,Pcbnew,5.0.0-fee4fd1~66~ubuntu14.04.1*
G04 #@! TF.CreationDate,2018-10-15T15:43:11-07:00*
G04 #@! TF.ProjectId,while,7768696C652E6B696361645F70636200,rev?*
G04 #@! TF.SameCoordinates,Original*
G04 #@! TF.FileFunction,Copper,L2,Bot,Signal*
G04 #@! TF.FilePolarity,Positive*
%FSLAX46Y46*%
G04 Gerber Fmt 4.6, Leading zero omitted, Abs format (unit mm)*
G04 Created by KiCad (PCBNEW 5.0.0-fee4fd1~66~ubuntu14.04.1) date Mon Oct 15 15:43:11 2018*
%MOMM*%
%LPD*%
G01*
G04 APERTURE LIST*
G04 #@! TA.AperFunction,ComponentPad*
%ADD10R,1.600000X1.600000*%
G04 #@! TD*
G04 #@! TA.AperFunction,ComponentPad*
%ADD11O,1.600000X1.600000*%
G04 #@! TD*
G04 #@! TA.AperFunction,ComponentPad*
%ADD12R,1.700000X1.700000*%
G04 #@! TD*
G04 #@! TA.AperFunction,ComponentPad*
%ADD13O,1.700000X1.700000*%
G04 #@! TD*
G04 #@! TA.AperFunction,ComponentPad*
%ADD14C,1.600000*%
G04 #@! TD*
G04 #@! TA.AperFunction,ComponentPad*
%ADD15R,1.800000X1.800000*%
G04 #@! TD*
G04 #@! TA.AperFunction,ComponentPad*
%ADD16C,1.800000*%
G04 #@! TD*
G04 #@! TA.AperFunction,ComponentPad*
%ADD17C,2.000000*%
G04 #@! TD*
G04 #@! TA.AperFunction,ComponentPad*
%ADD18C,1.500000*%
G04 #@! TD*
G04 #@! TA.AperFunction,Conductor*
%ADD19C,1.000000*%
G04 #@! TD*
G04 #@! TA.AperFunction,Conductor*
%ADD20C,0.250000*%
G04 #@! TD*
G04 #@! TA.AperFunction,Conductor*
%ADD21C,2.000000*%
G04 #@! TD*
G04 APERTURE END LIST*
D10*
G04 #@! TO.P,U1,1*
G04 #@! TO.N,RESET*
X125933200Y-93065600D03*
D11*
G04 #@! TO.P,U1,15*
G04 #@! TO.N,d9*
X158953200Y-85445600D03*
G04 #@! TO.P,U1,2*
G04 #@! TO.N,RX*
X128473200Y-93065600D03*
G04 #@! TO.P,U1,16*
G04 #@! TO.N,d10*
X156413200Y-85445600D03*
G04 #@! TO.P,U1,3*
G04 #@! TO.N,TX*
X131013200Y-93065600D03*
G04 #@! TO.P,U1,17*
G04 #@! TO.N,d11*
X153873200Y-85445600D03*
G04 #@! TO.P,U1,4*
G04 #@! TO.N,condSelect*
X133553200Y-93065600D03*
G04 #@! TO.P,U1,18*
G04 #@! TO.N,d12*
X151333200Y-85445600D03*
G04 #@! TO.P,U1,5*
G04 #@! TO.N,d3*
X136093200Y-93065600D03*
G04 #@! TO.P,U1,19*
G04 #@! TO.N,d13*
X148793200Y-85445600D03*
G04 #@! TO.P,U1,6*
G04 #@! TO.N,d4*
X138633200Y-93065600D03*
G04 #@! TO.P,U1,20*
G04 #@! TO.N,VCC*
X146253200Y-85445600D03*
G04 #@! TO.P,U1,7*
X141173200Y-93065600D03*
G04 #@! TO.P,U1,21*
G04 #@! TO.N,AREF*
X143713200Y-85445600D03*
G04 #@! TO.P,U1,8*
G04 #@! TO.N,GND*
X143713200Y-93065600D03*
G04 #@! TO.P,U1,22*
X141173200Y-85445600D03*
G04 #@! TO.P,U1,9*
G04 #@! TO.N,XTAL1*
X146253200Y-93065600D03*
G04 #@! TO.P,U1,23*
G04 #@! TO.N,a0*
X138633200Y-85445600D03*
G04 #@! TO.P,U1,10*
G04 #@! TO.N,XTAL2*
X148793200Y-93065600D03*
G04 #@! TO.P,U1,24*
G04 #@! TO.N,a1*
X136093200Y-85445600D03*
G04 #@! TO.P,U1,11*
G04 #@! TO.N,d5*
X151333200Y-93065600D03*
G04 #@! TO.P,U1,25*
G04 #@! TO.N,a2*
X133553200Y-85445600D03*
G04 #@! TO.P,U1,12*
G04 #@! TO.N,d6*
X153873200Y-93065600D03*
G04 #@! TO.P,U1,26*
G04 #@! TO.N,a3*
X131013200Y-85445600D03*
G04 #@! TO.P,U1,13*
G04 #@! TO.N,d7*
X156413200Y-93065600D03*
G04 #@! TO.P,U1,27*
G04 #@! TO.N,a4*
X128473200Y-85445600D03*
G04 #@! TO.P,U1,14*
G04 #@! TO.N,d8*
X158953200Y-93065600D03*
G04 #@! TO.P,U1,28*
G04 #@! TO.N,a5*
X125933200Y-85445600D03*
G04 #@! TD*
D12*
G04 #@! TO.P,J3,1*
G04 #@! TO.N,GND*
X130784600Y-121513600D03*
D13*
G04 #@! TO.P,J3,2*
X130784600Y-118973600D03*
G04 #@! TO.P,J3,3*
G04 #@! TO.N,VCC*
X130784600Y-116433600D03*
G04 #@! TO.P,J3,4*
G04 #@! TO.N,RX*
X130784600Y-113893600D03*
G04 #@! TO.P,J3,5*
G04 #@! TO.N,TX*
X130784600Y-111353600D03*
G04 #@! TO.P,J3,6*
G04 #@! TO.N,DTR*
X130784600Y-108813600D03*
G04 #@! TD*
D10*
G04 #@! TO.P,C1,1*
G04 #@! TO.N,VCC*
X126492000Y-99822000D03*
D14*
G04 #@! TO.P,C1,2*
G04 #@! TO.N,GND*
X128992000Y-99822000D03*
G04 #@! TD*
G04 #@! TO.P,C2,2*
G04 #@! TO.N,XTAL1*
X147066000Y-81036800D03*
G04 #@! TO.P,C2,1*
G04 #@! TO.N,GND*
X147066000Y-78536800D03*
G04 #@! TD*
G04 #@! TO.P,C3,1*
G04 #@! TO.N,GND*
X147040600Y-76149200D03*
G04 #@! TO.P,C3,2*
G04 #@! TO.N,XTAL2*
X149540600Y-76149200D03*
G04 #@! TD*
D11*
G04 #@! TO.P,C4,2*
G04 #@! TO.N,GND*
X129895600Y-74567400D03*
D14*
G04 #@! TO.P,C4,1*
G04 #@! TO.N,AREF*
X129895600Y-82067400D03*
G04 #@! TD*
G04 #@! TO.P,C5,1*
G04 #@! TO.N,RESET*
X126085600Y-74574400D03*
D11*
G04 #@! TO.P,C5,2*
G04 #@! TO.N,DTR*
X126085600Y-82074400D03*
G04 #@! TD*
D15*
G04 #@! TO.P,D1,1*
G04 #@! TO.N,GND*
X144145000Y-68656200D03*
D16*
G04 #@! TO.P,D1,2*
G04 #@! TO.N,Net-(D1-Pad2)*
X141605000Y-68656200D03*
G04 #@! TD*
D13*
G04 #@! TO.P,J1,3*
G04 #@! TO.N,VCC*
X126238000Y-116840000D03*
G04 #@! TO.P,J1,2*
G04 #@! TO.N,GND*
X126238000Y-114300000D03*
D12*
G04 #@! TO.P,J1,1*
G04 #@! TO.N,a0*
X126238000Y-111760000D03*
G04 #@! TD*
G04 #@! TO.P,J2,1*
G04 #@! TO.N,a1*
X159258000Y-111760000D03*
D13*
G04 #@! TO.P,J2,2*
G04 #@! TO.N,GND*
X159258000Y-114300000D03*
G04 #@! TO.P,J2,3*
G04 #@! TO.N,VCC*
X159258000Y-116840000D03*
G04 #@! TD*
D12*
G04 #@! TO.P,J4,1*
G04 #@! TO.N,a2*
X149910800Y-67183000D03*
D13*
G04 #@! TO.P,J4,2*
G04 #@! TO.N,GND*
X152450800Y-67183000D03*
G04 #@! TO.P,J4,3*
G04 #@! TO.N,VCC*
X154990800Y-67183000D03*
G04 #@! TD*
D14*
G04 #@! TO.P,R1,1*
G04 #@! TO.N,Net-(D1-Pad2)*
X136677400Y-71932800D03*
D11*
G04 #@! TO.P,R1,2*
G04 #@! TO.N,a2*
X136677400Y-82092800D03*
G04 #@! TD*
G04 #@! TO.P,R2,2*
G04 #@! TO.N,RESET*
X133400800Y-71932800D03*
D14*
G04 #@! TO.P,R2,1*
G04 #@! TO.N,VCC*
X133400800Y-82092800D03*
G04 #@! TD*
D17*
G04 #@! TO.P,SW2,2*
G04 #@! TO.N,GND*
X152196800Y-76356600D03*
G04 #@! TO.P,SW2,1*
G04 #@! TO.N,a3*
X152196800Y-71856600D03*
G04 #@! TO.P,SW2,4*
G04 #@! TO.N,Net-(SW2-Pad3)*
X158696800Y-76356600D03*
G04 #@! TO.P,SW2,3*
X158696800Y-71856600D03*
G04 #@! TD*
G04 #@! TO.P,SW3,3*
G04 #@! TO.N,Net-(SW3-Pad3)*
X139954000Y-75135600D03*
G04 #@! TO.P,SW3,4*
X144454000Y-75135600D03*
G04 #@! TO.P,SW3,1*
G04 #@! TO.N,GND*
X139954000Y-81635600D03*
G04 #@! TO.P,SW3,2*
G04 #@! TO.N,RESET*
X144454000Y-81635600D03*
G04 #@! TD*
D18*
G04 #@! TO.P,Y1,1*
G04 #@! TO.N,XTAL1*
X151815800Y-80797400D03*
G04 #@! TO.P,Y1,2*
G04 #@! TO.N,XTAL2*
X156715800Y-80797400D03*
G04 #@! TD*
D12*
G04 #@! TO.P,J5,1*
G04 #@! TO.N,a4*
X130860800Y-67106800D03*
D13*
G04 #@! TO.P,J5,2*
G04 #@! TO.N,GND*
X133400800Y-67106800D03*
G04 #@! TO.P,J5,3*
G04 #@! TO.N,VCC*
X135940800Y-67106800D03*
G04 #@! TD*
G04 #@! TO.P,J6,3*
G04 #@! TO.N,VCC*
X140944600Y-105587800D03*
G04 #@! TO.P,J6,2*
G04 #@! TO.N,condSelect*
X140944600Y-108127800D03*
D12*
G04 #@! TO.P,J6,1*
G04 #@! TO.N,GND*
X140944600Y-110667800D03*
G04 #@! TD*
D19*
G04 #@! TO.N,VCC*
X145453201Y-86245599D02*
X146253200Y-85445600D01*
X141173200Y-93065600D02*
X141173200Y-90525600D01*
X141173200Y-90525600D02*
X145453201Y-86245599D01*
X153009600Y-78435200D02*
X154432000Y-77012800D01*
X154432000Y-77012800D02*
X153870799Y-77574001D01*
X153212800Y-78232000D02*
X153009600Y-78435200D01*
X154355800Y-78232000D02*
X153212800Y-78232000D01*
X156855202Y-78232000D02*
X154355800Y-78232000D01*
X154355800Y-78232000D02*
X153670800Y-78232000D01*
X151714200Y-78384400D02*
X152958800Y-78384400D01*
X148566001Y-81532599D02*
X151714200Y-78384400D01*
X148566001Y-82777199D02*
X148566001Y-81532599D01*
X148743801Y-82954999D02*
X148566001Y-82777199D01*
X152958800Y-78384400D02*
X153009600Y-78435200D01*
X146253200Y-85445600D02*
X148743801Y-82954999D01*
D20*
X134587411Y-83279411D02*
X134200799Y-82892799D01*
X134200799Y-82892799D02*
X133400800Y-82092800D01*
X138984401Y-83410612D02*
X134718612Y-83410612D01*
X146253200Y-85445600D02*
X144442611Y-83635011D01*
X139208800Y-83635011D02*
X138984401Y-83410612D01*
X144442611Y-83635011D02*
X139208800Y-83635011D01*
X134718612Y-83410612D02*
X134200799Y-82892799D01*
D21*
X126238000Y-116840000D02*
X127762000Y-116840000D01*
X128168400Y-116433600D02*
X130784600Y-116433600D01*
X127762000Y-116840000D02*
X128168400Y-116433600D01*
D19*
X128168400Y-103298400D02*
X128168400Y-116433600D01*
X126492000Y-101622000D02*
X128168400Y-103298400D01*
X126492000Y-99822000D02*
X126492000Y-101622000D01*
X160460081Y-116840000D02*
X161258012Y-116042069D01*
X159258000Y-116840000D02*
X160460081Y-116840000D01*
X161258012Y-116042069D02*
X161258012Y-82634810D01*
X160903212Y-82280010D02*
X159979402Y-81356200D01*
X161258012Y-82634810D02*
X159979402Y-81356200D01*
X159979402Y-81356200D02*
X156855202Y-78232000D01*
X154990800Y-76352400D02*
X152958800Y-78384400D01*
X154990800Y-67183000D02*
X154990800Y-76352400D01*
D21*
X130784600Y-116433600D02*
X143154400Y-116433600D01*
X143154400Y-116433600D02*
X143560800Y-116840000D01*
D20*
X153398881Y-116840000D02*
X154254200Y-116840000D01*
X142146681Y-105587800D02*
X153398881Y-116840000D01*
X140944600Y-105587800D02*
X142146681Y-105587800D01*
D21*
X154254200Y-116840000D02*
X159258000Y-116840000D01*
X143560800Y-116840000D02*
X154254200Y-116840000D01*
D19*
X137492871Y-66756810D02*
X137142881Y-67106800D01*
X137142881Y-67106800D02*
X135940800Y-67106800D01*
X145305612Y-66756810D02*
X137492871Y-66756810D01*
X148017802Y-69469000D02*
X145305612Y-66756810D01*
X152704800Y-69469000D02*
X148017802Y-69469000D01*
X154990800Y-67183000D02*
X152704800Y-69469000D01*
D20*
G04 #@! TO.N,AREF*
X131368800Y-83540600D02*
X129895600Y-82067400D01*
X131546600Y-83718400D02*
X131368800Y-83540600D01*
X131688823Y-83860623D02*
X131368800Y-83540600D01*
X139022400Y-84085022D02*
X138798001Y-83860623D01*
X138798001Y-83860623D02*
X131688823Y-83860623D01*
X142352622Y-84085022D02*
X139022400Y-84085022D01*
X143713200Y-85445600D02*
X142352622Y-84085022D01*
G04 #@! TO.N,RESET*
X128727200Y-71932800D02*
X126085600Y-74574400D01*
X133400800Y-71932800D02*
X128727200Y-71932800D01*
X134751200Y-71932800D02*
X133400800Y-71932800D01*
X144454000Y-81635600D02*
X134751200Y-71932800D01*
G04 #@! TO.N,a0*
X138633200Y-85445600D02*
X137498234Y-84310634D01*
X137498234Y-84310634D02*
X125403164Y-84310634D01*
X125403164Y-84310634D02*
X124808199Y-84905599D01*
X126238000Y-109887801D02*
X124808199Y-108458000D01*
X126238000Y-111760000D02*
X126238000Y-109887801D01*
X124808199Y-84905599D02*
X124808199Y-108458000D01*
G04 #@! TO.N,a1*
X158158000Y-111760000D02*
X159258000Y-111760000D01*
X139758201Y-93360201D02*
X158158000Y-111760000D01*
X139758201Y-89110601D02*
X139758201Y-93360201D01*
X136093200Y-85445600D02*
X139758201Y-89110601D01*
G04 #@! TO.N,RX*
X131519596Y-96111996D02*
X131519596Y-107809594D01*
X128473200Y-93065600D02*
X131519596Y-96111996D01*
X131519596Y-107809594D02*
X131959601Y-108249599D01*
X131959601Y-112718599D02*
X131634599Y-113043601D01*
X131959601Y-108249599D02*
X131959601Y-112718599D01*
X131634599Y-113043601D02*
X130784600Y-113893600D01*
G04 #@! TO.N,a2*
X137185400Y-82092800D02*
X136677400Y-82092800D01*
X139395200Y-83185000D02*
X145034000Y-83185000D01*
X145034000Y-83185000D02*
X145796000Y-82423000D01*
X138303000Y-82092800D02*
X139395200Y-83185000D01*
X136677400Y-82092800D02*
X138303000Y-82092800D01*
X135376799Y-65931799D02*
X134594600Y-66713998D01*
X148810800Y-67183000D02*
X147559599Y-65931799D01*
X149910800Y-67183000D02*
X148810800Y-67183000D01*
X147559599Y-65931799D02*
X135376799Y-65931799D01*
X145796000Y-78931802D02*
X145796000Y-80695800D01*
X134594600Y-67730402D02*
X145796000Y-78931802D01*
X134594600Y-66713998D02*
X134594600Y-67730402D01*
X145796000Y-82423000D02*
X145796000Y-80695800D01*
G04 #@! TO.N,condSelect*
X133553200Y-103936800D02*
X133553200Y-93065600D01*
X137744200Y-108127800D02*
X133553200Y-103936800D01*
X140944600Y-108127800D02*
X137744200Y-108127800D01*
G04 #@! TD*
M02*
