G04 #@! TF.GenerationSoftware,KiCad,Pcbnew,5.0.1-33cea8e~68~ubuntu14.04.1*
G04 #@! TF.CreationDate,2018-11-23T14:42:36-08:00*
G04 #@! TF.ProjectId,while,7768696C652E6B696361645F70636200,rev?*
G04 #@! TF.SameCoordinates,Original*
G04 #@! TF.FileFunction,Copper,L2,Bot,Signal*
G04 #@! TF.FilePolarity,Positive*
%FSLAX46Y46*%
G04 Gerber Fmt 4.6, Leading zero omitted, Abs format (unit mm)*
G04 Created by KiCad (PCBNEW 5.0.1-33cea8e~68~ubuntu14.04.1) date Fri 23 Nov 2018 02:42:36 PM PST*
%MOMM*%
%LPD*%
G01*
G04 APERTURE LIST*
G04 #@! TA.AperFunction,ComponentPad*
%ADD10R,1.800000X1.800000*%
G04 #@! TD*
G04 #@! TA.AperFunction,ComponentPad*
%ADD11C,1.800000*%
G04 #@! TD*
G04 #@! TA.AperFunction,ComponentPad*
%ADD12C,6.400000*%
G04 #@! TD*
G04 #@! TA.AperFunction,ComponentPad*
%ADD13R,1.700000X1.700000*%
G04 #@! TD*
G04 #@! TA.AperFunction,ComponentPad*
%ADD14O,1.700000X1.700000*%
G04 #@! TD*
G04 #@! TA.AperFunction,SMDPad,CuDef*
%ADD15R,5.000000X2.000000*%
G04 #@! TD*
G04 #@! TA.AperFunction,ViaPad*
%ADD16C,0.800000*%
G04 #@! TD*
G04 #@! TA.AperFunction,Conductor*
%ADD17C,0.160000*%
G04 #@! TD*
G04 APERTURE END LIST*
D10*
G04 #@! TO.P,D1,1*
G04 #@! TO.N,bus13*
X150114000Y-103203000D03*
D11*
G04 #@! TO.P,D1,2*
G04 #@! TO.N,Net-(D1-Pad2)*
X152654000Y-103203000D03*
G04 #@! TD*
D12*
G04 #@! TO.P,H1,1*
G04 #@! TO.N,Net-(H1-Pad1)*
X154686000Y-166624000D03*
G04 #@! TD*
G04 #@! TO.P,H2,1*
G04 #@! TO.N,Net-(H2-Pad1)*
X128016000Y-166624000D03*
G04 #@! TD*
G04 #@! TO.P,H3,1*
G04 #@! TO.N,Net-(H3-Pad1)*
X154686000Y-96774000D03*
G04 #@! TD*
G04 #@! TO.P,H4,1*
G04 #@! TO.N,Net-(H4-Pad1)*
X128016000Y-96774000D03*
G04 #@! TD*
D13*
G04 #@! TO.P,J5,1*
G04 #@! TO.N,bus1*
X149098000Y-94996000D03*
D14*
G04 #@! TO.P,J5,2*
G04 #@! TO.N,bus2*
X149098000Y-97536000D03*
G04 #@! TO.P,J5,3*
G04 #@! TO.N,bus3*
X146558000Y-94996000D03*
G04 #@! TO.P,J5,4*
G04 #@! TO.N,bus4*
X146558000Y-97536000D03*
G04 #@! TO.P,J5,5*
G04 #@! TO.N,bus5*
X144018000Y-94996000D03*
G04 #@! TO.P,J5,6*
G04 #@! TO.N,bus6*
X144018000Y-97536000D03*
G04 #@! TO.P,J5,7*
G04 #@! TO.N,bus7*
X141478000Y-94996000D03*
G04 #@! TO.P,J5,8*
G04 #@! TO.N,bus8*
X141478000Y-97536000D03*
G04 #@! TO.P,J5,9*
G04 #@! TO.N,RX*
X138938000Y-94996000D03*
G04 #@! TO.P,J5,10*
G04 #@! TO.N,TX*
X138938000Y-97536000D03*
G04 #@! TO.P,J5,11*
G04 #@! TO.N,bus11*
X136398000Y-94996000D03*
G04 #@! TO.P,J5,12*
X136398000Y-97536000D03*
G04 #@! TO.P,J5,13*
G04 #@! TO.N,bus13*
X133858000Y-94996000D03*
G04 #@! TO.P,J5,14*
X133858000Y-97536000D03*
G04 #@! TD*
D15*
G04 #@! TO.P,J1,6*
G04 #@! TO.N,d13*
X127762000Y-117602000D03*
G04 #@! TO.P,J1,5*
G04 #@! TO.N,d12*
X127762000Y-120142000D03*
G04 #@! TO.P,J1,4*
G04 #@! TO.N,d11*
X127762000Y-122682000D03*
G04 #@! TD*
G04 #@! TO.P,J3,4*
G04 #@! TO.N,RX*
X127762000Y-108204000D03*
G04 #@! TO.P,J3,5*
G04 #@! TO.N,TX*
X127762000Y-110744000D03*
G04 #@! TO.P,J3,6*
G04 #@! TO.N,DTR*
X127762000Y-113284000D03*
G04 #@! TD*
D13*
G04 #@! TO.P,J2,1*
G04 #@! TO.N,bus13*
X133670000Y-160550000D03*
D14*
G04 #@! TO.P,J2,2*
G04 #@! TO.N,condSelect*
X136210000Y-160550000D03*
G04 #@! TO.P,J2,3*
G04 #@! TO.N,bus11*
X138750000Y-160550000D03*
G04 #@! TD*
D16*
G04 #@! TO.N,bus7*
X135070000Y-126560000D03*
G04 #@! TO.N,bus6*
X137600000Y-126530000D03*
G04 #@! TO.N,bus5*
X140330000Y-126550000D03*
G04 #@! TO.N,bus3*
X145290000Y-126530000D03*
G04 #@! TO.N,XTAL1*
X147115000Y-119448000D03*
X141900000Y-119750000D03*
G04 #@! TO.N,XTAL2*
X147240000Y-121438000D03*
X141647838Y-118757174D03*
G04 #@! TO.N,RESET*
X133692000Y-101854000D03*
X132331079Y-106827877D03*
G04 #@! TO.N,DTR*
X137668000Y-103124000D03*
G04 #@! TO.N,a0*
X131530010Y-108519957D03*
X135079958Y-108443350D03*
G04 #@! TO.N,a1*
X145288000Y-145542000D03*
X142748000Y-145542000D03*
X140208000Y-145542000D03*
X137668000Y-145542000D03*
X135128000Y-145542000D03*
X132588000Y-145542000D03*
X130048000Y-145542000D03*
X132550000Y-110350000D03*
X127862971Y-145187029D03*
G04 #@! TO.N,TX*
X131880010Y-116303331D03*
G04 #@! TO.N,a2*
X141666000Y-106934000D03*
X135000000Y-117350000D03*
X138558592Y-113511464D03*
G04 #@! TO.N,d10*
X145455000Y-113408000D03*
X147600000Y-157250000D03*
G04 #@! TO.N,d11*
X153150000Y-110000000D03*
G04 #@! TO.N,a3*
X144296000Y-107994000D03*
G04 #@! TO.N,d12*
X154432000Y-109474000D03*
X133650000Y-153600000D03*
X132900000Y-142550000D03*
G04 #@! TO.N,d13*
X124909241Y-115363077D03*
X145899998Y-99050000D03*
X139020724Y-112165136D03*
G04 #@! TO.N,a5*
X129540000Y-132080000D03*
X148336000Y-125730000D03*
G04 #@! TO.N,bus11*
X133905000Y-106830000D03*
X147030000Y-113408000D03*
X146750000Y-110699998D03*
X128150000Y-115730010D03*
X133649999Y-109080010D03*
G04 #@! TO.N,bus13*
X133692000Y-104854000D03*
X135890008Y-105894021D03*
X126534313Y-115500016D03*
X129550000Y-115450000D03*
G04 #@! TO.N,Net-(D2-Pad2)*
X132588000Y-134112000D03*
X135128000Y-134112000D03*
X130048000Y-134112000D03*
X127508000Y-134112000D03*
G04 #@! TO.N,bus1*
X145288002Y-137922002D03*
G04 #@! TO.N,RX*
X130048000Y-126492000D03*
X135230000Y-115800000D03*
G04 #@! TO.N,TX*
X135611292Y-113818004D03*
X127508000Y-126492000D03*
G04 #@! TO.N,a2*
X134875000Y-121109986D03*
G04 #@! TO.N,a3*
X139590067Y-115631332D03*
G04 #@! TO.N,a5*
X135384962Y-114792067D03*
X130158538Y-128789589D03*
X133706974Y-119350000D03*
X136590000Y-121690000D03*
G04 #@! TO.N,bus11*
X130906919Y-118960356D03*
X138910000Y-120790000D03*
G04 #@! TO.N,bus2*
X142748000Y-137922000D03*
G04 #@! TO.N,bus4*
X142850010Y-126514642D03*
G04 #@! TO.N,bus8*
X132588000Y-126492000D03*
G04 #@! TO.N,condition*
X142748000Y-134112000D03*
X140208000Y-134112000D03*
X145288000Y-134112000D03*
X137668000Y-134112000D03*
G04 #@! TD*
D17*
G04 #@! TO.N,XTAL1*
X147115000Y-119448000D02*
X148250000Y-120583000D01*
X148250000Y-120583000D02*
X148250000Y-122150000D01*
X148250000Y-122150000D02*
X148130001Y-122269999D01*
X144419999Y-122269999D02*
X142299999Y-120149999D01*
X142299999Y-120149999D02*
X141900000Y-119750000D01*
X148130001Y-122269999D02*
X144419999Y-122269999D01*
G04 #@! TO.N,XTAL2*
X142213523Y-118757174D02*
X141647838Y-118757174D01*
X144559174Y-118757174D02*
X142213523Y-118757174D01*
X147240000Y-121438000D02*
X144559174Y-118757174D01*
G04 #@! TO.N,RESET*
X132331079Y-104074921D02*
X132331079Y-106262192D01*
X133692000Y-101854000D02*
X133692000Y-102714000D01*
X132331079Y-106262192D02*
X132331079Y-106827877D01*
X133692000Y-102714000D02*
X132331079Y-104074921D01*
G04 #@! TO.N,DTR*
X129540000Y-100584000D02*
X124586010Y-105537990D01*
X125222000Y-113284000D02*
X127762000Y-113284000D01*
X124586010Y-112648010D02*
X125222000Y-113284000D01*
X135128000Y-100584000D02*
X129540000Y-100584000D01*
X124586010Y-105537990D02*
X124586010Y-112648010D01*
X137668000Y-103124000D02*
X135128000Y-100584000D01*
G04 #@! TO.N,a0*
X131930009Y-108119958D02*
X134756566Y-108119958D01*
X134756566Y-108119958D02*
X135079958Y-108443350D01*
X131530010Y-108519957D02*
X131930009Y-108119958D01*
G04 #@! TO.N,a1*
X128217942Y-145542000D02*
X127862971Y-145187029D01*
X145288000Y-145542000D02*
X128217942Y-145542000D01*
X126385989Y-134985989D02*
X126385989Y-132234011D01*
X135128000Y-145542000D02*
X135128000Y-143728000D01*
X132949999Y-117396203D02*
X132949999Y-110749999D01*
X128188003Y-126321129D02*
X129879121Y-124630011D01*
X131946931Y-118399271D02*
X132949999Y-117396203D01*
X130669121Y-124630011D02*
X131946931Y-123352201D01*
X135128000Y-143728000D02*
X126385989Y-134985989D01*
X132949999Y-110749999D02*
X132550000Y-110350000D01*
X126385989Y-132234011D02*
X128188002Y-130431998D01*
X128188002Y-130431998D02*
X128188003Y-126321129D01*
X129879121Y-124630011D02*
X130669121Y-124630011D01*
X131946931Y-123352201D02*
X131946931Y-118399271D01*
G04 #@! TO.N,RX*
X139044011Y-104517977D02*
X137643988Y-105918000D01*
X137643988Y-105918000D02*
X135890000Y-107671988D01*
X139044011Y-99822000D02*
X139044011Y-104517977D01*
X137650000Y-98427989D02*
X139044011Y-99822000D01*
X137650000Y-96284000D02*
X137650000Y-98427989D01*
X138938000Y-94996000D02*
X137650000Y-96284000D01*
X128371988Y-107671988D02*
X135890000Y-107671988D01*
X128133986Y-107433986D02*
X128371988Y-107671988D01*
X127516014Y-107433986D02*
X128133986Y-107433986D01*
X126746000Y-108204000D02*
X127516014Y-107433986D01*
G04 #@! TO.N,TX*
X126746000Y-110744000D02*
X130417672Y-110744000D01*
X130417672Y-110744000D02*
X131880010Y-112206338D01*
X131880010Y-115737646D02*
X131880010Y-116303331D01*
X131880010Y-112206338D02*
X131880010Y-115737646D01*
G04 #@! TO.N,a2*
X138958591Y-113111465D02*
X138558592Y-113511464D01*
X139038535Y-113111465D02*
X138958591Y-113111465D01*
X141666000Y-110484000D02*
X139038535Y-113111465D01*
X141666000Y-106934000D02*
X141666000Y-110484000D01*
G04 #@! TO.N,d10*
X145455000Y-113983000D02*
X150595999Y-119123999D01*
X150595999Y-119123999D02*
X150595999Y-131344001D01*
X145455000Y-113408000D02*
X145455000Y-113983000D01*
X150595999Y-131344001D02*
X144526000Y-137414000D01*
X144526000Y-141732000D02*
X147600000Y-144806000D01*
X147600000Y-156684315D02*
X147600000Y-157250000D01*
X144526000Y-137414000D02*
X144526000Y-141732000D01*
X147600000Y-144806000D02*
X147600000Y-156684315D01*
G04 #@! TO.N,d11*
X153150000Y-110000000D02*
X153150000Y-154340868D01*
X153150000Y-154340868D02*
X148990868Y-158500000D01*
X139705132Y-158500000D02*
X125157969Y-143952837D01*
X148990868Y-158500000D02*
X139705132Y-158500000D01*
X125157969Y-143952837D02*
X125157969Y-125540031D01*
X125157969Y-125540031D02*
X128016000Y-122682000D01*
G04 #@! TO.N,d12*
X134049999Y-153999999D02*
X133650000Y-153600000D01*
X154432000Y-153568000D02*
X148950000Y-159050000D01*
X139100000Y-159050000D02*
X134049999Y-153999999D01*
X148950000Y-159050000D02*
X139100000Y-159050000D01*
X154432000Y-109474000D02*
X154432000Y-153568000D01*
G04 #@! TO.N,d13*
X126262000Y-117602000D02*
X124909241Y-116249241D01*
X124909241Y-116249241D02*
X124909241Y-115928762D01*
X124909241Y-115928762D02*
X124909241Y-115363077D01*
X127762000Y-117602000D02*
X126262000Y-117602000D01*
G04 #@! TO.N,a5*
X143020162Y-132080000D02*
X129540000Y-132080000D01*
X148200000Y-126900162D02*
X143020162Y-132080000D01*
X148200000Y-125866000D02*
X148200000Y-126900162D01*
X148336000Y-125730000D02*
X148200000Y-125866000D01*
G04 #@! TO.N,bus11*
X134442500Y-106830000D02*
X133905000Y-106830000D01*
X135960433Y-106830000D02*
X134442500Y-106830000D01*
X138517999Y-100076000D02*
X138517999Y-104272434D01*
X136398000Y-97956001D02*
X138517999Y-100076000D01*
X138517999Y-104272434D02*
X135960433Y-106830000D01*
X136398000Y-97536000D02*
X136398000Y-97956001D01*
X147030000Y-110979998D02*
X146750000Y-110699998D01*
X147030000Y-113408000D02*
X147030000Y-110979998D01*
G04 #@! TO.N,bus13*
X133692000Y-104854000D02*
X134849987Y-104854000D01*
X135490009Y-105494022D02*
X135890008Y-105894021D01*
X134849987Y-104854000D02*
X135490009Y-105494022D01*
X126984328Y-115050001D02*
X129150001Y-115050001D01*
X126534313Y-115500016D02*
X126984328Y-115050001D01*
X129150001Y-115050001D02*
X129550000Y-115450000D01*
G04 #@! TO.N,bus1*
X145853687Y-137922002D02*
X145288002Y-137922002D01*
X152278012Y-131497677D02*
X145853687Y-137922002D01*
X148350000Y-116368868D02*
X152278012Y-120296880D01*
X148350000Y-101226402D02*
X148350000Y-116368868D01*
X152278012Y-120296880D02*
X152278012Y-131497677D01*
X150368000Y-99208402D02*
X148350000Y-101226402D01*
X150368000Y-95256000D02*
X150368000Y-99208402D01*
X150108000Y-94996000D02*
X150368000Y-95256000D01*
X149098000Y-94996000D02*
X150108000Y-94996000D01*
G04 #@! TO.N,RX*
X135759968Y-109096032D02*
X134610001Y-110245999D01*
X135890000Y-107671988D02*
X135759968Y-107802020D01*
X134610001Y-110245999D02*
X134610001Y-115180001D01*
X134610001Y-115180001D02*
X134830001Y-115400001D01*
X135759968Y-107802020D02*
X135759968Y-109096032D01*
X134830001Y-115400001D02*
X135230000Y-115800000D01*
X132666953Y-124833047D02*
X132666953Y-118697512D01*
X134830001Y-116534464D02*
X134830001Y-116199999D01*
X131008000Y-126492000D02*
X132666953Y-124833047D01*
X130048000Y-126492000D02*
X131008000Y-126492000D01*
X134830001Y-116199999D02*
X135230000Y-115800000D01*
X132666953Y-118697512D02*
X134830001Y-116534464D01*
G04 #@! TO.N,TX*
X136011291Y-113418005D02*
X135611292Y-113818004D01*
X139787999Y-104423737D02*
X136119979Y-108091757D01*
X138938000Y-97536000D02*
X139787999Y-98385999D01*
X136119979Y-113309317D02*
X136011291Y-113418005D01*
X139787999Y-98385999D02*
X139787999Y-104423737D01*
X136119979Y-108091757D02*
X136119979Y-113309317D01*
X128770000Y-124270000D02*
X127508000Y-125532000D01*
X131586920Y-117162106D02*
X131586920Y-122987082D01*
X131586920Y-122987082D02*
X130304002Y-124270000D01*
X131880010Y-116869016D02*
X131586920Y-117162106D01*
X131880010Y-116303331D02*
X131880010Y-116869016D01*
X127508000Y-125532000D02*
X127508000Y-126492000D01*
X130304002Y-124270000D02*
X128770000Y-124270000D01*
G04 #@! TO.N,a2*
X134600001Y-117749999D02*
X134123598Y-117749999D01*
X135000000Y-117350000D02*
X134600001Y-117749999D01*
X133026964Y-118846633D02*
X133026964Y-119827635D01*
X134123598Y-117749999D02*
X133026964Y-118846633D01*
X134309315Y-121109986D02*
X134875000Y-121109986D01*
X133026964Y-119827635D02*
X134309315Y-121109986D01*
G04 #@! TO.N,a3*
X144296000Y-110925399D02*
X139990066Y-115231333D01*
X139990066Y-115231333D02*
X139590067Y-115631332D01*
X144296000Y-107994000D02*
X144296000Y-110925399D01*
G04 #@! TO.N,d12*
X128016000Y-120142000D02*
X126171998Y-120142000D01*
X153830001Y-154169998D02*
X153830001Y-109673599D01*
X152823599Y-109319999D02*
X152469999Y-109673599D01*
X152789990Y-110646392D02*
X152789990Y-154191748D01*
X124797959Y-144101958D02*
X139556011Y-158860010D01*
X148841748Y-158139990D02*
X139854252Y-158139990D01*
X152789990Y-154191748D02*
X148841748Y-158139990D01*
X124797959Y-121516039D02*
X124797959Y-144101958D01*
X152469999Y-110326401D02*
X152789990Y-110646392D01*
X152469999Y-109673599D02*
X152469999Y-110326401D01*
X125517979Y-143803717D02*
X126771696Y-142550000D01*
X126771696Y-142550000D02*
X132900000Y-142550000D01*
X149139989Y-158860010D02*
X153830001Y-154169998D01*
X139854252Y-158139990D02*
X125517979Y-143803717D01*
X139556011Y-158860010D02*
X149139989Y-158860010D01*
X126171998Y-120142000D02*
X124797959Y-121516039D01*
X153830001Y-109673599D02*
X153476401Y-109319999D01*
X153476401Y-109319999D02*
X152823599Y-109319999D01*
G04 #@! TO.N,d13*
X145899998Y-101227398D02*
X139020724Y-108106672D01*
X139020724Y-108106672D02*
X139020724Y-111599451D01*
X145899998Y-99050000D02*
X145899998Y-101227398D01*
X139020724Y-111599451D02*
X139020724Y-112165136D01*
G04 #@! TO.N,a5*
X135910001Y-117712658D02*
X134272659Y-119350000D01*
X135910001Y-115317106D02*
X135910001Y-117712658D01*
X135384962Y-114792067D02*
X135910001Y-115317106D01*
X134272659Y-119350000D02*
X133706974Y-119350000D01*
X134240000Y-126440000D02*
X134240000Y-124870000D01*
X136590000Y-122520000D02*
X136590000Y-122255685D01*
X136590000Y-122255685D02*
X136590000Y-121690000D01*
X134240000Y-124870000D02*
X136590000Y-122520000D01*
X130158538Y-128789589D02*
X131890411Y-128789589D01*
X131890411Y-128789589D02*
X134240000Y-126440000D01*
G04 #@! TO.N,bus11*
X128150000Y-115730010D02*
X128549999Y-116130009D01*
X130906919Y-118394671D02*
X130906919Y-118960356D01*
X130295694Y-116130009D02*
X130906919Y-116741234D01*
X130906919Y-116741234D02*
X130906919Y-118394671D01*
X128549999Y-116130009D02*
X130295694Y-116130009D01*
X130586264Y-125222000D02*
X129796264Y-125222000D01*
X129796264Y-125222000D02*
X128548013Y-126470251D01*
X129820001Y-131344001D02*
X138525999Y-131344001D01*
X128548013Y-126470251D02*
X128548013Y-130072013D01*
X138525999Y-131344001D02*
X142170000Y-127700000D01*
X142170000Y-127700000D02*
X142170000Y-124050000D01*
X133649999Y-109080010D02*
X133649999Y-117205335D01*
X139309999Y-121189999D02*
X138910000Y-120790000D01*
X128548013Y-130072013D02*
X129820001Y-131344001D01*
X132306942Y-123501322D02*
X130586264Y-125222000D01*
X133649999Y-117205335D02*
X132306942Y-118548391D01*
X142170000Y-124050000D02*
X139309999Y-121189999D01*
X132306942Y-118548391D02*
X132306942Y-123501322D01*
G04 #@! TO.N,Net-(D2-Pad2)*
X127508000Y-134112000D02*
X127526000Y-134130000D01*
X127508000Y-134112000D02*
X135128000Y-134112000D01*
G04 #@! TO.N,bus2*
X149097999Y-131572001D02*
X142748000Y-137922000D01*
X138910057Y-116190803D02*
X139143589Y-116424336D01*
X149098000Y-99825396D02*
X143066034Y-105857362D01*
X143066033Y-110983967D02*
X138910057Y-115139943D01*
X149097999Y-120141999D02*
X149097999Y-131572001D01*
X139143589Y-116424336D02*
X145380336Y-116424336D01*
X143066034Y-105857362D02*
X143066033Y-110983967D01*
X149098000Y-97536000D02*
X149098000Y-99825396D01*
X138910057Y-115139943D02*
X138910057Y-116190803D01*
X145380336Y-116424336D02*
X149097999Y-120141999D01*
G04 #@! TO.N,bus3*
X142706023Y-110834845D02*
X142706024Y-105708240D01*
X140706015Y-120048705D02*
X140706015Y-118495893D01*
X147830264Y-96268264D02*
X147407999Y-95845999D01*
X145290000Y-126530000D02*
X145290000Y-124632691D01*
X140706015Y-118495893D02*
X138550046Y-116339924D01*
X147830264Y-100584000D02*
X147830264Y-96268264D01*
X138550046Y-116339924D02*
X138550046Y-114990822D01*
X142706024Y-105708240D02*
X147830264Y-100584000D01*
X147407999Y-95845999D02*
X146558000Y-94996000D01*
X145290000Y-124632691D02*
X140706015Y-120048705D01*
X138550046Y-114990822D02*
X142706023Y-110834845D01*
G04 #@! TO.N,bus4*
X140208000Y-118507012D02*
X139800000Y-118099012D01*
X142850010Y-125948957D02*
X142850010Y-126514642D01*
X142850010Y-123710010D02*
X142850010Y-125948957D01*
X139800000Y-120660000D02*
X142850010Y-123710010D01*
X139800000Y-118099012D02*
X139800000Y-120660000D01*
X139800000Y-118099012D02*
X138190035Y-116489045D01*
X142346010Y-110685726D02*
X142346010Y-105559122D01*
X147407999Y-100497133D02*
X147407999Y-98385999D01*
X142346010Y-105559122D02*
X147407999Y-100497133D01*
X147407999Y-98385999D02*
X146558000Y-97536000D01*
X138190035Y-114841701D02*
X142346010Y-110685726D01*
X138190035Y-116489045D02*
X138190035Y-114841701D01*
G04 #@! TO.N,bus5*
X139930001Y-126150001D02*
X140330000Y-126550000D01*
X137830024Y-120905358D02*
X137990021Y-121065357D01*
X137990021Y-124210021D02*
X139930001Y-126150001D01*
X137830024Y-108788240D02*
X137830024Y-120905358D01*
X137990021Y-121065357D02*
X137990021Y-124210021D01*
X145169998Y-101448266D02*
X137830024Y-108788240D01*
X145169998Y-96147998D02*
X145169998Y-101448266D01*
X144018000Y-94996000D02*
X145169998Y-96147998D01*
G04 #@! TO.N,bus6*
X144018000Y-98738081D02*
X144018000Y-97536000D01*
X144018000Y-102091132D02*
X144018000Y-98738081D01*
X137600000Y-125964315D02*
X137630011Y-125934304D01*
X137470013Y-108639119D02*
X144018000Y-102091132D01*
X137630011Y-121214477D02*
X137470013Y-121054479D01*
X137600000Y-126530000D02*
X137600000Y-125964315D01*
X137630011Y-125934304D02*
X137630011Y-121214477D01*
X137470013Y-121054479D02*
X137470013Y-108639119D01*
G04 #@! TO.N,bus7*
X137270001Y-124359999D02*
X137270001Y-121363599D01*
X137110002Y-108489998D02*
X142608001Y-102991999D01*
X142608001Y-96126001D02*
X142327999Y-95845999D01*
X142327999Y-95845999D02*
X141478000Y-94996000D01*
X137270001Y-121363599D02*
X137110002Y-121203600D01*
X142608001Y-102991999D02*
X142608001Y-96126001D01*
X135070000Y-126560000D02*
X137270001Y-124359999D01*
X137110002Y-121203600D02*
X137110002Y-108489998D01*
G04 #@! TO.N,bus8*
X132588000Y-126492000D02*
X132588000Y-125532000D01*
X136479990Y-108240878D02*
X141478000Y-103242868D01*
X141478000Y-98738081D02*
X141478000Y-97536000D01*
X136479990Y-120793608D02*
X136479990Y-108240878D01*
X132588000Y-125532000D02*
X135829999Y-122290001D01*
X141478000Y-103242868D02*
X141478000Y-98738081D01*
X135829999Y-121443599D02*
X136479990Y-120793608D01*
X135829999Y-122290001D02*
X135829999Y-121443599D01*
G04 #@! TO.N,condition*
X140208000Y-134112000D02*
X145288000Y-134112000D01*
X140208000Y-134112000D02*
X137668000Y-134112000D01*
G04 #@! TD*
G04 #@! TO.N,bus11*
G36*
X152714738Y-93823799D02*
X151735799Y-94802738D01*
X151206000Y-96081785D01*
X151206000Y-97466215D01*
X151735799Y-98745262D01*
X152714738Y-99724201D01*
X153993785Y-100254000D01*
X155378215Y-100254000D01*
X156657262Y-99724201D01*
X157636201Y-98745262D01*
X158156001Y-97490355D01*
X158156000Y-165907643D01*
X157636201Y-164652738D01*
X156657262Y-163673799D01*
X155378215Y-163144000D01*
X153993785Y-163144000D01*
X152714738Y-163673799D01*
X151735799Y-164652738D01*
X151206000Y-165931785D01*
X151206000Y-167316215D01*
X151735799Y-168595262D01*
X152714738Y-169574201D01*
X153969643Y-170094000D01*
X128732357Y-170094000D01*
X129987262Y-169574201D01*
X130966201Y-168595262D01*
X131496000Y-167316215D01*
X131496000Y-165931785D01*
X130966201Y-164652738D01*
X129987262Y-163673799D01*
X128708215Y-163144000D01*
X127323785Y-163144000D01*
X126044738Y-163673799D01*
X125065799Y-164652738D01*
X124546000Y-165907643D01*
X124546000Y-159700000D01*
X132534515Y-159700000D01*
X132534515Y-161400000D01*
X132556246Y-161509250D01*
X132618132Y-161601868D01*
X132710750Y-161663754D01*
X132820000Y-161685485D01*
X134520000Y-161685485D01*
X134629250Y-161663754D01*
X134721868Y-161601868D01*
X134783754Y-161509250D01*
X134805485Y-161400000D01*
X134805485Y-160550000D01*
X135057862Y-160550000D01*
X135145563Y-160990904D01*
X135395315Y-161364685D01*
X135769096Y-161614437D01*
X136098704Y-161680000D01*
X136321296Y-161680000D01*
X136650904Y-161614437D01*
X137024685Y-161364685D01*
X137274437Y-160990904D01*
X137294470Y-160890188D01*
X137714427Y-160890188D01*
X137923440Y-161260589D01*
X138258289Y-161522809D01*
X138409815Y-161585555D01*
X138576000Y-161565197D01*
X138576000Y-160724000D01*
X138924000Y-160724000D01*
X138924000Y-161565197D01*
X139090185Y-161585555D01*
X139241711Y-161522809D01*
X139576560Y-161260589D01*
X139785573Y-160890188D01*
X139766040Y-160724000D01*
X138924000Y-160724000D01*
X138576000Y-160724000D01*
X137733960Y-160724000D01*
X137714427Y-160890188D01*
X137294470Y-160890188D01*
X137362138Y-160550000D01*
X137294471Y-160209812D01*
X137714427Y-160209812D01*
X137733960Y-160376000D01*
X138576000Y-160376000D01*
X138576000Y-159534803D01*
X138924000Y-159534803D01*
X138924000Y-160376000D01*
X139766040Y-160376000D01*
X139785573Y-160209812D01*
X139576560Y-159839411D01*
X139241711Y-159577191D01*
X139090185Y-159514445D01*
X138924000Y-159534803D01*
X138576000Y-159534803D01*
X138409815Y-159514445D01*
X138258289Y-159577191D01*
X137923440Y-159839411D01*
X137714427Y-160209812D01*
X137294471Y-160209812D01*
X137274437Y-160109096D01*
X137024685Y-159735315D01*
X136650904Y-159485563D01*
X136321296Y-159420000D01*
X136098704Y-159420000D01*
X135769096Y-159485563D01*
X135395315Y-159735315D01*
X135145563Y-160109096D01*
X135057862Y-160550000D01*
X134805485Y-160550000D01*
X134805485Y-159700000D01*
X134783754Y-159590750D01*
X134721868Y-159498132D01*
X134629250Y-159436246D01*
X134520000Y-159414515D01*
X132820000Y-159414515D01*
X132710750Y-159436246D01*
X132618132Y-159498132D01*
X132556246Y-159590750D01*
X132534515Y-159700000D01*
X124546000Y-159700000D01*
X124546000Y-144366571D01*
X124568471Y-144381586D01*
X133237610Y-153050725D01*
X133073524Y-153214811D01*
X132970000Y-153464740D01*
X132970000Y-153735260D01*
X133073524Y-153985189D01*
X133264811Y-154176476D01*
X133514740Y-154280000D01*
X133785260Y-154280000D01*
X133810449Y-154269566D01*
X133820509Y-154279626D01*
X133820512Y-154279628D01*
X138820372Y-159279489D01*
X138840455Y-159309545D01*
X138870510Y-159329627D01*
X138959535Y-159389112D01*
X139100000Y-159417052D01*
X139135453Y-159410000D01*
X148914547Y-159410000D01*
X148950000Y-159417052D01*
X148985453Y-159410000D01*
X149090465Y-159389112D01*
X149209545Y-159309545D01*
X149229630Y-159279486D01*
X149369479Y-159139637D01*
X149399534Y-159119555D01*
X149419616Y-159089500D01*
X154059495Y-154449622D01*
X154089545Y-154429543D01*
X154109624Y-154399492D01*
X154661489Y-153847628D01*
X154691545Y-153827545D01*
X154771112Y-153708465D01*
X154792000Y-153603453D01*
X154799052Y-153568000D01*
X154792000Y-153532547D01*
X154792000Y-110060910D01*
X154817189Y-110050476D01*
X155008476Y-109859189D01*
X155112000Y-109609260D01*
X155112000Y-109338740D01*
X155008476Y-109088811D01*
X154817189Y-108897524D01*
X154567260Y-108794000D01*
X154296740Y-108794000D01*
X154046811Y-108897524D01*
X153855524Y-109088811D01*
X153825885Y-109160366D01*
X153756030Y-109090512D01*
X153735946Y-109060454D01*
X153616866Y-108980887D01*
X153511854Y-108959999D01*
X153476401Y-108952947D01*
X153440948Y-108959999D01*
X152859052Y-108959999D01*
X152823599Y-108952947D01*
X152788146Y-108959999D01*
X152683134Y-108980887D01*
X152564054Y-109060454D01*
X152543971Y-109090510D01*
X152240510Y-109393972D01*
X152210454Y-109414055D01*
X152130888Y-109533134D01*
X152130887Y-109533135D01*
X152102947Y-109673599D01*
X152109999Y-109709052D01*
X152110000Y-110290944D01*
X152102947Y-110326401D01*
X152130887Y-110466865D01*
X152166731Y-110520509D01*
X152210455Y-110585946D01*
X152240510Y-110606028D01*
X152429990Y-110795509D01*
X152429990Y-119939741D01*
X148710000Y-116219752D01*
X148710000Y-102303000D01*
X148928515Y-102303000D01*
X148928515Y-104103000D01*
X148950246Y-104212250D01*
X149012132Y-104304868D01*
X149104750Y-104366754D01*
X149214000Y-104388485D01*
X150436294Y-104388485D01*
X149971713Y-104853066D01*
X149685500Y-105544045D01*
X149685500Y-106291955D01*
X149971713Y-106982934D01*
X150500566Y-107511787D01*
X151191545Y-107798000D01*
X151939455Y-107798000D01*
X152630434Y-107511787D01*
X153159287Y-106982934D01*
X153445500Y-106291955D01*
X153445500Y-105544045D01*
X153159287Y-104853066D01*
X152689221Y-104383000D01*
X152888717Y-104383000D01*
X153322417Y-104203356D01*
X153654356Y-103871417D01*
X153834000Y-103437717D01*
X153834000Y-102968283D01*
X153654356Y-102534583D01*
X153322417Y-102202644D01*
X152888717Y-102023000D01*
X152419283Y-102023000D01*
X151985583Y-102202644D01*
X151653644Y-102534583D01*
X151474000Y-102968283D01*
X151474000Y-103437717D01*
X151653644Y-103871417D01*
X151820227Y-104038000D01*
X151299485Y-104038000D01*
X151299485Y-102303000D01*
X151277754Y-102193750D01*
X151215868Y-102101132D01*
X151123250Y-102039246D01*
X151014000Y-102017515D01*
X149214000Y-102017515D01*
X149104750Y-102039246D01*
X149012132Y-102101132D01*
X148950246Y-102193750D01*
X148928515Y-102303000D01*
X148710000Y-102303000D01*
X148710000Y-101375518D01*
X150597489Y-99488030D01*
X150627545Y-99467947D01*
X150707112Y-99348867D01*
X150728000Y-99243855D01*
X150735052Y-99208402D01*
X150728000Y-99172949D01*
X150728000Y-95291453D01*
X150735052Y-95256000D01*
X150707112Y-95115535D01*
X150647627Y-95026510D01*
X150647625Y-95026508D01*
X150627544Y-94996455D01*
X150597491Y-94976374D01*
X150387629Y-94766513D01*
X150367545Y-94736455D01*
X150248465Y-94656888D01*
X150233485Y-94653908D01*
X150233485Y-94146000D01*
X150211754Y-94036750D01*
X150149868Y-93944132D01*
X150057250Y-93882246D01*
X149948000Y-93860515D01*
X148248000Y-93860515D01*
X148138750Y-93882246D01*
X148046132Y-93944132D01*
X147984246Y-94036750D01*
X147962515Y-94146000D01*
X147962515Y-95846000D01*
X147973787Y-95902671D01*
X147687628Y-95616512D01*
X147687626Y-95616509D01*
X147576608Y-95505492D01*
X147622437Y-95436904D01*
X147710138Y-94996000D01*
X147622437Y-94555096D01*
X147372685Y-94181315D01*
X146998904Y-93931563D01*
X146669296Y-93866000D01*
X146446704Y-93866000D01*
X146117096Y-93931563D01*
X145743315Y-94181315D01*
X145493563Y-94555096D01*
X145405862Y-94996000D01*
X145493563Y-95436904D01*
X145743315Y-95810685D01*
X146117096Y-96060437D01*
X146446704Y-96126000D01*
X146669296Y-96126000D01*
X146998904Y-96060437D01*
X147067492Y-96014608D01*
X147178509Y-96125626D01*
X147178512Y-96125628D01*
X147470265Y-96417382D01*
X147470265Y-96867354D01*
X147372685Y-96721315D01*
X146998904Y-96471563D01*
X146669296Y-96406000D01*
X146446704Y-96406000D01*
X146117096Y-96471563D01*
X145743315Y-96721315D01*
X145529998Y-97040567D01*
X145529998Y-96183446D01*
X145537049Y-96147997D01*
X145529998Y-96112546D01*
X145529998Y-96112545D01*
X145509110Y-96007533D01*
X145474175Y-95955250D01*
X145449625Y-95918508D01*
X145449623Y-95918506D01*
X145429542Y-95888453D01*
X145399489Y-95868372D01*
X145036608Y-95505492D01*
X145082437Y-95436904D01*
X145170138Y-94996000D01*
X145082437Y-94555096D01*
X144832685Y-94181315D01*
X144458904Y-93931563D01*
X144129296Y-93866000D01*
X143906704Y-93866000D01*
X143577096Y-93931563D01*
X143203315Y-94181315D01*
X142953563Y-94555096D01*
X142865862Y-94996000D01*
X142953563Y-95436904D01*
X143203315Y-95810685D01*
X143577096Y-96060437D01*
X143906704Y-96126000D01*
X144129296Y-96126000D01*
X144458904Y-96060437D01*
X144527492Y-96014608D01*
X144809998Y-96297115D01*
X144809998Y-96706156D01*
X144458904Y-96471563D01*
X144129296Y-96406000D01*
X143906704Y-96406000D01*
X143577096Y-96471563D01*
X143203315Y-96721315D01*
X142968001Y-97073488D01*
X142968001Y-96161454D01*
X142975053Y-96126001D01*
X142947113Y-95985536D01*
X142887628Y-95896511D01*
X142867546Y-95866456D01*
X142837490Y-95846373D01*
X142607628Y-95616512D01*
X142607626Y-95616509D01*
X142496608Y-95505492D01*
X142542437Y-95436904D01*
X142630138Y-94996000D01*
X142542437Y-94555096D01*
X142292685Y-94181315D01*
X141918904Y-93931563D01*
X141589296Y-93866000D01*
X141366704Y-93866000D01*
X141037096Y-93931563D01*
X140663315Y-94181315D01*
X140413563Y-94555096D01*
X140325862Y-94996000D01*
X140413563Y-95436904D01*
X140663315Y-95810685D01*
X141037096Y-96060437D01*
X141366704Y-96126000D01*
X141589296Y-96126000D01*
X141918904Y-96060437D01*
X141987492Y-96014608D01*
X142098509Y-96125626D01*
X142098512Y-96125628D01*
X142248002Y-96275119D01*
X142248002Y-96691459D01*
X141918904Y-96471563D01*
X141589296Y-96406000D01*
X141366704Y-96406000D01*
X141037096Y-96471563D01*
X140663315Y-96721315D01*
X140413563Y-97095096D01*
X140325862Y-97536000D01*
X140413563Y-97976904D01*
X140663315Y-98350685D01*
X141037096Y-98600437D01*
X141118000Y-98616530D01*
X141118000Y-98773533D01*
X141118001Y-98773538D01*
X141118000Y-103093751D01*
X140147999Y-104063752D01*
X140147999Y-98421447D01*
X140155050Y-98385998D01*
X140147999Y-98350547D01*
X140147999Y-98350546D01*
X140127111Y-98245534D01*
X140075601Y-98168445D01*
X140067626Y-98156509D01*
X140067624Y-98156507D01*
X140047543Y-98126454D01*
X140017490Y-98106373D01*
X139956608Y-98045492D01*
X140002437Y-97976904D01*
X140090138Y-97536000D01*
X140002437Y-97095096D01*
X139752685Y-96721315D01*
X139378904Y-96471563D01*
X139049296Y-96406000D01*
X138826704Y-96406000D01*
X138497096Y-96471563D01*
X138123315Y-96721315D01*
X138010000Y-96890903D01*
X138010000Y-96433116D01*
X138428508Y-96014608D01*
X138497096Y-96060437D01*
X138826704Y-96126000D01*
X139049296Y-96126000D01*
X139378904Y-96060437D01*
X139752685Y-95810685D01*
X140002437Y-95436904D01*
X140090138Y-94996000D01*
X140002437Y-94555096D01*
X139752685Y-94181315D01*
X139378904Y-93931563D01*
X139049296Y-93866000D01*
X138826704Y-93866000D01*
X138497096Y-93931563D01*
X138123315Y-94181315D01*
X137873563Y-94555096D01*
X137785862Y-94996000D01*
X137873563Y-95436904D01*
X137919392Y-95505492D01*
X137420511Y-96004373D01*
X137390455Y-96024456D01*
X137331596Y-96112545D01*
X137310888Y-96143536D01*
X137282948Y-96284000D01*
X137290000Y-96319453D01*
X137290000Y-96941381D01*
X137224560Y-96825411D01*
X136889711Y-96563191D01*
X136738185Y-96500445D01*
X136572000Y-96520803D01*
X136572000Y-97362000D01*
X136592000Y-97362000D01*
X136592000Y-97710000D01*
X136572000Y-97710000D01*
X136572000Y-98551197D01*
X136738185Y-98571555D01*
X136889711Y-98508809D01*
X137224560Y-98246589D01*
X137290001Y-98130618D01*
X137290001Y-98392531D01*
X137282948Y-98427989D01*
X137310888Y-98568453D01*
X137310889Y-98568454D01*
X137390456Y-98687534D01*
X137420511Y-98707616D01*
X138684011Y-99971117D01*
X138684012Y-104368859D01*
X137414501Y-105638371D01*
X137414498Y-105638373D01*
X135740884Y-107311988D01*
X132808633Y-107311988D01*
X132907555Y-107213066D01*
X133011079Y-106963137D01*
X133011079Y-106692617D01*
X132907555Y-106442688D01*
X132716268Y-106251401D01*
X132691079Y-106240967D01*
X132691079Y-104718740D01*
X133012000Y-104718740D01*
X133012000Y-104989260D01*
X133115524Y-105239189D01*
X133306811Y-105430476D01*
X133556740Y-105534000D01*
X133827260Y-105534000D01*
X134077189Y-105430476D01*
X134268476Y-105239189D01*
X134278910Y-105214000D01*
X134700871Y-105214000D01*
X135220442Y-105733572D01*
X135210008Y-105758761D01*
X135210008Y-106029281D01*
X135313532Y-106279210D01*
X135504819Y-106470497D01*
X135754748Y-106574021D01*
X136025268Y-106574021D01*
X136275197Y-106470497D01*
X136466484Y-106279210D01*
X136570008Y-106029281D01*
X136570008Y-105758761D01*
X136466484Y-105508832D01*
X136275197Y-105317545D01*
X136025268Y-105214021D01*
X135754748Y-105214021D01*
X135729559Y-105224455D01*
X135129616Y-104624513D01*
X135109532Y-104594455D01*
X134990452Y-104514888D01*
X134885440Y-104494000D01*
X134849987Y-104486948D01*
X134814534Y-104494000D01*
X134278910Y-104494000D01*
X134268476Y-104468811D01*
X134077189Y-104277524D01*
X133827260Y-104174000D01*
X133556740Y-104174000D01*
X133306811Y-104277524D01*
X133115524Y-104468811D01*
X133012000Y-104718740D01*
X132691079Y-104718740D01*
X132691079Y-104224037D01*
X133921489Y-102993628D01*
X133951545Y-102973545D01*
X134031112Y-102854465D01*
X134052000Y-102749453D01*
X134059052Y-102714000D01*
X134052000Y-102678547D01*
X134052000Y-102440910D01*
X134077189Y-102430476D01*
X134268476Y-102239189D01*
X134372000Y-101989260D01*
X134372000Y-101718740D01*
X134268476Y-101468811D01*
X134077189Y-101277524D01*
X133827260Y-101174000D01*
X133556740Y-101174000D01*
X133306811Y-101277524D01*
X133115524Y-101468811D01*
X133012000Y-101718740D01*
X133012000Y-101989260D01*
X133115524Y-102239189D01*
X133306811Y-102430476D01*
X133332001Y-102440910D01*
X133332001Y-102564882D01*
X132101590Y-103795294D01*
X132071534Y-103815377D01*
X132051452Y-103845432D01*
X131991967Y-103934457D01*
X131964027Y-104074921D01*
X131971079Y-104110374D01*
X131971080Y-106226735D01*
X131971079Y-106226740D01*
X131971079Y-106240967D01*
X131945890Y-106251401D01*
X131754603Y-106442688D01*
X131651079Y-106692617D01*
X131651079Y-106963137D01*
X131754603Y-107213066D01*
X131853525Y-107311988D01*
X130618856Y-107311988D01*
X130618856Y-107204000D01*
X130591692Y-107067437D01*
X130514335Y-106951665D01*
X130398563Y-106874308D01*
X130262000Y-106847144D01*
X125262000Y-106847144D01*
X125125437Y-106874308D01*
X125009665Y-106951665D01*
X124946010Y-107046931D01*
X124946010Y-105687106D01*
X129689117Y-100944000D01*
X134978884Y-100944000D01*
X136998434Y-102963551D01*
X136988000Y-102988740D01*
X136988000Y-103259260D01*
X137091524Y-103509189D01*
X137282811Y-103700476D01*
X137532740Y-103804000D01*
X137803260Y-103804000D01*
X138053189Y-103700476D01*
X138244476Y-103509189D01*
X138348000Y-103259260D01*
X138348000Y-102988740D01*
X138244476Y-102738811D01*
X138053189Y-102547524D01*
X137803260Y-102444000D01*
X137532740Y-102444000D01*
X137507551Y-102454434D01*
X135407630Y-100354514D01*
X135387545Y-100324455D01*
X135268465Y-100244888D01*
X135163453Y-100224000D01*
X135128000Y-100216948D01*
X135092547Y-100224000D01*
X129575453Y-100224000D01*
X129540000Y-100216948D01*
X129504547Y-100224000D01*
X129399535Y-100244888D01*
X129280455Y-100324455D01*
X129260372Y-100354511D01*
X124546000Y-105068884D01*
X124546000Y-97490357D01*
X125065799Y-98745262D01*
X126044738Y-99724201D01*
X127323785Y-100254000D01*
X128708215Y-100254000D01*
X129987262Y-99724201D01*
X130966201Y-98745262D01*
X131467094Y-97536000D01*
X132705862Y-97536000D01*
X132793563Y-97976904D01*
X133043315Y-98350685D01*
X133417096Y-98600437D01*
X133746704Y-98666000D01*
X133969296Y-98666000D01*
X134298904Y-98600437D01*
X134672685Y-98350685D01*
X134922437Y-97976904D01*
X134942470Y-97876188D01*
X135362427Y-97876188D01*
X135571440Y-98246589D01*
X135906289Y-98508809D01*
X136057815Y-98571555D01*
X136224000Y-98551197D01*
X136224000Y-97710000D01*
X135381960Y-97710000D01*
X135362427Y-97876188D01*
X134942470Y-97876188D01*
X135010138Y-97536000D01*
X134942471Y-97195812D01*
X135362427Y-97195812D01*
X135381960Y-97362000D01*
X136224000Y-97362000D01*
X136224000Y-96520803D01*
X136057815Y-96500445D01*
X135906289Y-96563191D01*
X135571440Y-96825411D01*
X135362427Y-97195812D01*
X134942471Y-97195812D01*
X134922437Y-97095096D01*
X134672685Y-96721315D01*
X134298904Y-96471563D01*
X133969296Y-96406000D01*
X133746704Y-96406000D01*
X133417096Y-96471563D01*
X133043315Y-96721315D01*
X132793563Y-97095096D01*
X132705862Y-97536000D01*
X131467094Y-97536000D01*
X131496000Y-97466215D01*
X131496000Y-96081785D01*
X131046253Y-94996000D01*
X132705862Y-94996000D01*
X132793563Y-95436904D01*
X133043315Y-95810685D01*
X133417096Y-96060437D01*
X133746704Y-96126000D01*
X133969296Y-96126000D01*
X134298904Y-96060437D01*
X134672685Y-95810685D01*
X134922437Y-95436904D01*
X134942470Y-95336188D01*
X135362427Y-95336188D01*
X135571440Y-95706589D01*
X135906289Y-95968809D01*
X136057815Y-96031555D01*
X136224000Y-96011197D01*
X136224000Y-95170000D01*
X136572000Y-95170000D01*
X136572000Y-96011197D01*
X136738185Y-96031555D01*
X136889711Y-95968809D01*
X137224560Y-95706589D01*
X137433573Y-95336188D01*
X137414040Y-95170000D01*
X136572000Y-95170000D01*
X136224000Y-95170000D01*
X135381960Y-95170000D01*
X135362427Y-95336188D01*
X134942470Y-95336188D01*
X135010138Y-94996000D01*
X134942471Y-94655812D01*
X135362427Y-94655812D01*
X135381960Y-94822000D01*
X136224000Y-94822000D01*
X136224000Y-93980803D01*
X136572000Y-93980803D01*
X136572000Y-94822000D01*
X137414040Y-94822000D01*
X137433573Y-94655812D01*
X137224560Y-94285411D01*
X136889711Y-94023191D01*
X136738185Y-93960445D01*
X136572000Y-93980803D01*
X136224000Y-93980803D01*
X136057815Y-93960445D01*
X135906289Y-94023191D01*
X135571440Y-94285411D01*
X135362427Y-94655812D01*
X134942471Y-94655812D01*
X134922437Y-94555096D01*
X134672685Y-94181315D01*
X134298904Y-93931563D01*
X133969296Y-93866000D01*
X133746704Y-93866000D01*
X133417096Y-93931563D01*
X133043315Y-94181315D01*
X132793563Y-94555096D01*
X132705862Y-94996000D01*
X131046253Y-94996000D01*
X130966201Y-94802738D01*
X129987262Y-93823799D01*
X128732357Y-93304000D01*
X153969643Y-93304000D01*
X152714738Y-93823799D01*
X152714738Y-93823799D01*
G37*
X152714738Y-93823799D02*
X151735799Y-94802738D01*
X151206000Y-96081785D01*
X151206000Y-97466215D01*
X151735799Y-98745262D01*
X152714738Y-99724201D01*
X153993785Y-100254000D01*
X155378215Y-100254000D01*
X156657262Y-99724201D01*
X157636201Y-98745262D01*
X158156001Y-97490355D01*
X158156000Y-165907643D01*
X157636201Y-164652738D01*
X156657262Y-163673799D01*
X155378215Y-163144000D01*
X153993785Y-163144000D01*
X152714738Y-163673799D01*
X151735799Y-164652738D01*
X151206000Y-165931785D01*
X151206000Y-167316215D01*
X151735799Y-168595262D01*
X152714738Y-169574201D01*
X153969643Y-170094000D01*
X128732357Y-170094000D01*
X129987262Y-169574201D01*
X130966201Y-168595262D01*
X131496000Y-167316215D01*
X131496000Y-165931785D01*
X130966201Y-164652738D01*
X129987262Y-163673799D01*
X128708215Y-163144000D01*
X127323785Y-163144000D01*
X126044738Y-163673799D01*
X125065799Y-164652738D01*
X124546000Y-165907643D01*
X124546000Y-159700000D01*
X132534515Y-159700000D01*
X132534515Y-161400000D01*
X132556246Y-161509250D01*
X132618132Y-161601868D01*
X132710750Y-161663754D01*
X132820000Y-161685485D01*
X134520000Y-161685485D01*
X134629250Y-161663754D01*
X134721868Y-161601868D01*
X134783754Y-161509250D01*
X134805485Y-161400000D01*
X134805485Y-160550000D01*
X135057862Y-160550000D01*
X135145563Y-160990904D01*
X135395315Y-161364685D01*
X135769096Y-161614437D01*
X136098704Y-161680000D01*
X136321296Y-161680000D01*
X136650904Y-161614437D01*
X137024685Y-161364685D01*
X137274437Y-160990904D01*
X137294470Y-160890188D01*
X137714427Y-160890188D01*
X137923440Y-161260589D01*
X138258289Y-161522809D01*
X138409815Y-161585555D01*
X138576000Y-161565197D01*
X138576000Y-160724000D01*
X138924000Y-160724000D01*
X138924000Y-161565197D01*
X139090185Y-161585555D01*
X139241711Y-161522809D01*
X139576560Y-161260589D01*
X139785573Y-160890188D01*
X139766040Y-160724000D01*
X138924000Y-160724000D01*
X138576000Y-160724000D01*
X137733960Y-160724000D01*
X137714427Y-160890188D01*
X137294470Y-160890188D01*
X137362138Y-160550000D01*
X137294471Y-160209812D01*
X137714427Y-160209812D01*
X137733960Y-160376000D01*
X138576000Y-160376000D01*
X138576000Y-159534803D01*
X138924000Y-159534803D01*
X138924000Y-160376000D01*
X139766040Y-160376000D01*
X139785573Y-160209812D01*
X139576560Y-159839411D01*
X139241711Y-159577191D01*
X139090185Y-159514445D01*
X138924000Y-159534803D01*
X138576000Y-159534803D01*
X138409815Y-159514445D01*
X138258289Y-159577191D01*
X137923440Y-159839411D01*
X137714427Y-160209812D01*
X137294471Y-160209812D01*
X137274437Y-160109096D01*
X137024685Y-159735315D01*
X136650904Y-159485563D01*
X136321296Y-159420000D01*
X136098704Y-159420000D01*
X135769096Y-159485563D01*
X135395315Y-159735315D01*
X135145563Y-160109096D01*
X135057862Y-160550000D01*
X134805485Y-160550000D01*
X134805485Y-159700000D01*
X134783754Y-159590750D01*
X134721868Y-159498132D01*
X134629250Y-159436246D01*
X134520000Y-159414515D01*
X132820000Y-159414515D01*
X132710750Y-159436246D01*
X132618132Y-159498132D01*
X132556246Y-159590750D01*
X132534515Y-159700000D01*
X124546000Y-159700000D01*
X124546000Y-144366571D01*
X124568471Y-144381586D01*
X133237610Y-153050725D01*
X133073524Y-153214811D01*
X132970000Y-153464740D01*
X132970000Y-153735260D01*
X133073524Y-153985189D01*
X133264811Y-154176476D01*
X133514740Y-154280000D01*
X133785260Y-154280000D01*
X133810449Y-154269566D01*
X133820509Y-154279626D01*
X133820512Y-154279628D01*
X138820372Y-159279489D01*
X138840455Y-159309545D01*
X138870510Y-159329627D01*
X138959535Y-159389112D01*
X139100000Y-159417052D01*
X139135453Y-159410000D01*
X148914547Y-159410000D01*
X148950000Y-159417052D01*
X148985453Y-159410000D01*
X149090465Y-159389112D01*
X149209545Y-159309545D01*
X149229630Y-159279486D01*
X149369479Y-159139637D01*
X149399534Y-159119555D01*
X149419616Y-159089500D01*
X154059495Y-154449622D01*
X154089545Y-154429543D01*
X154109624Y-154399492D01*
X154661489Y-153847628D01*
X154691545Y-153827545D01*
X154771112Y-153708465D01*
X154792000Y-153603453D01*
X154799052Y-153568000D01*
X154792000Y-153532547D01*
X154792000Y-110060910D01*
X154817189Y-110050476D01*
X155008476Y-109859189D01*
X155112000Y-109609260D01*
X155112000Y-109338740D01*
X155008476Y-109088811D01*
X154817189Y-108897524D01*
X154567260Y-108794000D01*
X154296740Y-108794000D01*
X154046811Y-108897524D01*
X153855524Y-109088811D01*
X153825885Y-109160366D01*
X153756030Y-109090512D01*
X153735946Y-109060454D01*
X153616866Y-108980887D01*
X153511854Y-108959999D01*
X153476401Y-108952947D01*
X153440948Y-108959999D01*
X152859052Y-108959999D01*
X152823599Y-108952947D01*
X152788146Y-108959999D01*
X152683134Y-108980887D01*
X152564054Y-109060454D01*
X152543971Y-109090510D01*
X152240510Y-109393972D01*
X152210454Y-109414055D01*
X152130888Y-109533134D01*
X152130887Y-109533135D01*
X152102947Y-109673599D01*
X152109999Y-109709052D01*
X152110000Y-110290944D01*
X152102947Y-110326401D01*
X152130887Y-110466865D01*
X152166731Y-110520509D01*
X152210455Y-110585946D01*
X152240510Y-110606028D01*
X152429990Y-110795509D01*
X152429990Y-119939741D01*
X148710000Y-116219752D01*
X148710000Y-102303000D01*
X148928515Y-102303000D01*
X148928515Y-104103000D01*
X148950246Y-104212250D01*
X149012132Y-104304868D01*
X149104750Y-104366754D01*
X149214000Y-104388485D01*
X150436294Y-104388485D01*
X149971713Y-104853066D01*
X149685500Y-105544045D01*
X149685500Y-106291955D01*
X149971713Y-106982934D01*
X150500566Y-107511787D01*
X151191545Y-107798000D01*
X151939455Y-107798000D01*
X152630434Y-107511787D01*
X153159287Y-106982934D01*
X153445500Y-106291955D01*
X153445500Y-105544045D01*
X153159287Y-104853066D01*
X152689221Y-104383000D01*
X152888717Y-104383000D01*
X153322417Y-104203356D01*
X153654356Y-103871417D01*
X153834000Y-103437717D01*
X153834000Y-102968283D01*
X153654356Y-102534583D01*
X153322417Y-102202644D01*
X152888717Y-102023000D01*
X152419283Y-102023000D01*
X151985583Y-102202644D01*
X151653644Y-102534583D01*
X151474000Y-102968283D01*
X151474000Y-103437717D01*
X151653644Y-103871417D01*
X151820227Y-104038000D01*
X151299485Y-104038000D01*
X151299485Y-102303000D01*
X151277754Y-102193750D01*
X151215868Y-102101132D01*
X151123250Y-102039246D01*
X151014000Y-102017515D01*
X149214000Y-102017515D01*
X149104750Y-102039246D01*
X149012132Y-102101132D01*
X148950246Y-102193750D01*
X148928515Y-102303000D01*
X148710000Y-102303000D01*
X148710000Y-101375518D01*
X150597489Y-99488030D01*
X150627545Y-99467947D01*
X150707112Y-99348867D01*
X150728000Y-99243855D01*
X150735052Y-99208402D01*
X150728000Y-99172949D01*
X150728000Y-95291453D01*
X150735052Y-95256000D01*
X150707112Y-95115535D01*
X150647627Y-95026510D01*
X150647625Y-95026508D01*
X150627544Y-94996455D01*
X150597491Y-94976374D01*
X150387629Y-94766513D01*
X150367545Y-94736455D01*
X150248465Y-94656888D01*
X150233485Y-94653908D01*
X150233485Y-94146000D01*
X150211754Y-94036750D01*
X150149868Y-93944132D01*
X150057250Y-93882246D01*
X149948000Y-93860515D01*
X148248000Y-93860515D01*
X148138750Y-93882246D01*
X148046132Y-93944132D01*
X147984246Y-94036750D01*
X147962515Y-94146000D01*
X147962515Y-95846000D01*
X147973787Y-95902671D01*
X147687628Y-95616512D01*
X147687626Y-95616509D01*
X147576608Y-95505492D01*
X147622437Y-95436904D01*
X147710138Y-94996000D01*
X147622437Y-94555096D01*
X147372685Y-94181315D01*
X146998904Y-93931563D01*
X146669296Y-93866000D01*
X146446704Y-93866000D01*
X146117096Y-93931563D01*
X145743315Y-94181315D01*
X145493563Y-94555096D01*
X145405862Y-94996000D01*
X145493563Y-95436904D01*
X145743315Y-95810685D01*
X146117096Y-96060437D01*
X146446704Y-96126000D01*
X146669296Y-96126000D01*
X146998904Y-96060437D01*
X147067492Y-96014608D01*
X147178509Y-96125626D01*
X147178512Y-96125628D01*
X147470265Y-96417382D01*
X147470265Y-96867354D01*
X147372685Y-96721315D01*
X146998904Y-96471563D01*
X146669296Y-96406000D01*
X146446704Y-96406000D01*
X146117096Y-96471563D01*
X145743315Y-96721315D01*
X145529998Y-97040567D01*
X145529998Y-96183446D01*
X145537049Y-96147997D01*
X145529998Y-96112546D01*
X145529998Y-96112545D01*
X145509110Y-96007533D01*
X145474175Y-95955250D01*
X145449625Y-95918508D01*
X145449623Y-95918506D01*
X145429542Y-95888453D01*
X145399489Y-95868372D01*
X145036608Y-95505492D01*
X145082437Y-95436904D01*
X145170138Y-94996000D01*
X145082437Y-94555096D01*
X144832685Y-94181315D01*
X144458904Y-93931563D01*
X144129296Y-93866000D01*
X143906704Y-93866000D01*
X143577096Y-93931563D01*
X143203315Y-94181315D01*
X142953563Y-94555096D01*
X142865862Y-94996000D01*
X142953563Y-95436904D01*
X143203315Y-95810685D01*
X143577096Y-96060437D01*
X143906704Y-96126000D01*
X144129296Y-96126000D01*
X144458904Y-96060437D01*
X144527492Y-96014608D01*
X144809998Y-96297115D01*
X144809998Y-96706156D01*
X144458904Y-96471563D01*
X144129296Y-96406000D01*
X143906704Y-96406000D01*
X143577096Y-96471563D01*
X143203315Y-96721315D01*
X142968001Y-97073488D01*
X142968001Y-96161454D01*
X142975053Y-96126001D01*
X142947113Y-95985536D01*
X142887628Y-95896511D01*
X142867546Y-95866456D01*
X142837490Y-95846373D01*
X142607628Y-95616512D01*
X142607626Y-95616509D01*
X142496608Y-95505492D01*
X142542437Y-95436904D01*
X142630138Y-94996000D01*
X142542437Y-94555096D01*
X142292685Y-94181315D01*
X141918904Y-93931563D01*
X141589296Y-93866000D01*
X141366704Y-93866000D01*
X141037096Y-93931563D01*
X140663315Y-94181315D01*
X140413563Y-94555096D01*
X140325862Y-94996000D01*
X140413563Y-95436904D01*
X140663315Y-95810685D01*
X141037096Y-96060437D01*
X141366704Y-96126000D01*
X141589296Y-96126000D01*
X141918904Y-96060437D01*
X141987492Y-96014608D01*
X142098509Y-96125626D01*
X142098512Y-96125628D01*
X142248002Y-96275119D01*
X142248002Y-96691459D01*
X141918904Y-96471563D01*
X141589296Y-96406000D01*
X141366704Y-96406000D01*
X141037096Y-96471563D01*
X140663315Y-96721315D01*
X140413563Y-97095096D01*
X140325862Y-97536000D01*
X140413563Y-97976904D01*
X140663315Y-98350685D01*
X141037096Y-98600437D01*
X141118000Y-98616530D01*
X141118000Y-98773533D01*
X141118001Y-98773538D01*
X141118000Y-103093751D01*
X140147999Y-104063752D01*
X140147999Y-98421447D01*
X140155050Y-98385998D01*
X140147999Y-98350547D01*
X140147999Y-98350546D01*
X140127111Y-98245534D01*
X140075601Y-98168445D01*
X140067626Y-98156509D01*
X140067624Y-98156507D01*
X140047543Y-98126454D01*
X140017490Y-98106373D01*
X139956608Y-98045492D01*
X140002437Y-97976904D01*
X140090138Y-97536000D01*
X140002437Y-97095096D01*
X139752685Y-96721315D01*
X139378904Y-96471563D01*
X139049296Y-96406000D01*
X138826704Y-96406000D01*
X138497096Y-96471563D01*
X138123315Y-96721315D01*
X138010000Y-96890903D01*
X138010000Y-96433116D01*
X138428508Y-96014608D01*
X138497096Y-96060437D01*
X138826704Y-96126000D01*
X139049296Y-96126000D01*
X139378904Y-96060437D01*
X139752685Y-95810685D01*
X140002437Y-95436904D01*
X140090138Y-94996000D01*
X140002437Y-94555096D01*
X139752685Y-94181315D01*
X139378904Y-93931563D01*
X139049296Y-93866000D01*
X138826704Y-93866000D01*
X138497096Y-93931563D01*
X138123315Y-94181315D01*
X137873563Y-94555096D01*
X137785862Y-94996000D01*
X137873563Y-95436904D01*
X137919392Y-95505492D01*
X137420511Y-96004373D01*
X137390455Y-96024456D01*
X137331596Y-96112545D01*
X137310888Y-96143536D01*
X137282948Y-96284000D01*
X137290000Y-96319453D01*
X137290000Y-96941381D01*
X137224560Y-96825411D01*
X136889711Y-96563191D01*
X136738185Y-96500445D01*
X136572000Y-96520803D01*
X136572000Y-97362000D01*
X136592000Y-97362000D01*
X136592000Y-97710000D01*
X136572000Y-97710000D01*
X136572000Y-98551197D01*
X136738185Y-98571555D01*
X136889711Y-98508809D01*
X137224560Y-98246589D01*
X137290001Y-98130618D01*
X137290001Y-98392531D01*
X137282948Y-98427989D01*
X137310888Y-98568453D01*
X137310889Y-98568454D01*
X137390456Y-98687534D01*
X137420511Y-98707616D01*
X138684011Y-99971117D01*
X138684012Y-104368859D01*
X137414501Y-105638371D01*
X137414498Y-105638373D01*
X135740884Y-107311988D01*
X132808633Y-107311988D01*
X132907555Y-107213066D01*
X133011079Y-106963137D01*
X133011079Y-106692617D01*
X132907555Y-106442688D01*
X132716268Y-106251401D01*
X132691079Y-106240967D01*
X132691079Y-104718740D01*
X133012000Y-104718740D01*
X133012000Y-104989260D01*
X133115524Y-105239189D01*
X133306811Y-105430476D01*
X133556740Y-105534000D01*
X133827260Y-105534000D01*
X134077189Y-105430476D01*
X134268476Y-105239189D01*
X134278910Y-105214000D01*
X134700871Y-105214000D01*
X135220442Y-105733572D01*
X135210008Y-105758761D01*
X135210008Y-106029281D01*
X135313532Y-106279210D01*
X135504819Y-106470497D01*
X135754748Y-106574021D01*
X136025268Y-106574021D01*
X136275197Y-106470497D01*
X136466484Y-106279210D01*
X136570008Y-106029281D01*
X136570008Y-105758761D01*
X136466484Y-105508832D01*
X136275197Y-105317545D01*
X136025268Y-105214021D01*
X135754748Y-105214021D01*
X135729559Y-105224455D01*
X135129616Y-104624513D01*
X135109532Y-104594455D01*
X134990452Y-104514888D01*
X134885440Y-104494000D01*
X134849987Y-104486948D01*
X134814534Y-104494000D01*
X134278910Y-104494000D01*
X134268476Y-104468811D01*
X134077189Y-104277524D01*
X133827260Y-104174000D01*
X133556740Y-104174000D01*
X133306811Y-104277524D01*
X133115524Y-104468811D01*
X133012000Y-104718740D01*
X132691079Y-104718740D01*
X132691079Y-104224037D01*
X133921489Y-102993628D01*
X133951545Y-102973545D01*
X134031112Y-102854465D01*
X134052000Y-102749453D01*
X134059052Y-102714000D01*
X134052000Y-102678547D01*
X134052000Y-102440910D01*
X134077189Y-102430476D01*
X134268476Y-102239189D01*
X134372000Y-101989260D01*
X134372000Y-101718740D01*
X134268476Y-101468811D01*
X134077189Y-101277524D01*
X133827260Y-101174000D01*
X133556740Y-101174000D01*
X133306811Y-101277524D01*
X133115524Y-101468811D01*
X133012000Y-101718740D01*
X133012000Y-101989260D01*
X133115524Y-102239189D01*
X133306811Y-102430476D01*
X133332001Y-102440910D01*
X133332001Y-102564882D01*
X132101590Y-103795294D01*
X132071534Y-103815377D01*
X132051452Y-103845432D01*
X131991967Y-103934457D01*
X131964027Y-104074921D01*
X131971079Y-104110374D01*
X131971080Y-106226735D01*
X131971079Y-106226740D01*
X131971079Y-106240967D01*
X131945890Y-106251401D01*
X131754603Y-106442688D01*
X131651079Y-106692617D01*
X131651079Y-106963137D01*
X131754603Y-107213066D01*
X131853525Y-107311988D01*
X130618856Y-107311988D01*
X130618856Y-107204000D01*
X130591692Y-107067437D01*
X130514335Y-106951665D01*
X130398563Y-106874308D01*
X130262000Y-106847144D01*
X125262000Y-106847144D01*
X125125437Y-106874308D01*
X125009665Y-106951665D01*
X124946010Y-107046931D01*
X124946010Y-105687106D01*
X129689117Y-100944000D01*
X134978884Y-100944000D01*
X136998434Y-102963551D01*
X136988000Y-102988740D01*
X136988000Y-103259260D01*
X137091524Y-103509189D01*
X137282811Y-103700476D01*
X137532740Y-103804000D01*
X137803260Y-103804000D01*
X138053189Y-103700476D01*
X138244476Y-103509189D01*
X138348000Y-103259260D01*
X138348000Y-102988740D01*
X138244476Y-102738811D01*
X138053189Y-102547524D01*
X137803260Y-102444000D01*
X137532740Y-102444000D01*
X137507551Y-102454434D01*
X135407630Y-100354514D01*
X135387545Y-100324455D01*
X135268465Y-100244888D01*
X135163453Y-100224000D01*
X135128000Y-100216948D01*
X135092547Y-100224000D01*
X129575453Y-100224000D01*
X129540000Y-100216948D01*
X129504547Y-100224000D01*
X129399535Y-100244888D01*
X129280455Y-100324455D01*
X129260372Y-100354511D01*
X124546000Y-105068884D01*
X124546000Y-97490357D01*
X125065799Y-98745262D01*
X126044738Y-99724201D01*
X127323785Y-100254000D01*
X128708215Y-100254000D01*
X129987262Y-99724201D01*
X130966201Y-98745262D01*
X131467094Y-97536000D01*
X132705862Y-97536000D01*
X132793563Y-97976904D01*
X133043315Y-98350685D01*
X133417096Y-98600437D01*
X133746704Y-98666000D01*
X133969296Y-98666000D01*
X134298904Y-98600437D01*
X134672685Y-98350685D01*
X134922437Y-97976904D01*
X134942470Y-97876188D01*
X135362427Y-97876188D01*
X135571440Y-98246589D01*
X135906289Y-98508809D01*
X136057815Y-98571555D01*
X136224000Y-98551197D01*
X136224000Y-97710000D01*
X135381960Y-97710000D01*
X135362427Y-97876188D01*
X134942470Y-97876188D01*
X135010138Y-97536000D01*
X134942471Y-97195812D01*
X135362427Y-97195812D01*
X135381960Y-97362000D01*
X136224000Y-97362000D01*
X136224000Y-96520803D01*
X136057815Y-96500445D01*
X135906289Y-96563191D01*
X135571440Y-96825411D01*
X135362427Y-97195812D01*
X134942471Y-97195812D01*
X134922437Y-97095096D01*
X134672685Y-96721315D01*
X134298904Y-96471563D01*
X133969296Y-96406000D01*
X133746704Y-96406000D01*
X133417096Y-96471563D01*
X133043315Y-96721315D01*
X132793563Y-97095096D01*
X132705862Y-97536000D01*
X131467094Y-97536000D01*
X131496000Y-97466215D01*
X131496000Y-96081785D01*
X131046253Y-94996000D01*
X132705862Y-94996000D01*
X132793563Y-95436904D01*
X133043315Y-95810685D01*
X133417096Y-96060437D01*
X133746704Y-96126000D01*
X133969296Y-96126000D01*
X134298904Y-96060437D01*
X134672685Y-95810685D01*
X134922437Y-95436904D01*
X134942470Y-95336188D01*
X135362427Y-95336188D01*
X135571440Y-95706589D01*
X135906289Y-95968809D01*
X136057815Y-96031555D01*
X136224000Y-96011197D01*
X136224000Y-95170000D01*
X136572000Y-95170000D01*
X136572000Y-96011197D01*
X136738185Y-96031555D01*
X136889711Y-95968809D01*
X137224560Y-95706589D01*
X137433573Y-95336188D01*
X137414040Y-95170000D01*
X136572000Y-95170000D01*
X136224000Y-95170000D01*
X135381960Y-95170000D01*
X135362427Y-95336188D01*
X134942470Y-95336188D01*
X135010138Y-94996000D01*
X134942471Y-94655812D01*
X135362427Y-94655812D01*
X135381960Y-94822000D01*
X136224000Y-94822000D01*
X136224000Y-93980803D01*
X136572000Y-93980803D01*
X136572000Y-94822000D01*
X137414040Y-94822000D01*
X137433573Y-94655812D01*
X137224560Y-94285411D01*
X136889711Y-94023191D01*
X136738185Y-93960445D01*
X136572000Y-93980803D01*
X136224000Y-93980803D01*
X136057815Y-93960445D01*
X135906289Y-94023191D01*
X135571440Y-94285411D01*
X135362427Y-94655812D01*
X134942471Y-94655812D01*
X134922437Y-94555096D01*
X134672685Y-94181315D01*
X134298904Y-93931563D01*
X133969296Y-93866000D01*
X133746704Y-93866000D01*
X133417096Y-93931563D01*
X133043315Y-94181315D01*
X132793563Y-94555096D01*
X132705862Y-94996000D01*
X131046253Y-94996000D01*
X130966201Y-94802738D01*
X129987262Y-93823799D01*
X128732357Y-93304000D01*
X153969643Y-93304000D01*
X152714738Y-93823799D01*
G36*
X147990001Y-116008885D02*
X145902891Y-113921774D01*
X146031476Y-113793189D01*
X146135000Y-113543260D01*
X146135000Y-113272740D01*
X146031476Y-113022811D01*
X145840189Y-112831524D01*
X145590260Y-112728000D01*
X145319740Y-112728000D01*
X145069811Y-112831524D01*
X144878524Y-113022811D01*
X144775000Y-113272740D01*
X144775000Y-113543260D01*
X144878524Y-113793189D01*
X145069811Y-113984476D01*
X145089896Y-113992796D01*
X145115888Y-114123464D01*
X145169162Y-114203193D01*
X145195456Y-114242545D01*
X145225512Y-114262628D01*
X150235999Y-119273116D01*
X150236000Y-131194883D01*
X144296511Y-137134373D01*
X144266455Y-137154456D01*
X144246373Y-137184511D01*
X144186888Y-137273536D01*
X144158948Y-137414000D01*
X144166000Y-137449453D01*
X144166001Y-141696542D01*
X144158948Y-141732000D01*
X144186888Y-141872464D01*
X144186889Y-141872465D01*
X144266456Y-141991545D01*
X144296511Y-142011628D01*
X147240000Y-144955117D01*
X147240001Y-156648858D01*
X147240000Y-156648863D01*
X147240000Y-156663090D01*
X147214811Y-156673524D01*
X147023524Y-156864811D01*
X146920000Y-157114740D01*
X146920000Y-157385260D01*
X147023524Y-157635189D01*
X147168325Y-157779990D01*
X140003369Y-157779990D01*
X128111198Y-145887819D01*
X128217942Y-145909052D01*
X128253395Y-145902000D01*
X129461090Y-145902000D01*
X129471524Y-145927189D01*
X129662811Y-146118476D01*
X129912740Y-146222000D01*
X130183260Y-146222000D01*
X130433189Y-146118476D01*
X130624476Y-145927189D01*
X130634910Y-145902000D01*
X132001090Y-145902000D01*
X132011524Y-145927189D01*
X132202811Y-146118476D01*
X132452740Y-146222000D01*
X132723260Y-146222000D01*
X132973189Y-146118476D01*
X133164476Y-145927189D01*
X133174910Y-145902000D01*
X134541090Y-145902000D01*
X134551524Y-145927189D01*
X134742811Y-146118476D01*
X134992740Y-146222000D01*
X135263260Y-146222000D01*
X135513189Y-146118476D01*
X135704476Y-145927189D01*
X135714910Y-145902000D01*
X137081090Y-145902000D01*
X137091524Y-145927189D01*
X137282811Y-146118476D01*
X137532740Y-146222000D01*
X137803260Y-146222000D01*
X138053189Y-146118476D01*
X138244476Y-145927189D01*
X138254910Y-145902000D01*
X139621090Y-145902000D01*
X139631524Y-145927189D01*
X139822811Y-146118476D01*
X140072740Y-146222000D01*
X140343260Y-146222000D01*
X140593189Y-146118476D01*
X140784476Y-145927189D01*
X140794910Y-145902000D01*
X142161090Y-145902000D01*
X142171524Y-145927189D01*
X142362811Y-146118476D01*
X142612740Y-146222000D01*
X142883260Y-146222000D01*
X143133189Y-146118476D01*
X143324476Y-145927189D01*
X143334910Y-145902000D01*
X144701090Y-145902000D01*
X144711524Y-145927189D01*
X144902811Y-146118476D01*
X145152740Y-146222000D01*
X145423260Y-146222000D01*
X145673189Y-146118476D01*
X145864476Y-145927189D01*
X145968000Y-145677260D01*
X145968000Y-145406740D01*
X145864476Y-145156811D01*
X145673189Y-144965524D01*
X145423260Y-144862000D01*
X145152740Y-144862000D01*
X144902811Y-144965524D01*
X144711524Y-145156811D01*
X144701090Y-145182000D01*
X143334910Y-145182000D01*
X143324476Y-145156811D01*
X143133189Y-144965524D01*
X142883260Y-144862000D01*
X142612740Y-144862000D01*
X142362811Y-144965524D01*
X142171524Y-145156811D01*
X142161090Y-145182000D01*
X140794910Y-145182000D01*
X140784476Y-145156811D01*
X140593189Y-144965524D01*
X140343260Y-144862000D01*
X140072740Y-144862000D01*
X139822811Y-144965524D01*
X139631524Y-145156811D01*
X139621090Y-145182000D01*
X138254910Y-145182000D01*
X138244476Y-145156811D01*
X138053189Y-144965524D01*
X137803260Y-144862000D01*
X137532740Y-144862000D01*
X137282811Y-144965524D01*
X137091524Y-145156811D01*
X137081090Y-145182000D01*
X135714910Y-145182000D01*
X135704476Y-145156811D01*
X135513189Y-144965524D01*
X135488000Y-144955090D01*
X135488000Y-143763453D01*
X135495052Y-143728000D01*
X135467112Y-143587535D01*
X135465943Y-143585785D01*
X135387545Y-143468455D01*
X135357489Y-143448372D01*
X126745989Y-134836873D01*
X126745989Y-133976740D01*
X126828000Y-133976740D01*
X126828000Y-134247260D01*
X126931524Y-134497189D01*
X127122811Y-134688476D01*
X127372740Y-134792000D01*
X127643260Y-134792000D01*
X127893189Y-134688476D01*
X128084476Y-134497189D01*
X128094910Y-134472000D01*
X129461090Y-134472000D01*
X129471524Y-134497189D01*
X129662811Y-134688476D01*
X129912740Y-134792000D01*
X130183260Y-134792000D01*
X130433189Y-134688476D01*
X130624476Y-134497189D01*
X130634910Y-134472000D01*
X132001090Y-134472000D01*
X132011524Y-134497189D01*
X132202811Y-134688476D01*
X132452740Y-134792000D01*
X132723260Y-134792000D01*
X132973189Y-134688476D01*
X133164476Y-134497189D01*
X133174910Y-134472000D01*
X134541090Y-134472000D01*
X134551524Y-134497189D01*
X134742811Y-134688476D01*
X134992740Y-134792000D01*
X135263260Y-134792000D01*
X135513189Y-134688476D01*
X135704476Y-134497189D01*
X135808000Y-134247260D01*
X135808000Y-133976740D01*
X135704476Y-133726811D01*
X135513189Y-133535524D01*
X135263260Y-133432000D01*
X134992740Y-133432000D01*
X134742811Y-133535524D01*
X134551524Y-133726811D01*
X134541090Y-133752000D01*
X133174910Y-133752000D01*
X133164476Y-133726811D01*
X132973189Y-133535524D01*
X132723260Y-133432000D01*
X132452740Y-133432000D01*
X132202811Y-133535524D01*
X132011524Y-133726811D01*
X132001090Y-133752000D01*
X130634910Y-133752000D01*
X130624476Y-133726811D01*
X130433189Y-133535524D01*
X130183260Y-133432000D01*
X129912740Y-133432000D01*
X129662811Y-133535524D01*
X129471524Y-133726811D01*
X129461090Y-133752000D01*
X128094910Y-133752000D01*
X128084476Y-133726811D01*
X127893189Y-133535524D01*
X127643260Y-133432000D01*
X127372740Y-133432000D01*
X127122811Y-133535524D01*
X126931524Y-133726811D01*
X126828000Y-133976740D01*
X126745989Y-133976740D01*
X126745989Y-132383127D01*
X128417493Y-130711624D01*
X128447546Y-130691543D01*
X128467627Y-130661490D01*
X128467629Y-130661488D01*
X128527113Y-130572463D01*
X128555053Y-130431999D01*
X128548001Y-130396546D01*
X128548003Y-126470245D01*
X130028238Y-124990011D01*
X130633668Y-124990011D01*
X130669121Y-124997063D01*
X130704574Y-124990011D01*
X130809586Y-124969123D01*
X130928666Y-124889556D01*
X130948750Y-124859498D01*
X132176422Y-123631827D01*
X132206475Y-123611746D01*
X132226556Y-123581693D01*
X132226558Y-123581691D01*
X132248057Y-123549514D01*
X132286043Y-123492666D01*
X132306931Y-123387654D01*
X132306931Y-123387650D01*
X132306953Y-123387538D01*
X132306953Y-124683930D01*
X130858884Y-126132000D01*
X130634910Y-126132000D01*
X130624476Y-126106811D01*
X130433189Y-125915524D01*
X130183260Y-125812000D01*
X129912740Y-125812000D01*
X129662811Y-125915524D01*
X129471524Y-126106811D01*
X129368000Y-126356740D01*
X129368000Y-126627260D01*
X129471524Y-126877189D01*
X129662811Y-127068476D01*
X129912740Y-127172000D01*
X130183260Y-127172000D01*
X130433189Y-127068476D01*
X130624476Y-126877189D01*
X130634910Y-126852000D01*
X130972547Y-126852000D01*
X131008000Y-126859052D01*
X131043453Y-126852000D01*
X131148465Y-126831112D01*
X131267545Y-126751545D01*
X131287630Y-126721487D01*
X132228001Y-125781116D01*
X132228001Y-125905090D01*
X132202811Y-125915524D01*
X132011524Y-126106811D01*
X131908000Y-126356740D01*
X131908000Y-126627260D01*
X132011524Y-126877189D01*
X132202811Y-127068476D01*
X132452740Y-127172000D01*
X132723260Y-127172000D01*
X132973189Y-127068476D01*
X133164476Y-126877189D01*
X133268000Y-126627260D01*
X133268000Y-126356740D01*
X133164476Y-126106811D01*
X132973189Y-125915524D01*
X132948000Y-125905090D01*
X132948000Y-125681116D01*
X133903521Y-124725595D01*
X133900888Y-124729536D01*
X133872948Y-124870000D01*
X133880001Y-124905458D01*
X133880000Y-126290883D01*
X131741295Y-128429589D01*
X130745448Y-128429589D01*
X130735014Y-128404400D01*
X130543727Y-128213113D01*
X130293798Y-128109589D01*
X130023278Y-128109589D01*
X129773349Y-128213113D01*
X129582062Y-128404400D01*
X129478538Y-128654329D01*
X129478538Y-128924849D01*
X129582062Y-129174778D01*
X129773349Y-129366065D01*
X130023278Y-129469589D01*
X130293798Y-129469589D01*
X130543727Y-129366065D01*
X130735014Y-129174778D01*
X130745448Y-129149589D01*
X131854958Y-129149589D01*
X131890411Y-129156641D01*
X131925864Y-129149589D01*
X132030876Y-129128701D01*
X132149956Y-129049134D01*
X132170041Y-129019076D01*
X134420419Y-126768698D01*
X134493524Y-126945189D01*
X134684811Y-127136476D01*
X134934740Y-127240000D01*
X135205260Y-127240000D01*
X135455189Y-127136476D01*
X135646476Y-126945189D01*
X135750000Y-126695260D01*
X135750000Y-126424740D01*
X135739566Y-126399550D01*
X137270011Y-124869106D01*
X137270011Y-125810198D01*
X137260888Y-125823851D01*
X137236916Y-125944368D01*
X137214811Y-125953524D01*
X137023524Y-126144811D01*
X136920000Y-126394740D01*
X136920000Y-126665260D01*
X137023524Y-126915189D01*
X137214811Y-127106476D01*
X137464740Y-127210000D01*
X137735260Y-127210000D01*
X137985189Y-127106476D01*
X138176476Y-126915189D01*
X138280000Y-126665260D01*
X138280000Y-126394740D01*
X138176476Y-126144811D01*
X137991904Y-125960239D01*
X137997063Y-125934304D01*
X137990011Y-125898851D01*
X137990011Y-124719127D01*
X139660434Y-126389551D01*
X139650000Y-126414740D01*
X139650000Y-126685260D01*
X139753524Y-126935189D01*
X139944811Y-127126476D01*
X140194740Y-127230000D01*
X140465260Y-127230000D01*
X140715189Y-127126476D01*
X140906476Y-126935189D01*
X141010000Y-126685260D01*
X141010000Y-126414740D01*
X140906476Y-126164811D01*
X140715189Y-125973524D01*
X140465260Y-125870000D01*
X140194740Y-125870000D01*
X140169551Y-125880434D01*
X138350021Y-124060905D01*
X138350021Y-121100807D01*
X138357072Y-121065359D01*
X138350021Y-121029910D01*
X138350021Y-121029904D01*
X138329133Y-120924892D01*
X138249565Y-120805812D01*
X138219509Y-120785729D01*
X138190024Y-120756243D01*
X138190024Y-116998151D01*
X139440000Y-118248129D01*
X139440001Y-120624542D01*
X139432948Y-120660000D01*
X139460888Y-120800464D01*
X139479996Y-120829061D01*
X139540456Y-120919545D01*
X139570511Y-120939628D01*
X142490010Y-123859127D01*
X142490011Y-125913500D01*
X142490010Y-125913505D01*
X142490010Y-125927732D01*
X142464821Y-125938166D01*
X142273534Y-126129453D01*
X142170010Y-126379382D01*
X142170010Y-126649902D01*
X142273534Y-126899831D01*
X142464821Y-127091118D01*
X142714750Y-127194642D01*
X142985270Y-127194642D01*
X143235199Y-127091118D01*
X143426486Y-126899831D01*
X143530010Y-126649902D01*
X143530010Y-126379382D01*
X143426486Y-126129453D01*
X143235199Y-125938166D01*
X143210010Y-125927732D01*
X143210010Y-123745463D01*
X143217062Y-123710010D01*
X143189122Y-123569545D01*
X143129637Y-123480520D01*
X143129635Y-123480518D01*
X143109554Y-123450465D01*
X143079501Y-123430384D01*
X140160000Y-120510884D01*
X140160000Y-118864516D01*
X140207999Y-118874063D01*
X140346016Y-118846611D01*
X140346015Y-120013252D01*
X140338963Y-120048705D01*
X140354736Y-120128000D01*
X140366903Y-120189169D01*
X140446470Y-120308249D01*
X140476526Y-120328332D01*
X144930001Y-124781809D01*
X144930000Y-125943090D01*
X144904811Y-125953524D01*
X144713524Y-126144811D01*
X144610000Y-126394740D01*
X144610000Y-126665260D01*
X144713524Y-126915189D01*
X144904811Y-127106476D01*
X145154740Y-127210000D01*
X145425260Y-127210000D01*
X145675189Y-127106476D01*
X145866476Y-126915189D01*
X145970000Y-126665260D01*
X145970000Y-126394740D01*
X145866476Y-126144811D01*
X145675189Y-125953524D01*
X145650000Y-125943090D01*
X145650000Y-124668138D01*
X145657051Y-124632690D01*
X145650000Y-124597242D01*
X145650000Y-124597238D01*
X145629112Y-124492226D01*
X145549545Y-124373146D01*
X145519489Y-124353063D01*
X141066015Y-119899589D01*
X141066015Y-119129454D01*
X141071362Y-119142363D01*
X141262649Y-119333650D01*
X141327728Y-119360607D01*
X141323524Y-119364811D01*
X141220000Y-119614740D01*
X141220000Y-119885260D01*
X141323524Y-120135189D01*
X141514811Y-120326476D01*
X141764740Y-120430000D01*
X142035260Y-120430000D01*
X142060449Y-120419566D01*
X142070509Y-120429626D01*
X142070512Y-120429628D01*
X144140371Y-122499488D01*
X144160454Y-122529544D01*
X144258112Y-122594797D01*
X144279534Y-122609111D01*
X144419999Y-122637051D01*
X144455452Y-122629999D01*
X148094548Y-122629999D01*
X148130001Y-122637051D01*
X148165454Y-122629999D01*
X148270466Y-122609111D01*
X148389546Y-122529544D01*
X148409631Y-122499485D01*
X148479486Y-122429630D01*
X148509545Y-122409545D01*
X148589112Y-122290465D01*
X148610000Y-122185453D01*
X148610000Y-122185449D01*
X148617051Y-122150001D01*
X148610000Y-122114553D01*
X148610000Y-120618447D01*
X148617051Y-120582999D01*
X148610000Y-120547551D01*
X148610000Y-120547547D01*
X148589112Y-120442535D01*
X148546985Y-120379488D01*
X148529627Y-120353510D01*
X148529625Y-120353508D01*
X148509544Y-120323455D01*
X148479491Y-120303374D01*
X147784566Y-119608450D01*
X147795000Y-119583260D01*
X147795000Y-119348117D01*
X148737999Y-120291116D01*
X148737999Y-125170334D01*
X148721189Y-125153524D01*
X148471260Y-125050000D01*
X148200740Y-125050000D01*
X147950811Y-125153524D01*
X147759524Y-125344811D01*
X147656000Y-125594740D01*
X147656000Y-125865260D01*
X147759524Y-126115189D01*
X147840000Y-126195665D01*
X147840001Y-126751044D01*
X142871046Y-131720000D01*
X130126910Y-131720000D01*
X130116476Y-131694811D01*
X129925189Y-131503524D01*
X129675260Y-131400000D01*
X129404740Y-131400000D01*
X129154811Y-131503524D01*
X128963524Y-131694811D01*
X128860000Y-131944740D01*
X128860000Y-132215260D01*
X128963524Y-132465189D01*
X129154811Y-132656476D01*
X129404740Y-132760000D01*
X129675260Y-132760000D01*
X129925189Y-132656476D01*
X130116476Y-132465189D01*
X130126910Y-132440000D01*
X142984709Y-132440000D01*
X143020162Y-132447052D01*
X143055615Y-132440000D01*
X143160627Y-132419112D01*
X143279707Y-132339545D01*
X143299792Y-132309486D01*
X148429489Y-127179790D01*
X148459545Y-127159707D01*
X148539112Y-127040627D01*
X148560000Y-126935615D01*
X148560000Y-126935612D01*
X148567051Y-126900163D01*
X148560000Y-126864714D01*
X148560000Y-126373243D01*
X148721189Y-126306476D01*
X148738000Y-126289665D01*
X148738000Y-131422883D01*
X145968000Y-134192883D01*
X145968000Y-133976740D01*
X145864476Y-133726811D01*
X145673189Y-133535524D01*
X145423260Y-133432000D01*
X145152740Y-133432000D01*
X144902811Y-133535524D01*
X144711524Y-133726811D01*
X144701090Y-133752000D01*
X143334910Y-133752000D01*
X143324476Y-133726811D01*
X143133189Y-133535524D01*
X142883260Y-133432000D01*
X142612740Y-133432000D01*
X142362811Y-133535524D01*
X142171524Y-133726811D01*
X142161090Y-133752000D01*
X140794910Y-133752000D01*
X140784476Y-133726811D01*
X140593189Y-133535524D01*
X140343260Y-133432000D01*
X140072740Y-133432000D01*
X139822811Y-133535524D01*
X139631524Y-133726811D01*
X139621090Y-133752000D01*
X138254910Y-133752000D01*
X138244476Y-133726811D01*
X138053189Y-133535524D01*
X137803260Y-133432000D01*
X137532740Y-133432000D01*
X137282811Y-133535524D01*
X137091524Y-133726811D01*
X136988000Y-133976740D01*
X136988000Y-134247260D01*
X137091524Y-134497189D01*
X137282811Y-134688476D01*
X137532740Y-134792000D01*
X137803260Y-134792000D01*
X138053189Y-134688476D01*
X138244476Y-134497189D01*
X138254910Y-134472000D01*
X139621090Y-134472000D01*
X139631524Y-134497189D01*
X139822811Y-134688476D01*
X140072740Y-134792000D01*
X140343260Y-134792000D01*
X140593189Y-134688476D01*
X140784476Y-134497189D01*
X140794910Y-134472000D01*
X142161090Y-134472000D01*
X142171524Y-134497189D01*
X142362811Y-134688476D01*
X142612740Y-134792000D01*
X142883260Y-134792000D01*
X143133189Y-134688476D01*
X143324476Y-134497189D01*
X143334910Y-134472000D01*
X144701090Y-134472000D01*
X144711524Y-134497189D01*
X144902811Y-134688476D01*
X145152740Y-134792000D01*
X145368884Y-134792000D01*
X142908450Y-137252434D01*
X142883260Y-137242000D01*
X142612740Y-137242000D01*
X142362811Y-137345524D01*
X142171524Y-137536811D01*
X142068000Y-137786740D01*
X142068000Y-138057260D01*
X142171524Y-138307189D01*
X142362811Y-138498476D01*
X142612740Y-138602000D01*
X142883260Y-138602000D01*
X143133189Y-138498476D01*
X143324476Y-138307189D01*
X143428000Y-138057260D01*
X143428000Y-137786740D01*
X143417566Y-137761550D01*
X149327488Y-131851629D01*
X149357544Y-131831546D01*
X149437111Y-131712466D01*
X149457999Y-131607454D01*
X149465051Y-131572001D01*
X149457999Y-131536548D01*
X149457999Y-120177446D01*
X149465050Y-120141998D01*
X149457999Y-120106550D01*
X149457999Y-120106546D01*
X149437111Y-120001534D01*
X149382971Y-119920509D01*
X149377626Y-119912509D01*
X149377624Y-119912507D01*
X149357543Y-119882454D01*
X149327490Y-119862373D01*
X145659966Y-116194850D01*
X145639881Y-116164791D01*
X145520801Y-116085224D01*
X145415789Y-116064336D01*
X145380336Y-116057284D01*
X145344883Y-116064336D01*
X140118728Y-116064336D01*
X140166543Y-116016521D01*
X140270067Y-115766592D01*
X140270067Y-115496072D01*
X140259633Y-115470883D01*
X140269693Y-115460823D01*
X140269695Y-115460820D01*
X144525489Y-111205027D01*
X144555545Y-111184944D01*
X144635112Y-111065864D01*
X144656000Y-110960852D01*
X144656000Y-110960848D01*
X144663051Y-110925400D01*
X144656000Y-110889952D01*
X144656000Y-108580910D01*
X144681189Y-108570476D01*
X144872476Y-108379189D01*
X144976000Y-108129260D01*
X144976000Y-107858740D01*
X144872476Y-107608811D01*
X144681189Y-107417524D01*
X144431260Y-107314000D01*
X144160740Y-107314000D01*
X143910811Y-107417524D01*
X143719524Y-107608811D01*
X143616000Y-107858740D01*
X143616000Y-108129260D01*
X143719524Y-108379189D01*
X143910811Y-108570476D01*
X143936000Y-108580910D01*
X143936001Y-110776281D01*
X139760579Y-114951704D01*
X139760576Y-114951706D01*
X139750516Y-114961766D01*
X139725327Y-114951332D01*
X139607784Y-114951332D01*
X143295524Y-111263593D01*
X143325577Y-111243512D01*
X143345658Y-111213459D01*
X143345660Y-111213457D01*
X143405145Y-111124432D01*
X143433085Y-110983967D01*
X143426032Y-110948509D01*
X143426034Y-106006478D01*
X147990000Y-101442513D01*
X147990001Y-116008885D01*
X147990001Y-116008885D01*
G37*
X147990001Y-116008885D02*
X145902891Y-113921774D01*
X146031476Y-113793189D01*
X146135000Y-113543260D01*
X146135000Y-113272740D01*
X146031476Y-113022811D01*
X145840189Y-112831524D01*
X145590260Y-112728000D01*
X145319740Y-112728000D01*
X145069811Y-112831524D01*
X144878524Y-113022811D01*
X144775000Y-113272740D01*
X144775000Y-113543260D01*
X144878524Y-113793189D01*
X145069811Y-113984476D01*
X145089896Y-113992796D01*
X145115888Y-114123464D01*
X145169162Y-114203193D01*
X145195456Y-114242545D01*
X145225512Y-114262628D01*
X150235999Y-119273116D01*
X150236000Y-131194883D01*
X144296511Y-137134373D01*
X144266455Y-137154456D01*
X144246373Y-137184511D01*
X144186888Y-137273536D01*
X144158948Y-137414000D01*
X144166000Y-137449453D01*
X144166001Y-141696542D01*
X144158948Y-141732000D01*
X144186888Y-141872464D01*
X144186889Y-141872465D01*
X144266456Y-141991545D01*
X144296511Y-142011628D01*
X147240000Y-144955117D01*
X147240001Y-156648858D01*
X147240000Y-156648863D01*
X147240000Y-156663090D01*
X147214811Y-156673524D01*
X147023524Y-156864811D01*
X146920000Y-157114740D01*
X146920000Y-157385260D01*
X147023524Y-157635189D01*
X147168325Y-157779990D01*
X140003369Y-157779990D01*
X128111198Y-145887819D01*
X128217942Y-145909052D01*
X128253395Y-145902000D01*
X129461090Y-145902000D01*
X129471524Y-145927189D01*
X129662811Y-146118476D01*
X129912740Y-146222000D01*
X130183260Y-146222000D01*
X130433189Y-146118476D01*
X130624476Y-145927189D01*
X130634910Y-145902000D01*
X132001090Y-145902000D01*
X132011524Y-145927189D01*
X132202811Y-146118476D01*
X132452740Y-146222000D01*
X132723260Y-146222000D01*
X132973189Y-146118476D01*
X133164476Y-145927189D01*
X133174910Y-145902000D01*
X134541090Y-145902000D01*
X134551524Y-145927189D01*
X134742811Y-146118476D01*
X134992740Y-146222000D01*
X135263260Y-146222000D01*
X135513189Y-146118476D01*
X135704476Y-145927189D01*
X135714910Y-145902000D01*
X137081090Y-145902000D01*
X137091524Y-145927189D01*
X137282811Y-146118476D01*
X137532740Y-146222000D01*
X137803260Y-146222000D01*
X138053189Y-146118476D01*
X138244476Y-145927189D01*
X138254910Y-145902000D01*
X139621090Y-145902000D01*
X139631524Y-145927189D01*
X139822811Y-146118476D01*
X140072740Y-146222000D01*
X140343260Y-146222000D01*
X140593189Y-146118476D01*
X140784476Y-145927189D01*
X140794910Y-145902000D01*
X142161090Y-145902000D01*
X142171524Y-145927189D01*
X142362811Y-146118476D01*
X142612740Y-146222000D01*
X142883260Y-146222000D01*
X143133189Y-146118476D01*
X143324476Y-145927189D01*
X143334910Y-145902000D01*
X144701090Y-145902000D01*
X144711524Y-145927189D01*
X144902811Y-146118476D01*
X145152740Y-146222000D01*
X145423260Y-146222000D01*
X145673189Y-146118476D01*
X145864476Y-145927189D01*
X145968000Y-145677260D01*
X145968000Y-145406740D01*
X145864476Y-145156811D01*
X145673189Y-144965524D01*
X145423260Y-144862000D01*
X145152740Y-144862000D01*
X144902811Y-144965524D01*
X144711524Y-145156811D01*
X144701090Y-145182000D01*
X143334910Y-145182000D01*
X143324476Y-145156811D01*
X143133189Y-144965524D01*
X142883260Y-144862000D01*
X142612740Y-144862000D01*
X142362811Y-144965524D01*
X142171524Y-145156811D01*
X142161090Y-145182000D01*
X140794910Y-145182000D01*
X140784476Y-145156811D01*
X140593189Y-144965524D01*
X140343260Y-144862000D01*
X140072740Y-144862000D01*
X139822811Y-144965524D01*
X139631524Y-145156811D01*
X139621090Y-145182000D01*
X138254910Y-145182000D01*
X138244476Y-145156811D01*
X138053189Y-144965524D01*
X137803260Y-144862000D01*
X137532740Y-144862000D01*
X137282811Y-144965524D01*
X137091524Y-145156811D01*
X137081090Y-145182000D01*
X135714910Y-145182000D01*
X135704476Y-145156811D01*
X135513189Y-144965524D01*
X135488000Y-144955090D01*
X135488000Y-143763453D01*
X135495052Y-143728000D01*
X135467112Y-143587535D01*
X135465943Y-143585785D01*
X135387545Y-143468455D01*
X135357489Y-143448372D01*
X126745989Y-134836873D01*
X126745989Y-133976740D01*
X126828000Y-133976740D01*
X126828000Y-134247260D01*
X126931524Y-134497189D01*
X127122811Y-134688476D01*
X127372740Y-134792000D01*
X127643260Y-134792000D01*
X127893189Y-134688476D01*
X128084476Y-134497189D01*
X128094910Y-134472000D01*
X129461090Y-134472000D01*
X129471524Y-134497189D01*
X129662811Y-134688476D01*
X129912740Y-134792000D01*
X130183260Y-134792000D01*
X130433189Y-134688476D01*
X130624476Y-134497189D01*
X130634910Y-134472000D01*
X132001090Y-134472000D01*
X132011524Y-134497189D01*
X132202811Y-134688476D01*
X132452740Y-134792000D01*
X132723260Y-134792000D01*
X132973189Y-134688476D01*
X133164476Y-134497189D01*
X133174910Y-134472000D01*
X134541090Y-134472000D01*
X134551524Y-134497189D01*
X134742811Y-134688476D01*
X134992740Y-134792000D01*
X135263260Y-134792000D01*
X135513189Y-134688476D01*
X135704476Y-134497189D01*
X135808000Y-134247260D01*
X135808000Y-133976740D01*
X135704476Y-133726811D01*
X135513189Y-133535524D01*
X135263260Y-133432000D01*
X134992740Y-133432000D01*
X134742811Y-133535524D01*
X134551524Y-133726811D01*
X134541090Y-133752000D01*
X133174910Y-133752000D01*
X133164476Y-133726811D01*
X132973189Y-133535524D01*
X132723260Y-133432000D01*
X132452740Y-133432000D01*
X132202811Y-133535524D01*
X132011524Y-133726811D01*
X132001090Y-133752000D01*
X130634910Y-133752000D01*
X130624476Y-133726811D01*
X130433189Y-133535524D01*
X130183260Y-133432000D01*
X129912740Y-133432000D01*
X129662811Y-133535524D01*
X129471524Y-133726811D01*
X129461090Y-133752000D01*
X128094910Y-133752000D01*
X128084476Y-133726811D01*
X127893189Y-133535524D01*
X127643260Y-133432000D01*
X127372740Y-133432000D01*
X127122811Y-133535524D01*
X126931524Y-133726811D01*
X126828000Y-133976740D01*
X126745989Y-133976740D01*
X126745989Y-132383127D01*
X128417493Y-130711624D01*
X128447546Y-130691543D01*
X128467627Y-130661490D01*
X128467629Y-130661488D01*
X128527113Y-130572463D01*
X128555053Y-130431999D01*
X128548001Y-130396546D01*
X128548003Y-126470245D01*
X130028238Y-124990011D01*
X130633668Y-124990011D01*
X130669121Y-124997063D01*
X130704574Y-124990011D01*
X130809586Y-124969123D01*
X130928666Y-124889556D01*
X130948750Y-124859498D01*
X132176422Y-123631827D01*
X132206475Y-123611746D01*
X132226556Y-123581693D01*
X132226558Y-123581691D01*
X132248057Y-123549514D01*
X132286043Y-123492666D01*
X132306931Y-123387654D01*
X132306931Y-123387650D01*
X132306953Y-123387538D01*
X132306953Y-124683930D01*
X130858884Y-126132000D01*
X130634910Y-126132000D01*
X130624476Y-126106811D01*
X130433189Y-125915524D01*
X130183260Y-125812000D01*
X129912740Y-125812000D01*
X129662811Y-125915524D01*
X129471524Y-126106811D01*
X129368000Y-126356740D01*
X129368000Y-126627260D01*
X129471524Y-126877189D01*
X129662811Y-127068476D01*
X129912740Y-127172000D01*
X130183260Y-127172000D01*
X130433189Y-127068476D01*
X130624476Y-126877189D01*
X130634910Y-126852000D01*
X130972547Y-126852000D01*
X131008000Y-126859052D01*
X131043453Y-126852000D01*
X131148465Y-126831112D01*
X131267545Y-126751545D01*
X131287630Y-126721487D01*
X132228001Y-125781116D01*
X132228001Y-125905090D01*
X132202811Y-125915524D01*
X132011524Y-126106811D01*
X131908000Y-126356740D01*
X131908000Y-126627260D01*
X132011524Y-126877189D01*
X132202811Y-127068476D01*
X132452740Y-127172000D01*
X132723260Y-127172000D01*
X132973189Y-127068476D01*
X133164476Y-126877189D01*
X133268000Y-126627260D01*
X133268000Y-126356740D01*
X133164476Y-126106811D01*
X132973189Y-125915524D01*
X132948000Y-125905090D01*
X132948000Y-125681116D01*
X133903521Y-124725595D01*
X133900888Y-124729536D01*
X133872948Y-124870000D01*
X133880001Y-124905458D01*
X133880000Y-126290883D01*
X131741295Y-128429589D01*
X130745448Y-128429589D01*
X130735014Y-128404400D01*
X130543727Y-128213113D01*
X130293798Y-128109589D01*
X130023278Y-128109589D01*
X129773349Y-128213113D01*
X129582062Y-128404400D01*
X129478538Y-128654329D01*
X129478538Y-128924849D01*
X129582062Y-129174778D01*
X129773349Y-129366065D01*
X130023278Y-129469589D01*
X130293798Y-129469589D01*
X130543727Y-129366065D01*
X130735014Y-129174778D01*
X130745448Y-129149589D01*
X131854958Y-129149589D01*
X131890411Y-129156641D01*
X131925864Y-129149589D01*
X132030876Y-129128701D01*
X132149956Y-129049134D01*
X132170041Y-129019076D01*
X134420419Y-126768698D01*
X134493524Y-126945189D01*
X134684811Y-127136476D01*
X134934740Y-127240000D01*
X135205260Y-127240000D01*
X135455189Y-127136476D01*
X135646476Y-126945189D01*
X135750000Y-126695260D01*
X135750000Y-126424740D01*
X135739566Y-126399550D01*
X137270011Y-124869106D01*
X137270011Y-125810198D01*
X137260888Y-125823851D01*
X137236916Y-125944368D01*
X137214811Y-125953524D01*
X137023524Y-126144811D01*
X136920000Y-126394740D01*
X136920000Y-126665260D01*
X137023524Y-126915189D01*
X137214811Y-127106476D01*
X137464740Y-127210000D01*
X137735260Y-127210000D01*
X137985189Y-127106476D01*
X138176476Y-126915189D01*
X138280000Y-126665260D01*
X138280000Y-126394740D01*
X138176476Y-126144811D01*
X137991904Y-125960239D01*
X137997063Y-125934304D01*
X137990011Y-125898851D01*
X137990011Y-124719127D01*
X139660434Y-126389551D01*
X139650000Y-126414740D01*
X139650000Y-126685260D01*
X139753524Y-126935189D01*
X139944811Y-127126476D01*
X140194740Y-127230000D01*
X140465260Y-127230000D01*
X140715189Y-127126476D01*
X140906476Y-126935189D01*
X141010000Y-126685260D01*
X141010000Y-126414740D01*
X140906476Y-126164811D01*
X140715189Y-125973524D01*
X140465260Y-125870000D01*
X140194740Y-125870000D01*
X140169551Y-125880434D01*
X138350021Y-124060905D01*
X138350021Y-121100807D01*
X138357072Y-121065359D01*
X138350021Y-121029910D01*
X138350021Y-121029904D01*
X138329133Y-120924892D01*
X138249565Y-120805812D01*
X138219509Y-120785729D01*
X138190024Y-120756243D01*
X138190024Y-116998151D01*
X139440000Y-118248129D01*
X139440001Y-120624542D01*
X139432948Y-120660000D01*
X139460888Y-120800464D01*
X139479996Y-120829061D01*
X139540456Y-120919545D01*
X139570511Y-120939628D01*
X142490010Y-123859127D01*
X142490011Y-125913500D01*
X142490010Y-125913505D01*
X142490010Y-125927732D01*
X142464821Y-125938166D01*
X142273534Y-126129453D01*
X142170010Y-126379382D01*
X142170010Y-126649902D01*
X142273534Y-126899831D01*
X142464821Y-127091118D01*
X142714750Y-127194642D01*
X142985270Y-127194642D01*
X143235199Y-127091118D01*
X143426486Y-126899831D01*
X143530010Y-126649902D01*
X143530010Y-126379382D01*
X143426486Y-126129453D01*
X143235199Y-125938166D01*
X143210010Y-125927732D01*
X143210010Y-123745463D01*
X143217062Y-123710010D01*
X143189122Y-123569545D01*
X143129637Y-123480520D01*
X143129635Y-123480518D01*
X143109554Y-123450465D01*
X143079501Y-123430384D01*
X140160000Y-120510884D01*
X140160000Y-118864516D01*
X140207999Y-118874063D01*
X140346016Y-118846611D01*
X140346015Y-120013252D01*
X140338963Y-120048705D01*
X140354736Y-120128000D01*
X140366903Y-120189169D01*
X140446470Y-120308249D01*
X140476526Y-120328332D01*
X144930001Y-124781809D01*
X144930000Y-125943090D01*
X144904811Y-125953524D01*
X144713524Y-126144811D01*
X144610000Y-126394740D01*
X144610000Y-126665260D01*
X144713524Y-126915189D01*
X144904811Y-127106476D01*
X145154740Y-127210000D01*
X145425260Y-127210000D01*
X145675189Y-127106476D01*
X145866476Y-126915189D01*
X145970000Y-126665260D01*
X145970000Y-126394740D01*
X145866476Y-126144811D01*
X145675189Y-125953524D01*
X145650000Y-125943090D01*
X145650000Y-124668138D01*
X145657051Y-124632690D01*
X145650000Y-124597242D01*
X145650000Y-124597238D01*
X145629112Y-124492226D01*
X145549545Y-124373146D01*
X145519489Y-124353063D01*
X141066015Y-119899589D01*
X141066015Y-119129454D01*
X141071362Y-119142363D01*
X141262649Y-119333650D01*
X141327728Y-119360607D01*
X141323524Y-119364811D01*
X141220000Y-119614740D01*
X141220000Y-119885260D01*
X141323524Y-120135189D01*
X141514811Y-120326476D01*
X141764740Y-120430000D01*
X142035260Y-120430000D01*
X142060449Y-120419566D01*
X142070509Y-120429626D01*
X142070512Y-120429628D01*
X144140371Y-122499488D01*
X144160454Y-122529544D01*
X144258112Y-122594797D01*
X144279534Y-122609111D01*
X144419999Y-122637051D01*
X144455452Y-122629999D01*
X148094548Y-122629999D01*
X148130001Y-122637051D01*
X148165454Y-122629999D01*
X148270466Y-122609111D01*
X148389546Y-122529544D01*
X148409631Y-122499485D01*
X148479486Y-122429630D01*
X148509545Y-122409545D01*
X148589112Y-122290465D01*
X148610000Y-122185453D01*
X148610000Y-122185449D01*
X148617051Y-122150001D01*
X148610000Y-122114553D01*
X148610000Y-120618447D01*
X148617051Y-120582999D01*
X148610000Y-120547551D01*
X148610000Y-120547547D01*
X148589112Y-120442535D01*
X148546985Y-120379488D01*
X148529627Y-120353510D01*
X148529625Y-120353508D01*
X148509544Y-120323455D01*
X148479491Y-120303374D01*
X147784566Y-119608450D01*
X147795000Y-119583260D01*
X147795000Y-119348117D01*
X148737999Y-120291116D01*
X148737999Y-125170334D01*
X148721189Y-125153524D01*
X148471260Y-125050000D01*
X148200740Y-125050000D01*
X147950811Y-125153524D01*
X147759524Y-125344811D01*
X147656000Y-125594740D01*
X147656000Y-125865260D01*
X147759524Y-126115189D01*
X147840000Y-126195665D01*
X147840001Y-126751044D01*
X142871046Y-131720000D01*
X130126910Y-131720000D01*
X130116476Y-131694811D01*
X129925189Y-131503524D01*
X129675260Y-131400000D01*
X129404740Y-131400000D01*
X129154811Y-131503524D01*
X128963524Y-131694811D01*
X128860000Y-131944740D01*
X128860000Y-132215260D01*
X128963524Y-132465189D01*
X129154811Y-132656476D01*
X129404740Y-132760000D01*
X129675260Y-132760000D01*
X129925189Y-132656476D01*
X130116476Y-132465189D01*
X130126910Y-132440000D01*
X142984709Y-132440000D01*
X143020162Y-132447052D01*
X143055615Y-132440000D01*
X143160627Y-132419112D01*
X143279707Y-132339545D01*
X143299792Y-132309486D01*
X148429489Y-127179790D01*
X148459545Y-127159707D01*
X148539112Y-127040627D01*
X148560000Y-126935615D01*
X148560000Y-126935612D01*
X148567051Y-126900163D01*
X148560000Y-126864714D01*
X148560000Y-126373243D01*
X148721189Y-126306476D01*
X148738000Y-126289665D01*
X148738000Y-131422883D01*
X145968000Y-134192883D01*
X145968000Y-133976740D01*
X145864476Y-133726811D01*
X145673189Y-133535524D01*
X145423260Y-133432000D01*
X145152740Y-133432000D01*
X144902811Y-133535524D01*
X144711524Y-133726811D01*
X144701090Y-133752000D01*
X143334910Y-133752000D01*
X143324476Y-133726811D01*
X143133189Y-133535524D01*
X142883260Y-133432000D01*
X142612740Y-133432000D01*
X142362811Y-133535524D01*
X142171524Y-133726811D01*
X142161090Y-133752000D01*
X140794910Y-133752000D01*
X140784476Y-133726811D01*
X140593189Y-133535524D01*
X140343260Y-133432000D01*
X140072740Y-133432000D01*
X139822811Y-133535524D01*
X139631524Y-133726811D01*
X139621090Y-133752000D01*
X138254910Y-133752000D01*
X138244476Y-133726811D01*
X138053189Y-133535524D01*
X137803260Y-133432000D01*
X137532740Y-133432000D01*
X137282811Y-133535524D01*
X137091524Y-133726811D01*
X136988000Y-133976740D01*
X136988000Y-134247260D01*
X137091524Y-134497189D01*
X137282811Y-134688476D01*
X137532740Y-134792000D01*
X137803260Y-134792000D01*
X138053189Y-134688476D01*
X138244476Y-134497189D01*
X138254910Y-134472000D01*
X139621090Y-134472000D01*
X139631524Y-134497189D01*
X139822811Y-134688476D01*
X140072740Y-134792000D01*
X140343260Y-134792000D01*
X140593189Y-134688476D01*
X140784476Y-134497189D01*
X140794910Y-134472000D01*
X142161090Y-134472000D01*
X142171524Y-134497189D01*
X142362811Y-134688476D01*
X142612740Y-134792000D01*
X142883260Y-134792000D01*
X143133189Y-134688476D01*
X143324476Y-134497189D01*
X143334910Y-134472000D01*
X144701090Y-134472000D01*
X144711524Y-134497189D01*
X144902811Y-134688476D01*
X145152740Y-134792000D01*
X145368884Y-134792000D01*
X142908450Y-137252434D01*
X142883260Y-137242000D01*
X142612740Y-137242000D01*
X142362811Y-137345524D01*
X142171524Y-137536811D01*
X142068000Y-137786740D01*
X142068000Y-138057260D01*
X142171524Y-138307189D01*
X142362811Y-138498476D01*
X142612740Y-138602000D01*
X142883260Y-138602000D01*
X143133189Y-138498476D01*
X143324476Y-138307189D01*
X143428000Y-138057260D01*
X143428000Y-137786740D01*
X143417566Y-137761550D01*
X149327488Y-131851629D01*
X149357544Y-131831546D01*
X149437111Y-131712466D01*
X149457999Y-131607454D01*
X149465051Y-131572001D01*
X149457999Y-131536548D01*
X149457999Y-120177446D01*
X149465050Y-120141998D01*
X149457999Y-120106550D01*
X149457999Y-120106546D01*
X149437111Y-120001534D01*
X149382971Y-119920509D01*
X149377626Y-119912509D01*
X149377624Y-119912507D01*
X149357543Y-119882454D01*
X149327490Y-119862373D01*
X145659966Y-116194850D01*
X145639881Y-116164791D01*
X145520801Y-116085224D01*
X145415789Y-116064336D01*
X145380336Y-116057284D01*
X145344883Y-116064336D01*
X140118728Y-116064336D01*
X140166543Y-116016521D01*
X140270067Y-115766592D01*
X140270067Y-115496072D01*
X140259633Y-115470883D01*
X140269693Y-115460823D01*
X140269695Y-115460820D01*
X144525489Y-111205027D01*
X144555545Y-111184944D01*
X144635112Y-111065864D01*
X144656000Y-110960852D01*
X144656000Y-110960848D01*
X144663051Y-110925400D01*
X144656000Y-110889952D01*
X144656000Y-108580910D01*
X144681189Y-108570476D01*
X144872476Y-108379189D01*
X144976000Y-108129260D01*
X144976000Y-107858740D01*
X144872476Y-107608811D01*
X144681189Y-107417524D01*
X144431260Y-107314000D01*
X144160740Y-107314000D01*
X143910811Y-107417524D01*
X143719524Y-107608811D01*
X143616000Y-107858740D01*
X143616000Y-108129260D01*
X143719524Y-108379189D01*
X143910811Y-108570476D01*
X143936000Y-108580910D01*
X143936001Y-110776281D01*
X139760579Y-114951704D01*
X139760576Y-114951706D01*
X139750516Y-114961766D01*
X139725327Y-114951332D01*
X139607784Y-114951332D01*
X143295524Y-111263593D01*
X143325577Y-111243512D01*
X143345658Y-111213459D01*
X143345660Y-111213457D01*
X143405145Y-111124432D01*
X143433085Y-110983967D01*
X143426032Y-110948509D01*
X143426034Y-106006478D01*
X147990000Y-101442513D01*
X147990001Y-116008885D01*
G36*
X131520010Y-112355455D02*
X131520011Y-115702189D01*
X131520010Y-115702194D01*
X131520010Y-115716421D01*
X131494821Y-115726855D01*
X131303534Y-115918142D01*
X131200010Y-116168071D01*
X131200010Y-116438591D01*
X131303534Y-116688520D01*
X131427462Y-116812448D01*
X131357431Y-116882479D01*
X131327375Y-116902562D01*
X131273663Y-116982948D01*
X131247808Y-117021642D01*
X131219868Y-117162106D01*
X131226920Y-117197559D01*
X131226921Y-122837964D01*
X130618856Y-123446030D01*
X130618856Y-121682000D01*
X130591692Y-121545437D01*
X130514335Y-121429665D01*
X130487898Y-121412000D01*
X130514335Y-121394335D01*
X130591692Y-121278563D01*
X130618856Y-121142000D01*
X130618856Y-119142000D01*
X130591692Y-119005437D01*
X130514335Y-118889665D01*
X130487898Y-118872000D01*
X130514335Y-118854335D01*
X130591692Y-118738563D01*
X130618856Y-118602000D01*
X130618856Y-116602000D01*
X130591692Y-116465437D01*
X130514335Y-116349665D01*
X130398563Y-116272308D01*
X130262000Y-116245144D01*
X125414260Y-116245144D01*
X125269241Y-116100125D01*
X125269241Y-115949987D01*
X125294430Y-115939553D01*
X125485717Y-115748266D01*
X125589241Y-115498337D01*
X125589241Y-115364756D01*
X125854313Y-115364756D01*
X125854313Y-115635276D01*
X125957837Y-115885205D01*
X126149124Y-116076492D01*
X126399053Y-116180016D01*
X126669573Y-116180016D01*
X126919502Y-116076492D01*
X127110789Y-115885205D01*
X127214313Y-115635276D01*
X127214313Y-115410001D01*
X128870000Y-115410001D01*
X128870000Y-115585260D01*
X128973524Y-115835189D01*
X129164811Y-116026476D01*
X129414740Y-116130000D01*
X129685260Y-116130000D01*
X129935189Y-116026476D01*
X130126476Y-115835189D01*
X130230000Y-115585260D01*
X130230000Y-115314740D01*
X130126476Y-115064811D01*
X129935189Y-114873524D01*
X129685260Y-114770000D01*
X129414740Y-114770000D01*
X129392635Y-114779156D01*
X129290466Y-114710889D01*
X129185454Y-114690001D01*
X129150001Y-114682949D01*
X129114548Y-114690001D01*
X127019775Y-114690001D01*
X126984327Y-114682950D01*
X126948879Y-114690001D01*
X126948875Y-114690001D01*
X126843863Y-114710889D01*
X126724783Y-114790456D01*
X126704700Y-114820512D01*
X126694762Y-114830450D01*
X126669573Y-114820016D01*
X126399053Y-114820016D01*
X126149124Y-114923540D01*
X125957837Y-115114827D01*
X125854313Y-115364756D01*
X125589241Y-115364756D01*
X125589241Y-115227817D01*
X125485717Y-114977888D01*
X125294430Y-114786601D01*
X125044501Y-114683077D01*
X124773981Y-114683077D01*
X124546000Y-114777510D01*
X124546000Y-113117116D01*
X124905144Y-113476261D01*
X124905144Y-114284000D01*
X124932308Y-114420563D01*
X125009665Y-114536335D01*
X125125437Y-114613692D01*
X125262000Y-114640856D01*
X130262000Y-114640856D01*
X130398563Y-114613692D01*
X130514335Y-114536335D01*
X130591692Y-114420563D01*
X130618856Y-114284000D01*
X130618856Y-112284000D01*
X130591692Y-112147437D01*
X130514335Y-112031665D01*
X130487898Y-112014000D01*
X130514335Y-111996335D01*
X130591692Y-111880563D01*
X130618856Y-111744000D01*
X130618856Y-111454300D01*
X131520010Y-112355455D01*
X131520010Y-112355455D01*
G37*
X131520010Y-112355455D02*
X131520011Y-115702189D01*
X131520010Y-115702194D01*
X131520010Y-115716421D01*
X131494821Y-115726855D01*
X131303534Y-115918142D01*
X131200010Y-116168071D01*
X131200010Y-116438591D01*
X131303534Y-116688520D01*
X131427462Y-116812448D01*
X131357431Y-116882479D01*
X131327375Y-116902562D01*
X131273663Y-116982948D01*
X131247808Y-117021642D01*
X131219868Y-117162106D01*
X131226920Y-117197559D01*
X131226921Y-122837964D01*
X130618856Y-123446030D01*
X130618856Y-121682000D01*
X130591692Y-121545437D01*
X130514335Y-121429665D01*
X130487898Y-121412000D01*
X130514335Y-121394335D01*
X130591692Y-121278563D01*
X130618856Y-121142000D01*
X130618856Y-119142000D01*
X130591692Y-119005437D01*
X130514335Y-118889665D01*
X130487898Y-118872000D01*
X130514335Y-118854335D01*
X130591692Y-118738563D01*
X130618856Y-118602000D01*
X130618856Y-116602000D01*
X130591692Y-116465437D01*
X130514335Y-116349665D01*
X130398563Y-116272308D01*
X130262000Y-116245144D01*
X125414260Y-116245144D01*
X125269241Y-116100125D01*
X125269241Y-115949987D01*
X125294430Y-115939553D01*
X125485717Y-115748266D01*
X125589241Y-115498337D01*
X125589241Y-115364756D01*
X125854313Y-115364756D01*
X125854313Y-115635276D01*
X125957837Y-115885205D01*
X126149124Y-116076492D01*
X126399053Y-116180016D01*
X126669573Y-116180016D01*
X126919502Y-116076492D01*
X127110789Y-115885205D01*
X127214313Y-115635276D01*
X127214313Y-115410001D01*
X128870000Y-115410001D01*
X128870000Y-115585260D01*
X128973524Y-115835189D01*
X129164811Y-116026476D01*
X129414740Y-116130000D01*
X129685260Y-116130000D01*
X129935189Y-116026476D01*
X130126476Y-115835189D01*
X130230000Y-115585260D01*
X130230000Y-115314740D01*
X130126476Y-115064811D01*
X129935189Y-114873524D01*
X129685260Y-114770000D01*
X129414740Y-114770000D01*
X129392635Y-114779156D01*
X129290466Y-114710889D01*
X129185454Y-114690001D01*
X129150001Y-114682949D01*
X129114548Y-114690001D01*
X127019775Y-114690001D01*
X126984327Y-114682950D01*
X126948879Y-114690001D01*
X126948875Y-114690001D01*
X126843863Y-114710889D01*
X126724783Y-114790456D01*
X126704700Y-114820512D01*
X126694762Y-114830450D01*
X126669573Y-114820016D01*
X126399053Y-114820016D01*
X126149124Y-114923540D01*
X125957837Y-115114827D01*
X125854313Y-115364756D01*
X125589241Y-115364756D01*
X125589241Y-115227817D01*
X125485717Y-114977888D01*
X125294430Y-114786601D01*
X125044501Y-114683077D01*
X124773981Y-114683077D01*
X124546000Y-114777510D01*
X124546000Y-113117116D01*
X124905144Y-113476261D01*
X124905144Y-114284000D01*
X124932308Y-114420563D01*
X125009665Y-114536335D01*
X125125437Y-114613692D01*
X125262000Y-114640856D01*
X130262000Y-114640856D01*
X130398563Y-114613692D01*
X130514335Y-114536335D01*
X130591692Y-114420563D01*
X130618856Y-114284000D01*
X130618856Y-112284000D01*
X130591692Y-112147437D01*
X130514335Y-112031665D01*
X130487898Y-112014000D01*
X130514335Y-111996335D01*
X130591692Y-111880563D01*
X130618856Y-111744000D01*
X130618856Y-111454300D01*
X131520010Y-112355455D01*
G36*
X132387326Y-118468023D02*
X132327841Y-118557048D01*
X132306931Y-118662170D01*
X132306931Y-118548387D01*
X132387388Y-118467930D01*
X132387326Y-118468023D01*
X132387326Y-118468023D01*
G37*
X132387326Y-118468023D02*
X132327841Y-118557048D01*
X132306931Y-118662170D01*
X132306931Y-118548387D01*
X132387388Y-118467930D01*
X132387326Y-118468023D01*
G36*
X130953534Y-108134768D02*
X130850010Y-108384697D01*
X130850010Y-108655217D01*
X130953534Y-108905146D01*
X131144821Y-109096433D01*
X131394750Y-109199957D01*
X131665270Y-109199957D01*
X131915199Y-109096433D01*
X132106486Y-108905146D01*
X132210010Y-108655217D01*
X132210010Y-108479958D01*
X134399958Y-108479958D01*
X134399958Y-108578610D01*
X134503482Y-108828539D01*
X134694769Y-109019826D01*
X134944698Y-109123350D01*
X135215218Y-109123350D01*
X135229413Y-109117470D01*
X134380512Y-109966372D01*
X134350456Y-109986455D01*
X134330374Y-110016510D01*
X134270889Y-110105535D01*
X134242949Y-110245999D01*
X134250001Y-110281452D01*
X134250002Y-115144543D01*
X134242949Y-115180001D01*
X134270889Y-115320465D01*
X134330374Y-115409490D01*
X134350457Y-115439546D01*
X134380513Y-115459629D01*
X134560434Y-115639550D01*
X134550000Y-115664740D01*
X134550000Y-115935260D01*
X134559157Y-115957366D01*
X134490889Y-116059534D01*
X134481094Y-116108777D01*
X134462949Y-116199999D01*
X134470001Y-116235452D01*
X134470001Y-116385347D01*
X133229565Y-117625784D01*
X133229624Y-117625695D01*
X133229626Y-117625693D01*
X133265373Y-117572194D01*
X133289111Y-117536668D01*
X133309999Y-117431656D01*
X133309999Y-117431652D01*
X133317050Y-117396204D01*
X133309999Y-117360756D01*
X133309999Y-110785451D01*
X133317051Y-110749998D01*
X133289111Y-110609534D01*
X133272792Y-110585111D01*
X133220844Y-110507365D01*
X133230000Y-110485260D01*
X133230000Y-110214740D01*
X133126476Y-109964811D01*
X132935189Y-109773524D01*
X132685260Y-109670000D01*
X132414740Y-109670000D01*
X132164811Y-109773524D01*
X131973524Y-109964811D01*
X131870000Y-110214740D01*
X131870000Y-110485260D01*
X131973524Y-110735189D01*
X132164811Y-110926476D01*
X132414740Y-111030000D01*
X132590000Y-111030000D01*
X132589999Y-117247086D01*
X131946920Y-117890166D01*
X131946920Y-117311222D01*
X132109499Y-117148644D01*
X132139555Y-117128561D01*
X132219122Y-117009481D01*
X132240010Y-116904469D01*
X132243094Y-116888963D01*
X132265199Y-116879807D01*
X132456486Y-116688520D01*
X132560010Y-116438591D01*
X132560010Y-116168071D01*
X132456486Y-115918142D01*
X132265199Y-115726855D01*
X132240010Y-115716421D01*
X132240010Y-112241785D01*
X132247061Y-112206337D01*
X132240010Y-112170889D01*
X132240010Y-112170885D01*
X132219122Y-112065873D01*
X132181136Y-112009025D01*
X132159637Y-111976848D01*
X132159635Y-111976846D01*
X132139554Y-111946793D01*
X132109501Y-111926712D01*
X130697301Y-110514513D01*
X130677217Y-110484455D01*
X130618856Y-110445459D01*
X130618856Y-109744000D01*
X130591692Y-109607437D01*
X130514335Y-109491665D01*
X130487898Y-109474000D01*
X130514335Y-109456335D01*
X130591692Y-109340563D01*
X130618856Y-109204000D01*
X130618856Y-108031988D01*
X131056314Y-108031988D01*
X130953534Y-108134768D01*
X130953534Y-108134768D01*
G37*
X130953534Y-108134768D02*
X130850010Y-108384697D01*
X130850010Y-108655217D01*
X130953534Y-108905146D01*
X131144821Y-109096433D01*
X131394750Y-109199957D01*
X131665270Y-109199957D01*
X131915199Y-109096433D01*
X132106486Y-108905146D01*
X132210010Y-108655217D01*
X132210010Y-108479958D01*
X134399958Y-108479958D01*
X134399958Y-108578610D01*
X134503482Y-108828539D01*
X134694769Y-109019826D01*
X134944698Y-109123350D01*
X135215218Y-109123350D01*
X135229413Y-109117470D01*
X134380512Y-109966372D01*
X134350456Y-109986455D01*
X134330374Y-110016510D01*
X134270889Y-110105535D01*
X134242949Y-110245999D01*
X134250001Y-110281452D01*
X134250002Y-115144543D01*
X134242949Y-115180001D01*
X134270889Y-115320465D01*
X134330374Y-115409490D01*
X134350457Y-115439546D01*
X134380513Y-115459629D01*
X134560434Y-115639550D01*
X134550000Y-115664740D01*
X134550000Y-115935260D01*
X134559157Y-115957366D01*
X134490889Y-116059534D01*
X134481094Y-116108777D01*
X134462949Y-116199999D01*
X134470001Y-116235452D01*
X134470001Y-116385347D01*
X133229565Y-117625784D01*
X133229624Y-117625695D01*
X133229626Y-117625693D01*
X133265373Y-117572194D01*
X133289111Y-117536668D01*
X133309999Y-117431656D01*
X133309999Y-117431652D01*
X133317050Y-117396204D01*
X133309999Y-117360756D01*
X133309999Y-110785451D01*
X133317051Y-110749998D01*
X133289111Y-110609534D01*
X133272792Y-110585111D01*
X133220844Y-110507365D01*
X133230000Y-110485260D01*
X133230000Y-110214740D01*
X133126476Y-109964811D01*
X132935189Y-109773524D01*
X132685260Y-109670000D01*
X132414740Y-109670000D01*
X132164811Y-109773524D01*
X131973524Y-109964811D01*
X131870000Y-110214740D01*
X131870000Y-110485260D01*
X131973524Y-110735189D01*
X132164811Y-110926476D01*
X132414740Y-111030000D01*
X132590000Y-111030000D01*
X132589999Y-117247086D01*
X131946920Y-117890166D01*
X131946920Y-117311222D01*
X132109499Y-117148644D01*
X132139555Y-117128561D01*
X132219122Y-117009481D01*
X132240010Y-116904469D01*
X132243094Y-116888963D01*
X132265199Y-116879807D01*
X132456486Y-116688520D01*
X132560010Y-116438591D01*
X132560010Y-116168071D01*
X132456486Y-115918142D01*
X132265199Y-115726855D01*
X132240010Y-115716421D01*
X132240010Y-112241785D01*
X132247061Y-112206337D01*
X132240010Y-112170889D01*
X132240010Y-112170885D01*
X132219122Y-112065873D01*
X132181136Y-112009025D01*
X132159637Y-111976848D01*
X132159635Y-111976846D01*
X132139554Y-111946793D01*
X132109501Y-111926712D01*
X130697301Y-110514513D01*
X130677217Y-110484455D01*
X130618856Y-110445459D01*
X130618856Y-109744000D01*
X130591692Y-109607437D01*
X130514335Y-109491665D01*
X130487898Y-109474000D01*
X130514335Y-109456335D01*
X130591692Y-109340563D01*
X130618856Y-109204000D01*
X130618856Y-108031988D01*
X131056314Y-108031988D01*
X130953534Y-108134768D01*
G04 #@! TD*
M02*
