G04 #@! TF.GenerationSoftware,KiCad,Pcbnew,5.0.1-33cea8e~68~ubuntu14.04.1*
G04 #@! TF.CreationDate,2018-11-23T14:42:36-08:00*
G04 #@! TF.ProjectId,while,7768696C652E6B696361645F70636200,rev?*
G04 #@! TF.SameCoordinates,Original*
G04 #@! TF.FileFunction,Legend,Top*
G04 #@! TF.FilePolarity,Positive*
%FSLAX46Y46*%
G04 Gerber Fmt 4.6, Leading zero omitted, Abs format (unit mm)*
G04 Created by KiCad (PCBNEW 5.0.1-33cea8e~68~ubuntu14.04.1) date Fri 23 Nov 2018 02:42:36 PM PST*
%MOMM*%
%LPD*%
G01*
G04 APERTURE LIST*
%ADD10C,0.300000*%
%ADD11C,0.500000*%
%ADD12C,0.200000*%
%ADD13C,0.150000*%
%ADD14C,0.120000*%
G04 APERTURE END LIST*
D10*
X126874285Y-124998571D02*
X126017142Y-124998571D01*
X126445714Y-124998571D02*
X126445714Y-123498571D01*
X126302857Y-123712857D01*
X126160000Y-123855714D01*
X126017142Y-123927142D01*
X127802857Y-123498571D02*
X127945714Y-123498571D01*
X128088571Y-123570000D01*
X128160000Y-123641428D01*
X128231428Y-123784285D01*
X128302857Y-124070000D01*
X128302857Y-124427142D01*
X128231428Y-124712857D01*
X128160000Y-124855714D01*
X128088571Y-124927142D01*
X127945714Y-124998571D01*
X127802857Y-124998571D01*
X127660000Y-124927142D01*
X127588571Y-124855714D01*
X127517142Y-124712857D01*
X127445714Y-124427142D01*
X127445714Y-124070000D01*
X127517142Y-123784285D01*
X127588571Y-123641428D01*
X127660000Y-123570000D01*
X127802857Y-123498571D01*
X129934285Y-125048571D02*
X130220000Y-125048571D01*
X130362857Y-124977142D01*
X130434285Y-124905714D01*
X130577142Y-124691428D01*
X130648571Y-124405714D01*
X130648571Y-123834285D01*
X130577142Y-123691428D01*
X130505714Y-123620000D01*
X130362857Y-123548571D01*
X130077142Y-123548571D01*
X129934285Y-123620000D01*
X129862857Y-123691428D01*
X129791428Y-123834285D01*
X129791428Y-124191428D01*
X129862857Y-124334285D01*
X129934285Y-124405714D01*
X130077142Y-124477142D01*
X130362857Y-124477142D01*
X130505714Y-124405714D01*
X130577142Y-124334285D01*
X130648571Y-124191428D01*
X132557142Y-123831428D02*
X132414285Y-123760000D01*
X132342857Y-123688571D01*
X132271428Y-123545714D01*
X132271428Y-123474285D01*
X132342857Y-123331428D01*
X132414285Y-123260000D01*
X132557142Y-123188571D01*
X132842857Y-123188571D01*
X132985714Y-123260000D01*
X133057142Y-123331428D01*
X133128571Y-123474285D01*
X133128571Y-123545714D01*
X133057142Y-123688571D01*
X132985714Y-123760000D01*
X132842857Y-123831428D01*
X132557142Y-123831428D01*
X132414285Y-123902857D01*
X132342857Y-123974285D01*
X132271428Y-124117142D01*
X132271428Y-124402857D01*
X132342857Y-124545714D01*
X132414285Y-124617142D01*
X132557142Y-124688571D01*
X132842857Y-124688571D01*
X132985714Y-124617142D01*
X133057142Y-124545714D01*
X133128571Y-124402857D01*
X133128571Y-124117142D01*
X133057142Y-123974285D01*
X132985714Y-123902857D01*
X132842857Y-123831428D01*
X134750000Y-123188571D02*
X135750000Y-123188571D01*
X135107142Y-124688571D01*
X137825714Y-123268571D02*
X137540000Y-123268571D01*
X137397142Y-123340000D01*
X137325714Y-123411428D01*
X137182857Y-123625714D01*
X137111428Y-123911428D01*
X137111428Y-124482857D01*
X137182857Y-124625714D01*
X137254285Y-124697142D01*
X137397142Y-124768571D01*
X137682857Y-124768571D01*
X137825714Y-124697142D01*
X137897142Y-124625714D01*
X137968571Y-124482857D01*
X137968571Y-124125714D01*
X137897142Y-123982857D01*
X137825714Y-123911428D01*
X137682857Y-123840000D01*
X137397142Y-123840000D01*
X137254285Y-123911428D01*
X137182857Y-123982857D01*
X137111428Y-124125714D01*
X140407142Y-123268571D02*
X139692857Y-123268571D01*
X139621428Y-123982857D01*
X139692857Y-123911428D01*
X139835714Y-123840000D01*
X140192857Y-123840000D01*
X140335714Y-123911428D01*
X140407142Y-123982857D01*
X140478571Y-124125714D01*
X140478571Y-124482857D01*
X140407142Y-124625714D01*
X140335714Y-124697142D01*
X140192857Y-124768571D01*
X139835714Y-124768571D01*
X139692857Y-124697142D01*
X139621428Y-124625714D01*
X142935714Y-123648571D02*
X142935714Y-124648571D01*
X142578571Y-123077142D02*
X142221428Y-124148571D01*
X143150000Y-124148571D01*
X144780000Y-123118571D02*
X145708571Y-123118571D01*
X145208571Y-123690000D01*
X145422857Y-123690000D01*
X145565714Y-123761428D01*
X145637142Y-123832857D01*
X145708571Y-123975714D01*
X145708571Y-124332857D01*
X145637142Y-124475714D01*
X145565714Y-124547142D01*
X145422857Y-124618571D01*
X144994285Y-124618571D01*
X144851428Y-124547142D01*
X144780000Y-124475714D01*
D11*
X146870000Y-122740000D02*
X150350000Y-127350000D01*
X137790000Y-122780000D02*
X146740000Y-122780000D01*
X135170000Y-122610000D02*
X135940000Y-122100000D01*
X126080000Y-122640000D02*
X135170000Y-122630000D01*
D12*
X136608095Y-121838571D02*
X136608095Y-121052857D01*
X136546190Y-120910000D01*
X136422380Y-120838571D01*
X136174761Y-120838571D01*
X136050952Y-120910000D01*
X136608095Y-121767142D02*
X136484285Y-121838571D01*
X136174761Y-121838571D01*
X136050952Y-121767142D01*
X135989047Y-121624285D01*
X135989047Y-121481428D01*
X136050952Y-121338571D01*
X136174761Y-121267142D01*
X136484285Y-121267142D01*
X136608095Y-121195714D01*
X137784285Y-121767142D02*
X137660476Y-121838571D01*
X137412857Y-121838571D01*
X137289047Y-121767142D01*
X137227142Y-121695714D01*
X137165238Y-121552857D01*
X137165238Y-121124285D01*
X137227142Y-120981428D01*
X137289047Y-120910000D01*
X137412857Y-120838571D01*
X137660476Y-120838571D01*
X137784285Y-120910000D01*
X138155714Y-120838571D02*
X138650952Y-120838571D01*
X138341428Y-120338571D02*
X138341428Y-121624285D01*
X138403333Y-121767142D01*
X138527142Y-121838571D01*
X138650952Y-121838571D01*
X139084285Y-121838571D02*
X139084285Y-120838571D01*
X139084285Y-120338571D02*
X139022380Y-120410000D01*
X139084285Y-120481428D01*
X139146190Y-120410000D01*
X139084285Y-120338571D01*
X139084285Y-120481428D01*
X139579523Y-120838571D02*
X139889047Y-121838571D01*
X140198571Y-120838571D01*
X141189047Y-121767142D02*
X141065238Y-121838571D01*
X140817619Y-121838571D01*
X140693809Y-121767142D01*
X140631904Y-121624285D01*
X140631904Y-121052857D01*
X140693809Y-120910000D01*
X140817619Y-120838571D01*
X141065238Y-120838571D01*
X141189047Y-120910000D01*
X141250952Y-121052857D01*
X141250952Y-121195714D01*
X140631904Y-121338571D01*
D10*
X137383333Y-163883333D02*
X137383333Y-162483333D01*
X137383333Y-163150000D02*
X138183333Y-163150000D01*
X138183333Y-163883333D02*
X138183333Y-162483333D01*
X138850000Y-163883333D02*
X138850000Y-162483333D01*
X140250000Y-162550000D02*
X140116666Y-162483333D01*
X139916666Y-162483333D01*
X139716666Y-162550000D01*
X139583333Y-162683333D01*
X139516666Y-162816666D01*
X139450000Y-163083333D01*
X139450000Y-163283333D01*
X139516666Y-163550000D01*
X139583333Y-163683333D01*
X139716666Y-163816666D01*
X139916666Y-163883333D01*
X140050000Y-163883333D01*
X140250000Y-163816666D01*
X140316666Y-163750000D01*
X140316666Y-163283333D01*
X140050000Y-163283333D01*
X140916666Y-163883333D02*
X140916666Y-162483333D01*
X140916666Y-163150000D02*
X141716666Y-163150000D01*
X141716666Y-163883333D02*
X141716666Y-162483333D01*
X132150000Y-163733333D02*
X131483333Y-163733333D01*
X131483333Y-162333333D01*
X132883333Y-162333333D02*
X133150000Y-162333333D01*
X133283333Y-162400000D01*
X133416666Y-162533333D01*
X133483333Y-162800000D01*
X133483333Y-163266666D01*
X133416666Y-163533333D01*
X133283333Y-163666666D01*
X133150000Y-163733333D01*
X132883333Y-163733333D01*
X132750000Y-163666666D01*
X132616666Y-163533333D01*
X132550000Y-163266666D01*
X132550000Y-162800000D01*
X132616666Y-162533333D01*
X132750000Y-162400000D01*
X132883333Y-162333333D01*
X133950000Y-162333333D02*
X134283333Y-163733333D01*
X134550000Y-162733333D01*
X134816666Y-163733333D01*
X135150000Y-162333333D01*
X141533333Y-161200000D02*
X141466666Y-161266666D01*
X141266666Y-161333333D01*
X141133333Y-161333333D01*
X140933333Y-161266666D01*
X140800000Y-161133333D01*
X140733333Y-161000000D01*
X140666666Y-160733333D01*
X140666666Y-160533333D01*
X140733333Y-160266666D01*
X140800000Y-160133333D01*
X140933333Y-160000000D01*
X141133333Y-159933333D01*
X141266666Y-159933333D01*
X141466666Y-160000000D01*
X141533333Y-160066666D01*
X142333333Y-161333333D02*
X142200000Y-161266666D01*
X142133333Y-161200000D01*
X142066666Y-161066666D01*
X142066666Y-160666666D01*
X142133333Y-160533333D01*
X142200000Y-160466666D01*
X142333333Y-160400000D01*
X142533333Y-160400000D01*
X142666666Y-160466666D01*
X142733333Y-160533333D01*
X142800000Y-160666666D01*
X142800000Y-161066666D01*
X142733333Y-161200000D01*
X142666666Y-161266666D01*
X142533333Y-161333333D01*
X142333333Y-161333333D01*
X143400000Y-160400000D02*
X143400000Y-161333333D01*
X143400000Y-160533333D02*
X143466666Y-160466666D01*
X143600000Y-160400000D01*
X143800000Y-160400000D01*
X143933333Y-160466666D01*
X144000000Y-160600000D01*
X144000000Y-161333333D01*
X145266666Y-161333333D02*
X145266666Y-159933333D01*
X145266666Y-161266666D02*
X145133333Y-161333333D01*
X144866666Y-161333333D01*
X144733333Y-161266666D01*
X144666666Y-161200000D01*
X144600000Y-161066666D01*
X144600000Y-160666666D01*
X144666666Y-160533333D01*
X144733333Y-160466666D01*
X144866666Y-160400000D01*
X145133333Y-160400000D01*
X145266666Y-160466666D01*
X145933333Y-161333333D02*
X145933333Y-160400000D01*
X145933333Y-159933333D02*
X145866666Y-160000000D01*
X145933333Y-160066666D01*
X146000000Y-160000000D01*
X145933333Y-159933333D01*
X145933333Y-160066666D01*
X146400000Y-160400000D02*
X146933333Y-160400000D01*
X146600000Y-159933333D02*
X146600000Y-161133333D01*
X146666666Y-161266666D01*
X146800000Y-161333333D01*
X146933333Y-161333333D01*
X147400000Y-161333333D02*
X147400000Y-160400000D01*
X147400000Y-159933333D02*
X147333333Y-160000000D01*
X147400000Y-160066666D01*
X147466666Y-160000000D01*
X147400000Y-159933333D01*
X147400000Y-160066666D01*
X148266666Y-161333333D02*
X148133333Y-161266666D01*
X148066666Y-161200000D01*
X148000000Y-161066666D01*
X148000000Y-160666666D01*
X148066666Y-160533333D01*
X148133333Y-160466666D01*
X148266666Y-160400000D01*
X148466666Y-160400000D01*
X148600000Y-160466666D01*
X148666666Y-160533333D01*
X148733333Y-160666666D01*
X148733333Y-161066666D01*
X148666666Y-161200000D01*
X148600000Y-161266666D01*
X148466666Y-161333333D01*
X148266666Y-161333333D01*
X149333333Y-160400000D02*
X149333333Y-161333333D01*
X149333333Y-160533333D02*
X149400000Y-160466666D01*
X149533333Y-160400000D01*
X149733333Y-160400000D01*
X149866666Y-160466666D01*
X149933333Y-160600000D01*
X149933333Y-161333333D01*
X151600000Y-161266666D02*
X151800000Y-161333333D01*
X152133333Y-161333333D01*
X152266666Y-161266666D01*
X152333333Y-161200000D01*
X152400000Y-161066666D01*
X152400000Y-160933333D01*
X152333333Y-160800000D01*
X152266666Y-160733333D01*
X152133333Y-160666666D01*
X151866666Y-160600000D01*
X151733333Y-160533333D01*
X151666666Y-160466666D01*
X151600000Y-160333333D01*
X151600000Y-160200000D01*
X151666666Y-160066666D01*
X151733333Y-160000000D01*
X151866666Y-159933333D01*
X152200000Y-159933333D01*
X152400000Y-160000000D01*
X153533333Y-161266666D02*
X153400000Y-161333333D01*
X153133333Y-161333333D01*
X153000000Y-161266666D01*
X152933333Y-161133333D01*
X152933333Y-160600000D01*
X153000000Y-160466666D01*
X153133333Y-160400000D01*
X153400000Y-160400000D01*
X153533333Y-160466666D01*
X153600000Y-160600000D01*
X153600000Y-160733333D01*
X152933333Y-160866666D01*
X154400000Y-161333333D02*
X154266666Y-161266666D01*
X154200000Y-161133333D01*
X154200000Y-159933333D01*
X155466666Y-161266666D02*
X155333333Y-161333333D01*
X155066666Y-161333333D01*
X154933333Y-161266666D01*
X154866666Y-161133333D01*
X154866666Y-160600000D01*
X154933333Y-160466666D01*
X155066666Y-160400000D01*
X155333333Y-160400000D01*
X155466666Y-160466666D01*
X155533333Y-160600000D01*
X155533333Y-160733333D01*
X154866666Y-160866666D01*
X156733333Y-161266666D02*
X156600000Y-161333333D01*
X156333333Y-161333333D01*
X156200000Y-161266666D01*
X156133333Y-161200000D01*
X156066666Y-161066666D01*
X156066666Y-160666666D01*
X156133333Y-160533333D01*
X156200000Y-160466666D01*
X156333333Y-160400000D01*
X156600000Y-160400000D01*
X156733333Y-160466666D01*
X157133333Y-160400000D02*
X157666666Y-160400000D01*
X157333333Y-159933333D02*
X157333333Y-161133333D01*
X157400000Y-161266666D01*
X157533333Y-161333333D01*
X157666666Y-161333333D01*
X131432857Y-121175714D02*
X131504285Y-120961428D01*
X131575714Y-120890000D01*
X131718571Y-120818571D01*
X131932857Y-120818571D01*
X132075714Y-120890000D01*
X132147142Y-120961428D01*
X132218571Y-121104285D01*
X132218571Y-121675714D01*
X130718571Y-121675714D01*
X130718571Y-121175714D01*
X130790000Y-121032857D01*
X130861428Y-120961428D01*
X131004285Y-120890000D01*
X131147142Y-120890000D01*
X131290000Y-120961428D01*
X131361428Y-121032857D01*
X131432857Y-121175714D01*
X131432857Y-121675714D01*
X130718571Y-119890000D02*
X130718571Y-119604285D01*
X130790000Y-119461428D01*
X130932857Y-119318571D01*
X131218571Y-119247142D01*
X131718571Y-119247142D01*
X132004285Y-119318571D01*
X132147142Y-119461428D01*
X132218571Y-119604285D01*
X132218571Y-119890000D01*
X132147142Y-120032857D01*
X132004285Y-120175714D01*
X131718571Y-120247142D01*
X131218571Y-120247142D01*
X130932857Y-120175714D01*
X130790000Y-120032857D01*
X130718571Y-119890000D01*
X130718571Y-118318571D02*
X130718571Y-118032857D01*
X130790000Y-117890000D01*
X130932857Y-117747142D01*
X131218571Y-117675714D01*
X131718571Y-117675714D01*
X132004285Y-117747142D01*
X132147142Y-117890000D01*
X132218571Y-118032857D01*
X132218571Y-118318571D01*
X132147142Y-118461428D01*
X132004285Y-118604285D01*
X131718571Y-118675714D01*
X131218571Y-118675714D01*
X130932857Y-118604285D01*
X130790000Y-118461428D01*
X130718571Y-118318571D01*
X130718571Y-117247142D02*
X130718571Y-116390000D01*
X132218571Y-116818571D02*
X130718571Y-116818571D01*
X131464857Y-113732285D02*
X131464857Y-114232285D01*
X132250571Y-114232285D02*
X130750571Y-114232285D01*
X130750571Y-113518000D01*
X130750571Y-113160857D02*
X130750571Y-112303714D01*
X132250571Y-112732285D02*
X130750571Y-112732285D01*
X132250571Y-111803714D02*
X130750571Y-111803714D01*
X130750571Y-111446571D01*
X130822000Y-111232285D01*
X130964857Y-111089428D01*
X131107714Y-111018000D01*
X131393428Y-110946571D01*
X131607714Y-110946571D01*
X131893428Y-111018000D01*
X132036285Y-111089428D01*
X132179142Y-111232285D01*
X132250571Y-111446571D01*
X132250571Y-111803714D01*
X132250571Y-110303714D02*
X130750571Y-110303714D01*
D13*
X149071428Y-169021428D02*
X149380952Y-169888095D01*
X149690476Y-169021428D01*
X150123809Y-168711904D02*
X150185714Y-168650000D01*
X150309523Y-168588095D01*
X150619047Y-168588095D01*
X150742857Y-168650000D01*
X150804761Y-168711904D01*
X150866666Y-168835714D01*
X150866666Y-168959523D01*
X150804761Y-169145238D01*
X150061904Y-169888095D01*
X150866666Y-169888095D01*
D12*
X148112857Y-147547142D02*
X148170000Y-147490000D01*
X148284285Y-147432857D01*
X148570000Y-147432857D01*
X148684285Y-147490000D01*
X148741428Y-147547142D01*
X148798571Y-147661428D01*
X148798571Y-147775714D01*
X148741428Y-147947142D01*
X148055714Y-148632857D01*
X148798571Y-148632857D01*
X149312857Y-148004285D02*
X150227142Y-148004285D01*
X150227142Y-148347142D02*
X149312857Y-148347142D01*
X150798571Y-148632857D02*
X150798571Y-147432857D01*
X151484285Y-148632857D01*
X151484285Y-147432857D01*
X152512857Y-148575714D02*
X152398571Y-148632857D01*
X152170000Y-148632857D01*
X152055714Y-148575714D01*
X151998571Y-148461428D01*
X151998571Y-148004285D01*
X152055714Y-147890000D01*
X152170000Y-147832857D01*
X152398571Y-147832857D01*
X152512857Y-147890000D01*
X152570000Y-148004285D01*
X152570000Y-148118571D01*
X151998571Y-148232857D01*
X152970000Y-148632857D02*
X153598571Y-147832857D01*
X152970000Y-147832857D02*
X153598571Y-148632857D01*
X153884285Y-147832857D02*
X154341428Y-147832857D01*
X154055714Y-147432857D02*
X154055714Y-148461428D01*
X154112857Y-148575714D01*
X154227142Y-148632857D01*
X154341428Y-148632857D01*
X148730000Y-146902857D02*
X148044285Y-146902857D01*
X148387142Y-146902857D02*
X148387142Y-145702857D01*
X148272857Y-145874285D01*
X148158571Y-145988571D01*
X148044285Y-146045714D01*
X149244285Y-146274285D02*
X150158571Y-146274285D01*
X150158571Y-146617142D02*
X149244285Y-146617142D01*
X151130000Y-146274285D02*
X150730000Y-146274285D01*
X150730000Y-146902857D02*
X150730000Y-145702857D01*
X151301428Y-145702857D01*
X151758571Y-146902857D02*
X151758571Y-146102857D01*
X151758571Y-145702857D02*
X151701428Y-145760000D01*
X151758571Y-145817142D01*
X151815714Y-145760000D01*
X151758571Y-145702857D01*
X151758571Y-145817142D01*
X152330000Y-146902857D02*
X152330000Y-146102857D01*
X152330000Y-146331428D02*
X152387142Y-146217142D01*
X152444285Y-146160000D01*
X152558571Y-146102857D01*
X152672857Y-146102857D01*
X153015714Y-146845714D02*
X153130000Y-146902857D01*
X153358571Y-146902857D01*
X153472857Y-146845714D01*
X153530000Y-146731428D01*
X153530000Y-146674285D01*
X153472857Y-146560000D01*
X153358571Y-146502857D01*
X153187142Y-146502857D01*
X153072857Y-146445714D01*
X153015714Y-146331428D01*
X153015714Y-146274285D01*
X153072857Y-146160000D01*
X153187142Y-146102857D01*
X153358571Y-146102857D01*
X153472857Y-146160000D01*
X153872857Y-146102857D02*
X154330000Y-146102857D01*
X154044285Y-145702857D02*
X154044285Y-146731428D01*
X154101428Y-146845714D01*
X154215714Y-146902857D01*
X154330000Y-146902857D01*
D10*
X147850000Y-155007142D02*
X147850000Y-152007142D01*
X149278571Y-155007142D02*
X149278571Y-152007142D01*
X149992857Y-152007142D01*
X150421428Y-152150000D01*
X150707142Y-152435714D01*
X150850000Y-152721428D01*
X150992857Y-153292857D01*
X150992857Y-153721428D01*
X150850000Y-154292857D01*
X150707142Y-154578571D01*
X150421428Y-154864285D01*
X149992857Y-155007142D01*
X149278571Y-155007142D01*
D12*
X147428571Y-129028571D02*
X147600000Y-129114285D01*
X147942857Y-129114285D01*
X148114285Y-129028571D01*
X148200000Y-128857142D01*
X148200000Y-128771428D01*
X148114285Y-128600000D01*
X147942857Y-128514285D01*
X147685714Y-128514285D01*
X147514285Y-128428571D01*
X147428571Y-128257142D01*
X147428571Y-128171428D01*
X147514285Y-128000000D01*
X147685714Y-127914285D01*
X147942857Y-127914285D01*
X148114285Y-128000000D01*
X149657142Y-129028571D02*
X149485714Y-129114285D01*
X149142857Y-129114285D01*
X148971428Y-129028571D01*
X148885714Y-128857142D01*
X148885714Y-128171428D01*
X148971428Y-128000000D01*
X149142857Y-127914285D01*
X149485714Y-127914285D01*
X149657142Y-128000000D01*
X149742857Y-128171428D01*
X149742857Y-128342857D01*
X148885714Y-128514285D01*
X150514285Y-127914285D02*
X150514285Y-129114285D01*
X150514285Y-128085714D02*
X150600000Y-128000000D01*
X150771428Y-127914285D01*
X151028571Y-127914285D01*
X151200000Y-128000000D01*
X151285714Y-128171428D01*
X151285714Y-129114285D01*
X152057142Y-129028571D02*
X152228571Y-129114285D01*
X152571428Y-129114285D01*
X152742857Y-129028571D01*
X152828571Y-128857142D01*
X152828571Y-128771428D01*
X152742857Y-128600000D01*
X152571428Y-128514285D01*
X152314285Y-128514285D01*
X152142857Y-128428571D01*
X152057142Y-128257142D01*
X152057142Y-128171428D01*
X152142857Y-128000000D01*
X152314285Y-127914285D01*
X152571428Y-127914285D01*
X152742857Y-128000000D01*
X153857142Y-129114285D02*
X153685714Y-129028571D01*
X153600000Y-128942857D01*
X153514285Y-128771428D01*
X153514285Y-128257142D01*
X153600000Y-128085714D01*
X153685714Y-128000000D01*
X153857142Y-127914285D01*
X154114285Y-127914285D01*
X154285714Y-128000000D01*
X154371428Y-128085714D01*
X154457142Y-128257142D01*
X154457142Y-128771428D01*
X154371428Y-128942857D01*
X154285714Y-129028571D01*
X154114285Y-129114285D01*
X153857142Y-129114285D01*
X155228571Y-129114285D02*
X155228571Y-127914285D01*
X155228571Y-128257142D02*
X155314285Y-128085714D01*
X155400000Y-128000000D01*
X155571428Y-127914285D01*
X155742857Y-127914285D01*
D10*
X147664285Y-143807142D02*
X147664285Y-140807142D01*
X149378571Y-143807142D01*
X149378571Y-140807142D01*
X150807142Y-142235714D02*
X151807142Y-142235714D01*
X152235714Y-143807142D02*
X150807142Y-143807142D01*
X150807142Y-140807142D01*
X152235714Y-140807142D01*
X153235714Y-140807142D02*
X155235714Y-143807142D01*
X155235714Y-140807142D02*
X153235714Y-143807142D01*
X155950000Y-140807142D02*
X157664285Y-140807142D01*
X156807142Y-143807142D02*
X156807142Y-140807142D01*
D13*
X131429428Y-100500571D02*
X131429428Y-99500571D01*
X131429428Y-99786285D02*
X131500857Y-99643428D01*
X131572285Y-99572000D01*
X131715142Y-99500571D01*
X131858000Y-99500571D01*
X132929428Y-100429142D02*
X132786571Y-100500571D01*
X132500857Y-100500571D01*
X132358000Y-100429142D01*
X132286571Y-100286285D01*
X132286571Y-99714857D01*
X132358000Y-99572000D01*
X132500857Y-99500571D01*
X132786571Y-99500571D01*
X132929428Y-99572000D01*
X133000857Y-99714857D01*
X133000857Y-99857714D01*
X132286571Y-100000571D01*
X133572285Y-100429142D02*
X133715142Y-100500571D01*
X134000857Y-100500571D01*
X134143714Y-100429142D01*
X134215142Y-100286285D01*
X134215142Y-100214857D01*
X134143714Y-100072000D01*
X134000857Y-100000571D01*
X133786571Y-100000571D01*
X133643714Y-99929142D01*
X133572285Y-99786285D01*
X133572285Y-99714857D01*
X133643714Y-99572000D01*
X133786571Y-99500571D01*
X134000857Y-99500571D01*
X134143714Y-99572000D01*
X135429428Y-100429142D02*
X135286571Y-100500571D01*
X135000857Y-100500571D01*
X134858000Y-100429142D01*
X134786571Y-100286285D01*
X134786571Y-99714857D01*
X134858000Y-99572000D01*
X135000857Y-99500571D01*
X135286571Y-99500571D01*
X135429428Y-99572000D01*
X135500857Y-99714857D01*
X135500857Y-99857714D01*
X134786571Y-100000571D01*
X135929428Y-99500571D02*
X136500857Y-99500571D01*
X136143714Y-99000571D02*
X136143714Y-100286285D01*
X136215142Y-100429142D01*
X136358000Y-100500571D01*
X136500857Y-100500571D01*
D12*
X132009800Y-164630000D02*
X148723000Y-164630000D01*
X132009800Y-169557600D02*
X132009800Y-164630000D01*
X148748400Y-169557600D02*
X132009800Y-169557600D01*
X148723000Y-164604600D02*
X148723000Y-169532200D01*
D10*
X132305266Y-165081123D02*
X133221933Y-169081123D01*
X133955266Y-166223980D01*
X134688600Y-169081123D01*
X135605266Y-165081123D01*
X137071933Y-169081123D02*
X137071933Y-165081123D01*
X137071933Y-166985885D02*
X139271933Y-166985885D01*
X139271933Y-169081123D02*
X139271933Y-165081123D01*
X141105266Y-169081123D02*
X141105266Y-165081123D01*
X144771933Y-169081123D02*
X142938600Y-169081123D01*
X142938600Y-165081123D01*
X146055266Y-166985885D02*
X147338600Y-166985885D01*
X147888600Y-169081123D02*
X146055266Y-169081123D01*
X146055266Y-165081123D01*
X147888600Y-165081123D01*
D13*
X149570571Y-109136571D02*
X149570571Y-108350857D01*
X149499142Y-108208000D01*
X149356285Y-108136571D01*
X149070571Y-108136571D01*
X148927714Y-108208000D01*
X149570571Y-109065142D02*
X149427714Y-109136571D01*
X149070571Y-109136571D01*
X148927714Y-109065142D01*
X148856285Y-108922285D01*
X148856285Y-108779428D01*
X148927714Y-108636571D01*
X149070571Y-108565142D01*
X149427714Y-108565142D01*
X149570571Y-108493714D01*
X150927714Y-109065142D02*
X150784857Y-109136571D01*
X150499142Y-109136571D01*
X150356285Y-109065142D01*
X150284857Y-108993714D01*
X150213428Y-108850857D01*
X150213428Y-108422285D01*
X150284857Y-108279428D01*
X150356285Y-108208000D01*
X150499142Y-108136571D01*
X150784857Y-108136571D01*
X150927714Y-108208000D01*
X151356285Y-108136571D02*
X151927714Y-108136571D01*
X151570571Y-107636571D02*
X151570571Y-108922285D01*
X151642000Y-109065142D01*
X151784857Y-109136571D01*
X151927714Y-109136571D01*
X152427714Y-109136571D02*
X152427714Y-108136571D01*
X152427714Y-107636571D02*
X152356285Y-107708000D01*
X152427714Y-107779428D01*
X152499142Y-107708000D01*
X152427714Y-107636571D01*
X152427714Y-107779428D01*
X152999142Y-108136571D02*
X153356285Y-109136571D01*
X153713428Y-108136571D01*
X154856285Y-109065142D02*
X154713428Y-109136571D01*
X154427714Y-109136571D01*
X154284857Y-109065142D01*
X154213428Y-108922285D01*
X154213428Y-108350857D01*
X154284857Y-108208000D01*
X154427714Y-108136571D01*
X154713428Y-108136571D01*
X154856285Y-108208000D01*
X154927714Y-108350857D01*
X154927714Y-108493714D01*
X154213428Y-108636571D01*
D14*
G04 #@! TO.C,SW5*
X146618000Y-131302000D02*
G75*
G02X146618000Y-129302000I0J1000000D01*
G01*
X146618000Y-129302000D02*
X146618000Y-127652000D01*
X146618000Y-127652000D02*
X126178000Y-127652000D01*
X126178000Y-127652000D02*
X126178000Y-132952000D01*
X126178000Y-132952000D02*
X146618000Y-132952000D01*
X146618000Y-132952000D02*
X146618000Y-131302000D01*
X146678000Y-125162000D02*
X126118000Y-125162000D01*
X126118000Y-125162000D02*
X126118000Y-135442000D01*
X126118000Y-135442000D02*
X146678000Y-135442000D01*
X146678000Y-135442000D02*
X146678000Y-125162000D01*
G04 #@! TO.C,C2*
X146164721Y-119958000D02*
X146490279Y-119958000D01*
X146164721Y-118938000D02*
X146490279Y-118938000D01*
G04 #@! TO.C,C3*
X146289721Y-120928000D02*
X146615279Y-120928000D01*
X146289721Y-121948000D02*
X146615279Y-121948000D01*
G04 #@! TO.C,C4*
X137094279Y-107444000D02*
X136768721Y-107444000D01*
X137094279Y-106424000D02*
X136768721Y-106424000D01*
G04 #@! TO.C,C5*
X136717721Y-103634000D02*
X137043279Y-103634000D01*
X136717721Y-102614000D02*
X137043279Y-102614000D01*
G04 #@! TO.C,J5*
X132528000Y-93666000D02*
X132528000Y-98866000D01*
X147828000Y-93666000D02*
X132528000Y-93666000D01*
X150428000Y-98866000D02*
X132528000Y-98866000D01*
X147828000Y-93666000D02*
X147828000Y-96266000D01*
X147828000Y-96266000D02*
X150428000Y-96266000D01*
X150428000Y-96266000D02*
X150428000Y-98866000D01*
X149098000Y-93666000D02*
X150428000Y-93666000D01*
X150428000Y-93666000D02*
X150428000Y-94996000D01*
G04 #@! TO.C,R1*
X140809721Y-106360000D02*
X141135279Y-106360000D01*
X140809721Y-107380000D02*
X141135279Y-107380000D01*
G04 #@! TO.C,R2*
X133280279Y-107340000D02*
X132954721Y-107340000D01*
X133280279Y-106320000D02*
X132954721Y-106320000D01*
G04 #@! TO.C,R4*
X146079721Y-113918000D02*
X146405279Y-113918000D01*
X146079721Y-112898000D02*
X146405279Y-112898000D01*
G04 #@! TO.C,SW2*
X146826000Y-106764000D02*
X144766000Y-106764000D01*
X146826000Y-102024000D02*
X144766000Y-102024000D01*
X148166000Y-102024000D02*
X147766000Y-102024000D01*
X148166000Y-106764000D02*
X148166000Y-102024000D01*
X148166000Y-106764000D02*
X147766000Y-106764000D01*
X143426000Y-102024000D02*
X143826000Y-102024000D01*
X143426000Y-106764000D02*
X143826000Y-106764000D01*
X143426000Y-106764000D02*
X143426000Y-102024000D01*
G04 #@! TO.C,SW3*
X132462000Y-105724000D02*
X127722000Y-105724000D01*
X132462000Y-105724000D02*
X132462000Y-105324000D01*
X127722000Y-105724000D02*
X127722000Y-105324000D01*
X132462000Y-100984000D02*
X132462000Y-101384000D01*
X132462000Y-100984000D02*
X127722000Y-100984000D01*
X127722000Y-100984000D02*
X127722000Y-101384000D01*
X127722000Y-102324000D02*
X127722000Y-104384000D01*
X132462000Y-102324000D02*
X132462000Y-104384000D01*
G04 #@! TO.C,SW4*
X146678000Y-146872000D02*
X146678000Y-136592000D01*
X126118000Y-146872000D02*
X146678000Y-146872000D01*
X126118000Y-136592000D02*
X126118000Y-146872000D01*
X146678000Y-136592000D02*
X126118000Y-136592000D01*
X146618000Y-144382000D02*
X146618000Y-142732000D01*
X126178000Y-144382000D02*
X146618000Y-144382000D01*
X126178000Y-139082000D02*
X126178000Y-144382000D01*
X146618000Y-139082000D02*
X126178000Y-139082000D01*
X146618000Y-140732000D02*
X146618000Y-139082000D01*
X146618000Y-142732000D02*
G75*
G02X146618000Y-140732000I0J1000000D01*
G01*
G04 #@! TO.C,SW6*
X146570000Y-154130000D02*
G75*
G02X146570000Y-152130000I0J1000000D01*
G01*
X146570000Y-152130000D02*
X146570000Y-150480000D01*
X146570000Y-150480000D02*
X126130000Y-150480000D01*
X126130000Y-150480000D02*
X126130000Y-155780000D01*
X126130000Y-155780000D02*
X146570000Y-155780000D01*
X146570000Y-155780000D02*
X146570000Y-154130000D01*
X146630000Y-147990000D02*
X126070000Y-147990000D01*
X126070000Y-147990000D02*
X126070000Y-158270000D01*
X126070000Y-158270000D02*
X146630000Y-158270000D01*
X146630000Y-158270000D02*
X146630000Y-147990000D01*
D13*
G04 #@! TO.C,U1*
X134085000Y-118335000D02*
X134310000Y-118335000D01*
X134085000Y-111085000D02*
X134410000Y-111085000D01*
X141335000Y-111085000D02*
X141010000Y-111085000D01*
X141335000Y-118335000D02*
X141010000Y-118335000D01*
X134085000Y-118335000D02*
X134085000Y-118010000D01*
X141335000Y-118335000D02*
X141335000Y-118010000D01*
X141335000Y-111085000D02*
X141335000Y-111410000D01*
X134085000Y-111085000D02*
X134085000Y-111410000D01*
X134310000Y-118335000D02*
X134310000Y-119760000D01*
D14*
G04 #@! TO.C,Y1*
X154950000Y-123688000D02*
X154950000Y-111088000D01*
X154950000Y-111088000D02*
X149850000Y-111088000D01*
X149850000Y-111088000D02*
X149850000Y-123688000D01*
G04 #@! TO.C,C1*
X146505279Y-117008000D02*
X146179721Y-117008000D01*
X146505279Y-118028000D02*
X146179721Y-118028000D01*
G04 #@! TO.C,R7*
X142787221Y-120960000D02*
X143112779Y-120960000D01*
X142787221Y-121980000D02*
X143112779Y-121980000D01*
G04 #@! TO.C,J2*
X140080000Y-161880000D02*
X140080000Y-159220000D01*
X134940000Y-161880000D02*
X140080000Y-161880000D01*
X134940000Y-159220000D02*
X140080000Y-159220000D01*
X134940000Y-161880000D02*
X134940000Y-159220000D01*
X133670000Y-161880000D02*
X132340000Y-161880000D01*
X132340000Y-161880000D02*
X132340000Y-160550000D01*
G04 #@! TO.C,D2*
X133287500Y-121845000D02*
X135572500Y-121845000D01*
X135572500Y-121845000D02*
X135572500Y-120375000D01*
X135572500Y-120375000D02*
X133287500Y-120375000D01*
G04 #@! TO.C,SW5*
D13*
X130746666Y-130706761D02*
X130889523Y-130754380D01*
X131127619Y-130754380D01*
X131222857Y-130706761D01*
X131270476Y-130659142D01*
X131318095Y-130563904D01*
X131318095Y-130468666D01*
X131270476Y-130373428D01*
X131222857Y-130325809D01*
X131127619Y-130278190D01*
X130937142Y-130230571D01*
X130841904Y-130182952D01*
X130794285Y-130135333D01*
X130746666Y-130040095D01*
X130746666Y-129944857D01*
X130794285Y-129849619D01*
X130841904Y-129802000D01*
X130937142Y-129754380D01*
X131175238Y-129754380D01*
X131318095Y-129802000D01*
X131651428Y-129754380D02*
X131889523Y-130754380D01*
X132080000Y-130040095D01*
X132270476Y-130754380D01*
X132508571Y-129754380D01*
X133365714Y-129754380D02*
X132889523Y-129754380D01*
X132841904Y-130230571D01*
X132889523Y-130182952D01*
X132984761Y-130135333D01*
X133222857Y-130135333D01*
X133318095Y-130182952D01*
X133365714Y-130230571D01*
X133413333Y-130325809D01*
X133413333Y-130563904D01*
X133365714Y-130659142D01*
X133318095Y-130706761D01*
X133222857Y-130754380D01*
X132984761Y-130754380D01*
X132889523Y-130706761D01*
X132841904Y-130659142D01*
G04 #@! TO.C,C2*
X148663333Y-119915142D02*
X148615714Y-119962761D01*
X148472857Y-120010380D01*
X148377619Y-120010380D01*
X148234761Y-119962761D01*
X148139523Y-119867523D01*
X148091904Y-119772285D01*
X148044285Y-119581809D01*
X148044285Y-119438952D01*
X148091904Y-119248476D01*
X148139523Y-119153238D01*
X148234761Y-119058000D01*
X148377619Y-119010380D01*
X148472857Y-119010380D01*
X148615714Y-119058000D01*
X148663333Y-119105619D01*
X149044285Y-119105619D02*
X149091904Y-119058000D01*
X149187142Y-119010380D01*
X149425238Y-119010380D01*
X149520476Y-119058000D01*
X149568095Y-119105619D01*
X149615714Y-119200857D01*
X149615714Y-119296095D01*
X149568095Y-119438952D01*
X148996666Y-120010380D01*
X149615714Y-120010380D01*
G04 #@! TO.C,C3*
X148813333Y-121935142D02*
X148765714Y-121982761D01*
X148622857Y-122030380D01*
X148527619Y-122030380D01*
X148384761Y-121982761D01*
X148289523Y-121887523D01*
X148241904Y-121792285D01*
X148194285Y-121601809D01*
X148194285Y-121458952D01*
X148241904Y-121268476D01*
X148289523Y-121173238D01*
X148384761Y-121078000D01*
X148527619Y-121030380D01*
X148622857Y-121030380D01*
X148765714Y-121078000D01*
X148813333Y-121125619D01*
X149146666Y-121030380D02*
X149765714Y-121030380D01*
X149432380Y-121411333D01*
X149575238Y-121411333D01*
X149670476Y-121458952D01*
X149718095Y-121506571D01*
X149765714Y-121601809D01*
X149765714Y-121839904D01*
X149718095Y-121935142D01*
X149670476Y-121982761D01*
X149575238Y-122030380D01*
X149289523Y-122030380D01*
X149194285Y-121982761D01*
X149146666Y-121935142D01*
G04 #@! TO.C,C4*
X136993333Y-108815142D02*
X136945714Y-108862761D01*
X136802857Y-108910380D01*
X136707619Y-108910380D01*
X136564761Y-108862761D01*
X136469523Y-108767523D01*
X136421904Y-108672285D01*
X136374285Y-108481809D01*
X136374285Y-108338952D01*
X136421904Y-108148476D01*
X136469523Y-108053238D01*
X136564761Y-107958000D01*
X136707619Y-107910380D01*
X136802857Y-107910380D01*
X136945714Y-107958000D01*
X136993333Y-108005619D01*
X137850476Y-108243714D02*
X137850476Y-108910380D01*
X137612380Y-107862761D02*
X137374285Y-108577047D01*
X137993333Y-108577047D01*
G04 #@! TO.C,C5*
X136663833Y-105259142D02*
X136616214Y-105306761D01*
X136473357Y-105354380D01*
X136378119Y-105354380D01*
X136235261Y-105306761D01*
X136140023Y-105211523D01*
X136092404Y-105116285D01*
X136044785Y-104925809D01*
X136044785Y-104782952D01*
X136092404Y-104592476D01*
X136140023Y-104497238D01*
X136235261Y-104402000D01*
X136378119Y-104354380D01*
X136473357Y-104354380D01*
X136616214Y-104402000D01*
X136663833Y-104449619D01*
X137568595Y-104354380D02*
X137092404Y-104354380D01*
X137044785Y-104830571D01*
X137092404Y-104782952D01*
X137187642Y-104735333D01*
X137425738Y-104735333D01*
X137520976Y-104782952D01*
X137568595Y-104830571D01*
X137616214Y-104925809D01*
X137616214Y-105163904D01*
X137568595Y-105259142D01*
X137520976Y-105306761D01*
X137425738Y-105354380D01*
X137187642Y-105354380D01*
X137092404Y-105306761D01*
X137044785Y-105259142D01*
G04 #@! TO.C,H1*
X154178095Y-166314380D02*
X154178095Y-165314380D01*
X154178095Y-165790571D02*
X154749523Y-165790571D01*
X154749523Y-166314380D02*
X154749523Y-165314380D01*
X155749523Y-166314380D02*
X155178095Y-166314380D01*
X155463809Y-166314380D02*
X155463809Y-165314380D01*
X155368571Y-165457238D01*
X155273333Y-165552476D01*
X155178095Y-165600095D01*
G04 #@! TO.C,H2*
X127254095Y-167330380D02*
X127254095Y-166330380D01*
X127254095Y-166806571D02*
X127825523Y-166806571D01*
X127825523Y-167330380D02*
X127825523Y-166330380D01*
X128254095Y-166425619D02*
X128301714Y-166378000D01*
X128396952Y-166330380D01*
X128635047Y-166330380D01*
X128730285Y-166378000D01*
X128777904Y-166425619D01*
X128825523Y-166520857D01*
X128825523Y-166616095D01*
X128777904Y-166758952D01*
X128206476Y-167330380D01*
X128825523Y-167330380D01*
G04 #@! TO.C,H3*
X153924095Y-98242380D02*
X153924095Y-97242380D01*
X153924095Y-97718571D02*
X154495523Y-97718571D01*
X154495523Y-98242380D02*
X154495523Y-97242380D01*
X154876476Y-97242380D02*
X155495523Y-97242380D01*
X155162190Y-97623333D01*
X155305047Y-97623333D01*
X155400285Y-97670952D01*
X155447904Y-97718571D01*
X155495523Y-97813809D01*
X155495523Y-98051904D01*
X155447904Y-98147142D01*
X155400285Y-98194761D01*
X155305047Y-98242380D01*
X155019333Y-98242380D01*
X154924095Y-98194761D01*
X154876476Y-98147142D01*
G04 #@! TO.C,H4*
X127254095Y-97226380D02*
X127254095Y-96226380D01*
X127254095Y-96702571D02*
X127825523Y-96702571D01*
X127825523Y-97226380D02*
X127825523Y-96226380D01*
X128730285Y-96559714D02*
X128730285Y-97226380D01*
X128492190Y-96178761D02*
X128254095Y-96893047D01*
X128873142Y-96893047D01*
G04 #@! TO.C,H5*
X150803595Y-102170380D02*
X150803595Y-101170380D01*
X150803595Y-101646571D02*
X151375023Y-101646571D01*
X151375023Y-102170380D02*
X151375023Y-101170380D01*
X152327404Y-101170380D02*
X151851214Y-101170380D01*
X151803595Y-101646571D01*
X151851214Y-101598952D01*
X151946452Y-101551333D01*
X152184547Y-101551333D01*
X152279785Y-101598952D01*
X152327404Y-101646571D01*
X152375023Y-101741809D01*
X152375023Y-101979904D01*
X152327404Y-102075142D01*
X152279785Y-102122761D01*
X152184547Y-102170380D01*
X151946452Y-102170380D01*
X151851214Y-102122761D01*
X151803595Y-102075142D01*
G04 #@! TO.C,J5*
X150880380Y-96599333D02*
X151594666Y-96599333D01*
X151737523Y-96646952D01*
X151832761Y-96742190D01*
X151880380Y-96885047D01*
X151880380Y-96980285D01*
X150880380Y-95646952D02*
X150880380Y-96123142D01*
X151356571Y-96170761D01*
X151308952Y-96123142D01*
X151261333Y-96027904D01*
X151261333Y-95789809D01*
X151308952Y-95694571D01*
X151356571Y-95646952D01*
X151451809Y-95599333D01*
X151689904Y-95599333D01*
X151785142Y-95646952D01*
X151832761Y-95694571D01*
X151880380Y-95789809D01*
X151880380Y-96027904D01*
X151832761Y-96123142D01*
X151785142Y-96170761D01*
G04 #@! TO.C,R1*
X140833333Y-108832380D02*
X140500000Y-108356190D01*
X140261904Y-108832380D02*
X140261904Y-107832380D01*
X140642857Y-107832380D01*
X140738095Y-107880000D01*
X140785714Y-107927619D01*
X140833333Y-108022857D01*
X140833333Y-108165714D01*
X140785714Y-108260952D01*
X140738095Y-108308571D01*
X140642857Y-108356190D01*
X140261904Y-108356190D01*
X141785714Y-108832380D02*
X141214285Y-108832380D01*
X141500000Y-108832380D02*
X141500000Y-107832380D01*
X141404761Y-107975238D01*
X141309523Y-108070476D01*
X141214285Y-108118095D01*
G04 #@! TO.C,R2*
X132950833Y-108712380D02*
X132617500Y-108236190D01*
X132379404Y-108712380D02*
X132379404Y-107712380D01*
X132760357Y-107712380D01*
X132855595Y-107760000D01*
X132903214Y-107807619D01*
X132950833Y-107902857D01*
X132950833Y-108045714D01*
X132903214Y-108140952D01*
X132855595Y-108188571D01*
X132760357Y-108236190D01*
X132379404Y-108236190D01*
X133331785Y-107807619D02*
X133379404Y-107760000D01*
X133474642Y-107712380D01*
X133712738Y-107712380D01*
X133807976Y-107760000D01*
X133855595Y-107807619D01*
X133903214Y-107902857D01*
X133903214Y-107998095D01*
X133855595Y-108140952D01*
X133284166Y-108712380D01*
X133903214Y-108712380D01*
G04 #@! TO.C,R4*
X148573333Y-113940380D02*
X148240000Y-113464190D01*
X148001904Y-113940380D02*
X148001904Y-112940380D01*
X148382857Y-112940380D01*
X148478095Y-112988000D01*
X148525714Y-113035619D01*
X148573333Y-113130857D01*
X148573333Y-113273714D01*
X148525714Y-113368952D01*
X148478095Y-113416571D01*
X148382857Y-113464190D01*
X148001904Y-113464190D01*
X149430476Y-113273714D02*
X149430476Y-113940380D01*
X149192380Y-112892761D02*
X148954285Y-113607047D01*
X149573333Y-113607047D01*
G04 #@! TO.C,SW2*
X144388666Y-104860761D02*
X144531523Y-104908380D01*
X144769619Y-104908380D01*
X144864857Y-104860761D01*
X144912476Y-104813142D01*
X144960095Y-104717904D01*
X144960095Y-104622666D01*
X144912476Y-104527428D01*
X144864857Y-104479809D01*
X144769619Y-104432190D01*
X144579142Y-104384571D01*
X144483904Y-104336952D01*
X144436285Y-104289333D01*
X144388666Y-104194095D01*
X144388666Y-104098857D01*
X144436285Y-104003619D01*
X144483904Y-103956000D01*
X144579142Y-103908380D01*
X144817238Y-103908380D01*
X144960095Y-103956000D01*
X145293428Y-103908380D02*
X145531523Y-104908380D01*
X145722000Y-104194095D01*
X145912476Y-104908380D01*
X146150571Y-103908380D01*
X146483904Y-104003619D02*
X146531523Y-103956000D01*
X146626761Y-103908380D01*
X146864857Y-103908380D01*
X146960095Y-103956000D01*
X147007714Y-104003619D01*
X147055333Y-104098857D01*
X147055333Y-104194095D01*
X147007714Y-104336952D01*
X146436285Y-104908380D01*
X147055333Y-104908380D01*
G04 #@! TO.C,SW3*
X130430761Y-104817333D02*
X130478380Y-104674476D01*
X130478380Y-104436380D01*
X130430761Y-104341142D01*
X130383142Y-104293523D01*
X130287904Y-104245904D01*
X130192666Y-104245904D01*
X130097428Y-104293523D01*
X130049809Y-104341142D01*
X130002190Y-104436380D01*
X129954571Y-104626857D01*
X129906952Y-104722095D01*
X129859333Y-104769714D01*
X129764095Y-104817333D01*
X129668857Y-104817333D01*
X129573619Y-104769714D01*
X129526000Y-104722095D01*
X129478380Y-104626857D01*
X129478380Y-104388761D01*
X129526000Y-104245904D01*
X129478380Y-103912571D02*
X130478380Y-103674476D01*
X129764095Y-103484000D01*
X130478380Y-103293523D01*
X129478380Y-103055428D01*
X129478380Y-102769714D02*
X129478380Y-102150666D01*
X129859333Y-102484000D01*
X129859333Y-102341142D01*
X129906952Y-102245904D01*
X129954571Y-102198285D01*
X130049809Y-102150666D01*
X130287904Y-102150666D01*
X130383142Y-102198285D01*
X130430761Y-102245904D01*
X130478380Y-102341142D01*
X130478380Y-102626857D01*
X130430761Y-102722095D01*
X130383142Y-102769714D01*
G04 #@! TO.C,SW4*
X130492666Y-142898761D02*
X130635523Y-142946380D01*
X130873619Y-142946380D01*
X130968857Y-142898761D01*
X131016476Y-142851142D01*
X131064095Y-142755904D01*
X131064095Y-142660666D01*
X131016476Y-142565428D01*
X130968857Y-142517809D01*
X130873619Y-142470190D01*
X130683142Y-142422571D01*
X130587904Y-142374952D01*
X130540285Y-142327333D01*
X130492666Y-142232095D01*
X130492666Y-142136857D01*
X130540285Y-142041619D01*
X130587904Y-141994000D01*
X130683142Y-141946380D01*
X130921238Y-141946380D01*
X131064095Y-141994000D01*
X131397428Y-141946380D02*
X131635523Y-142946380D01*
X131826000Y-142232095D01*
X132016476Y-142946380D01*
X132254571Y-141946380D01*
X133064095Y-142279714D02*
X133064095Y-142946380D01*
X132826000Y-141898761D02*
X132587904Y-142613047D01*
X133206952Y-142613047D01*
G04 #@! TO.C,SW6*
X139080666Y-153788761D02*
X139223523Y-153836380D01*
X139461619Y-153836380D01*
X139556857Y-153788761D01*
X139604476Y-153741142D01*
X139652095Y-153645904D01*
X139652095Y-153550666D01*
X139604476Y-153455428D01*
X139556857Y-153407809D01*
X139461619Y-153360190D01*
X139271142Y-153312571D01*
X139175904Y-153264952D01*
X139128285Y-153217333D01*
X139080666Y-153122095D01*
X139080666Y-153026857D01*
X139128285Y-152931619D01*
X139175904Y-152884000D01*
X139271142Y-152836380D01*
X139509238Y-152836380D01*
X139652095Y-152884000D01*
X139985428Y-152836380D02*
X140223523Y-153836380D01*
X140414000Y-153122095D01*
X140604476Y-153836380D01*
X140842571Y-152836380D01*
X141652095Y-152836380D02*
X141461619Y-152836380D01*
X141366380Y-152884000D01*
X141318761Y-152931619D01*
X141223523Y-153074476D01*
X141175904Y-153264952D01*
X141175904Y-153645904D01*
X141223523Y-153741142D01*
X141271142Y-153788761D01*
X141366380Y-153836380D01*
X141556857Y-153836380D01*
X141652095Y-153788761D01*
X141699714Y-153741142D01*
X141747333Y-153645904D01*
X141747333Y-153407809D01*
X141699714Y-153312571D01*
X141652095Y-153264952D01*
X141556857Y-153217333D01*
X141366380Y-153217333D01*
X141271142Y-153264952D01*
X141223523Y-153312571D01*
X141175904Y-153407809D01*
G04 #@! TO.C,U1*
X136652095Y-114260380D02*
X136652095Y-115069904D01*
X136699714Y-115165142D01*
X136747333Y-115212761D01*
X136842571Y-115260380D01*
X137033047Y-115260380D01*
X137128285Y-115212761D01*
X137175904Y-115165142D01*
X137223523Y-115069904D01*
X137223523Y-114260380D01*
X138223523Y-115260380D02*
X137652095Y-115260380D01*
X137937809Y-115260380D02*
X137937809Y-114260380D01*
X137842571Y-114403238D01*
X137747333Y-114498476D01*
X137652095Y-114546095D01*
G04 #@! TO.C,Y1*
X152083809Y-117634190D02*
X152083809Y-118110380D01*
X151750476Y-117110380D02*
X152083809Y-117634190D01*
X152417142Y-117110380D01*
X153274285Y-118110380D02*
X152702857Y-118110380D01*
X152988571Y-118110380D02*
X152988571Y-117110380D01*
X152893333Y-117253238D01*
X152798095Y-117348476D01*
X152702857Y-117396095D01*
G04 #@! TO.C,C1*
X148663333Y-117895142D02*
X148615714Y-117942761D01*
X148472857Y-117990380D01*
X148377619Y-117990380D01*
X148234761Y-117942761D01*
X148139523Y-117847523D01*
X148091904Y-117752285D01*
X148044285Y-117561809D01*
X148044285Y-117418952D01*
X148091904Y-117228476D01*
X148139523Y-117133238D01*
X148234761Y-117038000D01*
X148377619Y-116990380D01*
X148472857Y-116990380D01*
X148615714Y-117038000D01*
X148663333Y-117085619D01*
X149615714Y-117990380D02*
X149044285Y-117990380D01*
X149330000Y-117990380D02*
X149330000Y-116990380D01*
X149234761Y-117133238D01*
X149139523Y-117228476D01*
X149044285Y-117276095D01*
G04 #@! TO.C,J1*
X124674380Y-121745333D02*
X125388666Y-121745333D01*
X125531523Y-121792952D01*
X125626761Y-121888190D01*
X125674380Y-122031047D01*
X125674380Y-122126285D01*
X125674380Y-120745333D02*
X125674380Y-121316761D01*
X125674380Y-121031047D02*
X124674380Y-121031047D01*
X124817238Y-121126285D01*
X124912476Y-121221523D01*
X124960095Y-121316761D01*
G04 #@! TO.C,J3*
X129754380Y-109807333D02*
X130468666Y-109807333D01*
X130611523Y-109854952D01*
X130706761Y-109950190D01*
X130754380Y-110093047D01*
X130754380Y-110188285D01*
X129754380Y-109426380D02*
X129754380Y-108807333D01*
X130135333Y-109140666D01*
X130135333Y-108997809D01*
X130182952Y-108902571D01*
X130230571Y-108854952D01*
X130325809Y-108807333D01*
X130563904Y-108807333D01*
X130659142Y-108854952D01*
X130706761Y-108902571D01*
X130754380Y-108997809D01*
X130754380Y-109283523D01*
X130706761Y-109378761D01*
X130659142Y-109426380D01*
G04 #@! TO.C,R7*
X143043333Y-120562380D02*
X142710000Y-120086190D01*
X142471904Y-120562380D02*
X142471904Y-119562380D01*
X142852857Y-119562380D01*
X142948095Y-119610000D01*
X142995714Y-119657619D01*
X143043333Y-119752857D01*
X143043333Y-119895714D01*
X142995714Y-119990952D01*
X142948095Y-120038571D01*
X142852857Y-120086190D01*
X142471904Y-120086190D01*
X143376666Y-119562380D02*
X144043333Y-119562380D01*
X143614761Y-120562380D01*
G04 #@! TO.C,J2*
X133636666Y-159952380D02*
X133636666Y-160666666D01*
X133589047Y-160809523D01*
X133493809Y-160904761D01*
X133350952Y-160952380D01*
X133255714Y-160952380D01*
X134065238Y-160047619D02*
X134112857Y-160000000D01*
X134208095Y-159952380D01*
X134446190Y-159952380D01*
X134541428Y-160000000D01*
X134589047Y-160047619D01*
X134636666Y-160142857D01*
X134636666Y-160238095D01*
X134589047Y-160380952D01*
X134017619Y-160952380D01*
X134636666Y-160952380D01*
G04 #@! TO.C,D2*
X132581904Y-120092380D02*
X132581904Y-119092380D01*
X132820000Y-119092380D01*
X132962857Y-119140000D01*
X133058095Y-119235238D01*
X133105714Y-119330476D01*
X133153333Y-119520952D01*
X133153333Y-119663809D01*
X133105714Y-119854285D01*
X133058095Y-119949523D01*
X132962857Y-120044761D01*
X132820000Y-120092380D01*
X132581904Y-120092380D01*
X133534285Y-119187619D02*
X133581904Y-119140000D01*
X133677142Y-119092380D01*
X133915238Y-119092380D01*
X134010476Y-119140000D01*
X134058095Y-119187619D01*
X134105714Y-119282857D01*
X134105714Y-119378095D01*
X134058095Y-119520952D01*
X133486666Y-120092380D01*
X134105714Y-120092380D01*
G04 #@! TD*
M02*
