G04 #@! TF.GenerationSoftware,KiCad,Pcbnew,5.0.2-bee76a0~70~ubuntu14.04.1*
G04 #@! TF.CreationDate,2018-12-14T16:25:12-07:00*
G04 #@! TF.ProjectId,while,7768696c-652e-46b6-9963-61645f706362,rev?*
G04 #@! TF.SameCoordinates,Original*
G04 #@! TF.FileFunction,Soldermask,Bot*
G04 #@! TF.FilePolarity,Negative*
%FSLAX46Y46*%
G04 Gerber Fmt 4.6, Leading zero omitted, Abs format (unit mm)*
G04 Created by KiCad (PCBNEW 5.0.2-bee76a0~70~ubuntu14.04.1) date Fri 14 Dec 2018 04:25:12 PM MST*
%MOMM*%
%LPD*%
G01*
G04 APERTURE LIST*
%ADD10C,0.100000*%
G04 APERTURE END LIST*
D10*
G36*
X155677743Y-163354660D02*
X156296503Y-163610958D01*
X156853377Y-163983050D01*
X157326950Y-164456623D01*
X157699042Y-165013497D01*
X157955340Y-165632257D01*
X158086000Y-166289128D01*
X158086000Y-166958872D01*
X157955340Y-167615743D01*
X157699042Y-168234503D01*
X157326950Y-168791377D01*
X156853377Y-169264950D01*
X156296503Y-169637042D01*
X155677743Y-169893340D01*
X155020872Y-170024000D01*
X154351128Y-170024000D01*
X153694257Y-169893340D01*
X153075497Y-169637042D01*
X152518623Y-169264950D01*
X152045050Y-168791377D01*
X151672958Y-168234503D01*
X151416660Y-167615743D01*
X151286000Y-166958872D01*
X151286000Y-166289128D01*
X151416660Y-165632257D01*
X151672958Y-165013497D01*
X152045050Y-164456623D01*
X152518623Y-163983050D01*
X153075497Y-163610958D01*
X153694257Y-163354660D01*
X154351128Y-163224000D01*
X155020872Y-163224000D01*
X155677743Y-163354660D01*
X155677743Y-163354660D01*
G37*
G36*
X129007743Y-163354660D02*
X129626503Y-163610958D01*
X130183377Y-163983050D01*
X130656950Y-164456623D01*
X131029042Y-165013497D01*
X131285340Y-165632257D01*
X131416000Y-166289128D01*
X131416000Y-166958872D01*
X131285340Y-167615743D01*
X131029042Y-168234503D01*
X130656950Y-168791377D01*
X130183377Y-169264950D01*
X129626503Y-169637042D01*
X129007743Y-169893340D01*
X128350872Y-170024000D01*
X127681128Y-170024000D01*
X127024257Y-169893340D01*
X126405497Y-169637042D01*
X125848623Y-169264950D01*
X125375050Y-168791377D01*
X125002958Y-168234503D01*
X124746660Y-167615743D01*
X124616000Y-166958872D01*
X124616000Y-166289128D01*
X124746660Y-165632257D01*
X125002958Y-165013497D01*
X125375050Y-164456623D01*
X125848623Y-163983050D01*
X126405497Y-163610958D01*
X127024257Y-163354660D01*
X127681128Y-163224000D01*
X128350872Y-163224000D01*
X129007743Y-163354660D01*
X129007743Y-163354660D01*
G37*
G36*
X134720000Y-161600000D02*
X132620000Y-161600000D01*
X132620000Y-159500000D01*
X134720000Y-159500000D01*
X134720000Y-161600000D01*
X134720000Y-161600000D01*
G37*
G36*
X138878707Y-159507597D02*
X138955836Y-159515193D01*
X139087787Y-159555220D01*
X139153763Y-159575233D01*
X139336172Y-159672733D01*
X139496054Y-159803946D01*
X139627267Y-159963828D01*
X139724767Y-160146237D01*
X139724767Y-160146238D01*
X139784807Y-160344164D01*
X139805080Y-160550000D01*
X139784807Y-160755836D01*
X139744780Y-160887787D01*
X139724767Y-160953763D01*
X139627267Y-161136172D01*
X139496054Y-161296054D01*
X139336172Y-161427267D01*
X139153763Y-161524767D01*
X139087787Y-161544780D01*
X138955836Y-161584807D01*
X138878707Y-161592404D01*
X138801580Y-161600000D01*
X138698420Y-161600000D01*
X138621293Y-161592404D01*
X138544164Y-161584807D01*
X138412213Y-161544780D01*
X138346237Y-161524767D01*
X138163828Y-161427267D01*
X138003946Y-161296054D01*
X137872733Y-161136172D01*
X137775233Y-160953763D01*
X137755220Y-160887787D01*
X137715193Y-160755836D01*
X137694920Y-160550000D01*
X137715193Y-160344164D01*
X137775233Y-160146238D01*
X137775233Y-160146237D01*
X137872733Y-159963828D01*
X138003946Y-159803946D01*
X138163828Y-159672733D01*
X138346237Y-159575233D01*
X138412213Y-159555220D01*
X138544164Y-159515193D01*
X138621293Y-159507597D01*
X138698420Y-159500000D01*
X138801580Y-159500000D01*
X138878707Y-159507597D01*
X138878707Y-159507597D01*
G37*
G36*
X136338707Y-159507597D02*
X136415836Y-159515193D01*
X136547787Y-159555220D01*
X136613763Y-159575233D01*
X136796172Y-159672733D01*
X136956054Y-159803946D01*
X137087267Y-159963828D01*
X137184767Y-160146237D01*
X137184767Y-160146238D01*
X137244807Y-160344164D01*
X137265080Y-160550000D01*
X137244807Y-160755836D01*
X137204780Y-160887787D01*
X137184767Y-160953763D01*
X137087267Y-161136172D01*
X136956054Y-161296054D01*
X136796172Y-161427267D01*
X136613763Y-161524767D01*
X136547787Y-161544780D01*
X136415836Y-161584807D01*
X136338707Y-161592404D01*
X136261580Y-161600000D01*
X136158420Y-161600000D01*
X136081293Y-161592404D01*
X136004164Y-161584807D01*
X135872213Y-161544780D01*
X135806237Y-161524767D01*
X135623828Y-161427267D01*
X135463946Y-161296054D01*
X135332733Y-161136172D01*
X135235233Y-160953763D01*
X135215220Y-160887787D01*
X135175193Y-160755836D01*
X135154920Y-160550000D01*
X135175193Y-160344164D01*
X135235233Y-160146238D01*
X135235233Y-160146237D01*
X135332733Y-159963828D01*
X135463946Y-159803946D01*
X135623828Y-159672733D01*
X135806237Y-159575233D01*
X135872213Y-159555220D01*
X136004164Y-159515193D01*
X136081293Y-159507597D01*
X136158420Y-159500000D01*
X136261580Y-159500000D01*
X136338707Y-159507597D01*
X136338707Y-159507597D01*
G37*
G36*
X130462000Y-123882000D02*
X125062000Y-123882000D01*
X125062000Y-116402000D01*
X130462000Y-116402000D01*
X130462000Y-123882000D01*
X130462000Y-123882000D01*
G37*
G36*
X130462000Y-114484000D02*
X125062000Y-114484000D01*
X125062000Y-107004000D01*
X130462000Y-107004000D01*
X130462000Y-114484000D01*
X130462000Y-114484000D01*
G37*
G36*
X151214000Y-104000341D02*
X151216402Y-104024727D01*
X151223515Y-104048176D01*
X151235066Y-104069787D01*
X151250612Y-104088729D01*
X151269554Y-104104275D01*
X151291165Y-104115826D01*
X151314614Y-104122939D01*
X151339000Y-104125341D01*
X151363385Y-104122939D01*
X151388216Y-104118000D01*
X151711589Y-104118000D01*
X151735975Y-104115598D01*
X151759424Y-104108485D01*
X151781035Y-104096934D01*
X151799977Y-104081388D01*
X151815523Y-104062446D01*
X151827074Y-104040835D01*
X151834187Y-104017386D01*
X151836589Y-103993000D01*
X151834187Y-103968614D01*
X151827074Y-103945165D01*
X151815523Y-103923554D01*
X151799977Y-103904612D01*
X151799578Y-103904213D01*
X151679191Y-103724042D01*
X151596272Y-103523857D01*
X151554000Y-103311342D01*
X151554000Y-103094658D01*
X151596272Y-102882143D01*
X151679191Y-102681958D01*
X151799578Y-102501787D01*
X151952787Y-102348578D01*
X152132958Y-102228191D01*
X152333143Y-102145272D01*
X152545658Y-102103000D01*
X152762342Y-102103000D01*
X152974857Y-102145272D01*
X153175042Y-102228191D01*
X153355213Y-102348578D01*
X153508422Y-102501787D01*
X153628809Y-102681958D01*
X153711728Y-102882143D01*
X153754000Y-103094658D01*
X153754000Y-103311342D01*
X153711728Y-103523857D01*
X153628809Y-103724042D01*
X153508422Y-103904213D01*
X153355213Y-104057422D01*
X153355210Y-104057424D01*
X153355209Y-104057425D01*
X153253566Y-104125341D01*
X153175042Y-104177809D01*
X152974858Y-104260728D01*
X152816481Y-104292231D01*
X152769621Y-104301552D01*
X152746175Y-104308664D01*
X152724564Y-104320215D01*
X152705622Y-104335760D01*
X152690076Y-104354703D01*
X152678525Y-104376313D01*
X152671412Y-104399762D01*
X152669010Y-104424149D01*
X152671412Y-104448535D01*
X152678525Y-104471984D01*
X152690076Y-104493595D01*
X152705622Y-104512537D01*
X152963649Y-104770564D01*
X153160640Y-105065382D01*
X153296327Y-105392960D01*
X153365500Y-105740714D01*
X153365500Y-106095286D01*
X153296327Y-106443040D01*
X153160640Y-106770618D01*
X152963649Y-107065436D01*
X152712936Y-107316149D01*
X152712933Y-107316151D01*
X152418120Y-107513139D01*
X152090541Y-107648827D01*
X151974622Y-107671885D01*
X151742786Y-107718000D01*
X151388214Y-107718000D01*
X151156378Y-107671885D01*
X151040459Y-107648827D01*
X150712880Y-107513139D01*
X150418067Y-107316151D01*
X150418064Y-107316149D01*
X150167351Y-107065436D01*
X149970360Y-106770618D01*
X149834673Y-106443040D01*
X149765500Y-106095286D01*
X149765500Y-105740714D01*
X149834673Y-105392960D01*
X149970360Y-105065382D01*
X150167351Y-104770564D01*
X150421527Y-104516388D01*
X150437073Y-104497446D01*
X150448624Y-104475835D01*
X150455737Y-104452386D01*
X150458139Y-104428000D01*
X150455737Y-104403614D01*
X150448624Y-104380165D01*
X150437073Y-104358554D01*
X150421527Y-104339612D01*
X150402585Y-104324066D01*
X150380974Y-104312515D01*
X150357525Y-104305402D01*
X150333139Y-104303000D01*
X149014000Y-104303000D01*
X149014000Y-102103000D01*
X151214000Y-102103000D01*
X151214000Y-104000341D01*
X151214000Y-104000341D01*
G37*
G36*
X129007743Y-93504660D02*
X129626503Y-93760958D01*
X130183377Y-94133050D01*
X130656950Y-94606623D01*
X131029042Y-95163497D01*
X131285340Y-95782257D01*
X131416000Y-96439128D01*
X131416000Y-97108872D01*
X131285340Y-97765743D01*
X131029042Y-98384503D01*
X130656950Y-98941377D01*
X130183377Y-99414950D01*
X129626503Y-99787042D01*
X129007743Y-100043340D01*
X128350872Y-100174000D01*
X127681128Y-100174000D01*
X127024257Y-100043340D01*
X126405497Y-99787042D01*
X125848623Y-99414950D01*
X125375050Y-98941377D01*
X125002958Y-98384503D01*
X124746660Y-97765743D01*
X124616000Y-97108872D01*
X124616000Y-96439128D01*
X124746660Y-95782257D01*
X125002958Y-95163497D01*
X125375050Y-94606623D01*
X125848623Y-94133050D01*
X126405497Y-93760958D01*
X127024257Y-93504660D01*
X127681128Y-93374000D01*
X128350872Y-93374000D01*
X129007743Y-93504660D01*
X129007743Y-93504660D01*
G37*
G36*
X155677743Y-93504660D02*
X156296503Y-93760958D01*
X156853377Y-94133050D01*
X157326950Y-94606623D01*
X157699042Y-95163497D01*
X157955340Y-95782257D01*
X158086000Y-96439128D01*
X158086000Y-97108872D01*
X157955340Y-97765743D01*
X157699042Y-98384503D01*
X157326950Y-98941377D01*
X156853377Y-99414950D01*
X156296503Y-99787042D01*
X155677743Y-100043340D01*
X155020872Y-100174000D01*
X154351128Y-100174000D01*
X153694257Y-100043340D01*
X153075497Y-99787042D01*
X152518623Y-99414950D01*
X152045050Y-98941377D01*
X151672958Y-98384503D01*
X151416660Y-97765743D01*
X151286000Y-97108872D01*
X151286000Y-96439128D01*
X151416660Y-95782257D01*
X151672958Y-95163497D01*
X152045050Y-94606623D01*
X152518623Y-94133050D01*
X153075497Y-93760958D01*
X153694257Y-93504660D01*
X154351128Y-93374000D01*
X155020872Y-93374000D01*
X155677743Y-93504660D01*
X155677743Y-93504660D01*
G37*
G36*
X139066707Y-96493596D02*
X139143836Y-96501193D01*
X139275787Y-96541220D01*
X139341763Y-96561233D01*
X139524172Y-96658733D01*
X139684054Y-96789946D01*
X139815267Y-96949828D01*
X139912767Y-97132237D01*
X139912767Y-97132238D01*
X139972807Y-97330164D01*
X139993080Y-97536000D01*
X139972807Y-97741836D01*
X139932780Y-97873787D01*
X139912767Y-97939763D01*
X139815267Y-98122172D01*
X139684054Y-98282054D01*
X139524172Y-98413267D01*
X139341763Y-98510767D01*
X139275787Y-98530780D01*
X139143836Y-98570807D01*
X139066707Y-98578403D01*
X138989580Y-98586000D01*
X138886420Y-98586000D01*
X138809293Y-98578403D01*
X138732164Y-98570807D01*
X138600213Y-98530780D01*
X138534237Y-98510767D01*
X138351828Y-98413267D01*
X138191946Y-98282054D01*
X138060733Y-98122172D01*
X137963233Y-97939763D01*
X137943220Y-97873787D01*
X137903193Y-97741836D01*
X137882920Y-97536000D01*
X137903193Y-97330164D01*
X137963233Y-97132238D01*
X137963233Y-97132237D01*
X138060733Y-96949828D01*
X138191946Y-96789946D01*
X138351828Y-96658733D01*
X138534237Y-96561233D01*
X138600213Y-96541220D01*
X138732164Y-96501193D01*
X138809293Y-96493596D01*
X138886420Y-96486000D01*
X138989580Y-96486000D01*
X139066707Y-96493596D01*
X139066707Y-96493596D01*
G37*
G36*
X149226707Y-96493596D02*
X149303836Y-96501193D01*
X149435787Y-96541220D01*
X149501763Y-96561233D01*
X149684172Y-96658733D01*
X149844054Y-96789946D01*
X149975267Y-96949828D01*
X150072767Y-97132237D01*
X150072767Y-97132238D01*
X150132807Y-97330164D01*
X150153080Y-97536000D01*
X150132807Y-97741836D01*
X150092780Y-97873787D01*
X150072767Y-97939763D01*
X149975267Y-98122172D01*
X149844054Y-98282054D01*
X149684172Y-98413267D01*
X149501763Y-98510767D01*
X149435787Y-98530780D01*
X149303836Y-98570807D01*
X149226707Y-98578403D01*
X149149580Y-98586000D01*
X149046420Y-98586000D01*
X148969293Y-98578403D01*
X148892164Y-98570807D01*
X148760213Y-98530780D01*
X148694237Y-98510767D01*
X148511828Y-98413267D01*
X148351946Y-98282054D01*
X148220733Y-98122172D01*
X148123233Y-97939763D01*
X148103220Y-97873787D01*
X148063193Y-97741836D01*
X148042920Y-97536000D01*
X148063193Y-97330164D01*
X148123233Y-97132238D01*
X148123233Y-97132237D01*
X148220733Y-96949828D01*
X148351946Y-96789946D01*
X148511828Y-96658733D01*
X148694237Y-96561233D01*
X148760213Y-96541220D01*
X148892164Y-96501193D01*
X148969293Y-96493596D01*
X149046420Y-96486000D01*
X149149580Y-96486000D01*
X149226707Y-96493596D01*
X149226707Y-96493596D01*
G37*
G36*
X146686707Y-96493596D02*
X146763836Y-96501193D01*
X146895787Y-96541220D01*
X146961763Y-96561233D01*
X147144172Y-96658733D01*
X147304054Y-96789946D01*
X147435267Y-96949828D01*
X147532767Y-97132237D01*
X147532767Y-97132238D01*
X147592807Y-97330164D01*
X147613080Y-97536000D01*
X147592807Y-97741836D01*
X147552780Y-97873787D01*
X147532767Y-97939763D01*
X147435267Y-98122172D01*
X147304054Y-98282054D01*
X147144172Y-98413267D01*
X146961763Y-98510767D01*
X146895787Y-98530780D01*
X146763836Y-98570807D01*
X146686707Y-98578403D01*
X146609580Y-98586000D01*
X146506420Y-98586000D01*
X146429293Y-98578403D01*
X146352164Y-98570807D01*
X146220213Y-98530780D01*
X146154237Y-98510767D01*
X145971828Y-98413267D01*
X145811946Y-98282054D01*
X145680733Y-98122172D01*
X145583233Y-97939763D01*
X145563220Y-97873787D01*
X145523193Y-97741836D01*
X145502920Y-97536000D01*
X145523193Y-97330164D01*
X145583233Y-97132238D01*
X145583233Y-97132237D01*
X145680733Y-96949828D01*
X145811946Y-96789946D01*
X145971828Y-96658733D01*
X146154237Y-96561233D01*
X146220213Y-96541220D01*
X146352164Y-96501193D01*
X146429293Y-96493596D01*
X146506420Y-96486000D01*
X146609580Y-96486000D01*
X146686707Y-96493596D01*
X146686707Y-96493596D01*
G37*
G36*
X144146707Y-96493596D02*
X144223836Y-96501193D01*
X144355787Y-96541220D01*
X144421763Y-96561233D01*
X144604172Y-96658733D01*
X144764054Y-96789946D01*
X144895267Y-96949828D01*
X144992767Y-97132237D01*
X144992767Y-97132238D01*
X145052807Y-97330164D01*
X145073080Y-97536000D01*
X145052807Y-97741836D01*
X145012780Y-97873787D01*
X144992767Y-97939763D01*
X144895267Y-98122172D01*
X144764054Y-98282054D01*
X144604172Y-98413267D01*
X144421763Y-98510767D01*
X144355787Y-98530780D01*
X144223836Y-98570807D01*
X144146707Y-98578403D01*
X144069580Y-98586000D01*
X143966420Y-98586000D01*
X143889293Y-98578403D01*
X143812164Y-98570807D01*
X143680213Y-98530780D01*
X143614237Y-98510767D01*
X143431828Y-98413267D01*
X143271946Y-98282054D01*
X143140733Y-98122172D01*
X143043233Y-97939763D01*
X143023220Y-97873787D01*
X142983193Y-97741836D01*
X142962920Y-97536000D01*
X142983193Y-97330164D01*
X143043233Y-97132238D01*
X143043233Y-97132237D01*
X143140733Y-96949828D01*
X143271946Y-96789946D01*
X143431828Y-96658733D01*
X143614237Y-96561233D01*
X143680213Y-96541220D01*
X143812164Y-96501193D01*
X143889293Y-96493596D01*
X143966420Y-96486000D01*
X144069580Y-96486000D01*
X144146707Y-96493596D01*
X144146707Y-96493596D01*
G37*
G36*
X141606707Y-96493596D02*
X141683836Y-96501193D01*
X141815787Y-96541220D01*
X141881763Y-96561233D01*
X142064172Y-96658733D01*
X142224054Y-96789946D01*
X142355267Y-96949828D01*
X142452767Y-97132237D01*
X142452767Y-97132238D01*
X142512807Y-97330164D01*
X142533080Y-97536000D01*
X142512807Y-97741836D01*
X142472780Y-97873787D01*
X142452767Y-97939763D01*
X142355267Y-98122172D01*
X142224054Y-98282054D01*
X142064172Y-98413267D01*
X141881763Y-98510767D01*
X141815787Y-98530780D01*
X141683836Y-98570807D01*
X141606707Y-98578403D01*
X141529580Y-98586000D01*
X141426420Y-98586000D01*
X141349293Y-98578403D01*
X141272164Y-98570807D01*
X141140213Y-98530780D01*
X141074237Y-98510767D01*
X140891828Y-98413267D01*
X140731946Y-98282054D01*
X140600733Y-98122172D01*
X140503233Y-97939763D01*
X140483220Y-97873787D01*
X140443193Y-97741836D01*
X140422920Y-97536000D01*
X140443193Y-97330164D01*
X140503233Y-97132238D01*
X140503233Y-97132237D01*
X140600733Y-96949828D01*
X140731946Y-96789946D01*
X140891828Y-96658733D01*
X141074237Y-96561233D01*
X141140213Y-96541220D01*
X141272164Y-96501193D01*
X141349293Y-96493596D01*
X141426420Y-96486000D01*
X141529580Y-96486000D01*
X141606707Y-96493596D01*
X141606707Y-96493596D01*
G37*
G36*
X133986707Y-96493596D02*
X134063836Y-96501193D01*
X134195787Y-96541220D01*
X134261763Y-96561233D01*
X134444172Y-96658733D01*
X134604054Y-96789946D01*
X134735267Y-96949828D01*
X134832767Y-97132237D01*
X134832767Y-97132238D01*
X134892807Y-97330164D01*
X134913080Y-97536000D01*
X134892807Y-97741836D01*
X134852780Y-97873787D01*
X134832767Y-97939763D01*
X134735267Y-98122172D01*
X134604054Y-98282054D01*
X134444172Y-98413267D01*
X134261763Y-98510767D01*
X134195787Y-98530780D01*
X134063836Y-98570807D01*
X133986707Y-98578403D01*
X133909580Y-98586000D01*
X133806420Y-98586000D01*
X133729293Y-98578403D01*
X133652164Y-98570807D01*
X133520213Y-98530780D01*
X133454237Y-98510767D01*
X133271828Y-98413267D01*
X133111946Y-98282054D01*
X132980733Y-98122172D01*
X132883233Y-97939763D01*
X132863220Y-97873787D01*
X132823193Y-97741836D01*
X132802920Y-97536000D01*
X132823193Y-97330164D01*
X132883233Y-97132238D01*
X132883233Y-97132237D01*
X132980733Y-96949828D01*
X133111946Y-96789946D01*
X133271828Y-96658733D01*
X133454237Y-96561233D01*
X133520213Y-96541220D01*
X133652164Y-96501193D01*
X133729293Y-96493596D01*
X133806420Y-96486000D01*
X133909580Y-96486000D01*
X133986707Y-96493596D01*
X133986707Y-96493596D01*
G37*
G36*
X136526707Y-96493596D02*
X136603836Y-96501193D01*
X136735787Y-96541220D01*
X136801763Y-96561233D01*
X136984172Y-96658733D01*
X137144054Y-96789946D01*
X137275267Y-96949828D01*
X137372767Y-97132237D01*
X137372767Y-97132238D01*
X137432807Y-97330164D01*
X137453080Y-97536000D01*
X137432807Y-97741836D01*
X137392780Y-97873787D01*
X137372767Y-97939763D01*
X137275267Y-98122172D01*
X137144054Y-98282054D01*
X136984172Y-98413267D01*
X136801763Y-98510767D01*
X136735787Y-98530780D01*
X136603836Y-98570807D01*
X136526707Y-98578403D01*
X136449580Y-98586000D01*
X136346420Y-98586000D01*
X136269293Y-98578403D01*
X136192164Y-98570807D01*
X136060213Y-98530780D01*
X135994237Y-98510767D01*
X135811828Y-98413267D01*
X135651946Y-98282054D01*
X135520733Y-98122172D01*
X135423233Y-97939763D01*
X135403220Y-97873787D01*
X135363193Y-97741836D01*
X135342920Y-97536000D01*
X135363193Y-97330164D01*
X135423233Y-97132238D01*
X135423233Y-97132237D01*
X135520733Y-96949828D01*
X135651946Y-96789946D01*
X135811828Y-96658733D01*
X135994237Y-96561233D01*
X136060213Y-96541220D01*
X136192164Y-96501193D01*
X136269293Y-96493596D01*
X136346420Y-96486000D01*
X136449580Y-96486000D01*
X136526707Y-96493596D01*
X136526707Y-96493596D01*
G37*
G36*
X150148000Y-96046000D02*
X148048000Y-96046000D01*
X148048000Y-93946000D01*
X150148000Y-93946000D01*
X150148000Y-96046000D01*
X150148000Y-96046000D01*
G37*
G36*
X133986707Y-93953597D02*
X134063836Y-93961193D01*
X134195787Y-94001220D01*
X134261763Y-94021233D01*
X134444172Y-94118733D01*
X134604054Y-94249946D01*
X134735267Y-94409828D01*
X134832767Y-94592237D01*
X134832767Y-94592238D01*
X134892807Y-94790164D01*
X134913080Y-94996000D01*
X134892807Y-95201836D01*
X134852780Y-95333787D01*
X134832767Y-95399763D01*
X134735267Y-95582172D01*
X134604054Y-95742054D01*
X134444172Y-95873267D01*
X134261763Y-95970767D01*
X134195787Y-95990780D01*
X134063836Y-96030807D01*
X133986707Y-96038403D01*
X133909580Y-96046000D01*
X133806420Y-96046000D01*
X133729293Y-96038403D01*
X133652164Y-96030807D01*
X133520213Y-95990780D01*
X133454237Y-95970767D01*
X133271828Y-95873267D01*
X133111946Y-95742054D01*
X132980733Y-95582172D01*
X132883233Y-95399763D01*
X132863220Y-95333787D01*
X132823193Y-95201836D01*
X132802920Y-94996000D01*
X132823193Y-94790164D01*
X132883233Y-94592238D01*
X132883233Y-94592237D01*
X132980733Y-94409828D01*
X133111946Y-94249946D01*
X133271828Y-94118733D01*
X133454237Y-94021233D01*
X133520213Y-94001220D01*
X133652164Y-93961193D01*
X133729293Y-93953597D01*
X133806420Y-93946000D01*
X133909580Y-93946000D01*
X133986707Y-93953597D01*
X133986707Y-93953597D01*
G37*
G36*
X139066707Y-93953597D02*
X139143836Y-93961193D01*
X139275787Y-94001220D01*
X139341763Y-94021233D01*
X139524172Y-94118733D01*
X139684054Y-94249946D01*
X139815267Y-94409828D01*
X139912767Y-94592237D01*
X139912767Y-94592238D01*
X139972807Y-94790164D01*
X139993080Y-94996000D01*
X139972807Y-95201836D01*
X139932780Y-95333787D01*
X139912767Y-95399763D01*
X139815267Y-95582172D01*
X139684054Y-95742054D01*
X139524172Y-95873267D01*
X139341763Y-95970767D01*
X139275787Y-95990780D01*
X139143836Y-96030807D01*
X139066707Y-96038403D01*
X138989580Y-96046000D01*
X138886420Y-96046000D01*
X138809293Y-96038403D01*
X138732164Y-96030807D01*
X138600213Y-95990780D01*
X138534237Y-95970767D01*
X138351828Y-95873267D01*
X138191946Y-95742054D01*
X138060733Y-95582172D01*
X137963233Y-95399763D01*
X137943220Y-95333787D01*
X137903193Y-95201836D01*
X137882920Y-94996000D01*
X137903193Y-94790164D01*
X137963233Y-94592238D01*
X137963233Y-94592237D01*
X138060733Y-94409828D01*
X138191946Y-94249946D01*
X138351828Y-94118733D01*
X138534237Y-94021233D01*
X138600213Y-94001220D01*
X138732164Y-93961193D01*
X138809293Y-93953597D01*
X138886420Y-93946000D01*
X138989580Y-93946000D01*
X139066707Y-93953597D01*
X139066707Y-93953597D01*
G37*
G36*
X136526707Y-93953597D02*
X136603836Y-93961193D01*
X136735787Y-94001220D01*
X136801763Y-94021233D01*
X136984172Y-94118733D01*
X137144054Y-94249946D01*
X137275267Y-94409828D01*
X137372767Y-94592237D01*
X137372767Y-94592238D01*
X137432807Y-94790164D01*
X137453080Y-94996000D01*
X137432807Y-95201836D01*
X137392780Y-95333787D01*
X137372767Y-95399763D01*
X137275267Y-95582172D01*
X137144054Y-95742054D01*
X136984172Y-95873267D01*
X136801763Y-95970767D01*
X136735787Y-95990780D01*
X136603836Y-96030807D01*
X136526707Y-96038403D01*
X136449580Y-96046000D01*
X136346420Y-96046000D01*
X136269293Y-96038403D01*
X136192164Y-96030807D01*
X136060213Y-95990780D01*
X135994237Y-95970767D01*
X135811828Y-95873267D01*
X135651946Y-95742054D01*
X135520733Y-95582172D01*
X135423233Y-95399763D01*
X135403220Y-95333787D01*
X135363193Y-95201836D01*
X135342920Y-94996000D01*
X135363193Y-94790164D01*
X135423233Y-94592238D01*
X135423233Y-94592237D01*
X135520733Y-94409828D01*
X135651946Y-94249946D01*
X135811828Y-94118733D01*
X135994237Y-94021233D01*
X136060213Y-94001220D01*
X136192164Y-93961193D01*
X136269293Y-93953597D01*
X136346420Y-93946000D01*
X136449580Y-93946000D01*
X136526707Y-93953597D01*
X136526707Y-93953597D01*
G37*
G36*
X141606707Y-93953597D02*
X141683836Y-93961193D01*
X141815787Y-94001220D01*
X141881763Y-94021233D01*
X142064172Y-94118733D01*
X142224054Y-94249946D01*
X142355267Y-94409828D01*
X142452767Y-94592237D01*
X142452767Y-94592238D01*
X142512807Y-94790164D01*
X142533080Y-94996000D01*
X142512807Y-95201836D01*
X142472780Y-95333787D01*
X142452767Y-95399763D01*
X142355267Y-95582172D01*
X142224054Y-95742054D01*
X142064172Y-95873267D01*
X141881763Y-95970767D01*
X141815787Y-95990780D01*
X141683836Y-96030807D01*
X141606707Y-96038403D01*
X141529580Y-96046000D01*
X141426420Y-96046000D01*
X141349293Y-96038403D01*
X141272164Y-96030807D01*
X141140213Y-95990780D01*
X141074237Y-95970767D01*
X140891828Y-95873267D01*
X140731946Y-95742054D01*
X140600733Y-95582172D01*
X140503233Y-95399763D01*
X140483220Y-95333787D01*
X140443193Y-95201836D01*
X140422920Y-94996000D01*
X140443193Y-94790164D01*
X140503233Y-94592238D01*
X140503233Y-94592237D01*
X140600733Y-94409828D01*
X140731946Y-94249946D01*
X140891828Y-94118733D01*
X141074237Y-94021233D01*
X141140213Y-94001220D01*
X141272164Y-93961193D01*
X141349293Y-93953597D01*
X141426420Y-93946000D01*
X141529580Y-93946000D01*
X141606707Y-93953597D01*
X141606707Y-93953597D01*
G37*
G36*
X144146707Y-93953597D02*
X144223836Y-93961193D01*
X144355787Y-94001220D01*
X144421763Y-94021233D01*
X144604172Y-94118733D01*
X144764054Y-94249946D01*
X144895267Y-94409828D01*
X144992767Y-94592237D01*
X144992767Y-94592238D01*
X145052807Y-94790164D01*
X145073080Y-94996000D01*
X145052807Y-95201836D01*
X145012780Y-95333787D01*
X144992767Y-95399763D01*
X144895267Y-95582172D01*
X144764054Y-95742054D01*
X144604172Y-95873267D01*
X144421763Y-95970767D01*
X144355787Y-95990780D01*
X144223836Y-96030807D01*
X144146707Y-96038403D01*
X144069580Y-96046000D01*
X143966420Y-96046000D01*
X143889293Y-96038403D01*
X143812164Y-96030807D01*
X143680213Y-95990780D01*
X143614237Y-95970767D01*
X143431828Y-95873267D01*
X143271946Y-95742054D01*
X143140733Y-95582172D01*
X143043233Y-95399763D01*
X143023220Y-95333787D01*
X142983193Y-95201836D01*
X142962920Y-94996000D01*
X142983193Y-94790164D01*
X143043233Y-94592238D01*
X143043233Y-94592237D01*
X143140733Y-94409828D01*
X143271946Y-94249946D01*
X143431828Y-94118733D01*
X143614237Y-94021233D01*
X143680213Y-94001220D01*
X143812164Y-93961193D01*
X143889293Y-93953597D01*
X143966420Y-93946000D01*
X144069580Y-93946000D01*
X144146707Y-93953597D01*
X144146707Y-93953597D01*
G37*
G36*
X146686707Y-93953597D02*
X146763836Y-93961193D01*
X146895787Y-94001220D01*
X146961763Y-94021233D01*
X147144172Y-94118733D01*
X147304054Y-94249946D01*
X147435267Y-94409828D01*
X147532767Y-94592237D01*
X147532767Y-94592238D01*
X147592807Y-94790164D01*
X147613080Y-94996000D01*
X147592807Y-95201836D01*
X147552780Y-95333787D01*
X147532767Y-95399763D01*
X147435267Y-95582172D01*
X147304054Y-95742054D01*
X147144172Y-95873267D01*
X146961763Y-95970767D01*
X146895787Y-95990780D01*
X146763836Y-96030807D01*
X146686707Y-96038403D01*
X146609580Y-96046000D01*
X146506420Y-96046000D01*
X146429293Y-96038403D01*
X146352164Y-96030807D01*
X146220213Y-95990780D01*
X146154237Y-95970767D01*
X145971828Y-95873267D01*
X145811946Y-95742054D01*
X145680733Y-95582172D01*
X145583233Y-95399763D01*
X145563220Y-95333787D01*
X145523193Y-95201836D01*
X145502920Y-94996000D01*
X145523193Y-94790164D01*
X145583233Y-94592238D01*
X145583233Y-94592237D01*
X145680733Y-94409828D01*
X145811946Y-94249946D01*
X145971828Y-94118733D01*
X146154237Y-94021233D01*
X146220213Y-94001220D01*
X146352164Y-93961193D01*
X146429293Y-93953597D01*
X146506420Y-93946000D01*
X146609580Y-93946000D01*
X146686707Y-93953597D01*
X146686707Y-93953597D01*
G37*
M02*
