M48
;DRILL file {KiCad 5.0.0-fee4fd1~66~ubuntu14.04.1} date Mon Oct 15 15:43:15 2018
;FORMAT={-:-/ absolute / metric / decimal}
FMAT,2
METRIC,TZ
T1C0.800
T2C0.900
T3C1.000
T4C1.100
T5C2.200
%
G90
G05
M71
T1
X147.041Y-76.149
X149.541Y-76.149
X151.816Y-80.797
X156.716Y-80.797
X129.896Y-74.567
X129.896Y-82.067
X133.401Y-71.933
X133.401Y-82.093
X126.492Y-99.822
X128.992Y-99.822
X147.066Y-78.537
X147.066Y-81.037
X125.933Y-85.446
X125.933Y-93.066
X128.473Y-85.446
X128.473Y-93.066
X131.013Y-85.446
X131.013Y-93.066
X133.553Y-85.446
X133.553Y-93.066
X136.093Y-85.446
X136.093Y-93.066
X138.633Y-85.446
X138.633Y-93.066
X141.173Y-85.446
X141.173Y-93.066
X143.713Y-85.446
X143.713Y-93.066
X146.253Y-85.446
X146.253Y-93.066
X148.793Y-85.446
X148.793Y-93.066
X151.333Y-85.446
X151.333Y-93.066
X153.873Y-85.446
X153.873Y-93.066
X156.413Y-85.446
X156.413Y-93.066
X158.953Y-85.446
X158.953Y-93.066
X136.677Y-71.933
X136.677Y-82.093
X126.086Y-74.574
X126.086Y-82.074
T2
X141.605Y-68.656
X144.145Y-68.656
T3
X140.945Y-105.588
X140.945Y-108.128
X140.945Y-110.668
X159.258Y-111.76
X159.258Y-114.3
X159.258Y-116.84
X149.911Y-67.183
X152.451Y-67.183
X154.991Y-67.183
X130.785Y-108.814
X130.785Y-111.354
X130.785Y-113.894
X130.785Y-116.434
X130.785Y-118.974
X130.785Y-121.514
X130.861Y-67.107
X133.401Y-67.107
X135.941Y-67.107
X126.238Y-111.76
X126.238Y-114.3
X126.238Y-116.84
T4
X139.954Y-75.136
X139.954Y-81.636
X144.454Y-75.136
X144.454Y-81.636
X152.197Y-71.857
X152.197Y-76.357
X158.697Y-71.857
X158.697Y-76.357
T5
X126.39Y-67.716
X159.36Y-121.209
X159.385Y-67.64
X126.365Y-121.234
T0
M30
