G04 #@! TF.GenerationSoftware,KiCad,Pcbnew,5.0.1-33cea8e~68~ubuntu14.04.1*
G04 #@! TF.CreationDate,2018-11-23T11:29:15-08:00*
G04 #@! TF.ProjectId,backplane,6261636B706C616E652E6B696361645F,rev?*
G04 #@! TF.SameCoordinates,Original*
G04 #@! TF.FileFunction,Legend,Top*
G04 #@! TF.FilePolarity,Positive*
%FSLAX46Y46*%
G04 Gerber Fmt 4.6, Leading zero omitted, Abs format (unit mm)*
G04 Created by KiCad (PCBNEW 5.0.1-33cea8e~68~ubuntu14.04.1) date Fri 23 Nov 2018 11:29:15 AM PST*
%MOMM*%
%LPD*%
G01*
G04 APERTURE LIST*
%ADD10C,0.300000*%
%ADD11C,0.120000*%
%ADD12C,0.150000*%
G04 APERTURE END LIST*
D10*
X55228571Y-112950000D02*
X55057142Y-112864285D01*
X54800000Y-112864285D01*
X54542857Y-112950000D01*
X54371428Y-113121428D01*
X54285714Y-113292857D01*
X54200000Y-113635714D01*
X54200000Y-113892857D01*
X54285714Y-114235714D01*
X54371428Y-114407142D01*
X54542857Y-114578571D01*
X54800000Y-114664285D01*
X54971428Y-114664285D01*
X55228571Y-114578571D01*
X55314285Y-114492857D01*
X55314285Y-113892857D01*
X54971428Y-113892857D01*
X56085714Y-114664285D02*
X56085714Y-112864285D01*
X57114285Y-114664285D01*
X57114285Y-112864285D01*
X57971428Y-114664285D02*
X57971428Y-112864285D01*
X58400000Y-112864285D01*
X58657142Y-112950000D01*
X58828571Y-113121428D01*
X58914285Y-113292857D01*
X59000000Y-113635714D01*
X59000000Y-113892857D01*
X58914285Y-114235714D01*
X58828571Y-114407142D01*
X58657142Y-114578571D01*
X58400000Y-114664285D01*
X57971428Y-114664285D01*
X57142857Y-110264285D02*
X56285714Y-110264285D01*
X56200000Y-111121428D01*
X56285714Y-111035714D01*
X56457142Y-110950000D01*
X56885714Y-110950000D01*
X57057142Y-111035714D01*
X57142857Y-111121428D01*
X57228571Y-111292857D01*
X57228571Y-111721428D01*
X57142857Y-111892857D01*
X57057142Y-111978571D01*
X56885714Y-112064285D01*
X56457142Y-112064285D01*
X56285714Y-111978571D01*
X56200000Y-111892857D01*
X57828571Y-110864285D02*
X58257142Y-112064285D01*
X58685714Y-110864285D01*
D11*
G04 #@! TO.C,J1*
X65370000Y-103880000D02*
X65370000Y-109080000D01*
X80670000Y-103880000D02*
X65370000Y-103880000D01*
X83270000Y-109080000D02*
X65370000Y-109080000D01*
X80670000Y-103880000D02*
X80670000Y-106480000D01*
X80670000Y-106480000D02*
X83270000Y-106480000D01*
X83270000Y-106480000D02*
X83270000Y-109080000D01*
X81940000Y-103880000D02*
X83270000Y-103880000D01*
X83270000Y-103880000D02*
X83270000Y-105210000D01*
G04 #@! TO.C,J2*
X119130000Y-103970000D02*
X119130000Y-105300000D01*
X117800000Y-103970000D02*
X119130000Y-103970000D01*
X119130000Y-106570000D02*
X119130000Y-109170000D01*
X116530000Y-106570000D02*
X119130000Y-106570000D01*
X116530000Y-103970000D02*
X116530000Y-106570000D01*
X119130000Y-109170000D02*
X101230000Y-109170000D01*
X116530000Y-103970000D02*
X101230000Y-103970000D01*
X101230000Y-103970000D02*
X101230000Y-109170000D01*
G04 #@! TO.C,J3*
X119130000Y-115970000D02*
X119130000Y-117300000D01*
X117800000Y-115970000D02*
X119130000Y-115970000D01*
X119130000Y-118570000D02*
X119130000Y-121170000D01*
X116530000Y-118570000D02*
X119130000Y-118570000D01*
X116530000Y-115970000D02*
X116530000Y-118570000D01*
X119130000Y-121170000D02*
X101230000Y-121170000D01*
X116530000Y-115970000D02*
X101230000Y-115970000D01*
X101230000Y-115970000D02*
X101230000Y-121170000D01*
G04 #@! TO.C,J4*
X137070000Y-115980000D02*
X137070000Y-121180000D01*
X152370000Y-115980000D02*
X137070000Y-115980000D01*
X154970000Y-121180000D02*
X137070000Y-121180000D01*
X152370000Y-115980000D02*
X152370000Y-118580000D01*
X152370000Y-118580000D02*
X154970000Y-118580000D01*
X154970000Y-118580000D02*
X154970000Y-121180000D01*
X153640000Y-115980000D02*
X154970000Y-115980000D01*
X154970000Y-115980000D02*
X154970000Y-117310000D01*
G04 #@! TO.C,J5*
X65330000Y-115930000D02*
X65330000Y-121130000D01*
X80630000Y-115930000D02*
X65330000Y-115930000D01*
X83230000Y-121130000D02*
X65330000Y-121130000D01*
X80630000Y-115930000D02*
X80630000Y-118530000D01*
X80630000Y-118530000D02*
X83230000Y-118530000D01*
X83230000Y-118530000D02*
X83230000Y-121130000D01*
X81900000Y-115930000D02*
X83230000Y-115930000D01*
X83230000Y-115930000D02*
X83230000Y-117260000D01*
G04 #@! TO.C,J6*
X137100000Y-104030000D02*
X137100000Y-109230000D01*
X152400000Y-104030000D02*
X137100000Y-104030000D01*
X155000000Y-109230000D02*
X137100000Y-109230000D01*
X152400000Y-104030000D02*
X152400000Y-106630000D01*
X152400000Y-106630000D02*
X155000000Y-106630000D01*
X155000000Y-106630000D02*
X155000000Y-109230000D01*
X153670000Y-104030000D02*
X155000000Y-104030000D01*
X155000000Y-104030000D02*
X155000000Y-105360000D01*
G04 #@! TO.C,J7*
X190860000Y-116030000D02*
X190860000Y-117360000D01*
X189530000Y-116030000D02*
X190860000Y-116030000D01*
X190860000Y-118630000D02*
X190860000Y-121230000D01*
X188260000Y-118630000D02*
X190860000Y-118630000D01*
X188260000Y-116030000D02*
X188260000Y-118630000D01*
X190860000Y-121230000D02*
X172960000Y-121230000D01*
X188260000Y-116030000D02*
X172960000Y-116030000D01*
X172960000Y-116030000D02*
X172960000Y-121230000D01*
G04 #@! TO.C,J8*
X190890000Y-104020000D02*
X190890000Y-105350000D01*
X189560000Y-104020000D02*
X190890000Y-104020000D01*
X190890000Y-106620000D02*
X190890000Y-109220000D01*
X188290000Y-106620000D02*
X190890000Y-106620000D01*
X188290000Y-104020000D02*
X188290000Y-106620000D01*
X190890000Y-109220000D02*
X172990000Y-109220000D01*
X188290000Y-104020000D02*
X172990000Y-104020000D01*
X172990000Y-104020000D02*
X172990000Y-109220000D01*
G04 #@! TO.C,J9*
X208830000Y-104170000D02*
X208830000Y-109370000D01*
X224130000Y-104170000D02*
X208830000Y-104170000D01*
X226730000Y-109370000D02*
X208830000Y-109370000D01*
X224130000Y-104170000D02*
X224130000Y-106770000D01*
X224130000Y-106770000D02*
X226730000Y-106770000D01*
X226730000Y-106770000D02*
X226730000Y-109370000D01*
X225400000Y-104170000D02*
X226730000Y-104170000D01*
X226730000Y-104170000D02*
X226730000Y-105500000D01*
G04 #@! TO.C,J10*
X208930000Y-116070000D02*
X208930000Y-121270000D01*
X224230000Y-116070000D02*
X208930000Y-116070000D01*
X226830000Y-121270000D02*
X208930000Y-121270000D01*
X224230000Y-116070000D02*
X224230000Y-118670000D01*
X224230000Y-118670000D02*
X226830000Y-118670000D01*
X226830000Y-118670000D02*
X226830000Y-121270000D01*
X225500000Y-116070000D02*
X226830000Y-116070000D01*
X226830000Y-116070000D02*
X226830000Y-117400000D01*
G04 #@! TO.C,J11*
X262590000Y-116180000D02*
X262590000Y-117510000D01*
X261260000Y-116180000D02*
X262590000Y-116180000D01*
X262590000Y-118780000D02*
X262590000Y-121380000D01*
X259990000Y-118780000D02*
X262590000Y-118780000D01*
X259990000Y-116180000D02*
X259990000Y-118780000D01*
X262590000Y-121380000D02*
X244690000Y-121380000D01*
X259990000Y-116180000D02*
X244690000Y-116180000D01*
X244690000Y-116180000D02*
X244690000Y-121380000D01*
G04 #@! TO.C,J12*
X262630000Y-104170000D02*
X262630000Y-105500000D01*
X261300000Y-104170000D02*
X262630000Y-104170000D01*
X262630000Y-106770000D02*
X262630000Y-109370000D01*
X260030000Y-106770000D02*
X262630000Y-106770000D01*
X260030000Y-104170000D02*
X260030000Y-106770000D01*
X262630000Y-109370000D02*
X244730000Y-109370000D01*
X260030000Y-104170000D02*
X244730000Y-104170000D01*
X244730000Y-104170000D02*
X244730000Y-109370000D01*
G04 #@! TO.C,J13*
X59720000Y-115030000D02*
X62380000Y-115030000D01*
X59720000Y-112430000D02*
X59720000Y-115030000D01*
X62380000Y-112430000D02*
X62380000Y-115030000D01*
X59720000Y-112430000D02*
X62380000Y-112430000D01*
X59720000Y-111160000D02*
X59720000Y-109830000D01*
X59720000Y-109830000D02*
X61050000Y-109830000D01*
G04 #@! TO.C,H1*
D12*
X235088095Y-115002380D02*
X235088095Y-114002380D01*
X235088095Y-114478571D02*
X235659523Y-114478571D01*
X235659523Y-115002380D02*
X235659523Y-114002380D01*
X236659523Y-115002380D02*
X236088095Y-115002380D01*
X236373809Y-115002380D02*
X236373809Y-114002380D01*
X236278571Y-114145238D01*
X236183333Y-114240476D01*
X236088095Y-114288095D01*
G04 #@! TO.C,H2*
X59388095Y-103952380D02*
X59388095Y-102952380D01*
X59388095Y-103428571D02*
X59959523Y-103428571D01*
X59959523Y-103952380D02*
X59959523Y-102952380D01*
X60388095Y-103047619D02*
X60435714Y-103000000D01*
X60530952Y-102952380D01*
X60769047Y-102952380D01*
X60864285Y-103000000D01*
X60911904Y-103047619D01*
X60959523Y-103142857D01*
X60959523Y-103238095D01*
X60911904Y-103380952D01*
X60340476Y-103952380D01*
X60959523Y-103952380D01*
G04 #@! TO.C,H3*
X91988095Y-102752380D02*
X91988095Y-101752380D01*
X91988095Y-102228571D02*
X92559523Y-102228571D01*
X92559523Y-102752380D02*
X92559523Y-101752380D01*
X92940476Y-101752380D02*
X93559523Y-101752380D01*
X93226190Y-102133333D01*
X93369047Y-102133333D01*
X93464285Y-102180952D01*
X93511904Y-102228571D01*
X93559523Y-102323809D01*
X93559523Y-102561904D01*
X93511904Y-102657142D01*
X93464285Y-102704761D01*
X93369047Y-102752380D01*
X93083333Y-102752380D01*
X92988095Y-102704761D01*
X92940476Y-102657142D01*
G04 #@! TO.C,H4*
X59888095Y-121702380D02*
X59888095Y-120702380D01*
X59888095Y-121178571D02*
X60459523Y-121178571D01*
X60459523Y-121702380D02*
X60459523Y-120702380D01*
X61364285Y-121035714D02*
X61364285Y-121702380D01*
X61126190Y-120654761D02*
X60888095Y-121369047D01*
X61507142Y-121369047D01*
G04 #@! TO.C,H5*
X127188095Y-102802380D02*
X127188095Y-101802380D01*
X127188095Y-102278571D02*
X127759523Y-102278571D01*
X127759523Y-102802380D02*
X127759523Y-101802380D01*
X128711904Y-101802380D02*
X128235714Y-101802380D01*
X128188095Y-102278571D01*
X128235714Y-102230952D01*
X128330952Y-102183333D01*
X128569047Y-102183333D01*
X128664285Y-102230952D01*
X128711904Y-102278571D01*
X128759523Y-102373809D01*
X128759523Y-102611904D01*
X128711904Y-102707142D01*
X128664285Y-102754761D01*
X128569047Y-102802380D01*
X128330952Y-102802380D01*
X128235714Y-102754761D01*
X128188095Y-102707142D01*
G04 #@! TO.C,H6*
X91988095Y-114752380D02*
X91988095Y-113752380D01*
X91988095Y-114228571D02*
X92559523Y-114228571D01*
X92559523Y-114752380D02*
X92559523Y-113752380D01*
X93464285Y-113752380D02*
X93273809Y-113752380D01*
X93178571Y-113800000D01*
X93130952Y-113847619D01*
X93035714Y-113990476D01*
X92988095Y-114180952D01*
X92988095Y-114561904D01*
X93035714Y-114657142D01*
X93083333Y-114704761D01*
X93178571Y-114752380D01*
X93369047Y-114752380D01*
X93464285Y-114704761D01*
X93511904Y-114657142D01*
X93559523Y-114561904D01*
X93559523Y-114323809D01*
X93511904Y-114228571D01*
X93464285Y-114180952D01*
X93369047Y-114133333D01*
X93178571Y-114133333D01*
X93083333Y-114180952D01*
X93035714Y-114228571D01*
X92988095Y-114323809D01*
G04 #@! TO.C,H7*
X127388095Y-115002380D02*
X127388095Y-114002380D01*
X127388095Y-114478571D02*
X127959523Y-114478571D01*
X127959523Y-115002380D02*
X127959523Y-114002380D01*
X128340476Y-114002380D02*
X129007142Y-114002380D01*
X128578571Y-115002380D01*
G04 #@! TO.C,H8*
X235038095Y-103052380D02*
X235038095Y-102052380D01*
X235038095Y-102528571D02*
X235609523Y-102528571D01*
X235609523Y-103052380D02*
X235609523Y-102052380D01*
X236228571Y-102480952D02*
X236133333Y-102433333D01*
X236085714Y-102385714D01*
X236038095Y-102290476D01*
X236038095Y-102242857D01*
X236085714Y-102147619D01*
X236133333Y-102100000D01*
X236228571Y-102052380D01*
X236419047Y-102052380D01*
X236514285Y-102100000D01*
X236561904Y-102147619D01*
X236609523Y-102242857D01*
X236609523Y-102290476D01*
X236561904Y-102385714D01*
X236514285Y-102433333D01*
X236419047Y-102480952D01*
X236228571Y-102480952D01*
X236133333Y-102528571D01*
X236085714Y-102576190D01*
X236038095Y-102671428D01*
X236038095Y-102861904D01*
X236085714Y-102957142D01*
X236133333Y-103004761D01*
X236228571Y-103052380D01*
X236419047Y-103052380D01*
X236514285Y-103004761D01*
X236561904Y-102957142D01*
X236609523Y-102861904D01*
X236609523Y-102671428D01*
X236561904Y-102576190D01*
X236514285Y-102528571D01*
X236419047Y-102480952D01*
G04 #@! TO.C,H9*
X199138095Y-115052380D02*
X199138095Y-114052380D01*
X199138095Y-114528571D02*
X199709523Y-114528571D01*
X199709523Y-115052380D02*
X199709523Y-114052380D01*
X200233333Y-115052380D02*
X200423809Y-115052380D01*
X200519047Y-115004761D01*
X200566666Y-114957142D01*
X200661904Y-114814285D01*
X200709523Y-114623809D01*
X200709523Y-114242857D01*
X200661904Y-114147619D01*
X200614285Y-114100000D01*
X200519047Y-114052380D01*
X200328571Y-114052380D01*
X200233333Y-114100000D01*
X200185714Y-114147619D01*
X200138095Y-114242857D01*
X200138095Y-114480952D01*
X200185714Y-114576190D01*
X200233333Y-114623809D01*
X200328571Y-114671428D01*
X200519047Y-114671428D01*
X200614285Y-114623809D01*
X200661904Y-114576190D01*
X200709523Y-114480952D01*
G04 #@! TO.C,H10*
X266361904Y-103102380D02*
X266361904Y-102102380D01*
X266361904Y-102578571D02*
X266933333Y-102578571D01*
X266933333Y-103102380D02*
X266933333Y-102102380D01*
X267933333Y-103102380D02*
X267361904Y-103102380D01*
X267647619Y-103102380D02*
X267647619Y-102102380D01*
X267552380Y-102245238D01*
X267457142Y-102340476D01*
X267361904Y-102388095D01*
X268552380Y-102102380D02*
X268647619Y-102102380D01*
X268742857Y-102150000D01*
X268790476Y-102197619D01*
X268838095Y-102292857D01*
X268885714Y-102483333D01*
X268885714Y-102721428D01*
X268838095Y-102911904D01*
X268790476Y-103007142D01*
X268742857Y-103054761D01*
X268647619Y-103102380D01*
X268552380Y-103102380D01*
X268457142Y-103054761D01*
X268409523Y-103007142D01*
X268361904Y-102911904D01*
X268314285Y-102721428D01*
X268314285Y-102483333D01*
X268361904Y-102292857D01*
X268409523Y-102197619D01*
X268457142Y-102150000D01*
X268552380Y-102102380D01*
G04 #@! TO.C,H11*
X198511904Y-103052380D02*
X198511904Y-102052380D01*
X198511904Y-102528571D02*
X199083333Y-102528571D01*
X199083333Y-103052380D02*
X199083333Y-102052380D01*
X200083333Y-103052380D02*
X199511904Y-103052380D01*
X199797619Y-103052380D02*
X199797619Y-102052380D01*
X199702380Y-102195238D01*
X199607142Y-102290476D01*
X199511904Y-102338095D01*
X201035714Y-103052380D02*
X200464285Y-103052380D01*
X200750000Y-103052380D02*
X200750000Y-102052380D01*
X200654761Y-102195238D01*
X200559523Y-102290476D01*
X200464285Y-102338095D01*
G04 #@! TO.C,H12*
X162711904Y-102952380D02*
X162711904Y-101952380D01*
X162711904Y-102428571D02*
X163283333Y-102428571D01*
X163283333Y-102952380D02*
X163283333Y-101952380D01*
X164283333Y-102952380D02*
X163711904Y-102952380D01*
X163997619Y-102952380D02*
X163997619Y-101952380D01*
X163902380Y-102095238D01*
X163807142Y-102190476D01*
X163711904Y-102238095D01*
X164664285Y-102047619D02*
X164711904Y-102000000D01*
X164807142Y-101952380D01*
X165045238Y-101952380D01*
X165140476Y-102000000D01*
X165188095Y-102047619D01*
X165235714Y-102142857D01*
X165235714Y-102238095D01*
X165188095Y-102380952D01*
X164616666Y-102952380D01*
X165235714Y-102952380D01*
G04 #@! TO.C,H13*
X162761904Y-115002380D02*
X162761904Y-114002380D01*
X162761904Y-114478571D02*
X163333333Y-114478571D01*
X163333333Y-115002380D02*
X163333333Y-114002380D01*
X164333333Y-115002380D02*
X163761904Y-115002380D01*
X164047619Y-115002380D02*
X164047619Y-114002380D01*
X163952380Y-114145238D01*
X163857142Y-114240476D01*
X163761904Y-114288095D01*
X164666666Y-114002380D02*
X165285714Y-114002380D01*
X164952380Y-114383333D01*
X165095238Y-114383333D01*
X165190476Y-114430952D01*
X165238095Y-114478571D01*
X165285714Y-114573809D01*
X165285714Y-114811904D01*
X165238095Y-114907142D01*
X165190476Y-114954761D01*
X165095238Y-115002380D01*
X164809523Y-115002380D01*
X164714285Y-114954761D01*
X164666666Y-114907142D01*
G04 #@! TO.C,H14*
X266311904Y-115052380D02*
X266311904Y-114052380D01*
X266311904Y-114528571D02*
X266883333Y-114528571D01*
X266883333Y-115052380D02*
X266883333Y-114052380D01*
X267883333Y-115052380D02*
X267311904Y-115052380D01*
X267597619Y-115052380D02*
X267597619Y-114052380D01*
X267502380Y-114195238D01*
X267407142Y-114290476D01*
X267311904Y-114338095D01*
X268740476Y-114385714D02*
X268740476Y-115052380D01*
X268502380Y-114004761D02*
X268264285Y-114719047D01*
X268883333Y-114719047D01*
G04 #@! TO.C,J1*
X83722380Y-106813333D02*
X84436666Y-106813333D01*
X84579523Y-106860952D01*
X84674761Y-106956190D01*
X84722380Y-107099047D01*
X84722380Y-107194285D01*
X84722380Y-105813333D02*
X84722380Y-106384761D01*
X84722380Y-106099047D02*
X83722380Y-106099047D01*
X83865238Y-106194285D01*
X83960476Y-106289523D01*
X84008095Y-106384761D01*
G04 #@! TO.C,J2*
X119582380Y-106903333D02*
X120296666Y-106903333D01*
X120439523Y-106950952D01*
X120534761Y-107046190D01*
X120582380Y-107189047D01*
X120582380Y-107284285D01*
X119677619Y-106474761D02*
X119630000Y-106427142D01*
X119582380Y-106331904D01*
X119582380Y-106093809D01*
X119630000Y-105998571D01*
X119677619Y-105950952D01*
X119772857Y-105903333D01*
X119868095Y-105903333D01*
X120010952Y-105950952D01*
X120582380Y-106522380D01*
X120582380Y-105903333D01*
G04 #@! TO.C,J3*
X119582380Y-118903333D02*
X120296666Y-118903333D01*
X120439523Y-118950952D01*
X120534761Y-119046190D01*
X120582380Y-119189047D01*
X120582380Y-119284285D01*
X119582380Y-118522380D02*
X119582380Y-117903333D01*
X119963333Y-118236666D01*
X119963333Y-118093809D01*
X120010952Y-117998571D01*
X120058571Y-117950952D01*
X120153809Y-117903333D01*
X120391904Y-117903333D01*
X120487142Y-117950952D01*
X120534761Y-117998571D01*
X120582380Y-118093809D01*
X120582380Y-118379523D01*
X120534761Y-118474761D01*
X120487142Y-118522380D01*
G04 #@! TO.C,J4*
X155422380Y-118913333D02*
X156136666Y-118913333D01*
X156279523Y-118960952D01*
X156374761Y-119056190D01*
X156422380Y-119199047D01*
X156422380Y-119294285D01*
X155755714Y-118008571D02*
X156422380Y-118008571D01*
X155374761Y-118246666D02*
X156089047Y-118484761D01*
X156089047Y-117865714D01*
G04 #@! TO.C,J5*
X83682380Y-118863333D02*
X84396666Y-118863333D01*
X84539523Y-118910952D01*
X84634761Y-119006190D01*
X84682380Y-119149047D01*
X84682380Y-119244285D01*
X83682380Y-117910952D02*
X83682380Y-118387142D01*
X84158571Y-118434761D01*
X84110952Y-118387142D01*
X84063333Y-118291904D01*
X84063333Y-118053809D01*
X84110952Y-117958571D01*
X84158571Y-117910952D01*
X84253809Y-117863333D01*
X84491904Y-117863333D01*
X84587142Y-117910952D01*
X84634761Y-117958571D01*
X84682380Y-118053809D01*
X84682380Y-118291904D01*
X84634761Y-118387142D01*
X84587142Y-118434761D01*
G04 #@! TO.C,J6*
X155452380Y-106963333D02*
X156166666Y-106963333D01*
X156309523Y-107010952D01*
X156404761Y-107106190D01*
X156452380Y-107249047D01*
X156452380Y-107344285D01*
X155452380Y-106058571D02*
X155452380Y-106249047D01*
X155500000Y-106344285D01*
X155547619Y-106391904D01*
X155690476Y-106487142D01*
X155880952Y-106534761D01*
X156261904Y-106534761D01*
X156357142Y-106487142D01*
X156404761Y-106439523D01*
X156452380Y-106344285D01*
X156452380Y-106153809D01*
X156404761Y-106058571D01*
X156357142Y-106010952D01*
X156261904Y-105963333D01*
X156023809Y-105963333D01*
X155928571Y-106010952D01*
X155880952Y-106058571D01*
X155833333Y-106153809D01*
X155833333Y-106344285D01*
X155880952Y-106439523D01*
X155928571Y-106487142D01*
X156023809Y-106534761D01*
G04 #@! TO.C,J7*
X191312380Y-118963333D02*
X192026666Y-118963333D01*
X192169523Y-119010952D01*
X192264761Y-119106190D01*
X192312380Y-119249047D01*
X192312380Y-119344285D01*
X191312380Y-118582380D02*
X191312380Y-117915714D01*
X192312380Y-118344285D01*
G04 #@! TO.C,J8*
X191342380Y-106953333D02*
X192056666Y-106953333D01*
X192199523Y-107000952D01*
X192294761Y-107096190D01*
X192342380Y-107239047D01*
X192342380Y-107334285D01*
X191770952Y-106334285D02*
X191723333Y-106429523D01*
X191675714Y-106477142D01*
X191580476Y-106524761D01*
X191532857Y-106524761D01*
X191437619Y-106477142D01*
X191390000Y-106429523D01*
X191342380Y-106334285D01*
X191342380Y-106143809D01*
X191390000Y-106048571D01*
X191437619Y-106000952D01*
X191532857Y-105953333D01*
X191580476Y-105953333D01*
X191675714Y-106000952D01*
X191723333Y-106048571D01*
X191770952Y-106143809D01*
X191770952Y-106334285D01*
X191818571Y-106429523D01*
X191866190Y-106477142D01*
X191961428Y-106524761D01*
X192151904Y-106524761D01*
X192247142Y-106477142D01*
X192294761Y-106429523D01*
X192342380Y-106334285D01*
X192342380Y-106143809D01*
X192294761Y-106048571D01*
X192247142Y-106000952D01*
X192151904Y-105953333D01*
X191961428Y-105953333D01*
X191866190Y-106000952D01*
X191818571Y-106048571D01*
X191770952Y-106143809D01*
G04 #@! TO.C,J9*
X227182380Y-107103333D02*
X227896666Y-107103333D01*
X228039523Y-107150952D01*
X228134761Y-107246190D01*
X228182380Y-107389047D01*
X228182380Y-107484285D01*
X228182380Y-106579523D02*
X228182380Y-106389047D01*
X228134761Y-106293809D01*
X228087142Y-106246190D01*
X227944285Y-106150952D01*
X227753809Y-106103333D01*
X227372857Y-106103333D01*
X227277619Y-106150952D01*
X227230000Y-106198571D01*
X227182380Y-106293809D01*
X227182380Y-106484285D01*
X227230000Y-106579523D01*
X227277619Y-106627142D01*
X227372857Y-106674761D01*
X227610952Y-106674761D01*
X227706190Y-106627142D01*
X227753809Y-106579523D01*
X227801428Y-106484285D01*
X227801428Y-106293809D01*
X227753809Y-106198571D01*
X227706190Y-106150952D01*
X227610952Y-106103333D01*
G04 #@! TO.C,J10*
X227282380Y-119479523D02*
X227996666Y-119479523D01*
X228139523Y-119527142D01*
X228234761Y-119622380D01*
X228282380Y-119765238D01*
X228282380Y-119860476D01*
X228282380Y-118479523D02*
X228282380Y-119050952D01*
X228282380Y-118765238D02*
X227282380Y-118765238D01*
X227425238Y-118860476D01*
X227520476Y-118955714D01*
X227568095Y-119050952D01*
X227282380Y-117860476D02*
X227282380Y-117765238D01*
X227330000Y-117670000D01*
X227377619Y-117622380D01*
X227472857Y-117574761D01*
X227663333Y-117527142D01*
X227901428Y-117527142D01*
X228091904Y-117574761D01*
X228187142Y-117622380D01*
X228234761Y-117670000D01*
X228282380Y-117765238D01*
X228282380Y-117860476D01*
X228234761Y-117955714D01*
X228187142Y-118003333D01*
X228091904Y-118050952D01*
X227901428Y-118098571D01*
X227663333Y-118098571D01*
X227472857Y-118050952D01*
X227377619Y-118003333D01*
X227330000Y-117955714D01*
X227282380Y-117860476D01*
G04 #@! TO.C,J11*
X263042380Y-119589523D02*
X263756666Y-119589523D01*
X263899523Y-119637142D01*
X263994761Y-119732380D01*
X264042380Y-119875238D01*
X264042380Y-119970476D01*
X264042380Y-118589523D02*
X264042380Y-119160952D01*
X264042380Y-118875238D02*
X263042380Y-118875238D01*
X263185238Y-118970476D01*
X263280476Y-119065714D01*
X263328095Y-119160952D01*
X264042380Y-117637142D02*
X264042380Y-118208571D01*
X264042380Y-117922857D02*
X263042380Y-117922857D01*
X263185238Y-118018095D01*
X263280476Y-118113333D01*
X263328095Y-118208571D01*
G04 #@! TO.C,J12*
X263082380Y-107579523D02*
X263796666Y-107579523D01*
X263939523Y-107627142D01*
X264034761Y-107722380D01*
X264082380Y-107865238D01*
X264082380Y-107960476D01*
X264082380Y-106579523D02*
X264082380Y-107150952D01*
X264082380Y-106865238D02*
X263082380Y-106865238D01*
X263225238Y-106960476D01*
X263320476Y-107055714D01*
X263368095Y-107150952D01*
X263177619Y-106198571D02*
X263130000Y-106150952D01*
X263082380Y-106055714D01*
X263082380Y-105817619D01*
X263130000Y-105722380D01*
X263177619Y-105674761D01*
X263272857Y-105627142D01*
X263368095Y-105627142D01*
X263510952Y-105674761D01*
X264082380Y-106246190D01*
X264082380Y-105627142D01*
G04 #@! TO.C,J13*
X60240476Y-108282380D02*
X60240476Y-108996666D01*
X60192857Y-109139523D01*
X60097619Y-109234761D01*
X59954761Y-109282380D01*
X59859523Y-109282380D01*
X61240476Y-109282380D02*
X60669047Y-109282380D01*
X60954761Y-109282380D02*
X60954761Y-108282380D01*
X60859523Y-108425238D01*
X60764285Y-108520476D01*
X60669047Y-108568095D01*
X61573809Y-108282380D02*
X62192857Y-108282380D01*
X61859523Y-108663333D01*
X62002380Y-108663333D01*
X62097619Y-108710952D01*
X62145238Y-108758571D01*
X62192857Y-108853809D01*
X62192857Y-109091904D01*
X62145238Y-109187142D01*
X62097619Y-109234761D01*
X62002380Y-109282380D01*
X61716666Y-109282380D01*
X61621428Y-109234761D01*
X61573809Y-109187142D01*
G04 #@! TD*
M02*
