M48
;DRILL file {KiCad 5.0.1-33cea8e~68~ubuntu14.04.1} date Fri 23 Nov 2018 11:29:18 AM PST
;FORMAT={-:-/ absolute / inch / decimal}
FMAT,2
INCH,TZ
T1C0.0157
T2C0.0394
T3C0.1260
%
G90
G05
M72
T1
X4.7205Y-4.3386
X6.1496Y-4.3583
X7.563Y-4.3376
X8.9528Y-4.3425
T2
X2.626Y-4.1421
X2.626Y-4.2421
X2.726Y-4.1421
X2.726Y-4.2421
X2.826Y-4.1421
X2.826Y-4.2421
X2.926Y-4.1421
X2.926Y-4.2421
X3.026Y-4.1421
X3.026Y-4.2421
X3.126Y-4.1421
X3.126Y-4.2421
X3.226Y-4.1421
X3.226Y-4.2421
X6.8618Y-4.6205
X6.8618Y-4.7205
X6.9618Y-4.6205
X6.9618Y-4.7205
X7.0618Y-4.6205
X7.0618Y-4.7205
X7.1618Y-4.6205
X7.1618Y-4.7205
X7.2618Y-4.6205
X7.2618Y-4.7205
X7.3618Y-4.6205
X7.3618Y-4.7205
X7.4618Y-4.6205
X7.4618Y-4.7205
X6.863Y-4.1476
X6.863Y-4.2476
X6.963Y-4.1476
X6.963Y-4.2476
X7.063Y-4.1476
X7.063Y-4.2476
X7.163Y-4.1476
X7.163Y-4.2476
X7.263Y-4.1476
X7.263Y-4.2476
X7.363Y-4.1476
X7.363Y-4.2476
X7.463Y-4.1476
X7.463Y-4.2476
X8.278Y-4.622
X8.278Y-4.722
X8.378Y-4.622
X8.378Y-4.722
X8.478Y-4.622
X8.478Y-4.722
X8.578Y-4.622
X8.578Y-4.722
X8.678Y-4.622
X8.678Y-4.722
X8.778Y-4.622
X8.778Y-4.722
X8.878Y-4.622
X8.878Y-4.722
X9.6858Y-4.6264
X9.6858Y-4.7264
X9.7858Y-4.6264
X9.7858Y-4.7264
X9.8858Y-4.6264
X9.8858Y-4.7264
X9.9858Y-4.6264
X9.9858Y-4.7264
X10.0858Y-4.6264
X10.0858Y-4.7264
X10.1858Y-4.6264
X10.1858Y-4.7264
X10.2858Y-4.6264
X10.2858Y-4.7264
X8.274Y-4.1535
X8.274Y-4.2535
X8.374Y-4.1535
X8.374Y-4.2535
X8.474Y-4.1535
X8.474Y-4.2535
X8.574Y-4.1535
X8.574Y-4.2535
X8.674Y-4.1535
X8.674Y-4.2535
X8.774Y-4.1535
X8.774Y-4.2535
X8.874Y-4.1535
X8.874Y-4.2535
X5.45Y-4.148
X5.45Y-4.248
X5.55Y-4.148
X5.55Y-4.248
X5.65Y-4.148
X5.65Y-4.248
X5.75Y-4.148
X5.75Y-4.248
X5.85Y-4.148
X5.85Y-4.248
X5.95Y-4.148
X5.95Y-4.248
X6.05Y-4.148
X6.05Y-4.248
X2.6244Y-4.6165
X2.6244Y-4.7165
X2.7244Y-4.6165
X2.7244Y-4.7165
X2.8244Y-4.6165
X2.8244Y-4.7165
X2.9244Y-4.6165
X2.9244Y-4.7165
X3.0244Y-4.6165
X3.0244Y-4.7165
X3.1244Y-4.6165
X3.1244Y-4.7165
X3.2244Y-4.6165
X3.2244Y-4.7165
X5.4488Y-4.6185
X5.4488Y-4.7185
X5.5488Y-4.6185
X5.5488Y-4.7185
X5.6488Y-4.6185
X5.6488Y-4.7185
X5.7488Y-4.6185
X5.7488Y-4.7185
X5.8488Y-4.6185
X5.8488Y-4.7185
X5.9488Y-4.6185
X5.9488Y-4.7185
X6.0488Y-4.6185
X6.0488Y-4.7185
X9.6874Y-4.1535
X9.6874Y-4.2535
X9.7874Y-4.1535
X9.7874Y-4.2535
X9.8874Y-4.1535
X9.8874Y-4.2535
X9.9874Y-4.1535
X9.9874Y-4.2535
X10.0874Y-4.1535
X10.0874Y-4.2535
X10.1874Y-4.1535
X10.1874Y-4.2535
X10.2874Y-4.1535
X10.2874Y-4.2535
X2.4035Y-4.3764
X2.4035Y-4.4764
X4.0378Y-4.6181
X4.0378Y-4.7181
X4.1378Y-4.6181
X4.1378Y-4.7181
X4.2378Y-4.6181
X4.2378Y-4.7181
X4.3378Y-4.6181
X4.3378Y-4.7181
X4.4378Y-4.6181
X4.4378Y-4.7181
X4.5378Y-4.6181
X4.5378Y-4.7181
X4.6378Y-4.6181
X4.6378Y-4.7181
X4.0378Y-4.1457
X4.0378Y-4.2457
X4.1378Y-4.1457
X4.1378Y-4.2457
X4.2378Y-4.1457
X4.2378Y-4.2457
X4.3378Y-4.1457
X4.3378Y-4.2457
X4.4378Y-4.1457
X4.4378Y-4.2457
X4.5378Y-4.1457
X4.5378Y-4.2457
X4.6378Y-4.1457
X4.6378Y-4.2457
T3
X2.2441Y-4.189
X9.2854Y-4.6752
X3.6516Y-4.1929
X2.248Y-4.6693
X3.6516Y-4.6654
X5.0374Y-4.1949
X5.0453Y-4.6752
X10.5354Y-4.2067
X9.2835Y-4.2047
X7.8701Y-4.6772
X7.8642Y-4.2047
X6.4547Y-4.2008
X10.5335Y-4.6772
X6.4567Y-4.6752
T0
M30
