G04 #@! TF.GenerationSoftware,KiCad,Pcbnew,5.0.1-33cea8e~68~ubuntu14.04.1*
G04 #@! TF.CreationDate,2018-11-23T16:30:40-08:00*
G04 #@! TF.ProjectId,perf-sensor,706572662D73656E736F722E6B696361,rev?*
G04 #@! TF.SameCoordinates,Original*
G04 #@! TF.FileFunction,Legend,Top*
G04 #@! TF.FilePolarity,Positive*
%FSLAX46Y46*%
G04 Gerber Fmt 4.6, Leading zero omitted, Abs format (unit mm)*
G04 Created by KiCad (PCBNEW 5.0.1-33cea8e~68~ubuntu14.04.1) date Fri 23 Nov 2018 04:30:40 PM PST*
%MOMM*%
%LPD*%
G01*
G04 APERTURE LIST*
%ADD10C,0.300000*%
%ADD11C,0.200000*%
%ADD12C,0.120000*%
%ADD13C,0.150000*%
G04 APERTURE END LIST*
D10*
X85911428Y-98083714D02*
X85911428Y-97369428D01*
X85197142Y-97298000D01*
X85268571Y-97369428D01*
X85340000Y-97512285D01*
X85340000Y-97869428D01*
X85268571Y-98012285D01*
X85197142Y-98083714D01*
X85054285Y-98155142D01*
X84697142Y-98155142D01*
X84554285Y-98083714D01*
X84482857Y-98012285D01*
X84411428Y-97869428D01*
X84411428Y-97512285D01*
X84482857Y-97369428D01*
X84554285Y-97298000D01*
X85411428Y-98655142D02*
X84411428Y-99012285D01*
X85411428Y-99369428D01*
X88380000Y-97663142D02*
X88451428Y-97520285D01*
X88451428Y-97306000D01*
X88380000Y-97091714D01*
X88237142Y-96948857D01*
X88094285Y-96877428D01*
X87808571Y-96806000D01*
X87594285Y-96806000D01*
X87308571Y-96877428D01*
X87165714Y-96948857D01*
X87022857Y-97091714D01*
X86951428Y-97306000D01*
X86951428Y-97448857D01*
X87022857Y-97663142D01*
X87094285Y-97734571D01*
X87594285Y-97734571D01*
X87594285Y-97448857D01*
X86951428Y-98377428D02*
X88451428Y-98377428D01*
X86951428Y-99234571D01*
X88451428Y-99234571D01*
X86951428Y-99948857D02*
X88451428Y-99948857D01*
X88451428Y-100306000D01*
X88380000Y-100520285D01*
X88237142Y-100663142D01*
X88094285Y-100734571D01*
X87808571Y-100806000D01*
X87594285Y-100806000D01*
X87308571Y-100734571D01*
X87165714Y-100663142D01*
X87022857Y-100520285D01*
X86951428Y-100306000D01*
X86951428Y-99948857D01*
X112930857Y-96861714D02*
X112859428Y-97076000D01*
X112859428Y-97433142D01*
X112930857Y-97576000D01*
X113002285Y-97647428D01*
X113145142Y-97718857D01*
X113288000Y-97718857D01*
X113430857Y-97647428D01*
X113502285Y-97576000D01*
X113573714Y-97433142D01*
X113645142Y-97147428D01*
X113716571Y-97004571D01*
X113788000Y-96933142D01*
X113930857Y-96861714D01*
X114073714Y-96861714D01*
X114216571Y-96933142D01*
X114288000Y-97004571D01*
X114359428Y-97147428D01*
X114359428Y-97504571D01*
X114288000Y-97718857D01*
X112859428Y-98361714D02*
X113859428Y-98361714D01*
X114359428Y-98361714D02*
X114288000Y-98290285D01*
X114216571Y-98361714D01*
X114288000Y-98433142D01*
X114359428Y-98361714D01*
X114216571Y-98361714D01*
X113859428Y-99718857D02*
X112645142Y-99718857D01*
X112502285Y-99647428D01*
X112430857Y-99576000D01*
X112359428Y-99433142D01*
X112359428Y-99218857D01*
X112430857Y-99076000D01*
X112930857Y-99718857D02*
X112859428Y-99576000D01*
X112859428Y-99290285D01*
X112930857Y-99147428D01*
X113002285Y-99076000D01*
X113145142Y-99004571D01*
X113573714Y-99004571D01*
X113716571Y-99076000D01*
X113788000Y-99147428D01*
X113859428Y-99290285D01*
X113859428Y-99576000D01*
X113788000Y-99718857D01*
X113859428Y-100433142D02*
X112859428Y-100433142D01*
X113716571Y-100433142D02*
X113788000Y-100504571D01*
X113859428Y-100647428D01*
X113859428Y-100861714D01*
X113788000Y-101004571D01*
X113645142Y-101076000D01*
X112859428Y-101076000D01*
X112859428Y-102433142D02*
X113645142Y-102433142D01*
X113788000Y-102361714D01*
X113859428Y-102218857D01*
X113859428Y-101933142D01*
X113788000Y-101790285D01*
X112930857Y-102433142D02*
X112859428Y-102290285D01*
X112859428Y-101933142D01*
X112930857Y-101790285D01*
X113073714Y-101718857D01*
X113216571Y-101718857D01*
X113359428Y-101790285D01*
X113430857Y-101933142D01*
X113430857Y-102290285D01*
X113502285Y-102433142D01*
X112859428Y-103361714D02*
X112930857Y-103218857D01*
X113073714Y-103147428D01*
X114359428Y-103147428D01*
D11*
X91465428Y-105444857D02*
X90779714Y-105444857D01*
X91122571Y-105444857D02*
X91122571Y-104244857D01*
X91008285Y-104416285D01*
X90894000Y-104530571D01*
X90779714Y-104587714D01*
X92208285Y-104244857D02*
X92322571Y-104244857D01*
X92436857Y-104302000D01*
X92494000Y-104359142D01*
X92551142Y-104473428D01*
X92608285Y-104702000D01*
X92608285Y-104987714D01*
X92551142Y-105216285D01*
X92494000Y-105330571D01*
X92436857Y-105387714D01*
X92322571Y-105444857D01*
X92208285Y-105444857D01*
X92094000Y-105387714D01*
X92036857Y-105330571D01*
X91979714Y-105216285D01*
X91922571Y-104987714D01*
X91922571Y-104702000D01*
X91979714Y-104473428D01*
X92036857Y-104359142D01*
X92094000Y-104302000D01*
X92208285Y-104244857D01*
X93751428Y-105444857D02*
X93980000Y-105444857D01*
X94094285Y-105387714D01*
X94151428Y-105330571D01*
X94265714Y-105159142D01*
X94322857Y-104930571D01*
X94322857Y-104473428D01*
X94265714Y-104359142D01*
X94208571Y-104302000D01*
X94094285Y-104244857D01*
X93865714Y-104244857D01*
X93751428Y-104302000D01*
X93694285Y-104359142D01*
X93637142Y-104473428D01*
X93637142Y-104759142D01*
X93694285Y-104873428D01*
X93751428Y-104930571D01*
X93865714Y-104987714D01*
X94094285Y-104987714D01*
X94208571Y-104930571D01*
X94265714Y-104873428D01*
X94322857Y-104759142D01*
X96405714Y-104759142D02*
X96291428Y-104702000D01*
X96234285Y-104644857D01*
X96177142Y-104530571D01*
X96177142Y-104473428D01*
X96234285Y-104359142D01*
X96291428Y-104302000D01*
X96405714Y-104244857D01*
X96634285Y-104244857D01*
X96748571Y-104302000D01*
X96805714Y-104359142D01*
X96862857Y-104473428D01*
X96862857Y-104530571D01*
X96805714Y-104644857D01*
X96748571Y-104702000D01*
X96634285Y-104759142D01*
X96405714Y-104759142D01*
X96291428Y-104816285D01*
X96234285Y-104873428D01*
X96177142Y-104987714D01*
X96177142Y-105216285D01*
X96234285Y-105330571D01*
X96291428Y-105387714D01*
X96405714Y-105444857D01*
X96634285Y-105444857D01*
X96748571Y-105387714D01*
X96805714Y-105330571D01*
X96862857Y-105216285D01*
X96862857Y-104987714D01*
X96805714Y-104873428D01*
X96748571Y-104816285D01*
X96634285Y-104759142D01*
X98660000Y-104244857D02*
X99460000Y-104244857D01*
X98945714Y-105444857D01*
X101828571Y-104244857D02*
X101600000Y-104244857D01*
X101485714Y-104302000D01*
X101428571Y-104359142D01*
X101314285Y-104530571D01*
X101257142Y-104759142D01*
X101257142Y-105216285D01*
X101314285Y-105330571D01*
X101371428Y-105387714D01*
X101485714Y-105444857D01*
X101714285Y-105444857D01*
X101828571Y-105387714D01*
X101885714Y-105330571D01*
X101942857Y-105216285D01*
X101942857Y-104930571D01*
X101885714Y-104816285D01*
X101828571Y-104759142D01*
X101714285Y-104702000D01*
X101485714Y-104702000D01*
X101371428Y-104759142D01*
X101314285Y-104816285D01*
X101257142Y-104930571D01*
X104425714Y-104244857D02*
X103854285Y-104244857D01*
X103797142Y-104816285D01*
X103854285Y-104759142D01*
X103968571Y-104702000D01*
X104254285Y-104702000D01*
X104368571Y-104759142D01*
X104425714Y-104816285D01*
X104482857Y-104930571D01*
X104482857Y-105216285D01*
X104425714Y-105330571D01*
X104368571Y-105387714D01*
X104254285Y-105444857D01*
X103968571Y-105444857D01*
X103854285Y-105387714D01*
X103797142Y-105330571D01*
X106908571Y-104644857D02*
X106908571Y-105444857D01*
X106622857Y-104187714D02*
X106337142Y-105044857D01*
X107080000Y-105044857D01*
X108820000Y-104244857D02*
X109562857Y-104244857D01*
X109162857Y-104702000D01*
X109334285Y-104702000D01*
X109448571Y-104759142D01*
X109505714Y-104816285D01*
X109562857Y-104930571D01*
X109562857Y-105216285D01*
X109505714Y-105330571D01*
X109448571Y-105387714D01*
X109334285Y-105444857D01*
X108991428Y-105444857D01*
X108877142Y-105387714D01*
X108820000Y-105330571D01*
D12*
G04 #@! TO.C,J4*
X91380000Y-105858000D02*
X91380000Y-111058000D01*
X106680000Y-105858000D02*
X91380000Y-105858000D01*
X109280000Y-111058000D02*
X91380000Y-111058000D01*
X106680000Y-105858000D02*
X106680000Y-108458000D01*
X106680000Y-108458000D02*
X109280000Y-108458000D01*
X109280000Y-108458000D02*
X109280000Y-111058000D01*
X107950000Y-105858000D02*
X109280000Y-105858000D01*
X109280000Y-105858000D02*
X109280000Y-107188000D01*
G04 #@! TO.C,SW1*
X110550000Y-99806000D02*
G75*
G02X110550000Y-97806000I0J1000000D01*
G01*
X110550000Y-97806000D02*
X110550000Y-96156000D01*
X110550000Y-96156000D02*
X90110000Y-96156000D01*
X90110000Y-96156000D02*
X90110000Y-101456000D01*
X90110000Y-101456000D02*
X110550000Y-101456000D01*
X110550000Y-101456000D02*
X110550000Y-99806000D01*
X110610000Y-93666000D02*
X90050000Y-93666000D01*
X90050000Y-93666000D02*
X90050000Y-103946000D01*
X90050000Y-103946000D02*
X110610000Y-103946000D01*
X110610000Y-103946000D02*
X110610000Y-93666000D01*
G04 #@! TO.C,J2*
X83760000Y-88332000D02*
X83760000Y-93532000D01*
X114300000Y-88332000D02*
X83760000Y-88332000D01*
X116900000Y-93532000D02*
X83760000Y-93532000D01*
X114300000Y-88332000D02*
X114300000Y-90932000D01*
X114300000Y-90932000D02*
X116900000Y-90932000D01*
X116900000Y-90932000D02*
X116900000Y-93532000D01*
X115570000Y-88332000D02*
X116900000Y-88332000D01*
X116900000Y-88332000D02*
X116900000Y-89662000D01*
G04 #@! TO.C,J5*
X116900000Y-88452000D02*
X116900000Y-83252000D01*
X86360000Y-88452000D02*
X116900000Y-88452000D01*
X83760000Y-83252000D02*
X116900000Y-83252000D01*
X86360000Y-88452000D02*
X86360000Y-85852000D01*
X86360000Y-85852000D02*
X83760000Y-85852000D01*
X83760000Y-85852000D02*
X83760000Y-83252000D01*
X85090000Y-88452000D02*
X83760000Y-88452000D01*
X83760000Y-88452000D02*
X83760000Y-87122000D01*
G04 #@! TO.C,J6*
X83760000Y-83372000D02*
X83760000Y-82042000D01*
X85090000Y-83372000D02*
X83760000Y-83372000D01*
X83760000Y-80772000D02*
X83760000Y-78172000D01*
X86360000Y-80772000D02*
X83760000Y-80772000D01*
X86360000Y-83372000D02*
X86360000Y-80772000D01*
X83760000Y-78172000D02*
X116900000Y-78172000D01*
X86360000Y-83372000D02*
X116900000Y-83372000D01*
X116900000Y-83372000D02*
X116900000Y-78172000D01*
G04 #@! TO.C,J7*
X116900000Y-78292000D02*
X116900000Y-73092000D01*
X86360000Y-78292000D02*
X116900000Y-78292000D01*
X83760000Y-73092000D02*
X116900000Y-73092000D01*
X86360000Y-78292000D02*
X86360000Y-75692000D01*
X86360000Y-75692000D02*
X83760000Y-75692000D01*
X83760000Y-75692000D02*
X83760000Y-73092000D01*
X85090000Y-78292000D02*
X83760000Y-78292000D01*
X83760000Y-78292000D02*
X83760000Y-76962000D01*
G04 #@! TO.C,J8*
X116900000Y-73212000D02*
X116900000Y-68012000D01*
X86360000Y-73212000D02*
X116900000Y-73212000D01*
X83760000Y-68012000D02*
X116900000Y-68012000D01*
X86360000Y-73212000D02*
X86360000Y-70612000D01*
X86360000Y-70612000D02*
X83760000Y-70612000D01*
X83760000Y-70612000D02*
X83760000Y-68012000D01*
X85090000Y-73212000D02*
X83760000Y-73212000D01*
X83760000Y-73212000D02*
X83760000Y-71882000D01*
G04 #@! TO.C,J11*
X109280000Y-63052000D02*
X109280000Y-57852000D01*
X93980000Y-63052000D02*
X109280000Y-63052000D01*
X91380000Y-57852000D02*
X109280000Y-57852000D01*
X93980000Y-63052000D02*
X93980000Y-60452000D01*
X93980000Y-60452000D02*
X91380000Y-60452000D01*
X91380000Y-60452000D02*
X91380000Y-57852000D01*
X92710000Y-63052000D02*
X91380000Y-63052000D01*
X91380000Y-63052000D02*
X91380000Y-61722000D01*
G04 #@! TO.C,J12*
X88960000Y-96326000D02*
X88960000Y-93666000D01*
X86360000Y-96326000D02*
X88960000Y-96326000D01*
X86360000Y-93666000D02*
X88960000Y-93666000D01*
X86360000Y-96326000D02*
X86360000Y-93666000D01*
X85090000Y-96326000D02*
X83760000Y-96326000D01*
X83760000Y-96326000D02*
X83760000Y-94996000D01*
G04 #@! TO.C,J1*
X112462000Y-96580000D02*
X115122000Y-96580000D01*
X112462000Y-96520000D02*
X112462000Y-96580000D01*
X115122000Y-96520000D02*
X115122000Y-96580000D01*
X112462000Y-96520000D02*
X115122000Y-96520000D01*
X112462000Y-95250000D02*
X112462000Y-93920000D01*
X112462000Y-93920000D02*
X113792000Y-93920000D01*
G04 #@! TO.C,J10*
X109280000Y-68132000D02*
X109280000Y-62932000D01*
X93980000Y-68132000D02*
X109280000Y-68132000D01*
X91380000Y-62932000D02*
X109280000Y-62932000D01*
X93980000Y-68132000D02*
X93980000Y-65532000D01*
X93980000Y-65532000D02*
X91380000Y-65532000D01*
X91380000Y-65532000D02*
X91380000Y-62932000D01*
X92710000Y-68132000D02*
X91380000Y-68132000D01*
X91380000Y-68132000D02*
X91380000Y-66802000D01*
G04 #@! TO.C,H1*
D13*
X89512235Y-108384600D02*
X89512235Y-107384600D01*
X89512235Y-107860791D02*
X90083663Y-107860791D01*
X90083663Y-108384600D02*
X90083663Y-107384600D01*
X91083663Y-108384600D02*
X90512235Y-108384600D01*
X90797949Y-108384600D02*
X90797949Y-107384600D01*
X90702711Y-107527458D01*
X90607473Y-107622696D01*
X90512235Y-107670315D01*
G04 #@! TO.C,H2*
X109585855Y-108229660D02*
X109585855Y-107229660D01*
X109585855Y-107705851D02*
X110157283Y-107705851D01*
X110157283Y-108229660D02*
X110157283Y-107229660D01*
X110585855Y-107324899D02*
X110633474Y-107277280D01*
X110728712Y-107229660D01*
X110966807Y-107229660D01*
X111062045Y-107277280D01*
X111109664Y-107324899D01*
X111157283Y-107420137D01*
X111157283Y-107515375D01*
X111109664Y-107658232D01*
X110538236Y-108229660D01*
X111157283Y-108229660D01*
G04 #@! TO.C,H3*
X114427095Y-66096140D02*
X114427095Y-65096140D01*
X114427095Y-65572331D02*
X114998523Y-65572331D01*
X114998523Y-66096140D02*
X114998523Y-65096140D01*
X115379476Y-65096140D02*
X115998523Y-65096140D01*
X115665190Y-65477093D01*
X115808047Y-65477093D01*
X115903285Y-65524712D01*
X115950904Y-65572331D01*
X115998523Y-65667569D01*
X115998523Y-65905664D01*
X115950904Y-66000902D01*
X115903285Y-66048521D01*
X115808047Y-66096140D01*
X115522333Y-66096140D01*
X115427095Y-66048521D01*
X115379476Y-66000902D01*
G04 #@! TO.C,H4*
X84505895Y-64678820D02*
X84505895Y-63678820D01*
X84505895Y-64155011D02*
X85077323Y-64155011D01*
X85077323Y-64678820D02*
X85077323Y-63678820D01*
X85982085Y-64012154D02*
X85982085Y-64678820D01*
X85743990Y-63631201D02*
X85505895Y-64345487D01*
X86124942Y-64345487D01*
G04 #@! TO.C,J4*
X109732380Y-108791333D02*
X110446666Y-108791333D01*
X110589523Y-108838952D01*
X110684761Y-108934190D01*
X110732380Y-109077047D01*
X110732380Y-109172285D01*
X110065714Y-107886571D02*
X110732380Y-107886571D01*
X109684761Y-108124666D02*
X110399047Y-108362761D01*
X110399047Y-107743714D01*
G04 #@! TO.C,SW1*
X100266666Y-99464761D02*
X100409523Y-99512380D01*
X100647619Y-99512380D01*
X100742857Y-99464761D01*
X100790476Y-99417142D01*
X100838095Y-99321904D01*
X100838095Y-99226666D01*
X100790476Y-99131428D01*
X100742857Y-99083809D01*
X100647619Y-99036190D01*
X100457142Y-98988571D01*
X100361904Y-98940952D01*
X100314285Y-98893333D01*
X100266666Y-98798095D01*
X100266666Y-98702857D01*
X100314285Y-98607619D01*
X100361904Y-98560000D01*
X100457142Y-98512380D01*
X100695238Y-98512380D01*
X100838095Y-98560000D01*
X101171428Y-98512380D02*
X101409523Y-99512380D01*
X101600000Y-98798095D01*
X101790476Y-99512380D01*
X102028571Y-98512380D01*
X102933333Y-99512380D02*
X102361904Y-99512380D01*
X102647619Y-99512380D02*
X102647619Y-98512380D01*
X102552380Y-98655238D01*
X102457142Y-98750476D01*
X102361904Y-98798095D01*
G04 #@! TO.C,J2*
X117352380Y-91265333D02*
X118066666Y-91265333D01*
X118209523Y-91312952D01*
X118304761Y-91408190D01*
X118352380Y-91551047D01*
X118352380Y-91646285D01*
X117447619Y-90836761D02*
X117400000Y-90789142D01*
X117352380Y-90693904D01*
X117352380Y-90455809D01*
X117400000Y-90360571D01*
X117447619Y-90312952D01*
X117542857Y-90265333D01*
X117638095Y-90265333D01*
X117780952Y-90312952D01*
X118352380Y-90884380D01*
X118352380Y-90265333D01*
G04 #@! TO.C,J5*
X82212380Y-86185333D02*
X82926666Y-86185333D01*
X83069523Y-86232952D01*
X83164761Y-86328190D01*
X83212380Y-86471047D01*
X83212380Y-86566285D01*
X82212380Y-85232952D02*
X82212380Y-85709142D01*
X82688571Y-85756761D01*
X82640952Y-85709142D01*
X82593333Y-85613904D01*
X82593333Y-85375809D01*
X82640952Y-85280571D01*
X82688571Y-85232952D01*
X82783809Y-85185333D01*
X83021904Y-85185333D01*
X83117142Y-85232952D01*
X83164761Y-85280571D01*
X83212380Y-85375809D01*
X83212380Y-85613904D01*
X83164761Y-85709142D01*
X83117142Y-85756761D01*
G04 #@! TO.C,J6*
X82212380Y-81105333D02*
X82926666Y-81105333D01*
X83069523Y-81152952D01*
X83164761Y-81248190D01*
X83212380Y-81391047D01*
X83212380Y-81486285D01*
X82212380Y-80200571D02*
X82212380Y-80391047D01*
X82260000Y-80486285D01*
X82307619Y-80533904D01*
X82450476Y-80629142D01*
X82640952Y-80676761D01*
X83021904Y-80676761D01*
X83117142Y-80629142D01*
X83164761Y-80581523D01*
X83212380Y-80486285D01*
X83212380Y-80295809D01*
X83164761Y-80200571D01*
X83117142Y-80152952D01*
X83021904Y-80105333D01*
X82783809Y-80105333D01*
X82688571Y-80152952D01*
X82640952Y-80200571D01*
X82593333Y-80295809D01*
X82593333Y-80486285D01*
X82640952Y-80581523D01*
X82688571Y-80629142D01*
X82783809Y-80676761D01*
G04 #@! TO.C,J7*
X82212380Y-76025333D02*
X82926666Y-76025333D01*
X83069523Y-76072952D01*
X83164761Y-76168190D01*
X83212380Y-76311047D01*
X83212380Y-76406285D01*
X82212380Y-75644380D02*
X82212380Y-74977714D01*
X83212380Y-75406285D01*
G04 #@! TO.C,J8*
X82212380Y-70945333D02*
X82926666Y-70945333D01*
X83069523Y-70992952D01*
X83164761Y-71088190D01*
X83212380Y-71231047D01*
X83212380Y-71326285D01*
X82640952Y-70326285D02*
X82593333Y-70421523D01*
X82545714Y-70469142D01*
X82450476Y-70516761D01*
X82402857Y-70516761D01*
X82307619Y-70469142D01*
X82260000Y-70421523D01*
X82212380Y-70326285D01*
X82212380Y-70135809D01*
X82260000Y-70040571D01*
X82307619Y-69992952D01*
X82402857Y-69945333D01*
X82450476Y-69945333D01*
X82545714Y-69992952D01*
X82593333Y-70040571D01*
X82640952Y-70135809D01*
X82640952Y-70326285D01*
X82688571Y-70421523D01*
X82736190Y-70469142D01*
X82831428Y-70516761D01*
X83021904Y-70516761D01*
X83117142Y-70469142D01*
X83164761Y-70421523D01*
X83212380Y-70326285D01*
X83212380Y-70135809D01*
X83164761Y-70040571D01*
X83117142Y-69992952D01*
X83021904Y-69945333D01*
X82831428Y-69945333D01*
X82736190Y-69992952D01*
X82688571Y-70040571D01*
X82640952Y-70135809D01*
G04 #@! TO.C,J11*
X89832380Y-61261523D02*
X90546666Y-61261523D01*
X90689523Y-61309142D01*
X90784761Y-61404380D01*
X90832380Y-61547238D01*
X90832380Y-61642476D01*
X90832380Y-60261523D02*
X90832380Y-60832952D01*
X90832380Y-60547238D02*
X89832380Y-60547238D01*
X89975238Y-60642476D01*
X90070476Y-60737714D01*
X90118095Y-60832952D01*
X90832380Y-59309142D02*
X90832380Y-59880571D01*
X90832380Y-59594857D02*
X89832380Y-59594857D01*
X89975238Y-59690095D01*
X90070476Y-59785333D01*
X90118095Y-59880571D01*
G04 #@! TO.C,J12*
X82212380Y-95805523D02*
X82926666Y-95805523D01*
X83069523Y-95853142D01*
X83164761Y-95948380D01*
X83212380Y-96091238D01*
X83212380Y-96186476D01*
X83212380Y-94805523D02*
X83212380Y-95376952D01*
X83212380Y-95091238D02*
X82212380Y-95091238D01*
X82355238Y-95186476D01*
X82450476Y-95281714D01*
X82498095Y-95376952D01*
X82307619Y-94424571D02*
X82260000Y-94376952D01*
X82212380Y-94281714D01*
X82212380Y-94043619D01*
X82260000Y-93948380D01*
X82307619Y-93900761D01*
X82402857Y-93853142D01*
X82498095Y-93853142D01*
X82640952Y-93900761D01*
X83212380Y-94472190D01*
X83212380Y-93853142D01*
G04 #@! TO.C,J1*
X113458666Y-92372380D02*
X113458666Y-93086666D01*
X113411047Y-93229523D01*
X113315809Y-93324761D01*
X113172952Y-93372380D01*
X113077714Y-93372380D01*
X114458666Y-93372380D02*
X113887238Y-93372380D01*
X114172952Y-93372380D02*
X114172952Y-92372380D01*
X114077714Y-92515238D01*
X113982476Y-92610476D01*
X113887238Y-92658095D01*
G04 #@! TO.C,J10*
X89832380Y-66341523D02*
X90546666Y-66341523D01*
X90689523Y-66389142D01*
X90784761Y-66484380D01*
X90832380Y-66627238D01*
X90832380Y-66722476D01*
X90832380Y-65341523D02*
X90832380Y-65912952D01*
X90832380Y-65627238D02*
X89832380Y-65627238D01*
X89975238Y-65722476D01*
X90070476Y-65817714D01*
X90118095Y-65912952D01*
X89832380Y-64722476D02*
X89832380Y-64627238D01*
X89880000Y-64532000D01*
X89927619Y-64484380D01*
X90022857Y-64436761D01*
X90213333Y-64389142D01*
X90451428Y-64389142D01*
X90641904Y-64436761D01*
X90737142Y-64484380D01*
X90784761Y-64532000D01*
X90832380Y-64627238D01*
X90832380Y-64722476D01*
X90784761Y-64817714D01*
X90737142Y-64865333D01*
X90641904Y-64912952D01*
X90451428Y-64960571D01*
X90213333Y-64960571D01*
X90022857Y-64912952D01*
X89927619Y-64865333D01*
X89880000Y-64817714D01*
X89832380Y-64722476D01*
G04 #@! TD*
M02*
