M48
;DRILL file {KiCad 5.0.2-bee76a0~70~ubuntu14.04.1} date Fri 14 Dec 2018 04:23:04 PM MST
;FORMAT={-:-/ absolute / inch / decimal}
FMAT,2
INCH,TZ
T1C0.0157
T2C0.0394
%
G90
G05
T1
X3.6Y-3.74
X3.7Y-3.74
X3.8Y-3.74
X3.9Y-3.74
X4.Y-3.74
X4.1Y-3.74
X4.2Y-3.74
X4.3Y-3.74
T2
X3.65Y-2.33
X3.65Y-2.43
X3.75Y-2.33
X3.75Y-2.43
X3.85Y-2.33
X3.85Y-2.43
X3.95Y-2.33
X3.95Y-2.43
X4.05Y-2.33
X4.05Y-2.43
X4.15Y-2.33
X4.15Y-2.43
X4.25Y-2.33
X4.25Y-2.43
X3.35Y-3.33
X3.35Y-3.43
X3.45Y-3.33
X3.45Y-3.43
X3.55Y-3.33
X3.55Y-3.43
X3.65Y-3.33
X3.65Y-3.43
X3.75Y-3.33
X3.75Y-3.43
X3.85Y-3.33
X3.85Y-3.43
X3.95Y-3.33
X3.95Y-3.43
X4.05Y-3.33
X4.05Y-3.43
X4.15Y-3.33
X4.15Y-3.43
X4.25Y-3.33
X4.25Y-3.43
X4.35Y-3.33
X4.35Y-3.43
X4.45Y-3.33
X4.45Y-3.43
X4.55Y-3.33
X4.55Y-3.43
X3.35Y-3.74
X3.45Y-3.74
X3.35Y-2.73
X3.35Y-2.83
X3.45Y-2.73
X3.45Y-2.83
X3.55Y-2.73
X3.55Y-2.83
X3.65Y-2.73
X3.65Y-2.83
X3.75Y-2.73
X3.75Y-2.83
X3.85Y-2.73
X3.85Y-2.83
X3.95Y-2.73
X3.95Y-2.83
X4.05Y-2.73
X4.05Y-2.83
X4.15Y-2.73
X4.15Y-2.83
X4.25Y-2.73
X4.25Y-2.83
X4.35Y-2.73
X4.35Y-2.83
X4.45Y-2.73
X4.45Y-2.83
X4.55Y-2.73
X4.55Y-2.83
X3.65Y-4.22
X3.65Y-4.32
X3.75Y-4.22
X3.75Y-4.32
X3.85Y-4.22
X3.85Y-4.32
X3.95Y-4.22
X3.95Y-4.32
X4.05Y-4.22
X4.05Y-4.32
X4.15Y-4.22
X4.15Y-4.32
X4.25Y-4.22
X4.25Y-4.32
X3.35Y-3.53
X3.35Y-3.63
X3.45Y-3.53
X3.45Y-3.63
X3.55Y-3.53
X3.55Y-3.63
X3.65Y-3.53
X3.65Y-3.63
X3.75Y-3.53
X3.75Y-3.63
X3.85Y-3.53
X3.85Y-3.63
X3.95Y-3.53
X3.95Y-3.63
X4.05Y-3.53
X4.05Y-3.63
X4.15Y-3.53
X4.15Y-3.63
X4.25Y-3.53
X4.25Y-3.63
X4.35Y-3.53
X4.35Y-3.63
X4.45Y-3.53
X4.45Y-3.63
X4.55Y-3.53
X4.55Y-3.63
X3.65Y-2.53
X3.65Y-2.63
X3.75Y-2.53
X3.75Y-2.63
X3.85Y-2.53
X3.85Y-2.63
X3.95Y-2.53
X3.95Y-2.63
X4.05Y-2.53
X4.05Y-2.63
X4.15Y-2.53
X4.15Y-2.63
X4.25Y-2.53
X4.25Y-2.63
X3.35Y-3.13
X3.35Y-3.23
X3.45Y-3.13
X3.45Y-3.23
X3.55Y-3.13
X3.55Y-3.23
X3.65Y-3.13
X3.65Y-3.23
X3.75Y-3.13
X3.75Y-3.23
X3.85Y-3.13
X3.85Y-3.23
X3.95Y-3.13
X3.95Y-3.23
X4.05Y-3.13
X4.05Y-3.23
X4.15Y-3.13
X4.15Y-3.23
X4.25Y-3.13
X4.25Y-3.23
X4.35Y-3.13
X4.35Y-3.23
X4.45Y-3.13
X4.45Y-3.23
X4.55Y-3.13
X4.55Y-3.23
X4.48Y-3.75
X3.35Y-2.93
X3.35Y-3.03
X3.45Y-2.93
X3.45Y-3.03
X3.55Y-2.93
X3.55Y-3.03
X3.65Y-2.93
X3.65Y-3.03
X3.75Y-2.93
X3.75Y-3.03
X3.85Y-2.93
X3.85Y-3.03
X3.95Y-2.93
X3.95Y-3.03
X4.05Y-2.93
X4.05Y-3.03
X4.15Y-2.93
X4.15Y-3.03
X4.25Y-2.93
X4.25Y-3.03
X4.35Y-2.93
X4.35Y-3.03
X4.45Y-2.93
X4.45Y-3.03
X4.55Y-2.93
X4.55Y-3.03
T0
M30
