G04 #@! TF.GenerationSoftware,KiCad,Pcbnew,5.0.2-bee76a0~70~ubuntu14.04.1*
G04 #@! TF.CreationDate,2018-12-14T16:23:02-07:00*
G04 #@! TF.ProjectId,perf-sensor,70657266-2d73-4656-9e73-6f722e6b6963,rev?*
G04 #@! TF.SameCoordinates,Original*
G04 #@! TF.FileFunction,Copper,L1,Top*
G04 #@! TF.FilePolarity,Positive*
%FSLAX46Y46*%
G04 Gerber Fmt 4.6, Leading zero omitted, Abs format (unit mm)*
G04 Created by KiCad (PCBNEW 5.0.2-bee76a0~70~ubuntu14.04.1) date Fri 14 Dec 2018 04:23:02 PM MST*
%MOMM*%
%LPD*%
G01*
G04 APERTURE LIST*
G04 #@! TA.AperFunction,ComponentPad*
%ADD10R,1.700000X1.700000*%
G04 #@! TD*
G04 #@! TA.AperFunction,ComponentPad*
%ADD11O,1.700000X1.700000*%
G04 #@! TD*
G04 #@! TA.AperFunction,SMDPad,CuDef*
%ADD12R,1.600000X1.600000*%
G04 #@! TD*
G04 #@! TA.AperFunction,ViaPad*
%ADD13C,0.800000*%
G04 #@! TD*
G04 #@! TA.AperFunction,Conductor*
%ADD14C,1.000000*%
G04 #@! TD*
G04 #@! TA.AperFunction,Conductor*
%ADD15C,0.250000*%
G04 #@! TD*
G04 APERTURE END LIST*
D10*
G04 #@! TO.P,J4,1*
G04 #@! TO.N,bus1*
X107950000Y-107188000D03*
D11*
G04 #@! TO.P,J4,2*
G04 #@! TO.N,bus2*
X107950000Y-109728000D03*
G04 #@! TO.P,J4,3*
G04 #@! TO.N,bus3*
X105410000Y-107188000D03*
G04 #@! TO.P,J4,4*
G04 #@! TO.N,bus4*
X105410000Y-109728000D03*
G04 #@! TO.P,J4,5*
G04 #@! TO.N,bus5*
X102870000Y-107188000D03*
G04 #@! TO.P,J4,6*
G04 #@! TO.N,bus6*
X102870000Y-109728000D03*
G04 #@! TO.P,J4,7*
G04 #@! TO.N,bus7*
X100330000Y-107188000D03*
G04 #@! TO.P,J4,8*
G04 #@! TO.N,bus8*
X100330000Y-109728000D03*
G04 #@! TO.P,J4,9*
G04 #@! TO.N,bus9*
X97790000Y-107188000D03*
G04 #@! TO.P,J4,10*
G04 #@! TO.N,bus10*
X97790000Y-109728000D03*
G04 #@! TO.P,J4,11*
G04 #@! TO.N,bus11*
X95250000Y-107188000D03*
G04 #@! TO.P,J4,12*
X95250000Y-109728000D03*
G04 #@! TO.P,J4,13*
G04 #@! TO.N,bus13*
X92710000Y-107188000D03*
G04 #@! TO.P,J4,14*
X92710000Y-109728000D03*
G04 #@! TD*
D12*
G04 #@! TO.P,SW1,1*
G04 #@! TO.N,bus3*
X109220000Y-94996000D03*
G04 #@! TO.P,SW1,9*
G04 #@! TO.N,signal*
X91440000Y-102616000D03*
G04 #@! TO.P,SW1,2*
G04 #@! TO.N,bus4*
X106680000Y-94996000D03*
G04 #@! TO.P,SW1,10*
G04 #@! TO.N,signal*
X93980000Y-102616000D03*
G04 #@! TO.P,SW1,3*
G04 #@! TO.N,bus5*
X104140000Y-94996000D03*
G04 #@! TO.P,SW1,11*
G04 #@! TO.N,signal*
X96520000Y-102616000D03*
G04 #@! TO.P,SW1,4*
G04 #@! TO.N,bus6*
X101600000Y-94996000D03*
G04 #@! TO.P,SW1,12*
G04 #@! TO.N,signal*
X99060000Y-102616000D03*
G04 #@! TO.P,SW1,5*
G04 #@! TO.N,bus7*
X99060000Y-94996000D03*
G04 #@! TO.P,SW1,13*
G04 #@! TO.N,signal*
X101600000Y-102616000D03*
G04 #@! TO.P,SW1,6*
G04 #@! TO.N,bus8*
X96520000Y-94996000D03*
G04 #@! TO.P,SW1,14*
G04 #@! TO.N,signal*
X104140000Y-102616000D03*
G04 #@! TO.P,SW1,7*
G04 #@! TO.N,bus9*
X93980000Y-94996000D03*
G04 #@! TO.P,SW1,15*
G04 #@! TO.N,signal*
X106680000Y-102616000D03*
G04 #@! TO.P,SW1,8*
G04 #@! TO.N,bus10*
X91440000Y-94996000D03*
G04 #@! TO.P,SW1,16*
G04 #@! TO.N,signal*
X109220000Y-102616000D03*
G04 #@! TD*
D10*
G04 #@! TO.P,J2,1*
G04 #@! TO.N,Net-(J2-Pad1)*
X115570000Y-89662000D03*
D11*
G04 #@! TO.P,J2,2*
G04 #@! TO.N,Net-(J2-Pad2)*
X115570000Y-92202000D03*
G04 #@! TO.P,J2,3*
G04 #@! TO.N,Net-(J2-Pad3)*
X113030000Y-89662000D03*
G04 #@! TO.P,J2,4*
G04 #@! TO.N,Net-(J2-Pad4)*
X113030000Y-92202000D03*
G04 #@! TO.P,J2,5*
G04 #@! TO.N,Net-(J2-Pad5)*
X110490000Y-89662000D03*
G04 #@! TO.P,J2,6*
G04 #@! TO.N,Net-(J2-Pad6)*
X110490000Y-92202000D03*
G04 #@! TO.P,J2,7*
G04 #@! TO.N,Net-(J2-Pad7)*
X107950000Y-89662000D03*
G04 #@! TO.P,J2,8*
G04 #@! TO.N,Net-(J2-Pad8)*
X107950000Y-92202000D03*
G04 #@! TO.P,J2,9*
G04 #@! TO.N,Net-(J2-Pad9)*
X105410000Y-89662000D03*
G04 #@! TO.P,J2,10*
G04 #@! TO.N,Net-(J2-Pad10)*
X105410000Y-92202000D03*
G04 #@! TO.P,J2,11*
G04 #@! TO.N,Net-(J2-Pad11)*
X102870000Y-89662000D03*
G04 #@! TO.P,J2,12*
G04 #@! TO.N,Net-(J2-Pad12)*
X102870000Y-92202000D03*
G04 #@! TO.P,J2,13*
G04 #@! TO.N,Net-(J2-Pad13)*
X100330000Y-89662000D03*
G04 #@! TO.P,J2,14*
G04 #@! TO.N,Net-(J2-Pad14)*
X100330000Y-92202000D03*
G04 #@! TO.P,J2,15*
G04 #@! TO.N,Net-(J2-Pad15)*
X97790000Y-89662000D03*
G04 #@! TO.P,J2,16*
G04 #@! TO.N,Net-(J2-Pad16)*
X97790000Y-92202000D03*
G04 #@! TO.P,J2,17*
G04 #@! TO.N,Net-(J2-Pad17)*
X95250000Y-89662000D03*
G04 #@! TO.P,J2,18*
G04 #@! TO.N,Net-(J2-Pad18)*
X95250000Y-92202000D03*
G04 #@! TO.P,J2,19*
G04 #@! TO.N,Net-(J2-Pad19)*
X92710000Y-89662000D03*
G04 #@! TO.P,J2,20*
G04 #@! TO.N,Net-(J2-Pad20)*
X92710000Y-92202000D03*
G04 #@! TO.P,J2,21*
G04 #@! TO.N,Net-(J2-Pad21)*
X90170000Y-89662000D03*
G04 #@! TO.P,J2,22*
G04 #@! TO.N,Net-(J2-Pad22)*
X90170000Y-92202000D03*
G04 #@! TO.P,J2,23*
G04 #@! TO.N,Net-(J2-Pad23)*
X87630000Y-89662000D03*
G04 #@! TO.P,J2,24*
G04 #@! TO.N,Net-(J2-Pad24)*
X87630000Y-92202000D03*
G04 #@! TO.P,J2,25*
G04 #@! TO.N,Net-(J2-Pad25)*
X85090000Y-89662000D03*
G04 #@! TO.P,J2,26*
G04 #@! TO.N,Net-(J2-Pad26)*
X85090000Y-92202000D03*
G04 #@! TD*
D10*
G04 #@! TO.P,J5,1*
G04 #@! TO.N,Net-(J5-Pad1)*
X85090000Y-87122000D03*
D11*
G04 #@! TO.P,J5,2*
G04 #@! TO.N,Net-(J5-Pad2)*
X85090000Y-84582000D03*
G04 #@! TO.P,J5,3*
G04 #@! TO.N,Net-(J5-Pad3)*
X87630000Y-87122000D03*
G04 #@! TO.P,J5,4*
G04 #@! TO.N,Net-(J5-Pad4)*
X87630000Y-84582000D03*
G04 #@! TO.P,J5,5*
G04 #@! TO.N,Net-(J5-Pad5)*
X90170000Y-87122000D03*
G04 #@! TO.P,J5,6*
G04 #@! TO.N,Net-(J5-Pad6)*
X90170000Y-84582000D03*
G04 #@! TO.P,J5,7*
G04 #@! TO.N,Net-(J5-Pad7)*
X92710000Y-87122000D03*
G04 #@! TO.P,J5,8*
G04 #@! TO.N,Net-(J5-Pad8)*
X92710000Y-84582000D03*
G04 #@! TO.P,J5,9*
G04 #@! TO.N,Net-(J5-Pad9)*
X95250000Y-87122000D03*
G04 #@! TO.P,J5,10*
G04 #@! TO.N,Net-(J5-Pad10)*
X95250000Y-84582000D03*
G04 #@! TO.P,J5,11*
G04 #@! TO.N,Net-(J5-Pad11)*
X97790000Y-87122000D03*
G04 #@! TO.P,J5,12*
G04 #@! TO.N,Net-(J5-Pad12)*
X97790000Y-84582000D03*
G04 #@! TO.P,J5,13*
G04 #@! TO.N,Net-(J5-Pad13)*
X100330000Y-87122000D03*
G04 #@! TO.P,J5,14*
G04 #@! TO.N,Net-(J5-Pad14)*
X100330000Y-84582000D03*
G04 #@! TO.P,J5,15*
G04 #@! TO.N,Net-(J5-Pad15)*
X102870000Y-87122000D03*
G04 #@! TO.P,J5,16*
G04 #@! TO.N,Net-(J5-Pad16)*
X102870000Y-84582000D03*
G04 #@! TO.P,J5,17*
G04 #@! TO.N,Net-(J5-Pad17)*
X105410000Y-87122000D03*
G04 #@! TO.P,J5,18*
G04 #@! TO.N,Net-(J5-Pad18)*
X105410000Y-84582000D03*
G04 #@! TO.P,J5,19*
G04 #@! TO.N,Net-(J5-Pad19)*
X107950000Y-87122000D03*
G04 #@! TO.P,J5,20*
G04 #@! TO.N,Net-(J5-Pad20)*
X107950000Y-84582000D03*
G04 #@! TO.P,J5,21*
G04 #@! TO.N,Net-(J5-Pad21)*
X110490000Y-87122000D03*
G04 #@! TO.P,J5,22*
G04 #@! TO.N,Net-(J5-Pad22)*
X110490000Y-84582000D03*
G04 #@! TO.P,J5,23*
G04 #@! TO.N,Net-(J5-Pad23)*
X113030000Y-87122000D03*
G04 #@! TO.P,J5,24*
G04 #@! TO.N,Net-(J5-Pad24)*
X113030000Y-84582000D03*
G04 #@! TO.P,J5,25*
G04 #@! TO.N,Net-(J5-Pad25)*
X115570000Y-87122000D03*
G04 #@! TO.P,J5,26*
G04 #@! TO.N,Net-(J5-Pad26)*
X115570000Y-84582000D03*
G04 #@! TD*
G04 #@! TO.P,J6,26*
G04 #@! TO.N,Net-(J6-Pad26)*
X115570000Y-79502000D03*
G04 #@! TO.P,J6,25*
G04 #@! TO.N,Net-(J6-Pad25)*
X115570000Y-82042000D03*
G04 #@! TO.P,J6,24*
G04 #@! TO.N,Net-(J6-Pad24)*
X113030000Y-79502000D03*
G04 #@! TO.P,J6,23*
G04 #@! TO.N,Net-(J6-Pad23)*
X113030000Y-82042000D03*
G04 #@! TO.P,J6,22*
G04 #@! TO.N,Net-(J6-Pad22)*
X110490000Y-79502000D03*
G04 #@! TO.P,J6,21*
G04 #@! TO.N,Net-(J6-Pad21)*
X110490000Y-82042000D03*
G04 #@! TO.P,J6,20*
G04 #@! TO.N,Net-(J6-Pad20)*
X107950000Y-79502000D03*
G04 #@! TO.P,J6,19*
G04 #@! TO.N,Net-(J6-Pad19)*
X107950000Y-82042000D03*
G04 #@! TO.P,J6,18*
G04 #@! TO.N,Net-(J6-Pad18)*
X105410000Y-79502000D03*
G04 #@! TO.P,J6,17*
G04 #@! TO.N,Net-(J6-Pad17)*
X105410000Y-82042000D03*
G04 #@! TO.P,J6,16*
G04 #@! TO.N,Net-(J6-Pad16)*
X102870000Y-79502000D03*
G04 #@! TO.P,J6,15*
G04 #@! TO.N,Net-(J6-Pad15)*
X102870000Y-82042000D03*
G04 #@! TO.P,J6,14*
G04 #@! TO.N,Net-(J6-Pad14)*
X100330000Y-79502000D03*
G04 #@! TO.P,J6,13*
G04 #@! TO.N,Net-(J6-Pad13)*
X100330000Y-82042000D03*
G04 #@! TO.P,J6,12*
G04 #@! TO.N,Net-(J6-Pad12)*
X97790000Y-79502000D03*
G04 #@! TO.P,J6,11*
G04 #@! TO.N,Net-(J6-Pad11)*
X97790000Y-82042000D03*
G04 #@! TO.P,J6,10*
G04 #@! TO.N,Net-(J6-Pad10)*
X95250000Y-79502000D03*
G04 #@! TO.P,J6,9*
G04 #@! TO.N,Net-(J6-Pad9)*
X95250000Y-82042000D03*
G04 #@! TO.P,J6,8*
G04 #@! TO.N,Net-(J6-Pad8)*
X92710000Y-79502000D03*
G04 #@! TO.P,J6,7*
G04 #@! TO.N,Net-(J6-Pad7)*
X92710000Y-82042000D03*
G04 #@! TO.P,J6,6*
G04 #@! TO.N,Net-(J6-Pad6)*
X90170000Y-79502000D03*
G04 #@! TO.P,J6,5*
G04 #@! TO.N,Net-(J6-Pad5)*
X90170000Y-82042000D03*
G04 #@! TO.P,J6,4*
G04 #@! TO.N,Net-(J6-Pad4)*
X87630000Y-79502000D03*
G04 #@! TO.P,J6,3*
G04 #@! TO.N,Net-(J6-Pad3)*
X87630000Y-82042000D03*
G04 #@! TO.P,J6,2*
G04 #@! TO.N,Net-(J6-Pad2)*
X85090000Y-79502000D03*
D10*
G04 #@! TO.P,J6,1*
G04 #@! TO.N,Net-(J6-Pad1)*
X85090000Y-82042000D03*
G04 #@! TD*
G04 #@! TO.P,J7,1*
G04 #@! TO.N,Net-(J7-Pad1)*
X85090000Y-76962000D03*
D11*
G04 #@! TO.P,J7,2*
G04 #@! TO.N,Net-(J7-Pad2)*
X85090000Y-74422000D03*
G04 #@! TO.P,J7,3*
G04 #@! TO.N,Net-(J7-Pad3)*
X87630000Y-76962000D03*
G04 #@! TO.P,J7,4*
G04 #@! TO.N,Net-(J7-Pad4)*
X87630000Y-74422000D03*
G04 #@! TO.P,J7,5*
G04 #@! TO.N,Net-(J7-Pad5)*
X90170000Y-76962000D03*
G04 #@! TO.P,J7,6*
G04 #@! TO.N,Net-(J7-Pad6)*
X90170000Y-74422000D03*
G04 #@! TO.P,J7,7*
G04 #@! TO.N,Net-(J7-Pad7)*
X92710000Y-76962000D03*
G04 #@! TO.P,J7,8*
G04 #@! TO.N,Net-(J7-Pad8)*
X92710000Y-74422000D03*
G04 #@! TO.P,J7,9*
G04 #@! TO.N,Net-(J7-Pad9)*
X95250000Y-76962000D03*
G04 #@! TO.P,J7,10*
G04 #@! TO.N,Net-(J7-Pad10)*
X95250000Y-74422000D03*
G04 #@! TO.P,J7,11*
G04 #@! TO.N,Net-(J7-Pad11)*
X97790000Y-76962000D03*
G04 #@! TO.P,J7,12*
G04 #@! TO.N,Net-(J7-Pad12)*
X97790000Y-74422000D03*
G04 #@! TO.P,J7,13*
G04 #@! TO.N,Net-(J7-Pad13)*
X100330000Y-76962000D03*
G04 #@! TO.P,J7,14*
G04 #@! TO.N,Net-(J7-Pad14)*
X100330000Y-74422000D03*
G04 #@! TO.P,J7,15*
G04 #@! TO.N,Net-(J7-Pad15)*
X102870000Y-76962000D03*
G04 #@! TO.P,J7,16*
G04 #@! TO.N,Net-(J7-Pad16)*
X102870000Y-74422000D03*
G04 #@! TO.P,J7,17*
G04 #@! TO.N,Net-(J7-Pad17)*
X105410000Y-76962000D03*
G04 #@! TO.P,J7,18*
G04 #@! TO.N,Net-(J7-Pad18)*
X105410000Y-74422000D03*
G04 #@! TO.P,J7,19*
G04 #@! TO.N,Net-(J7-Pad19)*
X107950000Y-76962000D03*
G04 #@! TO.P,J7,20*
G04 #@! TO.N,Net-(J7-Pad20)*
X107950000Y-74422000D03*
G04 #@! TO.P,J7,21*
G04 #@! TO.N,Net-(J7-Pad21)*
X110490000Y-76962000D03*
G04 #@! TO.P,J7,22*
G04 #@! TO.N,Net-(J7-Pad22)*
X110490000Y-74422000D03*
G04 #@! TO.P,J7,23*
G04 #@! TO.N,Net-(J7-Pad23)*
X113030000Y-76962000D03*
G04 #@! TO.P,J7,24*
G04 #@! TO.N,Net-(J7-Pad24)*
X113030000Y-74422000D03*
G04 #@! TO.P,J7,25*
G04 #@! TO.N,Net-(J7-Pad25)*
X115570000Y-76962000D03*
G04 #@! TO.P,J7,26*
G04 #@! TO.N,Net-(J7-Pad26)*
X115570000Y-74422000D03*
G04 #@! TD*
D10*
G04 #@! TO.P,J8,1*
G04 #@! TO.N,Net-(J8-Pad1)*
X85090000Y-71882000D03*
D11*
G04 #@! TO.P,J8,2*
G04 #@! TO.N,Net-(J8-Pad2)*
X85090000Y-69342000D03*
G04 #@! TO.P,J8,3*
G04 #@! TO.N,Net-(J8-Pad3)*
X87630000Y-71882000D03*
G04 #@! TO.P,J8,4*
G04 #@! TO.N,Net-(J8-Pad4)*
X87630000Y-69342000D03*
G04 #@! TO.P,J8,5*
G04 #@! TO.N,Net-(J8-Pad5)*
X90170000Y-71882000D03*
G04 #@! TO.P,J8,6*
G04 #@! TO.N,Net-(J8-Pad6)*
X90170000Y-69342000D03*
G04 #@! TO.P,J8,7*
G04 #@! TO.N,Net-(J8-Pad7)*
X92710000Y-71882000D03*
G04 #@! TO.P,J8,8*
G04 #@! TO.N,Net-(J8-Pad8)*
X92710000Y-69342000D03*
G04 #@! TO.P,J8,9*
G04 #@! TO.N,Net-(J8-Pad9)*
X95250000Y-71882000D03*
G04 #@! TO.P,J8,10*
G04 #@! TO.N,Net-(J8-Pad10)*
X95250000Y-69342000D03*
G04 #@! TO.P,J8,11*
G04 #@! TO.N,Net-(J8-Pad11)*
X97790000Y-71882000D03*
G04 #@! TO.P,J8,12*
G04 #@! TO.N,Net-(J8-Pad12)*
X97790000Y-69342000D03*
G04 #@! TO.P,J8,13*
G04 #@! TO.N,Net-(J8-Pad13)*
X100330000Y-71882000D03*
G04 #@! TO.P,J8,14*
G04 #@! TO.N,Net-(J8-Pad14)*
X100330000Y-69342000D03*
G04 #@! TO.P,J8,15*
G04 #@! TO.N,Net-(J8-Pad15)*
X102870000Y-71882000D03*
G04 #@! TO.P,J8,16*
G04 #@! TO.N,Net-(J8-Pad16)*
X102870000Y-69342000D03*
G04 #@! TO.P,J8,17*
G04 #@! TO.N,Net-(J8-Pad17)*
X105410000Y-71882000D03*
G04 #@! TO.P,J8,18*
G04 #@! TO.N,Net-(J8-Pad18)*
X105410000Y-69342000D03*
G04 #@! TO.P,J8,19*
G04 #@! TO.N,Net-(J8-Pad19)*
X107950000Y-71882000D03*
G04 #@! TO.P,J8,20*
G04 #@! TO.N,Net-(J8-Pad20)*
X107950000Y-69342000D03*
G04 #@! TO.P,J8,21*
G04 #@! TO.N,Net-(J8-Pad21)*
X110490000Y-71882000D03*
G04 #@! TO.P,J8,22*
G04 #@! TO.N,Net-(J8-Pad22)*
X110490000Y-69342000D03*
G04 #@! TO.P,J8,23*
G04 #@! TO.N,Net-(J8-Pad23)*
X113030000Y-71882000D03*
G04 #@! TO.P,J8,24*
G04 #@! TO.N,Net-(J8-Pad24)*
X113030000Y-69342000D03*
G04 #@! TO.P,J8,25*
G04 #@! TO.N,Net-(J8-Pad25)*
X115570000Y-71882000D03*
G04 #@! TO.P,J8,26*
G04 #@! TO.N,Net-(J8-Pad26)*
X115570000Y-69342000D03*
G04 #@! TD*
D10*
G04 #@! TO.P,J11,1*
G04 #@! TO.N,Net-(J11-Pad1)*
X92710000Y-61722000D03*
D11*
G04 #@! TO.P,J11,2*
G04 #@! TO.N,Net-(J11-Pad2)*
X92710000Y-59182000D03*
G04 #@! TO.P,J11,3*
G04 #@! TO.N,Net-(J11-Pad3)*
X95250000Y-61722000D03*
G04 #@! TO.P,J11,4*
G04 #@! TO.N,Net-(J11-Pad4)*
X95250000Y-59182000D03*
G04 #@! TO.P,J11,5*
G04 #@! TO.N,Net-(J11-Pad5)*
X97790000Y-61722000D03*
G04 #@! TO.P,J11,6*
G04 #@! TO.N,Net-(J11-Pad6)*
X97790000Y-59182000D03*
G04 #@! TO.P,J11,7*
G04 #@! TO.N,Net-(J11-Pad7)*
X100330000Y-61722000D03*
G04 #@! TO.P,J11,8*
G04 #@! TO.N,Net-(J11-Pad8)*
X100330000Y-59182000D03*
G04 #@! TO.P,J11,9*
G04 #@! TO.N,Net-(J11-Pad9)*
X102870000Y-61722000D03*
G04 #@! TO.P,J11,10*
G04 #@! TO.N,Net-(J11-Pad10)*
X102870000Y-59182000D03*
G04 #@! TO.P,J11,11*
G04 #@! TO.N,Net-(J11-Pad11)*
X105410000Y-61722000D03*
G04 #@! TO.P,J11,12*
G04 #@! TO.N,Net-(J11-Pad12)*
X105410000Y-59182000D03*
G04 #@! TO.P,J11,13*
G04 #@! TO.N,Net-(J11-Pad13)*
X107950000Y-61722000D03*
G04 #@! TO.P,J11,14*
G04 #@! TO.N,Net-(J11-Pad14)*
X107950000Y-59182000D03*
G04 #@! TD*
D10*
G04 #@! TO.P,J12,1*
G04 #@! TO.N,bus11*
X85090000Y-94996000D03*
D11*
G04 #@! TO.P,J12,2*
G04 #@! TO.N,bus13*
X87630000Y-94996000D03*
G04 #@! TD*
D10*
G04 #@! TO.P,J1,1*
G04 #@! TO.N,signal*
X113792000Y-95250000D03*
G04 #@! TD*
G04 #@! TO.P,J10,1*
G04 #@! TO.N,Net-(J10-Pad1)*
X92710000Y-66802000D03*
D11*
G04 #@! TO.P,J10,2*
G04 #@! TO.N,Net-(J10-Pad2)*
X92710000Y-64262000D03*
G04 #@! TO.P,J10,3*
G04 #@! TO.N,Net-(J10-Pad3)*
X95250000Y-66802000D03*
G04 #@! TO.P,J10,4*
G04 #@! TO.N,Net-(J10-Pad4)*
X95250000Y-64262000D03*
G04 #@! TO.P,J10,5*
G04 #@! TO.N,Net-(J10-Pad5)*
X97790000Y-66802000D03*
G04 #@! TO.P,J10,6*
G04 #@! TO.N,Net-(J10-Pad6)*
X97790000Y-64262000D03*
G04 #@! TO.P,J10,7*
G04 #@! TO.N,Net-(J10-Pad7)*
X100330000Y-66802000D03*
G04 #@! TO.P,J10,8*
G04 #@! TO.N,Net-(J10-Pad8)*
X100330000Y-64262000D03*
G04 #@! TO.P,J10,9*
G04 #@! TO.N,Net-(J10-Pad9)*
X102870000Y-66802000D03*
G04 #@! TO.P,J10,10*
G04 #@! TO.N,Net-(J10-Pad10)*
X102870000Y-64262000D03*
G04 #@! TO.P,J10,11*
G04 #@! TO.N,Net-(J10-Pad11)*
X105410000Y-66802000D03*
G04 #@! TO.P,J10,12*
G04 #@! TO.N,Net-(J10-Pad12)*
X105410000Y-64262000D03*
G04 #@! TO.P,J10,13*
G04 #@! TO.N,Net-(J10-Pad13)*
X107950000Y-66802000D03*
G04 #@! TO.P,J10,14*
G04 #@! TO.N,Net-(J10-Pad14)*
X107950000Y-64262000D03*
G04 #@! TD*
D13*
G04 #@! TO.N,bus3*
X109220000Y-94996000D03*
G04 #@! TO.N,bus4*
X106680000Y-94996000D03*
G04 #@! TO.N,bus5*
X104140000Y-94996000D03*
G04 #@! TO.N,bus6*
X101600000Y-94996000D03*
G04 #@! TO.N,bus7*
X99060000Y-94996000D03*
G04 #@! TO.N,bus8*
X96520000Y-94996000D03*
G04 #@! TO.N,bus9*
X93980000Y-94996000D03*
G04 #@! TO.N,bus10*
X91440000Y-94996000D03*
G04 #@! TD*
D14*
G04 #@! TO.N,bus11*
X95250000Y-108966000D02*
X95250000Y-106671998D01*
X92964000Y-104902000D02*
X95250000Y-107188000D01*
X89916000Y-104902000D02*
X92964000Y-104902000D01*
X85344000Y-100330000D02*
X89916000Y-104902000D01*
X85344000Y-95250000D02*
X85344000Y-100330000D01*
X85090000Y-94996000D02*
X85344000Y-95250000D01*
D15*
G04 #@! TO.N,signal*
X108170000Y-102616000D02*
X91440000Y-102616000D01*
X109220000Y-102616000D02*
X108170000Y-102616000D01*
X91440000Y-101566000D02*
X89623900Y-99749900D01*
X91440000Y-102616000D02*
X91440000Y-101566000D01*
X110270000Y-102616000D02*
X109220000Y-102616000D01*
X113792000Y-99094000D02*
X110270000Y-102616000D01*
X113792000Y-95250000D02*
X113792000Y-99094000D01*
G04 #@! TD*
M02*
