G04 #@! TF.GenerationSoftware,KiCad,Pcbnew,5.0.1-33cea8e~68~ubuntu14.04.1*
G04 #@! TF.CreationDate,2018-11-23T16:30:40-08:00*
G04 #@! TF.ProjectId,perf-sensor,706572662D73656E736F722E6B696361,rev?*
G04 #@! TF.SameCoordinates,Original*
G04 #@! TF.FileFunction,Soldermask,Top*
G04 #@! TF.FilePolarity,Negative*
%FSLAX46Y46*%
G04 Gerber Fmt 4.6, Leading zero omitted, Abs format (unit mm)*
G04 Created by KiCad (PCBNEW 5.0.1-33cea8e~68~ubuntu14.04.1) date Fri 23 Nov 2018 04:30:40 PM PST*
%MOMM*%
%LPD*%
G01*
G04 APERTURE LIST*
%ADD10C,0.100000*%
G04 APERTURE END LIST*
D10*
G36*
X103036630Y-108890299D02*
X103196855Y-108938903D01*
X103344520Y-109017831D01*
X103473949Y-109124051D01*
X103580169Y-109253480D01*
X103659097Y-109401145D01*
X103707701Y-109561370D01*
X103724112Y-109728000D01*
X103707701Y-109894630D01*
X103659097Y-110054855D01*
X103580169Y-110202520D01*
X103473949Y-110331949D01*
X103344520Y-110438169D01*
X103196855Y-110517097D01*
X103036630Y-110565701D01*
X102911752Y-110578000D01*
X102828248Y-110578000D01*
X102703370Y-110565701D01*
X102543145Y-110517097D01*
X102395480Y-110438169D01*
X102266051Y-110331949D01*
X102159831Y-110202520D01*
X102080903Y-110054855D01*
X102032299Y-109894630D01*
X102015888Y-109728000D01*
X102032299Y-109561370D01*
X102080903Y-109401145D01*
X102159831Y-109253480D01*
X102266051Y-109124051D01*
X102395480Y-109017831D01*
X102543145Y-108938903D01*
X102703370Y-108890299D01*
X102828248Y-108878000D01*
X102911752Y-108878000D01*
X103036630Y-108890299D01*
X103036630Y-108890299D01*
G37*
G36*
X100496630Y-108890299D02*
X100656855Y-108938903D01*
X100804520Y-109017831D01*
X100933949Y-109124051D01*
X101040169Y-109253480D01*
X101119097Y-109401145D01*
X101167701Y-109561370D01*
X101184112Y-109728000D01*
X101167701Y-109894630D01*
X101119097Y-110054855D01*
X101040169Y-110202520D01*
X100933949Y-110331949D01*
X100804520Y-110438169D01*
X100656855Y-110517097D01*
X100496630Y-110565701D01*
X100371752Y-110578000D01*
X100288248Y-110578000D01*
X100163370Y-110565701D01*
X100003145Y-110517097D01*
X99855480Y-110438169D01*
X99726051Y-110331949D01*
X99619831Y-110202520D01*
X99540903Y-110054855D01*
X99492299Y-109894630D01*
X99475888Y-109728000D01*
X99492299Y-109561370D01*
X99540903Y-109401145D01*
X99619831Y-109253480D01*
X99726051Y-109124051D01*
X99855480Y-109017831D01*
X100003145Y-108938903D01*
X100163370Y-108890299D01*
X100288248Y-108878000D01*
X100371752Y-108878000D01*
X100496630Y-108890299D01*
X100496630Y-108890299D01*
G37*
G36*
X97956630Y-108890299D02*
X98116855Y-108938903D01*
X98264520Y-109017831D01*
X98393949Y-109124051D01*
X98500169Y-109253480D01*
X98579097Y-109401145D01*
X98627701Y-109561370D01*
X98644112Y-109728000D01*
X98627701Y-109894630D01*
X98579097Y-110054855D01*
X98500169Y-110202520D01*
X98393949Y-110331949D01*
X98264520Y-110438169D01*
X98116855Y-110517097D01*
X97956630Y-110565701D01*
X97831752Y-110578000D01*
X97748248Y-110578000D01*
X97623370Y-110565701D01*
X97463145Y-110517097D01*
X97315480Y-110438169D01*
X97186051Y-110331949D01*
X97079831Y-110202520D01*
X97000903Y-110054855D01*
X96952299Y-109894630D01*
X96935888Y-109728000D01*
X96952299Y-109561370D01*
X97000903Y-109401145D01*
X97079831Y-109253480D01*
X97186051Y-109124051D01*
X97315480Y-109017831D01*
X97463145Y-108938903D01*
X97623370Y-108890299D01*
X97748248Y-108878000D01*
X97831752Y-108878000D01*
X97956630Y-108890299D01*
X97956630Y-108890299D01*
G37*
G36*
X95416630Y-108890299D02*
X95576855Y-108938903D01*
X95724520Y-109017831D01*
X95853949Y-109124051D01*
X95960169Y-109253480D01*
X96039097Y-109401145D01*
X96087701Y-109561370D01*
X96104112Y-109728000D01*
X96087701Y-109894630D01*
X96039097Y-110054855D01*
X95960169Y-110202520D01*
X95853949Y-110331949D01*
X95724520Y-110438169D01*
X95576855Y-110517097D01*
X95416630Y-110565701D01*
X95291752Y-110578000D01*
X95208248Y-110578000D01*
X95083370Y-110565701D01*
X94923145Y-110517097D01*
X94775480Y-110438169D01*
X94646051Y-110331949D01*
X94539831Y-110202520D01*
X94460903Y-110054855D01*
X94412299Y-109894630D01*
X94395888Y-109728000D01*
X94412299Y-109561370D01*
X94460903Y-109401145D01*
X94539831Y-109253480D01*
X94646051Y-109124051D01*
X94775480Y-109017831D01*
X94923145Y-108938903D01*
X95083370Y-108890299D01*
X95208248Y-108878000D01*
X95291752Y-108878000D01*
X95416630Y-108890299D01*
X95416630Y-108890299D01*
G37*
G36*
X92876630Y-108890299D02*
X93036855Y-108938903D01*
X93184520Y-109017831D01*
X93313949Y-109124051D01*
X93420169Y-109253480D01*
X93499097Y-109401145D01*
X93547701Y-109561370D01*
X93564112Y-109728000D01*
X93547701Y-109894630D01*
X93499097Y-110054855D01*
X93420169Y-110202520D01*
X93313949Y-110331949D01*
X93184520Y-110438169D01*
X93036855Y-110517097D01*
X92876630Y-110565701D01*
X92751752Y-110578000D01*
X92668248Y-110578000D01*
X92543370Y-110565701D01*
X92383145Y-110517097D01*
X92235480Y-110438169D01*
X92106051Y-110331949D01*
X91999831Y-110202520D01*
X91920903Y-110054855D01*
X91872299Y-109894630D01*
X91855888Y-109728000D01*
X91872299Y-109561370D01*
X91920903Y-109401145D01*
X91999831Y-109253480D01*
X92106051Y-109124051D01*
X92235480Y-109017831D01*
X92383145Y-108938903D01*
X92543370Y-108890299D01*
X92668248Y-108878000D01*
X92751752Y-108878000D01*
X92876630Y-108890299D01*
X92876630Y-108890299D01*
G37*
G36*
X108116630Y-108890299D02*
X108276855Y-108938903D01*
X108424520Y-109017831D01*
X108553949Y-109124051D01*
X108660169Y-109253480D01*
X108739097Y-109401145D01*
X108787701Y-109561370D01*
X108804112Y-109728000D01*
X108787701Y-109894630D01*
X108739097Y-110054855D01*
X108660169Y-110202520D01*
X108553949Y-110331949D01*
X108424520Y-110438169D01*
X108276855Y-110517097D01*
X108116630Y-110565701D01*
X107991752Y-110578000D01*
X107908248Y-110578000D01*
X107783370Y-110565701D01*
X107623145Y-110517097D01*
X107475480Y-110438169D01*
X107346051Y-110331949D01*
X107239831Y-110202520D01*
X107160903Y-110054855D01*
X107112299Y-109894630D01*
X107095888Y-109728000D01*
X107112299Y-109561370D01*
X107160903Y-109401145D01*
X107239831Y-109253480D01*
X107346051Y-109124051D01*
X107475480Y-109017831D01*
X107623145Y-108938903D01*
X107783370Y-108890299D01*
X107908248Y-108878000D01*
X107991752Y-108878000D01*
X108116630Y-108890299D01*
X108116630Y-108890299D01*
G37*
G36*
X105576630Y-108890299D02*
X105736855Y-108938903D01*
X105884520Y-109017831D01*
X106013949Y-109124051D01*
X106120169Y-109253480D01*
X106199097Y-109401145D01*
X106247701Y-109561370D01*
X106264112Y-109728000D01*
X106247701Y-109894630D01*
X106199097Y-110054855D01*
X106120169Y-110202520D01*
X106013949Y-110331949D01*
X105884520Y-110438169D01*
X105736855Y-110517097D01*
X105576630Y-110565701D01*
X105451752Y-110578000D01*
X105368248Y-110578000D01*
X105243370Y-110565701D01*
X105083145Y-110517097D01*
X104935480Y-110438169D01*
X104806051Y-110331949D01*
X104699831Y-110202520D01*
X104620903Y-110054855D01*
X104572299Y-109894630D01*
X104555888Y-109728000D01*
X104572299Y-109561370D01*
X104620903Y-109401145D01*
X104699831Y-109253480D01*
X104806051Y-109124051D01*
X104935480Y-109017831D01*
X105083145Y-108938903D01*
X105243370Y-108890299D01*
X105368248Y-108878000D01*
X105451752Y-108878000D01*
X105576630Y-108890299D01*
X105576630Y-108890299D01*
G37*
G36*
X87842703Y-106157486D02*
X88133883Y-106278097D01*
X88395944Y-106453201D01*
X88618799Y-106676056D01*
X88793903Y-106938117D01*
X88914514Y-107229297D01*
X88976000Y-107538412D01*
X88976000Y-107853588D01*
X88914514Y-108162703D01*
X88793903Y-108453883D01*
X88618799Y-108715944D01*
X88395944Y-108938799D01*
X88133883Y-109113903D01*
X87842703Y-109234514D01*
X87533588Y-109296000D01*
X87218412Y-109296000D01*
X86909297Y-109234514D01*
X86618117Y-109113903D01*
X86356056Y-108938799D01*
X86133201Y-108715944D01*
X85958097Y-108453883D01*
X85837486Y-108162703D01*
X85776000Y-107853588D01*
X85776000Y-107538412D01*
X85837486Y-107229297D01*
X85958097Y-106938117D01*
X86133201Y-106676056D01*
X86356056Y-106453201D01*
X86618117Y-106278097D01*
X86909297Y-106157486D01*
X87218412Y-106096000D01*
X87533588Y-106096000D01*
X87842703Y-106157486D01*
X87842703Y-106157486D01*
G37*
G36*
X113750703Y-105903486D02*
X114041883Y-106024097D01*
X114303944Y-106199201D01*
X114526799Y-106422056D01*
X114701903Y-106684117D01*
X114822514Y-106975297D01*
X114884000Y-107284412D01*
X114884000Y-107599588D01*
X114822514Y-107908703D01*
X114701903Y-108199883D01*
X114526799Y-108461944D01*
X114303944Y-108684799D01*
X114041883Y-108859903D01*
X113750703Y-108980514D01*
X113441588Y-109042000D01*
X113126412Y-109042000D01*
X112817297Y-108980514D01*
X112526117Y-108859903D01*
X112264056Y-108684799D01*
X112041201Y-108461944D01*
X111866097Y-108199883D01*
X111745486Y-107908703D01*
X111684000Y-107599588D01*
X111684000Y-107284412D01*
X111745486Y-106975297D01*
X111866097Y-106684117D01*
X112041201Y-106422056D01*
X112264056Y-106199201D01*
X112526117Y-106024097D01*
X112817297Y-105903486D01*
X113126412Y-105842000D01*
X113441588Y-105842000D01*
X113750703Y-105903486D01*
X113750703Y-105903486D01*
G37*
G36*
X108800000Y-108038000D02*
X107100000Y-108038000D01*
X107100000Y-106338000D01*
X108800000Y-106338000D01*
X108800000Y-108038000D01*
X108800000Y-108038000D01*
G37*
G36*
X92876630Y-106350299D02*
X93036855Y-106398903D01*
X93184520Y-106477831D01*
X93313949Y-106584051D01*
X93420169Y-106713480D01*
X93499097Y-106861145D01*
X93547701Y-107021370D01*
X93564112Y-107188000D01*
X93547701Y-107354630D01*
X93499097Y-107514855D01*
X93420169Y-107662520D01*
X93313949Y-107791949D01*
X93184520Y-107898169D01*
X93036855Y-107977097D01*
X92876630Y-108025701D01*
X92751752Y-108038000D01*
X92668248Y-108038000D01*
X92543370Y-108025701D01*
X92383145Y-107977097D01*
X92235480Y-107898169D01*
X92106051Y-107791949D01*
X91999831Y-107662520D01*
X91920903Y-107514855D01*
X91872299Y-107354630D01*
X91855888Y-107188000D01*
X91872299Y-107021370D01*
X91920903Y-106861145D01*
X91999831Y-106713480D01*
X92106051Y-106584051D01*
X92235480Y-106477831D01*
X92383145Y-106398903D01*
X92543370Y-106350299D01*
X92668248Y-106338000D01*
X92751752Y-106338000D01*
X92876630Y-106350299D01*
X92876630Y-106350299D01*
G37*
G36*
X103036630Y-106350299D02*
X103196855Y-106398903D01*
X103344520Y-106477831D01*
X103473949Y-106584051D01*
X103580169Y-106713480D01*
X103659097Y-106861145D01*
X103707701Y-107021370D01*
X103724112Y-107188000D01*
X103707701Y-107354630D01*
X103659097Y-107514855D01*
X103580169Y-107662520D01*
X103473949Y-107791949D01*
X103344520Y-107898169D01*
X103196855Y-107977097D01*
X103036630Y-108025701D01*
X102911752Y-108038000D01*
X102828248Y-108038000D01*
X102703370Y-108025701D01*
X102543145Y-107977097D01*
X102395480Y-107898169D01*
X102266051Y-107791949D01*
X102159831Y-107662520D01*
X102080903Y-107514855D01*
X102032299Y-107354630D01*
X102015888Y-107188000D01*
X102032299Y-107021370D01*
X102080903Y-106861145D01*
X102159831Y-106713480D01*
X102266051Y-106584051D01*
X102395480Y-106477831D01*
X102543145Y-106398903D01*
X102703370Y-106350299D01*
X102828248Y-106338000D01*
X102911752Y-106338000D01*
X103036630Y-106350299D01*
X103036630Y-106350299D01*
G37*
G36*
X100496630Y-106350299D02*
X100656855Y-106398903D01*
X100804520Y-106477831D01*
X100933949Y-106584051D01*
X101040169Y-106713480D01*
X101119097Y-106861145D01*
X101167701Y-107021370D01*
X101184112Y-107188000D01*
X101167701Y-107354630D01*
X101119097Y-107514855D01*
X101040169Y-107662520D01*
X100933949Y-107791949D01*
X100804520Y-107898169D01*
X100656855Y-107977097D01*
X100496630Y-108025701D01*
X100371752Y-108038000D01*
X100288248Y-108038000D01*
X100163370Y-108025701D01*
X100003145Y-107977097D01*
X99855480Y-107898169D01*
X99726051Y-107791949D01*
X99619831Y-107662520D01*
X99540903Y-107514855D01*
X99492299Y-107354630D01*
X99475888Y-107188000D01*
X99492299Y-107021370D01*
X99540903Y-106861145D01*
X99619831Y-106713480D01*
X99726051Y-106584051D01*
X99855480Y-106477831D01*
X100003145Y-106398903D01*
X100163370Y-106350299D01*
X100288248Y-106338000D01*
X100371752Y-106338000D01*
X100496630Y-106350299D01*
X100496630Y-106350299D01*
G37*
G36*
X105576630Y-106350299D02*
X105736855Y-106398903D01*
X105884520Y-106477831D01*
X106013949Y-106584051D01*
X106120169Y-106713480D01*
X106199097Y-106861145D01*
X106247701Y-107021370D01*
X106264112Y-107188000D01*
X106247701Y-107354630D01*
X106199097Y-107514855D01*
X106120169Y-107662520D01*
X106013949Y-107791949D01*
X105884520Y-107898169D01*
X105736855Y-107977097D01*
X105576630Y-108025701D01*
X105451752Y-108038000D01*
X105368248Y-108038000D01*
X105243370Y-108025701D01*
X105083145Y-107977097D01*
X104935480Y-107898169D01*
X104806051Y-107791949D01*
X104699831Y-107662520D01*
X104620903Y-107514855D01*
X104572299Y-107354630D01*
X104555888Y-107188000D01*
X104572299Y-107021370D01*
X104620903Y-106861145D01*
X104699831Y-106713480D01*
X104806051Y-106584051D01*
X104935480Y-106477831D01*
X105083145Y-106398903D01*
X105243370Y-106350299D01*
X105368248Y-106338000D01*
X105451752Y-106338000D01*
X105576630Y-106350299D01*
X105576630Y-106350299D01*
G37*
G36*
X97956630Y-106350299D02*
X98116855Y-106398903D01*
X98264520Y-106477831D01*
X98393949Y-106584051D01*
X98500169Y-106713480D01*
X98579097Y-106861145D01*
X98627701Y-107021370D01*
X98644112Y-107188000D01*
X98627701Y-107354630D01*
X98579097Y-107514855D01*
X98500169Y-107662520D01*
X98393949Y-107791949D01*
X98264520Y-107898169D01*
X98116855Y-107977097D01*
X97956630Y-108025701D01*
X97831752Y-108038000D01*
X97748248Y-108038000D01*
X97623370Y-108025701D01*
X97463145Y-107977097D01*
X97315480Y-107898169D01*
X97186051Y-107791949D01*
X97079831Y-107662520D01*
X97000903Y-107514855D01*
X96952299Y-107354630D01*
X96935888Y-107188000D01*
X96952299Y-107021370D01*
X97000903Y-106861145D01*
X97079831Y-106713480D01*
X97186051Y-106584051D01*
X97315480Y-106477831D01*
X97463145Y-106398903D01*
X97623370Y-106350299D01*
X97748248Y-106338000D01*
X97831752Y-106338000D01*
X97956630Y-106350299D01*
X97956630Y-106350299D01*
G37*
G36*
X95416630Y-106350299D02*
X95576855Y-106398903D01*
X95724520Y-106477831D01*
X95853949Y-106584051D01*
X95960169Y-106713480D01*
X96039097Y-106861145D01*
X96087701Y-107021370D01*
X96104112Y-107188000D01*
X96087701Y-107354630D01*
X96039097Y-107514855D01*
X95960169Y-107662520D01*
X95853949Y-107791949D01*
X95724520Y-107898169D01*
X95576855Y-107977097D01*
X95416630Y-108025701D01*
X95291752Y-108038000D01*
X95208248Y-108038000D01*
X95083370Y-108025701D01*
X94923145Y-107977097D01*
X94775480Y-107898169D01*
X94646051Y-107791949D01*
X94539831Y-107662520D01*
X94460903Y-107514855D01*
X94412299Y-107354630D01*
X94395888Y-107188000D01*
X94412299Y-107021370D01*
X94460903Y-106861145D01*
X94539831Y-106713480D01*
X94646051Y-106584051D01*
X94775480Y-106477831D01*
X94923145Y-106398903D01*
X95083370Y-106350299D01*
X95208248Y-106338000D01*
X95291752Y-106338000D01*
X95416630Y-106350299D01*
X95416630Y-106350299D01*
G37*
G36*
X99860000Y-103416000D02*
X98260000Y-103416000D01*
X98260000Y-101816000D01*
X99860000Y-101816000D01*
X99860000Y-103416000D01*
X99860000Y-103416000D01*
G37*
G36*
X107480000Y-103416000D02*
X105880000Y-103416000D01*
X105880000Y-101816000D01*
X107480000Y-101816000D01*
X107480000Y-103416000D01*
X107480000Y-103416000D01*
G37*
G36*
X104940000Y-103416000D02*
X103340000Y-103416000D01*
X103340000Y-101816000D01*
X104940000Y-101816000D01*
X104940000Y-103416000D01*
X104940000Y-103416000D01*
G37*
G36*
X102400000Y-103416000D02*
X100800000Y-103416000D01*
X100800000Y-101816000D01*
X102400000Y-101816000D01*
X102400000Y-103416000D01*
X102400000Y-103416000D01*
G37*
G36*
X97320000Y-103416000D02*
X95720000Y-103416000D01*
X95720000Y-101816000D01*
X97320000Y-101816000D01*
X97320000Y-103416000D01*
X97320000Y-103416000D01*
G37*
G36*
X94780000Y-103416000D02*
X93180000Y-103416000D01*
X93180000Y-101816000D01*
X94780000Y-101816000D01*
X94780000Y-103416000D01*
X94780000Y-103416000D01*
G37*
G36*
X92240000Y-103416000D02*
X90640000Y-103416000D01*
X90640000Y-101816000D01*
X92240000Y-101816000D01*
X92240000Y-103416000D01*
X92240000Y-103416000D01*
G37*
G36*
X110020000Y-103416000D02*
X108420000Y-103416000D01*
X108420000Y-101816000D01*
X110020000Y-101816000D01*
X110020000Y-103416000D01*
X110020000Y-103416000D01*
G37*
G36*
X114642000Y-96100000D02*
X112942000Y-96100000D01*
X112942000Y-94400000D01*
X114642000Y-94400000D01*
X114642000Y-96100000D01*
X114642000Y-96100000D01*
G37*
G36*
X85940000Y-95846000D02*
X84240000Y-95846000D01*
X84240000Y-94146000D01*
X85940000Y-94146000D01*
X85940000Y-95846000D01*
X85940000Y-95846000D01*
G37*
G36*
X87796630Y-94158299D02*
X87956855Y-94206903D01*
X88104520Y-94285831D01*
X88233949Y-94392051D01*
X88340169Y-94521480D01*
X88419097Y-94669145D01*
X88467701Y-94829370D01*
X88484112Y-94996000D01*
X88467701Y-95162630D01*
X88419097Y-95322855D01*
X88340169Y-95470520D01*
X88233949Y-95599949D01*
X88104520Y-95706169D01*
X87956855Y-95785097D01*
X87796630Y-95833701D01*
X87671752Y-95846000D01*
X87588248Y-95846000D01*
X87463370Y-95833701D01*
X87303145Y-95785097D01*
X87155480Y-95706169D01*
X87026051Y-95599949D01*
X86919831Y-95470520D01*
X86840903Y-95322855D01*
X86792299Y-95162630D01*
X86775888Y-94996000D01*
X86792299Y-94829370D01*
X86840903Y-94669145D01*
X86919831Y-94521480D01*
X87026051Y-94392051D01*
X87155480Y-94285831D01*
X87303145Y-94206903D01*
X87463370Y-94158299D01*
X87588248Y-94146000D01*
X87671752Y-94146000D01*
X87796630Y-94158299D01*
X87796630Y-94158299D01*
G37*
G36*
X104940000Y-95796000D02*
X103340000Y-95796000D01*
X103340000Y-94196000D01*
X104940000Y-94196000D01*
X104940000Y-95796000D01*
X104940000Y-95796000D01*
G37*
G36*
X110020000Y-95796000D02*
X108420000Y-95796000D01*
X108420000Y-94196000D01*
X110020000Y-94196000D01*
X110020000Y-95796000D01*
X110020000Y-95796000D01*
G37*
G36*
X107480000Y-95796000D02*
X105880000Y-95796000D01*
X105880000Y-94196000D01*
X107480000Y-94196000D01*
X107480000Y-95796000D01*
X107480000Y-95796000D01*
G37*
G36*
X97320000Y-95796000D02*
X95720000Y-95796000D01*
X95720000Y-94196000D01*
X97320000Y-94196000D01*
X97320000Y-95796000D01*
X97320000Y-95796000D01*
G37*
G36*
X94780000Y-95796000D02*
X93180000Y-95796000D01*
X93180000Y-94196000D01*
X94780000Y-94196000D01*
X94780000Y-95796000D01*
X94780000Y-95796000D01*
G37*
G36*
X92240000Y-95796000D02*
X90640000Y-95796000D01*
X90640000Y-94196000D01*
X92240000Y-94196000D01*
X92240000Y-95796000D01*
X92240000Y-95796000D01*
G37*
G36*
X102400000Y-95796000D02*
X100800000Y-95796000D01*
X100800000Y-94196000D01*
X102400000Y-94196000D01*
X102400000Y-95796000D01*
X102400000Y-95796000D01*
G37*
G36*
X99860000Y-95796000D02*
X98260000Y-95796000D01*
X98260000Y-94196000D01*
X99860000Y-94196000D01*
X99860000Y-95796000D01*
X99860000Y-95796000D01*
G37*
G36*
X95416630Y-91364299D02*
X95576855Y-91412903D01*
X95724520Y-91491831D01*
X95853949Y-91598051D01*
X95960169Y-91727480D01*
X96039097Y-91875145D01*
X96087701Y-92035370D01*
X96104112Y-92202000D01*
X96087701Y-92368630D01*
X96039097Y-92528855D01*
X95960169Y-92676520D01*
X95853949Y-92805949D01*
X95724520Y-92912169D01*
X95576855Y-92991097D01*
X95416630Y-93039701D01*
X95291752Y-93052000D01*
X95208248Y-93052000D01*
X95083370Y-93039701D01*
X94923145Y-92991097D01*
X94775480Y-92912169D01*
X94646051Y-92805949D01*
X94539831Y-92676520D01*
X94460903Y-92528855D01*
X94412299Y-92368630D01*
X94395888Y-92202000D01*
X94412299Y-92035370D01*
X94460903Y-91875145D01*
X94539831Y-91727480D01*
X94646051Y-91598051D01*
X94775480Y-91491831D01*
X94923145Y-91412903D01*
X95083370Y-91364299D01*
X95208248Y-91352000D01*
X95291752Y-91352000D01*
X95416630Y-91364299D01*
X95416630Y-91364299D01*
G37*
G36*
X100496630Y-91364299D02*
X100656855Y-91412903D01*
X100804520Y-91491831D01*
X100933949Y-91598051D01*
X101040169Y-91727480D01*
X101119097Y-91875145D01*
X101167701Y-92035370D01*
X101184112Y-92202000D01*
X101167701Y-92368630D01*
X101119097Y-92528855D01*
X101040169Y-92676520D01*
X100933949Y-92805949D01*
X100804520Y-92912169D01*
X100656855Y-92991097D01*
X100496630Y-93039701D01*
X100371752Y-93052000D01*
X100288248Y-93052000D01*
X100163370Y-93039701D01*
X100003145Y-92991097D01*
X99855480Y-92912169D01*
X99726051Y-92805949D01*
X99619831Y-92676520D01*
X99540903Y-92528855D01*
X99492299Y-92368630D01*
X99475888Y-92202000D01*
X99492299Y-92035370D01*
X99540903Y-91875145D01*
X99619831Y-91727480D01*
X99726051Y-91598051D01*
X99855480Y-91491831D01*
X100003145Y-91412903D01*
X100163370Y-91364299D01*
X100288248Y-91352000D01*
X100371752Y-91352000D01*
X100496630Y-91364299D01*
X100496630Y-91364299D01*
G37*
G36*
X92876630Y-91364299D02*
X93036855Y-91412903D01*
X93184520Y-91491831D01*
X93313949Y-91598051D01*
X93420169Y-91727480D01*
X93499097Y-91875145D01*
X93547701Y-92035370D01*
X93564112Y-92202000D01*
X93547701Y-92368630D01*
X93499097Y-92528855D01*
X93420169Y-92676520D01*
X93313949Y-92805949D01*
X93184520Y-92912169D01*
X93036855Y-92991097D01*
X92876630Y-93039701D01*
X92751752Y-93052000D01*
X92668248Y-93052000D01*
X92543370Y-93039701D01*
X92383145Y-92991097D01*
X92235480Y-92912169D01*
X92106051Y-92805949D01*
X91999831Y-92676520D01*
X91920903Y-92528855D01*
X91872299Y-92368630D01*
X91855888Y-92202000D01*
X91872299Y-92035370D01*
X91920903Y-91875145D01*
X91999831Y-91727480D01*
X92106051Y-91598051D01*
X92235480Y-91491831D01*
X92383145Y-91412903D01*
X92543370Y-91364299D01*
X92668248Y-91352000D01*
X92751752Y-91352000D01*
X92876630Y-91364299D01*
X92876630Y-91364299D01*
G37*
G36*
X90336630Y-91364299D02*
X90496855Y-91412903D01*
X90644520Y-91491831D01*
X90773949Y-91598051D01*
X90880169Y-91727480D01*
X90959097Y-91875145D01*
X91007701Y-92035370D01*
X91024112Y-92202000D01*
X91007701Y-92368630D01*
X90959097Y-92528855D01*
X90880169Y-92676520D01*
X90773949Y-92805949D01*
X90644520Y-92912169D01*
X90496855Y-92991097D01*
X90336630Y-93039701D01*
X90211752Y-93052000D01*
X90128248Y-93052000D01*
X90003370Y-93039701D01*
X89843145Y-92991097D01*
X89695480Y-92912169D01*
X89566051Y-92805949D01*
X89459831Y-92676520D01*
X89380903Y-92528855D01*
X89332299Y-92368630D01*
X89315888Y-92202000D01*
X89332299Y-92035370D01*
X89380903Y-91875145D01*
X89459831Y-91727480D01*
X89566051Y-91598051D01*
X89695480Y-91491831D01*
X89843145Y-91412903D01*
X90003370Y-91364299D01*
X90128248Y-91352000D01*
X90211752Y-91352000D01*
X90336630Y-91364299D01*
X90336630Y-91364299D01*
G37*
G36*
X87796630Y-91364299D02*
X87956855Y-91412903D01*
X88104520Y-91491831D01*
X88233949Y-91598051D01*
X88340169Y-91727480D01*
X88419097Y-91875145D01*
X88467701Y-92035370D01*
X88484112Y-92202000D01*
X88467701Y-92368630D01*
X88419097Y-92528855D01*
X88340169Y-92676520D01*
X88233949Y-92805949D01*
X88104520Y-92912169D01*
X87956855Y-92991097D01*
X87796630Y-93039701D01*
X87671752Y-93052000D01*
X87588248Y-93052000D01*
X87463370Y-93039701D01*
X87303145Y-92991097D01*
X87155480Y-92912169D01*
X87026051Y-92805949D01*
X86919831Y-92676520D01*
X86840903Y-92528855D01*
X86792299Y-92368630D01*
X86775888Y-92202000D01*
X86792299Y-92035370D01*
X86840903Y-91875145D01*
X86919831Y-91727480D01*
X87026051Y-91598051D01*
X87155480Y-91491831D01*
X87303145Y-91412903D01*
X87463370Y-91364299D01*
X87588248Y-91352000D01*
X87671752Y-91352000D01*
X87796630Y-91364299D01*
X87796630Y-91364299D01*
G37*
G36*
X85256630Y-91364299D02*
X85416855Y-91412903D01*
X85564520Y-91491831D01*
X85693949Y-91598051D01*
X85800169Y-91727480D01*
X85879097Y-91875145D01*
X85927701Y-92035370D01*
X85944112Y-92202000D01*
X85927701Y-92368630D01*
X85879097Y-92528855D01*
X85800169Y-92676520D01*
X85693949Y-92805949D01*
X85564520Y-92912169D01*
X85416855Y-92991097D01*
X85256630Y-93039701D01*
X85131752Y-93052000D01*
X85048248Y-93052000D01*
X84923370Y-93039701D01*
X84763145Y-92991097D01*
X84615480Y-92912169D01*
X84486051Y-92805949D01*
X84379831Y-92676520D01*
X84300903Y-92528855D01*
X84252299Y-92368630D01*
X84235888Y-92202000D01*
X84252299Y-92035370D01*
X84300903Y-91875145D01*
X84379831Y-91727480D01*
X84486051Y-91598051D01*
X84615480Y-91491831D01*
X84763145Y-91412903D01*
X84923370Y-91364299D01*
X85048248Y-91352000D01*
X85131752Y-91352000D01*
X85256630Y-91364299D01*
X85256630Y-91364299D01*
G37*
G36*
X113196630Y-91364299D02*
X113356855Y-91412903D01*
X113504520Y-91491831D01*
X113633949Y-91598051D01*
X113740169Y-91727480D01*
X113819097Y-91875145D01*
X113867701Y-92035370D01*
X113884112Y-92202000D01*
X113867701Y-92368630D01*
X113819097Y-92528855D01*
X113740169Y-92676520D01*
X113633949Y-92805949D01*
X113504520Y-92912169D01*
X113356855Y-92991097D01*
X113196630Y-93039701D01*
X113071752Y-93052000D01*
X112988248Y-93052000D01*
X112863370Y-93039701D01*
X112703145Y-92991097D01*
X112555480Y-92912169D01*
X112426051Y-92805949D01*
X112319831Y-92676520D01*
X112240903Y-92528855D01*
X112192299Y-92368630D01*
X112175888Y-92202000D01*
X112192299Y-92035370D01*
X112240903Y-91875145D01*
X112319831Y-91727480D01*
X112426051Y-91598051D01*
X112555480Y-91491831D01*
X112703145Y-91412903D01*
X112863370Y-91364299D01*
X112988248Y-91352000D01*
X113071752Y-91352000D01*
X113196630Y-91364299D01*
X113196630Y-91364299D01*
G37*
G36*
X115736630Y-91364299D02*
X115896855Y-91412903D01*
X116044520Y-91491831D01*
X116173949Y-91598051D01*
X116280169Y-91727480D01*
X116359097Y-91875145D01*
X116407701Y-92035370D01*
X116424112Y-92202000D01*
X116407701Y-92368630D01*
X116359097Y-92528855D01*
X116280169Y-92676520D01*
X116173949Y-92805949D01*
X116044520Y-92912169D01*
X115896855Y-92991097D01*
X115736630Y-93039701D01*
X115611752Y-93052000D01*
X115528248Y-93052000D01*
X115403370Y-93039701D01*
X115243145Y-92991097D01*
X115095480Y-92912169D01*
X114966051Y-92805949D01*
X114859831Y-92676520D01*
X114780903Y-92528855D01*
X114732299Y-92368630D01*
X114715888Y-92202000D01*
X114732299Y-92035370D01*
X114780903Y-91875145D01*
X114859831Y-91727480D01*
X114966051Y-91598051D01*
X115095480Y-91491831D01*
X115243145Y-91412903D01*
X115403370Y-91364299D01*
X115528248Y-91352000D01*
X115611752Y-91352000D01*
X115736630Y-91364299D01*
X115736630Y-91364299D01*
G37*
G36*
X97956630Y-91364299D02*
X98116855Y-91412903D01*
X98264520Y-91491831D01*
X98393949Y-91598051D01*
X98500169Y-91727480D01*
X98579097Y-91875145D01*
X98627701Y-92035370D01*
X98644112Y-92202000D01*
X98627701Y-92368630D01*
X98579097Y-92528855D01*
X98500169Y-92676520D01*
X98393949Y-92805949D01*
X98264520Y-92912169D01*
X98116855Y-92991097D01*
X97956630Y-93039701D01*
X97831752Y-93052000D01*
X97748248Y-93052000D01*
X97623370Y-93039701D01*
X97463145Y-92991097D01*
X97315480Y-92912169D01*
X97186051Y-92805949D01*
X97079831Y-92676520D01*
X97000903Y-92528855D01*
X96952299Y-92368630D01*
X96935888Y-92202000D01*
X96952299Y-92035370D01*
X97000903Y-91875145D01*
X97079831Y-91727480D01*
X97186051Y-91598051D01*
X97315480Y-91491831D01*
X97463145Y-91412903D01*
X97623370Y-91364299D01*
X97748248Y-91352000D01*
X97831752Y-91352000D01*
X97956630Y-91364299D01*
X97956630Y-91364299D01*
G37*
G36*
X103036630Y-91364299D02*
X103196855Y-91412903D01*
X103344520Y-91491831D01*
X103473949Y-91598051D01*
X103580169Y-91727480D01*
X103659097Y-91875145D01*
X103707701Y-92035370D01*
X103724112Y-92202000D01*
X103707701Y-92368630D01*
X103659097Y-92528855D01*
X103580169Y-92676520D01*
X103473949Y-92805949D01*
X103344520Y-92912169D01*
X103196855Y-92991097D01*
X103036630Y-93039701D01*
X102911752Y-93052000D01*
X102828248Y-93052000D01*
X102703370Y-93039701D01*
X102543145Y-92991097D01*
X102395480Y-92912169D01*
X102266051Y-92805949D01*
X102159831Y-92676520D01*
X102080903Y-92528855D01*
X102032299Y-92368630D01*
X102015888Y-92202000D01*
X102032299Y-92035370D01*
X102080903Y-91875145D01*
X102159831Y-91727480D01*
X102266051Y-91598051D01*
X102395480Y-91491831D01*
X102543145Y-91412903D01*
X102703370Y-91364299D01*
X102828248Y-91352000D01*
X102911752Y-91352000D01*
X103036630Y-91364299D01*
X103036630Y-91364299D01*
G37*
G36*
X108116630Y-91364299D02*
X108276855Y-91412903D01*
X108424520Y-91491831D01*
X108553949Y-91598051D01*
X108660169Y-91727480D01*
X108739097Y-91875145D01*
X108787701Y-92035370D01*
X108804112Y-92202000D01*
X108787701Y-92368630D01*
X108739097Y-92528855D01*
X108660169Y-92676520D01*
X108553949Y-92805949D01*
X108424520Y-92912169D01*
X108276855Y-92991097D01*
X108116630Y-93039701D01*
X107991752Y-93052000D01*
X107908248Y-93052000D01*
X107783370Y-93039701D01*
X107623145Y-92991097D01*
X107475480Y-92912169D01*
X107346051Y-92805949D01*
X107239831Y-92676520D01*
X107160903Y-92528855D01*
X107112299Y-92368630D01*
X107095888Y-92202000D01*
X107112299Y-92035370D01*
X107160903Y-91875145D01*
X107239831Y-91727480D01*
X107346051Y-91598051D01*
X107475480Y-91491831D01*
X107623145Y-91412903D01*
X107783370Y-91364299D01*
X107908248Y-91352000D01*
X107991752Y-91352000D01*
X108116630Y-91364299D01*
X108116630Y-91364299D01*
G37*
G36*
X110656630Y-91364299D02*
X110816855Y-91412903D01*
X110964520Y-91491831D01*
X111093949Y-91598051D01*
X111200169Y-91727480D01*
X111279097Y-91875145D01*
X111327701Y-92035370D01*
X111344112Y-92202000D01*
X111327701Y-92368630D01*
X111279097Y-92528855D01*
X111200169Y-92676520D01*
X111093949Y-92805949D01*
X110964520Y-92912169D01*
X110816855Y-92991097D01*
X110656630Y-93039701D01*
X110531752Y-93052000D01*
X110448248Y-93052000D01*
X110323370Y-93039701D01*
X110163145Y-92991097D01*
X110015480Y-92912169D01*
X109886051Y-92805949D01*
X109779831Y-92676520D01*
X109700903Y-92528855D01*
X109652299Y-92368630D01*
X109635888Y-92202000D01*
X109652299Y-92035370D01*
X109700903Y-91875145D01*
X109779831Y-91727480D01*
X109886051Y-91598051D01*
X110015480Y-91491831D01*
X110163145Y-91412903D01*
X110323370Y-91364299D01*
X110448248Y-91352000D01*
X110531752Y-91352000D01*
X110656630Y-91364299D01*
X110656630Y-91364299D01*
G37*
G36*
X105576630Y-91364299D02*
X105736855Y-91412903D01*
X105884520Y-91491831D01*
X106013949Y-91598051D01*
X106120169Y-91727480D01*
X106199097Y-91875145D01*
X106247701Y-92035370D01*
X106264112Y-92202000D01*
X106247701Y-92368630D01*
X106199097Y-92528855D01*
X106120169Y-92676520D01*
X106013949Y-92805949D01*
X105884520Y-92912169D01*
X105736855Y-92991097D01*
X105576630Y-93039701D01*
X105451752Y-93052000D01*
X105368248Y-93052000D01*
X105243370Y-93039701D01*
X105083145Y-92991097D01*
X104935480Y-92912169D01*
X104806051Y-92805949D01*
X104699831Y-92676520D01*
X104620903Y-92528855D01*
X104572299Y-92368630D01*
X104555888Y-92202000D01*
X104572299Y-92035370D01*
X104620903Y-91875145D01*
X104699831Y-91727480D01*
X104806051Y-91598051D01*
X104935480Y-91491831D01*
X105083145Y-91412903D01*
X105243370Y-91364299D01*
X105368248Y-91352000D01*
X105451752Y-91352000D01*
X105576630Y-91364299D01*
X105576630Y-91364299D01*
G37*
G36*
X110656630Y-88824299D02*
X110816855Y-88872903D01*
X110964520Y-88951831D01*
X111093949Y-89058051D01*
X111200169Y-89187480D01*
X111279097Y-89335145D01*
X111327701Y-89495370D01*
X111344112Y-89662000D01*
X111327701Y-89828630D01*
X111279097Y-89988855D01*
X111200169Y-90136520D01*
X111093949Y-90265949D01*
X110964520Y-90372169D01*
X110816855Y-90451097D01*
X110656630Y-90499701D01*
X110531752Y-90512000D01*
X110448248Y-90512000D01*
X110323370Y-90499701D01*
X110163145Y-90451097D01*
X110015480Y-90372169D01*
X109886051Y-90265949D01*
X109779831Y-90136520D01*
X109700903Y-89988855D01*
X109652299Y-89828630D01*
X109635888Y-89662000D01*
X109652299Y-89495370D01*
X109700903Y-89335145D01*
X109779831Y-89187480D01*
X109886051Y-89058051D01*
X110015480Y-88951831D01*
X110163145Y-88872903D01*
X110323370Y-88824299D01*
X110448248Y-88812000D01*
X110531752Y-88812000D01*
X110656630Y-88824299D01*
X110656630Y-88824299D01*
G37*
G36*
X103036630Y-88824299D02*
X103196855Y-88872903D01*
X103344520Y-88951831D01*
X103473949Y-89058051D01*
X103580169Y-89187480D01*
X103659097Y-89335145D01*
X103707701Y-89495370D01*
X103724112Y-89662000D01*
X103707701Y-89828630D01*
X103659097Y-89988855D01*
X103580169Y-90136520D01*
X103473949Y-90265949D01*
X103344520Y-90372169D01*
X103196855Y-90451097D01*
X103036630Y-90499701D01*
X102911752Y-90512000D01*
X102828248Y-90512000D01*
X102703370Y-90499701D01*
X102543145Y-90451097D01*
X102395480Y-90372169D01*
X102266051Y-90265949D01*
X102159831Y-90136520D01*
X102080903Y-89988855D01*
X102032299Y-89828630D01*
X102015888Y-89662000D01*
X102032299Y-89495370D01*
X102080903Y-89335145D01*
X102159831Y-89187480D01*
X102266051Y-89058051D01*
X102395480Y-88951831D01*
X102543145Y-88872903D01*
X102703370Y-88824299D01*
X102828248Y-88812000D01*
X102911752Y-88812000D01*
X103036630Y-88824299D01*
X103036630Y-88824299D01*
G37*
G36*
X100496630Y-88824299D02*
X100656855Y-88872903D01*
X100804520Y-88951831D01*
X100933949Y-89058051D01*
X101040169Y-89187480D01*
X101119097Y-89335145D01*
X101167701Y-89495370D01*
X101184112Y-89662000D01*
X101167701Y-89828630D01*
X101119097Y-89988855D01*
X101040169Y-90136520D01*
X100933949Y-90265949D01*
X100804520Y-90372169D01*
X100656855Y-90451097D01*
X100496630Y-90499701D01*
X100371752Y-90512000D01*
X100288248Y-90512000D01*
X100163370Y-90499701D01*
X100003145Y-90451097D01*
X99855480Y-90372169D01*
X99726051Y-90265949D01*
X99619831Y-90136520D01*
X99540903Y-89988855D01*
X99492299Y-89828630D01*
X99475888Y-89662000D01*
X99492299Y-89495370D01*
X99540903Y-89335145D01*
X99619831Y-89187480D01*
X99726051Y-89058051D01*
X99855480Y-88951831D01*
X100003145Y-88872903D01*
X100163370Y-88824299D01*
X100288248Y-88812000D01*
X100371752Y-88812000D01*
X100496630Y-88824299D01*
X100496630Y-88824299D01*
G37*
G36*
X108116630Y-88824299D02*
X108276855Y-88872903D01*
X108424520Y-88951831D01*
X108553949Y-89058051D01*
X108660169Y-89187480D01*
X108739097Y-89335145D01*
X108787701Y-89495370D01*
X108804112Y-89662000D01*
X108787701Y-89828630D01*
X108739097Y-89988855D01*
X108660169Y-90136520D01*
X108553949Y-90265949D01*
X108424520Y-90372169D01*
X108276855Y-90451097D01*
X108116630Y-90499701D01*
X107991752Y-90512000D01*
X107908248Y-90512000D01*
X107783370Y-90499701D01*
X107623145Y-90451097D01*
X107475480Y-90372169D01*
X107346051Y-90265949D01*
X107239831Y-90136520D01*
X107160903Y-89988855D01*
X107112299Y-89828630D01*
X107095888Y-89662000D01*
X107112299Y-89495370D01*
X107160903Y-89335145D01*
X107239831Y-89187480D01*
X107346051Y-89058051D01*
X107475480Y-88951831D01*
X107623145Y-88872903D01*
X107783370Y-88824299D01*
X107908248Y-88812000D01*
X107991752Y-88812000D01*
X108116630Y-88824299D01*
X108116630Y-88824299D01*
G37*
G36*
X97956630Y-88824299D02*
X98116855Y-88872903D01*
X98264520Y-88951831D01*
X98393949Y-89058051D01*
X98500169Y-89187480D01*
X98579097Y-89335145D01*
X98627701Y-89495370D01*
X98644112Y-89662000D01*
X98627701Y-89828630D01*
X98579097Y-89988855D01*
X98500169Y-90136520D01*
X98393949Y-90265949D01*
X98264520Y-90372169D01*
X98116855Y-90451097D01*
X97956630Y-90499701D01*
X97831752Y-90512000D01*
X97748248Y-90512000D01*
X97623370Y-90499701D01*
X97463145Y-90451097D01*
X97315480Y-90372169D01*
X97186051Y-90265949D01*
X97079831Y-90136520D01*
X97000903Y-89988855D01*
X96952299Y-89828630D01*
X96935888Y-89662000D01*
X96952299Y-89495370D01*
X97000903Y-89335145D01*
X97079831Y-89187480D01*
X97186051Y-89058051D01*
X97315480Y-88951831D01*
X97463145Y-88872903D01*
X97623370Y-88824299D01*
X97748248Y-88812000D01*
X97831752Y-88812000D01*
X97956630Y-88824299D01*
X97956630Y-88824299D01*
G37*
G36*
X95416630Y-88824299D02*
X95576855Y-88872903D01*
X95724520Y-88951831D01*
X95853949Y-89058051D01*
X95960169Y-89187480D01*
X96039097Y-89335145D01*
X96087701Y-89495370D01*
X96104112Y-89662000D01*
X96087701Y-89828630D01*
X96039097Y-89988855D01*
X95960169Y-90136520D01*
X95853949Y-90265949D01*
X95724520Y-90372169D01*
X95576855Y-90451097D01*
X95416630Y-90499701D01*
X95291752Y-90512000D01*
X95208248Y-90512000D01*
X95083370Y-90499701D01*
X94923145Y-90451097D01*
X94775480Y-90372169D01*
X94646051Y-90265949D01*
X94539831Y-90136520D01*
X94460903Y-89988855D01*
X94412299Y-89828630D01*
X94395888Y-89662000D01*
X94412299Y-89495370D01*
X94460903Y-89335145D01*
X94539831Y-89187480D01*
X94646051Y-89058051D01*
X94775480Y-88951831D01*
X94923145Y-88872903D01*
X95083370Y-88824299D01*
X95208248Y-88812000D01*
X95291752Y-88812000D01*
X95416630Y-88824299D01*
X95416630Y-88824299D01*
G37*
G36*
X113196630Y-88824299D02*
X113356855Y-88872903D01*
X113504520Y-88951831D01*
X113633949Y-89058051D01*
X113740169Y-89187480D01*
X113819097Y-89335145D01*
X113867701Y-89495370D01*
X113884112Y-89662000D01*
X113867701Y-89828630D01*
X113819097Y-89988855D01*
X113740169Y-90136520D01*
X113633949Y-90265949D01*
X113504520Y-90372169D01*
X113356855Y-90451097D01*
X113196630Y-90499701D01*
X113071752Y-90512000D01*
X112988248Y-90512000D01*
X112863370Y-90499701D01*
X112703145Y-90451097D01*
X112555480Y-90372169D01*
X112426051Y-90265949D01*
X112319831Y-90136520D01*
X112240903Y-89988855D01*
X112192299Y-89828630D01*
X112175888Y-89662000D01*
X112192299Y-89495370D01*
X112240903Y-89335145D01*
X112319831Y-89187480D01*
X112426051Y-89058051D01*
X112555480Y-88951831D01*
X112703145Y-88872903D01*
X112863370Y-88824299D01*
X112988248Y-88812000D01*
X113071752Y-88812000D01*
X113196630Y-88824299D01*
X113196630Y-88824299D01*
G37*
G36*
X116420000Y-90512000D02*
X114720000Y-90512000D01*
X114720000Y-88812000D01*
X116420000Y-88812000D01*
X116420000Y-90512000D01*
X116420000Y-90512000D01*
G37*
G36*
X90336630Y-88824299D02*
X90496855Y-88872903D01*
X90644520Y-88951831D01*
X90773949Y-89058051D01*
X90880169Y-89187480D01*
X90959097Y-89335145D01*
X91007701Y-89495370D01*
X91024112Y-89662000D01*
X91007701Y-89828630D01*
X90959097Y-89988855D01*
X90880169Y-90136520D01*
X90773949Y-90265949D01*
X90644520Y-90372169D01*
X90496855Y-90451097D01*
X90336630Y-90499701D01*
X90211752Y-90512000D01*
X90128248Y-90512000D01*
X90003370Y-90499701D01*
X89843145Y-90451097D01*
X89695480Y-90372169D01*
X89566051Y-90265949D01*
X89459831Y-90136520D01*
X89380903Y-89988855D01*
X89332299Y-89828630D01*
X89315888Y-89662000D01*
X89332299Y-89495370D01*
X89380903Y-89335145D01*
X89459831Y-89187480D01*
X89566051Y-89058051D01*
X89695480Y-88951831D01*
X89843145Y-88872903D01*
X90003370Y-88824299D01*
X90128248Y-88812000D01*
X90211752Y-88812000D01*
X90336630Y-88824299D01*
X90336630Y-88824299D01*
G37*
G36*
X87796630Y-88824299D02*
X87956855Y-88872903D01*
X88104520Y-88951831D01*
X88233949Y-89058051D01*
X88340169Y-89187480D01*
X88419097Y-89335145D01*
X88467701Y-89495370D01*
X88484112Y-89662000D01*
X88467701Y-89828630D01*
X88419097Y-89988855D01*
X88340169Y-90136520D01*
X88233949Y-90265949D01*
X88104520Y-90372169D01*
X87956855Y-90451097D01*
X87796630Y-90499701D01*
X87671752Y-90512000D01*
X87588248Y-90512000D01*
X87463370Y-90499701D01*
X87303145Y-90451097D01*
X87155480Y-90372169D01*
X87026051Y-90265949D01*
X86919831Y-90136520D01*
X86840903Y-89988855D01*
X86792299Y-89828630D01*
X86775888Y-89662000D01*
X86792299Y-89495370D01*
X86840903Y-89335145D01*
X86919831Y-89187480D01*
X87026051Y-89058051D01*
X87155480Y-88951831D01*
X87303145Y-88872903D01*
X87463370Y-88824299D01*
X87588248Y-88812000D01*
X87671752Y-88812000D01*
X87796630Y-88824299D01*
X87796630Y-88824299D01*
G37*
G36*
X85256630Y-88824299D02*
X85416855Y-88872903D01*
X85564520Y-88951831D01*
X85693949Y-89058051D01*
X85800169Y-89187480D01*
X85879097Y-89335145D01*
X85927701Y-89495370D01*
X85944112Y-89662000D01*
X85927701Y-89828630D01*
X85879097Y-89988855D01*
X85800169Y-90136520D01*
X85693949Y-90265949D01*
X85564520Y-90372169D01*
X85416855Y-90451097D01*
X85256630Y-90499701D01*
X85131752Y-90512000D01*
X85048248Y-90512000D01*
X84923370Y-90499701D01*
X84763145Y-90451097D01*
X84615480Y-90372169D01*
X84486051Y-90265949D01*
X84379831Y-90136520D01*
X84300903Y-89988855D01*
X84252299Y-89828630D01*
X84235888Y-89662000D01*
X84252299Y-89495370D01*
X84300903Y-89335145D01*
X84379831Y-89187480D01*
X84486051Y-89058051D01*
X84615480Y-88951831D01*
X84763145Y-88872903D01*
X84923370Y-88824299D01*
X85048248Y-88812000D01*
X85131752Y-88812000D01*
X85256630Y-88824299D01*
X85256630Y-88824299D01*
G37*
G36*
X92876630Y-88824299D02*
X93036855Y-88872903D01*
X93184520Y-88951831D01*
X93313949Y-89058051D01*
X93420169Y-89187480D01*
X93499097Y-89335145D01*
X93547701Y-89495370D01*
X93564112Y-89662000D01*
X93547701Y-89828630D01*
X93499097Y-89988855D01*
X93420169Y-90136520D01*
X93313949Y-90265949D01*
X93184520Y-90372169D01*
X93036855Y-90451097D01*
X92876630Y-90499701D01*
X92751752Y-90512000D01*
X92668248Y-90512000D01*
X92543370Y-90499701D01*
X92383145Y-90451097D01*
X92235480Y-90372169D01*
X92106051Y-90265949D01*
X91999831Y-90136520D01*
X91920903Y-89988855D01*
X91872299Y-89828630D01*
X91855888Y-89662000D01*
X91872299Y-89495370D01*
X91920903Y-89335145D01*
X91999831Y-89187480D01*
X92106051Y-89058051D01*
X92235480Y-88951831D01*
X92383145Y-88872903D01*
X92543370Y-88824299D01*
X92668248Y-88812000D01*
X92751752Y-88812000D01*
X92876630Y-88824299D01*
X92876630Y-88824299D01*
G37*
G36*
X105576630Y-88824299D02*
X105736855Y-88872903D01*
X105884520Y-88951831D01*
X106013949Y-89058051D01*
X106120169Y-89187480D01*
X106199097Y-89335145D01*
X106247701Y-89495370D01*
X106264112Y-89662000D01*
X106247701Y-89828630D01*
X106199097Y-89988855D01*
X106120169Y-90136520D01*
X106013949Y-90265949D01*
X105884520Y-90372169D01*
X105736855Y-90451097D01*
X105576630Y-90499701D01*
X105451752Y-90512000D01*
X105368248Y-90512000D01*
X105243370Y-90499701D01*
X105083145Y-90451097D01*
X104935480Y-90372169D01*
X104806051Y-90265949D01*
X104699831Y-90136520D01*
X104620903Y-89988855D01*
X104572299Y-89828630D01*
X104555888Y-89662000D01*
X104572299Y-89495370D01*
X104620903Y-89335145D01*
X104699831Y-89187480D01*
X104806051Y-89058051D01*
X104935480Y-88951831D01*
X105083145Y-88872903D01*
X105243370Y-88824299D01*
X105368248Y-88812000D01*
X105451752Y-88812000D01*
X105576630Y-88824299D01*
X105576630Y-88824299D01*
G37*
G36*
X87796630Y-86284299D02*
X87956855Y-86332903D01*
X88104520Y-86411831D01*
X88233949Y-86518051D01*
X88340169Y-86647480D01*
X88419097Y-86795145D01*
X88467701Y-86955370D01*
X88484112Y-87122000D01*
X88467701Y-87288630D01*
X88419097Y-87448855D01*
X88340169Y-87596520D01*
X88233949Y-87725949D01*
X88104520Y-87832169D01*
X87956855Y-87911097D01*
X87796630Y-87959701D01*
X87671752Y-87972000D01*
X87588248Y-87972000D01*
X87463370Y-87959701D01*
X87303145Y-87911097D01*
X87155480Y-87832169D01*
X87026051Y-87725949D01*
X86919831Y-87596520D01*
X86840903Y-87448855D01*
X86792299Y-87288630D01*
X86775888Y-87122000D01*
X86792299Y-86955370D01*
X86840903Y-86795145D01*
X86919831Y-86647480D01*
X87026051Y-86518051D01*
X87155480Y-86411831D01*
X87303145Y-86332903D01*
X87463370Y-86284299D01*
X87588248Y-86272000D01*
X87671752Y-86272000D01*
X87796630Y-86284299D01*
X87796630Y-86284299D01*
G37*
G36*
X90336630Y-86284299D02*
X90496855Y-86332903D01*
X90644520Y-86411831D01*
X90773949Y-86518051D01*
X90880169Y-86647480D01*
X90959097Y-86795145D01*
X91007701Y-86955370D01*
X91024112Y-87122000D01*
X91007701Y-87288630D01*
X90959097Y-87448855D01*
X90880169Y-87596520D01*
X90773949Y-87725949D01*
X90644520Y-87832169D01*
X90496855Y-87911097D01*
X90336630Y-87959701D01*
X90211752Y-87972000D01*
X90128248Y-87972000D01*
X90003370Y-87959701D01*
X89843145Y-87911097D01*
X89695480Y-87832169D01*
X89566051Y-87725949D01*
X89459831Y-87596520D01*
X89380903Y-87448855D01*
X89332299Y-87288630D01*
X89315888Y-87122000D01*
X89332299Y-86955370D01*
X89380903Y-86795145D01*
X89459831Y-86647480D01*
X89566051Y-86518051D01*
X89695480Y-86411831D01*
X89843145Y-86332903D01*
X90003370Y-86284299D01*
X90128248Y-86272000D01*
X90211752Y-86272000D01*
X90336630Y-86284299D01*
X90336630Y-86284299D01*
G37*
G36*
X85940000Y-87972000D02*
X84240000Y-87972000D01*
X84240000Y-86272000D01*
X85940000Y-86272000D01*
X85940000Y-87972000D01*
X85940000Y-87972000D01*
G37*
G36*
X92876630Y-86284299D02*
X93036855Y-86332903D01*
X93184520Y-86411831D01*
X93313949Y-86518051D01*
X93420169Y-86647480D01*
X93499097Y-86795145D01*
X93547701Y-86955370D01*
X93564112Y-87122000D01*
X93547701Y-87288630D01*
X93499097Y-87448855D01*
X93420169Y-87596520D01*
X93313949Y-87725949D01*
X93184520Y-87832169D01*
X93036855Y-87911097D01*
X92876630Y-87959701D01*
X92751752Y-87972000D01*
X92668248Y-87972000D01*
X92543370Y-87959701D01*
X92383145Y-87911097D01*
X92235480Y-87832169D01*
X92106051Y-87725949D01*
X91999831Y-87596520D01*
X91920903Y-87448855D01*
X91872299Y-87288630D01*
X91855888Y-87122000D01*
X91872299Y-86955370D01*
X91920903Y-86795145D01*
X91999831Y-86647480D01*
X92106051Y-86518051D01*
X92235480Y-86411831D01*
X92383145Y-86332903D01*
X92543370Y-86284299D01*
X92668248Y-86272000D01*
X92751752Y-86272000D01*
X92876630Y-86284299D01*
X92876630Y-86284299D01*
G37*
G36*
X95416630Y-86284299D02*
X95576855Y-86332903D01*
X95724520Y-86411831D01*
X95853949Y-86518051D01*
X95960169Y-86647480D01*
X96039097Y-86795145D01*
X96087701Y-86955370D01*
X96104112Y-87122000D01*
X96087701Y-87288630D01*
X96039097Y-87448855D01*
X95960169Y-87596520D01*
X95853949Y-87725949D01*
X95724520Y-87832169D01*
X95576855Y-87911097D01*
X95416630Y-87959701D01*
X95291752Y-87972000D01*
X95208248Y-87972000D01*
X95083370Y-87959701D01*
X94923145Y-87911097D01*
X94775480Y-87832169D01*
X94646051Y-87725949D01*
X94539831Y-87596520D01*
X94460903Y-87448855D01*
X94412299Y-87288630D01*
X94395888Y-87122000D01*
X94412299Y-86955370D01*
X94460903Y-86795145D01*
X94539831Y-86647480D01*
X94646051Y-86518051D01*
X94775480Y-86411831D01*
X94923145Y-86332903D01*
X95083370Y-86284299D01*
X95208248Y-86272000D01*
X95291752Y-86272000D01*
X95416630Y-86284299D01*
X95416630Y-86284299D01*
G37*
G36*
X100496630Y-86284299D02*
X100656855Y-86332903D01*
X100804520Y-86411831D01*
X100933949Y-86518051D01*
X101040169Y-86647480D01*
X101119097Y-86795145D01*
X101167701Y-86955370D01*
X101184112Y-87122000D01*
X101167701Y-87288630D01*
X101119097Y-87448855D01*
X101040169Y-87596520D01*
X100933949Y-87725949D01*
X100804520Y-87832169D01*
X100656855Y-87911097D01*
X100496630Y-87959701D01*
X100371752Y-87972000D01*
X100288248Y-87972000D01*
X100163370Y-87959701D01*
X100003145Y-87911097D01*
X99855480Y-87832169D01*
X99726051Y-87725949D01*
X99619831Y-87596520D01*
X99540903Y-87448855D01*
X99492299Y-87288630D01*
X99475888Y-87122000D01*
X99492299Y-86955370D01*
X99540903Y-86795145D01*
X99619831Y-86647480D01*
X99726051Y-86518051D01*
X99855480Y-86411831D01*
X100003145Y-86332903D01*
X100163370Y-86284299D01*
X100288248Y-86272000D01*
X100371752Y-86272000D01*
X100496630Y-86284299D01*
X100496630Y-86284299D01*
G37*
G36*
X97956630Y-86284299D02*
X98116855Y-86332903D01*
X98264520Y-86411831D01*
X98393949Y-86518051D01*
X98500169Y-86647480D01*
X98579097Y-86795145D01*
X98627701Y-86955370D01*
X98644112Y-87122000D01*
X98627701Y-87288630D01*
X98579097Y-87448855D01*
X98500169Y-87596520D01*
X98393949Y-87725949D01*
X98264520Y-87832169D01*
X98116855Y-87911097D01*
X97956630Y-87959701D01*
X97831752Y-87972000D01*
X97748248Y-87972000D01*
X97623370Y-87959701D01*
X97463145Y-87911097D01*
X97315480Y-87832169D01*
X97186051Y-87725949D01*
X97079831Y-87596520D01*
X97000903Y-87448855D01*
X96952299Y-87288630D01*
X96935888Y-87122000D01*
X96952299Y-86955370D01*
X97000903Y-86795145D01*
X97079831Y-86647480D01*
X97186051Y-86518051D01*
X97315480Y-86411831D01*
X97463145Y-86332903D01*
X97623370Y-86284299D01*
X97748248Y-86272000D01*
X97831752Y-86272000D01*
X97956630Y-86284299D01*
X97956630Y-86284299D01*
G37*
G36*
X108116630Y-86284299D02*
X108276855Y-86332903D01*
X108424520Y-86411831D01*
X108553949Y-86518051D01*
X108660169Y-86647480D01*
X108739097Y-86795145D01*
X108787701Y-86955370D01*
X108804112Y-87122000D01*
X108787701Y-87288630D01*
X108739097Y-87448855D01*
X108660169Y-87596520D01*
X108553949Y-87725949D01*
X108424520Y-87832169D01*
X108276855Y-87911097D01*
X108116630Y-87959701D01*
X107991752Y-87972000D01*
X107908248Y-87972000D01*
X107783370Y-87959701D01*
X107623145Y-87911097D01*
X107475480Y-87832169D01*
X107346051Y-87725949D01*
X107239831Y-87596520D01*
X107160903Y-87448855D01*
X107112299Y-87288630D01*
X107095888Y-87122000D01*
X107112299Y-86955370D01*
X107160903Y-86795145D01*
X107239831Y-86647480D01*
X107346051Y-86518051D01*
X107475480Y-86411831D01*
X107623145Y-86332903D01*
X107783370Y-86284299D01*
X107908248Y-86272000D01*
X107991752Y-86272000D01*
X108116630Y-86284299D01*
X108116630Y-86284299D01*
G37*
G36*
X115736630Y-86284299D02*
X115896855Y-86332903D01*
X116044520Y-86411831D01*
X116173949Y-86518051D01*
X116280169Y-86647480D01*
X116359097Y-86795145D01*
X116407701Y-86955370D01*
X116424112Y-87122000D01*
X116407701Y-87288630D01*
X116359097Y-87448855D01*
X116280169Y-87596520D01*
X116173949Y-87725949D01*
X116044520Y-87832169D01*
X115896855Y-87911097D01*
X115736630Y-87959701D01*
X115611752Y-87972000D01*
X115528248Y-87972000D01*
X115403370Y-87959701D01*
X115243145Y-87911097D01*
X115095480Y-87832169D01*
X114966051Y-87725949D01*
X114859831Y-87596520D01*
X114780903Y-87448855D01*
X114732299Y-87288630D01*
X114715888Y-87122000D01*
X114732299Y-86955370D01*
X114780903Y-86795145D01*
X114859831Y-86647480D01*
X114966051Y-86518051D01*
X115095480Y-86411831D01*
X115243145Y-86332903D01*
X115403370Y-86284299D01*
X115528248Y-86272000D01*
X115611752Y-86272000D01*
X115736630Y-86284299D01*
X115736630Y-86284299D01*
G37*
G36*
X110656630Y-86284299D02*
X110816855Y-86332903D01*
X110964520Y-86411831D01*
X111093949Y-86518051D01*
X111200169Y-86647480D01*
X111279097Y-86795145D01*
X111327701Y-86955370D01*
X111344112Y-87122000D01*
X111327701Y-87288630D01*
X111279097Y-87448855D01*
X111200169Y-87596520D01*
X111093949Y-87725949D01*
X110964520Y-87832169D01*
X110816855Y-87911097D01*
X110656630Y-87959701D01*
X110531752Y-87972000D01*
X110448248Y-87972000D01*
X110323370Y-87959701D01*
X110163145Y-87911097D01*
X110015480Y-87832169D01*
X109886051Y-87725949D01*
X109779831Y-87596520D01*
X109700903Y-87448855D01*
X109652299Y-87288630D01*
X109635888Y-87122000D01*
X109652299Y-86955370D01*
X109700903Y-86795145D01*
X109779831Y-86647480D01*
X109886051Y-86518051D01*
X110015480Y-86411831D01*
X110163145Y-86332903D01*
X110323370Y-86284299D01*
X110448248Y-86272000D01*
X110531752Y-86272000D01*
X110656630Y-86284299D01*
X110656630Y-86284299D01*
G37*
G36*
X113196630Y-86284299D02*
X113356855Y-86332903D01*
X113504520Y-86411831D01*
X113633949Y-86518051D01*
X113740169Y-86647480D01*
X113819097Y-86795145D01*
X113867701Y-86955370D01*
X113884112Y-87122000D01*
X113867701Y-87288630D01*
X113819097Y-87448855D01*
X113740169Y-87596520D01*
X113633949Y-87725949D01*
X113504520Y-87832169D01*
X113356855Y-87911097D01*
X113196630Y-87959701D01*
X113071752Y-87972000D01*
X112988248Y-87972000D01*
X112863370Y-87959701D01*
X112703145Y-87911097D01*
X112555480Y-87832169D01*
X112426051Y-87725949D01*
X112319831Y-87596520D01*
X112240903Y-87448855D01*
X112192299Y-87288630D01*
X112175888Y-87122000D01*
X112192299Y-86955370D01*
X112240903Y-86795145D01*
X112319831Y-86647480D01*
X112426051Y-86518051D01*
X112555480Y-86411831D01*
X112703145Y-86332903D01*
X112863370Y-86284299D01*
X112988248Y-86272000D01*
X113071752Y-86272000D01*
X113196630Y-86284299D01*
X113196630Y-86284299D01*
G37*
G36*
X103036630Y-86284299D02*
X103196855Y-86332903D01*
X103344520Y-86411831D01*
X103473949Y-86518051D01*
X103580169Y-86647480D01*
X103659097Y-86795145D01*
X103707701Y-86955370D01*
X103724112Y-87122000D01*
X103707701Y-87288630D01*
X103659097Y-87448855D01*
X103580169Y-87596520D01*
X103473949Y-87725949D01*
X103344520Y-87832169D01*
X103196855Y-87911097D01*
X103036630Y-87959701D01*
X102911752Y-87972000D01*
X102828248Y-87972000D01*
X102703370Y-87959701D01*
X102543145Y-87911097D01*
X102395480Y-87832169D01*
X102266051Y-87725949D01*
X102159831Y-87596520D01*
X102080903Y-87448855D01*
X102032299Y-87288630D01*
X102015888Y-87122000D01*
X102032299Y-86955370D01*
X102080903Y-86795145D01*
X102159831Y-86647480D01*
X102266051Y-86518051D01*
X102395480Y-86411831D01*
X102543145Y-86332903D01*
X102703370Y-86284299D01*
X102828248Y-86272000D01*
X102911752Y-86272000D01*
X103036630Y-86284299D01*
X103036630Y-86284299D01*
G37*
G36*
X105576630Y-86284299D02*
X105736855Y-86332903D01*
X105884520Y-86411831D01*
X106013949Y-86518051D01*
X106120169Y-86647480D01*
X106199097Y-86795145D01*
X106247701Y-86955370D01*
X106264112Y-87122000D01*
X106247701Y-87288630D01*
X106199097Y-87448855D01*
X106120169Y-87596520D01*
X106013949Y-87725949D01*
X105884520Y-87832169D01*
X105736855Y-87911097D01*
X105576630Y-87959701D01*
X105451752Y-87972000D01*
X105368248Y-87972000D01*
X105243370Y-87959701D01*
X105083145Y-87911097D01*
X104935480Y-87832169D01*
X104806051Y-87725949D01*
X104699831Y-87596520D01*
X104620903Y-87448855D01*
X104572299Y-87288630D01*
X104555888Y-87122000D01*
X104572299Y-86955370D01*
X104620903Y-86795145D01*
X104699831Y-86647480D01*
X104806051Y-86518051D01*
X104935480Y-86411831D01*
X105083145Y-86332903D01*
X105243370Y-86284299D01*
X105368248Y-86272000D01*
X105451752Y-86272000D01*
X105576630Y-86284299D01*
X105576630Y-86284299D01*
G37*
G36*
X115736630Y-83744299D02*
X115896855Y-83792903D01*
X116044520Y-83871831D01*
X116173949Y-83978051D01*
X116280169Y-84107480D01*
X116359097Y-84255145D01*
X116407701Y-84415370D01*
X116424112Y-84582000D01*
X116407701Y-84748630D01*
X116359097Y-84908855D01*
X116280169Y-85056520D01*
X116173949Y-85185949D01*
X116044520Y-85292169D01*
X115896855Y-85371097D01*
X115736630Y-85419701D01*
X115611752Y-85432000D01*
X115528248Y-85432000D01*
X115403370Y-85419701D01*
X115243145Y-85371097D01*
X115095480Y-85292169D01*
X114966051Y-85185949D01*
X114859831Y-85056520D01*
X114780903Y-84908855D01*
X114732299Y-84748630D01*
X114715888Y-84582000D01*
X114732299Y-84415370D01*
X114780903Y-84255145D01*
X114859831Y-84107480D01*
X114966051Y-83978051D01*
X115095480Y-83871831D01*
X115243145Y-83792903D01*
X115403370Y-83744299D01*
X115528248Y-83732000D01*
X115611752Y-83732000D01*
X115736630Y-83744299D01*
X115736630Y-83744299D01*
G37*
G36*
X97956630Y-83744299D02*
X98116855Y-83792903D01*
X98264520Y-83871831D01*
X98393949Y-83978051D01*
X98500169Y-84107480D01*
X98579097Y-84255145D01*
X98627701Y-84415370D01*
X98644112Y-84582000D01*
X98627701Y-84748630D01*
X98579097Y-84908855D01*
X98500169Y-85056520D01*
X98393949Y-85185949D01*
X98264520Y-85292169D01*
X98116855Y-85371097D01*
X97956630Y-85419701D01*
X97831752Y-85432000D01*
X97748248Y-85432000D01*
X97623370Y-85419701D01*
X97463145Y-85371097D01*
X97315480Y-85292169D01*
X97186051Y-85185949D01*
X97079831Y-85056520D01*
X97000903Y-84908855D01*
X96952299Y-84748630D01*
X96935888Y-84582000D01*
X96952299Y-84415370D01*
X97000903Y-84255145D01*
X97079831Y-84107480D01*
X97186051Y-83978051D01*
X97315480Y-83871831D01*
X97463145Y-83792903D01*
X97623370Y-83744299D01*
X97748248Y-83732000D01*
X97831752Y-83732000D01*
X97956630Y-83744299D01*
X97956630Y-83744299D01*
G37*
G36*
X85256630Y-83744299D02*
X85416855Y-83792903D01*
X85564520Y-83871831D01*
X85693949Y-83978051D01*
X85800169Y-84107480D01*
X85879097Y-84255145D01*
X85927701Y-84415370D01*
X85944112Y-84582000D01*
X85927701Y-84748630D01*
X85879097Y-84908855D01*
X85800169Y-85056520D01*
X85693949Y-85185949D01*
X85564520Y-85292169D01*
X85416855Y-85371097D01*
X85256630Y-85419701D01*
X85131752Y-85432000D01*
X85048248Y-85432000D01*
X84923370Y-85419701D01*
X84763145Y-85371097D01*
X84615480Y-85292169D01*
X84486051Y-85185949D01*
X84379831Y-85056520D01*
X84300903Y-84908855D01*
X84252299Y-84748630D01*
X84235888Y-84582000D01*
X84252299Y-84415370D01*
X84300903Y-84255145D01*
X84379831Y-84107480D01*
X84486051Y-83978051D01*
X84615480Y-83871831D01*
X84763145Y-83792903D01*
X84923370Y-83744299D01*
X85048248Y-83732000D01*
X85131752Y-83732000D01*
X85256630Y-83744299D01*
X85256630Y-83744299D01*
G37*
G36*
X87796630Y-83744299D02*
X87956855Y-83792903D01*
X88104520Y-83871831D01*
X88233949Y-83978051D01*
X88340169Y-84107480D01*
X88419097Y-84255145D01*
X88467701Y-84415370D01*
X88484112Y-84582000D01*
X88467701Y-84748630D01*
X88419097Y-84908855D01*
X88340169Y-85056520D01*
X88233949Y-85185949D01*
X88104520Y-85292169D01*
X87956855Y-85371097D01*
X87796630Y-85419701D01*
X87671752Y-85432000D01*
X87588248Y-85432000D01*
X87463370Y-85419701D01*
X87303145Y-85371097D01*
X87155480Y-85292169D01*
X87026051Y-85185949D01*
X86919831Y-85056520D01*
X86840903Y-84908855D01*
X86792299Y-84748630D01*
X86775888Y-84582000D01*
X86792299Y-84415370D01*
X86840903Y-84255145D01*
X86919831Y-84107480D01*
X87026051Y-83978051D01*
X87155480Y-83871831D01*
X87303145Y-83792903D01*
X87463370Y-83744299D01*
X87588248Y-83732000D01*
X87671752Y-83732000D01*
X87796630Y-83744299D01*
X87796630Y-83744299D01*
G37*
G36*
X90336630Y-83744299D02*
X90496855Y-83792903D01*
X90644520Y-83871831D01*
X90773949Y-83978051D01*
X90880169Y-84107480D01*
X90959097Y-84255145D01*
X91007701Y-84415370D01*
X91024112Y-84582000D01*
X91007701Y-84748630D01*
X90959097Y-84908855D01*
X90880169Y-85056520D01*
X90773949Y-85185949D01*
X90644520Y-85292169D01*
X90496855Y-85371097D01*
X90336630Y-85419701D01*
X90211752Y-85432000D01*
X90128248Y-85432000D01*
X90003370Y-85419701D01*
X89843145Y-85371097D01*
X89695480Y-85292169D01*
X89566051Y-85185949D01*
X89459831Y-85056520D01*
X89380903Y-84908855D01*
X89332299Y-84748630D01*
X89315888Y-84582000D01*
X89332299Y-84415370D01*
X89380903Y-84255145D01*
X89459831Y-84107480D01*
X89566051Y-83978051D01*
X89695480Y-83871831D01*
X89843145Y-83792903D01*
X90003370Y-83744299D01*
X90128248Y-83732000D01*
X90211752Y-83732000D01*
X90336630Y-83744299D01*
X90336630Y-83744299D01*
G37*
G36*
X92876630Y-83744299D02*
X93036855Y-83792903D01*
X93184520Y-83871831D01*
X93313949Y-83978051D01*
X93420169Y-84107480D01*
X93499097Y-84255145D01*
X93547701Y-84415370D01*
X93564112Y-84582000D01*
X93547701Y-84748630D01*
X93499097Y-84908855D01*
X93420169Y-85056520D01*
X93313949Y-85185949D01*
X93184520Y-85292169D01*
X93036855Y-85371097D01*
X92876630Y-85419701D01*
X92751752Y-85432000D01*
X92668248Y-85432000D01*
X92543370Y-85419701D01*
X92383145Y-85371097D01*
X92235480Y-85292169D01*
X92106051Y-85185949D01*
X91999831Y-85056520D01*
X91920903Y-84908855D01*
X91872299Y-84748630D01*
X91855888Y-84582000D01*
X91872299Y-84415370D01*
X91920903Y-84255145D01*
X91999831Y-84107480D01*
X92106051Y-83978051D01*
X92235480Y-83871831D01*
X92383145Y-83792903D01*
X92543370Y-83744299D01*
X92668248Y-83732000D01*
X92751752Y-83732000D01*
X92876630Y-83744299D01*
X92876630Y-83744299D01*
G37*
G36*
X113196630Y-83744299D02*
X113356855Y-83792903D01*
X113504520Y-83871831D01*
X113633949Y-83978051D01*
X113740169Y-84107480D01*
X113819097Y-84255145D01*
X113867701Y-84415370D01*
X113884112Y-84582000D01*
X113867701Y-84748630D01*
X113819097Y-84908855D01*
X113740169Y-85056520D01*
X113633949Y-85185949D01*
X113504520Y-85292169D01*
X113356855Y-85371097D01*
X113196630Y-85419701D01*
X113071752Y-85432000D01*
X112988248Y-85432000D01*
X112863370Y-85419701D01*
X112703145Y-85371097D01*
X112555480Y-85292169D01*
X112426051Y-85185949D01*
X112319831Y-85056520D01*
X112240903Y-84908855D01*
X112192299Y-84748630D01*
X112175888Y-84582000D01*
X112192299Y-84415370D01*
X112240903Y-84255145D01*
X112319831Y-84107480D01*
X112426051Y-83978051D01*
X112555480Y-83871831D01*
X112703145Y-83792903D01*
X112863370Y-83744299D01*
X112988248Y-83732000D01*
X113071752Y-83732000D01*
X113196630Y-83744299D01*
X113196630Y-83744299D01*
G37*
G36*
X110656630Y-83744299D02*
X110816855Y-83792903D01*
X110964520Y-83871831D01*
X111093949Y-83978051D01*
X111200169Y-84107480D01*
X111279097Y-84255145D01*
X111327701Y-84415370D01*
X111344112Y-84582000D01*
X111327701Y-84748630D01*
X111279097Y-84908855D01*
X111200169Y-85056520D01*
X111093949Y-85185949D01*
X110964520Y-85292169D01*
X110816855Y-85371097D01*
X110656630Y-85419701D01*
X110531752Y-85432000D01*
X110448248Y-85432000D01*
X110323370Y-85419701D01*
X110163145Y-85371097D01*
X110015480Y-85292169D01*
X109886051Y-85185949D01*
X109779831Y-85056520D01*
X109700903Y-84908855D01*
X109652299Y-84748630D01*
X109635888Y-84582000D01*
X109652299Y-84415370D01*
X109700903Y-84255145D01*
X109779831Y-84107480D01*
X109886051Y-83978051D01*
X110015480Y-83871831D01*
X110163145Y-83792903D01*
X110323370Y-83744299D01*
X110448248Y-83732000D01*
X110531752Y-83732000D01*
X110656630Y-83744299D01*
X110656630Y-83744299D01*
G37*
G36*
X108116630Y-83744299D02*
X108276855Y-83792903D01*
X108424520Y-83871831D01*
X108553949Y-83978051D01*
X108660169Y-84107480D01*
X108739097Y-84255145D01*
X108787701Y-84415370D01*
X108804112Y-84582000D01*
X108787701Y-84748630D01*
X108739097Y-84908855D01*
X108660169Y-85056520D01*
X108553949Y-85185949D01*
X108424520Y-85292169D01*
X108276855Y-85371097D01*
X108116630Y-85419701D01*
X107991752Y-85432000D01*
X107908248Y-85432000D01*
X107783370Y-85419701D01*
X107623145Y-85371097D01*
X107475480Y-85292169D01*
X107346051Y-85185949D01*
X107239831Y-85056520D01*
X107160903Y-84908855D01*
X107112299Y-84748630D01*
X107095888Y-84582000D01*
X107112299Y-84415370D01*
X107160903Y-84255145D01*
X107239831Y-84107480D01*
X107346051Y-83978051D01*
X107475480Y-83871831D01*
X107623145Y-83792903D01*
X107783370Y-83744299D01*
X107908248Y-83732000D01*
X107991752Y-83732000D01*
X108116630Y-83744299D01*
X108116630Y-83744299D01*
G37*
G36*
X95416630Y-83744299D02*
X95576855Y-83792903D01*
X95724520Y-83871831D01*
X95853949Y-83978051D01*
X95960169Y-84107480D01*
X96039097Y-84255145D01*
X96087701Y-84415370D01*
X96104112Y-84582000D01*
X96087701Y-84748630D01*
X96039097Y-84908855D01*
X95960169Y-85056520D01*
X95853949Y-85185949D01*
X95724520Y-85292169D01*
X95576855Y-85371097D01*
X95416630Y-85419701D01*
X95291752Y-85432000D01*
X95208248Y-85432000D01*
X95083370Y-85419701D01*
X94923145Y-85371097D01*
X94775480Y-85292169D01*
X94646051Y-85185949D01*
X94539831Y-85056520D01*
X94460903Y-84908855D01*
X94412299Y-84748630D01*
X94395888Y-84582000D01*
X94412299Y-84415370D01*
X94460903Y-84255145D01*
X94539831Y-84107480D01*
X94646051Y-83978051D01*
X94775480Y-83871831D01*
X94923145Y-83792903D01*
X95083370Y-83744299D01*
X95208248Y-83732000D01*
X95291752Y-83732000D01*
X95416630Y-83744299D01*
X95416630Y-83744299D01*
G37*
G36*
X103036630Y-83744299D02*
X103196855Y-83792903D01*
X103344520Y-83871831D01*
X103473949Y-83978051D01*
X103580169Y-84107480D01*
X103659097Y-84255145D01*
X103707701Y-84415370D01*
X103724112Y-84582000D01*
X103707701Y-84748630D01*
X103659097Y-84908855D01*
X103580169Y-85056520D01*
X103473949Y-85185949D01*
X103344520Y-85292169D01*
X103196855Y-85371097D01*
X103036630Y-85419701D01*
X102911752Y-85432000D01*
X102828248Y-85432000D01*
X102703370Y-85419701D01*
X102543145Y-85371097D01*
X102395480Y-85292169D01*
X102266051Y-85185949D01*
X102159831Y-85056520D01*
X102080903Y-84908855D01*
X102032299Y-84748630D01*
X102015888Y-84582000D01*
X102032299Y-84415370D01*
X102080903Y-84255145D01*
X102159831Y-84107480D01*
X102266051Y-83978051D01*
X102395480Y-83871831D01*
X102543145Y-83792903D01*
X102703370Y-83744299D01*
X102828248Y-83732000D01*
X102911752Y-83732000D01*
X103036630Y-83744299D01*
X103036630Y-83744299D01*
G37*
G36*
X100496630Y-83744299D02*
X100656855Y-83792903D01*
X100804520Y-83871831D01*
X100933949Y-83978051D01*
X101040169Y-84107480D01*
X101119097Y-84255145D01*
X101167701Y-84415370D01*
X101184112Y-84582000D01*
X101167701Y-84748630D01*
X101119097Y-84908855D01*
X101040169Y-85056520D01*
X100933949Y-85185949D01*
X100804520Y-85292169D01*
X100656855Y-85371097D01*
X100496630Y-85419701D01*
X100371752Y-85432000D01*
X100288248Y-85432000D01*
X100163370Y-85419701D01*
X100003145Y-85371097D01*
X99855480Y-85292169D01*
X99726051Y-85185949D01*
X99619831Y-85056520D01*
X99540903Y-84908855D01*
X99492299Y-84748630D01*
X99475888Y-84582000D01*
X99492299Y-84415370D01*
X99540903Y-84255145D01*
X99619831Y-84107480D01*
X99726051Y-83978051D01*
X99855480Y-83871831D01*
X100003145Y-83792903D01*
X100163370Y-83744299D01*
X100288248Y-83732000D01*
X100371752Y-83732000D01*
X100496630Y-83744299D01*
X100496630Y-83744299D01*
G37*
G36*
X105576630Y-83744299D02*
X105736855Y-83792903D01*
X105884520Y-83871831D01*
X106013949Y-83978051D01*
X106120169Y-84107480D01*
X106199097Y-84255145D01*
X106247701Y-84415370D01*
X106264112Y-84582000D01*
X106247701Y-84748630D01*
X106199097Y-84908855D01*
X106120169Y-85056520D01*
X106013949Y-85185949D01*
X105884520Y-85292169D01*
X105736855Y-85371097D01*
X105576630Y-85419701D01*
X105451752Y-85432000D01*
X105368248Y-85432000D01*
X105243370Y-85419701D01*
X105083145Y-85371097D01*
X104935480Y-85292169D01*
X104806051Y-85185949D01*
X104699831Y-85056520D01*
X104620903Y-84908855D01*
X104572299Y-84748630D01*
X104555888Y-84582000D01*
X104572299Y-84415370D01*
X104620903Y-84255145D01*
X104699831Y-84107480D01*
X104806051Y-83978051D01*
X104935480Y-83871831D01*
X105083145Y-83792903D01*
X105243370Y-83744299D01*
X105368248Y-83732000D01*
X105451752Y-83732000D01*
X105576630Y-83744299D01*
X105576630Y-83744299D01*
G37*
G36*
X108116630Y-81204299D02*
X108276855Y-81252903D01*
X108424520Y-81331831D01*
X108553949Y-81438051D01*
X108660169Y-81567480D01*
X108739097Y-81715145D01*
X108787701Y-81875370D01*
X108804112Y-82042000D01*
X108787701Y-82208630D01*
X108739097Y-82368855D01*
X108660169Y-82516520D01*
X108553949Y-82645949D01*
X108424520Y-82752169D01*
X108276855Y-82831097D01*
X108116630Y-82879701D01*
X107991752Y-82892000D01*
X107908248Y-82892000D01*
X107783370Y-82879701D01*
X107623145Y-82831097D01*
X107475480Y-82752169D01*
X107346051Y-82645949D01*
X107239831Y-82516520D01*
X107160903Y-82368855D01*
X107112299Y-82208630D01*
X107095888Y-82042000D01*
X107112299Y-81875370D01*
X107160903Y-81715145D01*
X107239831Y-81567480D01*
X107346051Y-81438051D01*
X107475480Y-81331831D01*
X107623145Y-81252903D01*
X107783370Y-81204299D01*
X107908248Y-81192000D01*
X107991752Y-81192000D01*
X108116630Y-81204299D01*
X108116630Y-81204299D01*
G37*
G36*
X105576630Y-81204299D02*
X105736855Y-81252903D01*
X105884520Y-81331831D01*
X106013949Y-81438051D01*
X106120169Y-81567480D01*
X106199097Y-81715145D01*
X106247701Y-81875370D01*
X106264112Y-82042000D01*
X106247701Y-82208630D01*
X106199097Y-82368855D01*
X106120169Y-82516520D01*
X106013949Y-82645949D01*
X105884520Y-82752169D01*
X105736855Y-82831097D01*
X105576630Y-82879701D01*
X105451752Y-82892000D01*
X105368248Y-82892000D01*
X105243370Y-82879701D01*
X105083145Y-82831097D01*
X104935480Y-82752169D01*
X104806051Y-82645949D01*
X104699831Y-82516520D01*
X104620903Y-82368855D01*
X104572299Y-82208630D01*
X104555888Y-82042000D01*
X104572299Y-81875370D01*
X104620903Y-81715145D01*
X104699831Y-81567480D01*
X104806051Y-81438051D01*
X104935480Y-81331831D01*
X105083145Y-81252903D01*
X105243370Y-81204299D01*
X105368248Y-81192000D01*
X105451752Y-81192000D01*
X105576630Y-81204299D01*
X105576630Y-81204299D01*
G37*
G36*
X103036630Y-81204299D02*
X103196855Y-81252903D01*
X103344520Y-81331831D01*
X103473949Y-81438051D01*
X103580169Y-81567480D01*
X103659097Y-81715145D01*
X103707701Y-81875370D01*
X103724112Y-82042000D01*
X103707701Y-82208630D01*
X103659097Y-82368855D01*
X103580169Y-82516520D01*
X103473949Y-82645949D01*
X103344520Y-82752169D01*
X103196855Y-82831097D01*
X103036630Y-82879701D01*
X102911752Y-82892000D01*
X102828248Y-82892000D01*
X102703370Y-82879701D01*
X102543145Y-82831097D01*
X102395480Y-82752169D01*
X102266051Y-82645949D01*
X102159831Y-82516520D01*
X102080903Y-82368855D01*
X102032299Y-82208630D01*
X102015888Y-82042000D01*
X102032299Y-81875370D01*
X102080903Y-81715145D01*
X102159831Y-81567480D01*
X102266051Y-81438051D01*
X102395480Y-81331831D01*
X102543145Y-81252903D01*
X102703370Y-81204299D01*
X102828248Y-81192000D01*
X102911752Y-81192000D01*
X103036630Y-81204299D01*
X103036630Y-81204299D01*
G37*
G36*
X100496630Y-81204299D02*
X100656855Y-81252903D01*
X100804520Y-81331831D01*
X100933949Y-81438051D01*
X101040169Y-81567480D01*
X101119097Y-81715145D01*
X101167701Y-81875370D01*
X101184112Y-82042000D01*
X101167701Y-82208630D01*
X101119097Y-82368855D01*
X101040169Y-82516520D01*
X100933949Y-82645949D01*
X100804520Y-82752169D01*
X100656855Y-82831097D01*
X100496630Y-82879701D01*
X100371752Y-82892000D01*
X100288248Y-82892000D01*
X100163370Y-82879701D01*
X100003145Y-82831097D01*
X99855480Y-82752169D01*
X99726051Y-82645949D01*
X99619831Y-82516520D01*
X99540903Y-82368855D01*
X99492299Y-82208630D01*
X99475888Y-82042000D01*
X99492299Y-81875370D01*
X99540903Y-81715145D01*
X99619831Y-81567480D01*
X99726051Y-81438051D01*
X99855480Y-81331831D01*
X100003145Y-81252903D01*
X100163370Y-81204299D01*
X100288248Y-81192000D01*
X100371752Y-81192000D01*
X100496630Y-81204299D01*
X100496630Y-81204299D01*
G37*
G36*
X97956630Y-81204299D02*
X98116855Y-81252903D01*
X98264520Y-81331831D01*
X98393949Y-81438051D01*
X98500169Y-81567480D01*
X98579097Y-81715145D01*
X98627701Y-81875370D01*
X98644112Y-82042000D01*
X98627701Y-82208630D01*
X98579097Y-82368855D01*
X98500169Y-82516520D01*
X98393949Y-82645949D01*
X98264520Y-82752169D01*
X98116855Y-82831097D01*
X97956630Y-82879701D01*
X97831752Y-82892000D01*
X97748248Y-82892000D01*
X97623370Y-82879701D01*
X97463145Y-82831097D01*
X97315480Y-82752169D01*
X97186051Y-82645949D01*
X97079831Y-82516520D01*
X97000903Y-82368855D01*
X96952299Y-82208630D01*
X96935888Y-82042000D01*
X96952299Y-81875370D01*
X97000903Y-81715145D01*
X97079831Y-81567480D01*
X97186051Y-81438051D01*
X97315480Y-81331831D01*
X97463145Y-81252903D01*
X97623370Y-81204299D01*
X97748248Y-81192000D01*
X97831752Y-81192000D01*
X97956630Y-81204299D01*
X97956630Y-81204299D01*
G37*
G36*
X95416630Y-81204299D02*
X95576855Y-81252903D01*
X95724520Y-81331831D01*
X95853949Y-81438051D01*
X95960169Y-81567480D01*
X96039097Y-81715145D01*
X96087701Y-81875370D01*
X96104112Y-82042000D01*
X96087701Y-82208630D01*
X96039097Y-82368855D01*
X95960169Y-82516520D01*
X95853949Y-82645949D01*
X95724520Y-82752169D01*
X95576855Y-82831097D01*
X95416630Y-82879701D01*
X95291752Y-82892000D01*
X95208248Y-82892000D01*
X95083370Y-82879701D01*
X94923145Y-82831097D01*
X94775480Y-82752169D01*
X94646051Y-82645949D01*
X94539831Y-82516520D01*
X94460903Y-82368855D01*
X94412299Y-82208630D01*
X94395888Y-82042000D01*
X94412299Y-81875370D01*
X94460903Y-81715145D01*
X94539831Y-81567480D01*
X94646051Y-81438051D01*
X94775480Y-81331831D01*
X94923145Y-81252903D01*
X95083370Y-81204299D01*
X95208248Y-81192000D01*
X95291752Y-81192000D01*
X95416630Y-81204299D01*
X95416630Y-81204299D01*
G37*
G36*
X90336630Y-81204299D02*
X90496855Y-81252903D01*
X90644520Y-81331831D01*
X90773949Y-81438051D01*
X90880169Y-81567480D01*
X90959097Y-81715145D01*
X91007701Y-81875370D01*
X91024112Y-82042000D01*
X91007701Y-82208630D01*
X90959097Y-82368855D01*
X90880169Y-82516520D01*
X90773949Y-82645949D01*
X90644520Y-82752169D01*
X90496855Y-82831097D01*
X90336630Y-82879701D01*
X90211752Y-82892000D01*
X90128248Y-82892000D01*
X90003370Y-82879701D01*
X89843145Y-82831097D01*
X89695480Y-82752169D01*
X89566051Y-82645949D01*
X89459831Y-82516520D01*
X89380903Y-82368855D01*
X89332299Y-82208630D01*
X89315888Y-82042000D01*
X89332299Y-81875370D01*
X89380903Y-81715145D01*
X89459831Y-81567480D01*
X89566051Y-81438051D01*
X89695480Y-81331831D01*
X89843145Y-81252903D01*
X90003370Y-81204299D01*
X90128248Y-81192000D01*
X90211752Y-81192000D01*
X90336630Y-81204299D01*
X90336630Y-81204299D01*
G37*
G36*
X87796630Y-81204299D02*
X87956855Y-81252903D01*
X88104520Y-81331831D01*
X88233949Y-81438051D01*
X88340169Y-81567480D01*
X88419097Y-81715145D01*
X88467701Y-81875370D01*
X88484112Y-82042000D01*
X88467701Y-82208630D01*
X88419097Y-82368855D01*
X88340169Y-82516520D01*
X88233949Y-82645949D01*
X88104520Y-82752169D01*
X87956855Y-82831097D01*
X87796630Y-82879701D01*
X87671752Y-82892000D01*
X87588248Y-82892000D01*
X87463370Y-82879701D01*
X87303145Y-82831097D01*
X87155480Y-82752169D01*
X87026051Y-82645949D01*
X86919831Y-82516520D01*
X86840903Y-82368855D01*
X86792299Y-82208630D01*
X86775888Y-82042000D01*
X86792299Y-81875370D01*
X86840903Y-81715145D01*
X86919831Y-81567480D01*
X87026051Y-81438051D01*
X87155480Y-81331831D01*
X87303145Y-81252903D01*
X87463370Y-81204299D01*
X87588248Y-81192000D01*
X87671752Y-81192000D01*
X87796630Y-81204299D01*
X87796630Y-81204299D01*
G37*
G36*
X85940000Y-82892000D02*
X84240000Y-82892000D01*
X84240000Y-81192000D01*
X85940000Y-81192000D01*
X85940000Y-82892000D01*
X85940000Y-82892000D01*
G37*
G36*
X110656630Y-81204299D02*
X110816855Y-81252903D01*
X110964520Y-81331831D01*
X111093949Y-81438051D01*
X111200169Y-81567480D01*
X111279097Y-81715145D01*
X111327701Y-81875370D01*
X111344112Y-82042000D01*
X111327701Y-82208630D01*
X111279097Y-82368855D01*
X111200169Y-82516520D01*
X111093949Y-82645949D01*
X110964520Y-82752169D01*
X110816855Y-82831097D01*
X110656630Y-82879701D01*
X110531752Y-82892000D01*
X110448248Y-82892000D01*
X110323370Y-82879701D01*
X110163145Y-82831097D01*
X110015480Y-82752169D01*
X109886051Y-82645949D01*
X109779831Y-82516520D01*
X109700903Y-82368855D01*
X109652299Y-82208630D01*
X109635888Y-82042000D01*
X109652299Y-81875370D01*
X109700903Y-81715145D01*
X109779831Y-81567480D01*
X109886051Y-81438051D01*
X110015480Y-81331831D01*
X110163145Y-81252903D01*
X110323370Y-81204299D01*
X110448248Y-81192000D01*
X110531752Y-81192000D01*
X110656630Y-81204299D01*
X110656630Y-81204299D01*
G37*
G36*
X115736630Y-81204299D02*
X115896855Y-81252903D01*
X116044520Y-81331831D01*
X116173949Y-81438051D01*
X116280169Y-81567480D01*
X116359097Y-81715145D01*
X116407701Y-81875370D01*
X116424112Y-82042000D01*
X116407701Y-82208630D01*
X116359097Y-82368855D01*
X116280169Y-82516520D01*
X116173949Y-82645949D01*
X116044520Y-82752169D01*
X115896855Y-82831097D01*
X115736630Y-82879701D01*
X115611752Y-82892000D01*
X115528248Y-82892000D01*
X115403370Y-82879701D01*
X115243145Y-82831097D01*
X115095480Y-82752169D01*
X114966051Y-82645949D01*
X114859831Y-82516520D01*
X114780903Y-82368855D01*
X114732299Y-82208630D01*
X114715888Y-82042000D01*
X114732299Y-81875370D01*
X114780903Y-81715145D01*
X114859831Y-81567480D01*
X114966051Y-81438051D01*
X115095480Y-81331831D01*
X115243145Y-81252903D01*
X115403370Y-81204299D01*
X115528248Y-81192000D01*
X115611752Y-81192000D01*
X115736630Y-81204299D01*
X115736630Y-81204299D01*
G37*
G36*
X113196630Y-81204299D02*
X113356855Y-81252903D01*
X113504520Y-81331831D01*
X113633949Y-81438051D01*
X113740169Y-81567480D01*
X113819097Y-81715145D01*
X113867701Y-81875370D01*
X113884112Y-82042000D01*
X113867701Y-82208630D01*
X113819097Y-82368855D01*
X113740169Y-82516520D01*
X113633949Y-82645949D01*
X113504520Y-82752169D01*
X113356855Y-82831097D01*
X113196630Y-82879701D01*
X113071752Y-82892000D01*
X112988248Y-82892000D01*
X112863370Y-82879701D01*
X112703145Y-82831097D01*
X112555480Y-82752169D01*
X112426051Y-82645949D01*
X112319831Y-82516520D01*
X112240903Y-82368855D01*
X112192299Y-82208630D01*
X112175888Y-82042000D01*
X112192299Y-81875370D01*
X112240903Y-81715145D01*
X112319831Y-81567480D01*
X112426051Y-81438051D01*
X112555480Y-81331831D01*
X112703145Y-81252903D01*
X112863370Y-81204299D01*
X112988248Y-81192000D01*
X113071752Y-81192000D01*
X113196630Y-81204299D01*
X113196630Y-81204299D01*
G37*
G36*
X92876630Y-81204299D02*
X93036855Y-81252903D01*
X93184520Y-81331831D01*
X93313949Y-81438051D01*
X93420169Y-81567480D01*
X93499097Y-81715145D01*
X93547701Y-81875370D01*
X93564112Y-82042000D01*
X93547701Y-82208630D01*
X93499097Y-82368855D01*
X93420169Y-82516520D01*
X93313949Y-82645949D01*
X93184520Y-82752169D01*
X93036855Y-82831097D01*
X92876630Y-82879701D01*
X92751752Y-82892000D01*
X92668248Y-82892000D01*
X92543370Y-82879701D01*
X92383145Y-82831097D01*
X92235480Y-82752169D01*
X92106051Y-82645949D01*
X91999831Y-82516520D01*
X91920903Y-82368855D01*
X91872299Y-82208630D01*
X91855888Y-82042000D01*
X91872299Y-81875370D01*
X91920903Y-81715145D01*
X91999831Y-81567480D01*
X92106051Y-81438051D01*
X92235480Y-81331831D01*
X92383145Y-81252903D01*
X92543370Y-81204299D01*
X92668248Y-81192000D01*
X92751752Y-81192000D01*
X92876630Y-81204299D01*
X92876630Y-81204299D01*
G37*
G36*
X87796630Y-78664299D02*
X87956855Y-78712903D01*
X88104520Y-78791831D01*
X88233949Y-78898051D01*
X88340169Y-79027480D01*
X88419097Y-79175145D01*
X88467701Y-79335370D01*
X88484112Y-79502000D01*
X88467701Y-79668630D01*
X88419097Y-79828855D01*
X88340169Y-79976520D01*
X88233949Y-80105949D01*
X88104520Y-80212169D01*
X87956855Y-80291097D01*
X87796630Y-80339701D01*
X87671752Y-80352000D01*
X87588248Y-80352000D01*
X87463370Y-80339701D01*
X87303145Y-80291097D01*
X87155480Y-80212169D01*
X87026051Y-80105949D01*
X86919831Y-79976520D01*
X86840903Y-79828855D01*
X86792299Y-79668630D01*
X86775888Y-79502000D01*
X86792299Y-79335370D01*
X86840903Y-79175145D01*
X86919831Y-79027480D01*
X87026051Y-78898051D01*
X87155480Y-78791831D01*
X87303145Y-78712903D01*
X87463370Y-78664299D01*
X87588248Y-78652000D01*
X87671752Y-78652000D01*
X87796630Y-78664299D01*
X87796630Y-78664299D01*
G37*
G36*
X92876630Y-78664299D02*
X93036855Y-78712903D01*
X93184520Y-78791831D01*
X93313949Y-78898051D01*
X93420169Y-79027480D01*
X93499097Y-79175145D01*
X93547701Y-79335370D01*
X93564112Y-79502000D01*
X93547701Y-79668630D01*
X93499097Y-79828855D01*
X93420169Y-79976520D01*
X93313949Y-80105949D01*
X93184520Y-80212169D01*
X93036855Y-80291097D01*
X92876630Y-80339701D01*
X92751752Y-80352000D01*
X92668248Y-80352000D01*
X92543370Y-80339701D01*
X92383145Y-80291097D01*
X92235480Y-80212169D01*
X92106051Y-80105949D01*
X91999831Y-79976520D01*
X91920903Y-79828855D01*
X91872299Y-79668630D01*
X91855888Y-79502000D01*
X91872299Y-79335370D01*
X91920903Y-79175145D01*
X91999831Y-79027480D01*
X92106051Y-78898051D01*
X92235480Y-78791831D01*
X92383145Y-78712903D01*
X92543370Y-78664299D01*
X92668248Y-78652000D01*
X92751752Y-78652000D01*
X92876630Y-78664299D01*
X92876630Y-78664299D01*
G37*
G36*
X95416630Y-78664299D02*
X95576855Y-78712903D01*
X95724520Y-78791831D01*
X95853949Y-78898051D01*
X95960169Y-79027480D01*
X96039097Y-79175145D01*
X96087701Y-79335370D01*
X96104112Y-79502000D01*
X96087701Y-79668630D01*
X96039097Y-79828855D01*
X95960169Y-79976520D01*
X95853949Y-80105949D01*
X95724520Y-80212169D01*
X95576855Y-80291097D01*
X95416630Y-80339701D01*
X95291752Y-80352000D01*
X95208248Y-80352000D01*
X95083370Y-80339701D01*
X94923145Y-80291097D01*
X94775480Y-80212169D01*
X94646051Y-80105949D01*
X94539831Y-79976520D01*
X94460903Y-79828855D01*
X94412299Y-79668630D01*
X94395888Y-79502000D01*
X94412299Y-79335370D01*
X94460903Y-79175145D01*
X94539831Y-79027480D01*
X94646051Y-78898051D01*
X94775480Y-78791831D01*
X94923145Y-78712903D01*
X95083370Y-78664299D01*
X95208248Y-78652000D01*
X95291752Y-78652000D01*
X95416630Y-78664299D01*
X95416630Y-78664299D01*
G37*
G36*
X97956630Y-78664299D02*
X98116855Y-78712903D01*
X98264520Y-78791831D01*
X98393949Y-78898051D01*
X98500169Y-79027480D01*
X98579097Y-79175145D01*
X98627701Y-79335370D01*
X98644112Y-79502000D01*
X98627701Y-79668630D01*
X98579097Y-79828855D01*
X98500169Y-79976520D01*
X98393949Y-80105949D01*
X98264520Y-80212169D01*
X98116855Y-80291097D01*
X97956630Y-80339701D01*
X97831752Y-80352000D01*
X97748248Y-80352000D01*
X97623370Y-80339701D01*
X97463145Y-80291097D01*
X97315480Y-80212169D01*
X97186051Y-80105949D01*
X97079831Y-79976520D01*
X97000903Y-79828855D01*
X96952299Y-79668630D01*
X96935888Y-79502000D01*
X96952299Y-79335370D01*
X97000903Y-79175145D01*
X97079831Y-79027480D01*
X97186051Y-78898051D01*
X97315480Y-78791831D01*
X97463145Y-78712903D01*
X97623370Y-78664299D01*
X97748248Y-78652000D01*
X97831752Y-78652000D01*
X97956630Y-78664299D01*
X97956630Y-78664299D01*
G37*
G36*
X115736630Y-78664299D02*
X115896855Y-78712903D01*
X116044520Y-78791831D01*
X116173949Y-78898051D01*
X116280169Y-79027480D01*
X116359097Y-79175145D01*
X116407701Y-79335370D01*
X116424112Y-79502000D01*
X116407701Y-79668630D01*
X116359097Y-79828855D01*
X116280169Y-79976520D01*
X116173949Y-80105949D01*
X116044520Y-80212169D01*
X115896855Y-80291097D01*
X115736630Y-80339701D01*
X115611752Y-80352000D01*
X115528248Y-80352000D01*
X115403370Y-80339701D01*
X115243145Y-80291097D01*
X115095480Y-80212169D01*
X114966051Y-80105949D01*
X114859831Y-79976520D01*
X114780903Y-79828855D01*
X114732299Y-79668630D01*
X114715888Y-79502000D01*
X114732299Y-79335370D01*
X114780903Y-79175145D01*
X114859831Y-79027480D01*
X114966051Y-78898051D01*
X115095480Y-78791831D01*
X115243145Y-78712903D01*
X115403370Y-78664299D01*
X115528248Y-78652000D01*
X115611752Y-78652000D01*
X115736630Y-78664299D01*
X115736630Y-78664299D01*
G37*
G36*
X90336630Y-78664299D02*
X90496855Y-78712903D01*
X90644520Y-78791831D01*
X90773949Y-78898051D01*
X90880169Y-79027480D01*
X90959097Y-79175145D01*
X91007701Y-79335370D01*
X91024112Y-79502000D01*
X91007701Y-79668630D01*
X90959097Y-79828855D01*
X90880169Y-79976520D01*
X90773949Y-80105949D01*
X90644520Y-80212169D01*
X90496855Y-80291097D01*
X90336630Y-80339701D01*
X90211752Y-80352000D01*
X90128248Y-80352000D01*
X90003370Y-80339701D01*
X89843145Y-80291097D01*
X89695480Y-80212169D01*
X89566051Y-80105949D01*
X89459831Y-79976520D01*
X89380903Y-79828855D01*
X89332299Y-79668630D01*
X89315888Y-79502000D01*
X89332299Y-79335370D01*
X89380903Y-79175145D01*
X89459831Y-79027480D01*
X89566051Y-78898051D01*
X89695480Y-78791831D01*
X89843145Y-78712903D01*
X90003370Y-78664299D01*
X90128248Y-78652000D01*
X90211752Y-78652000D01*
X90336630Y-78664299D01*
X90336630Y-78664299D01*
G37*
G36*
X100496630Y-78664299D02*
X100656855Y-78712903D01*
X100804520Y-78791831D01*
X100933949Y-78898051D01*
X101040169Y-79027480D01*
X101119097Y-79175145D01*
X101167701Y-79335370D01*
X101184112Y-79502000D01*
X101167701Y-79668630D01*
X101119097Y-79828855D01*
X101040169Y-79976520D01*
X100933949Y-80105949D01*
X100804520Y-80212169D01*
X100656855Y-80291097D01*
X100496630Y-80339701D01*
X100371752Y-80352000D01*
X100288248Y-80352000D01*
X100163370Y-80339701D01*
X100003145Y-80291097D01*
X99855480Y-80212169D01*
X99726051Y-80105949D01*
X99619831Y-79976520D01*
X99540903Y-79828855D01*
X99492299Y-79668630D01*
X99475888Y-79502000D01*
X99492299Y-79335370D01*
X99540903Y-79175145D01*
X99619831Y-79027480D01*
X99726051Y-78898051D01*
X99855480Y-78791831D01*
X100003145Y-78712903D01*
X100163370Y-78664299D01*
X100288248Y-78652000D01*
X100371752Y-78652000D01*
X100496630Y-78664299D01*
X100496630Y-78664299D01*
G37*
G36*
X85256630Y-78664299D02*
X85416855Y-78712903D01*
X85564520Y-78791831D01*
X85693949Y-78898051D01*
X85800169Y-79027480D01*
X85879097Y-79175145D01*
X85927701Y-79335370D01*
X85944112Y-79502000D01*
X85927701Y-79668630D01*
X85879097Y-79828855D01*
X85800169Y-79976520D01*
X85693949Y-80105949D01*
X85564520Y-80212169D01*
X85416855Y-80291097D01*
X85256630Y-80339701D01*
X85131752Y-80352000D01*
X85048248Y-80352000D01*
X84923370Y-80339701D01*
X84763145Y-80291097D01*
X84615480Y-80212169D01*
X84486051Y-80105949D01*
X84379831Y-79976520D01*
X84300903Y-79828855D01*
X84252299Y-79668630D01*
X84235888Y-79502000D01*
X84252299Y-79335370D01*
X84300903Y-79175145D01*
X84379831Y-79027480D01*
X84486051Y-78898051D01*
X84615480Y-78791831D01*
X84763145Y-78712903D01*
X84923370Y-78664299D01*
X85048248Y-78652000D01*
X85131752Y-78652000D01*
X85256630Y-78664299D01*
X85256630Y-78664299D01*
G37*
G36*
X113196630Y-78664299D02*
X113356855Y-78712903D01*
X113504520Y-78791831D01*
X113633949Y-78898051D01*
X113740169Y-79027480D01*
X113819097Y-79175145D01*
X113867701Y-79335370D01*
X113884112Y-79502000D01*
X113867701Y-79668630D01*
X113819097Y-79828855D01*
X113740169Y-79976520D01*
X113633949Y-80105949D01*
X113504520Y-80212169D01*
X113356855Y-80291097D01*
X113196630Y-80339701D01*
X113071752Y-80352000D01*
X112988248Y-80352000D01*
X112863370Y-80339701D01*
X112703145Y-80291097D01*
X112555480Y-80212169D01*
X112426051Y-80105949D01*
X112319831Y-79976520D01*
X112240903Y-79828855D01*
X112192299Y-79668630D01*
X112175888Y-79502000D01*
X112192299Y-79335370D01*
X112240903Y-79175145D01*
X112319831Y-79027480D01*
X112426051Y-78898051D01*
X112555480Y-78791831D01*
X112703145Y-78712903D01*
X112863370Y-78664299D01*
X112988248Y-78652000D01*
X113071752Y-78652000D01*
X113196630Y-78664299D01*
X113196630Y-78664299D01*
G37*
G36*
X108116630Y-78664299D02*
X108276855Y-78712903D01*
X108424520Y-78791831D01*
X108553949Y-78898051D01*
X108660169Y-79027480D01*
X108739097Y-79175145D01*
X108787701Y-79335370D01*
X108804112Y-79502000D01*
X108787701Y-79668630D01*
X108739097Y-79828855D01*
X108660169Y-79976520D01*
X108553949Y-80105949D01*
X108424520Y-80212169D01*
X108276855Y-80291097D01*
X108116630Y-80339701D01*
X107991752Y-80352000D01*
X107908248Y-80352000D01*
X107783370Y-80339701D01*
X107623145Y-80291097D01*
X107475480Y-80212169D01*
X107346051Y-80105949D01*
X107239831Y-79976520D01*
X107160903Y-79828855D01*
X107112299Y-79668630D01*
X107095888Y-79502000D01*
X107112299Y-79335370D01*
X107160903Y-79175145D01*
X107239831Y-79027480D01*
X107346051Y-78898051D01*
X107475480Y-78791831D01*
X107623145Y-78712903D01*
X107783370Y-78664299D01*
X107908248Y-78652000D01*
X107991752Y-78652000D01*
X108116630Y-78664299D01*
X108116630Y-78664299D01*
G37*
G36*
X105576630Y-78664299D02*
X105736855Y-78712903D01*
X105884520Y-78791831D01*
X106013949Y-78898051D01*
X106120169Y-79027480D01*
X106199097Y-79175145D01*
X106247701Y-79335370D01*
X106264112Y-79502000D01*
X106247701Y-79668630D01*
X106199097Y-79828855D01*
X106120169Y-79976520D01*
X106013949Y-80105949D01*
X105884520Y-80212169D01*
X105736855Y-80291097D01*
X105576630Y-80339701D01*
X105451752Y-80352000D01*
X105368248Y-80352000D01*
X105243370Y-80339701D01*
X105083145Y-80291097D01*
X104935480Y-80212169D01*
X104806051Y-80105949D01*
X104699831Y-79976520D01*
X104620903Y-79828855D01*
X104572299Y-79668630D01*
X104555888Y-79502000D01*
X104572299Y-79335370D01*
X104620903Y-79175145D01*
X104699831Y-79027480D01*
X104806051Y-78898051D01*
X104935480Y-78791831D01*
X105083145Y-78712903D01*
X105243370Y-78664299D01*
X105368248Y-78652000D01*
X105451752Y-78652000D01*
X105576630Y-78664299D01*
X105576630Y-78664299D01*
G37*
G36*
X103036630Y-78664299D02*
X103196855Y-78712903D01*
X103344520Y-78791831D01*
X103473949Y-78898051D01*
X103580169Y-79027480D01*
X103659097Y-79175145D01*
X103707701Y-79335370D01*
X103724112Y-79502000D01*
X103707701Y-79668630D01*
X103659097Y-79828855D01*
X103580169Y-79976520D01*
X103473949Y-80105949D01*
X103344520Y-80212169D01*
X103196855Y-80291097D01*
X103036630Y-80339701D01*
X102911752Y-80352000D01*
X102828248Y-80352000D01*
X102703370Y-80339701D01*
X102543145Y-80291097D01*
X102395480Y-80212169D01*
X102266051Y-80105949D01*
X102159831Y-79976520D01*
X102080903Y-79828855D01*
X102032299Y-79668630D01*
X102015888Y-79502000D01*
X102032299Y-79335370D01*
X102080903Y-79175145D01*
X102159831Y-79027480D01*
X102266051Y-78898051D01*
X102395480Y-78791831D01*
X102543145Y-78712903D01*
X102703370Y-78664299D01*
X102828248Y-78652000D01*
X102911752Y-78652000D01*
X103036630Y-78664299D01*
X103036630Y-78664299D01*
G37*
G36*
X110656630Y-78664299D02*
X110816855Y-78712903D01*
X110964520Y-78791831D01*
X111093949Y-78898051D01*
X111200169Y-79027480D01*
X111279097Y-79175145D01*
X111327701Y-79335370D01*
X111344112Y-79502000D01*
X111327701Y-79668630D01*
X111279097Y-79828855D01*
X111200169Y-79976520D01*
X111093949Y-80105949D01*
X110964520Y-80212169D01*
X110816855Y-80291097D01*
X110656630Y-80339701D01*
X110531752Y-80352000D01*
X110448248Y-80352000D01*
X110323370Y-80339701D01*
X110163145Y-80291097D01*
X110015480Y-80212169D01*
X109886051Y-80105949D01*
X109779831Y-79976520D01*
X109700903Y-79828855D01*
X109652299Y-79668630D01*
X109635888Y-79502000D01*
X109652299Y-79335370D01*
X109700903Y-79175145D01*
X109779831Y-79027480D01*
X109886051Y-78898051D01*
X110015480Y-78791831D01*
X110163145Y-78712903D01*
X110323370Y-78664299D01*
X110448248Y-78652000D01*
X110531752Y-78652000D01*
X110656630Y-78664299D01*
X110656630Y-78664299D01*
G37*
G36*
X100496630Y-76124299D02*
X100656855Y-76172903D01*
X100804520Y-76251831D01*
X100933949Y-76358051D01*
X101040169Y-76487480D01*
X101119097Y-76635145D01*
X101167701Y-76795370D01*
X101184112Y-76962000D01*
X101167701Y-77128630D01*
X101119097Y-77288855D01*
X101040169Y-77436520D01*
X100933949Y-77565949D01*
X100804520Y-77672169D01*
X100656855Y-77751097D01*
X100496630Y-77799701D01*
X100371752Y-77812000D01*
X100288248Y-77812000D01*
X100163370Y-77799701D01*
X100003145Y-77751097D01*
X99855480Y-77672169D01*
X99726051Y-77565949D01*
X99619831Y-77436520D01*
X99540903Y-77288855D01*
X99492299Y-77128630D01*
X99475888Y-76962000D01*
X99492299Y-76795370D01*
X99540903Y-76635145D01*
X99619831Y-76487480D01*
X99726051Y-76358051D01*
X99855480Y-76251831D01*
X100003145Y-76172903D01*
X100163370Y-76124299D01*
X100288248Y-76112000D01*
X100371752Y-76112000D01*
X100496630Y-76124299D01*
X100496630Y-76124299D01*
G37*
G36*
X85940000Y-77812000D02*
X84240000Y-77812000D01*
X84240000Y-76112000D01*
X85940000Y-76112000D01*
X85940000Y-77812000D01*
X85940000Y-77812000D01*
G37*
G36*
X87796630Y-76124299D02*
X87956855Y-76172903D01*
X88104520Y-76251831D01*
X88233949Y-76358051D01*
X88340169Y-76487480D01*
X88419097Y-76635145D01*
X88467701Y-76795370D01*
X88484112Y-76962000D01*
X88467701Y-77128630D01*
X88419097Y-77288855D01*
X88340169Y-77436520D01*
X88233949Y-77565949D01*
X88104520Y-77672169D01*
X87956855Y-77751097D01*
X87796630Y-77799701D01*
X87671752Y-77812000D01*
X87588248Y-77812000D01*
X87463370Y-77799701D01*
X87303145Y-77751097D01*
X87155480Y-77672169D01*
X87026051Y-77565949D01*
X86919831Y-77436520D01*
X86840903Y-77288855D01*
X86792299Y-77128630D01*
X86775888Y-76962000D01*
X86792299Y-76795370D01*
X86840903Y-76635145D01*
X86919831Y-76487480D01*
X87026051Y-76358051D01*
X87155480Y-76251831D01*
X87303145Y-76172903D01*
X87463370Y-76124299D01*
X87588248Y-76112000D01*
X87671752Y-76112000D01*
X87796630Y-76124299D01*
X87796630Y-76124299D01*
G37*
G36*
X90336630Y-76124299D02*
X90496855Y-76172903D01*
X90644520Y-76251831D01*
X90773949Y-76358051D01*
X90880169Y-76487480D01*
X90959097Y-76635145D01*
X91007701Y-76795370D01*
X91024112Y-76962000D01*
X91007701Y-77128630D01*
X90959097Y-77288855D01*
X90880169Y-77436520D01*
X90773949Y-77565949D01*
X90644520Y-77672169D01*
X90496855Y-77751097D01*
X90336630Y-77799701D01*
X90211752Y-77812000D01*
X90128248Y-77812000D01*
X90003370Y-77799701D01*
X89843145Y-77751097D01*
X89695480Y-77672169D01*
X89566051Y-77565949D01*
X89459831Y-77436520D01*
X89380903Y-77288855D01*
X89332299Y-77128630D01*
X89315888Y-76962000D01*
X89332299Y-76795370D01*
X89380903Y-76635145D01*
X89459831Y-76487480D01*
X89566051Y-76358051D01*
X89695480Y-76251831D01*
X89843145Y-76172903D01*
X90003370Y-76124299D01*
X90128248Y-76112000D01*
X90211752Y-76112000D01*
X90336630Y-76124299D01*
X90336630Y-76124299D01*
G37*
G36*
X92876630Y-76124299D02*
X93036855Y-76172903D01*
X93184520Y-76251831D01*
X93313949Y-76358051D01*
X93420169Y-76487480D01*
X93499097Y-76635145D01*
X93547701Y-76795370D01*
X93564112Y-76962000D01*
X93547701Y-77128630D01*
X93499097Y-77288855D01*
X93420169Y-77436520D01*
X93313949Y-77565949D01*
X93184520Y-77672169D01*
X93036855Y-77751097D01*
X92876630Y-77799701D01*
X92751752Y-77812000D01*
X92668248Y-77812000D01*
X92543370Y-77799701D01*
X92383145Y-77751097D01*
X92235480Y-77672169D01*
X92106051Y-77565949D01*
X91999831Y-77436520D01*
X91920903Y-77288855D01*
X91872299Y-77128630D01*
X91855888Y-76962000D01*
X91872299Y-76795370D01*
X91920903Y-76635145D01*
X91999831Y-76487480D01*
X92106051Y-76358051D01*
X92235480Y-76251831D01*
X92383145Y-76172903D01*
X92543370Y-76124299D01*
X92668248Y-76112000D01*
X92751752Y-76112000D01*
X92876630Y-76124299D01*
X92876630Y-76124299D01*
G37*
G36*
X95416630Y-76124299D02*
X95576855Y-76172903D01*
X95724520Y-76251831D01*
X95853949Y-76358051D01*
X95960169Y-76487480D01*
X96039097Y-76635145D01*
X96087701Y-76795370D01*
X96104112Y-76962000D01*
X96087701Y-77128630D01*
X96039097Y-77288855D01*
X95960169Y-77436520D01*
X95853949Y-77565949D01*
X95724520Y-77672169D01*
X95576855Y-77751097D01*
X95416630Y-77799701D01*
X95291752Y-77812000D01*
X95208248Y-77812000D01*
X95083370Y-77799701D01*
X94923145Y-77751097D01*
X94775480Y-77672169D01*
X94646051Y-77565949D01*
X94539831Y-77436520D01*
X94460903Y-77288855D01*
X94412299Y-77128630D01*
X94395888Y-76962000D01*
X94412299Y-76795370D01*
X94460903Y-76635145D01*
X94539831Y-76487480D01*
X94646051Y-76358051D01*
X94775480Y-76251831D01*
X94923145Y-76172903D01*
X95083370Y-76124299D01*
X95208248Y-76112000D01*
X95291752Y-76112000D01*
X95416630Y-76124299D01*
X95416630Y-76124299D01*
G37*
G36*
X97956630Y-76124299D02*
X98116855Y-76172903D01*
X98264520Y-76251831D01*
X98393949Y-76358051D01*
X98500169Y-76487480D01*
X98579097Y-76635145D01*
X98627701Y-76795370D01*
X98644112Y-76962000D01*
X98627701Y-77128630D01*
X98579097Y-77288855D01*
X98500169Y-77436520D01*
X98393949Y-77565949D01*
X98264520Y-77672169D01*
X98116855Y-77751097D01*
X97956630Y-77799701D01*
X97831752Y-77812000D01*
X97748248Y-77812000D01*
X97623370Y-77799701D01*
X97463145Y-77751097D01*
X97315480Y-77672169D01*
X97186051Y-77565949D01*
X97079831Y-77436520D01*
X97000903Y-77288855D01*
X96952299Y-77128630D01*
X96935888Y-76962000D01*
X96952299Y-76795370D01*
X97000903Y-76635145D01*
X97079831Y-76487480D01*
X97186051Y-76358051D01*
X97315480Y-76251831D01*
X97463145Y-76172903D01*
X97623370Y-76124299D01*
X97748248Y-76112000D01*
X97831752Y-76112000D01*
X97956630Y-76124299D01*
X97956630Y-76124299D01*
G37*
G36*
X103036630Y-76124299D02*
X103196855Y-76172903D01*
X103344520Y-76251831D01*
X103473949Y-76358051D01*
X103580169Y-76487480D01*
X103659097Y-76635145D01*
X103707701Y-76795370D01*
X103724112Y-76962000D01*
X103707701Y-77128630D01*
X103659097Y-77288855D01*
X103580169Y-77436520D01*
X103473949Y-77565949D01*
X103344520Y-77672169D01*
X103196855Y-77751097D01*
X103036630Y-77799701D01*
X102911752Y-77812000D01*
X102828248Y-77812000D01*
X102703370Y-77799701D01*
X102543145Y-77751097D01*
X102395480Y-77672169D01*
X102266051Y-77565949D01*
X102159831Y-77436520D01*
X102080903Y-77288855D01*
X102032299Y-77128630D01*
X102015888Y-76962000D01*
X102032299Y-76795370D01*
X102080903Y-76635145D01*
X102159831Y-76487480D01*
X102266051Y-76358051D01*
X102395480Y-76251831D01*
X102543145Y-76172903D01*
X102703370Y-76124299D01*
X102828248Y-76112000D01*
X102911752Y-76112000D01*
X103036630Y-76124299D01*
X103036630Y-76124299D01*
G37*
G36*
X105576630Y-76124299D02*
X105736855Y-76172903D01*
X105884520Y-76251831D01*
X106013949Y-76358051D01*
X106120169Y-76487480D01*
X106199097Y-76635145D01*
X106247701Y-76795370D01*
X106264112Y-76962000D01*
X106247701Y-77128630D01*
X106199097Y-77288855D01*
X106120169Y-77436520D01*
X106013949Y-77565949D01*
X105884520Y-77672169D01*
X105736855Y-77751097D01*
X105576630Y-77799701D01*
X105451752Y-77812000D01*
X105368248Y-77812000D01*
X105243370Y-77799701D01*
X105083145Y-77751097D01*
X104935480Y-77672169D01*
X104806051Y-77565949D01*
X104699831Y-77436520D01*
X104620903Y-77288855D01*
X104572299Y-77128630D01*
X104555888Y-76962000D01*
X104572299Y-76795370D01*
X104620903Y-76635145D01*
X104699831Y-76487480D01*
X104806051Y-76358051D01*
X104935480Y-76251831D01*
X105083145Y-76172903D01*
X105243370Y-76124299D01*
X105368248Y-76112000D01*
X105451752Y-76112000D01*
X105576630Y-76124299D01*
X105576630Y-76124299D01*
G37*
G36*
X115736630Y-76124299D02*
X115896855Y-76172903D01*
X116044520Y-76251831D01*
X116173949Y-76358051D01*
X116280169Y-76487480D01*
X116359097Y-76635145D01*
X116407701Y-76795370D01*
X116424112Y-76962000D01*
X116407701Y-77128630D01*
X116359097Y-77288855D01*
X116280169Y-77436520D01*
X116173949Y-77565949D01*
X116044520Y-77672169D01*
X115896855Y-77751097D01*
X115736630Y-77799701D01*
X115611752Y-77812000D01*
X115528248Y-77812000D01*
X115403370Y-77799701D01*
X115243145Y-77751097D01*
X115095480Y-77672169D01*
X114966051Y-77565949D01*
X114859831Y-77436520D01*
X114780903Y-77288855D01*
X114732299Y-77128630D01*
X114715888Y-76962000D01*
X114732299Y-76795370D01*
X114780903Y-76635145D01*
X114859831Y-76487480D01*
X114966051Y-76358051D01*
X115095480Y-76251831D01*
X115243145Y-76172903D01*
X115403370Y-76124299D01*
X115528248Y-76112000D01*
X115611752Y-76112000D01*
X115736630Y-76124299D01*
X115736630Y-76124299D01*
G37*
G36*
X113196630Y-76124299D02*
X113356855Y-76172903D01*
X113504520Y-76251831D01*
X113633949Y-76358051D01*
X113740169Y-76487480D01*
X113819097Y-76635145D01*
X113867701Y-76795370D01*
X113884112Y-76962000D01*
X113867701Y-77128630D01*
X113819097Y-77288855D01*
X113740169Y-77436520D01*
X113633949Y-77565949D01*
X113504520Y-77672169D01*
X113356855Y-77751097D01*
X113196630Y-77799701D01*
X113071752Y-77812000D01*
X112988248Y-77812000D01*
X112863370Y-77799701D01*
X112703145Y-77751097D01*
X112555480Y-77672169D01*
X112426051Y-77565949D01*
X112319831Y-77436520D01*
X112240903Y-77288855D01*
X112192299Y-77128630D01*
X112175888Y-76962000D01*
X112192299Y-76795370D01*
X112240903Y-76635145D01*
X112319831Y-76487480D01*
X112426051Y-76358051D01*
X112555480Y-76251831D01*
X112703145Y-76172903D01*
X112863370Y-76124299D01*
X112988248Y-76112000D01*
X113071752Y-76112000D01*
X113196630Y-76124299D01*
X113196630Y-76124299D01*
G37*
G36*
X108116630Y-76124299D02*
X108276855Y-76172903D01*
X108424520Y-76251831D01*
X108553949Y-76358051D01*
X108660169Y-76487480D01*
X108739097Y-76635145D01*
X108787701Y-76795370D01*
X108804112Y-76962000D01*
X108787701Y-77128630D01*
X108739097Y-77288855D01*
X108660169Y-77436520D01*
X108553949Y-77565949D01*
X108424520Y-77672169D01*
X108276855Y-77751097D01*
X108116630Y-77799701D01*
X107991752Y-77812000D01*
X107908248Y-77812000D01*
X107783370Y-77799701D01*
X107623145Y-77751097D01*
X107475480Y-77672169D01*
X107346051Y-77565949D01*
X107239831Y-77436520D01*
X107160903Y-77288855D01*
X107112299Y-77128630D01*
X107095888Y-76962000D01*
X107112299Y-76795370D01*
X107160903Y-76635145D01*
X107239831Y-76487480D01*
X107346051Y-76358051D01*
X107475480Y-76251831D01*
X107623145Y-76172903D01*
X107783370Y-76124299D01*
X107908248Y-76112000D01*
X107991752Y-76112000D01*
X108116630Y-76124299D01*
X108116630Y-76124299D01*
G37*
G36*
X110656630Y-76124299D02*
X110816855Y-76172903D01*
X110964520Y-76251831D01*
X111093949Y-76358051D01*
X111200169Y-76487480D01*
X111279097Y-76635145D01*
X111327701Y-76795370D01*
X111344112Y-76962000D01*
X111327701Y-77128630D01*
X111279097Y-77288855D01*
X111200169Y-77436520D01*
X111093949Y-77565949D01*
X110964520Y-77672169D01*
X110816855Y-77751097D01*
X110656630Y-77799701D01*
X110531752Y-77812000D01*
X110448248Y-77812000D01*
X110323370Y-77799701D01*
X110163145Y-77751097D01*
X110015480Y-77672169D01*
X109886051Y-77565949D01*
X109779831Y-77436520D01*
X109700903Y-77288855D01*
X109652299Y-77128630D01*
X109635888Y-76962000D01*
X109652299Y-76795370D01*
X109700903Y-76635145D01*
X109779831Y-76487480D01*
X109886051Y-76358051D01*
X110015480Y-76251831D01*
X110163145Y-76172903D01*
X110323370Y-76124299D01*
X110448248Y-76112000D01*
X110531752Y-76112000D01*
X110656630Y-76124299D01*
X110656630Y-76124299D01*
G37*
G36*
X105576630Y-73584299D02*
X105736855Y-73632903D01*
X105884520Y-73711831D01*
X106013949Y-73818051D01*
X106120169Y-73947480D01*
X106199097Y-74095145D01*
X106247701Y-74255370D01*
X106264112Y-74422000D01*
X106247701Y-74588630D01*
X106199097Y-74748855D01*
X106120169Y-74896520D01*
X106013949Y-75025949D01*
X105884520Y-75132169D01*
X105736855Y-75211097D01*
X105576630Y-75259701D01*
X105451752Y-75272000D01*
X105368248Y-75272000D01*
X105243370Y-75259701D01*
X105083145Y-75211097D01*
X104935480Y-75132169D01*
X104806051Y-75025949D01*
X104699831Y-74896520D01*
X104620903Y-74748855D01*
X104572299Y-74588630D01*
X104555888Y-74422000D01*
X104572299Y-74255370D01*
X104620903Y-74095145D01*
X104699831Y-73947480D01*
X104806051Y-73818051D01*
X104935480Y-73711831D01*
X105083145Y-73632903D01*
X105243370Y-73584299D01*
X105368248Y-73572000D01*
X105451752Y-73572000D01*
X105576630Y-73584299D01*
X105576630Y-73584299D01*
G37*
G36*
X95416630Y-73584299D02*
X95576855Y-73632903D01*
X95724520Y-73711831D01*
X95853949Y-73818051D01*
X95960169Y-73947480D01*
X96039097Y-74095145D01*
X96087701Y-74255370D01*
X96104112Y-74422000D01*
X96087701Y-74588630D01*
X96039097Y-74748855D01*
X95960169Y-74896520D01*
X95853949Y-75025949D01*
X95724520Y-75132169D01*
X95576855Y-75211097D01*
X95416630Y-75259701D01*
X95291752Y-75272000D01*
X95208248Y-75272000D01*
X95083370Y-75259701D01*
X94923145Y-75211097D01*
X94775480Y-75132169D01*
X94646051Y-75025949D01*
X94539831Y-74896520D01*
X94460903Y-74748855D01*
X94412299Y-74588630D01*
X94395888Y-74422000D01*
X94412299Y-74255370D01*
X94460903Y-74095145D01*
X94539831Y-73947480D01*
X94646051Y-73818051D01*
X94775480Y-73711831D01*
X94923145Y-73632903D01*
X95083370Y-73584299D01*
X95208248Y-73572000D01*
X95291752Y-73572000D01*
X95416630Y-73584299D01*
X95416630Y-73584299D01*
G37*
G36*
X97956630Y-73584299D02*
X98116855Y-73632903D01*
X98264520Y-73711831D01*
X98393949Y-73818051D01*
X98500169Y-73947480D01*
X98579097Y-74095145D01*
X98627701Y-74255370D01*
X98644112Y-74422000D01*
X98627701Y-74588630D01*
X98579097Y-74748855D01*
X98500169Y-74896520D01*
X98393949Y-75025949D01*
X98264520Y-75132169D01*
X98116855Y-75211097D01*
X97956630Y-75259701D01*
X97831752Y-75272000D01*
X97748248Y-75272000D01*
X97623370Y-75259701D01*
X97463145Y-75211097D01*
X97315480Y-75132169D01*
X97186051Y-75025949D01*
X97079831Y-74896520D01*
X97000903Y-74748855D01*
X96952299Y-74588630D01*
X96935888Y-74422000D01*
X96952299Y-74255370D01*
X97000903Y-74095145D01*
X97079831Y-73947480D01*
X97186051Y-73818051D01*
X97315480Y-73711831D01*
X97463145Y-73632903D01*
X97623370Y-73584299D01*
X97748248Y-73572000D01*
X97831752Y-73572000D01*
X97956630Y-73584299D01*
X97956630Y-73584299D01*
G37*
G36*
X100496630Y-73584299D02*
X100656855Y-73632903D01*
X100804520Y-73711831D01*
X100933949Y-73818051D01*
X101040169Y-73947480D01*
X101119097Y-74095145D01*
X101167701Y-74255370D01*
X101184112Y-74422000D01*
X101167701Y-74588630D01*
X101119097Y-74748855D01*
X101040169Y-74896520D01*
X100933949Y-75025949D01*
X100804520Y-75132169D01*
X100656855Y-75211097D01*
X100496630Y-75259701D01*
X100371752Y-75272000D01*
X100288248Y-75272000D01*
X100163370Y-75259701D01*
X100003145Y-75211097D01*
X99855480Y-75132169D01*
X99726051Y-75025949D01*
X99619831Y-74896520D01*
X99540903Y-74748855D01*
X99492299Y-74588630D01*
X99475888Y-74422000D01*
X99492299Y-74255370D01*
X99540903Y-74095145D01*
X99619831Y-73947480D01*
X99726051Y-73818051D01*
X99855480Y-73711831D01*
X100003145Y-73632903D01*
X100163370Y-73584299D01*
X100288248Y-73572000D01*
X100371752Y-73572000D01*
X100496630Y-73584299D01*
X100496630Y-73584299D01*
G37*
G36*
X103036630Y-73584299D02*
X103196855Y-73632903D01*
X103344520Y-73711831D01*
X103473949Y-73818051D01*
X103580169Y-73947480D01*
X103659097Y-74095145D01*
X103707701Y-74255370D01*
X103724112Y-74422000D01*
X103707701Y-74588630D01*
X103659097Y-74748855D01*
X103580169Y-74896520D01*
X103473949Y-75025949D01*
X103344520Y-75132169D01*
X103196855Y-75211097D01*
X103036630Y-75259701D01*
X102911752Y-75272000D01*
X102828248Y-75272000D01*
X102703370Y-75259701D01*
X102543145Y-75211097D01*
X102395480Y-75132169D01*
X102266051Y-75025949D01*
X102159831Y-74896520D01*
X102080903Y-74748855D01*
X102032299Y-74588630D01*
X102015888Y-74422000D01*
X102032299Y-74255370D01*
X102080903Y-74095145D01*
X102159831Y-73947480D01*
X102266051Y-73818051D01*
X102395480Y-73711831D01*
X102543145Y-73632903D01*
X102703370Y-73584299D01*
X102828248Y-73572000D01*
X102911752Y-73572000D01*
X103036630Y-73584299D01*
X103036630Y-73584299D01*
G37*
G36*
X108116630Y-73584299D02*
X108276855Y-73632903D01*
X108424520Y-73711831D01*
X108553949Y-73818051D01*
X108660169Y-73947480D01*
X108739097Y-74095145D01*
X108787701Y-74255370D01*
X108804112Y-74422000D01*
X108787701Y-74588630D01*
X108739097Y-74748855D01*
X108660169Y-74896520D01*
X108553949Y-75025949D01*
X108424520Y-75132169D01*
X108276855Y-75211097D01*
X108116630Y-75259701D01*
X107991752Y-75272000D01*
X107908248Y-75272000D01*
X107783370Y-75259701D01*
X107623145Y-75211097D01*
X107475480Y-75132169D01*
X107346051Y-75025949D01*
X107239831Y-74896520D01*
X107160903Y-74748855D01*
X107112299Y-74588630D01*
X107095888Y-74422000D01*
X107112299Y-74255370D01*
X107160903Y-74095145D01*
X107239831Y-73947480D01*
X107346051Y-73818051D01*
X107475480Y-73711831D01*
X107623145Y-73632903D01*
X107783370Y-73584299D01*
X107908248Y-73572000D01*
X107991752Y-73572000D01*
X108116630Y-73584299D01*
X108116630Y-73584299D01*
G37*
G36*
X90336630Y-73584299D02*
X90496855Y-73632903D01*
X90644520Y-73711831D01*
X90773949Y-73818051D01*
X90880169Y-73947480D01*
X90959097Y-74095145D01*
X91007701Y-74255370D01*
X91024112Y-74422000D01*
X91007701Y-74588630D01*
X90959097Y-74748855D01*
X90880169Y-74896520D01*
X90773949Y-75025949D01*
X90644520Y-75132169D01*
X90496855Y-75211097D01*
X90336630Y-75259701D01*
X90211752Y-75272000D01*
X90128248Y-75272000D01*
X90003370Y-75259701D01*
X89843145Y-75211097D01*
X89695480Y-75132169D01*
X89566051Y-75025949D01*
X89459831Y-74896520D01*
X89380903Y-74748855D01*
X89332299Y-74588630D01*
X89315888Y-74422000D01*
X89332299Y-74255370D01*
X89380903Y-74095145D01*
X89459831Y-73947480D01*
X89566051Y-73818051D01*
X89695480Y-73711831D01*
X89843145Y-73632903D01*
X90003370Y-73584299D01*
X90128248Y-73572000D01*
X90211752Y-73572000D01*
X90336630Y-73584299D01*
X90336630Y-73584299D01*
G37*
G36*
X87796630Y-73584299D02*
X87956855Y-73632903D01*
X88104520Y-73711831D01*
X88233949Y-73818051D01*
X88340169Y-73947480D01*
X88419097Y-74095145D01*
X88467701Y-74255370D01*
X88484112Y-74422000D01*
X88467701Y-74588630D01*
X88419097Y-74748855D01*
X88340169Y-74896520D01*
X88233949Y-75025949D01*
X88104520Y-75132169D01*
X87956855Y-75211097D01*
X87796630Y-75259701D01*
X87671752Y-75272000D01*
X87588248Y-75272000D01*
X87463370Y-75259701D01*
X87303145Y-75211097D01*
X87155480Y-75132169D01*
X87026051Y-75025949D01*
X86919831Y-74896520D01*
X86840903Y-74748855D01*
X86792299Y-74588630D01*
X86775888Y-74422000D01*
X86792299Y-74255370D01*
X86840903Y-74095145D01*
X86919831Y-73947480D01*
X87026051Y-73818051D01*
X87155480Y-73711831D01*
X87303145Y-73632903D01*
X87463370Y-73584299D01*
X87588248Y-73572000D01*
X87671752Y-73572000D01*
X87796630Y-73584299D01*
X87796630Y-73584299D01*
G37*
G36*
X85256630Y-73584299D02*
X85416855Y-73632903D01*
X85564520Y-73711831D01*
X85693949Y-73818051D01*
X85800169Y-73947480D01*
X85879097Y-74095145D01*
X85927701Y-74255370D01*
X85944112Y-74422000D01*
X85927701Y-74588630D01*
X85879097Y-74748855D01*
X85800169Y-74896520D01*
X85693949Y-75025949D01*
X85564520Y-75132169D01*
X85416855Y-75211097D01*
X85256630Y-75259701D01*
X85131752Y-75272000D01*
X85048248Y-75272000D01*
X84923370Y-75259701D01*
X84763145Y-75211097D01*
X84615480Y-75132169D01*
X84486051Y-75025949D01*
X84379831Y-74896520D01*
X84300903Y-74748855D01*
X84252299Y-74588630D01*
X84235888Y-74422000D01*
X84252299Y-74255370D01*
X84300903Y-74095145D01*
X84379831Y-73947480D01*
X84486051Y-73818051D01*
X84615480Y-73711831D01*
X84763145Y-73632903D01*
X84923370Y-73584299D01*
X85048248Y-73572000D01*
X85131752Y-73572000D01*
X85256630Y-73584299D01*
X85256630Y-73584299D01*
G37*
G36*
X92876630Y-73584299D02*
X93036855Y-73632903D01*
X93184520Y-73711831D01*
X93313949Y-73818051D01*
X93420169Y-73947480D01*
X93499097Y-74095145D01*
X93547701Y-74255370D01*
X93564112Y-74422000D01*
X93547701Y-74588630D01*
X93499097Y-74748855D01*
X93420169Y-74896520D01*
X93313949Y-75025949D01*
X93184520Y-75132169D01*
X93036855Y-75211097D01*
X92876630Y-75259701D01*
X92751752Y-75272000D01*
X92668248Y-75272000D01*
X92543370Y-75259701D01*
X92383145Y-75211097D01*
X92235480Y-75132169D01*
X92106051Y-75025949D01*
X91999831Y-74896520D01*
X91920903Y-74748855D01*
X91872299Y-74588630D01*
X91855888Y-74422000D01*
X91872299Y-74255370D01*
X91920903Y-74095145D01*
X91999831Y-73947480D01*
X92106051Y-73818051D01*
X92235480Y-73711831D01*
X92383145Y-73632903D01*
X92543370Y-73584299D01*
X92668248Y-73572000D01*
X92751752Y-73572000D01*
X92876630Y-73584299D01*
X92876630Y-73584299D01*
G37*
G36*
X113196630Y-73584299D02*
X113356855Y-73632903D01*
X113504520Y-73711831D01*
X113633949Y-73818051D01*
X113740169Y-73947480D01*
X113819097Y-74095145D01*
X113867701Y-74255370D01*
X113884112Y-74422000D01*
X113867701Y-74588630D01*
X113819097Y-74748855D01*
X113740169Y-74896520D01*
X113633949Y-75025949D01*
X113504520Y-75132169D01*
X113356855Y-75211097D01*
X113196630Y-75259701D01*
X113071752Y-75272000D01*
X112988248Y-75272000D01*
X112863370Y-75259701D01*
X112703145Y-75211097D01*
X112555480Y-75132169D01*
X112426051Y-75025949D01*
X112319831Y-74896520D01*
X112240903Y-74748855D01*
X112192299Y-74588630D01*
X112175888Y-74422000D01*
X112192299Y-74255370D01*
X112240903Y-74095145D01*
X112319831Y-73947480D01*
X112426051Y-73818051D01*
X112555480Y-73711831D01*
X112703145Y-73632903D01*
X112863370Y-73584299D01*
X112988248Y-73572000D01*
X113071752Y-73572000D01*
X113196630Y-73584299D01*
X113196630Y-73584299D01*
G37*
G36*
X115736630Y-73584299D02*
X115896855Y-73632903D01*
X116044520Y-73711831D01*
X116173949Y-73818051D01*
X116280169Y-73947480D01*
X116359097Y-74095145D01*
X116407701Y-74255370D01*
X116424112Y-74422000D01*
X116407701Y-74588630D01*
X116359097Y-74748855D01*
X116280169Y-74896520D01*
X116173949Y-75025949D01*
X116044520Y-75132169D01*
X115896855Y-75211097D01*
X115736630Y-75259701D01*
X115611752Y-75272000D01*
X115528248Y-75272000D01*
X115403370Y-75259701D01*
X115243145Y-75211097D01*
X115095480Y-75132169D01*
X114966051Y-75025949D01*
X114859831Y-74896520D01*
X114780903Y-74748855D01*
X114732299Y-74588630D01*
X114715888Y-74422000D01*
X114732299Y-74255370D01*
X114780903Y-74095145D01*
X114859831Y-73947480D01*
X114966051Y-73818051D01*
X115095480Y-73711831D01*
X115243145Y-73632903D01*
X115403370Y-73584299D01*
X115528248Y-73572000D01*
X115611752Y-73572000D01*
X115736630Y-73584299D01*
X115736630Y-73584299D01*
G37*
G36*
X110656630Y-73584299D02*
X110816855Y-73632903D01*
X110964520Y-73711831D01*
X111093949Y-73818051D01*
X111200169Y-73947480D01*
X111279097Y-74095145D01*
X111327701Y-74255370D01*
X111344112Y-74422000D01*
X111327701Y-74588630D01*
X111279097Y-74748855D01*
X111200169Y-74896520D01*
X111093949Y-75025949D01*
X110964520Y-75132169D01*
X110816855Y-75211097D01*
X110656630Y-75259701D01*
X110531752Y-75272000D01*
X110448248Y-75272000D01*
X110323370Y-75259701D01*
X110163145Y-75211097D01*
X110015480Y-75132169D01*
X109886051Y-75025949D01*
X109779831Y-74896520D01*
X109700903Y-74748855D01*
X109652299Y-74588630D01*
X109635888Y-74422000D01*
X109652299Y-74255370D01*
X109700903Y-74095145D01*
X109779831Y-73947480D01*
X109886051Y-73818051D01*
X110015480Y-73711831D01*
X110163145Y-73632903D01*
X110323370Y-73584299D01*
X110448248Y-73572000D01*
X110531752Y-73572000D01*
X110656630Y-73584299D01*
X110656630Y-73584299D01*
G37*
G36*
X87796630Y-71044299D02*
X87956855Y-71092903D01*
X88104520Y-71171831D01*
X88233949Y-71278051D01*
X88340169Y-71407480D01*
X88419097Y-71555145D01*
X88467701Y-71715370D01*
X88484112Y-71882000D01*
X88467701Y-72048630D01*
X88419097Y-72208855D01*
X88340169Y-72356520D01*
X88233949Y-72485949D01*
X88104520Y-72592169D01*
X87956855Y-72671097D01*
X87796630Y-72719701D01*
X87671752Y-72732000D01*
X87588248Y-72732000D01*
X87463370Y-72719701D01*
X87303145Y-72671097D01*
X87155480Y-72592169D01*
X87026051Y-72485949D01*
X86919831Y-72356520D01*
X86840903Y-72208855D01*
X86792299Y-72048630D01*
X86775888Y-71882000D01*
X86792299Y-71715370D01*
X86840903Y-71555145D01*
X86919831Y-71407480D01*
X87026051Y-71278051D01*
X87155480Y-71171831D01*
X87303145Y-71092903D01*
X87463370Y-71044299D01*
X87588248Y-71032000D01*
X87671752Y-71032000D01*
X87796630Y-71044299D01*
X87796630Y-71044299D01*
G37*
G36*
X103036630Y-71044299D02*
X103196855Y-71092903D01*
X103344520Y-71171831D01*
X103473949Y-71278051D01*
X103580169Y-71407480D01*
X103659097Y-71555145D01*
X103707701Y-71715370D01*
X103724112Y-71882000D01*
X103707701Y-72048630D01*
X103659097Y-72208855D01*
X103580169Y-72356520D01*
X103473949Y-72485949D01*
X103344520Y-72592169D01*
X103196855Y-72671097D01*
X103036630Y-72719701D01*
X102911752Y-72732000D01*
X102828248Y-72732000D01*
X102703370Y-72719701D01*
X102543145Y-72671097D01*
X102395480Y-72592169D01*
X102266051Y-72485949D01*
X102159831Y-72356520D01*
X102080903Y-72208855D01*
X102032299Y-72048630D01*
X102015888Y-71882000D01*
X102032299Y-71715370D01*
X102080903Y-71555145D01*
X102159831Y-71407480D01*
X102266051Y-71278051D01*
X102395480Y-71171831D01*
X102543145Y-71092903D01*
X102703370Y-71044299D01*
X102828248Y-71032000D01*
X102911752Y-71032000D01*
X103036630Y-71044299D01*
X103036630Y-71044299D01*
G37*
G36*
X100496630Y-71044299D02*
X100656855Y-71092903D01*
X100804520Y-71171831D01*
X100933949Y-71278051D01*
X101040169Y-71407480D01*
X101119097Y-71555145D01*
X101167701Y-71715370D01*
X101184112Y-71882000D01*
X101167701Y-72048630D01*
X101119097Y-72208855D01*
X101040169Y-72356520D01*
X100933949Y-72485949D01*
X100804520Y-72592169D01*
X100656855Y-72671097D01*
X100496630Y-72719701D01*
X100371752Y-72732000D01*
X100288248Y-72732000D01*
X100163370Y-72719701D01*
X100003145Y-72671097D01*
X99855480Y-72592169D01*
X99726051Y-72485949D01*
X99619831Y-72356520D01*
X99540903Y-72208855D01*
X99492299Y-72048630D01*
X99475888Y-71882000D01*
X99492299Y-71715370D01*
X99540903Y-71555145D01*
X99619831Y-71407480D01*
X99726051Y-71278051D01*
X99855480Y-71171831D01*
X100003145Y-71092903D01*
X100163370Y-71044299D01*
X100288248Y-71032000D01*
X100371752Y-71032000D01*
X100496630Y-71044299D01*
X100496630Y-71044299D01*
G37*
G36*
X97956630Y-71044299D02*
X98116855Y-71092903D01*
X98264520Y-71171831D01*
X98393949Y-71278051D01*
X98500169Y-71407480D01*
X98579097Y-71555145D01*
X98627701Y-71715370D01*
X98644112Y-71882000D01*
X98627701Y-72048630D01*
X98579097Y-72208855D01*
X98500169Y-72356520D01*
X98393949Y-72485949D01*
X98264520Y-72592169D01*
X98116855Y-72671097D01*
X97956630Y-72719701D01*
X97831752Y-72732000D01*
X97748248Y-72732000D01*
X97623370Y-72719701D01*
X97463145Y-72671097D01*
X97315480Y-72592169D01*
X97186051Y-72485949D01*
X97079831Y-72356520D01*
X97000903Y-72208855D01*
X96952299Y-72048630D01*
X96935888Y-71882000D01*
X96952299Y-71715370D01*
X97000903Y-71555145D01*
X97079831Y-71407480D01*
X97186051Y-71278051D01*
X97315480Y-71171831D01*
X97463145Y-71092903D01*
X97623370Y-71044299D01*
X97748248Y-71032000D01*
X97831752Y-71032000D01*
X97956630Y-71044299D01*
X97956630Y-71044299D01*
G37*
G36*
X95416630Y-71044299D02*
X95576855Y-71092903D01*
X95724520Y-71171831D01*
X95853949Y-71278051D01*
X95960169Y-71407480D01*
X96039097Y-71555145D01*
X96087701Y-71715370D01*
X96104112Y-71882000D01*
X96087701Y-72048630D01*
X96039097Y-72208855D01*
X95960169Y-72356520D01*
X95853949Y-72485949D01*
X95724520Y-72592169D01*
X95576855Y-72671097D01*
X95416630Y-72719701D01*
X95291752Y-72732000D01*
X95208248Y-72732000D01*
X95083370Y-72719701D01*
X94923145Y-72671097D01*
X94775480Y-72592169D01*
X94646051Y-72485949D01*
X94539831Y-72356520D01*
X94460903Y-72208855D01*
X94412299Y-72048630D01*
X94395888Y-71882000D01*
X94412299Y-71715370D01*
X94460903Y-71555145D01*
X94539831Y-71407480D01*
X94646051Y-71278051D01*
X94775480Y-71171831D01*
X94923145Y-71092903D01*
X95083370Y-71044299D01*
X95208248Y-71032000D01*
X95291752Y-71032000D01*
X95416630Y-71044299D01*
X95416630Y-71044299D01*
G37*
G36*
X92876630Y-71044299D02*
X93036855Y-71092903D01*
X93184520Y-71171831D01*
X93313949Y-71278051D01*
X93420169Y-71407480D01*
X93499097Y-71555145D01*
X93547701Y-71715370D01*
X93564112Y-71882000D01*
X93547701Y-72048630D01*
X93499097Y-72208855D01*
X93420169Y-72356520D01*
X93313949Y-72485949D01*
X93184520Y-72592169D01*
X93036855Y-72671097D01*
X92876630Y-72719701D01*
X92751752Y-72732000D01*
X92668248Y-72732000D01*
X92543370Y-72719701D01*
X92383145Y-72671097D01*
X92235480Y-72592169D01*
X92106051Y-72485949D01*
X91999831Y-72356520D01*
X91920903Y-72208855D01*
X91872299Y-72048630D01*
X91855888Y-71882000D01*
X91872299Y-71715370D01*
X91920903Y-71555145D01*
X91999831Y-71407480D01*
X92106051Y-71278051D01*
X92235480Y-71171831D01*
X92383145Y-71092903D01*
X92543370Y-71044299D01*
X92668248Y-71032000D01*
X92751752Y-71032000D01*
X92876630Y-71044299D01*
X92876630Y-71044299D01*
G37*
G36*
X90336630Y-71044299D02*
X90496855Y-71092903D01*
X90644520Y-71171831D01*
X90773949Y-71278051D01*
X90880169Y-71407480D01*
X90959097Y-71555145D01*
X91007701Y-71715370D01*
X91024112Y-71882000D01*
X91007701Y-72048630D01*
X90959097Y-72208855D01*
X90880169Y-72356520D01*
X90773949Y-72485949D01*
X90644520Y-72592169D01*
X90496855Y-72671097D01*
X90336630Y-72719701D01*
X90211752Y-72732000D01*
X90128248Y-72732000D01*
X90003370Y-72719701D01*
X89843145Y-72671097D01*
X89695480Y-72592169D01*
X89566051Y-72485949D01*
X89459831Y-72356520D01*
X89380903Y-72208855D01*
X89332299Y-72048630D01*
X89315888Y-71882000D01*
X89332299Y-71715370D01*
X89380903Y-71555145D01*
X89459831Y-71407480D01*
X89566051Y-71278051D01*
X89695480Y-71171831D01*
X89843145Y-71092903D01*
X90003370Y-71044299D01*
X90128248Y-71032000D01*
X90211752Y-71032000D01*
X90336630Y-71044299D01*
X90336630Y-71044299D01*
G37*
G36*
X113196630Y-71044299D02*
X113356855Y-71092903D01*
X113504520Y-71171831D01*
X113633949Y-71278051D01*
X113740169Y-71407480D01*
X113819097Y-71555145D01*
X113867701Y-71715370D01*
X113884112Y-71882000D01*
X113867701Y-72048630D01*
X113819097Y-72208855D01*
X113740169Y-72356520D01*
X113633949Y-72485949D01*
X113504520Y-72592169D01*
X113356855Y-72671097D01*
X113196630Y-72719701D01*
X113071752Y-72732000D01*
X112988248Y-72732000D01*
X112863370Y-72719701D01*
X112703145Y-72671097D01*
X112555480Y-72592169D01*
X112426051Y-72485949D01*
X112319831Y-72356520D01*
X112240903Y-72208855D01*
X112192299Y-72048630D01*
X112175888Y-71882000D01*
X112192299Y-71715370D01*
X112240903Y-71555145D01*
X112319831Y-71407480D01*
X112426051Y-71278051D01*
X112555480Y-71171831D01*
X112703145Y-71092903D01*
X112863370Y-71044299D01*
X112988248Y-71032000D01*
X113071752Y-71032000D01*
X113196630Y-71044299D01*
X113196630Y-71044299D01*
G37*
G36*
X105576630Y-71044299D02*
X105736855Y-71092903D01*
X105884520Y-71171831D01*
X106013949Y-71278051D01*
X106120169Y-71407480D01*
X106199097Y-71555145D01*
X106247701Y-71715370D01*
X106264112Y-71882000D01*
X106247701Y-72048630D01*
X106199097Y-72208855D01*
X106120169Y-72356520D01*
X106013949Y-72485949D01*
X105884520Y-72592169D01*
X105736855Y-72671097D01*
X105576630Y-72719701D01*
X105451752Y-72732000D01*
X105368248Y-72732000D01*
X105243370Y-72719701D01*
X105083145Y-72671097D01*
X104935480Y-72592169D01*
X104806051Y-72485949D01*
X104699831Y-72356520D01*
X104620903Y-72208855D01*
X104572299Y-72048630D01*
X104555888Y-71882000D01*
X104572299Y-71715370D01*
X104620903Y-71555145D01*
X104699831Y-71407480D01*
X104806051Y-71278051D01*
X104935480Y-71171831D01*
X105083145Y-71092903D01*
X105243370Y-71044299D01*
X105368248Y-71032000D01*
X105451752Y-71032000D01*
X105576630Y-71044299D01*
X105576630Y-71044299D01*
G37*
G36*
X85940000Y-72732000D02*
X84240000Y-72732000D01*
X84240000Y-71032000D01*
X85940000Y-71032000D01*
X85940000Y-72732000D01*
X85940000Y-72732000D01*
G37*
G36*
X108116630Y-71044299D02*
X108276855Y-71092903D01*
X108424520Y-71171831D01*
X108553949Y-71278051D01*
X108660169Y-71407480D01*
X108739097Y-71555145D01*
X108787701Y-71715370D01*
X108804112Y-71882000D01*
X108787701Y-72048630D01*
X108739097Y-72208855D01*
X108660169Y-72356520D01*
X108553949Y-72485949D01*
X108424520Y-72592169D01*
X108276855Y-72671097D01*
X108116630Y-72719701D01*
X107991752Y-72732000D01*
X107908248Y-72732000D01*
X107783370Y-72719701D01*
X107623145Y-72671097D01*
X107475480Y-72592169D01*
X107346051Y-72485949D01*
X107239831Y-72356520D01*
X107160903Y-72208855D01*
X107112299Y-72048630D01*
X107095888Y-71882000D01*
X107112299Y-71715370D01*
X107160903Y-71555145D01*
X107239831Y-71407480D01*
X107346051Y-71278051D01*
X107475480Y-71171831D01*
X107623145Y-71092903D01*
X107783370Y-71044299D01*
X107908248Y-71032000D01*
X107991752Y-71032000D01*
X108116630Y-71044299D01*
X108116630Y-71044299D01*
G37*
G36*
X110656630Y-71044299D02*
X110816855Y-71092903D01*
X110964520Y-71171831D01*
X111093949Y-71278051D01*
X111200169Y-71407480D01*
X111279097Y-71555145D01*
X111327701Y-71715370D01*
X111344112Y-71882000D01*
X111327701Y-72048630D01*
X111279097Y-72208855D01*
X111200169Y-72356520D01*
X111093949Y-72485949D01*
X110964520Y-72592169D01*
X110816855Y-72671097D01*
X110656630Y-72719701D01*
X110531752Y-72732000D01*
X110448248Y-72732000D01*
X110323370Y-72719701D01*
X110163145Y-72671097D01*
X110015480Y-72592169D01*
X109886051Y-72485949D01*
X109779831Y-72356520D01*
X109700903Y-72208855D01*
X109652299Y-72048630D01*
X109635888Y-71882000D01*
X109652299Y-71715370D01*
X109700903Y-71555145D01*
X109779831Y-71407480D01*
X109886051Y-71278051D01*
X110015480Y-71171831D01*
X110163145Y-71092903D01*
X110323370Y-71044299D01*
X110448248Y-71032000D01*
X110531752Y-71032000D01*
X110656630Y-71044299D01*
X110656630Y-71044299D01*
G37*
G36*
X115736630Y-71044299D02*
X115896855Y-71092903D01*
X116044520Y-71171831D01*
X116173949Y-71278051D01*
X116280169Y-71407480D01*
X116359097Y-71555145D01*
X116407701Y-71715370D01*
X116424112Y-71882000D01*
X116407701Y-72048630D01*
X116359097Y-72208855D01*
X116280169Y-72356520D01*
X116173949Y-72485949D01*
X116044520Y-72592169D01*
X115896855Y-72671097D01*
X115736630Y-72719701D01*
X115611752Y-72732000D01*
X115528248Y-72732000D01*
X115403370Y-72719701D01*
X115243145Y-72671097D01*
X115095480Y-72592169D01*
X114966051Y-72485949D01*
X114859831Y-72356520D01*
X114780903Y-72208855D01*
X114732299Y-72048630D01*
X114715888Y-71882000D01*
X114732299Y-71715370D01*
X114780903Y-71555145D01*
X114859831Y-71407480D01*
X114966051Y-71278051D01*
X115095480Y-71171831D01*
X115243145Y-71092903D01*
X115403370Y-71044299D01*
X115528248Y-71032000D01*
X115611752Y-71032000D01*
X115736630Y-71044299D01*
X115736630Y-71044299D01*
G37*
G36*
X97956630Y-68504299D02*
X98116855Y-68552903D01*
X98264520Y-68631831D01*
X98393949Y-68738051D01*
X98500169Y-68867480D01*
X98579097Y-69015145D01*
X98627701Y-69175370D01*
X98644112Y-69342000D01*
X98627701Y-69508630D01*
X98579097Y-69668855D01*
X98500169Y-69816520D01*
X98393949Y-69945949D01*
X98264520Y-70052169D01*
X98116855Y-70131097D01*
X97956630Y-70179701D01*
X97831752Y-70192000D01*
X97748248Y-70192000D01*
X97623370Y-70179701D01*
X97463145Y-70131097D01*
X97315480Y-70052169D01*
X97186051Y-69945949D01*
X97079831Y-69816520D01*
X97000903Y-69668855D01*
X96952299Y-69508630D01*
X96935888Y-69342000D01*
X96952299Y-69175370D01*
X97000903Y-69015145D01*
X97079831Y-68867480D01*
X97186051Y-68738051D01*
X97315480Y-68631831D01*
X97463145Y-68552903D01*
X97623370Y-68504299D01*
X97748248Y-68492000D01*
X97831752Y-68492000D01*
X97956630Y-68504299D01*
X97956630Y-68504299D01*
G37*
G36*
X108116630Y-68504299D02*
X108276855Y-68552903D01*
X108424520Y-68631831D01*
X108553949Y-68738051D01*
X108660169Y-68867480D01*
X108739097Y-69015145D01*
X108787701Y-69175370D01*
X108804112Y-69342000D01*
X108787701Y-69508630D01*
X108739097Y-69668855D01*
X108660169Y-69816520D01*
X108553949Y-69945949D01*
X108424520Y-70052169D01*
X108276855Y-70131097D01*
X108116630Y-70179701D01*
X107991752Y-70192000D01*
X107908248Y-70192000D01*
X107783370Y-70179701D01*
X107623145Y-70131097D01*
X107475480Y-70052169D01*
X107346051Y-69945949D01*
X107239831Y-69816520D01*
X107160903Y-69668855D01*
X107112299Y-69508630D01*
X107095888Y-69342000D01*
X107112299Y-69175370D01*
X107160903Y-69015145D01*
X107239831Y-68867480D01*
X107346051Y-68738051D01*
X107475480Y-68631831D01*
X107623145Y-68552903D01*
X107783370Y-68504299D01*
X107908248Y-68492000D01*
X107991752Y-68492000D01*
X108116630Y-68504299D01*
X108116630Y-68504299D01*
G37*
G36*
X110656630Y-68504299D02*
X110816855Y-68552903D01*
X110964520Y-68631831D01*
X111093949Y-68738051D01*
X111200169Y-68867480D01*
X111279097Y-69015145D01*
X111327701Y-69175370D01*
X111344112Y-69342000D01*
X111327701Y-69508630D01*
X111279097Y-69668855D01*
X111200169Y-69816520D01*
X111093949Y-69945949D01*
X110964520Y-70052169D01*
X110816855Y-70131097D01*
X110656630Y-70179701D01*
X110531752Y-70192000D01*
X110448248Y-70192000D01*
X110323370Y-70179701D01*
X110163145Y-70131097D01*
X110015480Y-70052169D01*
X109886051Y-69945949D01*
X109779831Y-69816520D01*
X109700903Y-69668855D01*
X109652299Y-69508630D01*
X109635888Y-69342000D01*
X109652299Y-69175370D01*
X109700903Y-69015145D01*
X109779831Y-68867480D01*
X109886051Y-68738051D01*
X110015480Y-68631831D01*
X110163145Y-68552903D01*
X110323370Y-68504299D01*
X110448248Y-68492000D01*
X110531752Y-68492000D01*
X110656630Y-68504299D01*
X110656630Y-68504299D01*
G37*
G36*
X113196630Y-68504299D02*
X113356855Y-68552903D01*
X113504520Y-68631831D01*
X113633949Y-68738051D01*
X113740169Y-68867480D01*
X113819097Y-69015145D01*
X113867701Y-69175370D01*
X113884112Y-69342000D01*
X113867701Y-69508630D01*
X113819097Y-69668855D01*
X113740169Y-69816520D01*
X113633949Y-69945949D01*
X113504520Y-70052169D01*
X113356855Y-70131097D01*
X113196630Y-70179701D01*
X113071752Y-70192000D01*
X112988248Y-70192000D01*
X112863370Y-70179701D01*
X112703145Y-70131097D01*
X112555480Y-70052169D01*
X112426051Y-69945949D01*
X112319831Y-69816520D01*
X112240903Y-69668855D01*
X112192299Y-69508630D01*
X112175888Y-69342000D01*
X112192299Y-69175370D01*
X112240903Y-69015145D01*
X112319831Y-68867480D01*
X112426051Y-68738051D01*
X112555480Y-68631831D01*
X112703145Y-68552903D01*
X112863370Y-68504299D01*
X112988248Y-68492000D01*
X113071752Y-68492000D01*
X113196630Y-68504299D01*
X113196630Y-68504299D01*
G37*
G36*
X115736630Y-68504299D02*
X115896855Y-68552903D01*
X116044520Y-68631831D01*
X116173949Y-68738051D01*
X116280169Y-68867480D01*
X116359097Y-69015145D01*
X116407701Y-69175370D01*
X116424112Y-69342000D01*
X116407701Y-69508630D01*
X116359097Y-69668855D01*
X116280169Y-69816520D01*
X116173949Y-69945949D01*
X116044520Y-70052169D01*
X115896855Y-70131097D01*
X115736630Y-70179701D01*
X115611752Y-70192000D01*
X115528248Y-70192000D01*
X115403370Y-70179701D01*
X115243145Y-70131097D01*
X115095480Y-70052169D01*
X114966051Y-69945949D01*
X114859831Y-69816520D01*
X114780903Y-69668855D01*
X114732299Y-69508630D01*
X114715888Y-69342000D01*
X114732299Y-69175370D01*
X114780903Y-69015145D01*
X114859831Y-68867480D01*
X114966051Y-68738051D01*
X115095480Y-68631831D01*
X115243145Y-68552903D01*
X115403370Y-68504299D01*
X115528248Y-68492000D01*
X115611752Y-68492000D01*
X115736630Y-68504299D01*
X115736630Y-68504299D01*
G37*
G36*
X103036630Y-68504299D02*
X103196855Y-68552903D01*
X103344520Y-68631831D01*
X103473949Y-68738051D01*
X103580169Y-68867480D01*
X103659097Y-69015145D01*
X103707701Y-69175370D01*
X103724112Y-69342000D01*
X103707701Y-69508630D01*
X103659097Y-69668855D01*
X103580169Y-69816520D01*
X103473949Y-69945949D01*
X103344520Y-70052169D01*
X103196855Y-70131097D01*
X103036630Y-70179701D01*
X102911752Y-70192000D01*
X102828248Y-70192000D01*
X102703370Y-70179701D01*
X102543145Y-70131097D01*
X102395480Y-70052169D01*
X102266051Y-69945949D01*
X102159831Y-69816520D01*
X102080903Y-69668855D01*
X102032299Y-69508630D01*
X102015888Y-69342000D01*
X102032299Y-69175370D01*
X102080903Y-69015145D01*
X102159831Y-68867480D01*
X102266051Y-68738051D01*
X102395480Y-68631831D01*
X102543145Y-68552903D01*
X102703370Y-68504299D01*
X102828248Y-68492000D01*
X102911752Y-68492000D01*
X103036630Y-68504299D01*
X103036630Y-68504299D01*
G37*
G36*
X100496630Y-68504299D02*
X100656855Y-68552903D01*
X100804520Y-68631831D01*
X100933949Y-68738051D01*
X101040169Y-68867480D01*
X101119097Y-69015145D01*
X101167701Y-69175370D01*
X101184112Y-69342000D01*
X101167701Y-69508630D01*
X101119097Y-69668855D01*
X101040169Y-69816520D01*
X100933949Y-69945949D01*
X100804520Y-70052169D01*
X100656855Y-70131097D01*
X100496630Y-70179701D01*
X100371752Y-70192000D01*
X100288248Y-70192000D01*
X100163370Y-70179701D01*
X100003145Y-70131097D01*
X99855480Y-70052169D01*
X99726051Y-69945949D01*
X99619831Y-69816520D01*
X99540903Y-69668855D01*
X99492299Y-69508630D01*
X99475888Y-69342000D01*
X99492299Y-69175370D01*
X99540903Y-69015145D01*
X99619831Y-68867480D01*
X99726051Y-68738051D01*
X99855480Y-68631831D01*
X100003145Y-68552903D01*
X100163370Y-68504299D01*
X100288248Y-68492000D01*
X100371752Y-68492000D01*
X100496630Y-68504299D01*
X100496630Y-68504299D01*
G37*
G36*
X85256630Y-68504299D02*
X85416855Y-68552903D01*
X85564520Y-68631831D01*
X85693949Y-68738051D01*
X85800169Y-68867480D01*
X85879097Y-69015145D01*
X85927701Y-69175370D01*
X85944112Y-69342000D01*
X85927701Y-69508630D01*
X85879097Y-69668855D01*
X85800169Y-69816520D01*
X85693949Y-69945949D01*
X85564520Y-70052169D01*
X85416855Y-70131097D01*
X85256630Y-70179701D01*
X85131752Y-70192000D01*
X85048248Y-70192000D01*
X84923370Y-70179701D01*
X84763145Y-70131097D01*
X84615480Y-70052169D01*
X84486051Y-69945949D01*
X84379831Y-69816520D01*
X84300903Y-69668855D01*
X84252299Y-69508630D01*
X84235888Y-69342000D01*
X84252299Y-69175370D01*
X84300903Y-69015145D01*
X84379831Y-68867480D01*
X84486051Y-68738051D01*
X84615480Y-68631831D01*
X84763145Y-68552903D01*
X84923370Y-68504299D01*
X85048248Y-68492000D01*
X85131752Y-68492000D01*
X85256630Y-68504299D01*
X85256630Y-68504299D01*
G37*
G36*
X95416630Y-68504299D02*
X95576855Y-68552903D01*
X95724520Y-68631831D01*
X95853949Y-68738051D01*
X95960169Y-68867480D01*
X96039097Y-69015145D01*
X96087701Y-69175370D01*
X96104112Y-69342000D01*
X96087701Y-69508630D01*
X96039097Y-69668855D01*
X95960169Y-69816520D01*
X95853949Y-69945949D01*
X95724520Y-70052169D01*
X95576855Y-70131097D01*
X95416630Y-70179701D01*
X95291752Y-70192000D01*
X95208248Y-70192000D01*
X95083370Y-70179701D01*
X94923145Y-70131097D01*
X94775480Y-70052169D01*
X94646051Y-69945949D01*
X94539831Y-69816520D01*
X94460903Y-69668855D01*
X94412299Y-69508630D01*
X94395888Y-69342000D01*
X94412299Y-69175370D01*
X94460903Y-69015145D01*
X94539831Y-68867480D01*
X94646051Y-68738051D01*
X94775480Y-68631831D01*
X94923145Y-68552903D01*
X95083370Y-68504299D01*
X95208248Y-68492000D01*
X95291752Y-68492000D01*
X95416630Y-68504299D01*
X95416630Y-68504299D01*
G37*
G36*
X92876630Y-68504299D02*
X93036855Y-68552903D01*
X93184520Y-68631831D01*
X93313949Y-68738051D01*
X93420169Y-68867480D01*
X93499097Y-69015145D01*
X93547701Y-69175370D01*
X93564112Y-69342000D01*
X93547701Y-69508630D01*
X93499097Y-69668855D01*
X93420169Y-69816520D01*
X93313949Y-69945949D01*
X93184520Y-70052169D01*
X93036855Y-70131097D01*
X92876630Y-70179701D01*
X92751752Y-70192000D01*
X92668248Y-70192000D01*
X92543370Y-70179701D01*
X92383145Y-70131097D01*
X92235480Y-70052169D01*
X92106051Y-69945949D01*
X91999831Y-69816520D01*
X91920903Y-69668855D01*
X91872299Y-69508630D01*
X91855888Y-69342000D01*
X91872299Y-69175370D01*
X91920903Y-69015145D01*
X91999831Y-68867480D01*
X92106051Y-68738051D01*
X92235480Y-68631831D01*
X92383145Y-68552903D01*
X92543370Y-68504299D01*
X92668248Y-68492000D01*
X92751752Y-68492000D01*
X92876630Y-68504299D01*
X92876630Y-68504299D01*
G37*
G36*
X105576630Y-68504299D02*
X105736855Y-68552903D01*
X105884520Y-68631831D01*
X106013949Y-68738051D01*
X106120169Y-68867480D01*
X106199097Y-69015145D01*
X106247701Y-69175370D01*
X106264112Y-69342000D01*
X106247701Y-69508630D01*
X106199097Y-69668855D01*
X106120169Y-69816520D01*
X106013949Y-69945949D01*
X105884520Y-70052169D01*
X105736855Y-70131097D01*
X105576630Y-70179701D01*
X105451752Y-70192000D01*
X105368248Y-70192000D01*
X105243370Y-70179701D01*
X105083145Y-70131097D01*
X104935480Y-70052169D01*
X104806051Y-69945949D01*
X104699831Y-69816520D01*
X104620903Y-69668855D01*
X104572299Y-69508630D01*
X104555888Y-69342000D01*
X104572299Y-69175370D01*
X104620903Y-69015145D01*
X104699831Y-68867480D01*
X104806051Y-68738051D01*
X104935480Y-68631831D01*
X105083145Y-68552903D01*
X105243370Y-68504299D01*
X105368248Y-68492000D01*
X105451752Y-68492000D01*
X105576630Y-68504299D01*
X105576630Y-68504299D01*
G37*
G36*
X90336630Y-68504299D02*
X90496855Y-68552903D01*
X90644520Y-68631831D01*
X90773949Y-68738051D01*
X90880169Y-68867480D01*
X90959097Y-69015145D01*
X91007701Y-69175370D01*
X91024112Y-69342000D01*
X91007701Y-69508630D01*
X90959097Y-69668855D01*
X90880169Y-69816520D01*
X90773949Y-69945949D01*
X90644520Y-70052169D01*
X90496855Y-70131097D01*
X90336630Y-70179701D01*
X90211752Y-70192000D01*
X90128248Y-70192000D01*
X90003370Y-70179701D01*
X89843145Y-70131097D01*
X89695480Y-70052169D01*
X89566051Y-69945949D01*
X89459831Y-69816520D01*
X89380903Y-69668855D01*
X89332299Y-69508630D01*
X89315888Y-69342000D01*
X89332299Y-69175370D01*
X89380903Y-69015145D01*
X89459831Y-68867480D01*
X89566051Y-68738051D01*
X89695480Y-68631831D01*
X89843145Y-68552903D01*
X90003370Y-68504299D01*
X90128248Y-68492000D01*
X90211752Y-68492000D01*
X90336630Y-68504299D01*
X90336630Y-68504299D01*
G37*
G36*
X87796630Y-68504299D02*
X87956855Y-68552903D01*
X88104520Y-68631831D01*
X88233949Y-68738051D01*
X88340169Y-68867480D01*
X88419097Y-69015145D01*
X88467701Y-69175370D01*
X88484112Y-69342000D01*
X88467701Y-69508630D01*
X88419097Y-69668855D01*
X88340169Y-69816520D01*
X88233949Y-69945949D01*
X88104520Y-70052169D01*
X87956855Y-70131097D01*
X87796630Y-70179701D01*
X87671752Y-70192000D01*
X87588248Y-70192000D01*
X87463370Y-70179701D01*
X87303145Y-70131097D01*
X87155480Y-70052169D01*
X87026051Y-69945949D01*
X86919831Y-69816520D01*
X86840903Y-69668855D01*
X86792299Y-69508630D01*
X86775888Y-69342000D01*
X86792299Y-69175370D01*
X86840903Y-69015145D01*
X86919831Y-68867480D01*
X87026051Y-68738051D01*
X87155480Y-68631831D01*
X87303145Y-68552903D01*
X87463370Y-68504299D01*
X87588248Y-68492000D01*
X87671752Y-68492000D01*
X87796630Y-68504299D01*
X87796630Y-68504299D01*
G37*
G36*
X97956630Y-65964299D02*
X98116855Y-66012903D01*
X98264520Y-66091831D01*
X98393949Y-66198051D01*
X98500169Y-66327480D01*
X98579097Y-66475145D01*
X98627701Y-66635370D01*
X98644112Y-66802000D01*
X98627701Y-66968630D01*
X98579097Y-67128855D01*
X98500169Y-67276520D01*
X98393949Y-67405949D01*
X98264520Y-67512169D01*
X98116855Y-67591097D01*
X97956630Y-67639701D01*
X97831752Y-67652000D01*
X97748248Y-67652000D01*
X97623370Y-67639701D01*
X97463145Y-67591097D01*
X97315480Y-67512169D01*
X97186051Y-67405949D01*
X97079831Y-67276520D01*
X97000903Y-67128855D01*
X96952299Y-66968630D01*
X96935888Y-66802000D01*
X96952299Y-66635370D01*
X97000903Y-66475145D01*
X97079831Y-66327480D01*
X97186051Y-66198051D01*
X97315480Y-66091831D01*
X97463145Y-66012903D01*
X97623370Y-65964299D01*
X97748248Y-65952000D01*
X97831752Y-65952000D01*
X97956630Y-65964299D01*
X97956630Y-65964299D01*
G37*
G36*
X95416630Y-65964299D02*
X95576855Y-66012903D01*
X95724520Y-66091831D01*
X95853949Y-66198051D01*
X95960169Y-66327480D01*
X96039097Y-66475145D01*
X96087701Y-66635370D01*
X96104112Y-66802000D01*
X96087701Y-66968630D01*
X96039097Y-67128855D01*
X95960169Y-67276520D01*
X95853949Y-67405949D01*
X95724520Y-67512169D01*
X95576855Y-67591097D01*
X95416630Y-67639701D01*
X95291752Y-67652000D01*
X95208248Y-67652000D01*
X95083370Y-67639701D01*
X94923145Y-67591097D01*
X94775480Y-67512169D01*
X94646051Y-67405949D01*
X94539831Y-67276520D01*
X94460903Y-67128855D01*
X94412299Y-66968630D01*
X94395888Y-66802000D01*
X94412299Y-66635370D01*
X94460903Y-66475145D01*
X94539831Y-66327480D01*
X94646051Y-66198051D01*
X94775480Y-66091831D01*
X94923145Y-66012903D01*
X95083370Y-65964299D01*
X95208248Y-65952000D01*
X95291752Y-65952000D01*
X95416630Y-65964299D01*
X95416630Y-65964299D01*
G37*
G36*
X100496630Y-65964299D02*
X100656855Y-66012903D01*
X100804520Y-66091831D01*
X100933949Y-66198051D01*
X101040169Y-66327480D01*
X101119097Y-66475145D01*
X101167701Y-66635370D01*
X101184112Y-66802000D01*
X101167701Y-66968630D01*
X101119097Y-67128855D01*
X101040169Y-67276520D01*
X100933949Y-67405949D01*
X100804520Y-67512169D01*
X100656855Y-67591097D01*
X100496630Y-67639701D01*
X100371752Y-67652000D01*
X100288248Y-67652000D01*
X100163370Y-67639701D01*
X100003145Y-67591097D01*
X99855480Y-67512169D01*
X99726051Y-67405949D01*
X99619831Y-67276520D01*
X99540903Y-67128855D01*
X99492299Y-66968630D01*
X99475888Y-66802000D01*
X99492299Y-66635370D01*
X99540903Y-66475145D01*
X99619831Y-66327480D01*
X99726051Y-66198051D01*
X99855480Y-66091831D01*
X100003145Y-66012903D01*
X100163370Y-65964299D01*
X100288248Y-65952000D01*
X100371752Y-65952000D01*
X100496630Y-65964299D01*
X100496630Y-65964299D01*
G37*
G36*
X105576630Y-65964299D02*
X105736855Y-66012903D01*
X105884520Y-66091831D01*
X106013949Y-66198051D01*
X106120169Y-66327480D01*
X106199097Y-66475145D01*
X106247701Y-66635370D01*
X106264112Y-66802000D01*
X106247701Y-66968630D01*
X106199097Y-67128855D01*
X106120169Y-67276520D01*
X106013949Y-67405949D01*
X105884520Y-67512169D01*
X105736855Y-67591097D01*
X105576630Y-67639701D01*
X105451752Y-67652000D01*
X105368248Y-67652000D01*
X105243370Y-67639701D01*
X105083145Y-67591097D01*
X104935480Y-67512169D01*
X104806051Y-67405949D01*
X104699831Y-67276520D01*
X104620903Y-67128855D01*
X104572299Y-66968630D01*
X104555888Y-66802000D01*
X104572299Y-66635370D01*
X104620903Y-66475145D01*
X104699831Y-66327480D01*
X104806051Y-66198051D01*
X104935480Y-66091831D01*
X105083145Y-66012903D01*
X105243370Y-65964299D01*
X105368248Y-65952000D01*
X105451752Y-65952000D01*
X105576630Y-65964299D01*
X105576630Y-65964299D01*
G37*
G36*
X108116630Y-65964299D02*
X108276855Y-66012903D01*
X108424520Y-66091831D01*
X108553949Y-66198051D01*
X108660169Y-66327480D01*
X108739097Y-66475145D01*
X108787701Y-66635370D01*
X108804112Y-66802000D01*
X108787701Y-66968630D01*
X108739097Y-67128855D01*
X108660169Y-67276520D01*
X108553949Y-67405949D01*
X108424520Y-67512169D01*
X108276855Y-67591097D01*
X108116630Y-67639701D01*
X107991752Y-67652000D01*
X107908248Y-67652000D01*
X107783370Y-67639701D01*
X107623145Y-67591097D01*
X107475480Y-67512169D01*
X107346051Y-67405949D01*
X107239831Y-67276520D01*
X107160903Y-67128855D01*
X107112299Y-66968630D01*
X107095888Y-66802000D01*
X107112299Y-66635370D01*
X107160903Y-66475145D01*
X107239831Y-66327480D01*
X107346051Y-66198051D01*
X107475480Y-66091831D01*
X107623145Y-66012903D01*
X107783370Y-65964299D01*
X107908248Y-65952000D01*
X107991752Y-65952000D01*
X108116630Y-65964299D01*
X108116630Y-65964299D01*
G37*
G36*
X93560000Y-67652000D02*
X91860000Y-67652000D01*
X91860000Y-65952000D01*
X93560000Y-65952000D01*
X93560000Y-67652000D01*
X93560000Y-67652000D01*
G37*
G36*
X103036630Y-65964299D02*
X103196855Y-66012903D01*
X103344520Y-66091831D01*
X103473949Y-66198051D01*
X103580169Y-66327480D01*
X103659097Y-66475145D01*
X103707701Y-66635370D01*
X103724112Y-66802000D01*
X103707701Y-66968630D01*
X103659097Y-67128855D01*
X103580169Y-67276520D01*
X103473949Y-67405949D01*
X103344520Y-67512169D01*
X103196855Y-67591097D01*
X103036630Y-67639701D01*
X102911752Y-67652000D01*
X102828248Y-67652000D01*
X102703370Y-67639701D01*
X102543145Y-67591097D01*
X102395480Y-67512169D01*
X102266051Y-67405949D01*
X102159831Y-67276520D01*
X102080903Y-67128855D01*
X102032299Y-66968630D01*
X102015888Y-66802000D01*
X102032299Y-66635370D01*
X102080903Y-66475145D01*
X102159831Y-66327480D01*
X102266051Y-66198051D01*
X102395480Y-66091831D01*
X102543145Y-66012903D01*
X102703370Y-65964299D01*
X102828248Y-65952000D01*
X102911752Y-65952000D01*
X103036630Y-65964299D01*
X103036630Y-65964299D01*
G37*
G36*
X103036630Y-63424299D02*
X103196855Y-63472903D01*
X103344520Y-63551831D01*
X103473949Y-63658051D01*
X103580169Y-63787480D01*
X103659097Y-63935145D01*
X103707701Y-64095370D01*
X103724112Y-64262000D01*
X103707701Y-64428630D01*
X103659097Y-64588855D01*
X103580169Y-64736520D01*
X103473949Y-64865949D01*
X103344520Y-64972169D01*
X103196855Y-65051097D01*
X103036630Y-65099701D01*
X102911752Y-65112000D01*
X102828248Y-65112000D01*
X102703370Y-65099701D01*
X102543145Y-65051097D01*
X102395480Y-64972169D01*
X102266051Y-64865949D01*
X102159831Y-64736520D01*
X102080903Y-64588855D01*
X102032299Y-64428630D01*
X102015888Y-64262000D01*
X102032299Y-64095370D01*
X102080903Y-63935145D01*
X102159831Y-63787480D01*
X102266051Y-63658051D01*
X102395480Y-63551831D01*
X102543145Y-63472903D01*
X102703370Y-63424299D01*
X102828248Y-63412000D01*
X102911752Y-63412000D01*
X103036630Y-63424299D01*
X103036630Y-63424299D01*
G37*
G36*
X108116630Y-63424299D02*
X108276855Y-63472903D01*
X108424520Y-63551831D01*
X108553949Y-63658051D01*
X108660169Y-63787480D01*
X108739097Y-63935145D01*
X108787701Y-64095370D01*
X108804112Y-64262000D01*
X108787701Y-64428630D01*
X108739097Y-64588855D01*
X108660169Y-64736520D01*
X108553949Y-64865949D01*
X108424520Y-64972169D01*
X108276855Y-65051097D01*
X108116630Y-65099701D01*
X107991752Y-65112000D01*
X107908248Y-65112000D01*
X107783370Y-65099701D01*
X107623145Y-65051097D01*
X107475480Y-64972169D01*
X107346051Y-64865949D01*
X107239831Y-64736520D01*
X107160903Y-64588855D01*
X107112299Y-64428630D01*
X107095888Y-64262000D01*
X107112299Y-64095370D01*
X107160903Y-63935145D01*
X107239831Y-63787480D01*
X107346051Y-63658051D01*
X107475480Y-63551831D01*
X107623145Y-63472903D01*
X107783370Y-63424299D01*
X107908248Y-63412000D01*
X107991752Y-63412000D01*
X108116630Y-63424299D01*
X108116630Y-63424299D01*
G37*
G36*
X105576630Y-63424299D02*
X105736855Y-63472903D01*
X105884520Y-63551831D01*
X106013949Y-63658051D01*
X106120169Y-63787480D01*
X106199097Y-63935145D01*
X106247701Y-64095370D01*
X106264112Y-64262000D01*
X106247701Y-64428630D01*
X106199097Y-64588855D01*
X106120169Y-64736520D01*
X106013949Y-64865949D01*
X105884520Y-64972169D01*
X105736855Y-65051097D01*
X105576630Y-65099701D01*
X105451752Y-65112000D01*
X105368248Y-65112000D01*
X105243370Y-65099701D01*
X105083145Y-65051097D01*
X104935480Y-64972169D01*
X104806051Y-64865949D01*
X104699831Y-64736520D01*
X104620903Y-64588855D01*
X104572299Y-64428630D01*
X104555888Y-64262000D01*
X104572299Y-64095370D01*
X104620903Y-63935145D01*
X104699831Y-63787480D01*
X104806051Y-63658051D01*
X104935480Y-63551831D01*
X105083145Y-63472903D01*
X105243370Y-63424299D01*
X105368248Y-63412000D01*
X105451752Y-63412000D01*
X105576630Y-63424299D01*
X105576630Y-63424299D01*
G37*
G36*
X100496630Y-63424299D02*
X100656855Y-63472903D01*
X100804520Y-63551831D01*
X100933949Y-63658051D01*
X101040169Y-63787480D01*
X101119097Y-63935145D01*
X101167701Y-64095370D01*
X101184112Y-64262000D01*
X101167701Y-64428630D01*
X101119097Y-64588855D01*
X101040169Y-64736520D01*
X100933949Y-64865949D01*
X100804520Y-64972169D01*
X100656855Y-65051097D01*
X100496630Y-65099701D01*
X100371752Y-65112000D01*
X100288248Y-65112000D01*
X100163370Y-65099701D01*
X100003145Y-65051097D01*
X99855480Y-64972169D01*
X99726051Y-64865949D01*
X99619831Y-64736520D01*
X99540903Y-64588855D01*
X99492299Y-64428630D01*
X99475888Y-64262000D01*
X99492299Y-64095370D01*
X99540903Y-63935145D01*
X99619831Y-63787480D01*
X99726051Y-63658051D01*
X99855480Y-63551831D01*
X100003145Y-63472903D01*
X100163370Y-63424299D01*
X100288248Y-63412000D01*
X100371752Y-63412000D01*
X100496630Y-63424299D01*
X100496630Y-63424299D01*
G37*
G36*
X97956630Y-63424299D02*
X98116855Y-63472903D01*
X98264520Y-63551831D01*
X98393949Y-63658051D01*
X98500169Y-63787480D01*
X98579097Y-63935145D01*
X98627701Y-64095370D01*
X98644112Y-64262000D01*
X98627701Y-64428630D01*
X98579097Y-64588855D01*
X98500169Y-64736520D01*
X98393949Y-64865949D01*
X98264520Y-64972169D01*
X98116855Y-65051097D01*
X97956630Y-65099701D01*
X97831752Y-65112000D01*
X97748248Y-65112000D01*
X97623370Y-65099701D01*
X97463145Y-65051097D01*
X97315480Y-64972169D01*
X97186051Y-64865949D01*
X97079831Y-64736520D01*
X97000903Y-64588855D01*
X96952299Y-64428630D01*
X96935888Y-64262000D01*
X96952299Y-64095370D01*
X97000903Y-63935145D01*
X97079831Y-63787480D01*
X97186051Y-63658051D01*
X97315480Y-63551831D01*
X97463145Y-63472903D01*
X97623370Y-63424299D01*
X97748248Y-63412000D01*
X97831752Y-63412000D01*
X97956630Y-63424299D01*
X97956630Y-63424299D01*
G37*
G36*
X95416630Y-63424299D02*
X95576855Y-63472903D01*
X95724520Y-63551831D01*
X95853949Y-63658051D01*
X95960169Y-63787480D01*
X96039097Y-63935145D01*
X96087701Y-64095370D01*
X96104112Y-64262000D01*
X96087701Y-64428630D01*
X96039097Y-64588855D01*
X95960169Y-64736520D01*
X95853949Y-64865949D01*
X95724520Y-64972169D01*
X95576855Y-65051097D01*
X95416630Y-65099701D01*
X95291752Y-65112000D01*
X95208248Y-65112000D01*
X95083370Y-65099701D01*
X94923145Y-65051097D01*
X94775480Y-64972169D01*
X94646051Y-64865949D01*
X94539831Y-64736520D01*
X94460903Y-64588855D01*
X94412299Y-64428630D01*
X94395888Y-64262000D01*
X94412299Y-64095370D01*
X94460903Y-63935145D01*
X94539831Y-63787480D01*
X94646051Y-63658051D01*
X94775480Y-63551831D01*
X94923145Y-63472903D01*
X95083370Y-63424299D01*
X95208248Y-63412000D01*
X95291752Y-63412000D01*
X95416630Y-63424299D01*
X95416630Y-63424299D01*
G37*
G36*
X92876630Y-63424299D02*
X93036855Y-63472903D01*
X93184520Y-63551831D01*
X93313949Y-63658051D01*
X93420169Y-63787480D01*
X93499097Y-63935145D01*
X93547701Y-64095370D01*
X93564112Y-64262000D01*
X93547701Y-64428630D01*
X93499097Y-64588855D01*
X93420169Y-64736520D01*
X93313949Y-64865949D01*
X93184520Y-64972169D01*
X93036855Y-65051097D01*
X92876630Y-65099701D01*
X92751752Y-65112000D01*
X92668248Y-65112000D01*
X92543370Y-65099701D01*
X92383145Y-65051097D01*
X92235480Y-64972169D01*
X92106051Y-64865949D01*
X91999831Y-64736520D01*
X91920903Y-64588855D01*
X91872299Y-64428630D01*
X91855888Y-64262000D01*
X91872299Y-64095370D01*
X91920903Y-63935145D01*
X91999831Y-63787480D01*
X92106051Y-63658051D01*
X92235480Y-63551831D01*
X92383145Y-63472903D01*
X92543370Y-63424299D01*
X92668248Y-63412000D01*
X92751752Y-63412000D01*
X92876630Y-63424299D01*
X92876630Y-63424299D01*
G37*
G36*
X88287203Y-61313786D02*
X88578383Y-61434397D01*
X88840444Y-61609501D01*
X89063299Y-61832356D01*
X89238403Y-62094417D01*
X89359014Y-62385597D01*
X89420500Y-62694712D01*
X89420500Y-63009888D01*
X89359014Y-63319003D01*
X89238403Y-63610183D01*
X89063299Y-63872244D01*
X88840444Y-64095099D01*
X88578383Y-64270203D01*
X88287203Y-64390814D01*
X87978088Y-64452300D01*
X87662912Y-64452300D01*
X87353797Y-64390814D01*
X87062617Y-64270203D01*
X86800556Y-64095099D01*
X86577701Y-63872244D01*
X86402597Y-63610183D01*
X86281986Y-63319003D01*
X86220500Y-63009888D01*
X86220500Y-62694712D01*
X86281986Y-62385597D01*
X86402597Y-62094417D01*
X86577701Y-61832356D01*
X86800556Y-61609501D01*
X87062617Y-61434397D01*
X87353797Y-61313786D01*
X87662912Y-61252300D01*
X87978088Y-61252300D01*
X88287203Y-61313786D01*
X88287203Y-61313786D01*
G37*
G36*
X112493403Y-61110586D02*
X112784583Y-61231197D01*
X113046644Y-61406301D01*
X113269499Y-61629156D01*
X113444603Y-61891217D01*
X113565214Y-62182397D01*
X113626700Y-62491512D01*
X113626700Y-62806688D01*
X113565214Y-63115803D01*
X113444603Y-63406983D01*
X113269499Y-63669044D01*
X113046644Y-63891899D01*
X112784583Y-64067003D01*
X112493403Y-64187614D01*
X112184288Y-64249100D01*
X111869112Y-64249100D01*
X111559997Y-64187614D01*
X111268817Y-64067003D01*
X111006756Y-63891899D01*
X110783901Y-63669044D01*
X110608797Y-63406983D01*
X110488186Y-63115803D01*
X110426700Y-62806688D01*
X110426700Y-62491512D01*
X110488186Y-62182397D01*
X110608797Y-61891217D01*
X110783901Y-61629156D01*
X111006756Y-61406301D01*
X111268817Y-61231197D01*
X111559997Y-61110586D01*
X111869112Y-61049100D01*
X112184288Y-61049100D01*
X112493403Y-61110586D01*
X112493403Y-61110586D01*
G37*
G36*
X103036630Y-60884299D02*
X103196855Y-60932903D01*
X103344520Y-61011831D01*
X103473949Y-61118051D01*
X103580169Y-61247480D01*
X103659097Y-61395145D01*
X103707701Y-61555370D01*
X103724112Y-61722000D01*
X103707701Y-61888630D01*
X103659097Y-62048855D01*
X103580169Y-62196520D01*
X103473949Y-62325949D01*
X103344520Y-62432169D01*
X103196855Y-62511097D01*
X103036630Y-62559701D01*
X102911752Y-62572000D01*
X102828248Y-62572000D01*
X102703370Y-62559701D01*
X102543145Y-62511097D01*
X102395480Y-62432169D01*
X102266051Y-62325949D01*
X102159831Y-62196520D01*
X102080903Y-62048855D01*
X102032299Y-61888630D01*
X102015888Y-61722000D01*
X102032299Y-61555370D01*
X102080903Y-61395145D01*
X102159831Y-61247480D01*
X102266051Y-61118051D01*
X102395480Y-61011831D01*
X102543145Y-60932903D01*
X102703370Y-60884299D01*
X102828248Y-60872000D01*
X102911752Y-60872000D01*
X103036630Y-60884299D01*
X103036630Y-60884299D01*
G37*
G36*
X93560000Y-62572000D02*
X91860000Y-62572000D01*
X91860000Y-60872000D01*
X93560000Y-60872000D01*
X93560000Y-62572000D01*
X93560000Y-62572000D01*
G37*
G36*
X95416630Y-60884299D02*
X95576855Y-60932903D01*
X95724520Y-61011831D01*
X95853949Y-61118051D01*
X95960169Y-61247480D01*
X96039097Y-61395145D01*
X96087701Y-61555370D01*
X96104112Y-61722000D01*
X96087701Y-61888630D01*
X96039097Y-62048855D01*
X95960169Y-62196520D01*
X95853949Y-62325949D01*
X95724520Y-62432169D01*
X95576855Y-62511097D01*
X95416630Y-62559701D01*
X95291752Y-62572000D01*
X95208248Y-62572000D01*
X95083370Y-62559701D01*
X94923145Y-62511097D01*
X94775480Y-62432169D01*
X94646051Y-62325949D01*
X94539831Y-62196520D01*
X94460903Y-62048855D01*
X94412299Y-61888630D01*
X94395888Y-61722000D01*
X94412299Y-61555370D01*
X94460903Y-61395145D01*
X94539831Y-61247480D01*
X94646051Y-61118051D01*
X94775480Y-61011831D01*
X94923145Y-60932903D01*
X95083370Y-60884299D01*
X95208248Y-60872000D01*
X95291752Y-60872000D01*
X95416630Y-60884299D01*
X95416630Y-60884299D01*
G37*
G36*
X97956630Y-60884299D02*
X98116855Y-60932903D01*
X98264520Y-61011831D01*
X98393949Y-61118051D01*
X98500169Y-61247480D01*
X98579097Y-61395145D01*
X98627701Y-61555370D01*
X98644112Y-61722000D01*
X98627701Y-61888630D01*
X98579097Y-62048855D01*
X98500169Y-62196520D01*
X98393949Y-62325949D01*
X98264520Y-62432169D01*
X98116855Y-62511097D01*
X97956630Y-62559701D01*
X97831752Y-62572000D01*
X97748248Y-62572000D01*
X97623370Y-62559701D01*
X97463145Y-62511097D01*
X97315480Y-62432169D01*
X97186051Y-62325949D01*
X97079831Y-62196520D01*
X97000903Y-62048855D01*
X96952299Y-61888630D01*
X96935888Y-61722000D01*
X96952299Y-61555370D01*
X97000903Y-61395145D01*
X97079831Y-61247480D01*
X97186051Y-61118051D01*
X97315480Y-61011831D01*
X97463145Y-60932903D01*
X97623370Y-60884299D01*
X97748248Y-60872000D01*
X97831752Y-60872000D01*
X97956630Y-60884299D01*
X97956630Y-60884299D01*
G37*
G36*
X100496630Y-60884299D02*
X100656855Y-60932903D01*
X100804520Y-61011831D01*
X100933949Y-61118051D01*
X101040169Y-61247480D01*
X101119097Y-61395145D01*
X101167701Y-61555370D01*
X101184112Y-61722000D01*
X101167701Y-61888630D01*
X101119097Y-62048855D01*
X101040169Y-62196520D01*
X100933949Y-62325949D01*
X100804520Y-62432169D01*
X100656855Y-62511097D01*
X100496630Y-62559701D01*
X100371752Y-62572000D01*
X100288248Y-62572000D01*
X100163370Y-62559701D01*
X100003145Y-62511097D01*
X99855480Y-62432169D01*
X99726051Y-62325949D01*
X99619831Y-62196520D01*
X99540903Y-62048855D01*
X99492299Y-61888630D01*
X99475888Y-61722000D01*
X99492299Y-61555370D01*
X99540903Y-61395145D01*
X99619831Y-61247480D01*
X99726051Y-61118051D01*
X99855480Y-61011831D01*
X100003145Y-60932903D01*
X100163370Y-60884299D01*
X100288248Y-60872000D01*
X100371752Y-60872000D01*
X100496630Y-60884299D01*
X100496630Y-60884299D01*
G37*
G36*
X108116630Y-60884299D02*
X108276855Y-60932903D01*
X108424520Y-61011831D01*
X108553949Y-61118051D01*
X108660169Y-61247480D01*
X108739097Y-61395145D01*
X108787701Y-61555370D01*
X108804112Y-61722000D01*
X108787701Y-61888630D01*
X108739097Y-62048855D01*
X108660169Y-62196520D01*
X108553949Y-62325949D01*
X108424520Y-62432169D01*
X108276855Y-62511097D01*
X108116630Y-62559701D01*
X107991752Y-62572000D01*
X107908248Y-62572000D01*
X107783370Y-62559701D01*
X107623145Y-62511097D01*
X107475480Y-62432169D01*
X107346051Y-62325949D01*
X107239831Y-62196520D01*
X107160903Y-62048855D01*
X107112299Y-61888630D01*
X107095888Y-61722000D01*
X107112299Y-61555370D01*
X107160903Y-61395145D01*
X107239831Y-61247480D01*
X107346051Y-61118051D01*
X107475480Y-61011831D01*
X107623145Y-60932903D01*
X107783370Y-60884299D01*
X107908248Y-60872000D01*
X107991752Y-60872000D01*
X108116630Y-60884299D01*
X108116630Y-60884299D01*
G37*
G36*
X105576630Y-60884299D02*
X105736855Y-60932903D01*
X105884520Y-61011831D01*
X106013949Y-61118051D01*
X106120169Y-61247480D01*
X106199097Y-61395145D01*
X106247701Y-61555370D01*
X106264112Y-61722000D01*
X106247701Y-61888630D01*
X106199097Y-62048855D01*
X106120169Y-62196520D01*
X106013949Y-62325949D01*
X105884520Y-62432169D01*
X105736855Y-62511097D01*
X105576630Y-62559701D01*
X105451752Y-62572000D01*
X105368248Y-62572000D01*
X105243370Y-62559701D01*
X105083145Y-62511097D01*
X104935480Y-62432169D01*
X104806051Y-62325949D01*
X104699831Y-62196520D01*
X104620903Y-62048855D01*
X104572299Y-61888630D01*
X104555888Y-61722000D01*
X104572299Y-61555370D01*
X104620903Y-61395145D01*
X104699831Y-61247480D01*
X104806051Y-61118051D01*
X104935480Y-61011831D01*
X105083145Y-60932903D01*
X105243370Y-60884299D01*
X105368248Y-60872000D01*
X105451752Y-60872000D01*
X105576630Y-60884299D01*
X105576630Y-60884299D01*
G37*
G36*
X100496630Y-58344299D02*
X100656855Y-58392903D01*
X100804520Y-58471831D01*
X100933949Y-58578051D01*
X101040169Y-58707480D01*
X101119097Y-58855145D01*
X101167701Y-59015370D01*
X101184112Y-59182000D01*
X101167701Y-59348630D01*
X101119097Y-59508855D01*
X101040169Y-59656520D01*
X100933949Y-59785949D01*
X100804520Y-59892169D01*
X100656855Y-59971097D01*
X100496630Y-60019701D01*
X100371752Y-60032000D01*
X100288248Y-60032000D01*
X100163370Y-60019701D01*
X100003145Y-59971097D01*
X99855480Y-59892169D01*
X99726051Y-59785949D01*
X99619831Y-59656520D01*
X99540903Y-59508855D01*
X99492299Y-59348630D01*
X99475888Y-59182000D01*
X99492299Y-59015370D01*
X99540903Y-58855145D01*
X99619831Y-58707480D01*
X99726051Y-58578051D01*
X99855480Y-58471831D01*
X100003145Y-58392903D01*
X100163370Y-58344299D01*
X100288248Y-58332000D01*
X100371752Y-58332000D01*
X100496630Y-58344299D01*
X100496630Y-58344299D01*
G37*
G36*
X105576630Y-58344299D02*
X105736855Y-58392903D01*
X105884520Y-58471831D01*
X106013949Y-58578051D01*
X106120169Y-58707480D01*
X106199097Y-58855145D01*
X106247701Y-59015370D01*
X106264112Y-59182000D01*
X106247701Y-59348630D01*
X106199097Y-59508855D01*
X106120169Y-59656520D01*
X106013949Y-59785949D01*
X105884520Y-59892169D01*
X105736855Y-59971097D01*
X105576630Y-60019701D01*
X105451752Y-60032000D01*
X105368248Y-60032000D01*
X105243370Y-60019701D01*
X105083145Y-59971097D01*
X104935480Y-59892169D01*
X104806051Y-59785949D01*
X104699831Y-59656520D01*
X104620903Y-59508855D01*
X104572299Y-59348630D01*
X104555888Y-59182000D01*
X104572299Y-59015370D01*
X104620903Y-58855145D01*
X104699831Y-58707480D01*
X104806051Y-58578051D01*
X104935480Y-58471831D01*
X105083145Y-58392903D01*
X105243370Y-58344299D01*
X105368248Y-58332000D01*
X105451752Y-58332000D01*
X105576630Y-58344299D01*
X105576630Y-58344299D01*
G37*
G36*
X103036630Y-58344299D02*
X103196855Y-58392903D01*
X103344520Y-58471831D01*
X103473949Y-58578051D01*
X103580169Y-58707480D01*
X103659097Y-58855145D01*
X103707701Y-59015370D01*
X103724112Y-59182000D01*
X103707701Y-59348630D01*
X103659097Y-59508855D01*
X103580169Y-59656520D01*
X103473949Y-59785949D01*
X103344520Y-59892169D01*
X103196855Y-59971097D01*
X103036630Y-60019701D01*
X102911752Y-60032000D01*
X102828248Y-60032000D01*
X102703370Y-60019701D01*
X102543145Y-59971097D01*
X102395480Y-59892169D01*
X102266051Y-59785949D01*
X102159831Y-59656520D01*
X102080903Y-59508855D01*
X102032299Y-59348630D01*
X102015888Y-59182000D01*
X102032299Y-59015370D01*
X102080903Y-58855145D01*
X102159831Y-58707480D01*
X102266051Y-58578051D01*
X102395480Y-58471831D01*
X102543145Y-58392903D01*
X102703370Y-58344299D01*
X102828248Y-58332000D01*
X102911752Y-58332000D01*
X103036630Y-58344299D01*
X103036630Y-58344299D01*
G37*
G36*
X92876630Y-58344299D02*
X93036855Y-58392903D01*
X93184520Y-58471831D01*
X93313949Y-58578051D01*
X93420169Y-58707480D01*
X93499097Y-58855145D01*
X93547701Y-59015370D01*
X93564112Y-59182000D01*
X93547701Y-59348630D01*
X93499097Y-59508855D01*
X93420169Y-59656520D01*
X93313949Y-59785949D01*
X93184520Y-59892169D01*
X93036855Y-59971097D01*
X92876630Y-60019701D01*
X92751752Y-60032000D01*
X92668248Y-60032000D01*
X92543370Y-60019701D01*
X92383145Y-59971097D01*
X92235480Y-59892169D01*
X92106051Y-59785949D01*
X91999831Y-59656520D01*
X91920903Y-59508855D01*
X91872299Y-59348630D01*
X91855888Y-59182000D01*
X91872299Y-59015370D01*
X91920903Y-58855145D01*
X91999831Y-58707480D01*
X92106051Y-58578051D01*
X92235480Y-58471831D01*
X92383145Y-58392903D01*
X92543370Y-58344299D01*
X92668248Y-58332000D01*
X92751752Y-58332000D01*
X92876630Y-58344299D01*
X92876630Y-58344299D01*
G37*
G36*
X95416630Y-58344299D02*
X95576855Y-58392903D01*
X95724520Y-58471831D01*
X95853949Y-58578051D01*
X95960169Y-58707480D01*
X96039097Y-58855145D01*
X96087701Y-59015370D01*
X96104112Y-59182000D01*
X96087701Y-59348630D01*
X96039097Y-59508855D01*
X95960169Y-59656520D01*
X95853949Y-59785949D01*
X95724520Y-59892169D01*
X95576855Y-59971097D01*
X95416630Y-60019701D01*
X95291752Y-60032000D01*
X95208248Y-60032000D01*
X95083370Y-60019701D01*
X94923145Y-59971097D01*
X94775480Y-59892169D01*
X94646051Y-59785949D01*
X94539831Y-59656520D01*
X94460903Y-59508855D01*
X94412299Y-59348630D01*
X94395888Y-59182000D01*
X94412299Y-59015370D01*
X94460903Y-58855145D01*
X94539831Y-58707480D01*
X94646051Y-58578051D01*
X94775480Y-58471831D01*
X94923145Y-58392903D01*
X95083370Y-58344299D01*
X95208248Y-58332000D01*
X95291752Y-58332000D01*
X95416630Y-58344299D01*
X95416630Y-58344299D01*
G37*
G36*
X97956630Y-58344299D02*
X98116855Y-58392903D01*
X98264520Y-58471831D01*
X98393949Y-58578051D01*
X98500169Y-58707480D01*
X98579097Y-58855145D01*
X98627701Y-59015370D01*
X98644112Y-59182000D01*
X98627701Y-59348630D01*
X98579097Y-59508855D01*
X98500169Y-59656520D01*
X98393949Y-59785949D01*
X98264520Y-59892169D01*
X98116855Y-59971097D01*
X97956630Y-60019701D01*
X97831752Y-60032000D01*
X97748248Y-60032000D01*
X97623370Y-60019701D01*
X97463145Y-59971097D01*
X97315480Y-59892169D01*
X97186051Y-59785949D01*
X97079831Y-59656520D01*
X97000903Y-59508855D01*
X96952299Y-59348630D01*
X96935888Y-59182000D01*
X96952299Y-59015370D01*
X97000903Y-58855145D01*
X97079831Y-58707480D01*
X97186051Y-58578051D01*
X97315480Y-58471831D01*
X97463145Y-58392903D01*
X97623370Y-58344299D01*
X97748248Y-58332000D01*
X97831752Y-58332000D01*
X97956630Y-58344299D01*
X97956630Y-58344299D01*
G37*
G36*
X108116630Y-58344299D02*
X108276855Y-58392903D01*
X108424520Y-58471831D01*
X108553949Y-58578051D01*
X108660169Y-58707480D01*
X108739097Y-58855145D01*
X108787701Y-59015370D01*
X108804112Y-59182000D01*
X108787701Y-59348630D01*
X108739097Y-59508855D01*
X108660169Y-59656520D01*
X108553949Y-59785949D01*
X108424520Y-59892169D01*
X108276855Y-59971097D01*
X108116630Y-60019701D01*
X107991752Y-60032000D01*
X107908248Y-60032000D01*
X107783370Y-60019701D01*
X107623145Y-59971097D01*
X107475480Y-59892169D01*
X107346051Y-59785949D01*
X107239831Y-59656520D01*
X107160903Y-59508855D01*
X107112299Y-59348630D01*
X107095888Y-59182000D01*
X107112299Y-59015370D01*
X107160903Y-58855145D01*
X107239831Y-58707480D01*
X107346051Y-58578051D01*
X107475480Y-58471831D01*
X107623145Y-58392903D01*
X107783370Y-58344299D01*
X107908248Y-58332000D01*
X107991752Y-58332000D01*
X108116630Y-58344299D01*
X108116630Y-58344299D01*
G37*
M02*
