M48
;DRILL file {KiCad 5.0.1-33cea8e~68~ubuntu14.04.1} date Wed 21 Nov 2018 06:59:13 PM PST
;FORMAT={-:-/ absolute / inch / decimal}
FMAT,2
INCH,TZ
T1C0.0157
T2C0.0300
T3C0.0354
T4C0.0394
T5C0.1024
T6C0.1260
%
G90
G05
M72
T1
X4.9177Y-4.5419
X4.9817Y-4.5472
X5.02Y-4.98
X5.02Y-5.28
X5.024Y-5.726
X5.0453Y-4.5563
X5.1Y-5.2
X5.12Y-5.06
X5.12Y-5.28
X5.12Y-5.73
X5.13Y-4.9879
X5.1471Y-4.5192
X5.1584Y-4.6614
X5.1783Y-4.2724
X5.1811Y-4.5866
X5.2099Y-4.2058
X5.2175Y-4.3107
X5.22Y-4.99
X5.22Y-5.28
X5.22Y-5.73
X5.2618Y-6.0472
X5.2621Y-4.3637
X5.2635Y-4.01
X5.2635Y-4.1281
X5.2719Y-4.2059
X5.28Y-4.28
X5.287Y-4.82
X5.29Y-4.76
X5.2982Y-4.5639
X5.3Y-4.89
X5.32Y-4.98
X5.32Y-5.28
X5.32Y-5.73
X5.3232Y-4.2696
X5.33Y-4.52
X5.3389Y-4.4816
X5.35Y-4.1691
X5.3893Y-4.8209
X5.42Y-4.06
X5.42Y-4.98
X5.42Y-5.28
X5.42Y-5.73
X5.4262Y-4.5932
X5.4587Y-4.4772
X5.4732Y-4.4161
X5.4807Y-4.7374
X5.4823Y-4.8917
X5.5027Y-4.5525
X5.51Y-4.61
X5.52Y-4.98
X5.52Y-5.28
X5.52Y-5.73
X5.5286Y-4.8192
X5.5774Y-4.21
X5.62Y-4.98
X5.62Y-5.28
X5.62Y-5.73
X5.6364Y-4.7786
X5.6367Y-4.8206
X5.6681Y-4.5893
X5.6809Y-4.2517
X5.72Y-4.98
X5.72Y-5.28
X5.72Y-5.73
X5.72Y-5.43
X5.7266Y-4.4649
X5.7441Y-3.8996
X5.7776Y-4.3583
X5.7886Y-4.4649
X5.7919Y-4.7027
X5.7969Y-4.781
X5.84Y-4.95
X6.0295Y-4.3307
X6.08Y-4.31
T2
X5.24Y-5.53
X5.34Y-5.13
X5.34Y-5.53
X5.44Y-5.13
X5.54Y-5.13
X5.54Y-5.53
X5.64Y-5.13
X5.64Y-5.53
X5.74Y-5.13
X5.84Y-5.13
X5.94Y-5.13
X5.94Y-5.53
T3
X5.91Y-4.0631
X6.01Y-4.0631
T4
X5.27Y-3.74
X5.27Y-3.84
X5.37Y-3.74
X5.37Y-3.84
X5.47Y-3.74
X5.47Y-3.84
X5.57Y-3.74
X5.57Y-3.84
X5.67Y-3.74
X5.67Y-3.84
X5.77Y-3.74
X5.77Y-3.84
X5.87Y-3.74
X5.87Y-3.84
X5.44Y-6.03
X5.44Y-6.6009
X5.5384Y-6.03
X5.6369Y-6.03
X5.6369Y-6.6009
T5
X5.318Y-6.3253
X5.7589Y-6.3253
T6
X5.04Y-3.81
X5.04Y-6.56
X6.09Y-3.81
X6.09Y-6.56
T0
M30
