G04 #@! TF.GenerationSoftware,KiCad,Pcbnew,5.0.0-fee4fd1~66~ubuntu14.04.1*
G04 #@! TF.CreationDate,2018-10-15T23:56:10-07:00*
G04 #@! TF.ProjectId,delay,64656C61792E6B696361645F70636200,rev?*
G04 #@! TF.SameCoordinates,Original*
G04 #@! TF.FileFunction,Copper,L1,Top,Signal*
G04 #@! TF.FilePolarity,Positive*
%FSLAX46Y46*%
G04 Gerber Fmt 4.6, Leading zero omitted, Abs format (unit mm)*
G04 Created by KiCad (PCBNEW 5.0.0-fee4fd1~66~ubuntu14.04.1) date Mon Oct 15 23:56:10 2018*
%MOMM*%
%LPD*%
G01*
G04 APERTURE LIST*
G04 #@! TA.AperFunction,ComponentPad*
%ADD10R,1.600000X1.600000*%
G04 #@! TD*
G04 #@! TA.AperFunction,ComponentPad*
%ADD11O,1.600000X1.600000*%
G04 #@! TD*
G04 #@! TA.AperFunction,ComponentPad*
%ADD12C,1.524000*%
G04 #@! TD*
G04 #@! TA.AperFunction,ComponentPad*
%ADD13R,1.700000X1.700000*%
G04 #@! TD*
G04 #@! TA.AperFunction,ComponentPad*
%ADD14O,1.700000X1.700000*%
G04 #@! TD*
G04 #@! TA.AperFunction,ComponentPad*
%ADD15C,1.600000*%
G04 #@! TD*
G04 #@! TA.AperFunction,ComponentPad*
%ADD16R,1.800000X1.800000*%
G04 #@! TD*
G04 #@! TA.AperFunction,ComponentPad*
%ADD17C,1.800000*%
G04 #@! TD*
G04 #@! TA.AperFunction,ComponentPad*
%ADD18C,2.000000*%
G04 #@! TD*
G04 #@! TA.AperFunction,ComponentPad*
%ADD19C,3.200000*%
G04 #@! TD*
G04 #@! TA.AperFunction,ComponentPad*
%ADD20R,2.000000X2.000000*%
G04 #@! TD*
G04 #@! TA.AperFunction,ComponentPad*
%ADD21C,1.500000*%
G04 #@! TD*
G04 #@! TA.AperFunction,ViaPad*
%ADD22C,0.800000*%
G04 #@! TD*
G04 #@! TA.AperFunction,Conductor*
%ADD23C,0.254000*%
G04 #@! TD*
G04 #@! TA.AperFunction,Conductor*
%ADD24C,1.000000*%
G04 #@! TD*
G04 #@! TA.AperFunction,Conductor*
%ADD25C,2.000000*%
G04 #@! TD*
G04 #@! TA.AperFunction,Conductor*
%ADD26C,0.300000*%
G04 #@! TD*
G04 APERTURE END LIST*
D10*
G04 #@! TO.P,U1,1*
G04 #@! TO.N,RESET*
X125933200Y-93065600D03*
D11*
G04 #@! TO.P,U1,15*
G04 #@! TO.N,d9*
X158953200Y-85445600D03*
G04 #@! TO.P,U1,2*
G04 #@! TO.N,RX*
X128473200Y-93065600D03*
G04 #@! TO.P,U1,16*
G04 #@! TO.N,d10*
X156413200Y-85445600D03*
G04 #@! TO.P,U1,3*
G04 #@! TO.N,TX*
X131013200Y-93065600D03*
G04 #@! TO.P,U1,17*
G04 #@! TO.N,d11*
X153873200Y-85445600D03*
G04 #@! TO.P,U1,4*
G04 #@! TO.N,d2*
X133553200Y-93065600D03*
G04 #@! TO.P,U1,18*
G04 #@! TO.N,d12*
X151333200Y-85445600D03*
G04 #@! TO.P,U1,5*
G04 #@! TO.N,d3*
X136093200Y-93065600D03*
G04 #@! TO.P,U1,19*
G04 #@! TO.N,d13*
X148793200Y-85445600D03*
G04 #@! TO.P,U1,6*
G04 #@! TO.N,d4*
X138633200Y-93065600D03*
G04 #@! TO.P,U1,20*
G04 #@! TO.N,VCC*
X146253200Y-85445600D03*
G04 #@! TO.P,U1,7*
X141173200Y-93065600D03*
G04 #@! TO.P,U1,21*
G04 #@! TO.N,AREF*
X143713200Y-85445600D03*
G04 #@! TO.P,U1,8*
G04 #@! TO.N,GND*
X143713200Y-93065600D03*
G04 #@! TO.P,U1,22*
X141173200Y-85445600D03*
G04 #@! TO.P,U1,9*
G04 #@! TO.N,XTAL1*
X146253200Y-93065600D03*
G04 #@! TO.P,U1,23*
G04 #@! TO.N,a0*
X138633200Y-85445600D03*
G04 #@! TO.P,U1,10*
G04 #@! TO.N,XTAL2*
X148793200Y-93065600D03*
G04 #@! TO.P,U1,24*
G04 #@! TO.N,a1*
X136093200Y-85445600D03*
G04 #@! TO.P,U1,11*
G04 #@! TO.N,d5*
X151333200Y-93065600D03*
G04 #@! TO.P,U1,25*
G04 #@! TO.N,a2*
X133553200Y-85445600D03*
G04 #@! TO.P,U1,12*
G04 #@! TO.N,d6*
X153873200Y-93065600D03*
G04 #@! TO.P,U1,26*
G04 #@! TO.N,a3*
X131013200Y-85445600D03*
G04 #@! TO.P,U1,13*
G04 #@! TO.N,d7*
X156413200Y-93065600D03*
G04 #@! TO.P,U1,27*
G04 #@! TO.N,a4*
X128473200Y-85445600D03*
G04 #@! TO.P,U1,14*
G04 #@! TO.N,d8*
X158953200Y-93065600D03*
G04 #@! TO.P,U1,28*
G04 #@! TO.N,a5*
X125933200Y-85445600D03*
G04 #@! TD*
D12*
G04 #@! TO.P,U2,1*
G04 #@! TO.N,d13*
X140106400Y-106324400D03*
G04 #@! TO.P,U2,2*
G04 #@! TO.N,d2*
X142646400Y-106324400D03*
G04 #@! TO.P,U2,3*
G04 #@! TO.N,d3*
X145186400Y-106324400D03*
G04 #@! TO.P,U2,4*
G04 #@! TO.N,d4*
X147726400Y-106324400D03*
G04 #@! TO.P,U2,5*
G04 #@! TO.N,a4*
X150266400Y-106324400D03*
G04 #@! TO.P,U2,6*
G04 #@! TO.N,d5*
X152806400Y-106324400D03*
G04 #@! TO.P,U2,7*
G04 #@! TO.N,a5*
X155346400Y-106324400D03*
G04 #@! TO.P,U2,8*
G04 #@! TO.N,d6*
X155346400Y-96164400D03*
G04 #@! TO.P,U2,11*
G04 #@! TO.N,d7*
X147726400Y-96164400D03*
G04 #@! TO.P,U2,12*
G04 #@! TO.N,d8*
X145186400Y-96164400D03*
G04 #@! TO.P,U2,14*
G04 #@! TO.N,N/C*
X140106400Y-96164400D03*
G04 #@! TO.P,U2,15*
G04 #@! TO.N,d12*
X137566400Y-96164400D03*
G04 #@! TD*
D13*
G04 #@! TO.P,J3,1*
G04 #@! TO.N,GND*
X130784600Y-121513600D03*
D14*
G04 #@! TO.P,J3,2*
X130784600Y-118973600D03*
G04 #@! TO.P,J3,3*
G04 #@! TO.N,VCC*
X130784600Y-116433600D03*
G04 #@! TO.P,J3,4*
G04 #@! TO.N,RX*
X130784600Y-113893600D03*
G04 #@! TO.P,J3,5*
G04 #@! TO.N,TX*
X130784600Y-111353600D03*
G04 #@! TO.P,J3,6*
G04 #@! TO.N,DTR*
X130784600Y-108813600D03*
G04 #@! TD*
D10*
G04 #@! TO.P,C1,1*
G04 #@! TO.N,VCC*
X126441200Y-103530400D03*
D15*
G04 #@! TO.P,C1,2*
G04 #@! TO.N,GND*
X128941200Y-103530400D03*
G04 #@! TD*
G04 #@! TO.P,C2,2*
G04 #@! TO.N,XTAL1*
X147066000Y-80401800D03*
G04 #@! TO.P,C2,1*
G04 #@! TO.N,GND*
X147066000Y-77901800D03*
G04 #@! TD*
G04 #@! TO.P,C3,1*
G04 #@! TO.N,GND*
X147040600Y-75514200D03*
G04 #@! TO.P,C3,2*
G04 #@! TO.N,XTAL2*
X149540600Y-75514200D03*
G04 #@! TD*
D11*
G04 #@! TO.P,C4,2*
G04 #@! TO.N,GND*
X129895600Y-73932400D03*
D15*
G04 #@! TO.P,C4,1*
G04 #@! TO.N,AREF*
X129895600Y-81432400D03*
G04 #@! TD*
G04 #@! TO.P,C5,1*
G04 #@! TO.N,RESET*
X126085600Y-73939400D03*
D11*
G04 #@! TO.P,C5,2*
G04 #@! TO.N,DTR*
X126085600Y-81439400D03*
G04 #@! TD*
D16*
G04 #@! TO.P,D1,1*
G04 #@! TO.N,GND*
X126161800Y-68072000D03*
D17*
G04 #@! TO.P,D1,2*
G04 #@! TO.N,Net-(D1-Pad2)*
X128701800Y-68072000D03*
G04 #@! TD*
D14*
G04 #@! TO.P,J1,3*
G04 #@! TO.N,VCC*
X126238000Y-116840000D03*
G04 #@! TO.P,J1,2*
G04 #@! TO.N,GND*
X126238000Y-114300000D03*
D13*
G04 #@! TO.P,J1,1*
G04 #@! TO.N,a0*
X126238000Y-111760000D03*
G04 #@! TD*
G04 #@! TO.P,J2,1*
G04 #@! TO.N,a1*
X159258000Y-111760000D03*
D14*
G04 #@! TO.P,J2,2*
G04 #@! TO.N,GND*
X159258000Y-114300000D03*
G04 #@! TO.P,J2,3*
G04 #@! TO.N,VCC*
X159258000Y-116840000D03*
G04 #@! TD*
D13*
G04 #@! TO.P,J4,1*
G04 #@! TO.N,a2*
X149910800Y-66548000D03*
D14*
G04 #@! TO.P,J4,2*
G04 #@! TO.N,GND*
X152450800Y-66548000D03*
G04 #@! TO.P,J4,3*
G04 #@! TO.N,VCC*
X154990800Y-66548000D03*
G04 #@! TD*
D15*
G04 #@! TO.P,R1,1*
G04 #@! TO.N,Net-(D1-Pad2)*
X136575800Y-71297800D03*
D11*
G04 #@! TO.P,R1,2*
G04 #@! TO.N,a2*
X136575800Y-81457800D03*
G04 #@! TD*
G04 #@! TO.P,R2,2*
G04 #@! TO.N,RESET*
X133400800Y-71297800D03*
D15*
G04 #@! TO.P,R2,1*
G04 #@! TO.N,VCC*
X133400800Y-81457800D03*
G04 #@! TD*
G04 #@! TO.P,R3,1*
G04 #@! TO.N,d9*
X134315200Y-122224800D03*
D11*
G04 #@! TO.P,R3,2*
G04 #@! TO.N,VCC*
X134315200Y-112064800D03*
G04 #@! TD*
G04 #@! TO.P,R4,2*
G04 #@! TO.N,VCC*
X137541000Y-112064800D03*
D15*
G04 #@! TO.P,R4,1*
G04 #@! TO.N,d10*
X137541000Y-122224800D03*
G04 #@! TD*
D18*
G04 #@! TO.P,SW1,S1*
G04 #@! TO.N,d11*
X155241400Y-118080800D03*
G04 #@! TO.P,SW1,S2*
G04 #@! TO.N,GND*
X155241400Y-113080800D03*
D19*
G04 #@! TO.P,SW1,MP*
G04 #@! TO.N,N/C*
X148241400Y-121180800D03*
X148241400Y-109980800D03*
D18*
G04 #@! TO.P,SW1,B*
G04 #@! TO.N,d10*
X140741400Y-118080800D03*
G04 #@! TO.P,SW1,C*
G04 #@! TO.N,GND*
X140741400Y-115580800D03*
D20*
G04 #@! TO.P,SW1,A*
G04 #@! TO.N,d9*
X140741400Y-113080800D03*
G04 #@! TD*
D18*
G04 #@! TO.P,SW2,2*
G04 #@! TO.N,GND*
X152196800Y-75721600D03*
G04 #@! TO.P,SW2,1*
G04 #@! TO.N,a3*
X152196800Y-71221600D03*
G04 #@! TO.P,SW2,4*
G04 #@! TO.N,Net-(SW2-Pad3)*
X158696800Y-75721600D03*
G04 #@! TO.P,SW2,3*
X158696800Y-71221600D03*
G04 #@! TD*
G04 #@! TO.P,SW3,3*
G04 #@! TO.N,Net-(SW3-Pad3)*
X139725400Y-74475200D03*
G04 #@! TO.P,SW3,4*
X144225400Y-74475200D03*
G04 #@! TO.P,SW3,1*
G04 #@! TO.N,GND*
X139725400Y-80975200D03*
G04 #@! TO.P,SW3,2*
G04 #@! TO.N,RESET*
X144225400Y-80975200D03*
G04 #@! TD*
D21*
G04 #@! TO.P,Y1,1*
G04 #@! TO.N,XTAL1*
X151815800Y-80162400D03*
G04 #@! TO.P,Y1,2*
G04 #@! TO.N,XTAL2*
X156715800Y-80162400D03*
G04 #@! TD*
D22*
G04 #@! TO.N,d10*
X143052800Y-113741200D03*
G04 #@! TO.N,d11*
X160401000Y-79121000D03*
G04 #@! TD*
D23*
G04 #@! TO.N,GND*
X126161800Y-70198600D02*
X129895600Y-73932400D01*
X126161800Y-68072000D02*
X126161800Y-70198600D01*
D24*
X130251200Y-118821200D02*
X130378200Y-118948200D01*
D25*
X130632200Y-118821200D02*
X130784600Y-118973600D01*
X130784600Y-118973600D02*
X133858000Y-118973600D01*
X137301600Y-115530000D02*
X141097000Y-115530000D01*
X133858000Y-118973600D02*
X137301600Y-115530000D01*
D24*
X147040600Y-77876400D02*
X147066000Y-77901800D01*
X147040600Y-75514200D02*
X147040600Y-77876400D01*
D23*
X130784600Y-118973600D02*
X130784600Y-121513600D01*
D24*
X139954000Y-83870800D02*
X139954000Y-81635600D01*
X141173200Y-85090000D02*
X139954000Y-83870800D01*
X141173200Y-85445600D02*
X141173200Y-85090000D01*
X144424400Y-78130400D02*
X147040600Y-75514200D01*
X142900400Y-78130400D02*
X144424400Y-78130400D01*
X140030200Y-81000600D02*
X142900400Y-78130400D01*
X139954000Y-81000600D02*
X140030200Y-81000600D01*
D23*
X130505200Y-121234200D02*
X130784600Y-121513600D01*
X126365000Y-121234200D02*
X130505200Y-121234200D01*
D25*
X127440081Y-114300000D02*
X128524000Y-115383919D01*
X129582519Y-118973600D02*
X130784600Y-118973600D01*
X128524000Y-117915081D02*
X129582519Y-118973600D01*
X128524000Y-115383919D02*
X128524000Y-117915081D01*
D24*
X127440081Y-114300000D02*
X126238000Y-114300000D01*
D25*
X156460600Y-114300000D02*
X155241400Y-113080800D01*
X159258000Y-114300000D02*
X156460600Y-114300000D01*
X151327187Y-115580800D02*
X147193000Y-115580800D01*
X153827187Y-113080800D02*
X151327187Y-115580800D01*
X155241400Y-113080800D02*
X153827187Y-113080800D01*
X147193000Y-115580800D02*
X148600800Y-115580800D01*
X140741400Y-115580800D02*
X147193000Y-115580800D01*
D24*
X152450800Y-67750081D02*
X153896801Y-69196082D01*
X152450800Y-66548000D02*
X152450800Y-67750081D01*
X152196800Y-74307387D02*
X151574813Y-73685400D01*
X152196800Y-75721600D02*
X152196800Y-74307387D01*
X148869400Y-73685400D02*
X147040600Y-75514200D01*
X151574813Y-73685400D02*
X148869400Y-73685400D01*
D23*
X127787400Y-102376600D02*
X128941200Y-103530400D01*
X127787400Y-97104200D02*
X127787400Y-102376600D01*
D24*
X128941200Y-112798881D02*
X127440081Y-114300000D01*
X128941200Y-103530400D02*
X128941200Y-112798881D01*
X153196799Y-74721601D02*
X152196800Y-75721600D01*
X154457400Y-73461000D02*
X153196799Y-74721601D01*
X154457400Y-69756681D02*
X154457400Y-73461000D01*
X153896801Y-69196082D02*
X154457400Y-69756681D01*
D23*
X129895600Y-73932400D02*
X132885800Y-73932400D01*
X132885800Y-73932400D02*
X139954000Y-81000600D01*
D24*
X141173200Y-87960200D02*
X141173200Y-85445600D01*
X143433800Y-90220800D02*
X141173200Y-87960200D01*
X143433800Y-92786200D02*
X143433800Y-90220800D01*
X143713200Y-93065600D02*
X143433800Y-92786200D01*
D23*
X158259601Y-120108801D02*
X159359600Y-121208800D01*
X157835600Y-119684800D02*
X158259601Y-120108801D01*
X157835600Y-115722400D02*
X157835600Y-119684800D01*
X159258000Y-114300000D02*
X157835600Y-115722400D01*
D26*
X154347519Y-69646800D02*
X153896801Y-69196082D01*
X159385000Y-67005200D02*
X157829366Y-67005200D01*
X157829366Y-67005200D02*
X155187766Y-69646800D01*
X155187766Y-69646800D02*
X154347519Y-69646800D01*
D24*
X154334600Y-75239000D02*
X152196800Y-75239000D01*
X161391600Y-82296000D02*
X154334600Y-75239000D01*
X161391600Y-113368481D02*
X161391600Y-82296000D01*
X160460081Y-114300000D02*
X161391600Y-113368481D01*
X159258000Y-114300000D02*
X160460081Y-114300000D01*
D23*
G04 #@! TO.N,XTAL1*
X146253200Y-91934230D02*
X146253200Y-93065600D01*
X146253200Y-88214200D02*
X146253200Y-91934230D01*
X147497800Y-86969600D02*
X146253200Y-88214200D01*
X147497800Y-84048600D02*
X147497800Y-86969600D01*
X147066000Y-83616800D02*
X147497800Y-84048600D01*
X147178400Y-80289400D02*
X147066000Y-80401800D01*
X151231600Y-80289400D02*
X147178400Y-80289400D01*
X151866600Y-79654400D02*
X151231600Y-80289400D01*
X147066000Y-80401800D02*
X147040600Y-80427200D01*
X147066000Y-81533170D02*
X147066000Y-82829400D01*
X147066000Y-80401800D02*
X147066000Y-81533170D01*
X147066000Y-82829400D02*
X147066000Y-83616800D01*
X147066000Y-82372200D02*
X147066000Y-82829400D01*
G04 #@! TO.N,XTAL2*
X149540600Y-75514200D02*
X151801200Y-77774800D01*
X151801200Y-77774800D02*
X154887000Y-77774800D01*
X154887000Y-77774800D02*
X156766600Y-79654400D01*
X152623199Y-89235601D02*
X152623199Y-84409601D01*
X148793200Y-93065600D02*
X152623199Y-89235601D01*
X156715800Y-80799600D02*
X156715800Y-80162400D01*
X155067000Y-81965800D02*
X155194000Y-81838800D01*
X152623199Y-84409601D02*
X155067000Y-81965800D01*
X156743400Y-80289400D02*
X155067000Y-81965800D01*
X156743400Y-80190000D02*
X156743400Y-80289400D01*
X156715800Y-80162400D02*
X156743400Y-80190000D01*
G04 #@! TO.N,RESET*
X124104400Y-90186800D02*
X125933200Y-92015600D01*
X125933200Y-92015600D02*
X125933200Y-93065600D01*
X124104400Y-76454000D02*
X124104400Y-90186800D01*
X125285601Y-75272799D02*
X124104400Y-76454000D01*
X125285601Y-74739399D02*
X125285601Y-75272799D01*
X126085600Y-73939400D02*
X125285601Y-74739399D01*
G04 #@! TO.N,DTR*
X130784600Y-94843600D02*
X130784600Y-108813600D01*
X129786199Y-93845199D02*
X130784600Y-94843600D01*
X129786199Y-84856639D02*
X129786199Y-93845199D01*
X129844800Y-84798038D02*
X129786199Y-84856639D01*
X129844800Y-84702230D02*
X129844800Y-84798038D01*
X126549570Y-81407000D02*
X129844800Y-84702230D01*
X126118000Y-81407000D02*
X126549570Y-81407000D01*
X126085600Y-81439400D02*
X126118000Y-81407000D01*
D26*
G04 #@! TO.N,Net-(D1-Pad2)*
X129974592Y-68072000D02*
X129999992Y-68046600D01*
X128701800Y-68072000D02*
X129974592Y-68072000D01*
X133426200Y-68046600D02*
X136677400Y-71297800D01*
X129999992Y-68046600D02*
X133426200Y-68046600D01*
D23*
G04 #@! TO.N,TX*
X131813199Y-93865599D02*
X131013200Y-93065600D01*
X130784600Y-111353600D02*
X132410200Y-109728000D01*
X132410200Y-109728000D02*
X132410200Y-94462600D01*
X132410200Y-94462600D02*
X131813199Y-93865599D01*
G04 #@! TO.N,a2*
X133553200Y-84582000D02*
X133553200Y-85445600D01*
X136677400Y-81457800D02*
X133553200Y-84582000D01*
G04 #@! TO.N,d9*
X154159399Y-107059803D02*
X154159399Y-106897121D01*
X154159399Y-106897121D02*
X154157399Y-106895121D01*
X154159399Y-105751679D02*
X154159399Y-99205601D01*
X155188199Y-93656561D02*
X155186199Y-93654561D01*
X149214361Y-112007801D02*
X150268401Y-110953761D01*
X154159399Y-99205601D02*
X156591000Y-96774000D01*
X147266439Y-112005801D02*
X147268439Y-112007801D01*
X147268439Y-112007801D02*
X149214361Y-112007801D01*
X154157399Y-105753679D02*
X154159399Y-105751679D01*
X150268401Y-110950801D02*
X154159399Y-107059803D01*
X143066399Y-112005801D02*
X147266439Y-112005801D01*
X158153201Y-86245599D02*
X158953200Y-85445600D01*
X150268401Y-110953761D02*
X150268401Y-110950801D01*
X141991400Y-113080800D02*
X143066399Y-112005801D01*
X140741400Y-113080800D02*
X141991400Y-113080800D01*
X156591000Y-96774000D02*
X156591000Y-95072200D01*
X154157399Y-106895121D02*
X154157399Y-105753679D01*
X155188199Y-93669399D02*
X155188199Y-93656561D01*
X155188199Y-89210601D02*
X158153201Y-86245599D01*
X156591000Y-95072200D02*
X155188199Y-93669399D01*
X155186199Y-93654561D02*
X155186199Y-92476639D01*
X155186199Y-92476639D02*
X155188199Y-92474639D01*
X155188199Y-92474639D02*
X155188199Y-89210601D01*
G04 #@! TO.N,d10*
X159978201Y-92033201D02*
X160350200Y-92405200D01*
X143618485Y-113741200D02*
X143052800Y-113741200D01*
X159978201Y-86833599D02*
X159978201Y-92033201D01*
X160350200Y-93649800D02*
X159855990Y-94144010D01*
X159855990Y-94144010D02*
X159855990Y-103571572D01*
X159855990Y-103571572D02*
X149686362Y-113741200D01*
X160350200Y-86461600D02*
X159978201Y-86833599D01*
X160350200Y-92405200D02*
X160350200Y-93649800D01*
X160350200Y-84658200D02*
X160350200Y-86461600D01*
X157810200Y-83947000D02*
X159639000Y-83947000D01*
X156413200Y-85344000D02*
X157810200Y-83947000D01*
X159639000Y-83947000D02*
X160350200Y-84658200D01*
X156413200Y-85445600D02*
X156413200Y-85344000D01*
X149686362Y-113741200D02*
X143618485Y-113741200D01*
G04 #@! TO.N,d11*
X155241400Y-118080800D02*
X155241400Y-119495013D01*
X155241400Y-119495013D02*
X158482188Y-122735801D01*
X158482188Y-122735801D02*
X160092561Y-122735801D01*
X160092561Y-122735801D02*
X162433000Y-120395362D01*
X162433000Y-81153000D02*
X160800999Y-79520999D01*
X162433000Y-120395362D02*
X162433000Y-81153000D01*
X160800999Y-79520999D02*
X160401000Y-79121000D01*
D26*
G04 #@! TO.N,a3*
X152196800Y-71221600D02*
X143967200Y-71221600D01*
X137820400Y-65074800D02*
X126548998Y-65074800D01*
X126548998Y-65074800D02*
X124811799Y-66811999D01*
X124811799Y-66811999D02*
X124811799Y-70815597D01*
X124811799Y-70815597D02*
X131813199Y-77816997D01*
X143967200Y-71221600D02*
X137820400Y-65074800D01*
X131813199Y-84645601D02*
X131013200Y-85445600D01*
X131813199Y-77816997D02*
X131813199Y-78638400D01*
X131813199Y-78638400D02*
X131813199Y-84645601D01*
X131813199Y-78451997D02*
X131813199Y-78638400D01*
D23*
G04 #@! TO.N,Net-(SW2-Pad3)*
X158696800Y-70739000D02*
X158696800Y-75239000D01*
G04 #@! TO.N,Net-(SW3-Pad3)*
X139954000Y-74500600D02*
X144454000Y-74500600D01*
G04 #@! TO.N,d2*
X133553200Y-96266000D02*
X133553200Y-93065600D01*
X142646400Y-106324400D02*
X142646400Y-105359200D01*
X142646400Y-105359200D02*
X133553200Y-96266000D01*
G04 #@! TO.N,d3*
X135864600Y-93294200D02*
X136093200Y-93065600D01*
X145186400Y-106324400D02*
X135864600Y-97002600D01*
X135864600Y-97002600D02*
X135864600Y-93294200D01*
G04 #@! TO.N,d13*
X140868399Y-107086399D02*
X140106400Y-106324400D01*
X147574000Y-93662362D02*
X147574000Y-94157800D01*
X147566199Y-93654561D02*
X147574000Y-93662362D01*
X147566199Y-87917201D02*
X147566199Y-93654561D01*
X148793200Y-86690200D02*
X147566199Y-87917201D01*
X147574000Y-94157800D02*
X146431000Y-95300800D01*
X148793200Y-85445600D02*
X148793200Y-86690200D01*
X148915401Y-101341201D02*
X146431000Y-98856800D01*
X148915401Y-106895121D02*
X148915401Y-101341201D01*
X147856723Y-107953799D02*
X148915401Y-106895121D01*
X140106400Y-106324400D02*
X141735799Y-107953799D01*
X141735799Y-107953799D02*
X147856723Y-107953799D01*
X146431000Y-95300800D02*
X146431000Y-98856800D01*
G04 #@! TO.N,d4*
X138811000Y-97409000D02*
X147726400Y-106324400D01*
X138633200Y-93065600D02*
X138633200Y-93294200D01*
X138633200Y-93294200D02*
X138811000Y-93472000D01*
X138811000Y-93472000D02*
X138811000Y-97409000D01*
G04 #@! TO.N,d5*
X152806400Y-101117400D02*
X152806400Y-106324400D01*
X151333200Y-99644200D02*
X152806400Y-101117400D01*
X151333200Y-93065600D02*
X151333200Y-99644200D01*
G04 #@! TO.N,d6*
X153873200Y-94691200D02*
X154584401Y-95402401D01*
X154584401Y-95402401D02*
X155346400Y-96164400D01*
X153873200Y-93065600D02*
X153873200Y-94691200D01*
G04 #@! TD*
M02*
