G04 #@! TF.GenerationSoftware,KiCad,Pcbnew,5.0.2-bee76a0~70~ubuntu14.04.1*
G04 #@! TF.CreationDate,2018-12-14T16:21:01-07:00*
G04 #@! TF.ProjectId,delay,64656c61-792e-46b6-9963-61645f706362,rev?*
G04 #@! TF.SameCoordinates,Original*
G04 #@! TF.FileFunction,Soldermask,Top*
G04 #@! TF.FilePolarity,Negative*
%FSLAX46Y46*%
G04 Gerber Fmt 4.6, Leading zero omitted, Abs format (unit mm)*
G04 Created by KiCad (PCBNEW 5.0.2-bee76a0~70~ubuntu14.04.1) date Fri 14 Dec 2018 04:21:01 PM MST*
%MOMM*%
%LPD*%
G01*
G04 APERTURE LIST*
%ADD10C,0.100000*%
G04 APERTURE END LIST*
D10*
G36*
X155677743Y-163354660D02*
X156296503Y-163610958D01*
X156853377Y-163983050D01*
X157326950Y-164456623D01*
X157699042Y-165013497D01*
X157955340Y-165632257D01*
X158086000Y-166289128D01*
X158086000Y-166958872D01*
X157955340Y-167615743D01*
X157699042Y-168234503D01*
X157326950Y-168791377D01*
X156853377Y-169264950D01*
X156296503Y-169637042D01*
X155677743Y-169893340D01*
X155020872Y-170024000D01*
X154351128Y-170024000D01*
X153694257Y-169893340D01*
X153075497Y-169637042D01*
X152518623Y-169264950D01*
X152045050Y-168791377D01*
X151672958Y-168234503D01*
X151416660Y-167615743D01*
X151286000Y-166958872D01*
X151286000Y-166289128D01*
X151416660Y-165632257D01*
X151672958Y-165013497D01*
X152045050Y-164456623D01*
X152518623Y-163983050D01*
X153075497Y-163610958D01*
X153694257Y-163354660D01*
X154351128Y-163224000D01*
X155020872Y-163224000D01*
X155677743Y-163354660D01*
X155677743Y-163354660D01*
G37*
G36*
X129007743Y-163354660D02*
X129626503Y-163610958D01*
X130183377Y-163983050D01*
X130656950Y-164456623D01*
X131029042Y-165013497D01*
X131285340Y-165632257D01*
X131416000Y-166289128D01*
X131416000Y-166958872D01*
X131285340Y-167615743D01*
X131029042Y-168234503D01*
X130656950Y-168791377D01*
X130183377Y-169264950D01*
X129626503Y-169637042D01*
X129007743Y-169893340D01*
X128350872Y-170024000D01*
X127681128Y-170024000D01*
X127024257Y-169893340D01*
X126405497Y-169637042D01*
X125848623Y-169264950D01*
X125375050Y-168791377D01*
X125002958Y-168234503D01*
X124746660Y-167615743D01*
X124616000Y-166958872D01*
X124616000Y-166289128D01*
X124746660Y-165632257D01*
X125002958Y-165013497D01*
X125375050Y-164456623D01*
X125848623Y-163983050D01*
X126405497Y-163610958D01*
X127024257Y-163354660D01*
X127681128Y-163224000D01*
X128350872Y-163224000D01*
X129007743Y-163354660D01*
X129007743Y-163354660D01*
G37*
G36*
X143526026Y-166508115D02*
X143744412Y-166598573D01*
X143940958Y-166729901D01*
X144108099Y-166897042D01*
X144239427Y-167093588D01*
X144329885Y-167311974D01*
X144376000Y-167543809D01*
X144376000Y-167780191D01*
X144329885Y-168012026D01*
X144239427Y-168230412D01*
X144108099Y-168426958D01*
X143940958Y-168594099D01*
X143744412Y-168725427D01*
X143526026Y-168815885D01*
X143294191Y-168862000D01*
X143057809Y-168862000D01*
X142825974Y-168815885D01*
X142607588Y-168725427D01*
X142411042Y-168594099D01*
X142243901Y-168426958D01*
X142112573Y-168230412D01*
X142022115Y-168012026D01*
X141976000Y-167780191D01*
X141976000Y-167543809D01*
X142022115Y-167311974D01*
X142112573Y-167093588D01*
X142243901Y-166897042D01*
X142411042Y-166729901D01*
X142607588Y-166598573D01*
X142825974Y-166508115D01*
X143057809Y-166462000D01*
X143294191Y-166462000D01*
X143526026Y-166508115D01*
X143526026Y-166508115D01*
G37*
G36*
X138526026Y-166508115D02*
X138744412Y-166598573D01*
X138940958Y-166729901D01*
X139108099Y-166897042D01*
X139239427Y-167093588D01*
X139329885Y-167311974D01*
X139376000Y-167543809D01*
X139376000Y-167780191D01*
X139329885Y-168012026D01*
X139239427Y-168230412D01*
X139108099Y-168426958D01*
X138940958Y-168594099D01*
X138744412Y-168725427D01*
X138526026Y-168815885D01*
X138294191Y-168862000D01*
X138057809Y-168862000D01*
X137825974Y-168815885D01*
X137607588Y-168725427D01*
X137411042Y-168594099D01*
X137243901Y-168426958D01*
X137112573Y-168230412D01*
X137022115Y-168012026D01*
X136976000Y-167780191D01*
X136976000Y-167543809D01*
X137022115Y-167311974D01*
X137112573Y-167093588D01*
X137243901Y-166897042D01*
X137411042Y-166729901D01*
X137607588Y-166598573D01*
X137825974Y-166508115D01*
X138057809Y-166462000D01*
X138294191Y-166462000D01*
X138526026Y-166508115D01*
X138526026Y-166508115D01*
G37*
G36*
X146685122Y-158908115D02*
X146801041Y-158931173D01*
X147128620Y-159066861D01*
X147419511Y-159261228D01*
X147423436Y-159263851D01*
X147674149Y-159514564D01*
X147871140Y-159809382D01*
X148006827Y-160136960D01*
X148076000Y-160484714D01*
X148076000Y-160839286D01*
X148006827Y-161187040D01*
X147871140Y-161514618D01*
X147674149Y-161809436D01*
X147423436Y-162060149D01*
X147423433Y-162060151D01*
X147128620Y-162257139D01*
X146801041Y-162392827D01*
X146685122Y-162415885D01*
X146453286Y-162462000D01*
X146098714Y-162462000D01*
X145866878Y-162415885D01*
X145750959Y-162392827D01*
X145423380Y-162257139D01*
X145128567Y-162060151D01*
X145128564Y-162060149D01*
X144877851Y-161809436D01*
X144680860Y-161514618D01*
X144545173Y-161187040D01*
X144476000Y-160839286D01*
X144476000Y-160484714D01*
X144545173Y-160136960D01*
X144680860Y-159809382D01*
X144877851Y-159514564D01*
X145128564Y-159263851D01*
X145132489Y-159261228D01*
X145423380Y-159066861D01*
X145750959Y-158931173D01*
X145866878Y-158908115D01*
X146098714Y-158862000D01*
X146453286Y-158862000D01*
X146685122Y-158908115D01*
X146685122Y-158908115D01*
G37*
G36*
X135485122Y-158908115D02*
X135601041Y-158931173D01*
X135928620Y-159066861D01*
X136219511Y-159261228D01*
X136223436Y-159263851D01*
X136474149Y-159514564D01*
X136671140Y-159809382D01*
X136806827Y-160136960D01*
X136876000Y-160484714D01*
X136876000Y-160839286D01*
X136806827Y-161187040D01*
X136671140Y-161514618D01*
X136474149Y-161809436D01*
X136223436Y-162060149D01*
X136223433Y-162060151D01*
X135928620Y-162257139D01*
X135601041Y-162392827D01*
X135485122Y-162415885D01*
X135253286Y-162462000D01*
X134898714Y-162462000D01*
X134666878Y-162415885D01*
X134550959Y-162392827D01*
X134223380Y-162257139D01*
X133928567Y-162060151D01*
X133928564Y-162060149D01*
X133677851Y-161809436D01*
X133480860Y-161514618D01*
X133345173Y-161187040D01*
X133276000Y-160839286D01*
X133276000Y-160484714D01*
X133345173Y-160136960D01*
X133480860Y-159809382D01*
X133677851Y-159514564D01*
X133928564Y-159263851D01*
X133932489Y-159261228D01*
X134223380Y-159066861D01*
X134550959Y-158931173D01*
X134666878Y-158908115D01*
X134898714Y-158862000D01*
X135253286Y-158862000D01*
X135485122Y-158908115D01*
X135485122Y-158908115D01*
G37*
G36*
X133588000Y-158010000D02*
X131588000Y-158010000D01*
X131588000Y-156010000D01*
X133588000Y-156010000D01*
X133588000Y-158010000D01*
X133588000Y-158010000D01*
G37*
G36*
X143748000Y-158010000D02*
X141748000Y-158010000D01*
X141748000Y-156010000D01*
X143748000Y-156010000D01*
X143748000Y-158010000D01*
X143748000Y-158010000D01*
G37*
G36*
X128508000Y-158010000D02*
X126508000Y-158010000D01*
X126508000Y-156010000D01*
X128508000Y-156010000D01*
X128508000Y-158010000D01*
X128508000Y-158010000D01*
G37*
G36*
X131048000Y-158010000D02*
X129048000Y-158010000D01*
X129048000Y-156010000D01*
X131048000Y-156010000D01*
X131048000Y-158010000D01*
X131048000Y-158010000D01*
G37*
G36*
X136128000Y-158010000D02*
X134128000Y-158010000D01*
X134128000Y-156010000D01*
X136128000Y-156010000D01*
X136128000Y-158010000D01*
X136128000Y-158010000D01*
G37*
G36*
X138668000Y-158010000D02*
X136668000Y-158010000D01*
X136668000Y-156010000D01*
X138668000Y-156010000D01*
X138668000Y-158010000D01*
X138668000Y-158010000D01*
G37*
G36*
X141208000Y-158010000D02*
X139208000Y-158010000D01*
X139208000Y-156010000D01*
X141208000Y-156010000D01*
X141208000Y-158010000D01*
X141208000Y-158010000D01*
G37*
G36*
X146288000Y-158010000D02*
X144288000Y-158010000D01*
X144288000Y-156010000D01*
X146288000Y-156010000D01*
X146288000Y-158010000D01*
X146288000Y-158010000D01*
G37*
G36*
X139376000Y-152536308D02*
X139378402Y-152560694D01*
X139385515Y-152584143D01*
X139397066Y-152605754D01*
X139412612Y-152624696D01*
X139431554Y-152640242D01*
X139453165Y-152651793D01*
X139476614Y-152658906D01*
X139501000Y-152661308D01*
X139525386Y-152658906D01*
X139548835Y-152651793D01*
X139570446Y-152640242D01*
X139589388Y-152624696D01*
X139604934Y-152605754D01*
X139606895Y-152602085D01*
X139743901Y-152397042D01*
X139911042Y-152229901D01*
X140107588Y-152098573D01*
X140325974Y-152008115D01*
X140557809Y-151962000D01*
X140794191Y-151962000D01*
X141026026Y-152008115D01*
X141244412Y-152098573D01*
X141440958Y-152229901D01*
X141608099Y-152397042D01*
X141739427Y-152593588D01*
X141810515Y-152765210D01*
X141822066Y-152786821D01*
X141837612Y-152805763D01*
X141856554Y-152821309D01*
X141878164Y-152832860D01*
X141901614Y-152839973D01*
X141926000Y-152842375D01*
X141950386Y-152839973D01*
X141973835Y-152832860D01*
X141995446Y-152821309D01*
X142014388Y-152805763D01*
X142029934Y-152786821D01*
X142041485Y-152765210D01*
X142112573Y-152593588D01*
X142243901Y-152397042D01*
X142411042Y-152229901D01*
X142607588Y-152098573D01*
X142825974Y-152008115D01*
X143057809Y-151962000D01*
X143294191Y-151962000D01*
X143526026Y-152008115D01*
X143744412Y-152098573D01*
X143940958Y-152229901D01*
X144108099Y-152397042D01*
X144239427Y-152593588D01*
X144329885Y-152811974D01*
X144376000Y-153043809D01*
X144376000Y-153280191D01*
X144329885Y-153512026D01*
X144239427Y-153730412D01*
X144108099Y-153926958D01*
X143940958Y-154094099D01*
X143744412Y-154225427D01*
X143526026Y-154315885D01*
X143294191Y-154362000D01*
X143057809Y-154362000D01*
X142825974Y-154315885D01*
X142607588Y-154225427D01*
X142411042Y-154094099D01*
X142243901Y-153926958D01*
X142112573Y-153730412D01*
X142041485Y-153558790D01*
X142029934Y-153537179D01*
X142014388Y-153518237D01*
X141995446Y-153502691D01*
X141973836Y-153491140D01*
X141950386Y-153484027D01*
X141926000Y-153481625D01*
X141901614Y-153484027D01*
X141878165Y-153491140D01*
X141856554Y-153502691D01*
X141837612Y-153518237D01*
X141822066Y-153537179D01*
X141810515Y-153558790D01*
X141739427Y-153730412D01*
X141608099Y-153926958D01*
X141440958Y-154094099D01*
X141244412Y-154225427D01*
X141026026Y-154315885D01*
X140794191Y-154362000D01*
X140557809Y-154362000D01*
X140325974Y-154315885D01*
X140107588Y-154225427D01*
X139911042Y-154094099D01*
X139743901Y-153926958D01*
X139606890Y-153721907D01*
X139604929Y-153718239D01*
X139589382Y-153699298D01*
X139570439Y-153683754D01*
X139548828Y-153672204D01*
X139525378Y-153665092D01*
X139500992Y-153662692D01*
X139476605Y-153665095D01*
X139453157Y-153672210D01*
X139431547Y-153683763D01*
X139412606Y-153699310D01*
X139397062Y-153718253D01*
X139385512Y-153739864D01*
X139378400Y-153763314D01*
X139376000Y-153787692D01*
X139376000Y-154362000D01*
X136976000Y-154362000D01*
X136976000Y-151962000D01*
X139376000Y-151962000D01*
X139376000Y-152536308D01*
X139376000Y-152536308D01*
G37*
G36*
X143748000Y-150390000D02*
X141748000Y-150390000D01*
X141748000Y-148390000D01*
X143748000Y-148390000D01*
X143748000Y-150390000D01*
X143748000Y-150390000D01*
G37*
G36*
X146288000Y-150390000D02*
X144288000Y-150390000D01*
X144288000Y-148390000D01*
X146288000Y-148390000D01*
X146288000Y-150390000D01*
X146288000Y-150390000D01*
G37*
G36*
X141208000Y-150390000D02*
X139208000Y-150390000D01*
X139208000Y-148390000D01*
X141208000Y-148390000D01*
X141208000Y-150390000D01*
X141208000Y-150390000D01*
G37*
G36*
X138668000Y-150390000D02*
X136668000Y-150390000D01*
X136668000Y-148390000D01*
X138668000Y-148390000D01*
X138668000Y-150390000D01*
X138668000Y-150390000D01*
G37*
G36*
X136128000Y-150390000D02*
X134128000Y-150390000D01*
X134128000Y-148390000D01*
X136128000Y-148390000D01*
X136128000Y-150390000D01*
X136128000Y-150390000D01*
G37*
G36*
X133588000Y-150390000D02*
X131588000Y-150390000D01*
X131588000Y-148390000D01*
X133588000Y-148390000D01*
X133588000Y-150390000D01*
X133588000Y-150390000D01*
G37*
G36*
X131048000Y-150390000D02*
X129048000Y-150390000D01*
X129048000Y-148390000D01*
X131048000Y-148390000D01*
X131048000Y-150390000D01*
X131048000Y-150390000D01*
G37*
G36*
X128508000Y-150390000D02*
X126508000Y-150390000D01*
X126508000Y-148390000D01*
X128508000Y-148390000D01*
X128508000Y-150390000D01*
X128508000Y-150390000D01*
G37*
G36*
X143650000Y-146880000D02*
X141650000Y-146880000D01*
X141650000Y-144880000D01*
X143650000Y-144880000D01*
X143650000Y-146880000D01*
X143650000Y-146880000D01*
G37*
G36*
X146190000Y-146880000D02*
X144190000Y-146880000D01*
X144190000Y-144880000D01*
X146190000Y-144880000D01*
X146190000Y-146880000D01*
X146190000Y-146880000D01*
G37*
G36*
X141110000Y-146880000D02*
X139110000Y-146880000D01*
X139110000Y-144880000D01*
X141110000Y-144880000D01*
X141110000Y-146880000D01*
X141110000Y-146880000D01*
G37*
G36*
X138570000Y-146880000D02*
X136570000Y-146880000D01*
X136570000Y-144880000D01*
X138570000Y-144880000D01*
X138570000Y-146880000D01*
X138570000Y-146880000D01*
G37*
G36*
X133490000Y-146880000D02*
X131490000Y-146880000D01*
X131490000Y-144880000D01*
X133490000Y-144880000D01*
X133490000Y-146880000D01*
X133490000Y-146880000D01*
G37*
G36*
X136030000Y-146880000D02*
X134030000Y-146880000D01*
X134030000Y-144880000D01*
X136030000Y-144880000D01*
X136030000Y-146880000D01*
X136030000Y-146880000D01*
G37*
G36*
X128410000Y-146880000D02*
X126410000Y-146880000D01*
X126410000Y-144880000D01*
X128410000Y-144880000D01*
X128410000Y-146880000D01*
X128410000Y-146880000D01*
G37*
G36*
X130950000Y-146880000D02*
X128950000Y-146880000D01*
X128950000Y-144880000D01*
X130950000Y-144880000D01*
X130950000Y-146880000D01*
X130950000Y-146880000D01*
G37*
G36*
X133490000Y-139260000D02*
X133253334Y-139260000D01*
X133228948Y-139262402D01*
X133205499Y-139269515D01*
X133183888Y-139281066D01*
X133164946Y-139296612D01*
X133149400Y-139315554D01*
X133137849Y-139337165D01*
X133130736Y-139360614D01*
X133128334Y-139385000D01*
X133130736Y-139409386D01*
X133137849Y-139432835D01*
X133149400Y-139454446D01*
X133164946Y-139473388D01*
X133183888Y-139488934D01*
X133205499Y-139500485D01*
X133228948Y-139507598D01*
X133376603Y-139536968D01*
X133376606Y-139536969D01*
X133376605Y-139536969D01*
X133551678Y-139609486D01*
X133551679Y-139609487D01*
X133709241Y-139714767D01*
X133843233Y-139848759D01*
X133843234Y-139848761D01*
X133948514Y-140006322D01*
X134004603Y-140141734D01*
X134021032Y-140181397D01*
X134058000Y-140367250D01*
X134058000Y-140556750D01*
X134021032Y-140742603D01*
X134021031Y-140742605D01*
X133948514Y-140917678D01*
X133948513Y-140917679D01*
X133843233Y-141075241D01*
X133709241Y-141209233D01*
X133629923Y-141262232D01*
X133551678Y-141314514D01*
X133416266Y-141370603D01*
X133376603Y-141387032D01*
X133190750Y-141424000D01*
X133001250Y-141424000D01*
X132815397Y-141387032D01*
X132775734Y-141370603D01*
X132640322Y-141314514D01*
X132562077Y-141262232D01*
X132482759Y-141209233D01*
X132348767Y-141075241D01*
X132243487Y-140917679D01*
X132243486Y-140917678D01*
X132170969Y-140742605D01*
X132170968Y-140742603D01*
X132134000Y-140556750D01*
X132134000Y-140367250D01*
X132170968Y-140181397D01*
X132187397Y-140141734D01*
X132243486Y-140006322D01*
X132348766Y-139848761D01*
X132348767Y-139848759D01*
X132482759Y-139714767D01*
X132640321Y-139609487D01*
X132640322Y-139609486D01*
X132815395Y-139536969D01*
X132815394Y-139536969D01*
X132815397Y-139536968D01*
X132963052Y-139507598D01*
X132986501Y-139500485D01*
X133008112Y-139488934D01*
X133027054Y-139473389D01*
X133042599Y-139454447D01*
X133054151Y-139432836D01*
X133061264Y-139409387D01*
X133063666Y-139385001D01*
X133061264Y-139360614D01*
X133054151Y-139337165D01*
X133042600Y-139315554D01*
X133027055Y-139296612D01*
X133008113Y-139281067D01*
X132986502Y-139269515D01*
X132963053Y-139262402D01*
X132938666Y-139260000D01*
X131490000Y-139260000D01*
X131490000Y-137260000D01*
X133490000Y-137260000D01*
X133490000Y-139260000D01*
X133490000Y-139260000D01*
G37*
G36*
X136030000Y-139260000D02*
X135793334Y-139260000D01*
X135768948Y-139262402D01*
X135745499Y-139269515D01*
X135723888Y-139281066D01*
X135704946Y-139296612D01*
X135689400Y-139315554D01*
X135677849Y-139337165D01*
X135670736Y-139360614D01*
X135668334Y-139385000D01*
X135670736Y-139409386D01*
X135677849Y-139432835D01*
X135689400Y-139454446D01*
X135704946Y-139473388D01*
X135723888Y-139488934D01*
X135745499Y-139500485D01*
X135768948Y-139507598D01*
X135916603Y-139536968D01*
X135916606Y-139536969D01*
X135916605Y-139536969D01*
X136091678Y-139609486D01*
X136091679Y-139609487D01*
X136249241Y-139714767D01*
X136383233Y-139848759D01*
X136383234Y-139848761D01*
X136488514Y-140006322D01*
X136544603Y-140141734D01*
X136561032Y-140181397D01*
X136598000Y-140367250D01*
X136598000Y-140556750D01*
X136561032Y-140742603D01*
X136561031Y-140742605D01*
X136488514Y-140917678D01*
X136488513Y-140917679D01*
X136383233Y-141075241D01*
X136249241Y-141209233D01*
X136169923Y-141262232D01*
X136091678Y-141314514D01*
X135956266Y-141370603D01*
X135916603Y-141387032D01*
X135730750Y-141424000D01*
X135541250Y-141424000D01*
X135355397Y-141387032D01*
X135315734Y-141370603D01*
X135180322Y-141314514D01*
X135102077Y-141262232D01*
X135022759Y-141209233D01*
X134888767Y-141075241D01*
X134783487Y-140917679D01*
X134783486Y-140917678D01*
X134710969Y-140742605D01*
X134710968Y-140742603D01*
X134674000Y-140556750D01*
X134674000Y-140367250D01*
X134710968Y-140181397D01*
X134727397Y-140141734D01*
X134783486Y-140006322D01*
X134888766Y-139848761D01*
X134888767Y-139848759D01*
X135022759Y-139714767D01*
X135180321Y-139609487D01*
X135180322Y-139609486D01*
X135355395Y-139536969D01*
X135355394Y-139536969D01*
X135355397Y-139536968D01*
X135503052Y-139507598D01*
X135526501Y-139500485D01*
X135548112Y-139488934D01*
X135567054Y-139473389D01*
X135582599Y-139454447D01*
X135594151Y-139432836D01*
X135601264Y-139409387D01*
X135603666Y-139385001D01*
X135601264Y-139360614D01*
X135594151Y-139337165D01*
X135582600Y-139315554D01*
X135567055Y-139296612D01*
X135548113Y-139281067D01*
X135526502Y-139269515D01*
X135503053Y-139262402D01*
X135478666Y-139260000D01*
X134030000Y-139260000D01*
X134030000Y-137260000D01*
X136030000Y-137260000D01*
X136030000Y-139260000D01*
X136030000Y-139260000D01*
G37*
G36*
X141110000Y-139260000D02*
X140873334Y-139260000D01*
X140848948Y-139262402D01*
X140825499Y-139269515D01*
X140803888Y-139281066D01*
X140784946Y-139296612D01*
X140769400Y-139315554D01*
X140757849Y-139337165D01*
X140750736Y-139360614D01*
X140748334Y-139385000D01*
X140750736Y-139409386D01*
X140757849Y-139432835D01*
X140769400Y-139454446D01*
X140784946Y-139473388D01*
X140803888Y-139488934D01*
X140825499Y-139500485D01*
X140848948Y-139507598D01*
X140996603Y-139536968D01*
X140996606Y-139536969D01*
X140996605Y-139536969D01*
X141171678Y-139609486D01*
X141171679Y-139609487D01*
X141329241Y-139714767D01*
X141463233Y-139848759D01*
X141463234Y-139848761D01*
X141568514Y-140006322D01*
X141624603Y-140141734D01*
X141641032Y-140181397D01*
X141678000Y-140367250D01*
X141678000Y-140556750D01*
X141641032Y-140742603D01*
X141641031Y-140742605D01*
X141568514Y-140917678D01*
X141568513Y-140917679D01*
X141463233Y-141075241D01*
X141329241Y-141209233D01*
X141249923Y-141262232D01*
X141171678Y-141314514D01*
X141036266Y-141370603D01*
X140996603Y-141387032D01*
X140810750Y-141424000D01*
X140621250Y-141424000D01*
X140435397Y-141387032D01*
X140395734Y-141370603D01*
X140260322Y-141314514D01*
X140182077Y-141262232D01*
X140102759Y-141209233D01*
X139968767Y-141075241D01*
X139863487Y-140917679D01*
X139863486Y-140917678D01*
X139790969Y-140742605D01*
X139790968Y-140742603D01*
X139754000Y-140556750D01*
X139754000Y-140367250D01*
X139790968Y-140181397D01*
X139807397Y-140141734D01*
X139863486Y-140006322D01*
X139968766Y-139848761D01*
X139968767Y-139848759D01*
X140102759Y-139714767D01*
X140260321Y-139609487D01*
X140260322Y-139609486D01*
X140435395Y-139536969D01*
X140435394Y-139536969D01*
X140435397Y-139536968D01*
X140583052Y-139507598D01*
X140606501Y-139500485D01*
X140628112Y-139488934D01*
X140647054Y-139473389D01*
X140662599Y-139454447D01*
X140674151Y-139432836D01*
X140681264Y-139409387D01*
X140683666Y-139385001D01*
X140681264Y-139360614D01*
X140674151Y-139337165D01*
X140662600Y-139315554D01*
X140647055Y-139296612D01*
X140628113Y-139281067D01*
X140606502Y-139269515D01*
X140583053Y-139262402D01*
X140558666Y-139260000D01*
X139110000Y-139260000D01*
X139110000Y-137260000D01*
X141110000Y-137260000D01*
X141110000Y-139260000D01*
X141110000Y-139260000D01*
G37*
G36*
X143650000Y-139260000D02*
X143413334Y-139260000D01*
X143388948Y-139262402D01*
X143365499Y-139269515D01*
X143343888Y-139281066D01*
X143324946Y-139296612D01*
X143309400Y-139315554D01*
X143297849Y-139337165D01*
X143290736Y-139360614D01*
X143288334Y-139385000D01*
X143290736Y-139409386D01*
X143297849Y-139432835D01*
X143309400Y-139454446D01*
X143324946Y-139473388D01*
X143343888Y-139488934D01*
X143365499Y-139500485D01*
X143388948Y-139507598D01*
X143536603Y-139536968D01*
X143536606Y-139536969D01*
X143536605Y-139536969D01*
X143711678Y-139609486D01*
X143711679Y-139609487D01*
X143869241Y-139714767D01*
X144003233Y-139848759D01*
X144003234Y-139848761D01*
X144108514Y-140006322D01*
X144164603Y-140141734D01*
X144181032Y-140181397D01*
X144218000Y-140367250D01*
X144218000Y-140556750D01*
X144181032Y-140742603D01*
X144181031Y-140742605D01*
X144108514Y-140917678D01*
X144108513Y-140917679D01*
X144003233Y-141075241D01*
X143869241Y-141209233D01*
X143789923Y-141262232D01*
X143711678Y-141314514D01*
X143576266Y-141370603D01*
X143536603Y-141387032D01*
X143350750Y-141424000D01*
X143161250Y-141424000D01*
X142975397Y-141387032D01*
X142935734Y-141370603D01*
X142800322Y-141314514D01*
X142722077Y-141262232D01*
X142642759Y-141209233D01*
X142508767Y-141075241D01*
X142403487Y-140917679D01*
X142403486Y-140917678D01*
X142330969Y-140742605D01*
X142330968Y-140742603D01*
X142294000Y-140556750D01*
X142294000Y-140367250D01*
X142330968Y-140181397D01*
X142347397Y-140141734D01*
X142403486Y-140006322D01*
X142508766Y-139848761D01*
X142508767Y-139848759D01*
X142642759Y-139714767D01*
X142800321Y-139609487D01*
X142800322Y-139609486D01*
X142975395Y-139536969D01*
X142975394Y-139536969D01*
X142975397Y-139536968D01*
X143123052Y-139507598D01*
X143146501Y-139500485D01*
X143168112Y-139488934D01*
X143187054Y-139473389D01*
X143202599Y-139454447D01*
X143214151Y-139432836D01*
X143221264Y-139409387D01*
X143223666Y-139385001D01*
X143221264Y-139360614D01*
X143214151Y-139337165D01*
X143202600Y-139315554D01*
X143187055Y-139296612D01*
X143168113Y-139281067D01*
X143146502Y-139269515D01*
X143123053Y-139262402D01*
X143098666Y-139260000D01*
X141650000Y-139260000D01*
X141650000Y-137260000D01*
X143650000Y-137260000D01*
X143650000Y-139260000D01*
X143650000Y-139260000D01*
G37*
G36*
X151156603Y-139536968D02*
X151156606Y-139536969D01*
X151156605Y-139536969D01*
X151331678Y-139609486D01*
X151331679Y-139609487D01*
X151489241Y-139714767D01*
X151623233Y-139848759D01*
X151623234Y-139848761D01*
X151728514Y-140006322D01*
X151784603Y-140141734D01*
X151801032Y-140181397D01*
X151838000Y-140367250D01*
X151838000Y-140556750D01*
X151801032Y-140742603D01*
X151801031Y-140742605D01*
X151728514Y-140917678D01*
X151728513Y-140917679D01*
X151623233Y-141075241D01*
X151489241Y-141209233D01*
X151409923Y-141262232D01*
X151331678Y-141314514D01*
X151196266Y-141370603D01*
X151156603Y-141387032D01*
X150970750Y-141424000D01*
X150781250Y-141424000D01*
X150595397Y-141387032D01*
X150555734Y-141370603D01*
X150420322Y-141314514D01*
X150342077Y-141262232D01*
X150262759Y-141209233D01*
X150128767Y-141075241D01*
X150023487Y-140917679D01*
X150023486Y-140917678D01*
X149950969Y-140742605D01*
X149950968Y-140742603D01*
X149914000Y-140556750D01*
X149914000Y-140367250D01*
X149950968Y-140181397D01*
X149967397Y-140141734D01*
X150023486Y-140006322D01*
X150128766Y-139848761D01*
X150128767Y-139848759D01*
X150262759Y-139714767D01*
X150420321Y-139609487D01*
X150420322Y-139609486D01*
X150595395Y-139536969D01*
X150595394Y-139536969D01*
X150595397Y-139536968D01*
X150781250Y-139500000D01*
X150970750Y-139500000D01*
X151156603Y-139536968D01*
X151156603Y-139536968D01*
G37*
G36*
X138570000Y-139260000D02*
X136570000Y-139260000D01*
X136570000Y-137260000D01*
X138570000Y-137260000D01*
X138570000Y-139260000D01*
X138570000Y-139260000D01*
G37*
G36*
X130950000Y-139260000D02*
X128950000Y-139260000D01*
X128950000Y-137260000D01*
X130950000Y-137260000D01*
X130950000Y-139260000D01*
X130950000Y-139260000D01*
G37*
G36*
X128410000Y-139260000D02*
X126410000Y-139260000D01*
X126410000Y-137260000D01*
X128410000Y-137260000D01*
X128410000Y-139260000D01*
X128410000Y-139260000D01*
G37*
G36*
X146190000Y-139260000D02*
X144190000Y-139260000D01*
X144190000Y-137260000D01*
X146190000Y-137260000D01*
X146190000Y-139260000D01*
X146190000Y-139260000D01*
G37*
G36*
X146240000Y-135060000D02*
X144240000Y-135060000D01*
X144240000Y-133060000D01*
X146240000Y-133060000D01*
X146240000Y-135060000D01*
X146240000Y-135060000D01*
G37*
G36*
X143700000Y-135060000D02*
X141700000Y-135060000D01*
X141700000Y-133060000D01*
X143700000Y-133060000D01*
X143700000Y-135060000D01*
X143700000Y-135060000D01*
G37*
G36*
X141160000Y-135060000D02*
X139160000Y-135060000D01*
X139160000Y-133060000D01*
X141160000Y-133060000D01*
X141160000Y-135060000D01*
X141160000Y-135060000D01*
G37*
G36*
X136080000Y-135060000D02*
X134080000Y-135060000D01*
X134080000Y-133060000D01*
X136080000Y-133060000D01*
X136080000Y-135060000D01*
X136080000Y-135060000D01*
G37*
G36*
X138620000Y-135060000D02*
X136620000Y-135060000D01*
X136620000Y-133060000D01*
X138620000Y-133060000D01*
X138620000Y-135060000D01*
X138620000Y-135060000D01*
G37*
G36*
X133540000Y-135060000D02*
X131540000Y-135060000D01*
X131540000Y-133060000D01*
X133540000Y-133060000D01*
X133540000Y-135060000D01*
X133540000Y-135060000D01*
G37*
G36*
X131000000Y-135060000D02*
X129000000Y-135060000D01*
X129000000Y-133060000D01*
X131000000Y-133060000D01*
X131000000Y-135060000D01*
X131000000Y-135060000D01*
G37*
G36*
X128460000Y-135060000D02*
X126460000Y-135060000D01*
X126460000Y-133060000D01*
X128460000Y-133060000D01*
X128460000Y-135060000D01*
X128460000Y-135060000D01*
G37*
G36*
X151156603Y-129376968D02*
X151156606Y-129376969D01*
X151156605Y-129376969D01*
X151331678Y-129449486D01*
X151331679Y-129449487D01*
X151489241Y-129554767D01*
X151623233Y-129688759D01*
X151623234Y-129688761D01*
X151728514Y-129846322D01*
X151784603Y-129981734D01*
X151801032Y-130021397D01*
X151838000Y-130207250D01*
X151838000Y-130396750D01*
X151801032Y-130582603D01*
X151801031Y-130582605D01*
X151728514Y-130757678D01*
X151728513Y-130757679D01*
X151623233Y-130915241D01*
X151489241Y-131049233D01*
X151409923Y-131102232D01*
X151331678Y-131154514D01*
X151196266Y-131210603D01*
X151156603Y-131227032D01*
X150970750Y-131264000D01*
X150781250Y-131264000D01*
X150595397Y-131227032D01*
X150555734Y-131210603D01*
X150420322Y-131154514D01*
X150342077Y-131102232D01*
X150262759Y-131049233D01*
X150128767Y-130915241D01*
X150023487Y-130757679D01*
X150023486Y-130757678D01*
X149950969Y-130582605D01*
X149950968Y-130582603D01*
X149914000Y-130396750D01*
X149914000Y-130207250D01*
X149950968Y-130021397D01*
X149967397Y-129981734D01*
X150023486Y-129846322D01*
X150128766Y-129688761D01*
X150128767Y-129688759D01*
X150262759Y-129554767D01*
X150420321Y-129449487D01*
X150420322Y-129449486D01*
X150595395Y-129376969D01*
X150595394Y-129376969D01*
X150595397Y-129376968D01*
X150781250Y-129340000D01*
X150970750Y-129340000D01*
X151156603Y-129376968D01*
X151156603Y-129376968D01*
G37*
G36*
X148616603Y-129376968D02*
X148616606Y-129376969D01*
X148616605Y-129376969D01*
X148791678Y-129449486D01*
X148791679Y-129449487D01*
X148949241Y-129554767D01*
X149083233Y-129688759D01*
X149083234Y-129688761D01*
X149188514Y-129846322D01*
X149244603Y-129981734D01*
X149261032Y-130021397D01*
X149298000Y-130207250D01*
X149298000Y-130396750D01*
X149261032Y-130582603D01*
X149261031Y-130582605D01*
X149188514Y-130757678D01*
X149188513Y-130757679D01*
X149083233Y-130915241D01*
X148949241Y-131049233D01*
X148869923Y-131102232D01*
X148791678Y-131154514D01*
X148656266Y-131210603D01*
X148616603Y-131227032D01*
X148430750Y-131264000D01*
X148241250Y-131264000D01*
X148055397Y-131227032D01*
X148015734Y-131210603D01*
X147880322Y-131154514D01*
X147802077Y-131102232D01*
X147722759Y-131049233D01*
X147588767Y-130915241D01*
X147483487Y-130757679D01*
X147483486Y-130757678D01*
X147410969Y-130582605D01*
X147410968Y-130582603D01*
X147374000Y-130396750D01*
X147374000Y-130207250D01*
X147410968Y-130021397D01*
X147427397Y-129981734D01*
X147483486Y-129846322D01*
X147588766Y-129688761D01*
X147588767Y-129688759D01*
X147722759Y-129554767D01*
X147880321Y-129449487D01*
X147880322Y-129449486D01*
X148055395Y-129376969D01*
X148055394Y-129376969D01*
X148055397Y-129376968D01*
X148241250Y-129340000D01*
X148430750Y-129340000D01*
X148616603Y-129376968D01*
X148616603Y-129376968D01*
G37*
G36*
X146076603Y-129376968D02*
X146076606Y-129376969D01*
X146076605Y-129376969D01*
X146251678Y-129449486D01*
X146251679Y-129449487D01*
X146409241Y-129554767D01*
X146543233Y-129688759D01*
X146543234Y-129688761D01*
X146648514Y-129846322D01*
X146704603Y-129981734D01*
X146721032Y-130021397D01*
X146758000Y-130207250D01*
X146758000Y-130396750D01*
X146721032Y-130582603D01*
X146721031Y-130582605D01*
X146648514Y-130757678D01*
X146648513Y-130757679D01*
X146543233Y-130915241D01*
X146409241Y-131049233D01*
X146329923Y-131102232D01*
X146251678Y-131154514D01*
X146116266Y-131210603D01*
X146076603Y-131227032D01*
X145890750Y-131264000D01*
X145701250Y-131264000D01*
X145515397Y-131227032D01*
X145475734Y-131210603D01*
X145340322Y-131154514D01*
X145262077Y-131102232D01*
X145182759Y-131049233D01*
X145048767Y-130915241D01*
X144943487Y-130757679D01*
X144943486Y-130757678D01*
X144870969Y-130582605D01*
X144870968Y-130582603D01*
X144834000Y-130396750D01*
X144834000Y-130207250D01*
X144870968Y-130021397D01*
X144887397Y-129981734D01*
X144943486Y-129846322D01*
X145048766Y-129688761D01*
X145048767Y-129688759D01*
X145182759Y-129554767D01*
X145340321Y-129449487D01*
X145340322Y-129449486D01*
X145515395Y-129376969D01*
X145515394Y-129376969D01*
X145515397Y-129376968D01*
X145701250Y-129340000D01*
X145890750Y-129340000D01*
X146076603Y-129376968D01*
X146076603Y-129376968D01*
G37*
G36*
X143536603Y-129376968D02*
X143536606Y-129376969D01*
X143536605Y-129376969D01*
X143711678Y-129449486D01*
X143711679Y-129449487D01*
X143869241Y-129554767D01*
X144003233Y-129688759D01*
X144003234Y-129688761D01*
X144108514Y-129846322D01*
X144164603Y-129981734D01*
X144181032Y-130021397D01*
X144218000Y-130207250D01*
X144218000Y-130396750D01*
X144181032Y-130582603D01*
X144181031Y-130582605D01*
X144108514Y-130757678D01*
X144108513Y-130757679D01*
X144003233Y-130915241D01*
X143869241Y-131049233D01*
X143789923Y-131102232D01*
X143711678Y-131154514D01*
X143576266Y-131210603D01*
X143536603Y-131227032D01*
X143350750Y-131264000D01*
X143161250Y-131264000D01*
X142975397Y-131227032D01*
X142935734Y-131210603D01*
X142800322Y-131154514D01*
X142722077Y-131102232D01*
X142642759Y-131049233D01*
X142508767Y-130915241D01*
X142403487Y-130757679D01*
X142403486Y-130757678D01*
X142330969Y-130582605D01*
X142330968Y-130582603D01*
X142294000Y-130396750D01*
X142294000Y-130207250D01*
X142330968Y-130021397D01*
X142347397Y-129981734D01*
X142403486Y-129846322D01*
X142508766Y-129688761D01*
X142508767Y-129688759D01*
X142642759Y-129554767D01*
X142800321Y-129449487D01*
X142800322Y-129449486D01*
X142975395Y-129376969D01*
X142975394Y-129376969D01*
X142975397Y-129376968D01*
X143161250Y-129340000D01*
X143350750Y-129340000D01*
X143536603Y-129376968D01*
X143536603Y-129376968D01*
G37*
G36*
X140996603Y-129376968D02*
X140996606Y-129376969D01*
X140996605Y-129376969D01*
X141171678Y-129449486D01*
X141171679Y-129449487D01*
X141329241Y-129554767D01*
X141463233Y-129688759D01*
X141463234Y-129688761D01*
X141568514Y-129846322D01*
X141624603Y-129981734D01*
X141641032Y-130021397D01*
X141678000Y-130207250D01*
X141678000Y-130396750D01*
X141641032Y-130582603D01*
X141641031Y-130582605D01*
X141568514Y-130757678D01*
X141568513Y-130757679D01*
X141463233Y-130915241D01*
X141329241Y-131049233D01*
X141249923Y-131102232D01*
X141171678Y-131154514D01*
X141036266Y-131210603D01*
X140996603Y-131227032D01*
X140810750Y-131264000D01*
X140621250Y-131264000D01*
X140435397Y-131227032D01*
X140395734Y-131210603D01*
X140260322Y-131154514D01*
X140182077Y-131102232D01*
X140102759Y-131049233D01*
X139968767Y-130915241D01*
X139863487Y-130757679D01*
X139863486Y-130757678D01*
X139790969Y-130582605D01*
X139790968Y-130582603D01*
X139754000Y-130396750D01*
X139754000Y-130207250D01*
X139790968Y-130021397D01*
X139807397Y-129981734D01*
X139863486Y-129846322D01*
X139968766Y-129688761D01*
X139968767Y-129688759D01*
X140102759Y-129554767D01*
X140260321Y-129449487D01*
X140260322Y-129449486D01*
X140435395Y-129376969D01*
X140435394Y-129376969D01*
X140435397Y-129376968D01*
X140621250Y-129340000D01*
X140810750Y-129340000D01*
X140996603Y-129376968D01*
X140996603Y-129376968D01*
G37*
G36*
X138456603Y-129376968D02*
X138456606Y-129376969D01*
X138456605Y-129376969D01*
X138631678Y-129449486D01*
X138631679Y-129449487D01*
X138789241Y-129554767D01*
X138923233Y-129688759D01*
X138923234Y-129688761D01*
X139028514Y-129846322D01*
X139084603Y-129981734D01*
X139101032Y-130021397D01*
X139138000Y-130207250D01*
X139138000Y-130396750D01*
X139101032Y-130582603D01*
X139101031Y-130582605D01*
X139028514Y-130757678D01*
X139028513Y-130757679D01*
X138923233Y-130915241D01*
X138789241Y-131049233D01*
X138709923Y-131102232D01*
X138631678Y-131154514D01*
X138496266Y-131210603D01*
X138456603Y-131227032D01*
X138270750Y-131264000D01*
X138081250Y-131264000D01*
X137895397Y-131227032D01*
X137855734Y-131210603D01*
X137720322Y-131154514D01*
X137642077Y-131102232D01*
X137562759Y-131049233D01*
X137428767Y-130915241D01*
X137323487Y-130757679D01*
X137323486Y-130757678D01*
X137250969Y-130582605D01*
X137250968Y-130582603D01*
X137214000Y-130396750D01*
X137214000Y-130207250D01*
X137250968Y-130021397D01*
X137267397Y-129981734D01*
X137323486Y-129846322D01*
X137428766Y-129688761D01*
X137428767Y-129688759D01*
X137562759Y-129554767D01*
X137720321Y-129449487D01*
X137720322Y-129449486D01*
X137895395Y-129376969D01*
X137895394Y-129376969D01*
X137895397Y-129376968D01*
X138081250Y-129340000D01*
X138270750Y-129340000D01*
X138456603Y-129376968D01*
X138456603Y-129376968D01*
G37*
G36*
X135916603Y-129376968D02*
X135916606Y-129376969D01*
X135916605Y-129376969D01*
X136091678Y-129449486D01*
X136091679Y-129449487D01*
X136249241Y-129554767D01*
X136383233Y-129688759D01*
X136383234Y-129688761D01*
X136488514Y-129846322D01*
X136544603Y-129981734D01*
X136561032Y-130021397D01*
X136598000Y-130207250D01*
X136598000Y-130396750D01*
X136561032Y-130582603D01*
X136561031Y-130582605D01*
X136488514Y-130757678D01*
X136488513Y-130757679D01*
X136383233Y-130915241D01*
X136249241Y-131049233D01*
X136169923Y-131102232D01*
X136091678Y-131154514D01*
X135956266Y-131210603D01*
X135916603Y-131227032D01*
X135730750Y-131264000D01*
X135541250Y-131264000D01*
X135355397Y-131227032D01*
X135315734Y-131210603D01*
X135180322Y-131154514D01*
X135102077Y-131102232D01*
X135022759Y-131049233D01*
X134888767Y-130915241D01*
X134783487Y-130757679D01*
X134783486Y-130757678D01*
X134710969Y-130582605D01*
X134710968Y-130582603D01*
X134674000Y-130396750D01*
X134674000Y-130207250D01*
X134710968Y-130021397D01*
X134727397Y-129981734D01*
X134783486Y-129846322D01*
X134888766Y-129688761D01*
X134888767Y-129688759D01*
X135022759Y-129554767D01*
X135180321Y-129449487D01*
X135180322Y-129449486D01*
X135355395Y-129376969D01*
X135355394Y-129376969D01*
X135355397Y-129376968D01*
X135541250Y-129340000D01*
X135730750Y-129340000D01*
X135916603Y-129376968D01*
X135916603Y-129376968D01*
G37*
G36*
X146240000Y-127440000D02*
X144240000Y-127440000D01*
X144240000Y-125440000D01*
X146240000Y-125440000D01*
X146240000Y-127440000D01*
X146240000Y-127440000D01*
G37*
G36*
X143700000Y-127440000D02*
X141700000Y-127440000D01*
X141700000Y-125440000D01*
X143700000Y-125440000D01*
X143700000Y-127440000D01*
X143700000Y-127440000D01*
G37*
G36*
X141160000Y-127440000D02*
X139160000Y-127440000D01*
X139160000Y-125440000D01*
X141160000Y-125440000D01*
X141160000Y-127440000D01*
X141160000Y-127440000D01*
G37*
G36*
X138620000Y-127440000D02*
X136620000Y-127440000D01*
X136620000Y-125440000D01*
X138620000Y-125440000D01*
X138620000Y-127440000D01*
X138620000Y-127440000D01*
G37*
G36*
X131000000Y-127440000D02*
X129000000Y-127440000D01*
X129000000Y-125440000D01*
X131000000Y-125440000D01*
X131000000Y-127440000D01*
X131000000Y-127440000D01*
G37*
G36*
X128460000Y-127440000D02*
X126460000Y-127440000D01*
X126460000Y-125440000D01*
X128460000Y-125440000D01*
X128460000Y-127440000D01*
X128460000Y-127440000D01*
G37*
G36*
X136080000Y-127440000D02*
X134080000Y-127440000D01*
X134080000Y-125440000D01*
X136080000Y-125440000D01*
X136080000Y-127440000D01*
X136080000Y-127440000D01*
G37*
G36*
X133540000Y-127440000D02*
X131540000Y-127440000D01*
X131540000Y-125440000D01*
X133540000Y-125440000D01*
X133540000Y-127440000D01*
X133540000Y-127440000D01*
G37*
G36*
X153600000Y-124488000D02*
X151200000Y-124488000D01*
X151200000Y-119588000D01*
X153600000Y-119588000D01*
X153600000Y-124488000D01*
X153600000Y-124488000D01*
G37*
G36*
X146111122Y-122798517D02*
X146159085Y-122813066D01*
X146203275Y-122836686D01*
X146242018Y-122868482D01*
X146273814Y-122907225D01*
X146297434Y-122951415D01*
X146311983Y-122999378D01*
X146317500Y-123055391D01*
X146317500Y-123880609D01*
X146311983Y-123936622D01*
X146297434Y-123984585D01*
X146273814Y-124028775D01*
X146242018Y-124067518D01*
X146203275Y-124099314D01*
X146159085Y-124122934D01*
X146111122Y-124137483D01*
X146055109Y-124143000D01*
X145304891Y-124143000D01*
X145248878Y-124137483D01*
X145200915Y-124122934D01*
X145156725Y-124099314D01*
X145117982Y-124067518D01*
X145086186Y-124028775D01*
X145062566Y-123984585D01*
X145048017Y-123936622D01*
X145042500Y-123880609D01*
X145042500Y-123055391D01*
X145048017Y-122999378D01*
X145062566Y-122951415D01*
X145086186Y-122907225D01*
X145117982Y-122868482D01*
X145156725Y-122836686D01*
X145200915Y-122813066D01*
X145248878Y-122798517D01*
X145304891Y-122793000D01*
X146055109Y-122793000D01*
X146111122Y-122798517D01*
X146111122Y-122798517D01*
G37*
G36*
X147686122Y-122798517D02*
X147734085Y-122813066D01*
X147778275Y-122836686D01*
X147817018Y-122868482D01*
X147848814Y-122907225D01*
X147872434Y-122951415D01*
X147886983Y-122999378D01*
X147892500Y-123055391D01*
X147892500Y-123880609D01*
X147886983Y-123936622D01*
X147872434Y-123984585D01*
X147848814Y-124028775D01*
X147817018Y-124067518D01*
X147778275Y-124099314D01*
X147734085Y-124122934D01*
X147686122Y-124137483D01*
X147630109Y-124143000D01*
X146879891Y-124143000D01*
X146823878Y-124137483D01*
X146775915Y-124122934D01*
X146731725Y-124099314D01*
X146692982Y-124067518D01*
X146661186Y-124028775D01*
X146637566Y-123984585D01*
X146623017Y-123936622D01*
X146617500Y-123880609D01*
X146617500Y-123055391D01*
X146623017Y-122999378D01*
X146637566Y-122951415D01*
X146661186Y-122907225D01*
X146692982Y-122868482D01*
X146731725Y-122836686D01*
X146775915Y-122813066D01*
X146823878Y-122798517D01*
X146879891Y-122793000D01*
X147630109Y-122793000D01*
X147686122Y-122798517D01*
X147686122Y-122798517D01*
G37*
G36*
X130462000Y-123882000D02*
X125062000Y-123882000D01*
X125062000Y-116402000D01*
X130462000Y-116402000D01*
X130462000Y-123882000D01*
X130462000Y-123882000D01*
G37*
G36*
X137046122Y-121782517D02*
X137094085Y-121797066D01*
X137138275Y-121820686D01*
X137177018Y-121852482D01*
X137208814Y-121891225D01*
X137232434Y-121935415D01*
X137246983Y-121983378D01*
X137252500Y-122039391D01*
X137252500Y-122864609D01*
X137246983Y-122920622D01*
X137232434Y-122968585D01*
X137208814Y-123012775D01*
X137177018Y-123051518D01*
X137138275Y-123083314D01*
X137094085Y-123106934D01*
X137046122Y-123121483D01*
X136990109Y-123127000D01*
X136239891Y-123127000D01*
X136183878Y-123121483D01*
X136135915Y-123106934D01*
X136091725Y-123083314D01*
X136052982Y-123051518D01*
X136021186Y-123012775D01*
X135997566Y-122968585D01*
X135983017Y-122920622D01*
X135977500Y-122864609D01*
X135977500Y-122039391D01*
X135983017Y-121983378D01*
X135997566Y-121935415D01*
X136021186Y-121891225D01*
X136052982Y-121852482D01*
X136091725Y-121820686D01*
X136135915Y-121797066D01*
X136183878Y-121782517D01*
X136239891Y-121777000D01*
X136990109Y-121777000D01*
X137046122Y-121782517D01*
X137046122Y-121782517D01*
G37*
G36*
X138621122Y-121782517D02*
X138669085Y-121797066D01*
X138713275Y-121820686D01*
X138752018Y-121852482D01*
X138783814Y-121891225D01*
X138807434Y-121935415D01*
X138821983Y-121983378D01*
X138827500Y-122039391D01*
X138827500Y-122864609D01*
X138821983Y-122920622D01*
X138807434Y-122968585D01*
X138783814Y-123012775D01*
X138752018Y-123051518D01*
X138713275Y-123083314D01*
X138669085Y-123106934D01*
X138621122Y-123121483D01*
X138565109Y-123127000D01*
X137814891Y-123127000D01*
X137758878Y-123121483D01*
X137710915Y-123106934D01*
X137666725Y-123083314D01*
X137627982Y-123051518D01*
X137596186Y-123012775D01*
X137572566Y-122968585D01*
X137558017Y-122920622D01*
X137552500Y-122864609D01*
X137552500Y-122039391D01*
X137558017Y-121983378D01*
X137572566Y-121935415D01*
X137596186Y-121891225D01*
X137627982Y-121852482D01*
X137666725Y-121820686D01*
X137710915Y-121797066D01*
X137758878Y-121782517D01*
X137814891Y-121777000D01*
X138565109Y-121777000D01*
X138621122Y-121782517D01*
X138621122Y-121782517D01*
G37*
G36*
X142506122Y-121758517D02*
X142554085Y-121773066D01*
X142598275Y-121796686D01*
X142637018Y-121828482D01*
X142668814Y-121867225D01*
X142692434Y-121911415D01*
X142706983Y-121959378D01*
X142712500Y-122015391D01*
X142712500Y-122840609D01*
X142706983Y-122896622D01*
X142692434Y-122944585D01*
X142668814Y-122988775D01*
X142637018Y-123027518D01*
X142598275Y-123059314D01*
X142554085Y-123082934D01*
X142506122Y-123097483D01*
X142450109Y-123103000D01*
X141699891Y-123103000D01*
X141643878Y-123097483D01*
X141595915Y-123082934D01*
X141551725Y-123059314D01*
X141512982Y-123027518D01*
X141481186Y-122988775D01*
X141457566Y-122944585D01*
X141443017Y-122896622D01*
X141437500Y-122840609D01*
X141437500Y-122015391D01*
X141443017Y-121959378D01*
X141457566Y-121911415D01*
X141481186Y-121867225D01*
X141512982Y-121828482D01*
X141551725Y-121796686D01*
X141595915Y-121773066D01*
X141643878Y-121758517D01*
X141699891Y-121753000D01*
X142450109Y-121753000D01*
X142506122Y-121758517D01*
X142506122Y-121758517D01*
G37*
G36*
X134721122Y-121758517D02*
X134769085Y-121773066D01*
X134813275Y-121796686D01*
X134852018Y-121828482D01*
X134883814Y-121867225D01*
X134907434Y-121911415D01*
X134921983Y-121959378D01*
X134927500Y-122015391D01*
X134927500Y-122840609D01*
X134921983Y-122896622D01*
X134907434Y-122944585D01*
X134883814Y-122988775D01*
X134852018Y-123027518D01*
X134813275Y-123059314D01*
X134769085Y-123082934D01*
X134721122Y-123097483D01*
X134665109Y-123103000D01*
X133914891Y-123103000D01*
X133858878Y-123097483D01*
X133810915Y-123082934D01*
X133766725Y-123059314D01*
X133727982Y-123027518D01*
X133696186Y-122988775D01*
X133672566Y-122944585D01*
X133658017Y-122896622D01*
X133652500Y-122840609D01*
X133652500Y-122015391D01*
X133658017Y-121959378D01*
X133672566Y-121911415D01*
X133696186Y-121867225D01*
X133727982Y-121828482D01*
X133766725Y-121796686D01*
X133810915Y-121773066D01*
X133858878Y-121758517D01*
X133914891Y-121753000D01*
X134665109Y-121753000D01*
X134721122Y-121758517D01*
X134721122Y-121758517D01*
G37*
G36*
X133146122Y-121758517D02*
X133194085Y-121773066D01*
X133238275Y-121796686D01*
X133277018Y-121828482D01*
X133308814Y-121867225D01*
X133332434Y-121911415D01*
X133346983Y-121959378D01*
X133352500Y-122015391D01*
X133352500Y-122840609D01*
X133346983Y-122896622D01*
X133332434Y-122944585D01*
X133308814Y-122988775D01*
X133277018Y-123027518D01*
X133238275Y-123059314D01*
X133194085Y-123082934D01*
X133146122Y-123097483D01*
X133090109Y-123103000D01*
X132339891Y-123103000D01*
X132283878Y-123097483D01*
X132235915Y-123082934D01*
X132191725Y-123059314D01*
X132152982Y-123027518D01*
X132121186Y-122988775D01*
X132097566Y-122944585D01*
X132083017Y-122896622D01*
X132077500Y-122840609D01*
X132077500Y-122015391D01*
X132083017Y-121959378D01*
X132097566Y-121911415D01*
X132121186Y-121867225D01*
X132152982Y-121828482D01*
X132191725Y-121796686D01*
X132235915Y-121773066D01*
X132283878Y-121758517D01*
X132339891Y-121753000D01*
X133090109Y-121753000D01*
X133146122Y-121758517D01*
X133146122Y-121758517D01*
G37*
G36*
X140931122Y-121758517D02*
X140979085Y-121773066D01*
X141023275Y-121796686D01*
X141062018Y-121828482D01*
X141093814Y-121867225D01*
X141117434Y-121911415D01*
X141131983Y-121959378D01*
X141137500Y-122015391D01*
X141137500Y-122840609D01*
X141131983Y-122896622D01*
X141117434Y-122944585D01*
X141093814Y-122988775D01*
X141062018Y-123027518D01*
X141023275Y-123059314D01*
X140979085Y-123082934D01*
X140931122Y-123097483D01*
X140875109Y-123103000D01*
X140124891Y-123103000D01*
X140068878Y-123097483D01*
X140020915Y-123082934D01*
X139976725Y-123059314D01*
X139937982Y-123027518D01*
X139906186Y-122988775D01*
X139882566Y-122944585D01*
X139868017Y-122896622D01*
X139862500Y-122840609D01*
X139862500Y-122015391D01*
X139868017Y-121959378D01*
X139882566Y-121911415D01*
X139906186Y-121867225D01*
X139937982Y-121828482D01*
X139976725Y-121796686D01*
X140020915Y-121773066D01*
X140068878Y-121758517D01*
X140124891Y-121753000D01*
X140875109Y-121753000D01*
X140931122Y-121758517D01*
X140931122Y-121758517D01*
G37*
G36*
X147671122Y-120768517D02*
X147719085Y-120783066D01*
X147763275Y-120806686D01*
X147802018Y-120838482D01*
X147833814Y-120877225D01*
X147857434Y-120921415D01*
X147871983Y-120969378D01*
X147877500Y-121025391D01*
X147877500Y-121850609D01*
X147871983Y-121906622D01*
X147857434Y-121954585D01*
X147833814Y-121998775D01*
X147802018Y-122037518D01*
X147763275Y-122069314D01*
X147719085Y-122092934D01*
X147671122Y-122107483D01*
X147615109Y-122113000D01*
X146864891Y-122113000D01*
X146808878Y-122107483D01*
X146760915Y-122092934D01*
X146716725Y-122069314D01*
X146677982Y-122037518D01*
X146646186Y-121998775D01*
X146622566Y-121954585D01*
X146608017Y-121906622D01*
X146602500Y-121850609D01*
X146602500Y-121025391D01*
X146608017Y-120969378D01*
X146622566Y-120921415D01*
X146646186Y-120877225D01*
X146677982Y-120838482D01*
X146716725Y-120806686D01*
X146760915Y-120783066D01*
X146808878Y-120768517D01*
X146864891Y-120763000D01*
X147615109Y-120763000D01*
X147671122Y-120768517D01*
X147671122Y-120768517D01*
G37*
G36*
X146096122Y-120768517D02*
X146144085Y-120783066D01*
X146188275Y-120806686D01*
X146227018Y-120838482D01*
X146258814Y-120877225D01*
X146282434Y-120921415D01*
X146296983Y-120969378D01*
X146302500Y-121025391D01*
X146302500Y-121850609D01*
X146296983Y-121906622D01*
X146282434Y-121954585D01*
X146258814Y-121998775D01*
X146227018Y-122037518D01*
X146188275Y-122069314D01*
X146144085Y-122092934D01*
X146096122Y-122107483D01*
X146040109Y-122113000D01*
X145289891Y-122113000D01*
X145233878Y-122107483D01*
X145185915Y-122092934D01*
X145141725Y-122069314D01*
X145102982Y-122037518D01*
X145071186Y-121998775D01*
X145047566Y-121954585D01*
X145033017Y-121906622D01*
X145027500Y-121850609D01*
X145027500Y-121025391D01*
X145033017Y-120969378D01*
X145047566Y-120921415D01*
X145071186Y-120877225D01*
X145102982Y-120838482D01*
X145141725Y-120806686D01*
X145185915Y-120783066D01*
X145233878Y-120768517D01*
X145289891Y-120763000D01*
X146040109Y-120763000D01*
X146096122Y-120768517D01*
X146096122Y-120768517D01*
G37*
G36*
X145971122Y-118778517D02*
X146019085Y-118793066D01*
X146063275Y-118816686D01*
X146102018Y-118848482D01*
X146133814Y-118887225D01*
X146157434Y-118931415D01*
X146171983Y-118979378D01*
X146177500Y-119035391D01*
X146177500Y-119860609D01*
X146171983Y-119916622D01*
X146157434Y-119964585D01*
X146133814Y-120008775D01*
X146102018Y-120047518D01*
X146063275Y-120079314D01*
X146019085Y-120102934D01*
X145971122Y-120117483D01*
X145915109Y-120123000D01*
X145164891Y-120123000D01*
X145108878Y-120117483D01*
X145060915Y-120102934D01*
X145016725Y-120079314D01*
X144977982Y-120047518D01*
X144946186Y-120008775D01*
X144922566Y-119964585D01*
X144908017Y-119916622D01*
X144902500Y-119860609D01*
X144902500Y-119035391D01*
X144908017Y-118979378D01*
X144922566Y-118931415D01*
X144946186Y-118887225D01*
X144977982Y-118848482D01*
X145016725Y-118816686D01*
X145060915Y-118793066D01*
X145108878Y-118778517D01*
X145164891Y-118773000D01*
X145915109Y-118773000D01*
X145971122Y-118778517D01*
X145971122Y-118778517D01*
G37*
G36*
X147546122Y-118778517D02*
X147594085Y-118793066D01*
X147638275Y-118816686D01*
X147677018Y-118848482D01*
X147708814Y-118887225D01*
X147732434Y-118931415D01*
X147746983Y-118979378D01*
X147752500Y-119035391D01*
X147752500Y-119860609D01*
X147746983Y-119916622D01*
X147732434Y-119964585D01*
X147708814Y-120008775D01*
X147677018Y-120047518D01*
X147638275Y-120079314D01*
X147594085Y-120102934D01*
X147546122Y-120117483D01*
X147490109Y-120123000D01*
X146739891Y-120123000D01*
X146683878Y-120117483D01*
X146635915Y-120102934D01*
X146591725Y-120079314D01*
X146552982Y-120047518D01*
X146521186Y-120008775D01*
X146497566Y-119964585D01*
X146483017Y-119916622D01*
X146477500Y-119860609D01*
X146477500Y-119035391D01*
X146483017Y-118979378D01*
X146497566Y-118931415D01*
X146521186Y-118887225D01*
X146552982Y-118848482D01*
X146591725Y-118816686D01*
X146635915Y-118793066D01*
X146683878Y-118778517D01*
X146739891Y-118773000D01*
X147490109Y-118773000D01*
X147546122Y-118778517D01*
X147546122Y-118778517D01*
G37*
G36*
X140985000Y-111310000D02*
X140987402Y-111334386D01*
X140994515Y-111357835D01*
X141006066Y-111379446D01*
X141021612Y-111398388D01*
X141040554Y-111413934D01*
X141062165Y-111425485D01*
X141085614Y-111432598D01*
X141110000Y-111435000D01*
X142960000Y-111435000D01*
X142960000Y-117985000D01*
X141110000Y-117985000D01*
X141085614Y-117987402D01*
X141062165Y-117994515D01*
X141040554Y-118006066D01*
X141021612Y-118021612D01*
X141006066Y-118040554D01*
X140994515Y-118062165D01*
X140987402Y-118085614D01*
X140985000Y-118110000D01*
X140985000Y-119960000D01*
X134435000Y-119960000D01*
X134435000Y-118110000D01*
X134432598Y-118085614D01*
X134425485Y-118062165D01*
X134413934Y-118040554D01*
X134398388Y-118021612D01*
X134379446Y-118006066D01*
X134357835Y-117994515D01*
X134334386Y-117987402D01*
X134310000Y-117985000D01*
X132460000Y-117985000D01*
X132460000Y-111585000D01*
X134460000Y-111585000D01*
X134460000Y-117835000D01*
X134462402Y-117859386D01*
X134469515Y-117882835D01*
X134481066Y-117904446D01*
X134496612Y-117923388D01*
X134515554Y-117938934D01*
X134537165Y-117950485D01*
X134560614Y-117957598D01*
X134585000Y-117960000D01*
X140835000Y-117960000D01*
X140859386Y-117957598D01*
X140882835Y-117950485D01*
X140904446Y-117938934D01*
X140923388Y-117923388D01*
X140938934Y-117904446D01*
X140950485Y-117882835D01*
X140957598Y-117859386D01*
X140960000Y-117835000D01*
X140960000Y-111585000D01*
X140957598Y-111560614D01*
X140950485Y-111537165D01*
X140938934Y-111515554D01*
X140923388Y-111496612D01*
X140904446Y-111481066D01*
X140882835Y-111469515D01*
X140859386Y-111462402D01*
X140835000Y-111460000D01*
X134585000Y-111460000D01*
X134560614Y-111462402D01*
X134537165Y-111469515D01*
X134515554Y-111481066D01*
X134496612Y-111496612D01*
X134481066Y-111515554D01*
X134469515Y-111537165D01*
X134462402Y-111560614D01*
X134460000Y-111585000D01*
X132460000Y-111585000D01*
X132460000Y-111435000D01*
X134310000Y-111435000D01*
X134334386Y-111432598D01*
X134357835Y-111425485D01*
X134379446Y-111413934D01*
X134398388Y-111398388D01*
X134413934Y-111379446D01*
X134425485Y-111357835D01*
X134432598Y-111334386D01*
X134435000Y-111310000D01*
X134435000Y-109460000D01*
X140985000Y-109460000D01*
X140985000Y-111310000D01*
X140985000Y-111310000D01*
G37*
G36*
X145986122Y-116848517D02*
X146034085Y-116863066D01*
X146078275Y-116886686D01*
X146117018Y-116918482D01*
X146148814Y-116957225D01*
X146172434Y-117001415D01*
X146186983Y-117049378D01*
X146192500Y-117105391D01*
X146192500Y-117930609D01*
X146186983Y-117986622D01*
X146172434Y-118034585D01*
X146148814Y-118078775D01*
X146117018Y-118117518D01*
X146078275Y-118149314D01*
X146034085Y-118172934D01*
X145986122Y-118187483D01*
X145930109Y-118193000D01*
X145179891Y-118193000D01*
X145123878Y-118187483D01*
X145075915Y-118172934D01*
X145031725Y-118149314D01*
X144992982Y-118117518D01*
X144961186Y-118078775D01*
X144937566Y-118034585D01*
X144923017Y-117986622D01*
X144917500Y-117930609D01*
X144917500Y-117105391D01*
X144923017Y-117049378D01*
X144937566Y-117001415D01*
X144961186Y-116957225D01*
X144992982Y-116918482D01*
X145031725Y-116886686D01*
X145075915Y-116863066D01*
X145123878Y-116848517D01*
X145179891Y-116843000D01*
X145930109Y-116843000D01*
X145986122Y-116848517D01*
X145986122Y-116848517D01*
G37*
G36*
X147561122Y-116848517D02*
X147609085Y-116863066D01*
X147653275Y-116886686D01*
X147692018Y-116918482D01*
X147723814Y-116957225D01*
X147747434Y-117001415D01*
X147761983Y-117049378D01*
X147767500Y-117105391D01*
X147767500Y-117930609D01*
X147761983Y-117986622D01*
X147747434Y-118034585D01*
X147723814Y-118078775D01*
X147692018Y-118117518D01*
X147653275Y-118149314D01*
X147609085Y-118172934D01*
X147561122Y-118187483D01*
X147505109Y-118193000D01*
X146754891Y-118193000D01*
X146698878Y-118187483D01*
X146650915Y-118172934D01*
X146606725Y-118149314D01*
X146567982Y-118117518D01*
X146536186Y-118078775D01*
X146512566Y-118034585D01*
X146498017Y-117986622D01*
X146492500Y-117930609D01*
X146492500Y-117105391D01*
X146498017Y-117049378D01*
X146512566Y-117001415D01*
X146536186Y-116957225D01*
X146567982Y-116918482D01*
X146606725Y-116886686D01*
X146650915Y-116863066D01*
X146698878Y-116848517D01*
X146754891Y-116843000D01*
X147505109Y-116843000D01*
X147561122Y-116848517D01*
X147561122Y-116848517D01*
G37*
G36*
X145923622Y-114778517D02*
X145971585Y-114793066D01*
X146015775Y-114816686D01*
X146054518Y-114848482D01*
X146086314Y-114887225D01*
X146109934Y-114931415D01*
X146124483Y-114979378D01*
X146130000Y-115035391D01*
X146130000Y-115860609D01*
X146124483Y-115916622D01*
X146109934Y-115964585D01*
X146086314Y-116008775D01*
X146054518Y-116047518D01*
X146015775Y-116079314D01*
X145971585Y-116102934D01*
X145923622Y-116117483D01*
X145867609Y-116123000D01*
X145117391Y-116123000D01*
X145061378Y-116117483D01*
X145013415Y-116102934D01*
X144969225Y-116079314D01*
X144930482Y-116047518D01*
X144898686Y-116008775D01*
X144875066Y-115964585D01*
X144860517Y-115916622D01*
X144855000Y-115860609D01*
X144855000Y-115035391D01*
X144860517Y-114979378D01*
X144875066Y-114931415D01*
X144898686Y-114887225D01*
X144930482Y-114848482D01*
X144969225Y-114816686D01*
X145013415Y-114793066D01*
X145061378Y-114778517D01*
X145117391Y-114773000D01*
X145867609Y-114773000D01*
X145923622Y-114778517D01*
X145923622Y-114778517D01*
G37*
G36*
X147498622Y-114778517D02*
X147546585Y-114793066D01*
X147590775Y-114816686D01*
X147629518Y-114848482D01*
X147661314Y-114887225D01*
X147684934Y-114931415D01*
X147699483Y-114979378D01*
X147705000Y-115035391D01*
X147705000Y-115860609D01*
X147699483Y-115916622D01*
X147684934Y-115964585D01*
X147661314Y-116008775D01*
X147629518Y-116047518D01*
X147590775Y-116079314D01*
X147546585Y-116102934D01*
X147498622Y-116117483D01*
X147442609Y-116123000D01*
X146692391Y-116123000D01*
X146636378Y-116117483D01*
X146588415Y-116102934D01*
X146544225Y-116079314D01*
X146505482Y-116047518D01*
X146473686Y-116008775D01*
X146450066Y-115964585D01*
X146435517Y-115916622D01*
X146430000Y-115860609D01*
X146430000Y-115035391D01*
X146435517Y-114979378D01*
X146450066Y-114931415D01*
X146473686Y-114887225D01*
X146505482Y-114848482D01*
X146544225Y-114816686D01*
X146588415Y-114793066D01*
X146636378Y-114778517D01*
X146692391Y-114773000D01*
X147442609Y-114773000D01*
X147498622Y-114778517D01*
X147498622Y-114778517D01*
G37*
G36*
X153600000Y-115988000D02*
X151200000Y-115988000D01*
X151200000Y-111088000D01*
X153600000Y-111088000D01*
X153600000Y-115988000D01*
X153600000Y-115988000D01*
G37*
G36*
X130462000Y-114484000D02*
X125062000Y-114484000D01*
X125062000Y-107004000D01*
X130462000Y-107004000D01*
X130462000Y-114484000D01*
X130462000Y-114484000D01*
G37*
G36*
X147461122Y-112738517D02*
X147509085Y-112753066D01*
X147553275Y-112776686D01*
X147592018Y-112808482D01*
X147623814Y-112847225D01*
X147647434Y-112891415D01*
X147661983Y-112939378D01*
X147667500Y-112995391D01*
X147667500Y-113820609D01*
X147661983Y-113876622D01*
X147647434Y-113924585D01*
X147623814Y-113968775D01*
X147592018Y-114007518D01*
X147553275Y-114039314D01*
X147509085Y-114062934D01*
X147461122Y-114077483D01*
X147405109Y-114083000D01*
X146654891Y-114083000D01*
X146598878Y-114077483D01*
X146550915Y-114062934D01*
X146506725Y-114039314D01*
X146467982Y-114007518D01*
X146436186Y-113968775D01*
X146412566Y-113924585D01*
X146398017Y-113876622D01*
X146392500Y-113820609D01*
X146392500Y-112995391D01*
X146398017Y-112939378D01*
X146412566Y-112891415D01*
X146436186Y-112847225D01*
X146467982Y-112808482D01*
X146506725Y-112776686D01*
X146550915Y-112753066D01*
X146598878Y-112738517D01*
X146654891Y-112733000D01*
X147405109Y-112733000D01*
X147461122Y-112738517D01*
X147461122Y-112738517D01*
G37*
G36*
X145886122Y-112738517D02*
X145934085Y-112753066D01*
X145978275Y-112776686D01*
X146017018Y-112808482D01*
X146048814Y-112847225D01*
X146072434Y-112891415D01*
X146086983Y-112939378D01*
X146092500Y-112995391D01*
X146092500Y-113820609D01*
X146086983Y-113876622D01*
X146072434Y-113924585D01*
X146048814Y-113968775D01*
X146017018Y-114007518D01*
X145978275Y-114039314D01*
X145934085Y-114062934D01*
X145886122Y-114077483D01*
X145830109Y-114083000D01*
X145079891Y-114083000D01*
X145023878Y-114077483D01*
X144975915Y-114062934D01*
X144931725Y-114039314D01*
X144892982Y-114007518D01*
X144861186Y-113968775D01*
X144837566Y-113924585D01*
X144823017Y-113876622D01*
X144817500Y-113820609D01*
X144817500Y-112995391D01*
X144823017Y-112939378D01*
X144837566Y-112891415D01*
X144861186Y-112847225D01*
X144892982Y-112808482D01*
X144931725Y-112776686D01*
X144975915Y-112753066D01*
X145023878Y-112738517D01*
X145079891Y-112733000D01*
X145830109Y-112733000D01*
X145886122Y-112738517D01*
X145886122Y-112738517D01*
G37*
G36*
X148196000Y-108994000D02*
X146396000Y-108994000D01*
X146396000Y-106994000D01*
X148196000Y-106994000D01*
X148196000Y-108994000D01*
X148196000Y-108994000D01*
G37*
G36*
X145196000Y-108994000D02*
X143396000Y-108994000D01*
X143396000Y-106994000D01*
X145196000Y-106994000D01*
X145196000Y-108994000D01*
X145196000Y-108994000D01*
G37*
G36*
X151214000Y-104159230D02*
X151216402Y-104183616D01*
X151223515Y-104207065D01*
X151235066Y-104228676D01*
X151250612Y-104247618D01*
X151269554Y-104263164D01*
X151291165Y-104274715D01*
X151314614Y-104281828D01*
X151339000Y-104284230D01*
X151363385Y-104281828D01*
X151397713Y-104275000D01*
X151752286Y-104275000D01*
X151885088Y-104301416D01*
X151909474Y-104303818D01*
X151933860Y-104301416D01*
X151957309Y-104294303D01*
X151978920Y-104282752D01*
X151997862Y-104267206D01*
X152013408Y-104248264D01*
X152024959Y-104226653D01*
X152032072Y-104203204D01*
X152034474Y-104178818D01*
X152032072Y-104154432D01*
X152024959Y-104130983D01*
X152013408Y-104109372D01*
X151997862Y-104090430D01*
X151978920Y-104074884D01*
X151952788Y-104057423D01*
X151799578Y-103904213D01*
X151729277Y-103799000D01*
X151679193Y-103724045D01*
X151679191Y-103724042D01*
X151596272Y-103523857D01*
X151554000Y-103311342D01*
X151554000Y-103094658D01*
X151596272Y-102882143D01*
X151679191Y-102681958D01*
X151772468Y-102542360D01*
X151799575Y-102501791D01*
X151799576Y-102501790D01*
X151799578Y-102501787D01*
X151952787Y-102348578D01*
X152132958Y-102228191D01*
X152333143Y-102145272D01*
X152545658Y-102103000D01*
X152762342Y-102103000D01*
X152974857Y-102145272D01*
X153175042Y-102228191D01*
X153355213Y-102348578D01*
X153508422Y-102501787D01*
X153508424Y-102501790D01*
X153508425Y-102501791D01*
X153535532Y-102542360D01*
X153628809Y-102681958D01*
X153711728Y-102882143D01*
X153754000Y-103094658D01*
X153754000Y-103311342D01*
X153711728Y-103523857D01*
X153628809Y-103724042D01*
X153628807Y-103724045D01*
X153578724Y-103799000D01*
X153508422Y-103904213D01*
X153355213Y-104057422D01*
X153355210Y-104057424D01*
X153355209Y-104057425D01*
X153277465Y-104109372D01*
X153175042Y-104177809D01*
X152974857Y-104260728D01*
X152762342Y-104303000D01*
X152574999Y-104303000D01*
X152550613Y-104305402D01*
X152527164Y-104312515D01*
X152505553Y-104324066D01*
X152486611Y-104339612D01*
X152471065Y-104358554D01*
X152459514Y-104380165D01*
X152452401Y-104403614D01*
X152449999Y-104428000D01*
X152452401Y-104452386D01*
X152459514Y-104475835D01*
X152471065Y-104497446D01*
X152486611Y-104516388D01*
X152505553Y-104531934D01*
X152722436Y-104676851D01*
X152973149Y-104927564D01*
X153170140Y-105222382D01*
X153305827Y-105549960D01*
X153375000Y-105897714D01*
X153375000Y-106252286D01*
X153305827Y-106600040D01*
X153170140Y-106927618D01*
X152973149Y-107222436D01*
X152722436Y-107473149D01*
X152722433Y-107473151D01*
X152427620Y-107670139D01*
X152100041Y-107805827D01*
X151984122Y-107828885D01*
X151752286Y-107875000D01*
X151397714Y-107875000D01*
X151165878Y-107828885D01*
X151049959Y-107805827D01*
X150722380Y-107670139D01*
X150427567Y-107473151D01*
X150427564Y-107473149D01*
X150176851Y-107222436D01*
X149979860Y-106927618D01*
X149844173Y-106600040D01*
X149775000Y-106252286D01*
X149775000Y-105897714D01*
X149844173Y-105549960D01*
X149979860Y-105222382D01*
X150176851Y-104927564D01*
X150427564Y-104676851D01*
X150644447Y-104531934D01*
X150663389Y-104516388D01*
X150678935Y-104497446D01*
X150690486Y-104475835D01*
X150697599Y-104452386D01*
X150700001Y-104428000D01*
X150697599Y-104403614D01*
X150690486Y-104380164D01*
X150678935Y-104358554D01*
X150663389Y-104339612D01*
X150644447Y-104324066D01*
X150622836Y-104312515D01*
X150599387Y-104305402D01*
X150575001Y-104303000D01*
X149014000Y-104303000D01*
X149014000Y-102103000D01*
X151214000Y-102103000D01*
X151214000Y-104159230D01*
X151214000Y-104159230D01*
G37*
G36*
X138150122Y-106264517D02*
X138198085Y-106279066D01*
X138242275Y-106302686D01*
X138281018Y-106334482D01*
X138312814Y-106373225D01*
X138336434Y-106417415D01*
X138350983Y-106465378D01*
X138356500Y-106521391D01*
X138356500Y-107346609D01*
X138350983Y-107402622D01*
X138336434Y-107450585D01*
X138312814Y-107494775D01*
X138281018Y-107533518D01*
X138242275Y-107565314D01*
X138198085Y-107588934D01*
X138150122Y-107603483D01*
X138094109Y-107609000D01*
X137343891Y-107609000D01*
X137287878Y-107603483D01*
X137239915Y-107588934D01*
X137195725Y-107565314D01*
X137156982Y-107533518D01*
X137125186Y-107494775D01*
X137101566Y-107450585D01*
X137087017Y-107402622D01*
X137081500Y-107346609D01*
X137081500Y-106521391D01*
X137087017Y-106465378D01*
X137101566Y-106417415D01*
X137125186Y-106373225D01*
X137156982Y-106334482D01*
X137195725Y-106302686D01*
X137239915Y-106279066D01*
X137287878Y-106264517D01*
X137343891Y-106259000D01*
X138094109Y-106259000D01*
X138150122Y-106264517D01*
X138150122Y-106264517D01*
G37*
G36*
X136575122Y-106264517D02*
X136623085Y-106279066D01*
X136667275Y-106302686D01*
X136706018Y-106334482D01*
X136737814Y-106373225D01*
X136761434Y-106417415D01*
X136775983Y-106465378D01*
X136781500Y-106521391D01*
X136781500Y-107346609D01*
X136775983Y-107402622D01*
X136761434Y-107450585D01*
X136737814Y-107494775D01*
X136706018Y-107533518D01*
X136667275Y-107565314D01*
X136623085Y-107588934D01*
X136575122Y-107603483D01*
X136519109Y-107609000D01*
X135768891Y-107609000D01*
X135712878Y-107603483D01*
X135664915Y-107588934D01*
X135620725Y-107565314D01*
X135581982Y-107533518D01*
X135550186Y-107494775D01*
X135526566Y-107450585D01*
X135512017Y-107402622D01*
X135506500Y-107346609D01*
X135506500Y-106521391D01*
X135512017Y-106465378D01*
X135526566Y-106417415D01*
X135550186Y-106373225D01*
X135581982Y-106334482D01*
X135620725Y-106302686D01*
X135664915Y-106279066D01*
X135712878Y-106264517D01*
X135768891Y-106259000D01*
X136519109Y-106259000D01*
X136575122Y-106264517D01*
X136575122Y-106264517D01*
G37*
G36*
X142191122Y-106200517D02*
X142239085Y-106215066D01*
X142283275Y-106238686D01*
X142322018Y-106270482D01*
X142353814Y-106309225D01*
X142377434Y-106353415D01*
X142391983Y-106401378D01*
X142397500Y-106457391D01*
X142397500Y-107282609D01*
X142391983Y-107338622D01*
X142377434Y-107386585D01*
X142353814Y-107430775D01*
X142322018Y-107469518D01*
X142283275Y-107501314D01*
X142239085Y-107524934D01*
X142191122Y-107539483D01*
X142135109Y-107545000D01*
X141384891Y-107545000D01*
X141328878Y-107539483D01*
X141280915Y-107524934D01*
X141236725Y-107501314D01*
X141197982Y-107469518D01*
X141166186Y-107430775D01*
X141142566Y-107386585D01*
X141128017Y-107338622D01*
X141122500Y-107282609D01*
X141122500Y-106457391D01*
X141128017Y-106401378D01*
X141142566Y-106353415D01*
X141166186Y-106309225D01*
X141197982Y-106270482D01*
X141236725Y-106238686D01*
X141280915Y-106215066D01*
X141328878Y-106200517D01*
X141384891Y-106195000D01*
X142135109Y-106195000D01*
X142191122Y-106200517D01*
X142191122Y-106200517D01*
G37*
G36*
X140616122Y-106200517D02*
X140664085Y-106215066D01*
X140708275Y-106238686D01*
X140747018Y-106270482D01*
X140778814Y-106309225D01*
X140802434Y-106353415D01*
X140816983Y-106401378D01*
X140822500Y-106457391D01*
X140822500Y-107282609D01*
X140816983Y-107338622D01*
X140802434Y-107386585D01*
X140778814Y-107430775D01*
X140747018Y-107469518D01*
X140708275Y-107501314D01*
X140664085Y-107524934D01*
X140616122Y-107539483D01*
X140560109Y-107545000D01*
X139809891Y-107545000D01*
X139753878Y-107539483D01*
X139705915Y-107524934D01*
X139661725Y-107501314D01*
X139622982Y-107469518D01*
X139591186Y-107430775D01*
X139567566Y-107386585D01*
X139553017Y-107338622D01*
X139547500Y-107282609D01*
X139547500Y-106457391D01*
X139553017Y-106401378D01*
X139567566Y-106353415D01*
X139591186Y-106309225D01*
X139622982Y-106270482D01*
X139661725Y-106238686D01*
X139705915Y-106215066D01*
X139753878Y-106200517D01*
X139809891Y-106195000D01*
X140560109Y-106195000D01*
X140616122Y-106200517D01*
X140616122Y-106200517D01*
G37*
G36*
X132761122Y-106160517D02*
X132809085Y-106175066D01*
X132853275Y-106198686D01*
X132892018Y-106230482D01*
X132923814Y-106269225D01*
X132947434Y-106313415D01*
X132961983Y-106361378D01*
X132967500Y-106417391D01*
X132967500Y-107242609D01*
X132961983Y-107298622D01*
X132947434Y-107346585D01*
X132923814Y-107390775D01*
X132892018Y-107429518D01*
X132853275Y-107461314D01*
X132809085Y-107484934D01*
X132761122Y-107499483D01*
X132705109Y-107505000D01*
X131954891Y-107505000D01*
X131898878Y-107499483D01*
X131850915Y-107484934D01*
X131806725Y-107461314D01*
X131767982Y-107429518D01*
X131736186Y-107390775D01*
X131712566Y-107346585D01*
X131698017Y-107298622D01*
X131692500Y-107242609D01*
X131692500Y-106417391D01*
X131698017Y-106361378D01*
X131712566Y-106313415D01*
X131736186Y-106269225D01*
X131767982Y-106230482D01*
X131806725Y-106198686D01*
X131850915Y-106175066D01*
X131898878Y-106160517D01*
X131954891Y-106155000D01*
X132705109Y-106155000D01*
X132761122Y-106160517D01*
X132761122Y-106160517D01*
G37*
G36*
X134336122Y-106160517D02*
X134384085Y-106175066D01*
X134428275Y-106198686D01*
X134467018Y-106230482D01*
X134498814Y-106269225D01*
X134522434Y-106313415D01*
X134536983Y-106361378D01*
X134542500Y-106417391D01*
X134542500Y-107242609D01*
X134536983Y-107298622D01*
X134522434Y-107346585D01*
X134498814Y-107390775D01*
X134467018Y-107429518D01*
X134428275Y-107461314D01*
X134384085Y-107484934D01*
X134336122Y-107499483D01*
X134280109Y-107505000D01*
X133529891Y-107505000D01*
X133473878Y-107499483D01*
X133425915Y-107484934D01*
X133381725Y-107461314D01*
X133342982Y-107429518D01*
X133311186Y-107390775D01*
X133287566Y-107346585D01*
X133273017Y-107298622D01*
X133267500Y-107242609D01*
X133267500Y-106417391D01*
X133273017Y-106361378D01*
X133287566Y-106313415D01*
X133311186Y-106269225D01*
X133342982Y-106230482D01*
X133381725Y-106198686D01*
X133425915Y-106175066D01*
X133473878Y-106160517D01*
X133529891Y-106155000D01*
X134280109Y-106155000D01*
X134336122Y-106160517D01*
X134336122Y-106160517D01*
G37*
G36*
X134692000Y-105754000D02*
X132692000Y-105754000D01*
X132692000Y-103954000D01*
X134692000Y-103954000D01*
X134692000Y-105754000D01*
X134692000Y-105754000D01*
G37*
G36*
X127492000Y-105754000D02*
X125492000Y-105754000D01*
X125492000Y-103954000D01*
X127492000Y-103954000D01*
X127492000Y-105754000D01*
X127492000Y-105754000D01*
G37*
G36*
X136524122Y-102454517D02*
X136572085Y-102469066D01*
X136616275Y-102492686D01*
X136655018Y-102524482D01*
X136686814Y-102563225D01*
X136710434Y-102607415D01*
X136724983Y-102655378D01*
X136730500Y-102711391D01*
X136730500Y-103536609D01*
X136724983Y-103592622D01*
X136710434Y-103640585D01*
X136686814Y-103684775D01*
X136655018Y-103723518D01*
X136616275Y-103755314D01*
X136572085Y-103778934D01*
X136524122Y-103793483D01*
X136468109Y-103799000D01*
X135717891Y-103799000D01*
X135661878Y-103793483D01*
X135613915Y-103778934D01*
X135569725Y-103755314D01*
X135530982Y-103723518D01*
X135499186Y-103684775D01*
X135475566Y-103640585D01*
X135461017Y-103592622D01*
X135455500Y-103536609D01*
X135455500Y-102711391D01*
X135461017Y-102655378D01*
X135475566Y-102607415D01*
X135499186Y-102563225D01*
X135530982Y-102524482D01*
X135569725Y-102492686D01*
X135613915Y-102469066D01*
X135661878Y-102454517D01*
X135717891Y-102449000D01*
X136468109Y-102449000D01*
X136524122Y-102454517D01*
X136524122Y-102454517D01*
G37*
G36*
X138099122Y-102454517D02*
X138147085Y-102469066D01*
X138191275Y-102492686D01*
X138230018Y-102524482D01*
X138261814Y-102563225D01*
X138285434Y-102607415D01*
X138299983Y-102655378D01*
X138305500Y-102711391D01*
X138305500Y-103536609D01*
X138299983Y-103592622D01*
X138285434Y-103640585D01*
X138261814Y-103684775D01*
X138230018Y-103723518D01*
X138191275Y-103755314D01*
X138147085Y-103778934D01*
X138099122Y-103793483D01*
X138043109Y-103799000D01*
X137292891Y-103799000D01*
X137236878Y-103793483D01*
X137188915Y-103778934D01*
X137144725Y-103755314D01*
X137105982Y-103723518D01*
X137074186Y-103684775D01*
X137050566Y-103640585D01*
X137036017Y-103592622D01*
X137030500Y-103536609D01*
X137030500Y-102711391D01*
X137036017Y-102655378D01*
X137050566Y-102607415D01*
X137074186Y-102563225D01*
X137105982Y-102524482D01*
X137144725Y-102492686D01*
X137188915Y-102469066D01*
X137236878Y-102454517D01*
X137292891Y-102449000D01*
X138043109Y-102449000D01*
X138099122Y-102454517D01*
X138099122Y-102454517D01*
G37*
G36*
X127492000Y-102754000D02*
X125492000Y-102754000D01*
X125492000Y-100954000D01*
X127492000Y-100954000D01*
X127492000Y-102754000D01*
X127492000Y-102754000D01*
G37*
G36*
X134692000Y-102754000D02*
X132692000Y-102754000D01*
X132692000Y-100954000D01*
X134692000Y-100954000D01*
X134692000Y-102754000D01*
X134692000Y-102754000D01*
G37*
G36*
X148196000Y-101794000D02*
X146396000Y-101794000D01*
X146396000Y-99794000D01*
X148196000Y-99794000D01*
X148196000Y-101794000D01*
X148196000Y-101794000D01*
G37*
G36*
X145196000Y-101794000D02*
X143396000Y-101794000D01*
X143396000Y-99794000D01*
X145196000Y-99794000D01*
X145196000Y-101794000D01*
X145196000Y-101794000D01*
G37*
G36*
X129007743Y-93504660D02*
X129626503Y-93760958D01*
X130183377Y-94133050D01*
X130656950Y-94606623D01*
X131029042Y-95163497D01*
X131285340Y-95782257D01*
X131416000Y-96439128D01*
X131416000Y-97108872D01*
X131285340Y-97765743D01*
X131029042Y-98384503D01*
X130656950Y-98941377D01*
X130183377Y-99414950D01*
X129626503Y-99787042D01*
X129007743Y-100043340D01*
X128350872Y-100174000D01*
X127681128Y-100174000D01*
X127024257Y-100043340D01*
X126405497Y-99787042D01*
X125848623Y-99414950D01*
X125375050Y-98941377D01*
X125002958Y-98384503D01*
X124746660Y-97765743D01*
X124616000Y-97108872D01*
X124616000Y-96439128D01*
X124746660Y-95782257D01*
X125002958Y-95163497D01*
X125375050Y-94606623D01*
X125848623Y-94133050D01*
X126405497Y-93760958D01*
X127024257Y-93504660D01*
X127681128Y-93374000D01*
X128350872Y-93374000D01*
X129007743Y-93504660D01*
X129007743Y-93504660D01*
G37*
G36*
X155677743Y-93504660D02*
X156296503Y-93760958D01*
X156853377Y-94133050D01*
X157326950Y-94606623D01*
X157699042Y-95163497D01*
X157955340Y-95782257D01*
X158086000Y-96439128D01*
X158086000Y-97108872D01*
X157955340Y-97765743D01*
X157699042Y-98384503D01*
X157326950Y-98941377D01*
X156853377Y-99414950D01*
X156296503Y-99787042D01*
X155677743Y-100043340D01*
X155020872Y-100174000D01*
X154351128Y-100174000D01*
X153694257Y-100043340D01*
X153075497Y-99787042D01*
X152518623Y-99414950D01*
X152045050Y-98941377D01*
X151672958Y-98384503D01*
X151416660Y-97765743D01*
X151286000Y-97108872D01*
X151286000Y-96439128D01*
X151416660Y-95782257D01*
X151672958Y-95163497D01*
X152045050Y-94606623D01*
X152518623Y-94133050D01*
X153075497Y-93760958D01*
X153694257Y-93504660D01*
X154351128Y-93374000D01*
X155020872Y-93374000D01*
X155677743Y-93504660D01*
X155677743Y-93504660D01*
G37*
G36*
X146686707Y-96493596D02*
X146763836Y-96501193D01*
X146895787Y-96541220D01*
X146961763Y-96561233D01*
X147144172Y-96658733D01*
X147304054Y-96789946D01*
X147435267Y-96949828D01*
X147532767Y-97132237D01*
X147532767Y-97132238D01*
X147592807Y-97330164D01*
X147613080Y-97536000D01*
X147592807Y-97741836D01*
X147552780Y-97873787D01*
X147532767Y-97939763D01*
X147435267Y-98122172D01*
X147304054Y-98282054D01*
X147144172Y-98413267D01*
X146961763Y-98510767D01*
X146895787Y-98530780D01*
X146763836Y-98570807D01*
X146686707Y-98578403D01*
X146609580Y-98586000D01*
X146506420Y-98586000D01*
X146429293Y-98578403D01*
X146352164Y-98570807D01*
X146220213Y-98530780D01*
X146154237Y-98510767D01*
X145971828Y-98413267D01*
X145811946Y-98282054D01*
X145680733Y-98122172D01*
X145583233Y-97939763D01*
X145563220Y-97873787D01*
X145523193Y-97741836D01*
X145502920Y-97536000D01*
X145523193Y-97330164D01*
X145583233Y-97132238D01*
X145583233Y-97132237D01*
X145680733Y-96949828D01*
X145811946Y-96789946D01*
X145971828Y-96658733D01*
X146154237Y-96561233D01*
X146220213Y-96541220D01*
X146352164Y-96501193D01*
X146429293Y-96493596D01*
X146506420Y-96486000D01*
X146609580Y-96486000D01*
X146686707Y-96493596D01*
X146686707Y-96493596D01*
G37*
G36*
X133986707Y-96493596D02*
X134063836Y-96501193D01*
X134195787Y-96541220D01*
X134261763Y-96561233D01*
X134444172Y-96658733D01*
X134604054Y-96789946D01*
X134735267Y-96949828D01*
X134832767Y-97132237D01*
X134832767Y-97132238D01*
X134892807Y-97330164D01*
X134913080Y-97536000D01*
X134892807Y-97741836D01*
X134852780Y-97873787D01*
X134832767Y-97939763D01*
X134735267Y-98122172D01*
X134604054Y-98282054D01*
X134444172Y-98413267D01*
X134261763Y-98510767D01*
X134195787Y-98530780D01*
X134063836Y-98570807D01*
X133986707Y-98578403D01*
X133909580Y-98586000D01*
X133806420Y-98586000D01*
X133729293Y-98578403D01*
X133652164Y-98570807D01*
X133520213Y-98530780D01*
X133454237Y-98510767D01*
X133271828Y-98413267D01*
X133111946Y-98282054D01*
X132980733Y-98122172D01*
X132883233Y-97939763D01*
X132863220Y-97873787D01*
X132823193Y-97741836D01*
X132802920Y-97536000D01*
X132823193Y-97330164D01*
X132883233Y-97132238D01*
X132883233Y-97132237D01*
X132980733Y-96949828D01*
X133111946Y-96789946D01*
X133271828Y-96658733D01*
X133454237Y-96561233D01*
X133520213Y-96541220D01*
X133652164Y-96501193D01*
X133729293Y-96493596D01*
X133806420Y-96486000D01*
X133909580Y-96486000D01*
X133986707Y-96493596D01*
X133986707Y-96493596D01*
G37*
G36*
X139066707Y-96493596D02*
X139143836Y-96501193D01*
X139275787Y-96541220D01*
X139341763Y-96561233D01*
X139524172Y-96658733D01*
X139684054Y-96789946D01*
X139815267Y-96949828D01*
X139912767Y-97132237D01*
X139912767Y-97132238D01*
X139972807Y-97330164D01*
X139993080Y-97536000D01*
X139972807Y-97741836D01*
X139932780Y-97873787D01*
X139912767Y-97939763D01*
X139815267Y-98122172D01*
X139684054Y-98282054D01*
X139524172Y-98413267D01*
X139341763Y-98510767D01*
X139275787Y-98530780D01*
X139143836Y-98570807D01*
X139066707Y-98578403D01*
X138989580Y-98586000D01*
X138886420Y-98586000D01*
X138809293Y-98578403D01*
X138732164Y-98570807D01*
X138600213Y-98530780D01*
X138534237Y-98510767D01*
X138351828Y-98413267D01*
X138191946Y-98282054D01*
X138060733Y-98122172D01*
X137963233Y-97939763D01*
X137943220Y-97873787D01*
X137903193Y-97741836D01*
X137882920Y-97536000D01*
X137903193Y-97330164D01*
X137963233Y-97132238D01*
X137963233Y-97132237D01*
X138060733Y-96949828D01*
X138191946Y-96789946D01*
X138351828Y-96658733D01*
X138534237Y-96561233D01*
X138600213Y-96541220D01*
X138732164Y-96501193D01*
X138809293Y-96493596D01*
X138886420Y-96486000D01*
X138989580Y-96486000D01*
X139066707Y-96493596D01*
X139066707Y-96493596D01*
G37*
G36*
X141606707Y-96493596D02*
X141683836Y-96501193D01*
X141815787Y-96541220D01*
X141881763Y-96561233D01*
X142064172Y-96658733D01*
X142224054Y-96789946D01*
X142355267Y-96949828D01*
X142452767Y-97132237D01*
X142452767Y-97132238D01*
X142512807Y-97330164D01*
X142533080Y-97536000D01*
X142512807Y-97741836D01*
X142472780Y-97873787D01*
X142452767Y-97939763D01*
X142355267Y-98122172D01*
X142224054Y-98282054D01*
X142064172Y-98413267D01*
X141881763Y-98510767D01*
X141815787Y-98530780D01*
X141683836Y-98570807D01*
X141606707Y-98578403D01*
X141529580Y-98586000D01*
X141426420Y-98586000D01*
X141349293Y-98578403D01*
X141272164Y-98570807D01*
X141140213Y-98530780D01*
X141074237Y-98510767D01*
X140891828Y-98413267D01*
X140731946Y-98282054D01*
X140600733Y-98122172D01*
X140503233Y-97939763D01*
X140483220Y-97873787D01*
X140443193Y-97741836D01*
X140422920Y-97536000D01*
X140443193Y-97330164D01*
X140503233Y-97132238D01*
X140503233Y-97132237D01*
X140600733Y-96949828D01*
X140731946Y-96789946D01*
X140891828Y-96658733D01*
X141074237Y-96561233D01*
X141140213Y-96541220D01*
X141272164Y-96501193D01*
X141349293Y-96493596D01*
X141426420Y-96486000D01*
X141529580Y-96486000D01*
X141606707Y-96493596D01*
X141606707Y-96493596D01*
G37*
G36*
X144146707Y-96493596D02*
X144223836Y-96501193D01*
X144355787Y-96541220D01*
X144421763Y-96561233D01*
X144604172Y-96658733D01*
X144764054Y-96789946D01*
X144895267Y-96949828D01*
X144992767Y-97132237D01*
X144992767Y-97132238D01*
X145052807Y-97330164D01*
X145073080Y-97536000D01*
X145052807Y-97741836D01*
X145012780Y-97873787D01*
X144992767Y-97939763D01*
X144895267Y-98122172D01*
X144764054Y-98282054D01*
X144604172Y-98413267D01*
X144421763Y-98510767D01*
X144355787Y-98530780D01*
X144223836Y-98570807D01*
X144146707Y-98578403D01*
X144069580Y-98586000D01*
X143966420Y-98586000D01*
X143889293Y-98578403D01*
X143812164Y-98570807D01*
X143680213Y-98530780D01*
X143614237Y-98510767D01*
X143431828Y-98413267D01*
X143271946Y-98282054D01*
X143140733Y-98122172D01*
X143043233Y-97939763D01*
X143023220Y-97873787D01*
X142983193Y-97741836D01*
X142962920Y-97536000D01*
X142983193Y-97330164D01*
X143043233Y-97132238D01*
X143043233Y-97132237D01*
X143140733Y-96949828D01*
X143271946Y-96789946D01*
X143431828Y-96658733D01*
X143614237Y-96561233D01*
X143680213Y-96541220D01*
X143812164Y-96501193D01*
X143889293Y-96493596D01*
X143966420Y-96486000D01*
X144069580Y-96486000D01*
X144146707Y-96493596D01*
X144146707Y-96493596D01*
G37*
G36*
X149226707Y-96493596D02*
X149303836Y-96501193D01*
X149435787Y-96541220D01*
X149501763Y-96561233D01*
X149684172Y-96658733D01*
X149844054Y-96789946D01*
X149975267Y-96949828D01*
X150072767Y-97132237D01*
X150072767Y-97132238D01*
X150132807Y-97330164D01*
X150153080Y-97536000D01*
X150132807Y-97741836D01*
X150092780Y-97873787D01*
X150072767Y-97939763D01*
X149975267Y-98122172D01*
X149844054Y-98282054D01*
X149684172Y-98413267D01*
X149501763Y-98510767D01*
X149435787Y-98530780D01*
X149303836Y-98570807D01*
X149226707Y-98578403D01*
X149149580Y-98586000D01*
X149046420Y-98586000D01*
X148969293Y-98578403D01*
X148892164Y-98570807D01*
X148760213Y-98530780D01*
X148694237Y-98510767D01*
X148511828Y-98413267D01*
X148351946Y-98282054D01*
X148220733Y-98122172D01*
X148123233Y-97939763D01*
X148103220Y-97873787D01*
X148063193Y-97741836D01*
X148042920Y-97536000D01*
X148063193Y-97330164D01*
X148123233Y-97132238D01*
X148123233Y-97132237D01*
X148220733Y-96949828D01*
X148351946Y-96789946D01*
X148511828Y-96658733D01*
X148694237Y-96561233D01*
X148760213Y-96541220D01*
X148892164Y-96501193D01*
X148969293Y-96493596D01*
X149046420Y-96486000D01*
X149149580Y-96486000D01*
X149226707Y-96493596D01*
X149226707Y-96493596D01*
G37*
G36*
X136526707Y-96493596D02*
X136603836Y-96501193D01*
X136735787Y-96541220D01*
X136801763Y-96561233D01*
X136984172Y-96658733D01*
X137144054Y-96789946D01*
X137275267Y-96949828D01*
X137372767Y-97132237D01*
X137372767Y-97132238D01*
X137432807Y-97330164D01*
X137453080Y-97536000D01*
X137432807Y-97741836D01*
X137392780Y-97873787D01*
X137372767Y-97939763D01*
X137275267Y-98122172D01*
X137144054Y-98282054D01*
X136984172Y-98413267D01*
X136801763Y-98510767D01*
X136735787Y-98530780D01*
X136603836Y-98570807D01*
X136526707Y-98578403D01*
X136449580Y-98586000D01*
X136346420Y-98586000D01*
X136269293Y-98578403D01*
X136192164Y-98570807D01*
X136060213Y-98530780D01*
X135994237Y-98510767D01*
X135811828Y-98413267D01*
X135651946Y-98282054D01*
X135520733Y-98122172D01*
X135423233Y-97939763D01*
X135403220Y-97873787D01*
X135363193Y-97741836D01*
X135342920Y-97536000D01*
X135363193Y-97330164D01*
X135423233Y-97132238D01*
X135423233Y-97132237D01*
X135520733Y-96949828D01*
X135651946Y-96789946D01*
X135811828Y-96658733D01*
X135994237Y-96561233D01*
X136060213Y-96541220D01*
X136192164Y-96501193D01*
X136269293Y-96493596D01*
X136346420Y-96486000D01*
X136449580Y-96486000D01*
X136526707Y-96493596D01*
X136526707Y-96493596D01*
G37*
G36*
X139066707Y-93953597D02*
X139143836Y-93961193D01*
X139275787Y-94001220D01*
X139341763Y-94021233D01*
X139524172Y-94118733D01*
X139684054Y-94249946D01*
X139815267Y-94409828D01*
X139912767Y-94592237D01*
X139912767Y-94592238D01*
X139972807Y-94790164D01*
X139993080Y-94996000D01*
X139972807Y-95201836D01*
X139932780Y-95333787D01*
X139912767Y-95399763D01*
X139815267Y-95582172D01*
X139684054Y-95742054D01*
X139524172Y-95873267D01*
X139341763Y-95970767D01*
X139275787Y-95990780D01*
X139143836Y-96030807D01*
X139066707Y-96038403D01*
X138989580Y-96046000D01*
X138886420Y-96046000D01*
X138809293Y-96038403D01*
X138732164Y-96030807D01*
X138600213Y-95990780D01*
X138534237Y-95970767D01*
X138351828Y-95873267D01*
X138191946Y-95742054D01*
X138060733Y-95582172D01*
X137963233Y-95399763D01*
X137943220Y-95333787D01*
X137903193Y-95201836D01*
X137882920Y-94996000D01*
X137903193Y-94790164D01*
X137963233Y-94592238D01*
X137963233Y-94592237D01*
X138060733Y-94409828D01*
X138191946Y-94249946D01*
X138351828Y-94118733D01*
X138534237Y-94021233D01*
X138600213Y-94001220D01*
X138732164Y-93961193D01*
X138809293Y-93953597D01*
X138886420Y-93946000D01*
X138989580Y-93946000D01*
X139066707Y-93953597D01*
X139066707Y-93953597D01*
G37*
G36*
X141606707Y-93953597D02*
X141683836Y-93961193D01*
X141815787Y-94001220D01*
X141881763Y-94021233D01*
X142064172Y-94118733D01*
X142224054Y-94249946D01*
X142355267Y-94409828D01*
X142452767Y-94592237D01*
X142452767Y-94592238D01*
X142512807Y-94790164D01*
X142533080Y-94996000D01*
X142512807Y-95201836D01*
X142472780Y-95333787D01*
X142452767Y-95399763D01*
X142355267Y-95582172D01*
X142224054Y-95742054D01*
X142064172Y-95873267D01*
X141881763Y-95970767D01*
X141815787Y-95990780D01*
X141683836Y-96030807D01*
X141606707Y-96038403D01*
X141529580Y-96046000D01*
X141426420Y-96046000D01*
X141349293Y-96038403D01*
X141272164Y-96030807D01*
X141140213Y-95990780D01*
X141074237Y-95970767D01*
X140891828Y-95873267D01*
X140731946Y-95742054D01*
X140600733Y-95582172D01*
X140503233Y-95399763D01*
X140483220Y-95333787D01*
X140443193Y-95201836D01*
X140422920Y-94996000D01*
X140443193Y-94790164D01*
X140503233Y-94592238D01*
X140503233Y-94592237D01*
X140600733Y-94409828D01*
X140731946Y-94249946D01*
X140891828Y-94118733D01*
X141074237Y-94021233D01*
X141140213Y-94001220D01*
X141272164Y-93961193D01*
X141349293Y-93953597D01*
X141426420Y-93946000D01*
X141529580Y-93946000D01*
X141606707Y-93953597D01*
X141606707Y-93953597D01*
G37*
G36*
X136526707Y-93953597D02*
X136603836Y-93961193D01*
X136735787Y-94001220D01*
X136801763Y-94021233D01*
X136984172Y-94118733D01*
X137144054Y-94249946D01*
X137275267Y-94409828D01*
X137372767Y-94592237D01*
X137372767Y-94592238D01*
X137432807Y-94790164D01*
X137453080Y-94996000D01*
X137432807Y-95201836D01*
X137392780Y-95333787D01*
X137372767Y-95399763D01*
X137275267Y-95582172D01*
X137144054Y-95742054D01*
X136984172Y-95873267D01*
X136801763Y-95970767D01*
X136735787Y-95990780D01*
X136603836Y-96030807D01*
X136526707Y-96038403D01*
X136449580Y-96046000D01*
X136346420Y-96046000D01*
X136269293Y-96038403D01*
X136192164Y-96030807D01*
X136060213Y-95990780D01*
X135994237Y-95970767D01*
X135811828Y-95873267D01*
X135651946Y-95742054D01*
X135520733Y-95582172D01*
X135423233Y-95399763D01*
X135403220Y-95333787D01*
X135363193Y-95201836D01*
X135342920Y-94996000D01*
X135363193Y-94790164D01*
X135423233Y-94592238D01*
X135423233Y-94592237D01*
X135520733Y-94409828D01*
X135651946Y-94249946D01*
X135811828Y-94118733D01*
X135994237Y-94021233D01*
X136060213Y-94001220D01*
X136192164Y-93961193D01*
X136269293Y-93953597D01*
X136346420Y-93946000D01*
X136449580Y-93946000D01*
X136526707Y-93953597D01*
X136526707Y-93953597D01*
G37*
G36*
X150148000Y-96046000D02*
X148048000Y-96046000D01*
X148048000Y-93946000D01*
X150148000Y-93946000D01*
X150148000Y-96046000D01*
X150148000Y-96046000D01*
G37*
G36*
X146686707Y-93953597D02*
X146763836Y-93961193D01*
X146895787Y-94001220D01*
X146961763Y-94021233D01*
X147144172Y-94118733D01*
X147304054Y-94249946D01*
X147435267Y-94409828D01*
X147532767Y-94592237D01*
X147532767Y-94592238D01*
X147592807Y-94790164D01*
X147613080Y-94996000D01*
X147592807Y-95201836D01*
X147552780Y-95333787D01*
X147532767Y-95399763D01*
X147435267Y-95582172D01*
X147304054Y-95742054D01*
X147144172Y-95873267D01*
X146961763Y-95970767D01*
X146895787Y-95990780D01*
X146763836Y-96030807D01*
X146686707Y-96038403D01*
X146609580Y-96046000D01*
X146506420Y-96046000D01*
X146429293Y-96038403D01*
X146352164Y-96030807D01*
X146220213Y-95990780D01*
X146154237Y-95970767D01*
X145971828Y-95873267D01*
X145811946Y-95742054D01*
X145680733Y-95582172D01*
X145583233Y-95399763D01*
X145563220Y-95333787D01*
X145523193Y-95201836D01*
X145502920Y-94996000D01*
X145523193Y-94790164D01*
X145583233Y-94592238D01*
X145583233Y-94592237D01*
X145680733Y-94409828D01*
X145811946Y-94249946D01*
X145971828Y-94118733D01*
X146154237Y-94021233D01*
X146220213Y-94001220D01*
X146352164Y-93961193D01*
X146429293Y-93953597D01*
X146506420Y-93946000D01*
X146609580Y-93946000D01*
X146686707Y-93953597D01*
X146686707Y-93953597D01*
G37*
G36*
X144146707Y-93953597D02*
X144223836Y-93961193D01*
X144355787Y-94001220D01*
X144421763Y-94021233D01*
X144604172Y-94118733D01*
X144764054Y-94249946D01*
X144895267Y-94409828D01*
X144992767Y-94592237D01*
X144992767Y-94592238D01*
X145052807Y-94790164D01*
X145073080Y-94996000D01*
X145052807Y-95201836D01*
X145012780Y-95333787D01*
X144992767Y-95399763D01*
X144895267Y-95582172D01*
X144764054Y-95742054D01*
X144604172Y-95873267D01*
X144421763Y-95970767D01*
X144355787Y-95990780D01*
X144223836Y-96030807D01*
X144146707Y-96038403D01*
X144069580Y-96046000D01*
X143966420Y-96046000D01*
X143889293Y-96038403D01*
X143812164Y-96030807D01*
X143680213Y-95990780D01*
X143614237Y-95970767D01*
X143431828Y-95873267D01*
X143271946Y-95742054D01*
X143140733Y-95582172D01*
X143043233Y-95399763D01*
X143023220Y-95333787D01*
X142983193Y-95201836D01*
X142962920Y-94996000D01*
X142983193Y-94790164D01*
X143043233Y-94592238D01*
X143043233Y-94592237D01*
X143140733Y-94409828D01*
X143271946Y-94249946D01*
X143431828Y-94118733D01*
X143614237Y-94021233D01*
X143680213Y-94001220D01*
X143812164Y-93961193D01*
X143889293Y-93953597D01*
X143966420Y-93946000D01*
X144069580Y-93946000D01*
X144146707Y-93953597D01*
X144146707Y-93953597D01*
G37*
G36*
X133986707Y-93953597D02*
X134063836Y-93961193D01*
X134195787Y-94001220D01*
X134261763Y-94021233D01*
X134444172Y-94118733D01*
X134604054Y-94249946D01*
X134735267Y-94409828D01*
X134832767Y-94592237D01*
X134832767Y-94592238D01*
X134892807Y-94790164D01*
X134913080Y-94996000D01*
X134892807Y-95201836D01*
X134852780Y-95333787D01*
X134832767Y-95399763D01*
X134735267Y-95582172D01*
X134604054Y-95742054D01*
X134444172Y-95873267D01*
X134261763Y-95970767D01*
X134195787Y-95990780D01*
X134063836Y-96030807D01*
X133986707Y-96038403D01*
X133909580Y-96046000D01*
X133806420Y-96046000D01*
X133729293Y-96038403D01*
X133652164Y-96030807D01*
X133520213Y-95990780D01*
X133454237Y-95970767D01*
X133271828Y-95873267D01*
X133111946Y-95742054D01*
X132980733Y-95582172D01*
X132883233Y-95399763D01*
X132863220Y-95333787D01*
X132823193Y-95201836D01*
X132802920Y-94996000D01*
X132823193Y-94790164D01*
X132883233Y-94592238D01*
X132883233Y-94592237D01*
X132980733Y-94409828D01*
X133111946Y-94249946D01*
X133271828Y-94118733D01*
X133454237Y-94021233D01*
X133520213Y-94001220D01*
X133652164Y-93961193D01*
X133729293Y-93953597D01*
X133806420Y-93946000D01*
X133909580Y-93946000D01*
X133986707Y-93953597D01*
X133986707Y-93953597D01*
G37*
M02*
