G04 #@! TF.GenerationSoftware,KiCad,Pcbnew,5.0.0-fee4fd1~66~ubuntu14.04.1*
G04 #@! TF.CreationDate,2018-10-15T23:56:10-07:00*
G04 #@! TF.ProjectId,delay,64656C61792E6B696361645F70636200,rev?*
G04 #@! TF.SameCoordinates,Original*
G04 #@! TF.FileFunction,Copper,L2,Bot,Signal*
G04 #@! TF.FilePolarity,Positive*
%FSLAX46Y46*%
G04 Gerber Fmt 4.6, Leading zero omitted, Abs format (unit mm)*
G04 Created by KiCad (PCBNEW 5.0.0-fee4fd1~66~ubuntu14.04.1) date Mon Oct 15 23:56:10 2018*
%MOMM*%
%LPD*%
G01*
G04 APERTURE LIST*
G04 #@! TA.AperFunction,ComponentPad*
%ADD10R,1.600000X1.600000*%
G04 #@! TD*
G04 #@! TA.AperFunction,ComponentPad*
%ADD11O,1.600000X1.600000*%
G04 #@! TD*
G04 #@! TA.AperFunction,ComponentPad*
%ADD12C,1.524000*%
G04 #@! TD*
G04 #@! TA.AperFunction,ComponentPad*
%ADD13R,1.700000X1.700000*%
G04 #@! TD*
G04 #@! TA.AperFunction,ComponentPad*
%ADD14O,1.700000X1.700000*%
G04 #@! TD*
G04 #@! TA.AperFunction,ComponentPad*
%ADD15C,1.600000*%
G04 #@! TD*
G04 #@! TA.AperFunction,ComponentPad*
%ADD16R,1.800000X1.800000*%
G04 #@! TD*
G04 #@! TA.AperFunction,ComponentPad*
%ADD17C,1.800000*%
G04 #@! TD*
G04 #@! TA.AperFunction,ComponentPad*
%ADD18C,2.000000*%
G04 #@! TD*
G04 #@! TA.AperFunction,ComponentPad*
%ADD19C,3.200000*%
G04 #@! TD*
G04 #@! TA.AperFunction,ComponentPad*
%ADD20R,2.000000X2.000000*%
G04 #@! TD*
G04 #@! TA.AperFunction,ComponentPad*
%ADD21C,1.500000*%
G04 #@! TD*
G04 #@! TA.AperFunction,ViaPad*
%ADD22C,0.800000*%
G04 #@! TD*
G04 #@! TA.AperFunction,Conductor*
%ADD23C,2.000000*%
G04 #@! TD*
G04 #@! TA.AperFunction,Conductor*
%ADD24C,1.000000*%
G04 #@! TD*
G04 #@! TA.AperFunction,Conductor*
%ADD25C,0.254000*%
G04 #@! TD*
G04 APERTURE END LIST*
D10*
G04 #@! TO.P,U1,1*
G04 #@! TO.N,RESET*
X125933200Y-93065600D03*
D11*
G04 #@! TO.P,U1,15*
G04 #@! TO.N,d9*
X158953200Y-85445600D03*
G04 #@! TO.P,U1,2*
G04 #@! TO.N,RX*
X128473200Y-93065600D03*
G04 #@! TO.P,U1,16*
G04 #@! TO.N,d10*
X156413200Y-85445600D03*
G04 #@! TO.P,U1,3*
G04 #@! TO.N,TX*
X131013200Y-93065600D03*
G04 #@! TO.P,U1,17*
G04 #@! TO.N,d11*
X153873200Y-85445600D03*
G04 #@! TO.P,U1,4*
G04 #@! TO.N,d2*
X133553200Y-93065600D03*
G04 #@! TO.P,U1,18*
G04 #@! TO.N,d12*
X151333200Y-85445600D03*
G04 #@! TO.P,U1,5*
G04 #@! TO.N,d3*
X136093200Y-93065600D03*
G04 #@! TO.P,U1,19*
G04 #@! TO.N,d13*
X148793200Y-85445600D03*
G04 #@! TO.P,U1,6*
G04 #@! TO.N,d4*
X138633200Y-93065600D03*
G04 #@! TO.P,U1,20*
G04 #@! TO.N,VCC*
X146253200Y-85445600D03*
G04 #@! TO.P,U1,7*
X141173200Y-93065600D03*
G04 #@! TO.P,U1,21*
G04 #@! TO.N,AREF*
X143713200Y-85445600D03*
G04 #@! TO.P,U1,8*
G04 #@! TO.N,GND*
X143713200Y-93065600D03*
G04 #@! TO.P,U1,22*
X141173200Y-85445600D03*
G04 #@! TO.P,U1,9*
G04 #@! TO.N,XTAL1*
X146253200Y-93065600D03*
G04 #@! TO.P,U1,23*
G04 #@! TO.N,a0*
X138633200Y-85445600D03*
G04 #@! TO.P,U1,10*
G04 #@! TO.N,XTAL2*
X148793200Y-93065600D03*
G04 #@! TO.P,U1,24*
G04 #@! TO.N,a1*
X136093200Y-85445600D03*
G04 #@! TO.P,U1,11*
G04 #@! TO.N,d5*
X151333200Y-93065600D03*
G04 #@! TO.P,U1,25*
G04 #@! TO.N,a2*
X133553200Y-85445600D03*
G04 #@! TO.P,U1,12*
G04 #@! TO.N,d6*
X153873200Y-93065600D03*
G04 #@! TO.P,U1,26*
G04 #@! TO.N,a3*
X131013200Y-85445600D03*
G04 #@! TO.P,U1,13*
G04 #@! TO.N,d7*
X156413200Y-93065600D03*
G04 #@! TO.P,U1,27*
G04 #@! TO.N,a4*
X128473200Y-85445600D03*
G04 #@! TO.P,U1,14*
G04 #@! TO.N,d8*
X158953200Y-93065600D03*
G04 #@! TO.P,U1,28*
G04 #@! TO.N,a5*
X125933200Y-85445600D03*
G04 #@! TD*
D12*
G04 #@! TO.P,U2,1*
G04 #@! TO.N,d13*
X140106400Y-106324400D03*
G04 #@! TO.P,U2,2*
G04 #@! TO.N,d2*
X142646400Y-106324400D03*
G04 #@! TO.P,U2,3*
G04 #@! TO.N,d3*
X145186400Y-106324400D03*
G04 #@! TO.P,U2,4*
G04 #@! TO.N,d4*
X147726400Y-106324400D03*
G04 #@! TO.P,U2,5*
G04 #@! TO.N,a4*
X150266400Y-106324400D03*
G04 #@! TO.P,U2,6*
G04 #@! TO.N,d5*
X152806400Y-106324400D03*
G04 #@! TO.P,U2,7*
G04 #@! TO.N,a5*
X155346400Y-106324400D03*
G04 #@! TO.P,U2,8*
G04 #@! TO.N,d6*
X155346400Y-96164400D03*
G04 #@! TO.P,U2,11*
G04 #@! TO.N,d7*
X147726400Y-96164400D03*
G04 #@! TO.P,U2,12*
G04 #@! TO.N,d8*
X145186400Y-96164400D03*
G04 #@! TO.P,U2,14*
G04 #@! TO.N,N/C*
X140106400Y-96164400D03*
G04 #@! TO.P,U2,15*
G04 #@! TO.N,d12*
X137566400Y-96164400D03*
G04 #@! TD*
D13*
G04 #@! TO.P,J3,1*
G04 #@! TO.N,GND*
X130784600Y-121513600D03*
D14*
G04 #@! TO.P,J3,2*
X130784600Y-118973600D03*
G04 #@! TO.P,J3,3*
G04 #@! TO.N,VCC*
X130784600Y-116433600D03*
G04 #@! TO.P,J3,4*
G04 #@! TO.N,RX*
X130784600Y-113893600D03*
G04 #@! TO.P,J3,5*
G04 #@! TO.N,TX*
X130784600Y-111353600D03*
G04 #@! TO.P,J3,6*
G04 #@! TO.N,DTR*
X130784600Y-108813600D03*
G04 #@! TD*
D10*
G04 #@! TO.P,C1,1*
G04 #@! TO.N,VCC*
X126441200Y-103530400D03*
D15*
G04 #@! TO.P,C1,2*
G04 #@! TO.N,GND*
X128941200Y-103530400D03*
G04 #@! TD*
G04 #@! TO.P,C2,2*
G04 #@! TO.N,XTAL1*
X147066000Y-80401800D03*
G04 #@! TO.P,C2,1*
G04 #@! TO.N,GND*
X147066000Y-77901800D03*
G04 #@! TD*
G04 #@! TO.P,C3,1*
G04 #@! TO.N,GND*
X147040600Y-75514200D03*
G04 #@! TO.P,C3,2*
G04 #@! TO.N,XTAL2*
X149540600Y-75514200D03*
G04 #@! TD*
D11*
G04 #@! TO.P,C4,2*
G04 #@! TO.N,GND*
X129895600Y-73932400D03*
D15*
G04 #@! TO.P,C4,1*
G04 #@! TO.N,AREF*
X129895600Y-81432400D03*
G04 #@! TD*
G04 #@! TO.P,C5,1*
G04 #@! TO.N,RESET*
X126085600Y-73939400D03*
D11*
G04 #@! TO.P,C5,2*
G04 #@! TO.N,DTR*
X126085600Y-81439400D03*
G04 #@! TD*
D16*
G04 #@! TO.P,D1,1*
G04 #@! TO.N,GND*
X126161800Y-68072000D03*
D17*
G04 #@! TO.P,D1,2*
G04 #@! TO.N,Net-(D1-Pad2)*
X128701800Y-68072000D03*
G04 #@! TD*
D14*
G04 #@! TO.P,J1,3*
G04 #@! TO.N,VCC*
X126238000Y-116840000D03*
G04 #@! TO.P,J1,2*
G04 #@! TO.N,GND*
X126238000Y-114300000D03*
D13*
G04 #@! TO.P,J1,1*
G04 #@! TO.N,a0*
X126238000Y-111760000D03*
G04 #@! TD*
G04 #@! TO.P,J2,1*
G04 #@! TO.N,a1*
X159258000Y-111760000D03*
D14*
G04 #@! TO.P,J2,2*
G04 #@! TO.N,GND*
X159258000Y-114300000D03*
G04 #@! TO.P,J2,3*
G04 #@! TO.N,VCC*
X159258000Y-116840000D03*
G04 #@! TD*
D13*
G04 #@! TO.P,J4,1*
G04 #@! TO.N,a2*
X149910800Y-66548000D03*
D14*
G04 #@! TO.P,J4,2*
G04 #@! TO.N,GND*
X152450800Y-66548000D03*
G04 #@! TO.P,J4,3*
G04 #@! TO.N,VCC*
X154990800Y-66548000D03*
G04 #@! TD*
D15*
G04 #@! TO.P,R1,1*
G04 #@! TO.N,Net-(D1-Pad2)*
X136575800Y-71297800D03*
D11*
G04 #@! TO.P,R1,2*
G04 #@! TO.N,a2*
X136575800Y-81457800D03*
G04 #@! TD*
G04 #@! TO.P,R2,2*
G04 #@! TO.N,RESET*
X133400800Y-71297800D03*
D15*
G04 #@! TO.P,R2,1*
G04 #@! TO.N,VCC*
X133400800Y-81457800D03*
G04 #@! TD*
G04 #@! TO.P,R3,1*
G04 #@! TO.N,d9*
X134315200Y-122224800D03*
D11*
G04 #@! TO.P,R3,2*
G04 #@! TO.N,VCC*
X134315200Y-112064800D03*
G04 #@! TD*
G04 #@! TO.P,R4,2*
G04 #@! TO.N,VCC*
X137541000Y-112064800D03*
D15*
G04 #@! TO.P,R4,1*
G04 #@! TO.N,d10*
X137541000Y-122224800D03*
G04 #@! TD*
D18*
G04 #@! TO.P,SW1,S1*
G04 #@! TO.N,d11*
X155241400Y-118080800D03*
G04 #@! TO.P,SW1,S2*
G04 #@! TO.N,GND*
X155241400Y-113080800D03*
D19*
G04 #@! TO.P,SW1,MP*
G04 #@! TO.N,N/C*
X148241400Y-121180800D03*
X148241400Y-109980800D03*
D18*
G04 #@! TO.P,SW1,B*
G04 #@! TO.N,d10*
X140741400Y-118080800D03*
G04 #@! TO.P,SW1,C*
G04 #@! TO.N,GND*
X140741400Y-115580800D03*
D20*
G04 #@! TO.P,SW1,A*
G04 #@! TO.N,d9*
X140741400Y-113080800D03*
G04 #@! TD*
D18*
G04 #@! TO.P,SW2,2*
G04 #@! TO.N,GND*
X152196800Y-75721600D03*
G04 #@! TO.P,SW2,1*
G04 #@! TO.N,a3*
X152196800Y-71221600D03*
G04 #@! TO.P,SW2,4*
G04 #@! TO.N,Net-(SW2-Pad3)*
X158696800Y-75721600D03*
G04 #@! TO.P,SW2,3*
X158696800Y-71221600D03*
G04 #@! TD*
G04 #@! TO.P,SW3,3*
G04 #@! TO.N,Net-(SW3-Pad3)*
X139725400Y-74475200D03*
G04 #@! TO.P,SW3,4*
X144225400Y-74475200D03*
G04 #@! TO.P,SW3,1*
G04 #@! TO.N,GND*
X139725400Y-80975200D03*
G04 #@! TO.P,SW3,2*
G04 #@! TO.N,RESET*
X144225400Y-80975200D03*
G04 #@! TD*
D21*
G04 #@! TO.P,Y1,1*
G04 #@! TO.N,XTAL1*
X151815800Y-80162400D03*
G04 #@! TO.P,Y1,2*
G04 #@! TO.N,XTAL2*
X156715800Y-80162400D03*
G04 #@! TD*
D22*
G04 #@! TO.N,d10*
X143052800Y-113741200D03*
G04 #@! TO.N,d11*
X160401000Y-79121000D03*
G04 #@! TD*
D23*
G04 #@! TO.N,VCC*
X134315200Y-114105081D02*
X134315200Y-113196170D01*
X134315200Y-113196170D02*
X134315200Y-112064800D01*
X131986681Y-116433600D02*
X134315200Y-114105081D01*
X130784600Y-116433600D02*
X131986681Y-116433600D01*
X134315200Y-112064800D02*
X137541000Y-112064800D01*
D24*
X145453201Y-86245599D02*
X146253200Y-85445600D01*
X141173200Y-93065600D02*
X141173200Y-90525600D01*
X141173200Y-90525600D02*
X145453201Y-86245599D01*
X153009600Y-77800200D02*
X154432000Y-76377800D01*
X154432000Y-76377800D02*
X153870799Y-76939001D01*
X153212800Y-77597000D02*
X153009600Y-77800200D01*
X154355800Y-77597000D02*
X153212800Y-77597000D01*
X154355800Y-77597000D02*
X153670800Y-77597000D01*
X152958800Y-77749400D02*
X153009600Y-77800200D01*
D23*
X126238000Y-116840000D02*
X127762000Y-116840000D01*
X128168400Y-116433600D02*
X130784600Y-116433600D01*
X127762000Y-116840000D02*
X128168400Y-116433600D01*
D24*
X128168400Y-107057600D02*
X128168400Y-116433600D01*
X126441200Y-105330400D02*
X128168400Y-107057600D01*
X126441200Y-103530400D02*
X126441200Y-105330400D01*
X155854400Y-74853800D02*
X152958800Y-77749400D01*
X155854400Y-67411600D02*
X155854400Y-74853800D01*
X154990800Y-66548000D02*
X155854400Y-67411600D01*
X151714200Y-77749400D02*
X152958800Y-77749400D01*
X149377400Y-80086200D02*
X151714200Y-77749400D01*
X146253200Y-85445600D02*
X149377400Y-82321400D01*
X149377400Y-80086200D02*
X149377400Y-82321400D01*
D23*
X138340999Y-111239401D02*
X138340999Y-111264801D01*
X159258000Y-116840000D02*
X158408001Y-117689999D01*
X158408001Y-117689999D02*
X158408001Y-118578999D01*
X139369800Y-110210600D02*
X138340999Y-111239401D01*
X154385811Y-120730811D02*
X154355800Y-120700800D01*
X158408001Y-118578999D02*
X156256189Y-120730811D01*
X138340999Y-111264801D02*
X137541000Y-112064800D01*
X156256189Y-120730811D02*
X154385811Y-120730811D01*
X144988001Y-112780801D02*
X142417800Y-110210600D01*
X154355800Y-120700800D02*
X152958800Y-120700800D01*
X152958800Y-120700800D02*
X145038801Y-112780801D01*
X145038801Y-112780801D02*
X144988001Y-112780801D01*
X142417800Y-110210600D02*
X139369800Y-110210600D01*
D25*
X134899212Y-82956212D02*
X143763812Y-82956212D01*
X133400800Y-81457800D02*
X134899212Y-82956212D01*
X145453201Y-84645601D02*
X146253200Y-85445600D01*
X143763812Y-82956212D02*
X145453201Y-84645601D01*
D24*
X161290000Y-77597000D02*
X154355800Y-77597000D01*
X162179000Y-78486000D02*
X161290000Y-77597000D01*
X162179000Y-114350800D02*
X162179000Y-78486000D01*
X160107999Y-115990001D02*
X160539799Y-115990001D01*
X160539799Y-115990001D02*
X162179000Y-114350800D01*
X159258000Y-116840000D02*
X160107999Y-115990001D01*
D25*
G04 #@! TO.N,AREF*
X130695599Y-82232399D02*
X129895600Y-81432400D01*
X143713200Y-85445600D02*
X141777823Y-83510223D01*
X141777823Y-83510223D02*
X131973423Y-83510223D01*
X131973423Y-83510223D02*
X130695599Y-82232399D01*
G04 #@! TO.N,RESET*
X128727200Y-71297800D02*
X126085600Y-73939400D01*
X133400800Y-71297800D02*
X128727200Y-71297800D01*
X133883400Y-71297800D02*
X133400800Y-71297800D01*
X144454000Y-81000600D02*
X143586200Y-81000600D01*
X143586200Y-81000600D02*
X133883400Y-71297800D01*
G04 #@! TO.N,a0*
X124536200Y-110058200D02*
X126238000Y-111760000D01*
X138633200Y-85445600D02*
X137906202Y-85445600D01*
X124536200Y-84963000D02*
X124536200Y-110058200D01*
X137906202Y-85445600D02*
X136560002Y-84099400D01*
X136560002Y-84099400D02*
X125399800Y-84099400D01*
X125399800Y-84099400D02*
X124536200Y-84963000D01*
G04 #@! TO.N,a1*
X136893199Y-86245599D02*
X136093200Y-85445600D01*
X157015609Y-106172000D02*
X157015609Y-105680799D01*
X145643600Y-100660200D02*
X140030200Y-100660200D01*
X156066201Y-104731391D02*
X149714791Y-104731391D01*
X157015609Y-105680799D02*
X156066201Y-104731391D01*
X149714791Y-104731391D02*
X145643600Y-100660200D01*
X140030200Y-100660200D02*
X136271000Y-96901000D01*
X136271000Y-96901000D02*
X136271000Y-95123000D01*
X136271000Y-95123000D02*
X137396417Y-93997583D01*
X137396417Y-93997583D02*
X137396417Y-86748817D01*
X137396417Y-86748817D02*
X136893199Y-86245599D01*
X157015609Y-108417609D02*
X157015609Y-106172000D01*
X159258000Y-110660000D02*
X157015609Y-108417609D01*
X159258000Y-111760000D02*
X159258000Y-110660000D01*
X157015609Y-106900363D02*
X157015609Y-106172000D01*
G04 #@! TO.N,RX*
X131634599Y-113043601D02*
X130784600Y-113893600D01*
X131959601Y-112068561D02*
X131959601Y-112718599D01*
X128473200Y-93065600D02*
X128473200Y-93776800D01*
X131959601Y-97263201D02*
X131959601Y-108098639D01*
X131959601Y-112718599D02*
X131634599Y-113043601D01*
X132061601Y-108200639D02*
X132061601Y-109426561D01*
X128473200Y-93776800D02*
X131959601Y-97263201D01*
X131959601Y-109528561D02*
X131959601Y-110638639D01*
X131959601Y-108098639D02*
X132061601Y-108200639D01*
X131959601Y-110638639D02*
X132061601Y-110740639D01*
X132061601Y-109426561D02*
X131959601Y-109528561D01*
X132061601Y-110740639D02*
X132061601Y-111966561D01*
X132061601Y-111966561D02*
X131959601Y-112068561D01*
G04 #@! TO.N,a2*
X149910800Y-67652000D02*
X149910800Y-66548000D01*
X145796000Y-71766800D02*
X149910800Y-67652000D01*
X145796000Y-81788000D02*
X145796000Y-71766800D01*
X145181799Y-82402201D02*
X145796000Y-81788000D01*
X137621801Y-82402201D02*
X145181799Y-82402201D01*
X136677400Y-81457800D02*
X137621801Y-82402201D01*
G04 #@! TO.N,d9*
X139491400Y-113080800D02*
X140741400Y-113080800D01*
X134315200Y-122224800D02*
X135115199Y-121424801D01*
X135115199Y-121424801D02*
X135115199Y-117457001D01*
X135115199Y-117457001D02*
X139491400Y-113080800D01*
G04 #@! TO.N,d10*
X137541000Y-121281200D02*
X137541000Y-122224800D01*
X140741400Y-118080800D02*
X137541000Y-121281200D01*
X143052800Y-114306885D02*
X143052800Y-113741200D01*
X143052800Y-115769400D02*
X143052800Y-114306885D01*
X140741400Y-118080800D02*
X143052800Y-115769400D01*
G04 #@! TO.N,d11*
X153873200Y-85445600D02*
X160197800Y-79121000D01*
X160197800Y-79121000D02*
X160401000Y-79121000D01*
G04 #@! TO.N,d12*
X137566400Y-97002600D02*
X137566400Y-96164400D01*
X151333200Y-85445600D02*
X145161000Y-91617800D01*
X145161000Y-91617800D02*
X143129000Y-91617800D01*
X138480800Y-97917000D02*
X137566400Y-97002600D01*
X143129000Y-91617800D02*
X142443200Y-92303600D01*
X142443200Y-96266000D02*
X140792200Y-97917000D01*
X142443200Y-92303600D02*
X142443200Y-96266000D01*
X140792200Y-97917000D02*
X138480800Y-97917000D01*
G04 #@! TO.N,d7*
X156413200Y-93091000D02*
X156413200Y-93065600D01*
X155498800Y-94005400D02*
X156413200Y-93091000D01*
X155473400Y-94005400D02*
X155498800Y-94005400D01*
X154076399Y-95402401D02*
X155473400Y-94005400D01*
X148488399Y-95402401D02*
X154076399Y-95402401D01*
X147726400Y-96164400D02*
X148488399Y-95402401D01*
G04 #@! TO.N,a4*
X129273199Y-86245599D02*
X128473200Y-85445600D01*
X150266400Y-106324400D02*
X145542000Y-101600000D01*
X145542000Y-101600000D02*
X139700000Y-101600000D01*
X139700000Y-101600000D02*
X132308600Y-94208600D01*
X132308600Y-94208600D02*
X132308600Y-89281000D01*
X132308600Y-89281000D02*
X129273199Y-86245599D01*
G04 #@! TO.N,d8*
X158953200Y-94919800D02*
X158953200Y-93065600D01*
X145186400Y-96164400D02*
X146812000Y-97790000D01*
X146812000Y-97790000D02*
X156083000Y-97790000D01*
X156083000Y-97790000D02*
X158953200Y-94919800D01*
G04 #@! TO.N,a5*
X125933200Y-85445600D02*
X129786199Y-89298599D01*
X129786199Y-89298599D02*
X129786199Y-93972199D01*
X138404600Y-102616000D02*
X145774512Y-102616000D01*
X129844800Y-94030800D02*
X129844800Y-94056200D01*
X129786199Y-93972199D02*
X129844800Y-94030800D01*
X129844800Y-94056200D02*
X138404600Y-102616000D01*
X148971000Y-106857800D02*
X149626601Y-107513401D01*
X145774512Y-102616000D02*
X148971000Y-105812488D01*
X148971000Y-105812488D02*
X148971000Y-106857800D01*
X154157399Y-107513401D02*
X155346400Y-106324400D01*
X149626601Y-107513401D02*
X154157399Y-107513401D01*
G04 #@! TD*
M02*
