M48
;DRILL file {KiCad 5.0.0-fee4fd1~66~ubuntu14.04.1} date Mon Oct 15 23:56:18 2018
;FORMAT={-:-/ absolute / metric / decimal}
FMAT,2
METRIC,TZ
T1C0.400
T2C0.762
T3C0.800
T4C0.900
T5C1.000
T6C1.100
T7C2.600
T8C2.200
%
G90
G05
M71
T1
X143.053Y-113.741
X160.401Y-79.121
T2
X137.566Y-96.164
X140.106Y-96.164
X140.106Y-106.324
X142.646Y-106.324
X145.186Y-96.164
X145.186Y-106.324
X147.726Y-96.164
X147.726Y-106.324
X150.266Y-106.324
X152.806Y-106.324
X155.346Y-96.164
X155.346Y-106.324
T3
X133.401Y-71.298
X133.401Y-81.458
X125.933Y-85.446
X125.933Y-93.066
X128.473Y-85.446
X128.473Y-93.066
X131.013Y-85.446
X131.013Y-93.066
X133.553Y-85.446
X133.553Y-93.066
X136.093Y-85.446
X136.093Y-93.066
X138.633Y-85.446
X138.633Y-93.066
X141.173Y-85.446
X141.173Y-93.066
X143.713Y-85.446
X143.713Y-93.066
X146.253Y-85.446
X146.253Y-93.066
X148.793Y-85.446
X148.793Y-93.066
X151.333Y-85.446
X151.333Y-93.066
X153.873Y-85.446
X153.873Y-93.066
X156.413Y-85.446
X156.413Y-93.066
X158.953Y-85.446
X158.953Y-93.066
X129.896Y-73.932
X129.896Y-81.432
X151.816Y-80.162
X156.716Y-80.162
X147.041Y-75.514
X149.541Y-75.514
X126.441Y-103.53
X128.941Y-103.53
X134.315Y-112.065
X134.315Y-122.225
X137.541Y-112.065
X137.541Y-122.225
X147.066Y-77.902
X147.066Y-80.402
X126.086Y-73.939
X126.086Y-81.439
X136.576Y-71.298
X136.576Y-81.458
T4
X126.162Y-68.072
X128.702Y-68.072
T5
X130.785Y-108.814
X130.785Y-111.354
X130.785Y-113.894
X130.785Y-116.434
X130.785Y-118.974
X130.785Y-121.514
X126.238Y-111.76
X126.238Y-114.3
X126.238Y-116.84
X159.258Y-111.76
X159.258Y-114.3
X159.258Y-116.84
X140.741Y-113.081
X140.741Y-115.581
X140.741Y-118.081
X155.241Y-113.081
X155.241Y-118.081
X149.911Y-66.548
X152.451Y-66.548
X154.991Y-66.548
T6
X152.197Y-71.222
X152.197Y-75.722
X158.697Y-71.222
X158.697Y-75.722
X139.725Y-74.475
X139.725Y-80.975
X144.225Y-74.475
X144.225Y-80.975
T7
X148.241Y-109.981
X148.241Y-121.181
T8
X159.36Y-121.209
X126.365Y-121.234
X159.385Y-67.005
X127.787Y-97.104
T0
M30
