G04 #@! TF.GenerationSoftware,KiCad,Pcbnew,5.0.0-fee4fd1~66~ubuntu14.04.1*
G04 #@! TF.CreationDate,2018-10-15T23:56:10-07:00*
G04 #@! TF.ProjectId,delay,64656C61792E6B696361645F70636200,rev?*
G04 #@! TF.SameCoordinates,Original*
G04 #@! TF.FileFunction,Soldermask,Top*
G04 #@! TF.FilePolarity,Negative*
%FSLAX46Y46*%
G04 Gerber Fmt 4.6, Leading zero omitted, Abs format (unit mm)*
G04 Created by KiCad (PCBNEW 5.0.0-fee4fd1~66~ubuntu14.04.1) date Mon Oct 15 23:56:10 2018*
%MOMM*%
%LPD*%
G01*
G04 APERTURE LIST*
%ADD10R,2.000000X2.000000*%
%ADD11O,2.000000X2.000000*%
%ADD12C,1.924000*%
%ADD13R,2.100000X2.100000*%
%ADD14O,2.100000X2.100000*%
%ADD15C,2.000000*%
%ADD16R,2.200000X2.200000*%
%ADD17C,2.200000*%
%ADD18C,2.400000*%
%ADD19C,3.600000*%
%ADD20R,2.400000X2.400000*%
%ADD21C,1.900000*%
%ADD22C,2.600000*%
G04 APERTURE END LIST*
D10*
G04 #@! TO.C,U1*
X125933200Y-93065600D03*
D11*
X158953200Y-85445600D03*
X128473200Y-93065600D03*
X156413200Y-85445600D03*
X131013200Y-93065600D03*
X153873200Y-85445600D03*
X133553200Y-93065600D03*
X151333200Y-85445600D03*
X136093200Y-93065600D03*
X148793200Y-85445600D03*
X138633200Y-93065600D03*
X146253200Y-85445600D03*
X141173200Y-93065600D03*
X143713200Y-85445600D03*
X143713200Y-93065600D03*
X141173200Y-85445600D03*
X146253200Y-93065600D03*
X138633200Y-85445600D03*
X148793200Y-93065600D03*
X136093200Y-85445600D03*
X151333200Y-93065600D03*
X133553200Y-85445600D03*
X153873200Y-93065600D03*
X131013200Y-85445600D03*
X156413200Y-93065600D03*
X128473200Y-85445600D03*
X158953200Y-93065600D03*
X125933200Y-85445600D03*
G04 #@! TD*
D12*
G04 #@! TO.C,U2*
X140106400Y-106324400D03*
X142646400Y-106324400D03*
X145186400Y-106324400D03*
X147726400Y-106324400D03*
X150266400Y-106324400D03*
X152806400Y-106324400D03*
X155346400Y-106324400D03*
X155346400Y-96164400D03*
X147726400Y-96164400D03*
X145186400Y-96164400D03*
X140106400Y-96164400D03*
X137566400Y-96164400D03*
G04 #@! TD*
D13*
G04 #@! TO.C,J3*
X130784600Y-121513600D03*
D14*
X130784600Y-118973600D03*
X130784600Y-116433600D03*
X130784600Y-113893600D03*
X130784600Y-111353600D03*
X130784600Y-108813600D03*
G04 #@! TD*
D10*
G04 #@! TO.C,C1*
X126441200Y-103530400D03*
D15*
X128941200Y-103530400D03*
G04 #@! TD*
G04 #@! TO.C,C2*
X147066000Y-80401800D03*
X147066000Y-77901800D03*
G04 #@! TD*
G04 #@! TO.C,C3*
X147040600Y-75514200D03*
X149540600Y-75514200D03*
G04 #@! TD*
D11*
G04 #@! TO.C,C4*
X129895600Y-73932400D03*
D15*
X129895600Y-81432400D03*
G04 #@! TD*
G04 #@! TO.C,C5*
X126085600Y-73939400D03*
D11*
X126085600Y-81439400D03*
G04 #@! TD*
D16*
G04 #@! TO.C,D1*
X126161800Y-68072000D03*
D17*
X128701800Y-68072000D03*
G04 #@! TD*
D14*
G04 #@! TO.C,J1*
X126238000Y-116840000D03*
X126238000Y-114300000D03*
D13*
X126238000Y-111760000D03*
G04 #@! TD*
G04 #@! TO.C,J2*
X159258000Y-111760000D03*
D14*
X159258000Y-114300000D03*
X159258000Y-116840000D03*
G04 #@! TD*
D13*
G04 #@! TO.C,J4*
X149910800Y-66548000D03*
D14*
X152450800Y-66548000D03*
X154990800Y-66548000D03*
G04 #@! TD*
D15*
G04 #@! TO.C,R1*
X136575800Y-71297800D03*
D11*
X136575800Y-81457800D03*
G04 #@! TD*
G04 #@! TO.C,R2*
X133400800Y-71297800D03*
D15*
X133400800Y-81457800D03*
G04 #@! TD*
G04 #@! TO.C,R3*
X134315200Y-122224800D03*
D11*
X134315200Y-112064800D03*
G04 #@! TD*
G04 #@! TO.C,R4*
X137541000Y-112064800D03*
D15*
X137541000Y-122224800D03*
G04 #@! TD*
D18*
G04 #@! TO.C,SW1*
X155241400Y-118080800D03*
X155241400Y-113080800D03*
D19*
X148241400Y-121180800D03*
X148241400Y-109980800D03*
D18*
X140741400Y-118080800D03*
X140741400Y-115580800D03*
D20*
X140741400Y-113080800D03*
G04 #@! TD*
D18*
G04 #@! TO.C,SW2*
X152196800Y-75721600D03*
X152196800Y-71221600D03*
X158696800Y-75721600D03*
X158696800Y-71221600D03*
G04 #@! TD*
G04 #@! TO.C,SW3*
X139725400Y-74475200D03*
X144225400Y-74475200D03*
X139725400Y-80975200D03*
X144225400Y-80975200D03*
G04 #@! TD*
D21*
G04 #@! TO.C,Y1*
X151815800Y-80162400D03*
X156715800Y-80162400D03*
G04 #@! TD*
D22*
G04 #@! TO.C,H1*
X126365000Y-121234200D03*
G04 #@! TD*
G04 #@! TO.C,H2*
X159359600Y-121208800D03*
G04 #@! TD*
G04 #@! TO.C,H3*
X159385000Y-67005200D03*
G04 #@! TD*
G04 #@! TO.C,H4*
X127787400Y-97104200D03*
G04 #@! TD*
M02*
