G04 #@! TF.GenerationSoftware,KiCad,Pcbnew,5.0.2-bee76a0~70~ubuntu14.04.1*
G04 #@! TF.CreationDate,2018-12-14T16:21:01-07:00*
G04 #@! TF.ProjectId,delay,64656c61-792e-46b6-9963-61645f706362,rev?*
G04 #@! TF.SameCoordinates,Original*
G04 #@! TF.FileFunction,Copper,L2,Bot*
G04 #@! TF.FilePolarity,Positive*
%FSLAX46Y46*%
G04 Gerber Fmt 4.6, Leading zero omitted, Abs format (unit mm)*
G04 Created by KiCad (PCBNEW 5.0.2-bee76a0~70~ubuntu14.04.1) date Fri 14 Dec 2018 04:21:01 PM MST*
%MOMM*%
%LPD*%
G01*
G04 APERTURE LIST*
G04 #@! TA.AperFunction,ComponentPad*
%ADD10R,1.800000X1.800000*%
G04 #@! TD*
G04 #@! TA.AperFunction,ComponentPad*
%ADD11C,1.800000*%
G04 #@! TD*
G04 #@! TA.AperFunction,ComponentPad*
%ADD12C,6.400000*%
G04 #@! TD*
G04 #@! TA.AperFunction,ComponentPad*
%ADD13R,1.700000X1.700000*%
G04 #@! TD*
G04 #@! TA.AperFunction,ComponentPad*
%ADD14O,1.700000X1.700000*%
G04 #@! TD*
G04 #@! TA.AperFunction,ComponentPad*
%ADD15C,2.000000*%
G04 #@! TD*
G04 #@! TA.AperFunction,ComponentPad*
%ADD16C,3.200000*%
G04 #@! TD*
G04 #@! TA.AperFunction,ComponentPad*
%ADD17R,2.000000X2.000000*%
G04 #@! TD*
G04 #@! TA.AperFunction,ComponentPad*
%ADD18C,1.524000*%
G04 #@! TD*
G04 #@! TA.AperFunction,SMDPad,CuDef*
%ADD19R,5.000000X2.000000*%
G04 #@! TD*
G04 #@! TA.AperFunction,ViaPad*
%ADD20C,0.800000*%
G04 #@! TD*
G04 #@! TA.AperFunction,Conductor*
%ADD21C,0.160000*%
G04 #@! TD*
G04 #@! TA.AperFunction,Conductor*
%ADD22C,0.250000*%
G04 #@! TD*
G04 APERTURE END LIST*
D10*
G04 #@! TO.P,D1,1*
G04 #@! TO.N,bus13*
X150114000Y-103203000D03*
D11*
G04 #@! TO.P,D1,2*
G04 #@! TO.N,Net-(D1-Pad2)*
X152654000Y-103203000D03*
G04 #@! TD*
D12*
G04 #@! TO.P,H1,1*
G04 #@! TO.N,Net-(H1-Pad1)*
X154686000Y-166624000D03*
G04 #@! TD*
G04 #@! TO.P,H2,1*
G04 #@! TO.N,Net-(H2-Pad1)*
X128016000Y-166624000D03*
G04 #@! TD*
G04 #@! TO.P,H3,1*
G04 #@! TO.N,Net-(H3-Pad1)*
X154686000Y-96774000D03*
G04 #@! TD*
G04 #@! TO.P,H4,1*
G04 #@! TO.N,Net-(H4-Pad1)*
X128016000Y-96774000D03*
G04 #@! TD*
D13*
G04 #@! TO.P,J5,1*
G04 #@! TO.N,bus1*
X149098000Y-94996000D03*
D14*
G04 #@! TO.P,J5,2*
G04 #@! TO.N,bus2*
X149098000Y-97536000D03*
G04 #@! TO.P,J5,3*
G04 #@! TO.N,bus3*
X146558000Y-94996000D03*
G04 #@! TO.P,J5,4*
G04 #@! TO.N,bus4*
X146558000Y-97536000D03*
G04 #@! TO.P,J5,5*
G04 #@! TO.N,bus5*
X144018000Y-94996000D03*
G04 #@! TO.P,J5,6*
G04 #@! TO.N,bus6*
X144018000Y-97536000D03*
G04 #@! TO.P,J5,7*
G04 #@! TO.N,bus7*
X141478000Y-94996000D03*
G04 #@! TO.P,J5,8*
G04 #@! TO.N,bus8*
X141478000Y-97536000D03*
G04 #@! TO.P,J5,9*
G04 #@! TO.N,RX*
X138938000Y-94996000D03*
G04 #@! TO.P,J5,10*
G04 #@! TO.N,TX*
X138938000Y-97536000D03*
G04 #@! TO.P,J5,11*
G04 #@! TO.N,bus11*
X136398000Y-94996000D03*
G04 #@! TO.P,J5,12*
X136398000Y-97536000D03*
G04 #@! TO.P,J5,13*
G04 #@! TO.N,bus13*
X133858000Y-94996000D03*
G04 #@! TO.P,J5,14*
X133858000Y-97536000D03*
G04 #@! TD*
D15*
G04 #@! TO.P,SW1,S1*
G04 #@! TO.N,d11*
X143176000Y-167662000D03*
G04 #@! TO.P,SW1,S2*
G04 #@! TO.N,bus13*
X138176000Y-167662000D03*
D16*
G04 #@! TO.P,SW1,MP*
G04 #@! TO.N,N/C*
X146276000Y-160662000D03*
X135076000Y-160662000D03*
D15*
G04 #@! TO.P,SW1,B*
G04 #@! TO.N,d10*
X143176000Y-153162000D03*
G04 #@! TO.P,SW1,C*
G04 #@! TO.N,bus13*
X140676000Y-153162000D03*
D17*
G04 #@! TO.P,SW1,A*
G04 #@! TO.N,d9*
X138176000Y-153162000D03*
G04 #@! TD*
D18*
G04 #@! TO.P,U2,1*
G04 #@! TO.N,Net-(R5-Pad2)*
X135636000Y-130302000D03*
G04 #@! TO.P,U2,2*
G04 #@! TO.N,d2*
X138176000Y-130302000D03*
G04 #@! TO.P,U2,3*
G04 #@! TO.N,d3*
X140716000Y-130302000D03*
G04 #@! TO.P,U2,4*
G04 #@! TO.N,d4*
X143256000Y-130302000D03*
G04 #@! TO.P,U2,5*
G04 #@! TO.N,Net-(R6-Pad2)*
X145796000Y-130302000D03*
G04 #@! TO.P,U2,6*
G04 #@! TO.N,d5*
X148336000Y-130302000D03*
G04 #@! TO.P,U2,7*
G04 #@! TO.N,Net-(R7-Pad2)*
X150876000Y-130302000D03*
G04 #@! TO.P,U2,8*
G04 #@! TO.N,d6*
X150876000Y-140462000D03*
G04 #@! TO.P,U2,11*
G04 #@! TO.N,d7*
X143256000Y-140462000D03*
G04 #@! TO.P,U2,12*
G04 #@! TO.N,d8*
X140716000Y-140462000D03*
G04 #@! TO.P,U2,14*
G04 #@! TO.N,N/C*
X135636000Y-140462000D03*
G04 #@! TO.P,U2,15*
G04 #@! TO.N,d12*
X133096000Y-140462000D03*
G04 #@! TD*
D19*
G04 #@! TO.P,J1,6*
G04 #@! TO.N,d13*
X127762000Y-117602000D03*
G04 #@! TO.P,J1,5*
G04 #@! TO.N,d12*
X127762000Y-120142000D03*
G04 #@! TO.P,J1,4*
G04 #@! TO.N,d11*
X127762000Y-122682000D03*
G04 #@! TD*
G04 #@! TO.P,J3,4*
G04 #@! TO.N,RX*
X127762000Y-108204000D03*
G04 #@! TO.P,J3,5*
G04 #@! TO.N,TX*
X127762000Y-110744000D03*
G04 #@! TO.P,J3,6*
G04 #@! TO.N,DTR*
X127762000Y-113284000D03*
G04 #@! TD*
D20*
G04 #@! TO.N,XTAL1*
X147115000Y-119448000D03*
X143171023Y-122443010D03*
G04 #@! TO.N,XTAL2*
X147240000Y-121438000D03*
X143164706Y-121375669D03*
G04 #@! TO.N,RESET*
X133692000Y-101854000D03*
X132331079Y-106827877D03*
G04 #@! TO.N,DTR*
X137668000Y-103124000D03*
G04 #@! TO.N,a0*
X135209990Y-108448404D03*
X131530010Y-108519957D03*
G04 #@! TO.N,a1*
X132525392Y-109492659D03*
X127410004Y-145879996D03*
X129950000Y-145880001D03*
X132490000Y-145879998D03*
X135030000Y-145880002D03*
X137570000Y-145880002D03*
X140110000Y-145879998D03*
X142650000Y-145879998D03*
X145190000Y-145880001D03*
G04 #@! TO.N,RX*
X134574252Y-115923872D03*
X130157972Y-126601972D03*
G04 #@! TO.N,TX*
X127480000Y-126420000D03*
X135607634Y-113833776D03*
X131600000Y-116500002D03*
X127480000Y-126420000D03*
G04 #@! TO.N,a2*
X134290000Y-122428000D03*
X141666000Y-106934000D03*
X138650325Y-113722005D03*
X133656213Y-110839053D03*
G04 #@! TO.N,d10*
X145455000Y-113408000D03*
G04 #@! TO.N,d11*
X153150000Y-110000000D03*
G04 #@! TO.N,a3*
X144296000Y-107994000D03*
X139767898Y-115634744D03*
G04 #@! TO.N,d12*
X154432000Y-109474000D03*
X133064160Y-154185840D03*
G04 #@! TO.N,d3*
X139250000Y-124250000D03*
G04 #@! TO.N,d13*
X139020063Y-112168382D03*
X145899998Y-99050000D03*
X124909241Y-115363077D03*
X136939855Y-122348174D03*
G04 #@! TO.N,d7*
X143969990Y-116569335D03*
G04 #@! TO.N,a4*
X140425397Y-122407390D03*
X137824316Y-116667990D03*
G04 #@! TO.N,d8*
X139954000Y-117094000D03*
G04 #@! TO.N,a5*
X135382000Y-114808000D03*
X130048000Y-128524000D03*
X129540000Y-132080000D03*
X134620000Y-124206000D03*
X134366000Y-120904000D03*
X149410000Y-125640000D03*
G04 #@! TO.N,bus11*
X133905000Y-106830000D03*
X147030000Y-113408000D03*
X134112000Y-108712000D03*
X146750000Y-110699998D03*
X139210834Y-120328925D03*
X131023381Y-118400598D03*
X128150000Y-115730010D03*
G04 #@! TO.N,bus13*
X133692000Y-104854000D03*
X135890008Y-105894021D03*
X130736354Y-114786429D03*
X126534313Y-115500016D03*
G04 #@! TO.N,Net-(D2-Pad2)*
X132588000Y-134112000D03*
X142748000Y-134112000D03*
X140208000Y-134112000D03*
X137668000Y-134112000D03*
X135128000Y-134112000D03*
X130048000Y-134112000D03*
X127508000Y-134112000D03*
X145288000Y-134112000D03*
G04 #@! TO.N,bus1*
X145322972Y-137956972D03*
G04 #@! TO.N,bus2*
X142748000Y-137922000D03*
G04 #@! TO.N,bus3*
X145240000Y-126440000D03*
G04 #@! TO.N,bus4*
X142700000Y-126440000D03*
G04 #@! TO.N,bus5*
X140140000Y-126510000D03*
G04 #@! TO.N,bus6*
X137668000Y-126492000D03*
G04 #@! TO.N,bus7*
X135168098Y-126512495D03*
G04 #@! TO.N,bus8*
X132588000Y-126500000D03*
G04 #@! TD*
D21*
G04 #@! TO.N,XTAL1*
X143228013Y-122500000D02*
X143171023Y-122443010D01*
X147900000Y-122500000D02*
X143228013Y-122500000D01*
X148250000Y-122150000D02*
X147900000Y-122500000D01*
X148250000Y-120583000D02*
X148250000Y-122150000D01*
X147115000Y-119448000D02*
X148250000Y-120583000D01*
G04 #@! TO.N,XTAL2*
X143227037Y-121438000D02*
X143164706Y-121375669D01*
X147240000Y-121438000D02*
X143227037Y-121438000D01*
G04 #@! TO.N,RESET*
X132331079Y-104074921D02*
X132331079Y-106262192D01*
X133692000Y-101854000D02*
X133692000Y-102714000D01*
X132331079Y-106262192D02*
X132331079Y-106827877D01*
X133692000Y-102714000D02*
X132331079Y-104074921D01*
G04 #@! TO.N,DTR*
X129540000Y-100584000D02*
X124586010Y-105537990D01*
X125222000Y-113284000D02*
X127762000Y-113284000D01*
X124586010Y-112648010D02*
X125222000Y-113284000D01*
X135128000Y-100584000D02*
X129540000Y-100584000D01*
X124586010Y-105537990D02*
X124586010Y-112648010D01*
X137668000Y-103124000D02*
X135128000Y-100584000D01*
G04 #@! TO.N,a0*
X131930009Y-108119958D02*
X131530010Y-108519957D01*
X135209990Y-108448404D02*
X134793584Y-108031998D01*
X132017969Y-108031998D02*
X131930009Y-108119958D01*
X134793584Y-108031998D02*
X132017969Y-108031998D01*
G04 #@! TO.N,a1*
X132525392Y-109492659D02*
X131972097Y-110045954D01*
X131972097Y-110045954D02*
X131972097Y-111296763D01*
X134630001Y-145480003D02*
X135030000Y-145880002D01*
X134593999Y-145444001D02*
X134630001Y-145480003D01*
X134593999Y-139673999D02*
X134593999Y-145444001D01*
X132458823Y-122830309D02*
X126385989Y-128903143D01*
X133858000Y-138938000D02*
X134593999Y-139673999D01*
X130048000Y-138938000D02*
X133858000Y-138938000D01*
X126385989Y-128903143D02*
X126385989Y-135275989D01*
X126385989Y-135275989D02*
X130048000Y-138938000D01*
X132458823Y-111783489D02*
X132458823Y-122830309D01*
X131972097Y-111296763D02*
X132458823Y-111783489D01*
X127410004Y-145879996D02*
X145189995Y-145879996D01*
X145189995Y-145879996D02*
X145190000Y-145880001D01*
G04 #@! TO.N,RX*
X135890000Y-108966000D02*
X135890000Y-107671988D01*
X139044011Y-104517977D02*
X137643988Y-105918000D01*
X137643988Y-105918000D02*
X135890000Y-107671988D01*
X139044011Y-99822000D02*
X139044011Y-104517977D01*
X137650000Y-98427989D02*
X139044011Y-99822000D01*
X137650000Y-96284000D02*
X137650000Y-98427989D01*
X138938000Y-94996000D02*
X137650000Y-96284000D01*
X134574252Y-115358187D02*
X134574252Y-115923872D01*
X134574252Y-111160348D02*
X134574252Y-115358187D01*
X128371988Y-107671988D02*
X135890000Y-107671988D01*
X128133986Y-107433986D02*
X128371988Y-107671988D01*
X127516014Y-107433986D02*
X128133986Y-107433986D01*
X126746000Y-108204000D02*
X127516014Y-107433986D01*
X134786001Y-110069999D02*
X135890000Y-108966000D01*
X134786001Y-110948599D02*
X134574252Y-111160348D01*
X134786001Y-110069999D02*
X134786001Y-110948599D01*
X133463586Y-110069999D02*
X132820001Y-110713584D01*
X132820001Y-110713584D02*
X132820001Y-111126402D01*
X130557971Y-126201973D02*
X130157972Y-126601972D01*
X134786001Y-110069999D02*
X133463586Y-110069999D01*
X132820001Y-111126402D02*
X133202011Y-111508412D01*
X133202011Y-111508412D02*
X133202011Y-123557933D01*
X133202011Y-123557933D02*
X130557971Y-126201973D01*
G04 #@! TO.N,TX*
X136291989Y-108050351D02*
X136291989Y-110342011D01*
X135607634Y-113268091D02*
X135607634Y-113833776D01*
X140208000Y-104134340D02*
X136291989Y-108050351D01*
X135607634Y-111026366D02*
X135607634Y-113268091D01*
X140208000Y-98806000D02*
X140208000Y-104134340D01*
X136291989Y-110342011D02*
X135607634Y-111026366D01*
X138938000Y-97536000D02*
X140208000Y-98806000D01*
X131600000Y-115934317D02*
X131600000Y-116500002D01*
X130417672Y-110744000D02*
X131600000Y-111926328D01*
X126746000Y-110744000D02*
X130417672Y-110744000D01*
X131600000Y-111926328D02*
X131600000Y-115934317D01*
X131600000Y-116500002D02*
X131600000Y-117065687D01*
X131600000Y-117065687D02*
X131880000Y-117345687D01*
X131880000Y-117345687D02*
X131880000Y-122900000D01*
X128360000Y-126420000D02*
X127480000Y-126420000D01*
X131880000Y-122900000D02*
X128360000Y-126420000D01*
G04 #@! TO.N,a2*
X141666000Y-106934000D02*
X141666000Y-110706330D01*
X139050324Y-113322006D02*
X138650325Y-113722005D01*
X141666000Y-110706330D02*
X139050324Y-113322006D01*
X133685998Y-121823998D02*
X133685998Y-117451012D01*
X133685998Y-117451012D02*
X133892456Y-117244554D01*
X133892456Y-111075296D02*
X133656213Y-110839053D01*
X133892456Y-117244554D02*
X133892456Y-111075296D01*
X134290000Y-122428000D02*
X133685998Y-121823998D01*
G04 #@! TO.N,d10*
X150579930Y-132140232D02*
X150178031Y-132140233D01*
X144175999Y-152162001D02*
X143176000Y-153162000D01*
X146812000Y-144018000D02*
X146812000Y-149526000D01*
X146812000Y-149526000D02*
X144175999Y-152162001D01*
X144560022Y-141766022D02*
X146812000Y-144018000D01*
X150178031Y-132140233D02*
X144560022Y-137758242D01*
X151918001Y-130802161D02*
X150579930Y-132140232D01*
X151918001Y-120446001D02*
X151918001Y-130802161D01*
X144560022Y-137758242D02*
X144560022Y-141766022D01*
X145455000Y-113983000D02*
X151918001Y-120446001D01*
X145455000Y-113408000D02*
X145455000Y-113983000D01*
G04 #@! TO.N,d11*
X153150000Y-110565685D02*
X153150000Y-110000000D01*
X153150000Y-158500000D02*
X153150000Y-110565685D01*
X143988000Y-167662000D02*
X153150000Y-158500000D01*
X143176000Y-167662000D02*
X143988000Y-167662000D01*
X125157969Y-125540031D02*
X128016000Y-122682000D01*
X125157969Y-145317969D02*
X125157969Y-125540031D01*
X143176000Y-167662000D02*
X141912000Y-167662000D01*
X141912000Y-167662000D02*
X140971132Y-166721132D01*
X140971132Y-166721132D02*
X140971132Y-161131132D01*
X140971132Y-161131132D02*
X125157969Y-145317969D01*
G04 #@! TO.N,a3*
X144296000Y-107994000D02*
X144296000Y-111106642D01*
X144296000Y-111106642D02*
X140167897Y-115234745D01*
X140167897Y-115234745D02*
X139767898Y-115634744D01*
G04 #@! TO.N,d12*
X124797959Y-121516039D02*
X126171998Y-120142000D01*
X140611122Y-166991524D02*
X140611122Y-161321122D01*
X143790401Y-168942001D02*
X142561599Y-168942001D01*
X124797959Y-145507959D02*
X124797959Y-121516039D01*
X153830001Y-109673599D02*
X153830001Y-158902401D01*
X133096000Y-140462000D02*
X128859696Y-140462000D01*
X152469999Y-110326401D02*
X152469999Y-109673599D01*
X140611122Y-161321122D02*
X124797959Y-145507959D01*
X153830001Y-158902401D02*
X143790401Y-168942001D01*
X128859696Y-140462000D02*
X125517979Y-143803717D01*
X142561599Y-168942001D02*
X140611122Y-166991524D01*
X152789990Y-158350880D02*
X152789990Y-110646392D01*
X152469999Y-109673599D02*
X152823599Y-109319999D01*
X126171998Y-120142000D02*
X128016000Y-120142000D01*
X152789990Y-110646392D02*
X152469999Y-110326401D01*
X152823599Y-109319999D02*
X153476401Y-109319999D01*
X153476401Y-109319999D02*
X153830001Y-109673599D01*
X133464159Y-154585839D02*
X133064160Y-154185840D01*
X139954000Y-161075680D02*
X133464159Y-154585839D01*
X139954000Y-167132000D02*
X139954000Y-161075680D01*
X142240000Y-169418000D02*
X139954000Y-167132000D01*
X144282000Y-169418000D02*
X142240000Y-169418000D01*
X154432000Y-159268000D02*
X144282000Y-169418000D01*
X154432000Y-109474000D02*
X154432000Y-159268000D01*
X125517979Y-143803717D02*
X125517979Y-144980000D01*
X125517979Y-144980000D02*
X125520000Y-144980000D01*
X152358871Y-158781999D02*
X152789990Y-158350880D01*
X139321999Y-158781999D02*
X152358871Y-158781999D01*
X125520000Y-144980000D02*
X139321999Y-158781999D01*
D22*
G04 #@! TO.N,d3*
X141290000Y-129728000D02*
X141290000Y-126290000D01*
X140716000Y-130302000D02*
X141290000Y-129728000D01*
X141290000Y-126290000D02*
X139250000Y-124250000D01*
D21*
G04 #@! TO.N,d13*
X139020063Y-112168382D02*
X139020063Y-107867937D01*
X145899998Y-99615685D02*
X145899998Y-99050000D01*
X139020063Y-107867937D02*
X145899998Y-100988002D01*
X145899998Y-100988002D02*
X145899998Y-99615685D01*
X126262000Y-117602000D02*
X124909241Y-116249241D01*
X124909241Y-115928762D02*
X124909241Y-115363077D01*
X127762000Y-117602000D02*
X126262000Y-117602000D01*
X124909241Y-116249241D02*
X124909241Y-115928762D01*
D22*
X137099315Y-121623029D02*
X136939855Y-121782489D01*
X137853657Y-113334788D02*
X137853657Y-115565647D01*
X139020063Y-112168382D02*
X137853657Y-113334788D01*
X136939855Y-121782489D02*
X136939855Y-122348174D01*
X137099315Y-116319989D02*
X137099315Y-121623029D01*
X137853657Y-115565647D02*
X137099315Y-116319989D01*
D21*
G04 #@! TO.N,d7*
X150810024Y-126264644D02*
X150810024Y-120582892D01*
X144535675Y-116569335D02*
X143969990Y-116569335D01*
X144200011Y-139517989D02*
X144200011Y-137609121D01*
X144200011Y-137609121D02*
X149818021Y-131991111D01*
X146796467Y-116569335D02*
X144535675Y-116569335D01*
X150810024Y-120582892D02*
X146796467Y-116569335D01*
X149818021Y-131991111D02*
X149818021Y-127256647D01*
X143256000Y-140462000D02*
X144200011Y-139517989D01*
X149818021Y-127256647D02*
X150810024Y-126264644D01*
D22*
G04 #@! TO.N,a4*
X140425397Y-122407390D02*
X140425397Y-120162837D01*
X137824316Y-117233675D02*
X137824316Y-116667990D01*
X140425397Y-120162837D02*
X137824316Y-117561756D01*
X137824316Y-117561756D02*
X137824316Y-117233675D01*
D21*
G04 #@! TO.N,d8*
X149458010Y-127107526D02*
X150450013Y-126115523D01*
X150450013Y-126115523D02*
X150450013Y-120984881D01*
X150450013Y-120984881D02*
X147723121Y-118257989D01*
X147723121Y-118257989D02*
X141117989Y-118257989D01*
X143840000Y-137870000D02*
X143840000Y-137460000D01*
X140353999Y-117493999D02*
X139954000Y-117094000D01*
X142009999Y-139700001D02*
X143840000Y-137870000D01*
X149458010Y-131841990D02*
X149458010Y-127107526D01*
X141117989Y-118257989D02*
X140353999Y-117493999D01*
X143840000Y-137460000D02*
X149458010Y-131841990D01*
X141477999Y-139700001D02*
X142009999Y-139700001D01*
X140716000Y-140462000D02*
X141477999Y-139700001D01*
G04 #@! TO.N,a5*
X135254261Y-116483371D02*
X134366000Y-117371632D01*
X134366000Y-117371632D02*
X134366000Y-120338315D01*
X134366000Y-120338315D02*
X134366000Y-120904000D01*
X135382000Y-114808000D02*
X135382000Y-115373685D01*
X135382000Y-115373685D02*
X135254261Y-115501424D01*
X135254261Y-115501424D02*
X135254261Y-116483371D01*
X148844315Y-125640000D02*
X149410000Y-125640000D01*
X129540000Y-132080000D02*
X143020162Y-132080000D01*
X144298001Y-130186314D02*
X148844315Y-125640000D01*
X144298001Y-130802161D02*
X144298001Y-130186314D01*
X143020162Y-132080000D02*
X144298001Y-130802161D01*
X134620000Y-124206000D02*
X134620000Y-126110000D01*
X132206000Y-128524000D02*
X130048000Y-128524000D01*
X134620000Y-126110000D02*
X132206000Y-128524000D01*
G04 #@! TO.N,bus11*
X134442500Y-106830000D02*
X133905000Y-106830000D01*
X135960433Y-106830000D02*
X134442500Y-106830000D01*
X138517999Y-100076000D02*
X138517999Y-104272434D01*
X136398000Y-97956001D02*
X138517999Y-100076000D01*
X138517999Y-104272434D02*
X135960433Y-106830000D01*
X136398000Y-97536000D02*
X136398000Y-97956001D01*
X147030000Y-110979998D02*
X146750000Y-110699998D01*
X147030000Y-113408000D02*
X147030000Y-110979998D01*
X130623382Y-116457697D02*
X130623382Y-118000599D01*
X129895695Y-115730010D02*
X130623382Y-116457697D01*
X130623382Y-118000599D02*
X131023381Y-118400598D01*
X128150000Y-115730010D02*
X129895695Y-115730010D01*
X139210834Y-120894610D02*
X139210834Y-120328925D01*
X139210834Y-123160834D02*
X139210834Y-120894610D01*
X141930000Y-125880000D02*
X139210834Y-123160834D01*
X141930000Y-130940000D02*
X141930000Y-125880000D01*
X134112000Y-108712000D02*
X134112000Y-108912453D01*
X134112000Y-108912453D02*
X132459988Y-110564465D01*
X132459988Y-110564465D02*
X132459988Y-111275522D01*
X128700000Y-127098264D02*
X128700000Y-129441736D01*
X132459988Y-111275522D02*
X132818834Y-111634368D01*
X128700000Y-129441736D02*
X130738264Y-131480000D01*
X132818834Y-111634368D02*
X132818834Y-122979430D01*
X130738264Y-131480000D02*
X141390000Y-131480000D01*
X132818834Y-122979430D02*
X128700000Y-127098264D01*
X141390000Y-131480000D02*
X141930000Y-130940000D01*
G04 #@! TO.N,bus13*
X133692000Y-104854000D02*
X134849987Y-104854000D01*
X135490009Y-105494022D02*
X135890008Y-105894021D01*
X134849987Y-104854000D02*
X135490009Y-105494022D01*
X127247900Y-114786429D02*
X130170669Y-114786429D01*
X126534313Y-115500016D02*
X127247900Y-114786429D01*
X130170669Y-114786429D02*
X130736354Y-114786429D01*
G04 #@! TO.N,Net-(D2-Pad2)*
X145288000Y-134112000D02*
X127508000Y-134112000D01*
G04 #@! TO.N,bus1*
X152278012Y-131001932D02*
X145722971Y-137556973D01*
X150368000Y-95256000D02*
X150368000Y-99208402D01*
X148350000Y-116368868D02*
X152278012Y-120296880D01*
X150108000Y-94996000D02*
X150368000Y-95256000D01*
X145722971Y-137556973D02*
X145322972Y-137956972D01*
X150368000Y-99208402D02*
X148350000Y-101226402D01*
X148350000Y-101226402D02*
X148350000Y-116368868D01*
X149098000Y-94996000D02*
X150108000Y-94996000D01*
X152278012Y-120296880D02*
X152278012Y-131001932D01*
G04 #@! TO.N,bus2*
X146838001Y-129218403D02*
X146838001Y-133831999D01*
X149098000Y-97536000D02*
X149098000Y-99825396D01*
X143066033Y-111330965D02*
X138978689Y-115418309D01*
X150090002Y-125966402D02*
X146838001Y-129218403D01*
X146838001Y-133831999D02*
X142748000Y-137922000D01*
X150090002Y-121134002D02*
X150090002Y-125966402D01*
X147574000Y-118618000D02*
X150090002Y-121134002D01*
X140471596Y-118618000D02*
X147574000Y-118618000D01*
X139224337Y-117370741D02*
X140471596Y-118618000D01*
X139224337Y-116043346D02*
X139224337Y-117370741D01*
X138978689Y-115797697D02*
X139224337Y-116043346D01*
X149098000Y-99825396D02*
X143066034Y-105857362D01*
X143066034Y-105857362D02*
X143066033Y-111330965D01*
X138978689Y-115418309D02*
X138978689Y-115797697D01*
G04 #@! TO.N,bus3*
X145240000Y-126410000D02*
X145240000Y-126440000D01*
X142479967Y-123649967D02*
X145240000Y-126410000D01*
X146558000Y-94996000D02*
X147830264Y-96268264D01*
X147830264Y-96268264D02*
X147830264Y-100584000D01*
X142706023Y-111153970D02*
X138618678Y-115241315D01*
X147830264Y-100584000D02*
X142706023Y-105708241D01*
X138864327Y-116192467D02*
X138864327Y-117519863D01*
X138864327Y-117519863D02*
X142479967Y-121135503D01*
X138618678Y-115241315D02*
X138618678Y-115946817D01*
X142706023Y-105708241D02*
X142706023Y-111153970D01*
X138618678Y-115946817D02*
X138864327Y-116192467D01*
X142479967Y-121135503D02*
X142479967Y-123649967D01*
G04 #@! TO.N,bus4*
X147407999Y-98385999D02*
X147407999Y-100497133D01*
X138504316Y-116341588D02*
X138504316Y-117668984D01*
X142346010Y-105559122D02*
X142346010Y-111004851D01*
X138258667Y-116095938D02*
X138504316Y-116341588D01*
X138504316Y-117668984D02*
X142119956Y-121284624D01*
X142119956Y-124899956D02*
X142700000Y-125480000D01*
X146558000Y-97536000D02*
X147407999Y-98385999D01*
X142119956Y-121284624D02*
X142119956Y-124899956D01*
X142700000Y-125480000D02*
X142700000Y-126440000D01*
X147407999Y-100497133D02*
X142346010Y-105559122D01*
X142346010Y-111004851D02*
X138258668Y-115092193D01*
X138258668Y-115092193D02*
X138258667Y-116095938D01*
G04 #@! TO.N,bus5*
X145169998Y-96147998D02*
X144018000Y-94996000D01*
X145169998Y-101208870D02*
X145169998Y-96147998D01*
X138511999Y-107866869D02*
X145169998Y-101208870D01*
X137448647Y-112750951D02*
X138511999Y-111687599D01*
X138511999Y-111687599D02*
X138511999Y-107866869D01*
X137448647Y-115397887D02*
X137448647Y-112750951D01*
X136694303Y-117244790D02*
X136694303Y-116296510D01*
X136694303Y-116296510D02*
X136694305Y-116152229D01*
X140140000Y-126510000D02*
X136208033Y-122578033D01*
X136694305Y-116152229D02*
X137448647Y-115397887D01*
X136208033Y-117731059D02*
X136694303Y-117244790D01*
X136208033Y-122578033D02*
X136208033Y-117731059D01*
G04 #@! TO.N,bus6*
X137668000Y-125360000D02*
X137668000Y-126492000D01*
X135848022Y-117581938D02*
X135848022Y-123540022D01*
X144018000Y-101851736D02*
X138151988Y-107717748D01*
X138151988Y-111538478D02*
X137088637Y-112601829D01*
X138151988Y-107717748D02*
X138151988Y-111538478D01*
X144018000Y-97536000D02*
X144018000Y-101851736D01*
X136334297Y-116003105D02*
X136334297Y-117095663D01*
X136334297Y-117095663D02*
X135848022Y-117581938D01*
X137088636Y-115248764D02*
X136334297Y-116003105D01*
X137088637Y-112601829D02*
X137088636Y-115248764D01*
X135848022Y-123540022D02*
X137668000Y-125360000D01*
G04 #@! TO.N,bus7*
X136728627Y-112452707D02*
X136728626Y-115099644D01*
X135974287Y-116946541D02*
X135488011Y-117432817D01*
X135168098Y-125946810D02*
X135168098Y-126512495D01*
X135488011Y-125626897D02*
X135168098Y-125946810D01*
X136728626Y-115099644D02*
X135974287Y-115853984D01*
X135488011Y-117432817D02*
X135488011Y-125626897D01*
X135974287Y-115853984D02*
X135974287Y-116946541D01*
X137791977Y-111389357D02*
X136728627Y-112452707D01*
X137791978Y-107568626D02*
X137791977Y-111389357D01*
X142750000Y-102610604D02*
X137791978Y-107568626D01*
X142750000Y-96268000D02*
X142750000Y-102610604D01*
X141478000Y-94996000D02*
X142750000Y-96268000D01*
G04 #@! TO.N,bus8*
X135614271Y-116797425D02*
X135128000Y-117283696D01*
X135614271Y-115704868D02*
X135614271Y-116797425D01*
X136368617Y-111027383D02*
X136368616Y-114950523D01*
X136652000Y-108199472D02*
X136652000Y-110744000D01*
X136652000Y-110744000D02*
X136368617Y-111027383D01*
X135128000Y-117283696D02*
X135128000Y-122682000D01*
X136368616Y-114950523D02*
X135614271Y-115704868D01*
X141478000Y-103373472D02*
X141224000Y-103627472D01*
X141224000Y-103627472D02*
X136652000Y-108199472D01*
X141478000Y-97536000D02*
X141478000Y-103373472D01*
X132987999Y-124822001D02*
X133480000Y-124330000D01*
X132987999Y-126100001D02*
X132987999Y-124822001D01*
X132588000Y-126500000D02*
X132987999Y-126100001D01*
X135128000Y-122682000D02*
X133480000Y-124330000D01*
G04 #@! TD*
G04 #@! TO.N,bus11*
G36*
X152714738Y-93823799D02*
X151735799Y-94802738D01*
X151206000Y-96081785D01*
X151206000Y-97466215D01*
X151735799Y-98745262D01*
X152714738Y-99724201D01*
X153993785Y-100254000D01*
X155378215Y-100254000D01*
X156657262Y-99724201D01*
X157636201Y-98745262D01*
X158156001Y-97490355D01*
X158156000Y-165907643D01*
X157636201Y-164652738D01*
X156657262Y-163673799D01*
X155378215Y-163144000D01*
X153993785Y-163144000D01*
X152714738Y-163673799D01*
X151735799Y-164652738D01*
X151206000Y-165931785D01*
X151206000Y-167316215D01*
X151735799Y-168595262D01*
X152714738Y-169574201D01*
X153969643Y-170094000D01*
X128732357Y-170094000D01*
X129987262Y-169574201D01*
X130966201Y-168595262D01*
X131458233Y-167407392D01*
X136896000Y-167407392D01*
X136896000Y-167916608D01*
X137090868Y-168387062D01*
X137450938Y-168747132D01*
X137921392Y-168942000D01*
X138430608Y-168942000D01*
X138901062Y-168747132D01*
X139261132Y-168387062D01*
X139456000Y-167916608D01*
X139456000Y-167407392D01*
X139261132Y-166936938D01*
X138901062Y-166576868D01*
X138430608Y-166382000D01*
X137921392Y-166382000D01*
X137450938Y-166576868D01*
X137090868Y-166936938D01*
X136896000Y-167407392D01*
X131458233Y-167407392D01*
X131496000Y-167316215D01*
X131496000Y-165931785D01*
X130966201Y-164652738D01*
X129987262Y-163673799D01*
X128708215Y-163144000D01*
X127323785Y-163144000D01*
X126044738Y-163673799D01*
X125065799Y-164652738D01*
X124546000Y-165907643D01*
X124546000Y-160288045D01*
X133196000Y-160288045D01*
X133196000Y-161035955D01*
X133482213Y-161726934D01*
X134011066Y-162255787D01*
X134702045Y-162542000D01*
X135449955Y-162542000D01*
X136140934Y-162255787D01*
X136669787Y-161726934D01*
X136956000Y-161035955D01*
X136956000Y-160288045D01*
X136669787Y-159597066D01*
X136140934Y-159068213D01*
X135449955Y-158782000D01*
X134702045Y-158782000D01*
X134011066Y-159068213D01*
X133482213Y-159597066D01*
X133196000Y-160288045D01*
X124546000Y-160288045D01*
X124546000Y-145772572D01*
X124568470Y-145787586D01*
X132534609Y-153753726D01*
X132487684Y-153800651D01*
X132384160Y-154050580D01*
X132384160Y-154321100D01*
X132487684Y-154571029D01*
X132678971Y-154762316D01*
X132928900Y-154865840D01*
X133199420Y-154865840D01*
X133224609Y-154855406D01*
X133234669Y-154865466D01*
X133234672Y-154865468D01*
X139594001Y-161224798D01*
X139594000Y-167096547D01*
X139586948Y-167132000D01*
X139594000Y-167167452D01*
X139614888Y-167272464D01*
X139694455Y-167391544D01*
X139724511Y-167411627D01*
X141960372Y-169647489D01*
X141980455Y-169677545D01*
X142099535Y-169757112D01*
X142204547Y-169778000D01*
X142204550Y-169778000D01*
X142239999Y-169785051D01*
X142275448Y-169778000D01*
X144246547Y-169778000D01*
X144282000Y-169785052D01*
X144317453Y-169778000D01*
X144422465Y-169757112D01*
X144541545Y-169677545D01*
X144561630Y-169647486D01*
X154661489Y-159547628D01*
X154691545Y-159527545D01*
X154771112Y-159408465D01*
X154792000Y-159303453D01*
X154799052Y-159268000D01*
X154792000Y-159232547D01*
X154792000Y-110060910D01*
X154817189Y-110050476D01*
X155008476Y-109859189D01*
X155112000Y-109609260D01*
X155112000Y-109338740D01*
X155008476Y-109088811D01*
X154817189Y-108897524D01*
X154567260Y-108794000D01*
X154296740Y-108794000D01*
X154046811Y-108897524D01*
X153855524Y-109088811D01*
X153825885Y-109160366D01*
X153756030Y-109090512D01*
X153735946Y-109060454D01*
X153616866Y-108980887D01*
X153511854Y-108959999D01*
X153476401Y-108952947D01*
X153440948Y-108959999D01*
X152859052Y-108959999D01*
X152823599Y-108952947D01*
X152788146Y-108959999D01*
X152683134Y-108980887D01*
X152564054Y-109060454D01*
X152543971Y-109090510D01*
X152240510Y-109393972D01*
X152210455Y-109414054D01*
X152190373Y-109444109D01*
X152190372Y-109444110D01*
X152130887Y-109533135D01*
X152102947Y-109673599D01*
X152110000Y-109709056D01*
X152109999Y-110290948D01*
X152102947Y-110326401D01*
X152118559Y-110404888D01*
X152130887Y-110466865D01*
X152210454Y-110585945D01*
X152240510Y-110606028D01*
X152429991Y-110795510D01*
X152429991Y-119939742D01*
X148710000Y-116219752D01*
X148710000Y-102303000D01*
X148928515Y-102303000D01*
X148928515Y-104103000D01*
X148950246Y-104212250D01*
X149012132Y-104304868D01*
X149104750Y-104366754D01*
X149214000Y-104388485D01*
X150733931Y-104388485D01*
X150510066Y-104481213D01*
X149981213Y-105010066D01*
X149695000Y-105701045D01*
X149695000Y-106448955D01*
X149981213Y-107139934D01*
X150510066Y-107668787D01*
X151201045Y-107955000D01*
X151948955Y-107955000D01*
X152639934Y-107668787D01*
X153168787Y-107139934D01*
X153455000Y-106448955D01*
X153455000Y-105701045D01*
X153168787Y-105010066D01*
X152639934Y-104481213D01*
X151948955Y-104195000D01*
X151281185Y-104195000D01*
X151299485Y-104103000D01*
X151299485Y-102968283D01*
X151474000Y-102968283D01*
X151474000Y-103437717D01*
X151653644Y-103871417D01*
X151985583Y-104203356D01*
X152419283Y-104383000D01*
X152888717Y-104383000D01*
X153322417Y-104203356D01*
X153654356Y-103871417D01*
X153834000Y-103437717D01*
X153834000Y-102968283D01*
X153654356Y-102534583D01*
X153322417Y-102202644D01*
X152888717Y-102023000D01*
X152419283Y-102023000D01*
X151985583Y-102202644D01*
X151653644Y-102534583D01*
X151474000Y-102968283D01*
X151299485Y-102968283D01*
X151299485Y-102303000D01*
X151277754Y-102193750D01*
X151215868Y-102101132D01*
X151123250Y-102039246D01*
X151014000Y-102017515D01*
X149214000Y-102017515D01*
X149104750Y-102039246D01*
X149012132Y-102101132D01*
X148950246Y-102193750D01*
X148928515Y-102303000D01*
X148710000Y-102303000D01*
X148710000Y-101375518D01*
X150597489Y-99488030D01*
X150627545Y-99467947D01*
X150707112Y-99348867D01*
X150728000Y-99243855D01*
X150735052Y-99208402D01*
X150728000Y-99172949D01*
X150728000Y-95291453D01*
X150735052Y-95256000D01*
X150707112Y-95115535D01*
X150647627Y-95026510D01*
X150647625Y-95026508D01*
X150627544Y-94996455D01*
X150597491Y-94976374D01*
X150387629Y-94766513D01*
X150367545Y-94736455D01*
X150248465Y-94656888D01*
X150233485Y-94653908D01*
X150233485Y-94146000D01*
X150211754Y-94036750D01*
X150149868Y-93944132D01*
X150057250Y-93882246D01*
X149948000Y-93860515D01*
X148248000Y-93860515D01*
X148138750Y-93882246D01*
X148046132Y-93944132D01*
X147984246Y-94036750D01*
X147962515Y-94146000D01*
X147962515Y-95846000D01*
X147973787Y-95902670D01*
X147576608Y-95505492D01*
X147622437Y-95436904D01*
X147710138Y-94996000D01*
X147622437Y-94555096D01*
X147372685Y-94181315D01*
X146998904Y-93931563D01*
X146669296Y-93866000D01*
X146446704Y-93866000D01*
X146117096Y-93931563D01*
X145743315Y-94181315D01*
X145493563Y-94555096D01*
X145405862Y-94996000D01*
X145493563Y-95436904D01*
X145743315Y-95810685D01*
X146117096Y-96060437D01*
X146446704Y-96126000D01*
X146669296Y-96126000D01*
X146998904Y-96060437D01*
X147067492Y-96014608D01*
X147470264Y-96417381D01*
X147470264Y-96867353D01*
X147372685Y-96721315D01*
X146998904Y-96471563D01*
X146669296Y-96406000D01*
X146446704Y-96406000D01*
X146117096Y-96471563D01*
X145743315Y-96721315D01*
X145529998Y-97040567D01*
X145529998Y-96183446D01*
X145537049Y-96147997D01*
X145529998Y-96112548D01*
X145529998Y-96112545D01*
X145509110Y-96007533D01*
X145429543Y-95888453D01*
X145399487Y-95868370D01*
X145036608Y-95505492D01*
X145082437Y-95436904D01*
X145170138Y-94996000D01*
X145082437Y-94555096D01*
X144832685Y-94181315D01*
X144458904Y-93931563D01*
X144129296Y-93866000D01*
X143906704Y-93866000D01*
X143577096Y-93931563D01*
X143203315Y-94181315D01*
X142953563Y-94555096D01*
X142865862Y-94996000D01*
X142953563Y-95436904D01*
X143203315Y-95810685D01*
X143577096Y-96060437D01*
X143906704Y-96126000D01*
X144129296Y-96126000D01*
X144458904Y-96060437D01*
X144527492Y-96014608D01*
X144809999Y-96297116D01*
X144809999Y-96706157D01*
X144458904Y-96471563D01*
X144129296Y-96406000D01*
X143906704Y-96406000D01*
X143577096Y-96471563D01*
X143203315Y-96721315D01*
X143110000Y-96860971D01*
X143110000Y-96303453D01*
X143117052Y-96268000D01*
X143089112Y-96127535D01*
X143029627Y-96038510D01*
X143029625Y-96038508D01*
X143009544Y-96008455D01*
X142979491Y-95988374D01*
X142496608Y-95505492D01*
X142542437Y-95436904D01*
X142630138Y-94996000D01*
X142542437Y-94555096D01*
X142292685Y-94181315D01*
X141918904Y-93931563D01*
X141589296Y-93866000D01*
X141366704Y-93866000D01*
X141037096Y-93931563D01*
X140663315Y-94181315D01*
X140413563Y-94555096D01*
X140325862Y-94996000D01*
X140413563Y-95436904D01*
X140663315Y-95810685D01*
X141037096Y-96060437D01*
X141366704Y-96126000D01*
X141589296Y-96126000D01*
X141918904Y-96060437D01*
X141987492Y-96014608D01*
X142390000Y-96417117D01*
X142390000Y-96866958D01*
X142292685Y-96721315D01*
X141918904Y-96471563D01*
X141589296Y-96406000D01*
X141366704Y-96406000D01*
X141037096Y-96471563D01*
X140663315Y-96721315D01*
X140413563Y-97095096D01*
X140325862Y-97536000D01*
X140413563Y-97976904D01*
X140663315Y-98350685D01*
X141037096Y-98600437D01*
X141118000Y-98616530D01*
X141118001Y-103224354D01*
X140994513Y-103347843D01*
X140994510Y-103347845D01*
X140568000Y-103774355D01*
X140568000Y-98841447D01*
X140575051Y-98805999D01*
X140568000Y-98770551D01*
X140568000Y-98770547D01*
X140547112Y-98665535D01*
X140503614Y-98600437D01*
X140487627Y-98576510D01*
X140487625Y-98576508D01*
X140467544Y-98546455D01*
X140437491Y-98526374D01*
X139956608Y-98045492D01*
X140002437Y-97976904D01*
X140090138Y-97536000D01*
X140002437Y-97095096D01*
X139752685Y-96721315D01*
X139378904Y-96471563D01*
X139049296Y-96406000D01*
X138826704Y-96406000D01*
X138497096Y-96471563D01*
X138123315Y-96721315D01*
X138010000Y-96890903D01*
X138010000Y-96433116D01*
X138428508Y-96014608D01*
X138497096Y-96060437D01*
X138826704Y-96126000D01*
X139049296Y-96126000D01*
X139378904Y-96060437D01*
X139752685Y-95810685D01*
X140002437Y-95436904D01*
X140090138Y-94996000D01*
X140002437Y-94555096D01*
X139752685Y-94181315D01*
X139378904Y-93931563D01*
X139049296Y-93866000D01*
X138826704Y-93866000D01*
X138497096Y-93931563D01*
X138123315Y-94181315D01*
X137873563Y-94555096D01*
X137785862Y-94996000D01*
X137873563Y-95436904D01*
X137919392Y-95505492D01*
X137420511Y-96004373D01*
X137390455Y-96024456D01*
X137318940Y-96131485D01*
X137310888Y-96143536D01*
X137282948Y-96284000D01*
X137290000Y-96319453D01*
X137290000Y-96941381D01*
X137224560Y-96825411D01*
X136889711Y-96563191D01*
X136738185Y-96500445D01*
X136572000Y-96520803D01*
X136572000Y-97362000D01*
X136592000Y-97362000D01*
X136592000Y-97710000D01*
X136572000Y-97710000D01*
X136572000Y-98551197D01*
X136738185Y-98571555D01*
X136889711Y-98508809D01*
X137224560Y-98246589D01*
X137290001Y-98130618D01*
X137290001Y-98392531D01*
X137282948Y-98427989D01*
X137310888Y-98568453D01*
X137310889Y-98568454D01*
X137390456Y-98687534D01*
X137420511Y-98707616D01*
X138684011Y-99971117D01*
X138684012Y-104368859D01*
X137414501Y-105638371D01*
X137414498Y-105638373D01*
X135740884Y-107311988D01*
X132808633Y-107311988D01*
X132907555Y-107213066D01*
X133011079Y-106963137D01*
X133011079Y-106692617D01*
X132907555Y-106442688D01*
X132716268Y-106251401D01*
X132691079Y-106240967D01*
X132691079Y-104718740D01*
X133012000Y-104718740D01*
X133012000Y-104989260D01*
X133115524Y-105239189D01*
X133306811Y-105430476D01*
X133556740Y-105534000D01*
X133827260Y-105534000D01*
X134077189Y-105430476D01*
X134268476Y-105239189D01*
X134278910Y-105214000D01*
X134700871Y-105214000D01*
X135220442Y-105733572D01*
X135210008Y-105758761D01*
X135210008Y-106029281D01*
X135313532Y-106279210D01*
X135504819Y-106470497D01*
X135754748Y-106574021D01*
X136025268Y-106574021D01*
X136275197Y-106470497D01*
X136466484Y-106279210D01*
X136570008Y-106029281D01*
X136570008Y-105758761D01*
X136466484Y-105508832D01*
X136275197Y-105317545D01*
X136025268Y-105214021D01*
X135754748Y-105214021D01*
X135729559Y-105224455D01*
X135129616Y-104624513D01*
X135109532Y-104594455D01*
X134990452Y-104514888D01*
X134885440Y-104494000D01*
X134849987Y-104486948D01*
X134814534Y-104494000D01*
X134278910Y-104494000D01*
X134268476Y-104468811D01*
X134077189Y-104277524D01*
X133827260Y-104174000D01*
X133556740Y-104174000D01*
X133306811Y-104277524D01*
X133115524Y-104468811D01*
X133012000Y-104718740D01*
X132691079Y-104718740D01*
X132691079Y-104224037D01*
X133921489Y-102993628D01*
X133951545Y-102973545D01*
X134031112Y-102854465D01*
X134052000Y-102749453D01*
X134059052Y-102714000D01*
X134052000Y-102678547D01*
X134052000Y-102440910D01*
X134077189Y-102430476D01*
X134268476Y-102239189D01*
X134372000Y-101989260D01*
X134372000Y-101718740D01*
X134268476Y-101468811D01*
X134077189Y-101277524D01*
X133827260Y-101174000D01*
X133556740Y-101174000D01*
X133306811Y-101277524D01*
X133115524Y-101468811D01*
X133012000Y-101718740D01*
X133012000Y-101989260D01*
X133115524Y-102239189D01*
X133306811Y-102430476D01*
X133332001Y-102440910D01*
X133332001Y-102564882D01*
X132101590Y-103795294D01*
X132071534Y-103815377D01*
X132043748Y-103856962D01*
X131991967Y-103934457D01*
X131964027Y-104074921D01*
X131971079Y-104110374D01*
X131971080Y-106226735D01*
X131971079Y-106226740D01*
X131971079Y-106240967D01*
X131945890Y-106251401D01*
X131754603Y-106442688D01*
X131651079Y-106692617D01*
X131651079Y-106963137D01*
X131754603Y-107213066D01*
X131853525Y-107311988D01*
X130618856Y-107311988D01*
X130618856Y-107204000D01*
X130591692Y-107067437D01*
X130514335Y-106951665D01*
X130398563Y-106874308D01*
X130262000Y-106847144D01*
X125262000Y-106847144D01*
X125125437Y-106874308D01*
X125009665Y-106951665D01*
X124946010Y-107046931D01*
X124946010Y-105687106D01*
X129689117Y-100944000D01*
X134978884Y-100944000D01*
X136998434Y-102963551D01*
X136988000Y-102988740D01*
X136988000Y-103259260D01*
X137091524Y-103509189D01*
X137282811Y-103700476D01*
X137532740Y-103804000D01*
X137803260Y-103804000D01*
X138053189Y-103700476D01*
X138244476Y-103509189D01*
X138348000Y-103259260D01*
X138348000Y-102988740D01*
X138244476Y-102738811D01*
X138053189Y-102547524D01*
X137803260Y-102444000D01*
X137532740Y-102444000D01*
X137507551Y-102454434D01*
X135407630Y-100354514D01*
X135387545Y-100324455D01*
X135268465Y-100244888D01*
X135163453Y-100224000D01*
X135128000Y-100216948D01*
X135092547Y-100224000D01*
X129575453Y-100224000D01*
X129540000Y-100216948D01*
X129504547Y-100224000D01*
X129399535Y-100244888D01*
X129280455Y-100324455D01*
X129260372Y-100354511D01*
X124546000Y-105068884D01*
X124546000Y-97490357D01*
X125065799Y-98745262D01*
X126044738Y-99724201D01*
X127323785Y-100254000D01*
X128708215Y-100254000D01*
X129987262Y-99724201D01*
X130966201Y-98745262D01*
X131467094Y-97536000D01*
X132705862Y-97536000D01*
X132793563Y-97976904D01*
X133043315Y-98350685D01*
X133417096Y-98600437D01*
X133746704Y-98666000D01*
X133969296Y-98666000D01*
X134298904Y-98600437D01*
X134672685Y-98350685D01*
X134922437Y-97976904D01*
X134942470Y-97876188D01*
X135362427Y-97876188D01*
X135571440Y-98246589D01*
X135906289Y-98508809D01*
X136057815Y-98571555D01*
X136224000Y-98551197D01*
X136224000Y-97710000D01*
X135381960Y-97710000D01*
X135362427Y-97876188D01*
X134942470Y-97876188D01*
X135010138Y-97536000D01*
X134942471Y-97195812D01*
X135362427Y-97195812D01*
X135381960Y-97362000D01*
X136224000Y-97362000D01*
X136224000Y-96520803D01*
X136057815Y-96500445D01*
X135906289Y-96563191D01*
X135571440Y-96825411D01*
X135362427Y-97195812D01*
X134942471Y-97195812D01*
X134922437Y-97095096D01*
X134672685Y-96721315D01*
X134298904Y-96471563D01*
X133969296Y-96406000D01*
X133746704Y-96406000D01*
X133417096Y-96471563D01*
X133043315Y-96721315D01*
X132793563Y-97095096D01*
X132705862Y-97536000D01*
X131467094Y-97536000D01*
X131496000Y-97466215D01*
X131496000Y-96081785D01*
X131046253Y-94996000D01*
X132705862Y-94996000D01*
X132793563Y-95436904D01*
X133043315Y-95810685D01*
X133417096Y-96060437D01*
X133746704Y-96126000D01*
X133969296Y-96126000D01*
X134298904Y-96060437D01*
X134672685Y-95810685D01*
X134922437Y-95436904D01*
X134942470Y-95336188D01*
X135362427Y-95336188D01*
X135571440Y-95706589D01*
X135906289Y-95968809D01*
X136057815Y-96031555D01*
X136224000Y-96011197D01*
X136224000Y-95170000D01*
X136572000Y-95170000D01*
X136572000Y-96011197D01*
X136738185Y-96031555D01*
X136889711Y-95968809D01*
X137224560Y-95706589D01*
X137433573Y-95336188D01*
X137414040Y-95170000D01*
X136572000Y-95170000D01*
X136224000Y-95170000D01*
X135381960Y-95170000D01*
X135362427Y-95336188D01*
X134942470Y-95336188D01*
X135010138Y-94996000D01*
X134942471Y-94655812D01*
X135362427Y-94655812D01*
X135381960Y-94822000D01*
X136224000Y-94822000D01*
X136224000Y-93980803D01*
X136572000Y-93980803D01*
X136572000Y-94822000D01*
X137414040Y-94822000D01*
X137433573Y-94655812D01*
X137224560Y-94285411D01*
X136889711Y-94023191D01*
X136738185Y-93960445D01*
X136572000Y-93980803D01*
X136224000Y-93980803D01*
X136057815Y-93960445D01*
X135906289Y-94023191D01*
X135571440Y-94285411D01*
X135362427Y-94655812D01*
X134942471Y-94655812D01*
X134922437Y-94555096D01*
X134672685Y-94181315D01*
X134298904Y-93931563D01*
X133969296Y-93866000D01*
X133746704Y-93866000D01*
X133417096Y-93931563D01*
X133043315Y-94181315D01*
X132793563Y-94555096D01*
X132705862Y-94996000D01*
X131046253Y-94996000D01*
X130966201Y-94802738D01*
X129987262Y-93823799D01*
X128732357Y-93304000D01*
X153969643Y-93304000D01*
X152714738Y-93823799D01*
X152714738Y-93823799D01*
G37*
X152714738Y-93823799D02*
X151735799Y-94802738D01*
X151206000Y-96081785D01*
X151206000Y-97466215D01*
X151735799Y-98745262D01*
X152714738Y-99724201D01*
X153993785Y-100254000D01*
X155378215Y-100254000D01*
X156657262Y-99724201D01*
X157636201Y-98745262D01*
X158156001Y-97490355D01*
X158156000Y-165907643D01*
X157636201Y-164652738D01*
X156657262Y-163673799D01*
X155378215Y-163144000D01*
X153993785Y-163144000D01*
X152714738Y-163673799D01*
X151735799Y-164652738D01*
X151206000Y-165931785D01*
X151206000Y-167316215D01*
X151735799Y-168595262D01*
X152714738Y-169574201D01*
X153969643Y-170094000D01*
X128732357Y-170094000D01*
X129987262Y-169574201D01*
X130966201Y-168595262D01*
X131458233Y-167407392D01*
X136896000Y-167407392D01*
X136896000Y-167916608D01*
X137090868Y-168387062D01*
X137450938Y-168747132D01*
X137921392Y-168942000D01*
X138430608Y-168942000D01*
X138901062Y-168747132D01*
X139261132Y-168387062D01*
X139456000Y-167916608D01*
X139456000Y-167407392D01*
X139261132Y-166936938D01*
X138901062Y-166576868D01*
X138430608Y-166382000D01*
X137921392Y-166382000D01*
X137450938Y-166576868D01*
X137090868Y-166936938D01*
X136896000Y-167407392D01*
X131458233Y-167407392D01*
X131496000Y-167316215D01*
X131496000Y-165931785D01*
X130966201Y-164652738D01*
X129987262Y-163673799D01*
X128708215Y-163144000D01*
X127323785Y-163144000D01*
X126044738Y-163673799D01*
X125065799Y-164652738D01*
X124546000Y-165907643D01*
X124546000Y-160288045D01*
X133196000Y-160288045D01*
X133196000Y-161035955D01*
X133482213Y-161726934D01*
X134011066Y-162255787D01*
X134702045Y-162542000D01*
X135449955Y-162542000D01*
X136140934Y-162255787D01*
X136669787Y-161726934D01*
X136956000Y-161035955D01*
X136956000Y-160288045D01*
X136669787Y-159597066D01*
X136140934Y-159068213D01*
X135449955Y-158782000D01*
X134702045Y-158782000D01*
X134011066Y-159068213D01*
X133482213Y-159597066D01*
X133196000Y-160288045D01*
X124546000Y-160288045D01*
X124546000Y-145772572D01*
X124568470Y-145787586D01*
X132534609Y-153753726D01*
X132487684Y-153800651D01*
X132384160Y-154050580D01*
X132384160Y-154321100D01*
X132487684Y-154571029D01*
X132678971Y-154762316D01*
X132928900Y-154865840D01*
X133199420Y-154865840D01*
X133224609Y-154855406D01*
X133234669Y-154865466D01*
X133234672Y-154865468D01*
X139594001Y-161224798D01*
X139594000Y-167096547D01*
X139586948Y-167132000D01*
X139594000Y-167167452D01*
X139614888Y-167272464D01*
X139694455Y-167391544D01*
X139724511Y-167411627D01*
X141960372Y-169647489D01*
X141980455Y-169677545D01*
X142099535Y-169757112D01*
X142204547Y-169778000D01*
X142204550Y-169778000D01*
X142239999Y-169785051D01*
X142275448Y-169778000D01*
X144246547Y-169778000D01*
X144282000Y-169785052D01*
X144317453Y-169778000D01*
X144422465Y-169757112D01*
X144541545Y-169677545D01*
X144561630Y-169647486D01*
X154661489Y-159547628D01*
X154691545Y-159527545D01*
X154771112Y-159408465D01*
X154792000Y-159303453D01*
X154799052Y-159268000D01*
X154792000Y-159232547D01*
X154792000Y-110060910D01*
X154817189Y-110050476D01*
X155008476Y-109859189D01*
X155112000Y-109609260D01*
X155112000Y-109338740D01*
X155008476Y-109088811D01*
X154817189Y-108897524D01*
X154567260Y-108794000D01*
X154296740Y-108794000D01*
X154046811Y-108897524D01*
X153855524Y-109088811D01*
X153825885Y-109160366D01*
X153756030Y-109090512D01*
X153735946Y-109060454D01*
X153616866Y-108980887D01*
X153511854Y-108959999D01*
X153476401Y-108952947D01*
X153440948Y-108959999D01*
X152859052Y-108959999D01*
X152823599Y-108952947D01*
X152788146Y-108959999D01*
X152683134Y-108980887D01*
X152564054Y-109060454D01*
X152543971Y-109090510D01*
X152240510Y-109393972D01*
X152210455Y-109414054D01*
X152190373Y-109444109D01*
X152190372Y-109444110D01*
X152130887Y-109533135D01*
X152102947Y-109673599D01*
X152110000Y-109709056D01*
X152109999Y-110290948D01*
X152102947Y-110326401D01*
X152118559Y-110404888D01*
X152130887Y-110466865D01*
X152210454Y-110585945D01*
X152240510Y-110606028D01*
X152429991Y-110795510D01*
X152429991Y-119939742D01*
X148710000Y-116219752D01*
X148710000Y-102303000D01*
X148928515Y-102303000D01*
X148928515Y-104103000D01*
X148950246Y-104212250D01*
X149012132Y-104304868D01*
X149104750Y-104366754D01*
X149214000Y-104388485D01*
X150733931Y-104388485D01*
X150510066Y-104481213D01*
X149981213Y-105010066D01*
X149695000Y-105701045D01*
X149695000Y-106448955D01*
X149981213Y-107139934D01*
X150510066Y-107668787D01*
X151201045Y-107955000D01*
X151948955Y-107955000D01*
X152639934Y-107668787D01*
X153168787Y-107139934D01*
X153455000Y-106448955D01*
X153455000Y-105701045D01*
X153168787Y-105010066D01*
X152639934Y-104481213D01*
X151948955Y-104195000D01*
X151281185Y-104195000D01*
X151299485Y-104103000D01*
X151299485Y-102968283D01*
X151474000Y-102968283D01*
X151474000Y-103437717D01*
X151653644Y-103871417D01*
X151985583Y-104203356D01*
X152419283Y-104383000D01*
X152888717Y-104383000D01*
X153322417Y-104203356D01*
X153654356Y-103871417D01*
X153834000Y-103437717D01*
X153834000Y-102968283D01*
X153654356Y-102534583D01*
X153322417Y-102202644D01*
X152888717Y-102023000D01*
X152419283Y-102023000D01*
X151985583Y-102202644D01*
X151653644Y-102534583D01*
X151474000Y-102968283D01*
X151299485Y-102968283D01*
X151299485Y-102303000D01*
X151277754Y-102193750D01*
X151215868Y-102101132D01*
X151123250Y-102039246D01*
X151014000Y-102017515D01*
X149214000Y-102017515D01*
X149104750Y-102039246D01*
X149012132Y-102101132D01*
X148950246Y-102193750D01*
X148928515Y-102303000D01*
X148710000Y-102303000D01*
X148710000Y-101375518D01*
X150597489Y-99488030D01*
X150627545Y-99467947D01*
X150707112Y-99348867D01*
X150728000Y-99243855D01*
X150735052Y-99208402D01*
X150728000Y-99172949D01*
X150728000Y-95291453D01*
X150735052Y-95256000D01*
X150707112Y-95115535D01*
X150647627Y-95026510D01*
X150647625Y-95026508D01*
X150627544Y-94996455D01*
X150597491Y-94976374D01*
X150387629Y-94766513D01*
X150367545Y-94736455D01*
X150248465Y-94656888D01*
X150233485Y-94653908D01*
X150233485Y-94146000D01*
X150211754Y-94036750D01*
X150149868Y-93944132D01*
X150057250Y-93882246D01*
X149948000Y-93860515D01*
X148248000Y-93860515D01*
X148138750Y-93882246D01*
X148046132Y-93944132D01*
X147984246Y-94036750D01*
X147962515Y-94146000D01*
X147962515Y-95846000D01*
X147973787Y-95902670D01*
X147576608Y-95505492D01*
X147622437Y-95436904D01*
X147710138Y-94996000D01*
X147622437Y-94555096D01*
X147372685Y-94181315D01*
X146998904Y-93931563D01*
X146669296Y-93866000D01*
X146446704Y-93866000D01*
X146117096Y-93931563D01*
X145743315Y-94181315D01*
X145493563Y-94555096D01*
X145405862Y-94996000D01*
X145493563Y-95436904D01*
X145743315Y-95810685D01*
X146117096Y-96060437D01*
X146446704Y-96126000D01*
X146669296Y-96126000D01*
X146998904Y-96060437D01*
X147067492Y-96014608D01*
X147470264Y-96417381D01*
X147470264Y-96867353D01*
X147372685Y-96721315D01*
X146998904Y-96471563D01*
X146669296Y-96406000D01*
X146446704Y-96406000D01*
X146117096Y-96471563D01*
X145743315Y-96721315D01*
X145529998Y-97040567D01*
X145529998Y-96183446D01*
X145537049Y-96147997D01*
X145529998Y-96112548D01*
X145529998Y-96112545D01*
X145509110Y-96007533D01*
X145429543Y-95888453D01*
X145399487Y-95868370D01*
X145036608Y-95505492D01*
X145082437Y-95436904D01*
X145170138Y-94996000D01*
X145082437Y-94555096D01*
X144832685Y-94181315D01*
X144458904Y-93931563D01*
X144129296Y-93866000D01*
X143906704Y-93866000D01*
X143577096Y-93931563D01*
X143203315Y-94181315D01*
X142953563Y-94555096D01*
X142865862Y-94996000D01*
X142953563Y-95436904D01*
X143203315Y-95810685D01*
X143577096Y-96060437D01*
X143906704Y-96126000D01*
X144129296Y-96126000D01*
X144458904Y-96060437D01*
X144527492Y-96014608D01*
X144809999Y-96297116D01*
X144809999Y-96706157D01*
X144458904Y-96471563D01*
X144129296Y-96406000D01*
X143906704Y-96406000D01*
X143577096Y-96471563D01*
X143203315Y-96721315D01*
X143110000Y-96860971D01*
X143110000Y-96303453D01*
X143117052Y-96268000D01*
X143089112Y-96127535D01*
X143029627Y-96038510D01*
X143029625Y-96038508D01*
X143009544Y-96008455D01*
X142979491Y-95988374D01*
X142496608Y-95505492D01*
X142542437Y-95436904D01*
X142630138Y-94996000D01*
X142542437Y-94555096D01*
X142292685Y-94181315D01*
X141918904Y-93931563D01*
X141589296Y-93866000D01*
X141366704Y-93866000D01*
X141037096Y-93931563D01*
X140663315Y-94181315D01*
X140413563Y-94555096D01*
X140325862Y-94996000D01*
X140413563Y-95436904D01*
X140663315Y-95810685D01*
X141037096Y-96060437D01*
X141366704Y-96126000D01*
X141589296Y-96126000D01*
X141918904Y-96060437D01*
X141987492Y-96014608D01*
X142390000Y-96417117D01*
X142390000Y-96866958D01*
X142292685Y-96721315D01*
X141918904Y-96471563D01*
X141589296Y-96406000D01*
X141366704Y-96406000D01*
X141037096Y-96471563D01*
X140663315Y-96721315D01*
X140413563Y-97095096D01*
X140325862Y-97536000D01*
X140413563Y-97976904D01*
X140663315Y-98350685D01*
X141037096Y-98600437D01*
X141118000Y-98616530D01*
X141118001Y-103224354D01*
X140994513Y-103347843D01*
X140994510Y-103347845D01*
X140568000Y-103774355D01*
X140568000Y-98841447D01*
X140575051Y-98805999D01*
X140568000Y-98770551D01*
X140568000Y-98770547D01*
X140547112Y-98665535D01*
X140503614Y-98600437D01*
X140487627Y-98576510D01*
X140487625Y-98576508D01*
X140467544Y-98546455D01*
X140437491Y-98526374D01*
X139956608Y-98045492D01*
X140002437Y-97976904D01*
X140090138Y-97536000D01*
X140002437Y-97095096D01*
X139752685Y-96721315D01*
X139378904Y-96471563D01*
X139049296Y-96406000D01*
X138826704Y-96406000D01*
X138497096Y-96471563D01*
X138123315Y-96721315D01*
X138010000Y-96890903D01*
X138010000Y-96433116D01*
X138428508Y-96014608D01*
X138497096Y-96060437D01*
X138826704Y-96126000D01*
X139049296Y-96126000D01*
X139378904Y-96060437D01*
X139752685Y-95810685D01*
X140002437Y-95436904D01*
X140090138Y-94996000D01*
X140002437Y-94555096D01*
X139752685Y-94181315D01*
X139378904Y-93931563D01*
X139049296Y-93866000D01*
X138826704Y-93866000D01*
X138497096Y-93931563D01*
X138123315Y-94181315D01*
X137873563Y-94555096D01*
X137785862Y-94996000D01*
X137873563Y-95436904D01*
X137919392Y-95505492D01*
X137420511Y-96004373D01*
X137390455Y-96024456D01*
X137318940Y-96131485D01*
X137310888Y-96143536D01*
X137282948Y-96284000D01*
X137290000Y-96319453D01*
X137290000Y-96941381D01*
X137224560Y-96825411D01*
X136889711Y-96563191D01*
X136738185Y-96500445D01*
X136572000Y-96520803D01*
X136572000Y-97362000D01*
X136592000Y-97362000D01*
X136592000Y-97710000D01*
X136572000Y-97710000D01*
X136572000Y-98551197D01*
X136738185Y-98571555D01*
X136889711Y-98508809D01*
X137224560Y-98246589D01*
X137290001Y-98130618D01*
X137290001Y-98392531D01*
X137282948Y-98427989D01*
X137310888Y-98568453D01*
X137310889Y-98568454D01*
X137390456Y-98687534D01*
X137420511Y-98707616D01*
X138684011Y-99971117D01*
X138684012Y-104368859D01*
X137414501Y-105638371D01*
X137414498Y-105638373D01*
X135740884Y-107311988D01*
X132808633Y-107311988D01*
X132907555Y-107213066D01*
X133011079Y-106963137D01*
X133011079Y-106692617D01*
X132907555Y-106442688D01*
X132716268Y-106251401D01*
X132691079Y-106240967D01*
X132691079Y-104718740D01*
X133012000Y-104718740D01*
X133012000Y-104989260D01*
X133115524Y-105239189D01*
X133306811Y-105430476D01*
X133556740Y-105534000D01*
X133827260Y-105534000D01*
X134077189Y-105430476D01*
X134268476Y-105239189D01*
X134278910Y-105214000D01*
X134700871Y-105214000D01*
X135220442Y-105733572D01*
X135210008Y-105758761D01*
X135210008Y-106029281D01*
X135313532Y-106279210D01*
X135504819Y-106470497D01*
X135754748Y-106574021D01*
X136025268Y-106574021D01*
X136275197Y-106470497D01*
X136466484Y-106279210D01*
X136570008Y-106029281D01*
X136570008Y-105758761D01*
X136466484Y-105508832D01*
X136275197Y-105317545D01*
X136025268Y-105214021D01*
X135754748Y-105214021D01*
X135729559Y-105224455D01*
X135129616Y-104624513D01*
X135109532Y-104594455D01*
X134990452Y-104514888D01*
X134885440Y-104494000D01*
X134849987Y-104486948D01*
X134814534Y-104494000D01*
X134278910Y-104494000D01*
X134268476Y-104468811D01*
X134077189Y-104277524D01*
X133827260Y-104174000D01*
X133556740Y-104174000D01*
X133306811Y-104277524D01*
X133115524Y-104468811D01*
X133012000Y-104718740D01*
X132691079Y-104718740D01*
X132691079Y-104224037D01*
X133921489Y-102993628D01*
X133951545Y-102973545D01*
X134031112Y-102854465D01*
X134052000Y-102749453D01*
X134059052Y-102714000D01*
X134052000Y-102678547D01*
X134052000Y-102440910D01*
X134077189Y-102430476D01*
X134268476Y-102239189D01*
X134372000Y-101989260D01*
X134372000Y-101718740D01*
X134268476Y-101468811D01*
X134077189Y-101277524D01*
X133827260Y-101174000D01*
X133556740Y-101174000D01*
X133306811Y-101277524D01*
X133115524Y-101468811D01*
X133012000Y-101718740D01*
X133012000Y-101989260D01*
X133115524Y-102239189D01*
X133306811Y-102430476D01*
X133332001Y-102440910D01*
X133332001Y-102564882D01*
X132101590Y-103795294D01*
X132071534Y-103815377D01*
X132043748Y-103856962D01*
X131991967Y-103934457D01*
X131964027Y-104074921D01*
X131971079Y-104110374D01*
X131971080Y-106226735D01*
X131971079Y-106226740D01*
X131971079Y-106240967D01*
X131945890Y-106251401D01*
X131754603Y-106442688D01*
X131651079Y-106692617D01*
X131651079Y-106963137D01*
X131754603Y-107213066D01*
X131853525Y-107311988D01*
X130618856Y-107311988D01*
X130618856Y-107204000D01*
X130591692Y-107067437D01*
X130514335Y-106951665D01*
X130398563Y-106874308D01*
X130262000Y-106847144D01*
X125262000Y-106847144D01*
X125125437Y-106874308D01*
X125009665Y-106951665D01*
X124946010Y-107046931D01*
X124946010Y-105687106D01*
X129689117Y-100944000D01*
X134978884Y-100944000D01*
X136998434Y-102963551D01*
X136988000Y-102988740D01*
X136988000Y-103259260D01*
X137091524Y-103509189D01*
X137282811Y-103700476D01*
X137532740Y-103804000D01*
X137803260Y-103804000D01*
X138053189Y-103700476D01*
X138244476Y-103509189D01*
X138348000Y-103259260D01*
X138348000Y-102988740D01*
X138244476Y-102738811D01*
X138053189Y-102547524D01*
X137803260Y-102444000D01*
X137532740Y-102444000D01*
X137507551Y-102454434D01*
X135407630Y-100354514D01*
X135387545Y-100324455D01*
X135268465Y-100244888D01*
X135163453Y-100224000D01*
X135128000Y-100216948D01*
X135092547Y-100224000D01*
X129575453Y-100224000D01*
X129540000Y-100216948D01*
X129504547Y-100224000D01*
X129399535Y-100244888D01*
X129280455Y-100324455D01*
X129260372Y-100354511D01*
X124546000Y-105068884D01*
X124546000Y-97490357D01*
X125065799Y-98745262D01*
X126044738Y-99724201D01*
X127323785Y-100254000D01*
X128708215Y-100254000D01*
X129987262Y-99724201D01*
X130966201Y-98745262D01*
X131467094Y-97536000D01*
X132705862Y-97536000D01*
X132793563Y-97976904D01*
X133043315Y-98350685D01*
X133417096Y-98600437D01*
X133746704Y-98666000D01*
X133969296Y-98666000D01*
X134298904Y-98600437D01*
X134672685Y-98350685D01*
X134922437Y-97976904D01*
X134942470Y-97876188D01*
X135362427Y-97876188D01*
X135571440Y-98246589D01*
X135906289Y-98508809D01*
X136057815Y-98571555D01*
X136224000Y-98551197D01*
X136224000Y-97710000D01*
X135381960Y-97710000D01*
X135362427Y-97876188D01*
X134942470Y-97876188D01*
X135010138Y-97536000D01*
X134942471Y-97195812D01*
X135362427Y-97195812D01*
X135381960Y-97362000D01*
X136224000Y-97362000D01*
X136224000Y-96520803D01*
X136057815Y-96500445D01*
X135906289Y-96563191D01*
X135571440Y-96825411D01*
X135362427Y-97195812D01*
X134942471Y-97195812D01*
X134922437Y-97095096D01*
X134672685Y-96721315D01*
X134298904Y-96471563D01*
X133969296Y-96406000D01*
X133746704Y-96406000D01*
X133417096Y-96471563D01*
X133043315Y-96721315D01*
X132793563Y-97095096D01*
X132705862Y-97536000D01*
X131467094Y-97536000D01*
X131496000Y-97466215D01*
X131496000Y-96081785D01*
X131046253Y-94996000D01*
X132705862Y-94996000D01*
X132793563Y-95436904D01*
X133043315Y-95810685D01*
X133417096Y-96060437D01*
X133746704Y-96126000D01*
X133969296Y-96126000D01*
X134298904Y-96060437D01*
X134672685Y-95810685D01*
X134922437Y-95436904D01*
X134942470Y-95336188D01*
X135362427Y-95336188D01*
X135571440Y-95706589D01*
X135906289Y-95968809D01*
X136057815Y-96031555D01*
X136224000Y-96011197D01*
X136224000Y-95170000D01*
X136572000Y-95170000D01*
X136572000Y-96011197D01*
X136738185Y-96031555D01*
X136889711Y-95968809D01*
X137224560Y-95706589D01*
X137433573Y-95336188D01*
X137414040Y-95170000D01*
X136572000Y-95170000D01*
X136224000Y-95170000D01*
X135381960Y-95170000D01*
X135362427Y-95336188D01*
X134942470Y-95336188D01*
X135010138Y-94996000D01*
X134942471Y-94655812D01*
X135362427Y-94655812D01*
X135381960Y-94822000D01*
X136224000Y-94822000D01*
X136224000Y-93980803D01*
X136572000Y-93980803D01*
X136572000Y-94822000D01*
X137414040Y-94822000D01*
X137433573Y-94655812D01*
X137224560Y-94285411D01*
X136889711Y-94023191D01*
X136738185Y-93960445D01*
X136572000Y-93980803D01*
X136224000Y-93980803D01*
X136057815Y-93960445D01*
X135906289Y-94023191D01*
X135571440Y-94285411D01*
X135362427Y-94655812D01*
X134942471Y-94655812D01*
X134922437Y-94555096D01*
X134672685Y-94181315D01*
X134298904Y-93931563D01*
X133969296Y-93866000D01*
X133746704Y-93866000D01*
X133417096Y-93931563D01*
X133043315Y-94181315D01*
X132793563Y-94555096D01*
X132705862Y-94996000D01*
X131046253Y-94996000D01*
X130966201Y-94802738D01*
X129987262Y-93823799D01*
X128732357Y-93304000D01*
X153969643Y-93304000D01*
X152714738Y-93823799D01*
G36*
X132842011Y-111657529D02*
X132842012Y-123408815D01*
X130328484Y-125922344D01*
X130328481Y-125922346D01*
X130318421Y-125932406D01*
X130293232Y-125921972D01*
X130022712Y-125921972D01*
X129772783Y-126025496D01*
X129581496Y-126216783D01*
X129477972Y-126466712D01*
X129477972Y-126737232D01*
X129581496Y-126987161D01*
X129772783Y-127178448D01*
X130022712Y-127281972D01*
X130293232Y-127281972D01*
X130543161Y-127178448D01*
X130734448Y-126987161D01*
X130837972Y-126737232D01*
X130837972Y-126466712D01*
X130827538Y-126441523D01*
X130837598Y-126431463D01*
X130837600Y-126431460D01*
X133431500Y-123837561D01*
X133461556Y-123817478D01*
X133541123Y-123698398D01*
X133562011Y-123593386D01*
X133562011Y-123593382D01*
X133569062Y-123557934D01*
X133562011Y-123522486D01*
X133562011Y-122209127D01*
X133620434Y-122267550D01*
X133610000Y-122292740D01*
X133610000Y-122563260D01*
X133713524Y-122813189D01*
X133904811Y-123004476D01*
X134154740Y-123108000D01*
X134192883Y-123108000D01*
X133250513Y-124050371D01*
X133250510Y-124050373D01*
X132758510Y-124542374D01*
X132728455Y-124562456D01*
X132708372Y-124592512D01*
X132648887Y-124681537D01*
X132620947Y-124822001D01*
X132628000Y-124857459D01*
X132627999Y-125820000D01*
X132452740Y-125820000D01*
X132202811Y-125923524D01*
X132011524Y-126114811D01*
X131908000Y-126364740D01*
X131908000Y-126635260D01*
X132011524Y-126885189D01*
X132202811Y-127076476D01*
X132452740Y-127180000D01*
X132723260Y-127180000D01*
X132973189Y-127076476D01*
X133164476Y-126885189D01*
X133268000Y-126635260D01*
X133268000Y-126364740D01*
X133258843Y-126342634D01*
X133267624Y-126329493D01*
X133267626Y-126329491D01*
X133327111Y-126240466D01*
X133355051Y-126100002D01*
X133347999Y-126064549D01*
X133347999Y-124971117D01*
X133759627Y-124559490D01*
X133759629Y-124559487D01*
X133951088Y-124368028D01*
X134043524Y-124591189D01*
X134234811Y-124782476D01*
X134260000Y-124792910D01*
X134260001Y-125960882D01*
X132056884Y-128164000D01*
X130634910Y-128164000D01*
X130624476Y-128138811D01*
X130433189Y-127947524D01*
X130183260Y-127844000D01*
X129912740Y-127844000D01*
X129662811Y-127947524D01*
X129471524Y-128138811D01*
X129368000Y-128388740D01*
X129368000Y-128659260D01*
X129471524Y-128909189D01*
X129662811Y-129100476D01*
X129912740Y-129204000D01*
X130183260Y-129204000D01*
X130433189Y-129100476D01*
X130624476Y-128909189D01*
X130634910Y-128884000D01*
X132170547Y-128884000D01*
X132206000Y-128891052D01*
X132241453Y-128884000D01*
X132346465Y-128863112D01*
X132465545Y-128783545D01*
X132485630Y-128753487D01*
X134518343Y-126720774D01*
X134591622Y-126897684D01*
X134782909Y-127088971D01*
X135032838Y-127192495D01*
X135303358Y-127192495D01*
X135553287Y-127088971D01*
X135744574Y-126897684D01*
X135848098Y-126647755D01*
X135848098Y-126377235D01*
X135744574Y-126127306D01*
X135620646Y-126003378D01*
X135717500Y-125906525D01*
X135747556Y-125886442D01*
X135827123Y-125767362D01*
X135848011Y-125662350D01*
X135848011Y-125662346D01*
X135855062Y-125626898D01*
X135848011Y-125591450D01*
X135848011Y-124049127D01*
X137308000Y-125509117D01*
X137308000Y-125905090D01*
X137282811Y-125915524D01*
X137091524Y-126106811D01*
X136988000Y-126356740D01*
X136988000Y-126627260D01*
X137091524Y-126877189D01*
X137282811Y-127068476D01*
X137532740Y-127172000D01*
X137803260Y-127172000D01*
X138053189Y-127068476D01*
X138244476Y-126877189D01*
X138348000Y-126627260D01*
X138348000Y-126356740D01*
X138244476Y-126106811D01*
X138053189Y-125915524D01*
X138028000Y-125905090D01*
X138028000Y-125395453D01*
X138035052Y-125360000D01*
X138007112Y-125219535D01*
X137947627Y-125130510D01*
X137947625Y-125130508D01*
X137927544Y-125100455D01*
X137897491Y-125080374D01*
X136208022Y-123390906D01*
X136208022Y-123087138D01*
X139470434Y-126349551D01*
X139460000Y-126374740D01*
X139460000Y-126645260D01*
X139563524Y-126895189D01*
X139754811Y-127086476D01*
X140004740Y-127190000D01*
X140275260Y-127190000D01*
X140525189Y-127086476D01*
X140716476Y-126895189D01*
X140820000Y-126645260D01*
X140820000Y-126392756D01*
X140885001Y-126457757D01*
X140885000Y-129260000D01*
X140508733Y-129260000D01*
X140125754Y-129418635D01*
X139832635Y-129711754D01*
X139674000Y-130094733D01*
X139674000Y-130509267D01*
X139832635Y-130892246D01*
X140125754Y-131185365D01*
X140508733Y-131344000D01*
X140923267Y-131344000D01*
X141306246Y-131185365D01*
X141599365Y-130892246D01*
X141758000Y-130509267D01*
X141758000Y-130094733D01*
X141671517Y-129885944D01*
X141695000Y-129767887D01*
X141695000Y-129767883D01*
X141702933Y-129728000D01*
X141695000Y-129688117D01*
X141695000Y-126329883D01*
X141702933Y-126290000D01*
X141695000Y-126250117D01*
X141695000Y-126250113D01*
X141671501Y-126131977D01*
X141619940Y-126054811D01*
X141604582Y-126031826D01*
X141581988Y-125998012D01*
X141548174Y-125975418D01*
X139930000Y-124357245D01*
X139930000Y-124114740D01*
X139826476Y-123864811D01*
X139635189Y-123673524D01*
X139385260Y-123570000D01*
X139114740Y-123570000D01*
X138864811Y-123673524D01*
X138673524Y-123864811D01*
X138570000Y-124114740D01*
X138570000Y-124385260D01*
X138602261Y-124463144D01*
X137140293Y-123001177D01*
X137325044Y-122924650D01*
X137516331Y-122733363D01*
X137619855Y-122483434D01*
X137619855Y-122212914D01*
X137516331Y-121962985D01*
X137422169Y-121868823D01*
X137480816Y-121781052D01*
X137504315Y-121662916D01*
X137504315Y-121662912D01*
X137512248Y-121623030D01*
X137504315Y-121583148D01*
X137504315Y-117811819D01*
X137532328Y-117853744D01*
X137566145Y-117876340D01*
X140020398Y-120330594D01*
X140020397Y-121850725D01*
X139848921Y-122022201D01*
X139745397Y-122272130D01*
X139745397Y-122542650D01*
X139848921Y-122792579D01*
X140040208Y-122983866D01*
X140290137Y-123087390D01*
X140560657Y-123087390D01*
X140810586Y-122983866D01*
X141001873Y-122792579D01*
X141105397Y-122542650D01*
X141105397Y-122272130D01*
X141001873Y-122022201D01*
X140830397Y-121850725D01*
X140830397Y-120504182D01*
X141759956Y-121433741D01*
X141759957Y-124864498D01*
X141752904Y-124899956D01*
X141780844Y-125040420D01*
X141820959Y-125100456D01*
X141860412Y-125159501D01*
X141890467Y-125179583D01*
X142340000Y-125629117D01*
X142340000Y-125853090D01*
X142314811Y-125863524D01*
X142123524Y-126054811D01*
X142020000Y-126304740D01*
X142020000Y-126575260D01*
X142123524Y-126825189D01*
X142314811Y-127016476D01*
X142564740Y-127120000D01*
X142835260Y-127120000D01*
X143085189Y-127016476D01*
X143276476Y-126825189D01*
X143380000Y-126575260D01*
X143380000Y-126304740D01*
X143276476Y-126054811D01*
X143085189Y-125863524D01*
X143060000Y-125853090D01*
X143060000Y-125515448D01*
X143067051Y-125479999D01*
X143060000Y-125444548D01*
X143060000Y-125444547D01*
X143039112Y-125339535D01*
X143019739Y-125310542D01*
X142979627Y-125250510D01*
X142979625Y-125250508D01*
X142959544Y-125220455D01*
X142929491Y-125200374D01*
X142479956Y-124750840D01*
X142479956Y-124159072D01*
X144579221Y-126258337D01*
X144560000Y-126304740D01*
X144560000Y-126575260D01*
X144663524Y-126825189D01*
X144854811Y-127016476D01*
X145104740Y-127120000D01*
X145375260Y-127120000D01*
X145625189Y-127016476D01*
X145816476Y-126825189D01*
X145920000Y-126575260D01*
X145920000Y-126304740D01*
X145816476Y-126054811D01*
X145625189Y-125863524D01*
X145375260Y-125760000D01*
X145104740Y-125760000D01*
X145100764Y-125761647D01*
X142839967Y-123500851D01*
X142839967Y-123041909D01*
X143035763Y-123123010D01*
X143306283Y-123123010D01*
X143556212Y-123019486D01*
X143715698Y-122860000D01*
X147864547Y-122860000D01*
X147900000Y-122867052D01*
X147935453Y-122860000D01*
X148040465Y-122839112D01*
X148159545Y-122759545D01*
X148179629Y-122729487D01*
X148479489Y-122429628D01*
X148509545Y-122409545D01*
X148589112Y-122290465D01*
X148610000Y-122185453D01*
X148617052Y-122150000D01*
X148610000Y-122114547D01*
X148610000Y-120618447D01*
X148617051Y-120582999D01*
X148610000Y-120547551D01*
X148610000Y-120547547D01*
X148589112Y-120442535D01*
X148543163Y-120373768D01*
X148529627Y-120353510D01*
X148529625Y-120353508D01*
X148509544Y-120323455D01*
X148479491Y-120303374D01*
X147784566Y-119608450D01*
X147795000Y-119583260D01*
X147795000Y-119348116D01*
X149730002Y-121283119D01*
X149730003Y-125036523D01*
X149545260Y-124960000D01*
X149274740Y-124960000D01*
X149024811Y-125063524D01*
X148833524Y-125254811D01*
X148824368Y-125276916D01*
X148808862Y-125280000D01*
X148703850Y-125300888D01*
X148584770Y-125380455D01*
X148564687Y-125410511D01*
X144175707Y-129799492D01*
X144139365Y-129711754D01*
X143846246Y-129418635D01*
X143463267Y-129260000D01*
X143048733Y-129260000D01*
X142665754Y-129418635D01*
X142372635Y-129711754D01*
X142214000Y-130094733D01*
X142214000Y-130509267D01*
X142372635Y-130892246D01*
X142665754Y-131185365D01*
X143048733Y-131344000D01*
X143247046Y-131344000D01*
X142871046Y-131720000D01*
X130126910Y-131720000D01*
X130116476Y-131694811D01*
X129925189Y-131503524D01*
X129675260Y-131400000D01*
X129404740Y-131400000D01*
X129154811Y-131503524D01*
X128963524Y-131694811D01*
X128860000Y-131944740D01*
X128860000Y-132215260D01*
X128963524Y-132465189D01*
X129154811Y-132656476D01*
X129404740Y-132760000D01*
X129675260Y-132760000D01*
X129925189Y-132656476D01*
X130116476Y-132465189D01*
X130126910Y-132440000D01*
X142984709Y-132440000D01*
X143020162Y-132447052D01*
X143055615Y-132440000D01*
X143160627Y-132419112D01*
X143279707Y-132339545D01*
X143299791Y-132309487D01*
X144527492Y-131081787D01*
X144557545Y-131061706D01*
X144577626Y-131031653D01*
X144577628Y-131031651D01*
X144599127Y-130999474D01*
X144637113Y-130942626D01*
X144658001Y-130837614D01*
X144658001Y-130837610D01*
X144665052Y-130802162D01*
X144658001Y-130766714D01*
X144658001Y-130335430D01*
X144754000Y-130239431D01*
X144754000Y-130509267D01*
X144912635Y-130892246D01*
X145205754Y-131185365D01*
X145588733Y-131344000D01*
X146003267Y-131344000D01*
X146386246Y-131185365D01*
X146478001Y-131093610D01*
X146478002Y-133682881D01*
X145968000Y-134192883D01*
X145968000Y-133976740D01*
X145864476Y-133726811D01*
X145673189Y-133535524D01*
X145423260Y-133432000D01*
X145152740Y-133432000D01*
X144902811Y-133535524D01*
X144711524Y-133726811D01*
X144701090Y-133752000D01*
X143334910Y-133752000D01*
X143324476Y-133726811D01*
X143133189Y-133535524D01*
X142883260Y-133432000D01*
X142612740Y-133432000D01*
X142362811Y-133535524D01*
X142171524Y-133726811D01*
X142161090Y-133752000D01*
X140794910Y-133752000D01*
X140784476Y-133726811D01*
X140593189Y-133535524D01*
X140343260Y-133432000D01*
X140072740Y-133432000D01*
X139822811Y-133535524D01*
X139631524Y-133726811D01*
X139621090Y-133752000D01*
X138254910Y-133752000D01*
X138244476Y-133726811D01*
X138053189Y-133535524D01*
X137803260Y-133432000D01*
X137532740Y-133432000D01*
X137282811Y-133535524D01*
X137091524Y-133726811D01*
X137081090Y-133752000D01*
X135714910Y-133752000D01*
X135704476Y-133726811D01*
X135513189Y-133535524D01*
X135263260Y-133432000D01*
X134992740Y-133432000D01*
X134742811Y-133535524D01*
X134551524Y-133726811D01*
X134541090Y-133752000D01*
X133174910Y-133752000D01*
X133164476Y-133726811D01*
X132973189Y-133535524D01*
X132723260Y-133432000D01*
X132452740Y-133432000D01*
X132202811Y-133535524D01*
X132011524Y-133726811D01*
X132001090Y-133752000D01*
X130634910Y-133752000D01*
X130624476Y-133726811D01*
X130433189Y-133535524D01*
X130183260Y-133432000D01*
X129912740Y-133432000D01*
X129662811Y-133535524D01*
X129471524Y-133726811D01*
X129461090Y-133752000D01*
X128094910Y-133752000D01*
X128084476Y-133726811D01*
X127893189Y-133535524D01*
X127643260Y-133432000D01*
X127372740Y-133432000D01*
X127122811Y-133535524D01*
X126931524Y-133726811D01*
X126828000Y-133976740D01*
X126828000Y-134247260D01*
X126931524Y-134497189D01*
X127122811Y-134688476D01*
X127372740Y-134792000D01*
X127643260Y-134792000D01*
X127893189Y-134688476D01*
X128084476Y-134497189D01*
X128094910Y-134472000D01*
X129461090Y-134472000D01*
X129471524Y-134497189D01*
X129662811Y-134688476D01*
X129912740Y-134792000D01*
X130183260Y-134792000D01*
X130433189Y-134688476D01*
X130624476Y-134497189D01*
X130634910Y-134472000D01*
X132001090Y-134472000D01*
X132011524Y-134497189D01*
X132202811Y-134688476D01*
X132452740Y-134792000D01*
X132723260Y-134792000D01*
X132973189Y-134688476D01*
X133164476Y-134497189D01*
X133174910Y-134472000D01*
X134541090Y-134472000D01*
X134551524Y-134497189D01*
X134742811Y-134688476D01*
X134992740Y-134792000D01*
X135263260Y-134792000D01*
X135513189Y-134688476D01*
X135704476Y-134497189D01*
X135714910Y-134472000D01*
X137081090Y-134472000D01*
X137091524Y-134497189D01*
X137282811Y-134688476D01*
X137532740Y-134792000D01*
X137803260Y-134792000D01*
X138053189Y-134688476D01*
X138244476Y-134497189D01*
X138254910Y-134472000D01*
X139621090Y-134472000D01*
X139631524Y-134497189D01*
X139822811Y-134688476D01*
X140072740Y-134792000D01*
X140343260Y-134792000D01*
X140593189Y-134688476D01*
X140784476Y-134497189D01*
X140794910Y-134472000D01*
X142161090Y-134472000D01*
X142171524Y-134497189D01*
X142362811Y-134688476D01*
X142612740Y-134792000D01*
X142883260Y-134792000D01*
X143133189Y-134688476D01*
X143324476Y-134497189D01*
X143334910Y-134472000D01*
X144701090Y-134472000D01*
X144711524Y-134497189D01*
X144902811Y-134688476D01*
X145152740Y-134792000D01*
X145368883Y-134792000D01*
X142908450Y-137252434D01*
X142883260Y-137242000D01*
X142612740Y-137242000D01*
X142362811Y-137345524D01*
X142171524Y-137536811D01*
X142068000Y-137786740D01*
X142068000Y-138057260D01*
X142171524Y-138307189D01*
X142362811Y-138498476D01*
X142602942Y-138597942D01*
X141860883Y-139340001D01*
X141513446Y-139340001D01*
X141477998Y-139332950D01*
X141442550Y-139340001D01*
X141442546Y-139340001D01*
X141337534Y-139360889D01*
X141218454Y-139440456D01*
X141198371Y-139470512D01*
X141153512Y-139515371D01*
X140923267Y-139420000D01*
X140508733Y-139420000D01*
X140125754Y-139578635D01*
X139832635Y-139871754D01*
X139674000Y-140254733D01*
X139674000Y-140669267D01*
X139832635Y-141052246D01*
X140125754Y-141345365D01*
X140508733Y-141504000D01*
X140923267Y-141504000D01*
X141306246Y-141345365D01*
X141599365Y-141052246D01*
X141758000Y-140669267D01*
X141758000Y-140254733D01*
X141677339Y-140060001D01*
X141974546Y-140060001D01*
X142009999Y-140067053D01*
X142045452Y-140060001D01*
X142150464Y-140039113D01*
X142269544Y-139959546D01*
X142289629Y-139929488D01*
X143840012Y-138379105D01*
X143840011Y-139368872D01*
X143693513Y-139515371D01*
X143463267Y-139420000D01*
X143048733Y-139420000D01*
X142665754Y-139578635D01*
X142372635Y-139871754D01*
X142214000Y-140254733D01*
X142214000Y-140669267D01*
X142372635Y-141052246D01*
X142665754Y-141345365D01*
X143048733Y-141504000D01*
X143463267Y-141504000D01*
X143846246Y-141345365D01*
X144139365Y-141052246D01*
X144200023Y-140905805D01*
X144200023Y-141730564D01*
X144192970Y-141766022D01*
X144220910Y-141906486D01*
X144220911Y-141906487D01*
X144300478Y-142025567D01*
X144330533Y-142045650D01*
X146452000Y-144167117D01*
X146452001Y-149376882D01*
X143946512Y-151882372D01*
X143946509Y-151882374D01*
X143795670Y-152033213D01*
X143430608Y-151882000D01*
X142921392Y-151882000D01*
X142450938Y-152076868D01*
X142090868Y-152436938D01*
X141926000Y-152834965D01*
X141761132Y-152436938D01*
X141401062Y-152076868D01*
X140930608Y-151882000D01*
X140421392Y-151882000D01*
X139950938Y-152076868D01*
X139590868Y-152436938D01*
X139461485Y-152749297D01*
X139461485Y-152162000D01*
X139439754Y-152052750D01*
X139377868Y-151960132D01*
X139285250Y-151898246D01*
X139176000Y-151876515D01*
X137176000Y-151876515D01*
X137066750Y-151898246D01*
X136974132Y-151960132D01*
X136912246Y-152052750D01*
X136890515Y-152162000D01*
X136890515Y-154162000D01*
X136912246Y-154271250D01*
X136974132Y-154363868D01*
X137066750Y-154425754D01*
X137176000Y-154447485D01*
X139176000Y-154447485D01*
X139285250Y-154425754D01*
X139377868Y-154363868D01*
X139439754Y-154271250D01*
X139461485Y-154162000D01*
X139461485Y-153574703D01*
X139590868Y-153887062D01*
X139950938Y-154247132D01*
X140421392Y-154442000D01*
X140930608Y-154442000D01*
X141401062Y-154247132D01*
X141761132Y-153887062D01*
X141926000Y-153489035D01*
X142090868Y-153887062D01*
X142450938Y-154247132D01*
X142921392Y-154442000D01*
X143430608Y-154442000D01*
X143901062Y-154247132D01*
X144261132Y-153887062D01*
X144456000Y-153416608D01*
X144456000Y-152907392D01*
X144304787Y-152542330D01*
X144455626Y-152391491D01*
X144455628Y-152391488D01*
X147041489Y-149805628D01*
X147071545Y-149785545D01*
X147151112Y-149666465D01*
X147172000Y-149561453D01*
X147172000Y-149561449D01*
X147179051Y-149526001D01*
X147172000Y-149490553D01*
X147172000Y-144053453D01*
X147179052Y-144018000D01*
X147151112Y-143877535D01*
X147091627Y-143788510D01*
X147091625Y-143788508D01*
X147071544Y-143758455D01*
X147041491Y-143738374D01*
X144920022Y-141616906D01*
X144920022Y-140254733D01*
X149834000Y-140254733D01*
X149834000Y-140669267D01*
X149992635Y-141052246D01*
X150285754Y-141345365D01*
X150668733Y-141504000D01*
X151083267Y-141504000D01*
X151466246Y-141345365D01*
X151759365Y-141052246D01*
X151918000Y-140669267D01*
X151918000Y-140254733D01*
X151759365Y-139871754D01*
X151466246Y-139578635D01*
X151083267Y-139420000D01*
X150668733Y-139420000D01*
X150285754Y-139578635D01*
X149992635Y-139871754D01*
X149834000Y-140254733D01*
X144920022Y-140254733D01*
X144920022Y-138515687D01*
X144937783Y-138533448D01*
X145187712Y-138636972D01*
X145458232Y-138636972D01*
X145708161Y-138533448D01*
X145899448Y-138342161D01*
X146002972Y-138092232D01*
X146002972Y-137821712D01*
X145992538Y-137796523D01*
X146002598Y-137786463D01*
X146002600Y-137786460D01*
X152429991Y-131359070D01*
X152429990Y-158201763D01*
X152209755Y-158421999D01*
X139471116Y-158421999D01*
X127590411Y-146541295D01*
X127795193Y-146456472D01*
X127986480Y-146265185D01*
X127996914Y-146239996D01*
X129363088Y-146239996D01*
X129373524Y-146265190D01*
X129564811Y-146456477D01*
X129814740Y-146560001D01*
X130085260Y-146560001D01*
X130335189Y-146456477D01*
X130526476Y-146265190D01*
X130536912Y-146239996D01*
X131903090Y-146239996D01*
X131913524Y-146265187D01*
X132104811Y-146456474D01*
X132354740Y-146559998D01*
X132625260Y-146559998D01*
X132875189Y-146456474D01*
X133066476Y-146265187D01*
X133076910Y-146239996D01*
X134443088Y-146239996D01*
X134453524Y-146265191D01*
X134644811Y-146456478D01*
X134894740Y-146560002D01*
X135165260Y-146560002D01*
X135415189Y-146456478D01*
X135606476Y-146265191D01*
X135616912Y-146239996D01*
X136983088Y-146239996D01*
X136993524Y-146265191D01*
X137184811Y-146456478D01*
X137434740Y-146560002D01*
X137705260Y-146560002D01*
X137955189Y-146456478D01*
X138146476Y-146265191D01*
X138156912Y-146239996D01*
X139523090Y-146239996D01*
X139533524Y-146265187D01*
X139724811Y-146456474D01*
X139974740Y-146559998D01*
X140245260Y-146559998D01*
X140495189Y-146456474D01*
X140686476Y-146265187D01*
X140696910Y-146239996D01*
X142063090Y-146239996D01*
X142073524Y-146265187D01*
X142264811Y-146456474D01*
X142514740Y-146559998D01*
X142785260Y-146559998D01*
X143035189Y-146456474D01*
X143226476Y-146265187D01*
X143236910Y-146239996D01*
X144603088Y-146239996D01*
X144613524Y-146265190D01*
X144804811Y-146456477D01*
X145054740Y-146560001D01*
X145325260Y-146560001D01*
X145575189Y-146456477D01*
X145766476Y-146265190D01*
X145870000Y-146015261D01*
X145870000Y-145744741D01*
X145766476Y-145494812D01*
X145575189Y-145303525D01*
X145325260Y-145200001D01*
X145054740Y-145200001D01*
X144804811Y-145303525D01*
X144613524Y-145494812D01*
X144603092Y-145519996D01*
X143236909Y-145519996D01*
X143226476Y-145494809D01*
X143035189Y-145303522D01*
X142785260Y-145199998D01*
X142514740Y-145199998D01*
X142264811Y-145303522D01*
X142073524Y-145494809D01*
X142063091Y-145519996D01*
X140696909Y-145519996D01*
X140686476Y-145494809D01*
X140495189Y-145303522D01*
X140245260Y-145199998D01*
X139974740Y-145199998D01*
X139724811Y-145303522D01*
X139533524Y-145494809D01*
X139523091Y-145519996D01*
X138156907Y-145519996D01*
X138146476Y-145494813D01*
X137955189Y-145303526D01*
X137705260Y-145200002D01*
X137434740Y-145200002D01*
X137184811Y-145303526D01*
X136993524Y-145494813D01*
X136983093Y-145519996D01*
X135616907Y-145519996D01*
X135606476Y-145494813D01*
X135415189Y-145303526D01*
X135165260Y-145200002D01*
X134953999Y-145200002D01*
X134953999Y-141253610D01*
X135045754Y-141345365D01*
X135428733Y-141504000D01*
X135843267Y-141504000D01*
X136226246Y-141345365D01*
X136519365Y-141052246D01*
X136678000Y-140669267D01*
X136678000Y-140254733D01*
X136519365Y-139871754D01*
X136226246Y-139578635D01*
X135843267Y-139420000D01*
X135428733Y-139420000D01*
X135045754Y-139578635D01*
X134959282Y-139665107D01*
X134933111Y-139533534D01*
X134873626Y-139444509D01*
X134873624Y-139444507D01*
X134853543Y-139414454D01*
X134823490Y-139394373D01*
X134137629Y-138708513D01*
X134117545Y-138678455D01*
X133998465Y-138598888D01*
X133893453Y-138578000D01*
X133858000Y-138570948D01*
X133822547Y-138578000D01*
X130197117Y-138578000D01*
X126745989Y-135126873D01*
X126745989Y-130094733D01*
X134594000Y-130094733D01*
X134594000Y-130509267D01*
X134752635Y-130892246D01*
X135045754Y-131185365D01*
X135428733Y-131344000D01*
X135843267Y-131344000D01*
X136226246Y-131185365D01*
X136519365Y-130892246D01*
X136678000Y-130509267D01*
X136678000Y-130094733D01*
X137134000Y-130094733D01*
X137134000Y-130509267D01*
X137292635Y-130892246D01*
X137585754Y-131185365D01*
X137968733Y-131344000D01*
X138383267Y-131344000D01*
X138766246Y-131185365D01*
X139059365Y-130892246D01*
X139218000Y-130509267D01*
X139218000Y-130094733D01*
X139059365Y-129711754D01*
X138766246Y-129418635D01*
X138383267Y-129260000D01*
X137968733Y-129260000D01*
X137585754Y-129418635D01*
X137292635Y-129711754D01*
X137134000Y-130094733D01*
X136678000Y-130094733D01*
X136519365Y-129711754D01*
X136226246Y-129418635D01*
X135843267Y-129260000D01*
X135428733Y-129260000D01*
X135045754Y-129418635D01*
X134752635Y-129711754D01*
X134594000Y-130094733D01*
X126745989Y-130094733D01*
X126745989Y-129052259D01*
X132688312Y-123109937D01*
X132718368Y-123089854D01*
X132797935Y-122970774D01*
X132818823Y-122865762D01*
X132818823Y-122865759D01*
X132825874Y-122830310D01*
X132818823Y-122794861D01*
X132818823Y-111818942D01*
X132825875Y-111783489D01*
X132797935Y-111643024D01*
X132738450Y-111553999D01*
X132738448Y-111553997D01*
X132738385Y-111553902D01*
X132842011Y-111657529D01*
X132842011Y-111657529D01*
G37*
X132842011Y-111657529D02*
X132842012Y-123408815D01*
X130328484Y-125922344D01*
X130328481Y-125922346D01*
X130318421Y-125932406D01*
X130293232Y-125921972D01*
X130022712Y-125921972D01*
X129772783Y-126025496D01*
X129581496Y-126216783D01*
X129477972Y-126466712D01*
X129477972Y-126737232D01*
X129581496Y-126987161D01*
X129772783Y-127178448D01*
X130022712Y-127281972D01*
X130293232Y-127281972D01*
X130543161Y-127178448D01*
X130734448Y-126987161D01*
X130837972Y-126737232D01*
X130837972Y-126466712D01*
X130827538Y-126441523D01*
X130837598Y-126431463D01*
X130837600Y-126431460D01*
X133431500Y-123837561D01*
X133461556Y-123817478D01*
X133541123Y-123698398D01*
X133562011Y-123593386D01*
X133562011Y-123593382D01*
X133569062Y-123557934D01*
X133562011Y-123522486D01*
X133562011Y-122209127D01*
X133620434Y-122267550D01*
X133610000Y-122292740D01*
X133610000Y-122563260D01*
X133713524Y-122813189D01*
X133904811Y-123004476D01*
X134154740Y-123108000D01*
X134192883Y-123108000D01*
X133250513Y-124050371D01*
X133250510Y-124050373D01*
X132758510Y-124542374D01*
X132728455Y-124562456D01*
X132708372Y-124592512D01*
X132648887Y-124681537D01*
X132620947Y-124822001D01*
X132628000Y-124857459D01*
X132627999Y-125820000D01*
X132452740Y-125820000D01*
X132202811Y-125923524D01*
X132011524Y-126114811D01*
X131908000Y-126364740D01*
X131908000Y-126635260D01*
X132011524Y-126885189D01*
X132202811Y-127076476D01*
X132452740Y-127180000D01*
X132723260Y-127180000D01*
X132973189Y-127076476D01*
X133164476Y-126885189D01*
X133268000Y-126635260D01*
X133268000Y-126364740D01*
X133258843Y-126342634D01*
X133267624Y-126329493D01*
X133267626Y-126329491D01*
X133327111Y-126240466D01*
X133355051Y-126100002D01*
X133347999Y-126064549D01*
X133347999Y-124971117D01*
X133759627Y-124559490D01*
X133759629Y-124559487D01*
X133951088Y-124368028D01*
X134043524Y-124591189D01*
X134234811Y-124782476D01*
X134260000Y-124792910D01*
X134260001Y-125960882D01*
X132056884Y-128164000D01*
X130634910Y-128164000D01*
X130624476Y-128138811D01*
X130433189Y-127947524D01*
X130183260Y-127844000D01*
X129912740Y-127844000D01*
X129662811Y-127947524D01*
X129471524Y-128138811D01*
X129368000Y-128388740D01*
X129368000Y-128659260D01*
X129471524Y-128909189D01*
X129662811Y-129100476D01*
X129912740Y-129204000D01*
X130183260Y-129204000D01*
X130433189Y-129100476D01*
X130624476Y-128909189D01*
X130634910Y-128884000D01*
X132170547Y-128884000D01*
X132206000Y-128891052D01*
X132241453Y-128884000D01*
X132346465Y-128863112D01*
X132465545Y-128783545D01*
X132485630Y-128753487D01*
X134518343Y-126720774D01*
X134591622Y-126897684D01*
X134782909Y-127088971D01*
X135032838Y-127192495D01*
X135303358Y-127192495D01*
X135553287Y-127088971D01*
X135744574Y-126897684D01*
X135848098Y-126647755D01*
X135848098Y-126377235D01*
X135744574Y-126127306D01*
X135620646Y-126003378D01*
X135717500Y-125906525D01*
X135747556Y-125886442D01*
X135827123Y-125767362D01*
X135848011Y-125662350D01*
X135848011Y-125662346D01*
X135855062Y-125626898D01*
X135848011Y-125591450D01*
X135848011Y-124049127D01*
X137308000Y-125509117D01*
X137308000Y-125905090D01*
X137282811Y-125915524D01*
X137091524Y-126106811D01*
X136988000Y-126356740D01*
X136988000Y-126627260D01*
X137091524Y-126877189D01*
X137282811Y-127068476D01*
X137532740Y-127172000D01*
X137803260Y-127172000D01*
X138053189Y-127068476D01*
X138244476Y-126877189D01*
X138348000Y-126627260D01*
X138348000Y-126356740D01*
X138244476Y-126106811D01*
X138053189Y-125915524D01*
X138028000Y-125905090D01*
X138028000Y-125395453D01*
X138035052Y-125360000D01*
X138007112Y-125219535D01*
X137947627Y-125130510D01*
X137947625Y-125130508D01*
X137927544Y-125100455D01*
X137897491Y-125080374D01*
X136208022Y-123390906D01*
X136208022Y-123087138D01*
X139470434Y-126349551D01*
X139460000Y-126374740D01*
X139460000Y-126645260D01*
X139563524Y-126895189D01*
X139754811Y-127086476D01*
X140004740Y-127190000D01*
X140275260Y-127190000D01*
X140525189Y-127086476D01*
X140716476Y-126895189D01*
X140820000Y-126645260D01*
X140820000Y-126392756D01*
X140885001Y-126457757D01*
X140885000Y-129260000D01*
X140508733Y-129260000D01*
X140125754Y-129418635D01*
X139832635Y-129711754D01*
X139674000Y-130094733D01*
X139674000Y-130509267D01*
X139832635Y-130892246D01*
X140125754Y-131185365D01*
X140508733Y-131344000D01*
X140923267Y-131344000D01*
X141306246Y-131185365D01*
X141599365Y-130892246D01*
X141758000Y-130509267D01*
X141758000Y-130094733D01*
X141671517Y-129885944D01*
X141695000Y-129767887D01*
X141695000Y-129767883D01*
X141702933Y-129728000D01*
X141695000Y-129688117D01*
X141695000Y-126329883D01*
X141702933Y-126290000D01*
X141695000Y-126250117D01*
X141695000Y-126250113D01*
X141671501Y-126131977D01*
X141619940Y-126054811D01*
X141604582Y-126031826D01*
X141581988Y-125998012D01*
X141548174Y-125975418D01*
X139930000Y-124357245D01*
X139930000Y-124114740D01*
X139826476Y-123864811D01*
X139635189Y-123673524D01*
X139385260Y-123570000D01*
X139114740Y-123570000D01*
X138864811Y-123673524D01*
X138673524Y-123864811D01*
X138570000Y-124114740D01*
X138570000Y-124385260D01*
X138602261Y-124463144D01*
X137140293Y-123001177D01*
X137325044Y-122924650D01*
X137516331Y-122733363D01*
X137619855Y-122483434D01*
X137619855Y-122212914D01*
X137516331Y-121962985D01*
X137422169Y-121868823D01*
X137480816Y-121781052D01*
X137504315Y-121662916D01*
X137504315Y-121662912D01*
X137512248Y-121623030D01*
X137504315Y-121583148D01*
X137504315Y-117811819D01*
X137532328Y-117853744D01*
X137566145Y-117876340D01*
X140020398Y-120330594D01*
X140020397Y-121850725D01*
X139848921Y-122022201D01*
X139745397Y-122272130D01*
X139745397Y-122542650D01*
X139848921Y-122792579D01*
X140040208Y-122983866D01*
X140290137Y-123087390D01*
X140560657Y-123087390D01*
X140810586Y-122983866D01*
X141001873Y-122792579D01*
X141105397Y-122542650D01*
X141105397Y-122272130D01*
X141001873Y-122022201D01*
X140830397Y-121850725D01*
X140830397Y-120504182D01*
X141759956Y-121433741D01*
X141759957Y-124864498D01*
X141752904Y-124899956D01*
X141780844Y-125040420D01*
X141820959Y-125100456D01*
X141860412Y-125159501D01*
X141890467Y-125179583D01*
X142340000Y-125629117D01*
X142340000Y-125853090D01*
X142314811Y-125863524D01*
X142123524Y-126054811D01*
X142020000Y-126304740D01*
X142020000Y-126575260D01*
X142123524Y-126825189D01*
X142314811Y-127016476D01*
X142564740Y-127120000D01*
X142835260Y-127120000D01*
X143085189Y-127016476D01*
X143276476Y-126825189D01*
X143380000Y-126575260D01*
X143380000Y-126304740D01*
X143276476Y-126054811D01*
X143085189Y-125863524D01*
X143060000Y-125853090D01*
X143060000Y-125515448D01*
X143067051Y-125479999D01*
X143060000Y-125444548D01*
X143060000Y-125444547D01*
X143039112Y-125339535D01*
X143019739Y-125310542D01*
X142979627Y-125250510D01*
X142979625Y-125250508D01*
X142959544Y-125220455D01*
X142929491Y-125200374D01*
X142479956Y-124750840D01*
X142479956Y-124159072D01*
X144579221Y-126258337D01*
X144560000Y-126304740D01*
X144560000Y-126575260D01*
X144663524Y-126825189D01*
X144854811Y-127016476D01*
X145104740Y-127120000D01*
X145375260Y-127120000D01*
X145625189Y-127016476D01*
X145816476Y-126825189D01*
X145920000Y-126575260D01*
X145920000Y-126304740D01*
X145816476Y-126054811D01*
X145625189Y-125863524D01*
X145375260Y-125760000D01*
X145104740Y-125760000D01*
X145100764Y-125761647D01*
X142839967Y-123500851D01*
X142839967Y-123041909D01*
X143035763Y-123123010D01*
X143306283Y-123123010D01*
X143556212Y-123019486D01*
X143715698Y-122860000D01*
X147864547Y-122860000D01*
X147900000Y-122867052D01*
X147935453Y-122860000D01*
X148040465Y-122839112D01*
X148159545Y-122759545D01*
X148179629Y-122729487D01*
X148479489Y-122429628D01*
X148509545Y-122409545D01*
X148589112Y-122290465D01*
X148610000Y-122185453D01*
X148617052Y-122150000D01*
X148610000Y-122114547D01*
X148610000Y-120618447D01*
X148617051Y-120582999D01*
X148610000Y-120547551D01*
X148610000Y-120547547D01*
X148589112Y-120442535D01*
X148543163Y-120373768D01*
X148529627Y-120353510D01*
X148529625Y-120353508D01*
X148509544Y-120323455D01*
X148479491Y-120303374D01*
X147784566Y-119608450D01*
X147795000Y-119583260D01*
X147795000Y-119348116D01*
X149730002Y-121283119D01*
X149730003Y-125036523D01*
X149545260Y-124960000D01*
X149274740Y-124960000D01*
X149024811Y-125063524D01*
X148833524Y-125254811D01*
X148824368Y-125276916D01*
X148808862Y-125280000D01*
X148703850Y-125300888D01*
X148584770Y-125380455D01*
X148564687Y-125410511D01*
X144175707Y-129799492D01*
X144139365Y-129711754D01*
X143846246Y-129418635D01*
X143463267Y-129260000D01*
X143048733Y-129260000D01*
X142665754Y-129418635D01*
X142372635Y-129711754D01*
X142214000Y-130094733D01*
X142214000Y-130509267D01*
X142372635Y-130892246D01*
X142665754Y-131185365D01*
X143048733Y-131344000D01*
X143247046Y-131344000D01*
X142871046Y-131720000D01*
X130126910Y-131720000D01*
X130116476Y-131694811D01*
X129925189Y-131503524D01*
X129675260Y-131400000D01*
X129404740Y-131400000D01*
X129154811Y-131503524D01*
X128963524Y-131694811D01*
X128860000Y-131944740D01*
X128860000Y-132215260D01*
X128963524Y-132465189D01*
X129154811Y-132656476D01*
X129404740Y-132760000D01*
X129675260Y-132760000D01*
X129925189Y-132656476D01*
X130116476Y-132465189D01*
X130126910Y-132440000D01*
X142984709Y-132440000D01*
X143020162Y-132447052D01*
X143055615Y-132440000D01*
X143160627Y-132419112D01*
X143279707Y-132339545D01*
X143299791Y-132309487D01*
X144527492Y-131081787D01*
X144557545Y-131061706D01*
X144577626Y-131031653D01*
X144577628Y-131031651D01*
X144599127Y-130999474D01*
X144637113Y-130942626D01*
X144658001Y-130837614D01*
X144658001Y-130837610D01*
X144665052Y-130802162D01*
X144658001Y-130766714D01*
X144658001Y-130335430D01*
X144754000Y-130239431D01*
X144754000Y-130509267D01*
X144912635Y-130892246D01*
X145205754Y-131185365D01*
X145588733Y-131344000D01*
X146003267Y-131344000D01*
X146386246Y-131185365D01*
X146478001Y-131093610D01*
X146478002Y-133682881D01*
X145968000Y-134192883D01*
X145968000Y-133976740D01*
X145864476Y-133726811D01*
X145673189Y-133535524D01*
X145423260Y-133432000D01*
X145152740Y-133432000D01*
X144902811Y-133535524D01*
X144711524Y-133726811D01*
X144701090Y-133752000D01*
X143334910Y-133752000D01*
X143324476Y-133726811D01*
X143133189Y-133535524D01*
X142883260Y-133432000D01*
X142612740Y-133432000D01*
X142362811Y-133535524D01*
X142171524Y-133726811D01*
X142161090Y-133752000D01*
X140794910Y-133752000D01*
X140784476Y-133726811D01*
X140593189Y-133535524D01*
X140343260Y-133432000D01*
X140072740Y-133432000D01*
X139822811Y-133535524D01*
X139631524Y-133726811D01*
X139621090Y-133752000D01*
X138254910Y-133752000D01*
X138244476Y-133726811D01*
X138053189Y-133535524D01*
X137803260Y-133432000D01*
X137532740Y-133432000D01*
X137282811Y-133535524D01*
X137091524Y-133726811D01*
X137081090Y-133752000D01*
X135714910Y-133752000D01*
X135704476Y-133726811D01*
X135513189Y-133535524D01*
X135263260Y-133432000D01*
X134992740Y-133432000D01*
X134742811Y-133535524D01*
X134551524Y-133726811D01*
X134541090Y-133752000D01*
X133174910Y-133752000D01*
X133164476Y-133726811D01*
X132973189Y-133535524D01*
X132723260Y-133432000D01*
X132452740Y-133432000D01*
X132202811Y-133535524D01*
X132011524Y-133726811D01*
X132001090Y-133752000D01*
X130634910Y-133752000D01*
X130624476Y-133726811D01*
X130433189Y-133535524D01*
X130183260Y-133432000D01*
X129912740Y-133432000D01*
X129662811Y-133535524D01*
X129471524Y-133726811D01*
X129461090Y-133752000D01*
X128094910Y-133752000D01*
X128084476Y-133726811D01*
X127893189Y-133535524D01*
X127643260Y-133432000D01*
X127372740Y-133432000D01*
X127122811Y-133535524D01*
X126931524Y-133726811D01*
X126828000Y-133976740D01*
X126828000Y-134247260D01*
X126931524Y-134497189D01*
X127122811Y-134688476D01*
X127372740Y-134792000D01*
X127643260Y-134792000D01*
X127893189Y-134688476D01*
X128084476Y-134497189D01*
X128094910Y-134472000D01*
X129461090Y-134472000D01*
X129471524Y-134497189D01*
X129662811Y-134688476D01*
X129912740Y-134792000D01*
X130183260Y-134792000D01*
X130433189Y-134688476D01*
X130624476Y-134497189D01*
X130634910Y-134472000D01*
X132001090Y-134472000D01*
X132011524Y-134497189D01*
X132202811Y-134688476D01*
X132452740Y-134792000D01*
X132723260Y-134792000D01*
X132973189Y-134688476D01*
X133164476Y-134497189D01*
X133174910Y-134472000D01*
X134541090Y-134472000D01*
X134551524Y-134497189D01*
X134742811Y-134688476D01*
X134992740Y-134792000D01*
X135263260Y-134792000D01*
X135513189Y-134688476D01*
X135704476Y-134497189D01*
X135714910Y-134472000D01*
X137081090Y-134472000D01*
X137091524Y-134497189D01*
X137282811Y-134688476D01*
X137532740Y-134792000D01*
X137803260Y-134792000D01*
X138053189Y-134688476D01*
X138244476Y-134497189D01*
X138254910Y-134472000D01*
X139621090Y-134472000D01*
X139631524Y-134497189D01*
X139822811Y-134688476D01*
X140072740Y-134792000D01*
X140343260Y-134792000D01*
X140593189Y-134688476D01*
X140784476Y-134497189D01*
X140794910Y-134472000D01*
X142161090Y-134472000D01*
X142171524Y-134497189D01*
X142362811Y-134688476D01*
X142612740Y-134792000D01*
X142883260Y-134792000D01*
X143133189Y-134688476D01*
X143324476Y-134497189D01*
X143334910Y-134472000D01*
X144701090Y-134472000D01*
X144711524Y-134497189D01*
X144902811Y-134688476D01*
X145152740Y-134792000D01*
X145368883Y-134792000D01*
X142908450Y-137252434D01*
X142883260Y-137242000D01*
X142612740Y-137242000D01*
X142362811Y-137345524D01*
X142171524Y-137536811D01*
X142068000Y-137786740D01*
X142068000Y-138057260D01*
X142171524Y-138307189D01*
X142362811Y-138498476D01*
X142602942Y-138597942D01*
X141860883Y-139340001D01*
X141513446Y-139340001D01*
X141477998Y-139332950D01*
X141442550Y-139340001D01*
X141442546Y-139340001D01*
X141337534Y-139360889D01*
X141218454Y-139440456D01*
X141198371Y-139470512D01*
X141153512Y-139515371D01*
X140923267Y-139420000D01*
X140508733Y-139420000D01*
X140125754Y-139578635D01*
X139832635Y-139871754D01*
X139674000Y-140254733D01*
X139674000Y-140669267D01*
X139832635Y-141052246D01*
X140125754Y-141345365D01*
X140508733Y-141504000D01*
X140923267Y-141504000D01*
X141306246Y-141345365D01*
X141599365Y-141052246D01*
X141758000Y-140669267D01*
X141758000Y-140254733D01*
X141677339Y-140060001D01*
X141974546Y-140060001D01*
X142009999Y-140067053D01*
X142045452Y-140060001D01*
X142150464Y-140039113D01*
X142269544Y-139959546D01*
X142289629Y-139929488D01*
X143840012Y-138379105D01*
X143840011Y-139368872D01*
X143693513Y-139515371D01*
X143463267Y-139420000D01*
X143048733Y-139420000D01*
X142665754Y-139578635D01*
X142372635Y-139871754D01*
X142214000Y-140254733D01*
X142214000Y-140669267D01*
X142372635Y-141052246D01*
X142665754Y-141345365D01*
X143048733Y-141504000D01*
X143463267Y-141504000D01*
X143846246Y-141345365D01*
X144139365Y-141052246D01*
X144200023Y-140905805D01*
X144200023Y-141730564D01*
X144192970Y-141766022D01*
X144220910Y-141906486D01*
X144220911Y-141906487D01*
X144300478Y-142025567D01*
X144330533Y-142045650D01*
X146452000Y-144167117D01*
X146452001Y-149376882D01*
X143946512Y-151882372D01*
X143946509Y-151882374D01*
X143795670Y-152033213D01*
X143430608Y-151882000D01*
X142921392Y-151882000D01*
X142450938Y-152076868D01*
X142090868Y-152436938D01*
X141926000Y-152834965D01*
X141761132Y-152436938D01*
X141401062Y-152076868D01*
X140930608Y-151882000D01*
X140421392Y-151882000D01*
X139950938Y-152076868D01*
X139590868Y-152436938D01*
X139461485Y-152749297D01*
X139461485Y-152162000D01*
X139439754Y-152052750D01*
X139377868Y-151960132D01*
X139285250Y-151898246D01*
X139176000Y-151876515D01*
X137176000Y-151876515D01*
X137066750Y-151898246D01*
X136974132Y-151960132D01*
X136912246Y-152052750D01*
X136890515Y-152162000D01*
X136890515Y-154162000D01*
X136912246Y-154271250D01*
X136974132Y-154363868D01*
X137066750Y-154425754D01*
X137176000Y-154447485D01*
X139176000Y-154447485D01*
X139285250Y-154425754D01*
X139377868Y-154363868D01*
X139439754Y-154271250D01*
X139461485Y-154162000D01*
X139461485Y-153574703D01*
X139590868Y-153887062D01*
X139950938Y-154247132D01*
X140421392Y-154442000D01*
X140930608Y-154442000D01*
X141401062Y-154247132D01*
X141761132Y-153887062D01*
X141926000Y-153489035D01*
X142090868Y-153887062D01*
X142450938Y-154247132D01*
X142921392Y-154442000D01*
X143430608Y-154442000D01*
X143901062Y-154247132D01*
X144261132Y-153887062D01*
X144456000Y-153416608D01*
X144456000Y-152907392D01*
X144304787Y-152542330D01*
X144455626Y-152391491D01*
X144455628Y-152391488D01*
X147041489Y-149805628D01*
X147071545Y-149785545D01*
X147151112Y-149666465D01*
X147172000Y-149561453D01*
X147172000Y-149561449D01*
X147179051Y-149526001D01*
X147172000Y-149490553D01*
X147172000Y-144053453D01*
X147179052Y-144018000D01*
X147151112Y-143877535D01*
X147091627Y-143788510D01*
X147091625Y-143788508D01*
X147071544Y-143758455D01*
X147041491Y-143738374D01*
X144920022Y-141616906D01*
X144920022Y-140254733D01*
X149834000Y-140254733D01*
X149834000Y-140669267D01*
X149992635Y-141052246D01*
X150285754Y-141345365D01*
X150668733Y-141504000D01*
X151083267Y-141504000D01*
X151466246Y-141345365D01*
X151759365Y-141052246D01*
X151918000Y-140669267D01*
X151918000Y-140254733D01*
X151759365Y-139871754D01*
X151466246Y-139578635D01*
X151083267Y-139420000D01*
X150668733Y-139420000D01*
X150285754Y-139578635D01*
X149992635Y-139871754D01*
X149834000Y-140254733D01*
X144920022Y-140254733D01*
X144920022Y-138515687D01*
X144937783Y-138533448D01*
X145187712Y-138636972D01*
X145458232Y-138636972D01*
X145708161Y-138533448D01*
X145899448Y-138342161D01*
X146002972Y-138092232D01*
X146002972Y-137821712D01*
X145992538Y-137796523D01*
X146002598Y-137786463D01*
X146002600Y-137786460D01*
X152429991Y-131359070D01*
X152429990Y-158201763D01*
X152209755Y-158421999D01*
X139471116Y-158421999D01*
X127590411Y-146541295D01*
X127795193Y-146456472D01*
X127986480Y-146265185D01*
X127996914Y-146239996D01*
X129363088Y-146239996D01*
X129373524Y-146265190D01*
X129564811Y-146456477D01*
X129814740Y-146560001D01*
X130085260Y-146560001D01*
X130335189Y-146456477D01*
X130526476Y-146265190D01*
X130536912Y-146239996D01*
X131903090Y-146239996D01*
X131913524Y-146265187D01*
X132104811Y-146456474D01*
X132354740Y-146559998D01*
X132625260Y-146559998D01*
X132875189Y-146456474D01*
X133066476Y-146265187D01*
X133076910Y-146239996D01*
X134443088Y-146239996D01*
X134453524Y-146265191D01*
X134644811Y-146456478D01*
X134894740Y-146560002D01*
X135165260Y-146560002D01*
X135415189Y-146456478D01*
X135606476Y-146265191D01*
X135616912Y-146239996D01*
X136983088Y-146239996D01*
X136993524Y-146265191D01*
X137184811Y-146456478D01*
X137434740Y-146560002D01*
X137705260Y-146560002D01*
X137955189Y-146456478D01*
X138146476Y-146265191D01*
X138156912Y-146239996D01*
X139523090Y-146239996D01*
X139533524Y-146265187D01*
X139724811Y-146456474D01*
X139974740Y-146559998D01*
X140245260Y-146559998D01*
X140495189Y-146456474D01*
X140686476Y-146265187D01*
X140696910Y-146239996D01*
X142063090Y-146239996D01*
X142073524Y-146265187D01*
X142264811Y-146456474D01*
X142514740Y-146559998D01*
X142785260Y-146559998D01*
X143035189Y-146456474D01*
X143226476Y-146265187D01*
X143236910Y-146239996D01*
X144603088Y-146239996D01*
X144613524Y-146265190D01*
X144804811Y-146456477D01*
X145054740Y-146560001D01*
X145325260Y-146560001D01*
X145575189Y-146456477D01*
X145766476Y-146265190D01*
X145870000Y-146015261D01*
X145870000Y-145744741D01*
X145766476Y-145494812D01*
X145575189Y-145303525D01*
X145325260Y-145200001D01*
X145054740Y-145200001D01*
X144804811Y-145303525D01*
X144613524Y-145494812D01*
X144603092Y-145519996D01*
X143236909Y-145519996D01*
X143226476Y-145494809D01*
X143035189Y-145303522D01*
X142785260Y-145199998D01*
X142514740Y-145199998D01*
X142264811Y-145303522D01*
X142073524Y-145494809D01*
X142063091Y-145519996D01*
X140696909Y-145519996D01*
X140686476Y-145494809D01*
X140495189Y-145303522D01*
X140245260Y-145199998D01*
X139974740Y-145199998D01*
X139724811Y-145303522D01*
X139533524Y-145494809D01*
X139523091Y-145519996D01*
X138156907Y-145519996D01*
X138146476Y-145494813D01*
X137955189Y-145303526D01*
X137705260Y-145200002D01*
X137434740Y-145200002D01*
X137184811Y-145303526D01*
X136993524Y-145494813D01*
X136983093Y-145519996D01*
X135616907Y-145519996D01*
X135606476Y-145494813D01*
X135415189Y-145303526D01*
X135165260Y-145200002D01*
X134953999Y-145200002D01*
X134953999Y-141253610D01*
X135045754Y-141345365D01*
X135428733Y-141504000D01*
X135843267Y-141504000D01*
X136226246Y-141345365D01*
X136519365Y-141052246D01*
X136678000Y-140669267D01*
X136678000Y-140254733D01*
X136519365Y-139871754D01*
X136226246Y-139578635D01*
X135843267Y-139420000D01*
X135428733Y-139420000D01*
X135045754Y-139578635D01*
X134959282Y-139665107D01*
X134933111Y-139533534D01*
X134873626Y-139444509D01*
X134873624Y-139444507D01*
X134853543Y-139414454D01*
X134823490Y-139394373D01*
X134137629Y-138708513D01*
X134117545Y-138678455D01*
X133998465Y-138598888D01*
X133893453Y-138578000D01*
X133858000Y-138570948D01*
X133822547Y-138578000D01*
X130197117Y-138578000D01*
X126745989Y-135126873D01*
X126745989Y-130094733D01*
X134594000Y-130094733D01*
X134594000Y-130509267D01*
X134752635Y-130892246D01*
X135045754Y-131185365D01*
X135428733Y-131344000D01*
X135843267Y-131344000D01*
X136226246Y-131185365D01*
X136519365Y-130892246D01*
X136678000Y-130509267D01*
X136678000Y-130094733D01*
X137134000Y-130094733D01*
X137134000Y-130509267D01*
X137292635Y-130892246D01*
X137585754Y-131185365D01*
X137968733Y-131344000D01*
X138383267Y-131344000D01*
X138766246Y-131185365D01*
X139059365Y-130892246D01*
X139218000Y-130509267D01*
X139218000Y-130094733D01*
X139059365Y-129711754D01*
X138766246Y-129418635D01*
X138383267Y-129260000D01*
X137968733Y-129260000D01*
X137585754Y-129418635D01*
X137292635Y-129711754D01*
X137134000Y-130094733D01*
X136678000Y-130094733D01*
X136519365Y-129711754D01*
X136226246Y-129418635D01*
X135843267Y-129260000D01*
X135428733Y-129260000D01*
X135045754Y-129418635D01*
X134752635Y-129711754D01*
X134594000Y-130094733D01*
X126745989Y-130094733D01*
X126745989Y-129052259D01*
X132688312Y-123109937D01*
X132718368Y-123089854D01*
X132797935Y-122970774D01*
X132818823Y-122865762D01*
X132818823Y-122865759D01*
X132825874Y-122830310D01*
X132818823Y-122794861D01*
X132818823Y-111818942D01*
X132825875Y-111783489D01*
X132797935Y-111643024D01*
X132738450Y-111553999D01*
X132738448Y-111553997D01*
X132738385Y-111553902D01*
X132842011Y-111657529D01*
G36*
X147990001Y-116008885D02*
X145902891Y-113921774D01*
X146031476Y-113793189D01*
X146135000Y-113543260D01*
X146135000Y-113272740D01*
X146031476Y-113022811D01*
X145840189Y-112831524D01*
X145590260Y-112728000D01*
X145319740Y-112728000D01*
X145069811Y-112831524D01*
X144878524Y-113022811D01*
X144775000Y-113272740D01*
X144775000Y-113543260D01*
X144878524Y-113793189D01*
X145069811Y-113984476D01*
X145089896Y-113992796D01*
X145115888Y-114123464D01*
X145175373Y-114212489D01*
X145195456Y-114242545D01*
X145225512Y-114262628D01*
X151558001Y-120595118D01*
X151558002Y-129510391D01*
X151466246Y-129418635D01*
X151083267Y-129260000D01*
X150668733Y-129260000D01*
X150285754Y-129418635D01*
X150178021Y-129526368D01*
X150178021Y-127405763D01*
X151039515Y-126544270D01*
X151069568Y-126524189D01*
X151089649Y-126494136D01*
X151089651Y-126494134D01*
X151149136Y-126405109D01*
X151155215Y-126374547D01*
X151170024Y-126300097D01*
X151170024Y-126300094D01*
X151177075Y-126264645D01*
X151170024Y-126229196D01*
X151170024Y-120618345D01*
X151177076Y-120582892D01*
X151149136Y-120442427D01*
X151089651Y-120353402D01*
X151069569Y-120323347D01*
X151039513Y-120303264D01*
X147076097Y-116339849D01*
X147056012Y-116309790D01*
X146936932Y-116230223D01*
X146831920Y-116209335D01*
X146796467Y-116202283D01*
X146761014Y-116209335D01*
X144556900Y-116209335D01*
X144546466Y-116184146D01*
X144355179Y-115992859D01*
X144105250Y-115889335D01*
X143834730Y-115889335D01*
X143584801Y-115992859D01*
X143393514Y-116184146D01*
X143289990Y-116434075D01*
X143289990Y-116704595D01*
X143393514Y-116954524D01*
X143584801Y-117145811D01*
X143834730Y-117249335D01*
X144105250Y-117249335D01*
X144355179Y-117145811D01*
X144546466Y-116954524D01*
X144556900Y-116929335D01*
X146647351Y-116929335D01*
X147616005Y-117897989D01*
X141267106Y-117897989D01*
X140633628Y-117264512D01*
X140633626Y-117264509D01*
X140623566Y-117254449D01*
X140634000Y-117229260D01*
X140634000Y-116958740D01*
X140530476Y-116708811D01*
X140339189Y-116517524D01*
X140089260Y-116414000D01*
X139818740Y-116414000D01*
X139584337Y-116511093D01*
X139584337Y-116294737D01*
X139632638Y-116314744D01*
X139903158Y-116314744D01*
X140153087Y-116211220D01*
X140344374Y-116019933D01*
X140447898Y-115770004D01*
X140447898Y-115499484D01*
X140437464Y-115474295D01*
X140447524Y-115464235D01*
X140447526Y-115464232D01*
X144525489Y-111386270D01*
X144555545Y-111366187D01*
X144635112Y-111247107D01*
X144656000Y-111142095D01*
X144656000Y-111142091D01*
X144663051Y-111106643D01*
X144656000Y-111071195D01*
X144656000Y-108580910D01*
X144681189Y-108570476D01*
X144872476Y-108379189D01*
X144976000Y-108129260D01*
X144976000Y-107858740D01*
X144872476Y-107608811D01*
X144681189Y-107417524D01*
X144431260Y-107314000D01*
X144160740Y-107314000D01*
X143910811Y-107417524D01*
X143719524Y-107608811D01*
X143616000Y-107858740D01*
X143616000Y-108129260D01*
X143719524Y-108379189D01*
X143910811Y-108570476D01*
X143936000Y-108580910D01*
X143936001Y-110957524D01*
X143371011Y-111522514D01*
X143405144Y-111471430D01*
X143433084Y-111330966D01*
X143426032Y-111295513D01*
X143426034Y-106006478D01*
X147990000Y-101442513D01*
X147990001Y-116008885D01*
X147990001Y-116008885D01*
G37*
X147990001Y-116008885D02*
X145902891Y-113921774D01*
X146031476Y-113793189D01*
X146135000Y-113543260D01*
X146135000Y-113272740D01*
X146031476Y-113022811D01*
X145840189Y-112831524D01*
X145590260Y-112728000D01*
X145319740Y-112728000D01*
X145069811Y-112831524D01*
X144878524Y-113022811D01*
X144775000Y-113272740D01*
X144775000Y-113543260D01*
X144878524Y-113793189D01*
X145069811Y-113984476D01*
X145089896Y-113992796D01*
X145115888Y-114123464D01*
X145175373Y-114212489D01*
X145195456Y-114242545D01*
X145225512Y-114262628D01*
X151558001Y-120595118D01*
X151558002Y-129510391D01*
X151466246Y-129418635D01*
X151083267Y-129260000D01*
X150668733Y-129260000D01*
X150285754Y-129418635D01*
X150178021Y-129526368D01*
X150178021Y-127405763D01*
X151039515Y-126544270D01*
X151069568Y-126524189D01*
X151089649Y-126494136D01*
X151089651Y-126494134D01*
X151149136Y-126405109D01*
X151155215Y-126374547D01*
X151170024Y-126300097D01*
X151170024Y-126300094D01*
X151177075Y-126264645D01*
X151170024Y-126229196D01*
X151170024Y-120618345D01*
X151177076Y-120582892D01*
X151149136Y-120442427D01*
X151089651Y-120353402D01*
X151069569Y-120323347D01*
X151039513Y-120303264D01*
X147076097Y-116339849D01*
X147056012Y-116309790D01*
X146936932Y-116230223D01*
X146831920Y-116209335D01*
X146796467Y-116202283D01*
X146761014Y-116209335D01*
X144556900Y-116209335D01*
X144546466Y-116184146D01*
X144355179Y-115992859D01*
X144105250Y-115889335D01*
X143834730Y-115889335D01*
X143584801Y-115992859D01*
X143393514Y-116184146D01*
X143289990Y-116434075D01*
X143289990Y-116704595D01*
X143393514Y-116954524D01*
X143584801Y-117145811D01*
X143834730Y-117249335D01*
X144105250Y-117249335D01*
X144355179Y-117145811D01*
X144546466Y-116954524D01*
X144556900Y-116929335D01*
X146647351Y-116929335D01*
X147616005Y-117897989D01*
X141267106Y-117897989D01*
X140633628Y-117264512D01*
X140633626Y-117264509D01*
X140623566Y-117254449D01*
X140634000Y-117229260D01*
X140634000Y-116958740D01*
X140530476Y-116708811D01*
X140339189Y-116517524D01*
X140089260Y-116414000D01*
X139818740Y-116414000D01*
X139584337Y-116511093D01*
X139584337Y-116294737D01*
X139632638Y-116314744D01*
X139903158Y-116314744D01*
X140153087Y-116211220D01*
X140344374Y-116019933D01*
X140447898Y-115770004D01*
X140447898Y-115499484D01*
X140437464Y-115474295D01*
X140447524Y-115464235D01*
X140447526Y-115464232D01*
X144525489Y-111386270D01*
X144555545Y-111366187D01*
X144635112Y-111247107D01*
X144656000Y-111142095D01*
X144656000Y-111142091D01*
X144663051Y-111106643D01*
X144656000Y-111071195D01*
X144656000Y-108580910D01*
X144681189Y-108570476D01*
X144872476Y-108379189D01*
X144976000Y-108129260D01*
X144976000Y-107858740D01*
X144872476Y-107608811D01*
X144681189Y-107417524D01*
X144431260Y-107314000D01*
X144160740Y-107314000D01*
X143910811Y-107417524D01*
X143719524Y-107608811D01*
X143616000Y-107858740D01*
X143616000Y-108129260D01*
X143719524Y-108379189D01*
X143910811Y-108570476D01*
X143936000Y-108580910D01*
X143936001Y-110957524D01*
X143371011Y-111522514D01*
X143405144Y-111471430D01*
X143433084Y-111330966D01*
X143426032Y-111295513D01*
X143426034Y-106006478D01*
X147990000Y-101442513D01*
X147990001Y-116008885D01*
G36*
X124905144Y-113476261D02*
X124905144Y-114284000D01*
X124932308Y-114420563D01*
X125009665Y-114536335D01*
X125125437Y-114613692D01*
X125262000Y-114640856D01*
X126884356Y-114640856D01*
X126694763Y-114830450D01*
X126669573Y-114820016D01*
X126399053Y-114820016D01*
X126149124Y-114923540D01*
X125957837Y-115114827D01*
X125854313Y-115364756D01*
X125854313Y-115635276D01*
X125957837Y-115885205D01*
X126149124Y-116076492D01*
X126399053Y-116180016D01*
X126669573Y-116180016D01*
X126919502Y-116076492D01*
X127110789Y-115885205D01*
X127214313Y-115635276D01*
X127214313Y-115364756D01*
X127203879Y-115339566D01*
X127397017Y-115146429D01*
X130149444Y-115146429D01*
X130159878Y-115171618D01*
X130351165Y-115362905D01*
X130601094Y-115466429D01*
X130871614Y-115466429D01*
X131121543Y-115362905D01*
X131240001Y-115244447D01*
X131240001Y-115898860D01*
X131240000Y-115898865D01*
X131240000Y-115913092D01*
X131214811Y-115923526D01*
X131023524Y-116114813D01*
X130920000Y-116364742D01*
X130920000Y-116635262D01*
X131023524Y-116885191D01*
X131214811Y-117076478D01*
X131236916Y-117085634D01*
X131260888Y-117206151D01*
X131310395Y-117280243D01*
X131340456Y-117325232D01*
X131370511Y-117345314D01*
X131520000Y-117494804D01*
X131520001Y-122750882D01*
X130618856Y-123652027D01*
X130618856Y-121682000D01*
X130591692Y-121545437D01*
X130514335Y-121429665D01*
X130487898Y-121412000D01*
X130514335Y-121394335D01*
X130591692Y-121278563D01*
X130618856Y-121142000D01*
X130618856Y-119142000D01*
X130591692Y-119005437D01*
X130514335Y-118889665D01*
X130487898Y-118872000D01*
X130514335Y-118854335D01*
X130591692Y-118738563D01*
X130618856Y-118602000D01*
X130618856Y-116602000D01*
X130591692Y-116465437D01*
X130514335Y-116349665D01*
X130398563Y-116272308D01*
X130262000Y-116245144D01*
X125414260Y-116245144D01*
X125269241Y-116100125D01*
X125269241Y-115949987D01*
X125294430Y-115939553D01*
X125485717Y-115748266D01*
X125589241Y-115498337D01*
X125589241Y-115227817D01*
X125485717Y-114977888D01*
X125294430Y-114786601D01*
X125044501Y-114683077D01*
X124773981Y-114683077D01*
X124546000Y-114777510D01*
X124546000Y-113117116D01*
X124905144Y-113476261D01*
X124905144Y-113476261D01*
G37*
X124905144Y-113476261D02*
X124905144Y-114284000D01*
X124932308Y-114420563D01*
X125009665Y-114536335D01*
X125125437Y-114613692D01*
X125262000Y-114640856D01*
X126884356Y-114640856D01*
X126694763Y-114830450D01*
X126669573Y-114820016D01*
X126399053Y-114820016D01*
X126149124Y-114923540D01*
X125957837Y-115114827D01*
X125854313Y-115364756D01*
X125854313Y-115635276D01*
X125957837Y-115885205D01*
X126149124Y-116076492D01*
X126399053Y-116180016D01*
X126669573Y-116180016D01*
X126919502Y-116076492D01*
X127110789Y-115885205D01*
X127214313Y-115635276D01*
X127214313Y-115364756D01*
X127203879Y-115339566D01*
X127397017Y-115146429D01*
X130149444Y-115146429D01*
X130159878Y-115171618D01*
X130351165Y-115362905D01*
X130601094Y-115466429D01*
X130871614Y-115466429D01*
X131121543Y-115362905D01*
X131240001Y-115244447D01*
X131240001Y-115898860D01*
X131240000Y-115898865D01*
X131240000Y-115913092D01*
X131214811Y-115923526D01*
X131023524Y-116114813D01*
X130920000Y-116364742D01*
X130920000Y-116635262D01*
X131023524Y-116885191D01*
X131214811Y-117076478D01*
X131236916Y-117085634D01*
X131260888Y-117206151D01*
X131310395Y-117280243D01*
X131340456Y-117325232D01*
X131370511Y-117345314D01*
X131520000Y-117494804D01*
X131520001Y-122750882D01*
X130618856Y-123652027D01*
X130618856Y-121682000D01*
X130591692Y-121545437D01*
X130514335Y-121429665D01*
X130487898Y-121412000D01*
X130514335Y-121394335D01*
X130591692Y-121278563D01*
X130618856Y-121142000D01*
X130618856Y-119142000D01*
X130591692Y-119005437D01*
X130514335Y-118889665D01*
X130487898Y-118872000D01*
X130514335Y-118854335D01*
X130591692Y-118738563D01*
X130618856Y-118602000D01*
X130618856Y-116602000D01*
X130591692Y-116465437D01*
X130514335Y-116349665D01*
X130398563Y-116272308D01*
X130262000Y-116245144D01*
X125414260Y-116245144D01*
X125269241Y-116100125D01*
X125269241Y-115949987D01*
X125294430Y-115939553D01*
X125485717Y-115748266D01*
X125589241Y-115498337D01*
X125589241Y-115227817D01*
X125485717Y-114977888D01*
X125294430Y-114786601D01*
X125044501Y-114683077D01*
X124773981Y-114683077D01*
X124546000Y-114777510D01*
X124546000Y-113117116D01*
X124905144Y-113476261D01*
G36*
X130953534Y-108134768D02*
X130850010Y-108384697D01*
X130850010Y-108655217D01*
X130953534Y-108905146D01*
X131144821Y-109096433D01*
X131394750Y-109199957D01*
X131665270Y-109199957D01*
X131915199Y-109096433D01*
X132106486Y-108905146D01*
X132210010Y-108655217D01*
X132210010Y-108391998D01*
X134529990Y-108391998D01*
X134529990Y-108583664D01*
X134633514Y-108833593D01*
X134824801Y-109024880D01*
X135074730Y-109128404D01*
X135218479Y-109128404D01*
X134636885Y-109709999D01*
X133499039Y-109709999D01*
X133463586Y-109702947D01*
X133428133Y-109709999D01*
X133323121Y-109730887D01*
X133204041Y-109810454D01*
X133183958Y-109840510D01*
X132590512Y-110433957D01*
X132560456Y-110454040D01*
X132540374Y-110484095D01*
X132480889Y-110573120D01*
X132452949Y-110713584D01*
X132460001Y-110749037D01*
X132460001Y-111090949D01*
X132452949Y-111126402D01*
X132480889Y-111266866D01*
X132532404Y-111343963D01*
X132540440Y-111355989D01*
X132332097Y-111147647D01*
X132332097Y-110195070D01*
X132364942Y-110162225D01*
X132390132Y-110172659D01*
X132660652Y-110172659D01*
X132910581Y-110069135D01*
X133101868Y-109877848D01*
X133205392Y-109627919D01*
X133205392Y-109357399D01*
X133101868Y-109107470D01*
X132910581Y-108916183D01*
X132660652Y-108812659D01*
X132390132Y-108812659D01*
X132140203Y-108916183D01*
X131948916Y-109107470D01*
X131845392Y-109357399D01*
X131845392Y-109627919D01*
X131855826Y-109653109D01*
X131742608Y-109766327D01*
X131712552Y-109786410D01*
X131663691Y-109859535D01*
X131632985Y-109905490D01*
X131605045Y-110045954D01*
X131612097Y-110081407D01*
X131612098Y-111261305D01*
X131605045Y-111296763D01*
X131632985Y-111437227D01*
X131659101Y-111476312D01*
X130697301Y-110514513D01*
X130677217Y-110484455D01*
X130618856Y-110445459D01*
X130618856Y-109744000D01*
X130591692Y-109607437D01*
X130514335Y-109491665D01*
X130487898Y-109474000D01*
X130514335Y-109456335D01*
X130591692Y-109340563D01*
X130618856Y-109204000D01*
X130618856Y-108031988D01*
X131056314Y-108031988D01*
X130953534Y-108134768D01*
X130953534Y-108134768D01*
G37*
X130953534Y-108134768D02*
X130850010Y-108384697D01*
X130850010Y-108655217D01*
X130953534Y-108905146D01*
X131144821Y-109096433D01*
X131394750Y-109199957D01*
X131665270Y-109199957D01*
X131915199Y-109096433D01*
X132106486Y-108905146D01*
X132210010Y-108655217D01*
X132210010Y-108391998D01*
X134529990Y-108391998D01*
X134529990Y-108583664D01*
X134633514Y-108833593D01*
X134824801Y-109024880D01*
X135074730Y-109128404D01*
X135218479Y-109128404D01*
X134636885Y-109709999D01*
X133499039Y-109709999D01*
X133463586Y-109702947D01*
X133428133Y-109709999D01*
X133323121Y-109730887D01*
X133204041Y-109810454D01*
X133183958Y-109840510D01*
X132590512Y-110433957D01*
X132560456Y-110454040D01*
X132540374Y-110484095D01*
X132480889Y-110573120D01*
X132452949Y-110713584D01*
X132460001Y-110749037D01*
X132460001Y-111090949D01*
X132452949Y-111126402D01*
X132480889Y-111266866D01*
X132532404Y-111343963D01*
X132540440Y-111355989D01*
X132332097Y-111147647D01*
X132332097Y-110195070D01*
X132364942Y-110162225D01*
X132390132Y-110172659D01*
X132660652Y-110172659D01*
X132910581Y-110069135D01*
X133101868Y-109877848D01*
X133205392Y-109627919D01*
X133205392Y-109357399D01*
X133101868Y-109107470D01*
X132910581Y-108916183D01*
X132660652Y-108812659D01*
X132390132Y-108812659D01*
X132140203Y-108916183D01*
X131948916Y-109107470D01*
X131845392Y-109357399D01*
X131845392Y-109627919D01*
X131855826Y-109653109D01*
X131742608Y-109766327D01*
X131712552Y-109786410D01*
X131663691Y-109859535D01*
X131632985Y-109905490D01*
X131605045Y-110045954D01*
X131612097Y-110081407D01*
X131612098Y-111261305D01*
X131605045Y-111296763D01*
X131632985Y-111437227D01*
X131659101Y-111476312D01*
X130697301Y-110514513D01*
X130677217Y-110484455D01*
X130618856Y-110445459D01*
X130618856Y-109744000D01*
X130591692Y-109607437D01*
X130514335Y-109491665D01*
X130487898Y-109474000D01*
X130514335Y-109456335D01*
X130591692Y-109340563D01*
X130618856Y-109204000D01*
X130618856Y-108031988D01*
X131056314Y-108031988D01*
X130953534Y-108134768D01*
G04 #@! TD*
M02*
