G04 #@! TF.GenerationSoftware,KiCad,Pcbnew,5.0.0-fee4fd1~66~ubuntu14.04.1*
G04 #@! TF.CreationDate,2018-10-15T15:43:49-07:00*
G04 #@! TF.ProjectId,count,636F756E742E6B696361645F70636200,rev?*
G04 #@! TF.SameCoordinates,Original*
G04 #@! TF.FileFunction,Soldermask,Top*
G04 #@! TF.FilePolarity,Negative*
%FSLAX46Y46*%
G04 Gerber Fmt 4.6, Leading zero omitted, Abs format (unit mm)*
G04 Created by KiCad (PCBNEW 5.0.0-fee4fd1~66~ubuntu14.04.1) date Mon Oct 15 15:43:49 2018*
%MOMM*%
%LPD*%
G01*
G04 APERTURE LIST*
%ADD10R,2.000000X2.000000*%
%ADD11O,2.000000X2.000000*%
%ADD12C,1.924000*%
%ADD13R,2.100000X2.100000*%
%ADD14O,2.100000X2.100000*%
%ADD15C,2.000000*%
%ADD16C,2.400000*%
%ADD17C,1.900000*%
%ADD18C,2.600000*%
G04 APERTURE END LIST*
D10*
G04 #@! TO.C,U1*
X125933200Y-93065600D03*
D11*
X158953200Y-85445600D03*
X128473200Y-93065600D03*
X156413200Y-85445600D03*
X131013200Y-93065600D03*
X153873200Y-85445600D03*
X133553200Y-93065600D03*
X151333200Y-85445600D03*
X136093200Y-93065600D03*
X148793200Y-85445600D03*
X138633200Y-93065600D03*
X146253200Y-85445600D03*
X141173200Y-93065600D03*
X143713200Y-85445600D03*
X143713200Y-93065600D03*
X141173200Y-85445600D03*
X146253200Y-93065600D03*
X138633200Y-85445600D03*
X148793200Y-93065600D03*
X136093200Y-85445600D03*
X151333200Y-93065600D03*
X133553200Y-85445600D03*
X153873200Y-93065600D03*
X131013200Y-85445600D03*
X156413200Y-93065600D03*
X128473200Y-85445600D03*
X158953200Y-93065600D03*
X125933200Y-85445600D03*
G04 #@! TD*
D12*
G04 #@! TO.C,U2*
X140106400Y-106324400D03*
X142646400Y-106324400D03*
X145186400Y-106324400D03*
X147726400Y-106324400D03*
X150266400Y-106324400D03*
X152806400Y-106324400D03*
X155346400Y-106324400D03*
X155346400Y-96164400D03*
X147726400Y-96164400D03*
X145186400Y-96164400D03*
X140106400Y-96164400D03*
X137566400Y-96164400D03*
G04 #@! TD*
D13*
G04 #@! TO.C,J3*
X131013200Y-121564400D03*
D14*
X131013200Y-119024400D03*
X131013200Y-116484400D03*
X131013200Y-113944400D03*
X131013200Y-111404400D03*
X131013200Y-108864400D03*
G04 #@! TD*
D10*
G04 #@! TO.C,C1*
X126492000Y-99822000D03*
D15*
X128992000Y-99822000D03*
G04 #@! TD*
G04 #@! TO.C,C2*
X147599400Y-81290800D03*
X147599400Y-78790800D03*
G04 #@! TD*
G04 #@! TO.C,C3*
X147599400Y-76248900D03*
X147599400Y-73748900D03*
G04 #@! TD*
D11*
G04 #@! TO.C,C4*
X129895600Y-74567400D03*
D15*
X129895600Y-82067400D03*
G04 #@! TD*
G04 #@! TO.C,C5*
X126085600Y-74574400D03*
D11*
X126085600Y-82074400D03*
G04 #@! TD*
D14*
G04 #@! TO.C,J1*
X126365000Y-116154200D03*
X126365000Y-113614200D03*
D13*
X126365000Y-111074200D03*
G04 #@! TD*
G04 #@! TO.C,J2*
X159385000Y-111048800D03*
D14*
X159385000Y-113588800D03*
X159385000Y-116128800D03*
G04 #@! TD*
D11*
G04 #@! TO.C,R2*
X133400800Y-71932800D03*
D15*
X133400800Y-82092800D03*
G04 #@! TD*
D16*
G04 #@! TO.C,SW3*
X139954000Y-75135600D03*
X144454000Y-75135600D03*
X139954000Y-81635600D03*
X144454000Y-81635600D03*
G04 #@! TD*
D17*
G04 #@! TO.C,Y1*
X152387300Y-76098400D03*
X157287300Y-76098400D03*
G04 #@! TD*
D18*
G04 #@! TO.C,H1*
X126720600Y-68097400D03*
G04 #@! TD*
G04 #@! TO.C,H2*
X158851600Y-68249800D03*
G04 #@! TD*
G04 #@! TO.C,H3*
X126441200Y-121183400D03*
G04 #@! TD*
G04 #@! TO.C,H4*
X159308800Y-121132600D03*
G04 #@! TD*
D13*
G04 #@! TO.C,J4*
X159004000Y-81305400D03*
G04 #@! TD*
G04 #@! TO.C,J5*
X155295600Y-81305400D03*
G04 #@! TD*
G04 #@! TO.C,J6*
X151536400Y-81292700D03*
G04 #@! TD*
G04 #@! TO.C,J7*
X136677400Y-81889600D03*
G04 #@! TD*
D16*
G04 #@! TO.C,SW1*
X141958200Y-110337600D03*
X141958200Y-114837600D03*
X135458200Y-110337600D03*
X135458200Y-114837600D03*
G04 #@! TD*
M02*
