G04 #@! TF.GenerationSoftware,KiCad,Pcbnew,5.0.2-bee76a0~70~ubuntu14.04.1*
G04 #@! TF.CreationDate,2018-12-14T16:20:10-07:00*
G04 #@! TF.ProjectId,count,636f756e-742e-46b6-9963-61645f706362,rev?*
G04 #@! TF.SameCoordinates,Original*
G04 #@! TF.FileFunction,Legend,Top*
G04 #@! TF.FilePolarity,Positive*
%FSLAX46Y46*%
G04 Gerber Fmt 4.6, Leading zero omitted, Abs format (unit mm)*
G04 Created by KiCad (PCBNEW 5.0.2-bee76a0~70~ubuntu14.04.1) date Fri 14 Dec 2018 04:20:10 PM MST*
%MOMM*%
%LPD*%
G01*
G04 APERTURE LIST*
%ADD10C,0.300000*%
%ADD11C,0.150000*%
%ADD12C,0.200000*%
%ADD13C,0.120000*%
G04 APERTURE END LIST*
D10*
X131464857Y-123193714D02*
X131536285Y-122979428D01*
X131607714Y-122908000D01*
X131750571Y-122836571D01*
X131964857Y-122836571D01*
X132107714Y-122908000D01*
X132179142Y-122979428D01*
X132250571Y-123122285D01*
X132250571Y-123693714D01*
X130750571Y-123693714D01*
X130750571Y-123193714D01*
X130822000Y-123050857D01*
X130893428Y-122979428D01*
X131036285Y-122908000D01*
X131179142Y-122908000D01*
X131322000Y-122979428D01*
X131393428Y-123050857D01*
X131464857Y-123193714D01*
X131464857Y-123693714D01*
X130750571Y-121908000D02*
X130750571Y-121622285D01*
X130822000Y-121479428D01*
X130964857Y-121336571D01*
X131250571Y-121265142D01*
X131750571Y-121265142D01*
X132036285Y-121336571D01*
X132179142Y-121479428D01*
X132250571Y-121622285D01*
X132250571Y-121908000D01*
X132179142Y-122050857D01*
X132036285Y-122193714D01*
X131750571Y-122265142D01*
X131250571Y-122265142D01*
X130964857Y-122193714D01*
X130822000Y-122050857D01*
X130750571Y-121908000D01*
X130750571Y-120336571D02*
X130750571Y-120050857D01*
X130822000Y-119908000D01*
X130964857Y-119765142D01*
X131250571Y-119693714D01*
X131750571Y-119693714D01*
X132036285Y-119765142D01*
X132179142Y-119908000D01*
X132250571Y-120050857D01*
X132250571Y-120336571D01*
X132179142Y-120479428D01*
X132036285Y-120622285D01*
X131750571Y-120693714D01*
X131250571Y-120693714D01*
X130964857Y-120622285D01*
X130822000Y-120479428D01*
X130750571Y-120336571D01*
X130750571Y-119265142D02*
X130750571Y-118408000D01*
X132250571Y-118836571D02*
X130750571Y-118836571D01*
X131464857Y-113732285D02*
X131464857Y-114232285D01*
X132250571Y-114232285D02*
X130750571Y-114232285D01*
X130750571Y-113518000D01*
X130750571Y-113160857D02*
X130750571Y-112303714D01*
X132250571Y-112732285D02*
X130750571Y-112732285D01*
X132250571Y-111803714D02*
X130750571Y-111803714D01*
X130750571Y-111446571D01*
X130822000Y-111232285D01*
X130964857Y-111089428D01*
X131107714Y-111018000D01*
X131393428Y-110946571D01*
X131607714Y-110946571D01*
X131893428Y-111018000D01*
X132036285Y-111089428D01*
X132179142Y-111232285D01*
X132250571Y-111446571D01*
X132250571Y-111803714D01*
X132250571Y-110303714D02*
X130750571Y-110303714D01*
D11*
X149521428Y-163371428D02*
X149830952Y-164238095D01*
X150140476Y-163371428D01*
X150573809Y-163061904D02*
X150635714Y-163000000D01*
X150759523Y-162938095D01*
X151069047Y-162938095D01*
X151192857Y-163000000D01*
X151254761Y-163061904D01*
X151316666Y-163185714D01*
X151316666Y-163309523D01*
X151254761Y-163495238D01*
X150511904Y-164238095D01*
X151316666Y-164238095D01*
D12*
X147542857Y-136757142D02*
X147600000Y-136700000D01*
X147714285Y-136642857D01*
X148000000Y-136642857D01*
X148114285Y-136700000D01*
X148171428Y-136757142D01*
X148228571Y-136871428D01*
X148228571Y-136985714D01*
X148171428Y-137157142D01*
X147485714Y-137842857D01*
X148228571Y-137842857D01*
X148742857Y-137214285D02*
X149657142Y-137214285D01*
X149657142Y-137557142D02*
X148742857Y-137557142D01*
X150228571Y-137842857D02*
X150228571Y-136642857D01*
X150914285Y-137842857D01*
X150914285Y-136642857D01*
X151942857Y-137785714D02*
X151828571Y-137842857D01*
X151600000Y-137842857D01*
X151485714Y-137785714D01*
X151428571Y-137671428D01*
X151428571Y-137214285D01*
X151485714Y-137100000D01*
X151600000Y-137042857D01*
X151828571Y-137042857D01*
X151942857Y-137100000D01*
X152000000Y-137214285D01*
X152000000Y-137328571D01*
X151428571Y-137442857D01*
X152400000Y-137842857D02*
X153028571Y-137042857D01*
X152400000Y-137042857D02*
X153028571Y-137842857D01*
X153314285Y-137042857D02*
X153771428Y-137042857D01*
X153485714Y-136642857D02*
X153485714Y-137671428D01*
X153542857Y-137785714D01*
X153657142Y-137842857D01*
X153771428Y-137842857D01*
X148220000Y-135842857D02*
X147534285Y-135842857D01*
X147877142Y-135842857D02*
X147877142Y-134642857D01*
X147762857Y-134814285D01*
X147648571Y-134928571D01*
X147534285Y-134985714D01*
X148734285Y-135214285D02*
X149648571Y-135214285D01*
X149648571Y-135557142D02*
X148734285Y-135557142D01*
X150620000Y-135214285D02*
X150220000Y-135214285D01*
X150220000Y-135842857D02*
X150220000Y-134642857D01*
X150791428Y-134642857D01*
X151248571Y-135842857D02*
X151248571Y-135042857D01*
X151248571Y-134642857D02*
X151191428Y-134700000D01*
X151248571Y-134757142D01*
X151305714Y-134700000D01*
X151248571Y-134642857D01*
X151248571Y-134757142D01*
X151820000Y-135842857D02*
X151820000Y-135042857D01*
X151820000Y-135271428D02*
X151877142Y-135157142D01*
X151934285Y-135100000D01*
X152048571Y-135042857D01*
X152162857Y-135042857D01*
X152505714Y-135785714D02*
X152620000Y-135842857D01*
X152848571Y-135842857D01*
X152962857Y-135785714D01*
X153020000Y-135671428D01*
X153020000Y-135614285D01*
X152962857Y-135500000D01*
X152848571Y-135442857D01*
X152677142Y-135442857D01*
X152562857Y-135385714D01*
X152505714Y-135271428D01*
X152505714Y-135214285D01*
X152562857Y-135100000D01*
X152677142Y-135042857D01*
X152848571Y-135042857D01*
X152962857Y-135100000D01*
X153362857Y-135042857D02*
X153820000Y-135042857D01*
X153534285Y-134642857D02*
X153534285Y-135671428D01*
X153591428Y-135785714D01*
X153705714Y-135842857D01*
X153820000Y-135842857D01*
D10*
X147600000Y-156407142D02*
X147600000Y-153407142D01*
X149028571Y-156407142D02*
X149028571Y-153407142D01*
X149742857Y-153407142D01*
X150171428Y-153550000D01*
X150457142Y-153835714D01*
X150600000Y-154121428D01*
X150742857Y-154692857D01*
X150742857Y-155121428D01*
X150600000Y-155692857D01*
X150457142Y-155978571D01*
X150171428Y-156264285D01*
X149742857Y-156407142D01*
X149028571Y-156407142D01*
X147360285Y-144867142D02*
X147360285Y-141867142D01*
X149074571Y-144867142D01*
X149074571Y-141867142D01*
X150503142Y-143295714D02*
X151503142Y-143295714D01*
X151931714Y-144867142D02*
X150503142Y-144867142D01*
X150503142Y-141867142D01*
X151931714Y-141867142D01*
X152931714Y-141867142D02*
X154931714Y-144867142D01*
X154931714Y-141867142D02*
X152931714Y-144867142D01*
X155646000Y-141867142D02*
X157360285Y-141867142D01*
X156503142Y-144867142D02*
X156503142Y-141867142D01*
D11*
X131429428Y-100500571D02*
X131429428Y-99500571D01*
X131429428Y-99786285D02*
X131500857Y-99643428D01*
X131572285Y-99572000D01*
X131715142Y-99500571D01*
X131858000Y-99500571D01*
X132929428Y-100429142D02*
X132786571Y-100500571D01*
X132500857Y-100500571D01*
X132358000Y-100429142D01*
X132286571Y-100286285D01*
X132286571Y-99714857D01*
X132358000Y-99572000D01*
X132500857Y-99500571D01*
X132786571Y-99500571D01*
X132929428Y-99572000D01*
X133000857Y-99714857D01*
X133000857Y-99857714D01*
X132286571Y-100000571D01*
X133572285Y-100429142D02*
X133715142Y-100500571D01*
X134000857Y-100500571D01*
X134143714Y-100429142D01*
X134215142Y-100286285D01*
X134215142Y-100214857D01*
X134143714Y-100072000D01*
X134000857Y-100000571D01*
X133786571Y-100000571D01*
X133643714Y-99929142D01*
X133572285Y-99786285D01*
X133572285Y-99714857D01*
X133643714Y-99572000D01*
X133786571Y-99500571D01*
X134000857Y-99500571D01*
X134143714Y-99572000D01*
X135429428Y-100429142D02*
X135286571Y-100500571D01*
X135000857Y-100500571D01*
X134858000Y-100429142D01*
X134786571Y-100286285D01*
X134786571Y-99714857D01*
X134858000Y-99572000D01*
X135000857Y-99500571D01*
X135286571Y-99500571D01*
X135429428Y-99572000D01*
X135500857Y-99714857D01*
X135500857Y-99857714D01*
X134786571Y-100000571D01*
X135929428Y-99500571D02*
X136500857Y-99500571D01*
X136143714Y-99000571D02*
X136143714Y-100286285D01*
X136215142Y-100429142D01*
X136358000Y-100500571D01*
X136500857Y-100500571D01*
D12*
X132059800Y-165130000D02*
X150650000Y-165100000D01*
X132059800Y-170057600D02*
X132059800Y-165130000D01*
X150650000Y-170100000D02*
X132059800Y-170057600D01*
X150650000Y-165072400D02*
X150650000Y-170000000D01*
D10*
X134875000Y-169200171D02*
X134691666Y-169390647D01*
X134141666Y-169581123D01*
X133775000Y-169581123D01*
X133225000Y-169390647D01*
X132858333Y-169009695D01*
X132675000Y-168628742D01*
X132491666Y-167866838D01*
X132491666Y-167295409D01*
X132675000Y-166533504D01*
X132858333Y-166152552D01*
X133225000Y-165771600D01*
X133775000Y-165581123D01*
X134141666Y-165581123D01*
X134691666Y-165771600D01*
X134875000Y-165962076D01*
X137258333Y-165581123D02*
X137991666Y-165581123D01*
X138358333Y-165771600D01*
X138725000Y-166152552D01*
X138908333Y-166914457D01*
X138908333Y-168247790D01*
X138725000Y-169009695D01*
X138358333Y-169390647D01*
X137991666Y-169581123D01*
X137258333Y-169581123D01*
X136891666Y-169390647D01*
X136525000Y-169009695D01*
X136341666Y-168247790D01*
X136341666Y-166914457D01*
X136525000Y-166152552D01*
X136891666Y-165771600D01*
X137258333Y-165581123D01*
X140558333Y-165581123D02*
X140558333Y-168819219D01*
X140741666Y-169200171D01*
X140925000Y-169390647D01*
X141291666Y-169581123D01*
X142025000Y-169581123D01*
X142391666Y-169390647D01*
X142575000Y-169200171D01*
X142758333Y-168819219D01*
X142758333Y-165581123D01*
X144591666Y-169581123D02*
X144591666Y-165581123D01*
X146791666Y-169581123D01*
X146791666Y-165581123D01*
X148075000Y-165581123D02*
X150275000Y-165581123D01*
X149175000Y-169581123D02*
X149175000Y-165581123D01*
D13*
G04 #@! TO.C,R6*
X141124721Y-121918000D02*
X141450279Y-121918000D01*
X141124721Y-122938000D02*
X141450279Y-122938000D01*
G04 #@! TO.C,C2*
X146164721Y-119958000D02*
X146490279Y-119958000D01*
X146164721Y-118938000D02*
X146490279Y-118938000D01*
G04 #@! TO.C,C3*
X146289721Y-120928000D02*
X146615279Y-120928000D01*
X146289721Y-121948000D02*
X146615279Y-121948000D01*
G04 #@! TO.C,C4*
X137094279Y-107444000D02*
X136768721Y-107444000D01*
X137094279Y-106424000D02*
X136768721Y-106424000D01*
G04 #@! TO.C,C5*
X136717721Y-103634000D02*
X137043279Y-103634000D01*
X136717721Y-102614000D02*
X137043279Y-102614000D01*
G04 #@! TO.C,D2*
X132702500Y-123163000D02*
X134987500Y-123163000D01*
X134987500Y-123163000D02*
X134987500Y-121693000D01*
X134987500Y-121693000D02*
X132702500Y-121693000D01*
G04 #@! TO.C,J5*
X132528000Y-93666000D02*
X132528000Y-98866000D01*
X147828000Y-93666000D02*
X132528000Y-93666000D01*
X150428000Y-98866000D02*
X132528000Y-98866000D01*
X147828000Y-93666000D02*
X147828000Y-96266000D01*
X147828000Y-96266000D02*
X150428000Y-96266000D01*
X150428000Y-96266000D02*
X150428000Y-98866000D01*
X149098000Y-93666000D02*
X150428000Y-93666000D01*
X150428000Y-93666000D02*
X150428000Y-94996000D01*
G04 #@! TO.C,R2*
X133280279Y-107340000D02*
X132954721Y-107340000D01*
X133280279Y-106320000D02*
X132954721Y-106320000D01*
G04 #@! TO.C,R4*
X146079721Y-113918000D02*
X146405279Y-113918000D01*
X146079721Y-112898000D02*
X146405279Y-112898000D01*
G04 #@! TO.C,SW3*
X132462000Y-105724000D02*
X127722000Y-105724000D01*
X132462000Y-105724000D02*
X132462000Y-105324000D01*
X127722000Y-105724000D02*
X127722000Y-105324000D01*
X132462000Y-100984000D02*
X132462000Y-101384000D01*
X132462000Y-100984000D02*
X127722000Y-100984000D01*
X127722000Y-100984000D02*
X127722000Y-101384000D01*
X127722000Y-102324000D02*
X127722000Y-104384000D01*
X132462000Y-102324000D02*
X132462000Y-104384000D01*
G04 #@! TO.C,SW4*
X146678000Y-146872000D02*
X146678000Y-136592000D01*
X126118000Y-146872000D02*
X146678000Y-146872000D01*
X126118000Y-136592000D02*
X126118000Y-146872000D01*
X146678000Y-136592000D02*
X126118000Y-136592000D01*
X146618000Y-144382000D02*
X146618000Y-142732000D01*
X126178000Y-144382000D02*
X146618000Y-144382000D01*
X126178000Y-139082000D02*
X126178000Y-144382000D01*
X146618000Y-139082000D02*
X126178000Y-139082000D01*
X146618000Y-140732000D02*
X146618000Y-139082000D01*
X146618000Y-142732000D02*
G75*
G02X146618000Y-140732000I0J1000000D01*
G01*
G04 #@! TO.C,SW6*
X146570000Y-154110000D02*
G75*
G02X146570000Y-152110000I0J1000000D01*
G01*
X146570000Y-152110000D02*
X146570000Y-150460000D01*
X146570000Y-150460000D02*
X126130000Y-150460000D01*
X126130000Y-150460000D02*
X126130000Y-155760000D01*
X126130000Y-155760000D02*
X146570000Y-155760000D01*
X146570000Y-155760000D02*
X146570000Y-154110000D01*
X146630000Y-147970000D02*
X126070000Y-147970000D01*
X126070000Y-147970000D02*
X126070000Y-158250000D01*
X126070000Y-158250000D02*
X146630000Y-158250000D01*
X146630000Y-158250000D02*
X146630000Y-147970000D01*
D11*
G04 #@! TO.C,U1*
X134085000Y-118335000D02*
X134310000Y-118335000D01*
X134085000Y-111085000D02*
X134410000Y-111085000D01*
X141335000Y-111085000D02*
X141010000Y-111085000D01*
X141335000Y-118335000D02*
X141010000Y-118335000D01*
X134085000Y-118335000D02*
X134085000Y-118010000D01*
X141335000Y-118335000D02*
X141335000Y-118010000D01*
X141335000Y-111085000D02*
X141335000Y-111410000D01*
X134085000Y-111085000D02*
X134085000Y-111410000D01*
X134310000Y-118335000D02*
X134310000Y-119760000D01*
D13*
G04 #@! TO.C,Y1*
X154950000Y-123688000D02*
X154950000Y-111088000D01*
X154950000Y-111088000D02*
X149850000Y-111088000D01*
X149850000Y-111088000D02*
X149850000Y-123688000D01*
G04 #@! TO.C,C1*
X146505279Y-117008000D02*
X146179721Y-117008000D01*
X146505279Y-118028000D02*
X146179721Y-118028000D01*
G04 #@! TO.C,R5*
X137239721Y-122962000D02*
X137565279Y-122962000D01*
X137239721Y-121942000D02*
X137565279Y-121942000D01*
G04 #@! TO.C,R7*
X146304721Y-122958000D02*
X146630279Y-122958000D01*
X146304721Y-123978000D02*
X146630279Y-123978000D01*
G04 #@! TO.C,R6*
D11*
X140978333Y-124440380D02*
X140645000Y-123964190D01*
X140406904Y-124440380D02*
X140406904Y-123440380D01*
X140787857Y-123440380D01*
X140883095Y-123488000D01*
X140930714Y-123535619D01*
X140978333Y-123630857D01*
X140978333Y-123773714D01*
X140930714Y-123868952D01*
X140883095Y-123916571D01*
X140787857Y-123964190D01*
X140406904Y-123964190D01*
X141835476Y-123440380D02*
X141645000Y-123440380D01*
X141549761Y-123488000D01*
X141502142Y-123535619D01*
X141406904Y-123678476D01*
X141359285Y-123868952D01*
X141359285Y-124249904D01*
X141406904Y-124345142D01*
X141454523Y-124392761D01*
X141549761Y-124440380D01*
X141740238Y-124440380D01*
X141835476Y-124392761D01*
X141883095Y-124345142D01*
X141930714Y-124249904D01*
X141930714Y-124011809D01*
X141883095Y-123916571D01*
X141835476Y-123868952D01*
X141740238Y-123821333D01*
X141549761Y-123821333D01*
X141454523Y-123868952D01*
X141406904Y-123916571D01*
X141359285Y-124011809D01*
G04 #@! TO.C,C2*
X148663333Y-119915142D02*
X148615714Y-119962761D01*
X148472857Y-120010380D01*
X148377619Y-120010380D01*
X148234761Y-119962761D01*
X148139523Y-119867523D01*
X148091904Y-119772285D01*
X148044285Y-119581809D01*
X148044285Y-119438952D01*
X148091904Y-119248476D01*
X148139523Y-119153238D01*
X148234761Y-119058000D01*
X148377619Y-119010380D01*
X148472857Y-119010380D01*
X148615714Y-119058000D01*
X148663333Y-119105619D01*
X149044285Y-119105619D02*
X149091904Y-119058000D01*
X149187142Y-119010380D01*
X149425238Y-119010380D01*
X149520476Y-119058000D01*
X149568095Y-119105619D01*
X149615714Y-119200857D01*
X149615714Y-119296095D01*
X149568095Y-119438952D01*
X148996666Y-120010380D01*
X149615714Y-120010380D01*
G04 #@! TO.C,C3*
X148813333Y-121935142D02*
X148765714Y-121982761D01*
X148622857Y-122030380D01*
X148527619Y-122030380D01*
X148384761Y-121982761D01*
X148289523Y-121887523D01*
X148241904Y-121792285D01*
X148194285Y-121601809D01*
X148194285Y-121458952D01*
X148241904Y-121268476D01*
X148289523Y-121173238D01*
X148384761Y-121078000D01*
X148527619Y-121030380D01*
X148622857Y-121030380D01*
X148765714Y-121078000D01*
X148813333Y-121125619D01*
X149146666Y-121030380D02*
X149765714Y-121030380D01*
X149432380Y-121411333D01*
X149575238Y-121411333D01*
X149670476Y-121458952D01*
X149718095Y-121506571D01*
X149765714Y-121601809D01*
X149765714Y-121839904D01*
X149718095Y-121935142D01*
X149670476Y-121982761D01*
X149575238Y-122030380D01*
X149289523Y-122030380D01*
X149194285Y-121982761D01*
X149146666Y-121935142D01*
G04 #@! TO.C,C4*
X136993333Y-108815142D02*
X136945714Y-108862761D01*
X136802857Y-108910380D01*
X136707619Y-108910380D01*
X136564761Y-108862761D01*
X136469523Y-108767523D01*
X136421904Y-108672285D01*
X136374285Y-108481809D01*
X136374285Y-108338952D01*
X136421904Y-108148476D01*
X136469523Y-108053238D01*
X136564761Y-107958000D01*
X136707619Y-107910380D01*
X136802857Y-107910380D01*
X136945714Y-107958000D01*
X136993333Y-108005619D01*
X137850476Y-108243714D02*
X137850476Y-108910380D01*
X137612380Y-107862761D02*
X137374285Y-108577047D01*
X137993333Y-108577047D01*
G04 #@! TO.C,C5*
X136663833Y-105259142D02*
X136616214Y-105306761D01*
X136473357Y-105354380D01*
X136378119Y-105354380D01*
X136235261Y-105306761D01*
X136140023Y-105211523D01*
X136092404Y-105116285D01*
X136044785Y-104925809D01*
X136044785Y-104782952D01*
X136092404Y-104592476D01*
X136140023Y-104497238D01*
X136235261Y-104402000D01*
X136378119Y-104354380D01*
X136473357Y-104354380D01*
X136616214Y-104402000D01*
X136663833Y-104449619D01*
X137568595Y-104354380D02*
X137092404Y-104354380D01*
X137044785Y-104830571D01*
X137092404Y-104782952D01*
X137187642Y-104735333D01*
X137425738Y-104735333D01*
X137520976Y-104782952D01*
X137568595Y-104830571D01*
X137616214Y-104925809D01*
X137616214Y-105163904D01*
X137568595Y-105259142D01*
X137520976Y-105306761D01*
X137425738Y-105354380D01*
X137187642Y-105354380D01*
X137092404Y-105306761D01*
X137044785Y-105259142D01*
G04 #@! TO.C,D2*
X132764404Y-124310380D02*
X132764404Y-123310380D01*
X133002500Y-123310380D01*
X133145357Y-123358000D01*
X133240595Y-123453238D01*
X133288214Y-123548476D01*
X133335833Y-123738952D01*
X133335833Y-123881809D01*
X133288214Y-124072285D01*
X133240595Y-124167523D01*
X133145357Y-124262761D01*
X133002500Y-124310380D01*
X132764404Y-124310380D01*
X133716785Y-123405619D02*
X133764404Y-123358000D01*
X133859642Y-123310380D01*
X134097738Y-123310380D01*
X134192976Y-123358000D01*
X134240595Y-123405619D01*
X134288214Y-123500857D01*
X134288214Y-123596095D01*
X134240595Y-123738952D01*
X133669166Y-124310380D01*
X134288214Y-124310380D01*
G04 #@! TO.C,H1*
X154178095Y-166314380D02*
X154178095Y-165314380D01*
X154178095Y-165790571D02*
X154749523Y-165790571D01*
X154749523Y-166314380D02*
X154749523Y-165314380D01*
X155749523Y-166314380D02*
X155178095Y-166314380D01*
X155463809Y-166314380D02*
X155463809Y-165314380D01*
X155368571Y-165457238D01*
X155273333Y-165552476D01*
X155178095Y-165600095D01*
G04 #@! TO.C,H2*
X127254095Y-167330380D02*
X127254095Y-166330380D01*
X127254095Y-166806571D02*
X127825523Y-166806571D01*
X127825523Y-167330380D02*
X127825523Y-166330380D01*
X128254095Y-166425619D02*
X128301714Y-166378000D01*
X128396952Y-166330380D01*
X128635047Y-166330380D01*
X128730285Y-166378000D01*
X128777904Y-166425619D01*
X128825523Y-166520857D01*
X128825523Y-166616095D01*
X128777904Y-166758952D01*
X128206476Y-167330380D01*
X128825523Y-167330380D01*
G04 #@! TO.C,H3*
X153924095Y-98242380D02*
X153924095Y-97242380D01*
X153924095Y-97718571D02*
X154495523Y-97718571D01*
X154495523Y-98242380D02*
X154495523Y-97242380D01*
X154876476Y-97242380D02*
X155495523Y-97242380D01*
X155162190Y-97623333D01*
X155305047Y-97623333D01*
X155400285Y-97670952D01*
X155447904Y-97718571D01*
X155495523Y-97813809D01*
X155495523Y-98051904D01*
X155447904Y-98147142D01*
X155400285Y-98194761D01*
X155305047Y-98242380D01*
X155019333Y-98242380D01*
X154924095Y-98194761D01*
X154876476Y-98147142D01*
G04 #@! TO.C,H4*
X127254095Y-97226380D02*
X127254095Y-96226380D01*
X127254095Y-96702571D02*
X127825523Y-96702571D01*
X127825523Y-97226380D02*
X127825523Y-96226380D01*
X128730285Y-96559714D02*
X128730285Y-97226380D01*
X128492190Y-96178761D02*
X128254095Y-96893047D01*
X128873142Y-96893047D01*
G04 #@! TO.C,J5*
X150880380Y-96599333D02*
X151594666Y-96599333D01*
X151737523Y-96646952D01*
X151832761Y-96742190D01*
X151880380Y-96885047D01*
X151880380Y-96980285D01*
X150880380Y-95646952D02*
X150880380Y-96123142D01*
X151356571Y-96170761D01*
X151308952Y-96123142D01*
X151261333Y-96027904D01*
X151261333Y-95789809D01*
X151308952Y-95694571D01*
X151356571Y-95646952D01*
X151451809Y-95599333D01*
X151689904Y-95599333D01*
X151785142Y-95646952D01*
X151832761Y-95694571D01*
X151880380Y-95789809D01*
X151880380Y-96027904D01*
X151832761Y-96123142D01*
X151785142Y-96170761D01*
G04 #@! TO.C,R2*
X132950833Y-108712380D02*
X132617500Y-108236190D01*
X132379404Y-108712380D02*
X132379404Y-107712380D01*
X132760357Y-107712380D01*
X132855595Y-107760000D01*
X132903214Y-107807619D01*
X132950833Y-107902857D01*
X132950833Y-108045714D01*
X132903214Y-108140952D01*
X132855595Y-108188571D01*
X132760357Y-108236190D01*
X132379404Y-108236190D01*
X133331785Y-107807619D02*
X133379404Y-107760000D01*
X133474642Y-107712380D01*
X133712738Y-107712380D01*
X133807976Y-107760000D01*
X133855595Y-107807619D01*
X133903214Y-107902857D01*
X133903214Y-107998095D01*
X133855595Y-108140952D01*
X133284166Y-108712380D01*
X133903214Y-108712380D01*
G04 #@! TO.C,R4*
X148573333Y-113940380D02*
X148240000Y-113464190D01*
X148001904Y-113940380D02*
X148001904Y-112940380D01*
X148382857Y-112940380D01*
X148478095Y-112988000D01*
X148525714Y-113035619D01*
X148573333Y-113130857D01*
X148573333Y-113273714D01*
X148525714Y-113368952D01*
X148478095Y-113416571D01*
X148382857Y-113464190D01*
X148001904Y-113464190D01*
X149430476Y-113273714D02*
X149430476Y-113940380D01*
X149192380Y-112892761D02*
X148954285Y-113607047D01*
X149573333Y-113607047D01*
G04 #@! TO.C,SW3*
X130430761Y-104817333D02*
X130478380Y-104674476D01*
X130478380Y-104436380D01*
X130430761Y-104341142D01*
X130383142Y-104293523D01*
X130287904Y-104245904D01*
X130192666Y-104245904D01*
X130097428Y-104293523D01*
X130049809Y-104341142D01*
X130002190Y-104436380D01*
X129954571Y-104626857D01*
X129906952Y-104722095D01*
X129859333Y-104769714D01*
X129764095Y-104817333D01*
X129668857Y-104817333D01*
X129573619Y-104769714D01*
X129526000Y-104722095D01*
X129478380Y-104626857D01*
X129478380Y-104388761D01*
X129526000Y-104245904D01*
X129478380Y-103912571D02*
X130478380Y-103674476D01*
X129764095Y-103484000D01*
X130478380Y-103293523D01*
X129478380Y-103055428D01*
X129478380Y-102769714D02*
X129478380Y-102150666D01*
X129859333Y-102484000D01*
X129859333Y-102341142D01*
X129906952Y-102245904D01*
X129954571Y-102198285D01*
X130049809Y-102150666D01*
X130287904Y-102150666D01*
X130383142Y-102198285D01*
X130430761Y-102245904D01*
X130478380Y-102341142D01*
X130478380Y-102626857D01*
X130430761Y-102722095D01*
X130383142Y-102769714D01*
G04 #@! TO.C,SW4*
X130492666Y-142898761D02*
X130635523Y-142946380D01*
X130873619Y-142946380D01*
X130968857Y-142898761D01*
X131016476Y-142851142D01*
X131064095Y-142755904D01*
X131064095Y-142660666D01*
X131016476Y-142565428D01*
X130968857Y-142517809D01*
X130873619Y-142470190D01*
X130683142Y-142422571D01*
X130587904Y-142374952D01*
X130540285Y-142327333D01*
X130492666Y-142232095D01*
X130492666Y-142136857D01*
X130540285Y-142041619D01*
X130587904Y-141994000D01*
X130683142Y-141946380D01*
X130921238Y-141946380D01*
X131064095Y-141994000D01*
X131397428Y-141946380D02*
X131635523Y-142946380D01*
X131826000Y-142232095D01*
X132016476Y-142946380D01*
X132254571Y-141946380D01*
X133064095Y-142279714D02*
X133064095Y-142946380D01*
X132826000Y-141898761D02*
X132587904Y-142613047D01*
X133206952Y-142613047D01*
G04 #@! TO.C,SW6*
X139080666Y-153768761D02*
X139223523Y-153816380D01*
X139461619Y-153816380D01*
X139556857Y-153768761D01*
X139604476Y-153721142D01*
X139652095Y-153625904D01*
X139652095Y-153530666D01*
X139604476Y-153435428D01*
X139556857Y-153387809D01*
X139461619Y-153340190D01*
X139271142Y-153292571D01*
X139175904Y-153244952D01*
X139128285Y-153197333D01*
X139080666Y-153102095D01*
X139080666Y-153006857D01*
X139128285Y-152911619D01*
X139175904Y-152864000D01*
X139271142Y-152816380D01*
X139509238Y-152816380D01*
X139652095Y-152864000D01*
X139985428Y-152816380D02*
X140223523Y-153816380D01*
X140414000Y-153102095D01*
X140604476Y-153816380D01*
X140842571Y-152816380D01*
X141652095Y-152816380D02*
X141461619Y-152816380D01*
X141366380Y-152864000D01*
X141318761Y-152911619D01*
X141223523Y-153054476D01*
X141175904Y-153244952D01*
X141175904Y-153625904D01*
X141223523Y-153721142D01*
X141271142Y-153768761D01*
X141366380Y-153816380D01*
X141556857Y-153816380D01*
X141652095Y-153768761D01*
X141699714Y-153721142D01*
X141747333Y-153625904D01*
X141747333Y-153387809D01*
X141699714Y-153292571D01*
X141652095Y-153244952D01*
X141556857Y-153197333D01*
X141366380Y-153197333D01*
X141271142Y-153244952D01*
X141223523Y-153292571D01*
X141175904Y-153387809D01*
G04 #@! TO.C,U1*
X136652095Y-114260380D02*
X136652095Y-115069904D01*
X136699714Y-115165142D01*
X136747333Y-115212761D01*
X136842571Y-115260380D01*
X137033047Y-115260380D01*
X137128285Y-115212761D01*
X137175904Y-115165142D01*
X137223523Y-115069904D01*
X137223523Y-114260380D01*
X138223523Y-115260380D02*
X137652095Y-115260380D01*
X137937809Y-115260380D02*
X137937809Y-114260380D01*
X137842571Y-114403238D01*
X137747333Y-114498476D01*
X137652095Y-114546095D01*
G04 #@! TO.C,Y1*
X152083809Y-117634190D02*
X152083809Y-118110380D01*
X151750476Y-117110380D02*
X152083809Y-117634190D01*
X152417142Y-117110380D01*
X153274285Y-118110380D02*
X152702857Y-118110380D01*
X152988571Y-118110380D02*
X152988571Y-117110380D01*
X152893333Y-117253238D01*
X152798095Y-117348476D01*
X152702857Y-117396095D01*
G04 #@! TO.C,C1*
X148663333Y-117895142D02*
X148615714Y-117942761D01*
X148472857Y-117990380D01*
X148377619Y-117990380D01*
X148234761Y-117942761D01*
X148139523Y-117847523D01*
X148091904Y-117752285D01*
X148044285Y-117561809D01*
X148044285Y-117418952D01*
X148091904Y-117228476D01*
X148139523Y-117133238D01*
X148234761Y-117038000D01*
X148377619Y-116990380D01*
X148472857Y-116990380D01*
X148615714Y-117038000D01*
X148663333Y-117085619D01*
X149615714Y-117990380D02*
X149044285Y-117990380D01*
X149330000Y-117990380D02*
X149330000Y-116990380D01*
X149234761Y-117133238D01*
X149139523Y-117228476D01*
X149044285Y-117276095D01*
G04 #@! TO.C,J1*
X124674380Y-121745333D02*
X125388666Y-121745333D01*
X125531523Y-121792952D01*
X125626761Y-121888190D01*
X125674380Y-122031047D01*
X125674380Y-122126285D01*
X125674380Y-120745333D02*
X125674380Y-121316761D01*
X125674380Y-121031047D02*
X124674380Y-121031047D01*
X124817238Y-121126285D01*
X124912476Y-121221523D01*
X124960095Y-121316761D01*
G04 #@! TO.C,J3*
X129754380Y-109807333D02*
X130468666Y-109807333D01*
X130611523Y-109854952D01*
X130706761Y-109950190D01*
X130754380Y-110093047D01*
X130754380Y-110188285D01*
X129754380Y-109426380D02*
X129754380Y-108807333D01*
X130135333Y-109140666D01*
X130135333Y-108997809D01*
X130182952Y-108902571D01*
X130230571Y-108854952D01*
X130325809Y-108807333D01*
X130563904Y-108807333D01*
X130659142Y-108854952D01*
X130706761Y-108902571D01*
X130754380Y-108997809D01*
X130754380Y-109283523D01*
X130706761Y-109378761D01*
X130659142Y-109426380D01*
G04 #@! TO.C,R5*
X137063333Y-124474380D02*
X136730000Y-123998190D01*
X136491904Y-124474380D02*
X136491904Y-123474380D01*
X136872857Y-123474380D01*
X136968095Y-123522000D01*
X137015714Y-123569619D01*
X137063333Y-123664857D01*
X137063333Y-123807714D01*
X137015714Y-123902952D01*
X136968095Y-123950571D01*
X136872857Y-123998190D01*
X136491904Y-123998190D01*
X137968095Y-123474380D02*
X137491904Y-123474380D01*
X137444285Y-123950571D01*
X137491904Y-123902952D01*
X137587142Y-123855333D01*
X137825238Y-123855333D01*
X137920476Y-123902952D01*
X137968095Y-123950571D01*
X138015714Y-124045809D01*
X138015714Y-124283904D01*
X137968095Y-124379142D01*
X137920476Y-124426761D01*
X137825238Y-124474380D01*
X137587142Y-124474380D01*
X137491904Y-124426761D01*
X137444285Y-124379142D01*
G04 #@! TO.C,R7*
X148763333Y-124060380D02*
X148430000Y-123584190D01*
X148191904Y-124060380D02*
X148191904Y-123060380D01*
X148572857Y-123060380D01*
X148668095Y-123108000D01*
X148715714Y-123155619D01*
X148763333Y-123250857D01*
X148763333Y-123393714D01*
X148715714Y-123488952D01*
X148668095Y-123536571D01*
X148572857Y-123584190D01*
X148191904Y-123584190D01*
X149096666Y-123060380D02*
X149763333Y-123060380D01*
X149334761Y-124060380D01*
G04 #@! TD*
M02*
