M48
;DRILL file {KiCad 5.0.0-fee4fd1~66~ubuntu14.04.1} date Mon Oct 15 15:43:52 2018
;FORMAT={-:-/ absolute / metric / decimal}
FMAT,2
METRIC,TZ
T1C0.762
T2C0.800
T3C1.000
T4C1.100
T5C2.200
%
G90
G05
M71
T1
X137.566Y-96.164
X140.106Y-96.164
X140.106Y-106.324
X142.646Y-106.324
X145.186Y-96.164
X145.186Y-106.324
X147.726Y-96.164
X147.726Y-106.324
X150.266Y-106.324
X152.806Y-106.324
X155.346Y-96.164
X155.346Y-106.324
T2
X126.086Y-74.574
X126.086Y-82.074
X129.896Y-74.567
X129.896Y-82.067
X126.492Y-99.822
X128.992Y-99.822
X125.933Y-85.446
X125.933Y-93.066
X128.473Y-85.446
X128.473Y-93.066
X131.013Y-85.446
X131.013Y-93.066
X133.553Y-85.446
X133.553Y-93.066
X136.093Y-85.446
X136.093Y-93.066
X138.633Y-85.446
X138.633Y-93.066
X141.173Y-85.446
X141.173Y-93.066
X143.713Y-85.446
X143.713Y-93.066
X146.253Y-85.446
X146.253Y-93.066
X148.793Y-85.446
X148.793Y-93.066
X151.333Y-85.446
X151.333Y-93.066
X153.873Y-85.446
X153.873Y-93.066
X156.413Y-85.446
X156.413Y-93.066
X158.953Y-85.446
X158.953Y-93.066
X133.401Y-71.933
X133.401Y-82.093
X147.599Y-73.749
X147.599Y-76.249
X152.387Y-76.098
X157.287Y-76.098
X147.599Y-78.791
X147.599Y-81.291
T3
X159.004Y-81.305
X136.677Y-81.89
X151.536Y-81.293
X159.385Y-111.049
X159.385Y-113.589
X159.385Y-116.129
X155.296Y-81.305
X131.013Y-108.864
X131.013Y-111.404
X131.013Y-113.944
X131.013Y-116.484
X131.013Y-119.024
X131.013Y-121.564
X126.365Y-111.074
X126.365Y-113.614
X126.365Y-116.154
T4
X135.458Y-110.338
X135.458Y-114.838
X141.958Y-110.338
X141.958Y-114.838
X139.954Y-75.136
X139.954Y-81.636
X144.454Y-75.136
X144.454Y-81.636
T5
X126.441Y-121.183
X126.721Y-68.097
X158.852Y-68.25
X159.309Y-121.133
T0
M30
