G04 #@! TF.GenerationSoftware,KiCad,Pcbnew,5.0.0-fee4fd1~66~ubuntu14.04.1*
G04 #@! TF.CreationDate,2018-10-15T15:43:49-07:00*
G04 #@! TF.ProjectId,count,636F756E742E6B696361645F70636200,rev?*
G04 #@! TF.SameCoordinates,Original*
G04 #@! TF.FileFunction,Copper,L2,Bot,Signal*
G04 #@! TF.FilePolarity,Positive*
%FSLAX46Y46*%
G04 Gerber Fmt 4.6, Leading zero omitted, Abs format (unit mm)*
G04 Created by KiCad (PCBNEW 5.0.0-fee4fd1~66~ubuntu14.04.1) date Mon Oct 15 15:43:49 2018*
%MOMM*%
%LPD*%
G01*
G04 APERTURE LIST*
G04 #@! TA.AperFunction,ComponentPad*
%ADD10R,1.600000X1.600000*%
G04 #@! TD*
G04 #@! TA.AperFunction,ComponentPad*
%ADD11O,1.600000X1.600000*%
G04 #@! TD*
G04 #@! TA.AperFunction,ComponentPad*
%ADD12C,1.524000*%
G04 #@! TD*
G04 #@! TA.AperFunction,ComponentPad*
%ADD13R,1.700000X1.700000*%
G04 #@! TD*
G04 #@! TA.AperFunction,ComponentPad*
%ADD14O,1.700000X1.700000*%
G04 #@! TD*
G04 #@! TA.AperFunction,ComponentPad*
%ADD15C,1.600000*%
G04 #@! TD*
G04 #@! TA.AperFunction,ComponentPad*
%ADD16C,2.000000*%
G04 #@! TD*
G04 #@! TA.AperFunction,ComponentPad*
%ADD17C,1.500000*%
G04 #@! TD*
G04 #@! TA.AperFunction,Conductor*
%ADD18C,1.000000*%
G04 #@! TD*
G04 #@! TA.AperFunction,Conductor*
%ADD19C,0.250000*%
G04 #@! TD*
G04 #@! TA.AperFunction,Conductor*
%ADD20C,2.000000*%
G04 #@! TD*
G04 APERTURE END LIST*
D10*
G04 #@! TO.P,U1,1*
G04 #@! TO.N,RESET*
X125933200Y-93065600D03*
D11*
G04 #@! TO.P,U1,15*
G04 #@! TO.N,d9*
X158953200Y-85445600D03*
G04 #@! TO.P,U1,2*
G04 #@! TO.N,RX*
X128473200Y-93065600D03*
G04 #@! TO.P,U1,16*
G04 #@! TO.N,d10*
X156413200Y-85445600D03*
G04 #@! TO.P,U1,3*
G04 #@! TO.N,TX*
X131013200Y-93065600D03*
G04 #@! TO.P,U1,17*
G04 #@! TO.N,d11*
X153873200Y-85445600D03*
G04 #@! TO.P,U1,4*
G04 #@! TO.N,d2*
X133553200Y-93065600D03*
G04 #@! TO.P,U1,18*
G04 #@! TO.N,d12*
X151333200Y-85445600D03*
G04 #@! TO.P,U1,5*
G04 #@! TO.N,d3*
X136093200Y-93065600D03*
G04 #@! TO.P,U1,19*
G04 #@! TO.N,d13*
X148793200Y-85445600D03*
G04 #@! TO.P,U1,6*
G04 #@! TO.N,d4*
X138633200Y-93065600D03*
G04 #@! TO.P,U1,20*
G04 #@! TO.N,VCC*
X146253200Y-85445600D03*
G04 #@! TO.P,U1,7*
X141173200Y-93065600D03*
G04 #@! TO.P,U1,21*
G04 #@! TO.N,AREF*
X143713200Y-85445600D03*
G04 #@! TO.P,U1,8*
G04 #@! TO.N,GND*
X143713200Y-93065600D03*
G04 #@! TO.P,U1,22*
X141173200Y-85445600D03*
G04 #@! TO.P,U1,9*
G04 #@! TO.N,XTAL1*
X146253200Y-93065600D03*
G04 #@! TO.P,U1,23*
G04 #@! TO.N,a0*
X138633200Y-85445600D03*
G04 #@! TO.P,U1,10*
G04 #@! TO.N,XTAL2*
X148793200Y-93065600D03*
G04 #@! TO.P,U1,24*
G04 #@! TO.N,a1*
X136093200Y-85445600D03*
G04 #@! TO.P,U1,11*
G04 #@! TO.N,d5*
X151333200Y-93065600D03*
G04 #@! TO.P,U1,25*
G04 #@! TO.N,a2*
X133553200Y-85445600D03*
G04 #@! TO.P,U1,12*
G04 #@! TO.N,d6*
X153873200Y-93065600D03*
G04 #@! TO.P,U1,26*
G04 #@! TO.N,a3*
X131013200Y-85445600D03*
G04 #@! TO.P,U1,13*
G04 #@! TO.N,d7*
X156413200Y-93065600D03*
G04 #@! TO.P,U1,27*
G04 #@! TO.N,a4*
X128473200Y-85445600D03*
G04 #@! TO.P,U1,14*
G04 #@! TO.N,d8*
X158953200Y-93065600D03*
G04 #@! TO.P,U1,28*
G04 #@! TO.N,a5*
X125933200Y-85445600D03*
G04 #@! TD*
D12*
G04 #@! TO.P,U2,1*
G04 #@! TO.N,d13*
X140106400Y-106324400D03*
G04 #@! TO.P,U2,2*
G04 #@! TO.N,d2*
X142646400Y-106324400D03*
G04 #@! TO.P,U2,3*
G04 #@! TO.N,d3*
X145186400Y-106324400D03*
G04 #@! TO.P,U2,4*
G04 #@! TO.N,d4*
X147726400Y-106324400D03*
G04 #@! TO.P,U2,5*
G04 #@! TO.N,a4*
X150266400Y-106324400D03*
G04 #@! TO.P,U2,6*
G04 #@! TO.N,d5*
X152806400Y-106324400D03*
G04 #@! TO.P,U2,7*
G04 #@! TO.N,a5*
X155346400Y-106324400D03*
G04 #@! TO.P,U2,8*
G04 #@! TO.N,d6*
X155346400Y-96164400D03*
G04 #@! TO.P,U2,11*
G04 #@! TO.N,d7*
X147726400Y-96164400D03*
G04 #@! TO.P,U2,12*
G04 #@! TO.N,d8*
X145186400Y-96164400D03*
G04 #@! TO.P,U2,14*
G04 #@! TO.N,N/C*
X140106400Y-96164400D03*
G04 #@! TO.P,U2,15*
G04 #@! TO.N,d12*
X137566400Y-96164400D03*
G04 #@! TD*
D13*
G04 #@! TO.P,J3,1*
G04 #@! TO.N,GND*
X131013200Y-121564400D03*
D14*
G04 #@! TO.P,J3,2*
X131013200Y-119024400D03*
G04 #@! TO.P,J3,3*
G04 #@! TO.N,VCC*
X131013200Y-116484400D03*
G04 #@! TO.P,J3,4*
G04 #@! TO.N,RX*
X131013200Y-113944400D03*
G04 #@! TO.P,J3,5*
G04 #@! TO.N,TX*
X131013200Y-111404400D03*
G04 #@! TO.P,J3,6*
G04 #@! TO.N,DTR*
X131013200Y-108864400D03*
G04 #@! TD*
D10*
G04 #@! TO.P,C1,1*
G04 #@! TO.N,VCC*
X126492000Y-99822000D03*
D15*
G04 #@! TO.P,C1,2*
G04 #@! TO.N,GND*
X128992000Y-99822000D03*
G04 #@! TD*
G04 #@! TO.P,C2,2*
G04 #@! TO.N,XTAL1*
X147599400Y-81290800D03*
G04 #@! TO.P,C2,1*
G04 #@! TO.N,GND*
X147599400Y-78790800D03*
G04 #@! TD*
G04 #@! TO.P,C3,1*
G04 #@! TO.N,GND*
X147599400Y-76248900D03*
G04 #@! TO.P,C3,2*
G04 #@! TO.N,XTAL2*
X147599400Y-73748900D03*
G04 #@! TD*
D11*
G04 #@! TO.P,C4,2*
G04 #@! TO.N,GND*
X129895600Y-74567400D03*
D15*
G04 #@! TO.P,C4,1*
G04 #@! TO.N,AREF*
X129895600Y-82067400D03*
G04 #@! TD*
G04 #@! TO.P,C5,1*
G04 #@! TO.N,RESET*
X126085600Y-74574400D03*
D11*
G04 #@! TO.P,C5,2*
G04 #@! TO.N,DTR*
X126085600Y-82074400D03*
G04 #@! TD*
D14*
G04 #@! TO.P,J1,3*
G04 #@! TO.N,VCC*
X126365000Y-116154200D03*
G04 #@! TO.P,J1,2*
G04 #@! TO.N,GND*
X126365000Y-113614200D03*
D13*
G04 #@! TO.P,J1,1*
G04 #@! TO.N,a0*
X126365000Y-111074200D03*
G04 #@! TD*
G04 #@! TO.P,J2,1*
G04 #@! TO.N,a1*
X159385000Y-111048800D03*
D14*
G04 #@! TO.P,J2,2*
G04 #@! TO.N,GND*
X159385000Y-113588800D03*
G04 #@! TO.P,J2,3*
G04 #@! TO.N,VCC*
X159385000Y-116128800D03*
G04 #@! TD*
D11*
G04 #@! TO.P,R2,2*
G04 #@! TO.N,RESET*
X133400800Y-71932800D03*
D15*
G04 #@! TO.P,R2,1*
G04 #@! TO.N,VCC*
X133400800Y-82092800D03*
G04 #@! TD*
D16*
G04 #@! TO.P,SW3,3*
G04 #@! TO.N,Net-(SW3-Pad3)*
X139954000Y-75135600D03*
G04 #@! TO.P,SW3,4*
X144454000Y-75135600D03*
G04 #@! TO.P,SW3,1*
G04 #@! TO.N,GND*
X139954000Y-81635600D03*
G04 #@! TO.P,SW3,2*
G04 #@! TO.N,RESET*
X144454000Y-81635600D03*
G04 #@! TD*
D17*
G04 #@! TO.P,Y1,1*
G04 #@! TO.N,XTAL1*
X152387300Y-76098400D03*
G04 #@! TO.P,Y1,2*
G04 #@! TO.N,XTAL2*
X157287300Y-76098400D03*
G04 #@! TD*
D13*
G04 #@! TO.P,J4,1*
G04 #@! TO.N,d9*
X159004000Y-81305400D03*
G04 #@! TD*
G04 #@! TO.P,J5,1*
G04 #@! TO.N,d10*
X155295600Y-81305400D03*
G04 #@! TD*
G04 #@! TO.P,J6,1*
G04 #@! TO.N,d11*
X151536400Y-81292700D03*
G04 #@! TD*
G04 #@! TO.P,J7,1*
G04 #@! TO.N,a2*
X136677400Y-81889600D03*
G04 #@! TD*
D16*
G04 #@! TO.P,SW1,3*
G04 #@! TO.N,Net-(SW1-Pad3)*
X141958200Y-110337600D03*
G04 #@! TO.P,SW1,4*
X141958200Y-114837600D03*
G04 #@! TO.P,SW1,1*
G04 #@! TO.N,a3*
X135458200Y-110337600D03*
G04 #@! TO.P,SW1,2*
G04 #@! TO.N,GND*
X135458200Y-114837600D03*
G04 #@! TD*
D18*
G04 #@! TO.N,VCC*
X145453201Y-86245599D02*
X146253200Y-85445600D01*
X141173200Y-93065600D02*
X141173200Y-90525600D01*
X141173200Y-90525600D02*
X145453201Y-86245599D01*
D19*
X134587411Y-83279411D02*
X134200799Y-82892799D01*
X134200799Y-82892799D02*
X133400800Y-82092800D01*
X138984401Y-83410612D02*
X134718612Y-83410612D01*
X146253200Y-85445600D02*
X144442611Y-83635011D01*
X139208800Y-83635011D02*
X138984401Y-83410612D01*
X144442611Y-83635011D02*
X139208800Y-83635011D01*
X134718612Y-83410612D02*
X134200799Y-82892799D01*
D18*
X148488400Y-83210400D02*
X146253200Y-85445600D01*
X159156400Y-83210400D02*
X148488400Y-83210400D01*
X126492000Y-101622000D02*
X128117600Y-103247600D01*
X126492000Y-99822000D02*
X126492000Y-101622000D01*
X128117600Y-114630200D02*
X126085600Y-116662200D01*
X128117600Y-103247600D02*
X128117600Y-114630200D01*
D20*
X130835400Y-116662200D02*
X131013200Y-116484400D01*
D18*
X161138201Y-85192201D02*
X159588200Y-83642200D01*
X161138201Y-114578799D02*
X161138201Y-85192201D01*
X159588200Y-116128800D02*
X161138201Y-114578799D01*
X159588200Y-83642200D02*
X159156400Y-83210400D01*
X160903212Y-84957212D02*
X159588200Y-83642200D01*
D20*
X130733800Y-116205000D02*
X131013200Y-116484400D01*
X126365000Y-116205000D02*
X130733800Y-116205000D01*
X155270200Y-117856000D02*
X156997400Y-116128800D01*
X156997400Y-116128800D02*
X159588200Y-116128800D01*
X132878802Y-117856000D02*
X155270200Y-117856000D01*
X131997201Y-116974399D02*
X132878802Y-117856000D01*
X131503199Y-116974399D02*
X131997201Y-116974399D01*
X131013200Y-116484400D02*
X131503199Y-116974399D01*
D19*
G04 #@! TO.N,AREF*
X131368800Y-83540600D02*
X129895600Y-82067400D01*
X131546600Y-83718400D02*
X131368800Y-83540600D01*
X131688823Y-83860623D02*
X131368800Y-83540600D01*
X139022400Y-84085022D02*
X138798001Y-83860623D01*
X138798001Y-83860623D02*
X131688823Y-83860623D01*
X142352622Y-84085022D02*
X139022400Y-84085022D01*
X143713200Y-85445600D02*
X142352622Y-84085022D01*
G04 #@! TO.N,RESET*
X128727200Y-71932800D02*
X126085600Y-74574400D01*
X133400800Y-71932800D02*
X128727200Y-71932800D01*
X134751200Y-71932800D02*
X133400800Y-71932800D01*
X144454000Y-81635600D02*
X134751200Y-71932800D01*
G04 #@! TO.N,a0*
X137498234Y-84310634D02*
X138633200Y-85445600D01*
X124637800Y-85075998D02*
X125403164Y-84310634D01*
X124637800Y-109034400D02*
X124637800Y-85075998D01*
X125403164Y-84310634D02*
X137498234Y-84310634D01*
X126085600Y-110482200D02*
X124637800Y-109034400D01*
X126085600Y-111582200D02*
X126085600Y-110482200D01*
G04 #@! TO.N,a1*
X156066201Y-104731391D02*
X149714791Y-104731391D01*
X145643600Y-100660200D02*
X140030200Y-100660200D01*
X149714791Y-104731391D02*
X145643600Y-100660200D01*
X136893199Y-86245599D02*
X136093200Y-85445600D01*
X140030200Y-100660200D02*
X136271000Y-96901000D01*
X136271000Y-96901000D02*
X136271000Y-95123000D01*
X137396417Y-93997583D02*
X137396417Y-86748817D01*
X136271000Y-95123000D02*
X137396417Y-93997583D01*
X137396417Y-86748817D02*
X136893199Y-86245599D01*
X159588200Y-108253390D02*
X158903810Y-107569000D01*
X159588200Y-111048800D02*
X159588200Y-108253390D01*
X158903810Y-107569000D02*
X156066201Y-104731391D01*
X159131000Y-107796190D02*
X158903810Y-107569000D01*
G04 #@! TO.N,RX*
X131634599Y-113043601D02*
X130784600Y-113893600D01*
X132283200Y-112395000D02*
X131634599Y-113043601D01*
X132283200Y-96875600D02*
X132283200Y-112395000D01*
X128473200Y-93065600D02*
X132283200Y-96875600D01*
G04 #@! TO.N,d12*
X137566400Y-97002600D02*
X137566400Y-96164400D01*
X140792200Y-97917000D02*
X138480800Y-97917000D01*
X142494000Y-96215200D02*
X140792200Y-97917000D01*
X138480800Y-97917000D02*
X137566400Y-97002600D01*
X142494000Y-92481400D02*
X142494000Y-96215200D01*
X143281400Y-91694000D02*
X142494000Y-92481400D01*
X145084800Y-91694000D02*
X143281400Y-91694000D01*
X151333200Y-85445600D02*
X145084800Y-91694000D01*
G04 #@! TO.N,d7*
X155613201Y-93865599D02*
X156413200Y-93065600D01*
X154076399Y-95402401D02*
X155613201Y-93865599D01*
X148488399Y-95402401D02*
X154076399Y-95402401D01*
X147726400Y-96164400D02*
X148488399Y-95402401D01*
G04 #@! TO.N,a4*
X129273199Y-86245599D02*
X128473200Y-85445600D01*
X132308600Y-89281000D02*
X129273199Y-86245599D01*
X132308600Y-94208600D02*
X132308600Y-89281000D01*
X139700000Y-101600000D02*
X132308600Y-94208600D01*
X145542000Y-101600000D02*
X139700000Y-101600000D01*
X150266400Y-106324400D02*
X145542000Y-101600000D01*
G04 #@! TO.N,d8*
X158953200Y-94919800D02*
X158953200Y-93065600D01*
X156083000Y-97790000D02*
X158953200Y-94919800D01*
X146812000Y-97790000D02*
X156083000Y-97790000D01*
X145186400Y-96164400D02*
X146812000Y-97790000D01*
G04 #@! TO.N,a5*
X154259399Y-107411401D02*
X155346400Y-106324400D01*
X149744639Y-107411401D02*
X154259399Y-107411401D01*
X148971000Y-106637762D02*
X149744639Y-107411401D01*
X145585187Y-102616000D02*
X148971000Y-106001813D01*
X138898598Y-102616000D02*
X145585187Y-102616000D01*
X129692400Y-89204800D02*
X129692400Y-93409802D01*
X148971000Y-106001813D02*
X148971000Y-106637762D01*
X129692400Y-93409802D02*
X138898598Y-102616000D01*
X125933200Y-85445600D02*
X129692400Y-89204800D01*
G04 #@! TD*
M02*
