G04 #@! TF.GenerationSoftware,KiCad,Pcbnew,5.0.1-33cea8e~68~ubuntu14.04.1*
G04 #@! TF.CreationDate,2018-11-23T14:46:56-08:00*
G04 #@! TF.ProjectId,count,636F756E742E6B696361645F70636200,rev?*
G04 #@! TF.SameCoordinates,Original*
G04 #@! TF.FileFunction,Copper,L2,Bot,Signal*
G04 #@! TF.FilePolarity,Positive*
%FSLAX46Y46*%
G04 Gerber Fmt 4.6, Leading zero omitted, Abs format (unit mm)*
G04 Created by KiCad (PCBNEW 5.0.1-33cea8e~68~ubuntu14.04.1) date Fri 23 Nov 2018 02:46:56 PM PST*
%MOMM*%
%LPD*%
G01*
G04 APERTURE LIST*
G04 #@! TA.AperFunction,ComponentPad*
%ADD10C,1.524000*%
G04 #@! TD*
G04 #@! TA.AperFunction,ComponentPad*
%ADD11C,6.400000*%
G04 #@! TD*
G04 #@! TA.AperFunction,ComponentPad*
%ADD12R,1.700000X1.700000*%
G04 #@! TD*
G04 #@! TA.AperFunction,ComponentPad*
%ADD13O,1.700000X1.700000*%
G04 #@! TD*
G04 #@! TA.AperFunction,SMDPad,CuDef*
%ADD14R,5.000000X2.000000*%
G04 #@! TD*
G04 #@! TA.AperFunction,ComponentPad*
%ADD15C,2.000000*%
G04 #@! TD*
G04 #@! TA.AperFunction,ViaPad*
%ADD16C,0.800000*%
G04 #@! TD*
G04 #@! TA.AperFunction,Conductor*
%ADD17C,0.160000*%
G04 #@! TD*
G04 #@! TA.AperFunction,Conductor*
%ADD18C,0.250000*%
G04 #@! TD*
G04 APERTURE END LIST*
D10*
G04 #@! TO.P,U2,1*
G04 #@! TO.N,Net-(R5-Pad2)*
X135636000Y-130302000D03*
G04 #@! TO.P,U2,2*
G04 #@! TO.N,d2*
X138176000Y-130302000D03*
G04 #@! TO.P,U2,3*
G04 #@! TO.N,d3*
X140716000Y-130302000D03*
G04 #@! TO.P,U2,4*
G04 #@! TO.N,d4*
X143256000Y-130302000D03*
G04 #@! TO.P,U2,5*
G04 #@! TO.N,Net-(R6-Pad2)*
X145796000Y-130302000D03*
G04 #@! TO.P,U2,6*
G04 #@! TO.N,d5*
X148336000Y-130302000D03*
G04 #@! TO.P,U2,7*
G04 #@! TO.N,Net-(R7-Pad2)*
X150876000Y-130302000D03*
G04 #@! TO.P,U2,8*
G04 #@! TO.N,d6*
X150876000Y-140462000D03*
G04 #@! TO.P,U2,11*
G04 #@! TO.N,d7*
X143256000Y-140462000D03*
G04 #@! TO.P,U2,12*
G04 #@! TO.N,d8*
X140716000Y-140462000D03*
G04 #@! TO.P,U2,14*
G04 #@! TO.N,N/C*
X135636000Y-140462000D03*
G04 #@! TO.P,U2,15*
G04 #@! TO.N,d12*
X133096000Y-140462000D03*
G04 #@! TD*
D11*
G04 #@! TO.P,H1,1*
G04 #@! TO.N,Net-(H1-Pad1)*
X154686000Y-166624000D03*
G04 #@! TD*
G04 #@! TO.P,H2,1*
G04 #@! TO.N,Net-(H2-Pad1)*
X128016000Y-166624000D03*
G04 #@! TD*
G04 #@! TO.P,H3,1*
G04 #@! TO.N,Net-(H3-Pad1)*
X154686000Y-96774000D03*
G04 #@! TD*
G04 #@! TO.P,H4,1*
G04 #@! TO.N,Net-(H4-Pad1)*
X128016000Y-96774000D03*
G04 #@! TD*
D12*
G04 #@! TO.P,J5,1*
G04 #@! TO.N,bus1*
X149098000Y-94996000D03*
D13*
G04 #@! TO.P,J5,2*
G04 #@! TO.N,bus2*
X149098000Y-97536000D03*
G04 #@! TO.P,J5,3*
G04 #@! TO.N,bus3*
X146558000Y-94996000D03*
G04 #@! TO.P,J5,4*
G04 #@! TO.N,bus4*
X146558000Y-97536000D03*
G04 #@! TO.P,J5,5*
G04 #@! TO.N,bus5*
X144018000Y-94996000D03*
G04 #@! TO.P,J5,6*
G04 #@! TO.N,bus6*
X144018000Y-97536000D03*
G04 #@! TO.P,J5,7*
G04 #@! TO.N,bus7*
X141478000Y-94996000D03*
G04 #@! TO.P,J5,8*
G04 #@! TO.N,bus8*
X141478000Y-97536000D03*
G04 #@! TO.P,J5,9*
G04 #@! TO.N,RX*
X138938000Y-94996000D03*
G04 #@! TO.P,J5,10*
G04 #@! TO.N,TX*
X138938000Y-97536000D03*
G04 #@! TO.P,J5,11*
G04 #@! TO.N,bus11*
X136398000Y-94996000D03*
G04 #@! TO.P,J5,12*
X136398000Y-97536000D03*
G04 #@! TO.P,J5,13*
G04 #@! TO.N,bus13*
X133858000Y-94996000D03*
G04 #@! TO.P,J5,14*
X133858000Y-97536000D03*
G04 #@! TD*
D14*
G04 #@! TO.P,J1,6*
G04 #@! TO.N,d13*
X127762000Y-117602000D03*
G04 #@! TO.P,J1,5*
G04 #@! TO.N,d12*
X127762000Y-120142000D03*
G04 #@! TO.P,J1,4*
G04 #@! TO.N,d11*
X127762000Y-122682000D03*
G04 #@! TD*
G04 #@! TO.P,J3,4*
G04 #@! TO.N,RX*
X127762000Y-108204000D03*
G04 #@! TO.P,J3,5*
G04 #@! TO.N,TX*
X127762000Y-110744000D03*
G04 #@! TO.P,J3,6*
G04 #@! TO.N,DTR*
X127762000Y-113284000D03*
G04 #@! TD*
D15*
G04 #@! TO.P,SW2,3*
G04 #@! TO.N,N/C*
X144700000Y-164600000D03*
G04 #@! TO.P,SW2,4*
X144700000Y-160100000D03*
G04 #@! TO.P,SW2,1*
G04 #@! TO.N,a3*
X138200000Y-164600000D03*
G04 #@! TO.P,SW2,2*
G04 #@! TO.N,bus13*
X138200000Y-160100000D03*
G04 #@! TD*
D16*
G04 #@! TO.N,XTAL1*
X147115000Y-119448000D03*
X143171023Y-122443010D03*
G04 #@! TO.N,XTAL2*
X147240000Y-121438000D03*
X143164706Y-121375669D03*
G04 #@! TO.N,RESET*
X133692000Y-101854000D03*
X132331079Y-106827877D03*
G04 #@! TO.N,DTR*
X137668000Y-103124000D03*
G04 #@! TO.N,a0*
X135209990Y-108448404D03*
X131511150Y-108501097D03*
G04 #@! TO.N,a1*
X145288000Y-145542000D03*
X142748000Y-145542000D03*
X140208000Y-145542000D03*
X137668000Y-145542000D03*
X135128000Y-145542000D03*
X132588000Y-145542000D03*
X130048000Y-145542000D03*
X127608406Y-145441594D03*
X132506531Y-109473798D03*
G04 #@! TO.N,RX*
X134574252Y-115923872D03*
G04 #@! TO.N,TX*
X131600000Y-116500002D03*
X135409944Y-113833776D03*
G04 #@! TO.N,a2*
X134290000Y-122428000D03*
X133656213Y-110839053D03*
G04 #@! TO.N,d10*
X145455000Y-113408000D03*
X148089594Y-144589594D03*
G04 #@! TO.N,d11*
X153150000Y-110000000D03*
G04 #@! TO.N,a3*
X138300000Y-113650000D03*
X141900000Y-108650004D03*
G04 #@! TO.N,d12*
X154432000Y-109474000D03*
X133687988Y-152200009D03*
G04 #@! TO.N,d3*
X139250000Y-124250000D03*
G04 #@! TO.N,d13*
X136888043Y-122452003D03*
X124909241Y-115363077D03*
X138970000Y-112118319D03*
X145899998Y-99050000D03*
G04 #@! TO.N,d7*
X143969990Y-116569335D03*
G04 #@! TO.N,a4*
X137824316Y-116667990D03*
X140425397Y-122407390D03*
G04 #@! TO.N,d8*
X139960840Y-117100840D03*
G04 #@! TO.N,a5*
X134620000Y-124206000D03*
X134366000Y-120904000D03*
X135381273Y-114833377D03*
X130150032Y-128524000D03*
X145680000Y-123468000D03*
X129703883Y-132189407D03*
G04 #@! TO.N,bus11*
X133905000Y-106830000D03*
X147030000Y-113408000D03*
X146750000Y-110699998D03*
X139210834Y-120328925D03*
X128150000Y-115730010D03*
X131023381Y-118400598D03*
X134112000Y-108830010D03*
G04 #@! TO.N,bus13*
X133692000Y-104854000D03*
X135890008Y-105894021D03*
X126534313Y-115500016D03*
X130736354Y-114786429D03*
X144050000Y-114800000D03*
X139904348Y-115350000D03*
G04 #@! TO.N,bus1*
X145288002Y-137922002D03*
G04 #@! TO.N,bus2*
X145288000Y-126492000D03*
G04 #@! TO.N,bus3*
X142748000Y-126492000D03*
G04 #@! TO.N,bus4*
X140660012Y-126492000D03*
G04 #@! TO.N,bus5*
X137668000Y-126492000D03*
G04 #@! TO.N,bus6*
X137600002Y-127549998D03*
G04 #@! TO.N,bus7*
X131900000Y-129650000D03*
G04 #@! TO.N,bus8*
X130301241Y-126692439D03*
G04 #@! TD*
D17*
G04 #@! TO.N,XTAL1*
X143228013Y-122500000D02*
X143171023Y-122443010D01*
X147900000Y-122500000D02*
X143228013Y-122500000D01*
X148250000Y-122150000D02*
X147900000Y-122500000D01*
X148250000Y-120583000D02*
X148250000Y-122150000D01*
X147115000Y-119448000D02*
X148250000Y-120583000D01*
G04 #@! TO.N,XTAL2*
X143227037Y-121438000D02*
X143164706Y-121375669D01*
X147240000Y-121438000D02*
X143227037Y-121438000D01*
G04 #@! TO.N,RESET*
X132331079Y-104074921D02*
X132331079Y-106262192D01*
X133692000Y-101854000D02*
X133692000Y-102714000D01*
X132331079Y-106262192D02*
X132331079Y-106827877D01*
X133692000Y-102714000D02*
X132331079Y-104074921D01*
G04 #@! TO.N,DTR*
X129540000Y-100584000D02*
X124586010Y-105537990D01*
X125222000Y-113284000D02*
X127762000Y-113284000D01*
X124586010Y-112648010D02*
X125222000Y-113284000D01*
X135128000Y-100584000D02*
X129540000Y-100584000D01*
X124586010Y-105537990D02*
X124586010Y-112648010D01*
X137668000Y-103124000D02*
X135128000Y-100584000D01*
G04 #@! TO.N,a0*
X131911149Y-108101098D02*
X131511150Y-108501097D01*
X135209990Y-108448404D02*
X134809991Y-108048405D01*
X131963842Y-108048405D02*
X131911149Y-108101098D01*
X134809991Y-108048405D02*
X131963842Y-108048405D01*
G04 #@! TO.N,a1*
X127708812Y-145542000D02*
X127608406Y-145441594D01*
X145288000Y-145542000D02*
X127708812Y-145542000D01*
X135128000Y-145542000D02*
X135128000Y-144582000D01*
X134593999Y-144047999D02*
X134593999Y-138085927D01*
X129023881Y-132515809D02*
X129023881Y-126185251D01*
X135128000Y-144582000D02*
X134593999Y-144047999D01*
X129023881Y-126185251D02*
X132458823Y-122750309D01*
X132458823Y-122750309D02*
X132458823Y-109521506D01*
X132458823Y-109521506D02*
X132506531Y-109473798D01*
X134593999Y-138085927D02*
X129023881Y-132515809D01*
G04 #@! TO.N,RX*
X139044011Y-104517977D02*
X137643988Y-105918000D01*
X137643988Y-105918000D02*
X135890000Y-107671988D01*
X139044011Y-99822000D02*
X139044011Y-104517977D01*
X137650000Y-98427989D02*
X139044011Y-99822000D01*
X137650000Y-96284000D02*
X137650000Y-98427989D01*
X138938000Y-94996000D02*
X137650000Y-96284000D01*
X128371988Y-107671988D02*
X135890000Y-107671988D01*
X128133986Y-107433986D02*
X128371988Y-107671988D01*
X127516014Y-107433986D02*
X128133986Y-107433986D01*
X126746000Y-108204000D02*
X127516014Y-107433986D01*
X134574252Y-115358187D02*
X134574252Y-115923872D01*
X134574252Y-110281748D02*
X134574252Y-115358187D01*
X135890000Y-108966000D02*
X134574252Y-110281748D01*
X135890000Y-107671988D02*
X135890000Y-108966000D01*
G04 #@! TO.N,TX*
X130417672Y-110744000D02*
X131600000Y-111926328D01*
X131600000Y-111926328D02*
X131600000Y-115934317D01*
X131600000Y-115934317D02*
X131600000Y-116500002D01*
X126746000Y-110744000D02*
X130417672Y-110744000D01*
X139787999Y-104554341D02*
X136291989Y-108050351D01*
X138938000Y-97536000D02*
X139787999Y-98385999D01*
X136291989Y-108050351D02*
X136291989Y-109198879D01*
X135409944Y-110080924D02*
X135409944Y-113268091D01*
X139787999Y-98385999D02*
X139787999Y-104554341D01*
X135409944Y-113268091D02*
X135409944Y-113833776D01*
X136291989Y-109198879D02*
X135409944Y-110080924D01*
G04 #@! TO.N,a2*
X133685998Y-121823998D02*
X133685998Y-117451012D01*
X133685998Y-117451012D02*
X133892456Y-117244554D01*
X133892456Y-111075296D02*
X133656213Y-110839053D01*
X133892456Y-117244554D02*
X133892456Y-111075296D01*
X134290000Y-122428000D02*
X133685998Y-121823998D01*
G04 #@! TO.N,d10*
X144526000Y-141026000D02*
X147689595Y-144189595D01*
X144526000Y-137414000D02*
X144526000Y-141026000D01*
X151350000Y-131700000D02*
X150240000Y-131700000D01*
X147689595Y-144189595D02*
X148089594Y-144589594D01*
X152250000Y-130800000D02*
X151350000Y-131700000D01*
X152250000Y-120778000D02*
X152250000Y-130800000D01*
X150240000Y-131700000D02*
X144526000Y-137414000D01*
X145455000Y-113983000D02*
X152250000Y-120778000D01*
X145455000Y-113408000D02*
X145455000Y-113983000D01*
G04 #@! TO.N,d11*
X142120869Y-151519999D02*
X153150000Y-140490868D01*
X132725131Y-151519999D02*
X142120869Y-151519999D01*
X125157969Y-125540031D02*
X125157969Y-143952837D01*
X153150000Y-110565685D02*
X153150000Y-110000000D01*
X125157969Y-143952837D02*
X132725131Y-151519999D01*
X153150000Y-140490868D02*
X153150000Y-110565685D01*
X128016000Y-122682000D02*
X125157969Y-125540031D01*
G04 #@! TO.N,a3*
X138865685Y-113650000D02*
X141900000Y-110615685D01*
X141900000Y-109215689D02*
X141900000Y-108650004D01*
X138300000Y-113650000D02*
X138865685Y-113650000D01*
X141900000Y-110615685D02*
X141900000Y-109215689D01*
G04 #@! TO.N,d12*
X134253673Y-152200009D02*
X133687988Y-152200009D01*
X154432000Y-109474000D02*
X154432000Y-139718000D01*
X141949991Y-152200009D02*
X134253673Y-152200009D01*
X154432000Y-139718000D02*
X141949991Y-152200009D01*
X133096000Y-140462000D02*
X128663871Y-136029871D01*
X128663871Y-136029871D02*
X128663871Y-125844129D01*
X128663871Y-125844129D02*
X131064000Y-123444000D01*
X131064000Y-121064000D02*
X130142000Y-120142000D01*
X130142000Y-120142000D02*
X128016000Y-120142000D01*
X131064000Y-123444000D02*
X131064000Y-121064000D01*
D18*
G04 #@! TO.N,d3*
X138850001Y-128436001D02*
X138850001Y-124649999D01*
X138850001Y-124649999D02*
X139250000Y-124250000D01*
X140716000Y-130302000D02*
X138850001Y-128436001D01*
D17*
G04 #@! TO.N,d13*
X126262000Y-117602000D02*
X124909241Y-116249241D01*
X124909241Y-116249241D02*
X124909241Y-115928762D01*
X124909241Y-115928762D02*
X124909241Y-115363077D01*
X127762000Y-117602000D02*
X126262000Y-117602000D01*
D18*
X138758677Y-112118319D02*
X138970000Y-112118319D01*
X137574998Y-115844306D02*
X137574998Y-113301998D01*
X137099315Y-116319989D02*
X137574998Y-115844306D01*
X137099315Y-121675046D02*
X137099315Y-116319989D01*
X136888043Y-121886318D02*
X137099315Y-121675046D01*
X137574998Y-113301998D02*
X138758677Y-112118319D01*
X136888043Y-122452003D02*
X136888043Y-121886318D01*
D17*
X145899998Y-100988002D02*
X138970000Y-107918000D01*
X138970000Y-107918000D02*
X138970000Y-111552634D01*
X138970000Y-111552634D02*
X138970000Y-112118319D01*
X145899998Y-99050000D02*
X145899998Y-100988002D01*
G04 #@! TO.N,d7*
X146796467Y-116569335D02*
X144535675Y-116569335D01*
X149818021Y-131359979D02*
X149818021Y-119590889D01*
X143256000Y-137922000D02*
X149818021Y-131359979D01*
X143256000Y-140462000D02*
X143256000Y-137922000D01*
X144535675Y-116569335D02*
X143969990Y-116569335D01*
X149818021Y-119590889D02*
X146796467Y-116569335D01*
D18*
G04 #@! TO.N,a4*
X137824316Y-117233675D02*
X137824316Y-116667990D01*
X140425397Y-122407390D02*
X140425397Y-120162837D01*
X137824316Y-117561756D02*
X137824316Y-117233675D01*
X140425397Y-120162837D02*
X137824316Y-117561756D01*
D17*
G04 #@! TO.N,d8*
X149458010Y-130957990D02*
X149458010Y-119992878D01*
X149458010Y-119992878D02*
X147723121Y-118257989D01*
X140360839Y-117500839D02*
X139960840Y-117100840D01*
X141117989Y-118257989D02*
X140360839Y-117500839D01*
X141477999Y-139700001D02*
X141477999Y-138938001D01*
X147723121Y-118257989D02*
X141117989Y-118257989D01*
X141477999Y-138938001D02*
X149458010Y-130957990D01*
X140716000Y-140462000D02*
X141477999Y-139700001D01*
G04 #@! TO.N,a5*
X135254261Y-116483371D02*
X135254261Y-115526074D01*
X135254261Y-115526074D02*
X135381273Y-115399062D01*
X134366000Y-117371632D02*
X135254261Y-116483371D01*
X135381273Y-115399062D02*
X135381273Y-114833377D01*
X134366000Y-120904000D02*
X134366000Y-117371632D01*
X134620000Y-124206000D02*
X130302000Y-128524000D01*
X130302000Y-128524000D02*
X130150032Y-128524000D01*
X144423000Y-124725000D02*
X144423000Y-130977000D01*
X130269568Y-132189407D02*
X129703883Y-132189407D01*
X144423000Y-130977000D02*
X143210593Y-132189407D01*
X143210593Y-132189407D02*
X130269568Y-132189407D01*
X145680000Y-123468000D02*
X144423000Y-124725000D01*
G04 #@! TO.N,bus11*
X134442500Y-106830000D02*
X133905000Y-106830000D01*
X135960433Y-106830000D02*
X134442500Y-106830000D01*
X138517999Y-100076000D02*
X138517999Y-104272434D01*
X136398000Y-97956001D02*
X138517999Y-100076000D01*
X138517999Y-104272434D02*
X135960433Y-106830000D01*
X136398000Y-97536000D02*
X136398000Y-97956001D01*
X147030000Y-110979998D02*
X146750000Y-110699998D01*
X147030000Y-113408000D02*
X147030000Y-110979998D01*
X129895695Y-115730010D02*
X130623382Y-116457697D01*
X130623382Y-118000599D02*
X131023381Y-118400598D01*
X128150000Y-115730010D02*
X129895695Y-115730010D01*
X130623382Y-116457697D02*
X130623382Y-118000599D01*
X132842000Y-110100010D02*
X134112000Y-108830010D01*
X129470022Y-126248242D02*
X132842000Y-122876264D01*
X141200000Y-131700000D02*
X130176000Y-131700000D01*
X142050000Y-130850000D02*
X141200000Y-131700000D01*
X142050000Y-129700000D02*
X142050000Y-130850000D01*
X139980002Y-127630002D02*
X142050000Y-129700000D01*
X129470022Y-130994022D02*
X129470022Y-126248242D01*
X139980002Y-123930002D02*
X139980002Y-127630002D01*
X139210834Y-120328925D02*
X139210834Y-123160834D01*
X130176000Y-131700000D02*
X129470022Y-130994022D01*
X132842000Y-122876264D02*
X132842000Y-110100010D01*
X139210834Y-123160834D02*
X139980002Y-123930002D01*
G04 #@! TO.N,bus13*
X133692000Y-104854000D02*
X134849987Y-104854000D01*
X135490009Y-105494022D02*
X135890008Y-105894021D01*
X134849987Y-104854000D02*
X135490009Y-105494022D01*
X127247900Y-114786429D02*
X130170669Y-114786429D01*
X130170669Y-114786429D02*
X130736354Y-114786429D01*
X126534313Y-115500016D02*
X127247900Y-114786429D01*
X140470033Y-115350000D02*
X139904348Y-115350000D01*
X144050000Y-114800000D02*
X143500000Y-115350000D01*
X143500000Y-115350000D02*
X140470033Y-115350000D01*
G04 #@! TO.N,bus1*
X145853687Y-137922002D02*
X145288002Y-137922002D01*
X152610011Y-131165678D02*
X145853687Y-137922002D01*
X150368000Y-118386868D02*
X152610011Y-120628879D01*
X150368000Y-95256000D02*
X150368000Y-118386868D01*
X149098000Y-94996000D02*
X150108000Y-94996000D01*
X152610011Y-120628879D02*
X152610011Y-131165678D01*
X150108000Y-94996000D02*
X150368000Y-95256000D01*
G04 #@! TO.N,bus2*
X149097999Y-122682001D02*
X149097999Y-120141999D01*
X149098000Y-98738081D02*
X149098000Y-97536000D01*
X147574000Y-118618000D02*
X140471596Y-118618000D01*
X145288000Y-126492000D02*
X149097999Y-122682001D01*
X149097999Y-120141999D02*
X147574000Y-118618000D01*
X139224338Y-117370742D02*
X139224338Y-114969258D01*
X140471596Y-118618000D02*
X139224338Y-117370742D01*
X139224338Y-114969258D02*
X149098000Y-105095596D01*
X149098000Y-105095596D02*
X149098000Y-98738081D01*
G04 #@! TO.N,bus3*
X142479965Y-125658280D02*
X142479965Y-121135501D01*
X147830264Y-105854200D02*
X147830264Y-96268264D01*
X138864327Y-114820137D02*
X147830264Y-105854200D01*
X138864327Y-117519863D02*
X138864327Y-114820137D01*
X142479965Y-121135501D02*
X138864327Y-117519863D01*
X142748000Y-125926315D02*
X142479965Y-125658280D01*
X147830264Y-96268264D02*
X147407999Y-95845999D01*
X147407999Y-95845999D02*
X146558000Y-94996000D01*
X142748000Y-126492000D02*
X142748000Y-125926315D01*
G04 #@! TO.N,bus4*
X147407999Y-105648403D02*
X138504316Y-114552086D01*
X138504316Y-114552086D02*
X138504316Y-117668984D01*
X142119955Y-121284623D02*
X142119955Y-125032057D01*
X142119955Y-125032057D02*
X141060011Y-126092001D01*
X141060011Y-126092001D02*
X140660012Y-126492000D01*
X147407999Y-98385999D02*
X147407999Y-105648403D01*
X138504316Y-117668984D02*
X142119955Y-121284623D01*
X146558000Y-97536000D02*
X147407999Y-98385999D01*
G04 #@! TO.N,bus5*
X145169998Y-96147998D02*
X145169998Y-101208870D01*
X145169998Y-101208870D02*
X138511999Y-107866869D01*
X138511999Y-111569916D02*
X137169987Y-112911928D01*
X138511999Y-107866869D02*
X138511999Y-111569916D01*
X137169987Y-112911928D02*
X137169987Y-115676545D01*
X137169987Y-115676545D02*
X136694304Y-116152228D01*
X136694303Y-117244790D02*
X136208033Y-117731059D01*
X136694304Y-116152228D02*
X136694303Y-117244790D01*
X136208033Y-117731059D02*
X136208033Y-125032033D01*
X137268001Y-126092001D02*
X137668000Y-126492000D01*
X136208033Y-125032033D02*
X137268001Y-126092001D01*
X144018000Y-94996000D02*
X145169998Y-96147998D01*
G04 #@! TO.N,bus6*
X138151988Y-111420795D02*
X136809976Y-112762807D01*
X136809976Y-115527424D02*
X136334294Y-116003106D01*
X137200003Y-127149999D02*
X137600002Y-127549998D01*
X136334293Y-117095667D02*
X135848022Y-117581938D01*
X135848022Y-125798018D02*
X137200003Y-127149999D01*
X136334294Y-116003106D02*
X136334293Y-117095667D01*
X136809976Y-112762807D02*
X136809976Y-115527424D01*
X138151988Y-107717748D02*
X138151988Y-111420795D01*
X135848022Y-117581938D02*
X135848022Y-125798018D01*
X144018000Y-101851736D02*
X138151988Y-107717748D01*
X144018000Y-97536000D02*
X144018000Y-101851736D01*
G04 #@! TO.N,bus7*
X142750000Y-102610604D02*
X137791977Y-107568627D01*
X135974284Y-115853986D02*
X135974283Y-116946545D01*
X135488011Y-124623144D02*
X131900000Y-128211155D01*
X135974283Y-116946545D02*
X135488011Y-117432817D01*
X131900000Y-129084315D02*
X131900000Y-129650000D01*
X137791977Y-107568627D02*
X137791977Y-111271674D01*
X136449965Y-115378305D02*
X135974284Y-115853986D01*
X141478000Y-94996000D02*
X142750000Y-96268000D01*
X136449965Y-112613686D02*
X136449965Y-115378305D01*
X142750000Y-96268000D02*
X142750000Y-102610604D01*
X135488011Y-117432817D02*
X135488011Y-124623144D01*
X137791977Y-111271674D02*
X136449965Y-112613686D01*
X131900000Y-128211155D02*
X131900000Y-129084315D01*
G04 #@! TO.N,bus8*
X130701240Y-126292440D02*
X130301241Y-126692439D01*
X135128000Y-117283696D02*
X135128000Y-122682000D01*
X132860000Y-124950000D02*
X132043680Y-124950000D01*
X141478000Y-97536000D02*
X141478000Y-103373472D01*
X141478000Y-103373472D02*
X136652000Y-108199472D01*
X132043680Y-124950000D02*
X130701240Y-126292440D01*
X136652000Y-109348000D02*
X136089955Y-109910045D01*
X136089955Y-109910045D02*
X136089955Y-115229184D01*
X136089955Y-115229184D02*
X135614271Y-115704868D01*
X136652000Y-108199472D02*
X136652000Y-109348000D01*
X135614271Y-116797425D02*
X135128000Y-117283696D01*
X135614271Y-115704868D02*
X135614271Y-116797425D01*
X135128000Y-122682000D02*
X132860000Y-124950000D01*
G04 #@! TD*
G04 #@! TO.N,bus11*
G36*
X152714738Y-93823799D02*
X151735799Y-94802738D01*
X151206000Y-96081785D01*
X151206000Y-97466215D01*
X151735799Y-98745262D01*
X152714738Y-99724201D01*
X153993785Y-100254000D01*
X155378215Y-100254000D01*
X156657262Y-99724201D01*
X157636201Y-98745262D01*
X158156001Y-97490355D01*
X158156000Y-165907643D01*
X157636201Y-164652738D01*
X156657262Y-163673799D01*
X155378215Y-163144000D01*
X153993785Y-163144000D01*
X152714738Y-163673799D01*
X151735799Y-164652738D01*
X151206000Y-165931785D01*
X151206000Y-167316215D01*
X151735799Y-168595262D01*
X152714738Y-169574201D01*
X153969643Y-170094000D01*
X128732357Y-170094000D01*
X129987262Y-169574201D01*
X130966201Y-168595262D01*
X131496000Y-167316215D01*
X131496000Y-165931785D01*
X130966201Y-164652738D01*
X130658855Y-164345392D01*
X136920000Y-164345392D01*
X136920000Y-164854608D01*
X137114868Y-165325062D01*
X137474938Y-165685132D01*
X137945392Y-165880000D01*
X138454608Y-165880000D01*
X138925062Y-165685132D01*
X139285132Y-165325062D01*
X139480000Y-164854608D01*
X139480000Y-164345392D01*
X143420000Y-164345392D01*
X143420000Y-164854608D01*
X143614868Y-165325062D01*
X143974938Y-165685132D01*
X144445392Y-165880000D01*
X144954608Y-165880000D01*
X145425062Y-165685132D01*
X145785132Y-165325062D01*
X145980000Y-164854608D01*
X145980000Y-164345392D01*
X145785132Y-163874938D01*
X145425062Y-163514868D01*
X144954608Y-163320000D01*
X144445392Y-163320000D01*
X143974938Y-163514868D01*
X143614868Y-163874938D01*
X143420000Y-164345392D01*
X139480000Y-164345392D01*
X139285132Y-163874938D01*
X138925062Y-163514868D01*
X138454608Y-163320000D01*
X137945392Y-163320000D01*
X137474938Y-163514868D01*
X137114868Y-163874938D01*
X136920000Y-164345392D01*
X130658855Y-164345392D01*
X129987262Y-163673799D01*
X128708215Y-163144000D01*
X127323785Y-163144000D01*
X126044738Y-163673799D01*
X125065799Y-164652738D01*
X124546000Y-165907643D01*
X124546000Y-159845392D01*
X136920000Y-159845392D01*
X136920000Y-160354608D01*
X137114868Y-160825062D01*
X137474938Y-161185132D01*
X137945392Y-161380000D01*
X138454608Y-161380000D01*
X138925062Y-161185132D01*
X139285132Y-160825062D01*
X139480000Y-160354608D01*
X139480000Y-159845392D01*
X143420000Y-159845392D01*
X143420000Y-160354608D01*
X143614868Y-160825062D01*
X143974938Y-161185132D01*
X144445392Y-161380000D01*
X144954608Y-161380000D01*
X145425062Y-161185132D01*
X145785132Y-160825062D01*
X145980000Y-160354608D01*
X145980000Y-159845392D01*
X145785132Y-159374938D01*
X145425062Y-159014868D01*
X144954608Y-158820000D01*
X144445392Y-158820000D01*
X143974938Y-159014868D01*
X143614868Y-159374938D01*
X143420000Y-159845392D01*
X139480000Y-159845392D01*
X139285132Y-159374938D01*
X138925062Y-159014868D01*
X138454608Y-158820000D01*
X137945392Y-158820000D01*
X137474938Y-159014868D01*
X137114868Y-159374938D01*
X136920000Y-159845392D01*
X124546000Y-159845392D01*
X124546000Y-116268400D01*
X124550480Y-116290924D01*
X124570129Y-116389705D01*
X124649696Y-116508785D01*
X124679752Y-116528868D01*
X124905144Y-116754260D01*
X124905144Y-118602000D01*
X124932308Y-118738563D01*
X125009665Y-118854335D01*
X125036102Y-118872000D01*
X125009665Y-118889665D01*
X124932308Y-119005437D01*
X124905144Y-119142000D01*
X124905144Y-121142000D01*
X124932308Y-121278563D01*
X125009665Y-121394335D01*
X125036102Y-121412000D01*
X125009665Y-121429665D01*
X124932308Y-121545437D01*
X124905144Y-121682000D01*
X124905144Y-123682000D01*
X124932308Y-123818563D01*
X125009665Y-123934335D01*
X125125437Y-124011692D01*
X125262000Y-124038856D01*
X126150028Y-124038856D01*
X124928480Y-125260404D01*
X124898424Y-125280487D01*
X124878342Y-125310542D01*
X124818857Y-125399567D01*
X124790917Y-125540031D01*
X124797969Y-125575484D01*
X124797970Y-143917379D01*
X124790917Y-143952837D01*
X124818857Y-144093301D01*
X124818858Y-144093302D01*
X124898425Y-144212382D01*
X124928481Y-144232465D01*
X132445503Y-151749488D01*
X132465586Y-151779544D01*
X132584666Y-151859111D01*
X132689678Y-151879999D01*
X132689681Y-151879999D01*
X132725130Y-151887050D01*
X132760579Y-151879999D01*
X133084514Y-151879999D01*
X133007988Y-152064749D01*
X133007988Y-152335269D01*
X133111512Y-152585198D01*
X133302799Y-152776485D01*
X133552728Y-152880009D01*
X133823248Y-152880009D01*
X134073177Y-152776485D01*
X134264464Y-152585198D01*
X134274898Y-152560009D01*
X141914538Y-152560009D01*
X141949991Y-152567061D01*
X141985444Y-152560009D01*
X142090456Y-152539121D01*
X142209536Y-152459554D01*
X142229621Y-152429495D01*
X154661489Y-139997628D01*
X154691545Y-139977545D01*
X154771112Y-139858465D01*
X154792000Y-139753453D01*
X154792000Y-139753449D01*
X154799051Y-139718001D01*
X154792000Y-139682553D01*
X154792000Y-110060910D01*
X154817189Y-110050476D01*
X155008476Y-109859189D01*
X155112000Y-109609260D01*
X155112000Y-109338740D01*
X155008476Y-109088811D01*
X154817189Y-108897524D01*
X154567260Y-108794000D01*
X154296740Y-108794000D01*
X154046811Y-108897524D01*
X153855524Y-109088811D01*
X153752000Y-109338740D01*
X153752000Y-109609260D01*
X153855524Y-109859189D01*
X154046811Y-110050476D01*
X154072000Y-110060910D01*
X154072001Y-139568882D01*
X153510000Y-140130883D01*
X153510000Y-110586910D01*
X153535189Y-110576476D01*
X153726476Y-110385189D01*
X153830000Y-110135260D01*
X153830000Y-109864740D01*
X153726476Y-109614811D01*
X153535189Y-109423524D01*
X153285260Y-109320000D01*
X153014740Y-109320000D01*
X152764811Y-109423524D01*
X152573524Y-109614811D01*
X152470000Y-109864740D01*
X152470000Y-110135260D01*
X152573524Y-110385189D01*
X152764811Y-110576476D01*
X152790000Y-110586910D01*
X152790000Y-110601137D01*
X152790001Y-110601142D01*
X152790001Y-120299752D01*
X150728000Y-118237752D01*
X150728000Y-95291453D01*
X150735052Y-95256000D01*
X150707112Y-95115535D01*
X150647627Y-95026510D01*
X150647625Y-95026508D01*
X150627544Y-94996455D01*
X150597491Y-94976374D01*
X150387629Y-94766513D01*
X150367545Y-94736455D01*
X150248465Y-94656888D01*
X150233485Y-94653908D01*
X150233485Y-94146000D01*
X150211754Y-94036750D01*
X150149868Y-93944132D01*
X150057250Y-93882246D01*
X149948000Y-93860515D01*
X148248000Y-93860515D01*
X148138750Y-93882246D01*
X148046132Y-93944132D01*
X147984246Y-94036750D01*
X147962515Y-94146000D01*
X147962515Y-95846000D01*
X147973787Y-95902671D01*
X147687628Y-95616512D01*
X147687626Y-95616509D01*
X147576608Y-95505492D01*
X147622437Y-95436904D01*
X147710138Y-94996000D01*
X147622437Y-94555096D01*
X147372685Y-94181315D01*
X146998904Y-93931563D01*
X146669296Y-93866000D01*
X146446704Y-93866000D01*
X146117096Y-93931563D01*
X145743315Y-94181315D01*
X145493563Y-94555096D01*
X145405862Y-94996000D01*
X145493563Y-95436904D01*
X145743315Y-95810685D01*
X146117096Y-96060437D01*
X146446704Y-96126000D01*
X146669296Y-96126000D01*
X146998904Y-96060437D01*
X147067492Y-96014608D01*
X147178509Y-96125626D01*
X147178512Y-96125628D01*
X147470265Y-96417382D01*
X147470265Y-96867354D01*
X147372685Y-96721315D01*
X146998904Y-96471563D01*
X146669296Y-96406000D01*
X146446704Y-96406000D01*
X146117096Y-96471563D01*
X145743315Y-96721315D01*
X145529998Y-97040567D01*
X145529998Y-96183446D01*
X145537049Y-96147997D01*
X145529998Y-96112546D01*
X145529998Y-96112545D01*
X145509110Y-96007533D01*
X145474175Y-95955250D01*
X145449625Y-95918508D01*
X145449623Y-95918506D01*
X145429542Y-95888453D01*
X145399489Y-95868372D01*
X145036608Y-95505492D01*
X145082437Y-95436904D01*
X145170138Y-94996000D01*
X145082437Y-94555096D01*
X144832685Y-94181315D01*
X144458904Y-93931563D01*
X144129296Y-93866000D01*
X143906704Y-93866000D01*
X143577096Y-93931563D01*
X143203315Y-94181315D01*
X142953563Y-94555096D01*
X142865862Y-94996000D01*
X142953563Y-95436904D01*
X143203315Y-95810685D01*
X143577096Y-96060437D01*
X143906704Y-96126000D01*
X144129296Y-96126000D01*
X144458904Y-96060437D01*
X144527492Y-96014608D01*
X144809998Y-96297115D01*
X144809998Y-96706156D01*
X144458904Y-96471563D01*
X144129296Y-96406000D01*
X143906704Y-96406000D01*
X143577096Y-96471563D01*
X143203315Y-96721315D01*
X143110000Y-96860971D01*
X143110000Y-96303453D01*
X143117052Y-96268000D01*
X143089112Y-96127535D01*
X143029627Y-96038510D01*
X143029625Y-96038508D01*
X143009544Y-96008455D01*
X142979491Y-95988374D01*
X142496608Y-95505492D01*
X142542437Y-95436904D01*
X142630138Y-94996000D01*
X142542437Y-94555096D01*
X142292685Y-94181315D01*
X141918904Y-93931563D01*
X141589296Y-93866000D01*
X141366704Y-93866000D01*
X141037096Y-93931563D01*
X140663315Y-94181315D01*
X140413563Y-94555096D01*
X140325862Y-94996000D01*
X140413563Y-95436904D01*
X140663315Y-95810685D01*
X141037096Y-96060437D01*
X141366704Y-96126000D01*
X141589296Y-96126000D01*
X141918904Y-96060437D01*
X141987492Y-96014608D01*
X142390000Y-96417117D01*
X142390000Y-96866958D01*
X142292685Y-96721315D01*
X141918904Y-96471563D01*
X141589296Y-96406000D01*
X141366704Y-96406000D01*
X141037096Y-96471563D01*
X140663315Y-96721315D01*
X140413563Y-97095096D01*
X140325862Y-97536000D01*
X140413563Y-97976904D01*
X140663315Y-98350685D01*
X141037096Y-98600437D01*
X141118000Y-98616530D01*
X141118001Y-103224354D01*
X140147999Y-104194356D01*
X140147999Y-98421447D01*
X140155050Y-98385998D01*
X140147999Y-98350547D01*
X140147999Y-98350546D01*
X140127111Y-98245534D01*
X140075601Y-98168445D01*
X140067626Y-98156509D01*
X140067624Y-98156507D01*
X140047543Y-98126454D01*
X140017490Y-98106373D01*
X139956608Y-98045492D01*
X140002437Y-97976904D01*
X140090138Y-97536000D01*
X140002437Y-97095096D01*
X139752685Y-96721315D01*
X139378904Y-96471563D01*
X139049296Y-96406000D01*
X138826704Y-96406000D01*
X138497096Y-96471563D01*
X138123315Y-96721315D01*
X138010000Y-96890903D01*
X138010000Y-96433116D01*
X138428508Y-96014608D01*
X138497096Y-96060437D01*
X138826704Y-96126000D01*
X139049296Y-96126000D01*
X139378904Y-96060437D01*
X139752685Y-95810685D01*
X140002437Y-95436904D01*
X140090138Y-94996000D01*
X140002437Y-94555096D01*
X139752685Y-94181315D01*
X139378904Y-93931563D01*
X139049296Y-93866000D01*
X138826704Y-93866000D01*
X138497096Y-93931563D01*
X138123315Y-94181315D01*
X137873563Y-94555096D01*
X137785862Y-94996000D01*
X137873563Y-95436904D01*
X137919392Y-95505492D01*
X137420511Y-96004373D01*
X137390455Y-96024456D01*
X137331596Y-96112545D01*
X137310888Y-96143536D01*
X137282948Y-96284000D01*
X137290000Y-96319453D01*
X137290000Y-96941381D01*
X137224560Y-96825411D01*
X136889711Y-96563191D01*
X136738185Y-96500445D01*
X136572000Y-96520803D01*
X136572000Y-97362000D01*
X136592000Y-97362000D01*
X136592000Y-97710000D01*
X136572000Y-97710000D01*
X136572000Y-98551197D01*
X136738185Y-98571555D01*
X136889711Y-98508809D01*
X137224560Y-98246589D01*
X137290001Y-98130618D01*
X137290001Y-98392531D01*
X137282948Y-98427989D01*
X137310888Y-98568453D01*
X137310889Y-98568454D01*
X137390456Y-98687534D01*
X137420511Y-98707616D01*
X138684011Y-99971117D01*
X138684012Y-104368859D01*
X137414501Y-105638371D01*
X137414498Y-105638373D01*
X135740884Y-107311988D01*
X132808633Y-107311988D01*
X132907555Y-107213066D01*
X133011079Y-106963137D01*
X133011079Y-106692617D01*
X132907555Y-106442688D01*
X132716268Y-106251401D01*
X132691079Y-106240967D01*
X132691079Y-104718740D01*
X133012000Y-104718740D01*
X133012000Y-104989260D01*
X133115524Y-105239189D01*
X133306811Y-105430476D01*
X133556740Y-105534000D01*
X133827260Y-105534000D01*
X134077189Y-105430476D01*
X134268476Y-105239189D01*
X134278910Y-105214000D01*
X134700871Y-105214000D01*
X135220442Y-105733572D01*
X135210008Y-105758761D01*
X135210008Y-106029281D01*
X135313532Y-106279210D01*
X135504819Y-106470497D01*
X135754748Y-106574021D01*
X136025268Y-106574021D01*
X136275197Y-106470497D01*
X136466484Y-106279210D01*
X136570008Y-106029281D01*
X136570008Y-105758761D01*
X136466484Y-105508832D01*
X136275197Y-105317545D01*
X136025268Y-105214021D01*
X135754748Y-105214021D01*
X135729559Y-105224455D01*
X135129616Y-104624513D01*
X135109532Y-104594455D01*
X134990452Y-104514888D01*
X134885440Y-104494000D01*
X134849987Y-104486948D01*
X134814534Y-104494000D01*
X134278910Y-104494000D01*
X134268476Y-104468811D01*
X134077189Y-104277524D01*
X133827260Y-104174000D01*
X133556740Y-104174000D01*
X133306811Y-104277524D01*
X133115524Y-104468811D01*
X133012000Y-104718740D01*
X132691079Y-104718740D01*
X132691079Y-104224037D01*
X133921489Y-102993628D01*
X133951545Y-102973545D01*
X134031112Y-102854465D01*
X134052000Y-102749453D01*
X134059052Y-102714000D01*
X134052000Y-102678547D01*
X134052000Y-102440910D01*
X134077189Y-102430476D01*
X134268476Y-102239189D01*
X134372000Y-101989260D01*
X134372000Y-101718740D01*
X134268476Y-101468811D01*
X134077189Y-101277524D01*
X133827260Y-101174000D01*
X133556740Y-101174000D01*
X133306811Y-101277524D01*
X133115524Y-101468811D01*
X133012000Y-101718740D01*
X133012000Y-101989260D01*
X133115524Y-102239189D01*
X133306811Y-102430476D01*
X133332001Y-102440910D01*
X133332001Y-102564882D01*
X132101590Y-103795294D01*
X132071534Y-103815377D01*
X132051452Y-103845432D01*
X131991967Y-103934457D01*
X131964027Y-104074921D01*
X131971079Y-104110374D01*
X131971080Y-106226735D01*
X131971079Y-106226740D01*
X131971079Y-106240967D01*
X131945890Y-106251401D01*
X131754603Y-106442688D01*
X131651079Y-106692617D01*
X131651079Y-106963137D01*
X131754603Y-107213066D01*
X131853525Y-107311988D01*
X130618856Y-107311988D01*
X130618856Y-107204000D01*
X130591692Y-107067437D01*
X130514335Y-106951665D01*
X130398563Y-106874308D01*
X130262000Y-106847144D01*
X125262000Y-106847144D01*
X125125437Y-106874308D01*
X125009665Y-106951665D01*
X124946010Y-107046931D01*
X124946010Y-105687106D01*
X129689117Y-100944000D01*
X134978884Y-100944000D01*
X136998434Y-102963551D01*
X136988000Y-102988740D01*
X136988000Y-103259260D01*
X137091524Y-103509189D01*
X137282811Y-103700476D01*
X137532740Y-103804000D01*
X137803260Y-103804000D01*
X138053189Y-103700476D01*
X138244476Y-103509189D01*
X138348000Y-103259260D01*
X138348000Y-102988740D01*
X138244476Y-102738811D01*
X138053189Y-102547524D01*
X137803260Y-102444000D01*
X137532740Y-102444000D01*
X137507551Y-102454434D01*
X135407630Y-100354514D01*
X135387545Y-100324455D01*
X135268465Y-100244888D01*
X135163453Y-100224000D01*
X135128000Y-100216948D01*
X135092547Y-100224000D01*
X129575453Y-100224000D01*
X129540000Y-100216948D01*
X129504547Y-100224000D01*
X129399535Y-100244888D01*
X129280455Y-100324455D01*
X129260372Y-100354511D01*
X124546000Y-105068884D01*
X124546000Y-97490357D01*
X125065799Y-98745262D01*
X126044738Y-99724201D01*
X127323785Y-100254000D01*
X128708215Y-100254000D01*
X129987262Y-99724201D01*
X130966201Y-98745262D01*
X131467094Y-97536000D01*
X132705862Y-97536000D01*
X132793563Y-97976904D01*
X133043315Y-98350685D01*
X133417096Y-98600437D01*
X133746704Y-98666000D01*
X133969296Y-98666000D01*
X134298904Y-98600437D01*
X134672685Y-98350685D01*
X134922437Y-97976904D01*
X134942470Y-97876188D01*
X135362427Y-97876188D01*
X135571440Y-98246589D01*
X135906289Y-98508809D01*
X136057815Y-98571555D01*
X136224000Y-98551197D01*
X136224000Y-97710000D01*
X135381960Y-97710000D01*
X135362427Y-97876188D01*
X134942470Y-97876188D01*
X135010138Y-97536000D01*
X134942471Y-97195812D01*
X135362427Y-97195812D01*
X135381960Y-97362000D01*
X136224000Y-97362000D01*
X136224000Y-96520803D01*
X136057815Y-96500445D01*
X135906289Y-96563191D01*
X135571440Y-96825411D01*
X135362427Y-97195812D01*
X134942471Y-97195812D01*
X134922437Y-97095096D01*
X134672685Y-96721315D01*
X134298904Y-96471563D01*
X133969296Y-96406000D01*
X133746704Y-96406000D01*
X133417096Y-96471563D01*
X133043315Y-96721315D01*
X132793563Y-97095096D01*
X132705862Y-97536000D01*
X131467094Y-97536000D01*
X131496000Y-97466215D01*
X131496000Y-96081785D01*
X131046253Y-94996000D01*
X132705862Y-94996000D01*
X132793563Y-95436904D01*
X133043315Y-95810685D01*
X133417096Y-96060437D01*
X133746704Y-96126000D01*
X133969296Y-96126000D01*
X134298904Y-96060437D01*
X134672685Y-95810685D01*
X134922437Y-95436904D01*
X134942470Y-95336188D01*
X135362427Y-95336188D01*
X135571440Y-95706589D01*
X135906289Y-95968809D01*
X136057815Y-96031555D01*
X136224000Y-96011197D01*
X136224000Y-95170000D01*
X136572000Y-95170000D01*
X136572000Y-96011197D01*
X136738185Y-96031555D01*
X136889711Y-95968809D01*
X137224560Y-95706589D01*
X137433573Y-95336188D01*
X137414040Y-95170000D01*
X136572000Y-95170000D01*
X136224000Y-95170000D01*
X135381960Y-95170000D01*
X135362427Y-95336188D01*
X134942470Y-95336188D01*
X135010138Y-94996000D01*
X134942471Y-94655812D01*
X135362427Y-94655812D01*
X135381960Y-94822000D01*
X136224000Y-94822000D01*
X136224000Y-93980803D01*
X136572000Y-93980803D01*
X136572000Y-94822000D01*
X137414040Y-94822000D01*
X137433573Y-94655812D01*
X137224560Y-94285411D01*
X136889711Y-94023191D01*
X136738185Y-93960445D01*
X136572000Y-93980803D01*
X136224000Y-93980803D01*
X136057815Y-93960445D01*
X135906289Y-94023191D01*
X135571440Y-94285411D01*
X135362427Y-94655812D01*
X134942471Y-94655812D01*
X134922437Y-94555096D01*
X134672685Y-94181315D01*
X134298904Y-93931563D01*
X133969296Y-93866000D01*
X133746704Y-93866000D01*
X133417096Y-93931563D01*
X133043315Y-94181315D01*
X132793563Y-94555096D01*
X132705862Y-94996000D01*
X131046253Y-94996000D01*
X130966201Y-94802738D01*
X129987262Y-93823799D01*
X128732357Y-93304000D01*
X153969643Y-93304000D01*
X152714738Y-93823799D01*
X152714738Y-93823799D01*
G37*
X152714738Y-93823799D02*
X151735799Y-94802738D01*
X151206000Y-96081785D01*
X151206000Y-97466215D01*
X151735799Y-98745262D01*
X152714738Y-99724201D01*
X153993785Y-100254000D01*
X155378215Y-100254000D01*
X156657262Y-99724201D01*
X157636201Y-98745262D01*
X158156001Y-97490355D01*
X158156000Y-165907643D01*
X157636201Y-164652738D01*
X156657262Y-163673799D01*
X155378215Y-163144000D01*
X153993785Y-163144000D01*
X152714738Y-163673799D01*
X151735799Y-164652738D01*
X151206000Y-165931785D01*
X151206000Y-167316215D01*
X151735799Y-168595262D01*
X152714738Y-169574201D01*
X153969643Y-170094000D01*
X128732357Y-170094000D01*
X129987262Y-169574201D01*
X130966201Y-168595262D01*
X131496000Y-167316215D01*
X131496000Y-165931785D01*
X130966201Y-164652738D01*
X130658855Y-164345392D01*
X136920000Y-164345392D01*
X136920000Y-164854608D01*
X137114868Y-165325062D01*
X137474938Y-165685132D01*
X137945392Y-165880000D01*
X138454608Y-165880000D01*
X138925062Y-165685132D01*
X139285132Y-165325062D01*
X139480000Y-164854608D01*
X139480000Y-164345392D01*
X143420000Y-164345392D01*
X143420000Y-164854608D01*
X143614868Y-165325062D01*
X143974938Y-165685132D01*
X144445392Y-165880000D01*
X144954608Y-165880000D01*
X145425062Y-165685132D01*
X145785132Y-165325062D01*
X145980000Y-164854608D01*
X145980000Y-164345392D01*
X145785132Y-163874938D01*
X145425062Y-163514868D01*
X144954608Y-163320000D01*
X144445392Y-163320000D01*
X143974938Y-163514868D01*
X143614868Y-163874938D01*
X143420000Y-164345392D01*
X139480000Y-164345392D01*
X139285132Y-163874938D01*
X138925062Y-163514868D01*
X138454608Y-163320000D01*
X137945392Y-163320000D01*
X137474938Y-163514868D01*
X137114868Y-163874938D01*
X136920000Y-164345392D01*
X130658855Y-164345392D01*
X129987262Y-163673799D01*
X128708215Y-163144000D01*
X127323785Y-163144000D01*
X126044738Y-163673799D01*
X125065799Y-164652738D01*
X124546000Y-165907643D01*
X124546000Y-159845392D01*
X136920000Y-159845392D01*
X136920000Y-160354608D01*
X137114868Y-160825062D01*
X137474938Y-161185132D01*
X137945392Y-161380000D01*
X138454608Y-161380000D01*
X138925062Y-161185132D01*
X139285132Y-160825062D01*
X139480000Y-160354608D01*
X139480000Y-159845392D01*
X143420000Y-159845392D01*
X143420000Y-160354608D01*
X143614868Y-160825062D01*
X143974938Y-161185132D01*
X144445392Y-161380000D01*
X144954608Y-161380000D01*
X145425062Y-161185132D01*
X145785132Y-160825062D01*
X145980000Y-160354608D01*
X145980000Y-159845392D01*
X145785132Y-159374938D01*
X145425062Y-159014868D01*
X144954608Y-158820000D01*
X144445392Y-158820000D01*
X143974938Y-159014868D01*
X143614868Y-159374938D01*
X143420000Y-159845392D01*
X139480000Y-159845392D01*
X139285132Y-159374938D01*
X138925062Y-159014868D01*
X138454608Y-158820000D01*
X137945392Y-158820000D01*
X137474938Y-159014868D01*
X137114868Y-159374938D01*
X136920000Y-159845392D01*
X124546000Y-159845392D01*
X124546000Y-116268400D01*
X124550480Y-116290924D01*
X124570129Y-116389705D01*
X124649696Y-116508785D01*
X124679752Y-116528868D01*
X124905144Y-116754260D01*
X124905144Y-118602000D01*
X124932308Y-118738563D01*
X125009665Y-118854335D01*
X125036102Y-118872000D01*
X125009665Y-118889665D01*
X124932308Y-119005437D01*
X124905144Y-119142000D01*
X124905144Y-121142000D01*
X124932308Y-121278563D01*
X125009665Y-121394335D01*
X125036102Y-121412000D01*
X125009665Y-121429665D01*
X124932308Y-121545437D01*
X124905144Y-121682000D01*
X124905144Y-123682000D01*
X124932308Y-123818563D01*
X125009665Y-123934335D01*
X125125437Y-124011692D01*
X125262000Y-124038856D01*
X126150028Y-124038856D01*
X124928480Y-125260404D01*
X124898424Y-125280487D01*
X124878342Y-125310542D01*
X124818857Y-125399567D01*
X124790917Y-125540031D01*
X124797969Y-125575484D01*
X124797970Y-143917379D01*
X124790917Y-143952837D01*
X124818857Y-144093301D01*
X124818858Y-144093302D01*
X124898425Y-144212382D01*
X124928481Y-144232465D01*
X132445503Y-151749488D01*
X132465586Y-151779544D01*
X132584666Y-151859111D01*
X132689678Y-151879999D01*
X132689681Y-151879999D01*
X132725130Y-151887050D01*
X132760579Y-151879999D01*
X133084514Y-151879999D01*
X133007988Y-152064749D01*
X133007988Y-152335269D01*
X133111512Y-152585198D01*
X133302799Y-152776485D01*
X133552728Y-152880009D01*
X133823248Y-152880009D01*
X134073177Y-152776485D01*
X134264464Y-152585198D01*
X134274898Y-152560009D01*
X141914538Y-152560009D01*
X141949991Y-152567061D01*
X141985444Y-152560009D01*
X142090456Y-152539121D01*
X142209536Y-152459554D01*
X142229621Y-152429495D01*
X154661489Y-139997628D01*
X154691545Y-139977545D01*
X154771112Y-139858465D01*
X154792000Y-139753453D01*
X154792000Y-139753449D01*
X154799051Y-139718001D01*
X154792000Y-139682553D01*
X154792000Y-110060910D01*
X154817189Y-110050476D01*
X155008476Y-109859189D01*
X155112000Y-109609260D01*
X155112000Y-109338740D01*
X155008476Y-109088811D01*
X154817189Y-108897524D01*
X154567260Y-108794000D01*
X154296740Y-108794000D01*
X154046811Y-108897524D01*
X153855524Y-109088811D01*
X153752000Y-109338740D01*
X153752000Y-109609260D01*
X153855524Y-109859189D01*
X154046811Y-110050476D01*
X154072000Y-110060910D01*
X154072001Y-139568882D01*
X153510000Y-140130883D01*
X153510000Y-110586910D01*
X153535189Y-110576476D01*
X153726476Y-110385189D01*
X153830000Y-110135260D01*
X153830000Y-109864740D01*
X153726476Y-109614811D01*
X153535189Y-109423524D01*
X153285260Y-109320000D01*
X153014740Y-109320000D01*
X152764811Y-109423524D01*
X152573524Y-109614811D01*
X152470000Y-109864740D01*
X152470000Y-110135260D01*
X152573524Y-110385189D01*
X152764811Y-110576476D01*
X152790000Y-110586910D01*
X152790000Y-110601137D01*
X152790001Y-110601142D01*
X152790001Y-120299752D01*
X150728000Y-118237752D01*
X150728000Y-95291453D01*
X150735052Y-95256000D01*
X150707112Y-95115535D01*
X150647627Y-95026510D01*
X150647625Y-95026508D01*
X150627544Y-94996455D01*
X150597491Y-94976374D01*
X150387629Y-94766513D01*
X150367545Y-94736455D01*
X150248465Y-94656888D01*
X150233485Y-94653908D01*
X150233485Y-94146000D01*
X150211754Y-94036750D01*
X150149868Y-93944132D01*
X150057250Y-93882246D01*
X149948000Y-93860515D01*
X148248000Y-93860515D01*
X148138750Y-93882246D01*
X148046132Y-93944132D01*
X147984246Y-94036750D01*
X147962515Y-94146000D01*
X147962515Y-95846000D01*
X147973787Y-95902671D01*
X147687628Y-95616512D01*
X147687626Y-95616509D01*
X147576608Y-95505492D01*
X147622437Y-95436904D01*
X147710138Y-94996000D01*
X147622437Y-94555096D01*
X147372685Y-94181315D01*
X146998904Y-93931563D01*
X146669296Y-93866000D01*
X146446704Y-93866000D01*
X146117096Y-93931563D01*
X145743315Y-94181315D01*
X145493563Y-94555096D01*
X145405862Y-94996000D01*
X145493563Y-95436904D01*
X145743315Y-95810685D01*
X146117096Y-96060437D01*
X146446704Y-96126000D01*
X146669296Y-96126000D01*
X146998904Y-96060437D01*
X147067492Y-96014608D01*
X147178509Y-96125626D01*
X147178512Y-96125628D01*
X147470265Y-96417382D01*
X147470265Y-96867354D01*
X147372685Y-96721315D01*
X146998904Y-96471563D01*
X146669296Y-96406000D01*
X146446704Y-96406000D01*
X146117096Y-96471563D01*
X145743315Y-96721315D01*
X145529998Y-97040567D01*
X145529998Y-96183446D01*
X145537049Y-96147997D01*
X145529998Y-96112546D01*
X145529998Y-96112545D01*
X145509110Y-96007533D01*
X145474175Y-95955250D01*
X145449625Y-95918508D01*
X145449623Y-95918506D01*
X145429542Y-95888453D01*
X145399489Y-95868372D01*
X145036608Y-95505492D01*
X145082437Y-95436904D01*
X145170138Y-94996000D01*
X145082437Y-94555096D01*
X144832685Y-94181315D01*
X144458904Y-93931563D01*
X144129296Y-93866000D01*
X143906704Y-93866000D01*
X143577096Y-93931563D01*
X143203315Y-94181315D01*
X142953563Y-94555096D01*
X142865862Y-94996000D01*
X142953563Y-95436904D01*
X143203315Y-95810685D01*
X143577096Y-96060437D01*
X143906704Y-96126000D01*
X144129296Y-96126000D01*
X144458904Y-96060437D01*
X144527492Y-96014608D01*
X144809998Y-96297115D01*
X144809998Y-96706156D01*
X144458904Y-96471563D01*
X144129296Y-96406000D01*
X143906704Y-96406000D01*
X143577096Y-96471563D01*
X143203315Y-96721315D01*
X143110000Y-96860971D01*
X143110000Y-96303453D01*
X143117052Y-96268000D01*
X143089112Y-96127535D01*
X143029627Y-96038510D01*
X143029625Y-96038508D01*
X143009544Y-96008455D01*
X142979491Y-95988374D01*
X142496608Y-95505492D01*
X142542437Y-95436904D01*
X142630138Y-94996000D01*
X142542437Y-94555096D01*
X142292685Y-94181315D01*
X141918904Y-93931563D01*
X141589296Y-93866000D01*
X141366704Y-93866000D01*
X141037096Y-93931563D01*
X140663315Y-94181315D01*
X140413563Y-94555096D01*
X140325862Y-94996000D01*
X140413563Y-95436904D01*
X140663315Y-95810685D01*
X141037096Y-96060437D01*
X141366704Y-96126000D01*
X141589296Y-96126000D01*
X141918904Y-96060437D01*
X141987492Y-96014608D01*
X142390000Y-96417117D01*
X142390000Y-96866958D01*
X142292685Y-96721315D01*
X141918904Y-96471563D01*
X141589296Y-96406000D01*
X141366704Y-96406000D01*
X141037096Y-96471563D01*
X140663315Y-96721315D01*
X140413563Y-97095096D01*
X140325862Y-97536000D01*
X140413563Y-97976904D01*
X140663315Y-98350685D01*
X141037096Y-98600437D01*
X141118000Y-98616530D01*
X141118001Y-103224354D01*
X140147999Y-104194356D01*
X140147999Y-98421447D01*
X140155050Y-98385998D01*
X140147999Y-98350547D01*
X140147999Y-98350546D01*
X140127111Y-98245534D01*
X140075601Y-98168445D01*
X140067626Y-98156509D01*
X140067624Y-98156507D01*
X140047543Y-98126454D01*
X140017490Y-98106373D01*
X139956608Y-98045492D01*
X140002437Y-97976904D01*
X140090138Y-97536000D01*
X140002437Y-97095096D01*
X139752685Y-96721315D01*
X139378904Y-96471563D01*
X139049296Y-96406000D01*
X138826704Y-96406000D01*
X138497096Y-96471563D01*
X138123315Y-96721315D01*
X138010000Y-96890903D01*
X138010000Y-96433116D01*
X138428508Y-96014608D01*
X138497096Y-96060437D01*
X138826704Y-96126000D01*
X139049296Y-96126000D01*
X139378904Y-96060437D01*
X139752685Y-95810685D01*
X140002437Y-95436904D01*
X140090138Y-94996000D01*
X140002437Y-94555096D01*
X139752685Y-94181315D01*
X139378904Y-93931563D01*
X139049296Y-93866000D01*
X138826704Y-93866000D01*
X138497096Y-93931563D01*
X138123315Y-94181315D01*
X137873563Y-94555096D01*
X137785862Y-94996000D01*
X137873563Y-95436904D01*
X137919392Y-95505492D01*
X137420511Y-96004373D01*
X137390455Y-96024456D01*
X137331596Y-96112545D01*
X137310888Y-96143536D01*
X137282948Y-96284000D01*
X137290000Y-96319453D01*
X137290000Y-96941381D01*
X137224560Y-96825411D01*
X136889711Y-96563191D01*
X136738185Y-96500445D01*
X136572000Y-96520803D01*
X136572000Y-97362000D01*
X136592000Y-97362000D01*
X136592000Y-97710000D01*
X136572000Y-97710000D01*
X136572000Y-98551197D01*
X136738185Y-98571555D01*
X136889711Y-98508809D01*
X137224560Y-98246589D01*
X137290001Y-98130618D01*
X137290001Y-98392531D01*
X137282948Y-98427989D01*
X137310888Y-98568453D01*
X137310889Y-98568454D01*
X137390456Y-98687534D01*
X137420511Y-98707616D01*
X138684011Y-99971117D01*
X138684012Y-104368859D01*
X137414501Y-105638371D01*
X137414498Y-105638373D01*
X135740884Y-107311988D01*
X132808633Y-107311988D01*
X132907555Y-107213066D01*
X133011079Y-106963137D01*
X133011079Y-106692617D01*
X132907555Y-106442688D01*
X132716268Y-106251401D01*
X132691079Y-106240967D01*
X132691079Y-104718740D01*
X133012000Y-104718740D01*
X133012000Y-104989260D01*
X133115524Y-105239189D01*
X133306811Y-105430476D01*
X133556740Y-105534000D01*
X133827260Y-105534000D01*
X134077189Y-105430476D01*
X134268476Y-105239189D01*
X134278910Y-105214000D01*
X134700871Y-105214000D01*
X135220442Y-105733572D01*
X135210008Y-105758761D01*
X135210008Y-106029281D01*
X135313532Y-106279210D01*
X135504819Y-106470497D01*
X135754748Y-106574021D01*
X136025268Y-106574021D01*
X136275197Y-106470497D01*
X136466484Y-106279210D01*
X136570008Y-106029281D01*
X136570008Y-105758761D01*
X136466484Y-105508832D01*
X136275197Y-105317545D01*
X136025268Y-105214021D01*
X135754748Y-105214021D01*
X135729559Y-105224455D01*
X135129616Y-104624513D01*
X135109532Y-104594455D01*
X134990452Y-104514888D01*
X134885440Y-104494000D01*
X134849987Y-104486948D01*
X134814534Y-104494000D01*
X134278910Y-104494000D01*
X134268476Y-104468811D01*
X134077189Y-104277524D01*
X133827260Y-104174000D01*
X133556740Y-104174000D01*
X133306811Y-104277524D01*
X133115524Y-104468811D01*
X133012000Y-104718740D01*
X132691079Y-104718740D01*
X132691079Y-104224037D01*
X133921489Y-102993628D01*
X133951545Y-102973545D01*
X134031112Y-102854465D01*
X134052000Y-102749453D01*
X134059052Y-102714000D01*
X134052000Y-102678547D01*
X134052000Y-102440910D01*
X134077189Y-102430476D01*
X134268476Y-102239189D01*
X134372000Y-101989260D01*
X134372000Y-101718740D01*
X134268476Y-101468811D01*
X134077189Y-101277524D01*
X133827260Y-101174000D01*
X133556740Y-101174000D01*
X133306811Y-101277524D01*
X133115524Y-101468811D01*
X133012000Y-101718740D01*
X133012000Y-101989260D01*
X133115524Y-102239189D01*
X133306811Y-102430476D01*
X133332001Y-102440910D01*
X133332001Y-102564882D01*
X132101590Y-103795294D01*
X132071534Y-103815377D01*
X132051452Y-103845432D01*
X131991967Y-103934457D01*
X131964027Y-104074921D01*
X131971079Y-104110374D01*
X131971080Y-106226735D01*
X131971079Y-106226740D01*
X131971079Y-106240967D01*
X131945890Y-106251401D01*
X131754603Y-106442688D01*
X131651079Y-106692617D01*
X131651079Y-106963137D01*
X131754603Y-107213066D01*
X131853525Y-107311988D01*
X130618856Y-107311988D01*
X130618856Y-107204000D01*
X130591692Y-107067437D01*
X130514335Y-106951665D01*
X130398563Y-106874308D01*
X130262000Y-106847144D01*
X125262000Y-106847144D01*
X125125437Y-106874308D01*
X125009665Y-106951665D01*
X124946010Y-107046931D01*
X124946010Y-105687106D01*
X129689117Y-100944000D01*
X134978884Y-100944000D01*
X136998434Y-102963551D01*
X136988000Y-102988740D01*
X136988000Y-103259260D01*
X137091524Y-103509189D01*
X137282811Y-103700476D01*
X137532740Y-103804000D01*
X137803260Y-103804000D01*
X138053189Y-103700476D01*
X138244476Y-103509189D01*
X138348000Y-103259260D01*
X138348000Y-102988740D01*
X138244476Y-102738811D01*
X138053189Y-102547524D01*
X137803260Y-102444000D01*
X137532740Y-102444000D01*
X137507551Y-102454434D01*
X135407630Y-100354514D01*
X135387545Y-100324455D01*
X135268465Y-100244888D01*
X135163453Y-100224000D01*
X135128000Y-100216948D01*
X135092547Y-100224000D01*
X129575453Y-100224000D01*
X129540000Y-100216948D01*
X129504547Y-100224000D01*
X129399535Y-100244888D01*
X129280455Y-100324455D01*
X129260372Y-100354511D01*
X124546000Y-105068884D01*
X124546000Y-97490357D01*
X125065799Y-98745262D01*
X126044738Y-99724201D01*
X127323785Y-100254000D01*
X128708215Y-100254000D01*
X129987262Y-99724201D01*
X130966201Y-98745262D01*
X131467094Y-97536000D01*
X132705862Y-97536000D01*
X132793563Y-97976904D01*
X133043315Y-98350685D01*
X133417096Y-98600437D01*
X133746704Y-98666000D01*
X133969296Y-98666000D01*
X134298904Y-98600437D01*
X134672685Y-98350685D01*
X134922437Y-97976904D01*
X134942470Y-97876188D01*
X135362427Y-97876188D01*
X135571440Y-98246589D01*
X135906289Y-98508809D01*
X136057815Y-98571555D01*
X136224000Y-98551197D01*
X136224000Y-97710000D01*
X135381960Y-97710000D01*
X135362427Y-97876188D01*
X134942470Y-97876188D01*
X135010138Y-97536000D01*
X134942471Y-97195812D01*
X135362427Y-97195812D01*
X135381960Y-97362000D01*
X136224000Y-97362000D01*
X136224000Y-96520803D01*
X136057815Y-96500445D01*
X135906289Y-96563191D01*
X135571440Y-96825411D01*
X135362427Y-97195812D01*
X134942471Y-97195812D01*
X134922437Y-97095096D01*
X134672685Y-96721315D01*
X134298904Y-96471563D01*
X133969296Y-96406000D01*
X133746704Y-96406000D01*
X133417096Y-96471563D01*
X133043315Y-96721315D01*
X132793563Y-97095096D01*
X132705862Y-97536000D01*
X131467094Y-97536000D01*
X131496000Y-97466215D01*
X131496000Y-96081785D01*
X131046253Y-94996000D01*
X132705862Y-94996000D01*
X132793563Y-95436904D01*
X133043315Y-95810685D01*
X133417096Y-96060437D01*
X133746704Y-96126000D01*
X133969296Y-96126000D01*
X134298904Y-96060437D01*
X134672685Y-95810685D01*
X134922437Y-95436904D01*
X134942470Y-95336188D01*
X135362427Y-95336188D01*
X135571440Y-95706589D01*
X135906289Y-95968809D01*
X136057815Y-96031555D01*
X136224000Y-96011197D01*
X136224000Y-95170000D01*
X136572000Y-95170000D01*
X136572000Y-96011197D01*
X136738185Y-96031555D01*
X136889711Y-95968809D01*
X137224560Y-95706589D01*
X137433573Y-95336188D01*
X137414040Y-95170000D01*
X136572000Y-95170000D01*
X136224000Y-95170000D01*
X135381960Y-95170000D01*
X135362427Y-95336188D01*
X134942470Y-95336188D01*
X135010138Y-94996000D01*
X134942471Y-94655812D01*
X135362427Y-94655812D01*
X135381960Y-94822000D01*
X136224000Y-94822000D01*
X136224000Y-93980803D01*
X136572000Y-93980803D01*
X136572000Y-94822000D01*
X137414040Y-94822000D01*
X137433573Y-94655812D01*
X137224560Y-94285411D01*
X136889711Y-94023191D01*
X136738185Y-93960445D01*
X136572000Y-93980803D01*
X136224000Y-93980803D01*
X136057815Y-93960445D01*
X135906289Y-94023191D01*
X135571440Y-94285411D01*
X135362427Y-94655812D01*
X134942471Y-94655812D01*
X134922437Y-94555096D01*
X134672685Y-94181315D01*
X134298904Y-93931563D01*
X133969296Y-93866000D01*
X133746704Y-93866000D01*
X133417096Y-93931563D01*
X133043315Y-94181315D01*
X132793563Y-94555096D01*
X132705862Y-94996000D01*
X131046253Y-94996000D01*
X130966201Y-94802738D01*
X129987262Y-93823799D01*
X128732357Y-93304000D01*
X153969643Y-93304000D01*
X152714738Y-93823799D01*
G36*
X130934674Y-108115908D02*
X130831150Y-108365837D01*
X130831150Y-108636357D01*
X130934674Y-108886286D01*
X131125961Y-109077573D01*
X131375890Y-109181097D01*
X131646410Y-109181097D01*
X131896339Y-109077573D01*
X132087626Y-108886286D01*
X132191150Y-108636357D01*
X132191150Y-108408405D01*
X134529990Y-108408405D01*
X134529990Y-108583664D01*
X134633514Y-108833593D01*
X134824801Y-109024880D01*
X135074730Y-109128404D01*
X135218479Y-109128404D01*
X134344763Y-110002121D01*
X134314707Y-110022204D01*
X134239165Y-110135260D01*
X134235140Y-110141284D01*
X134207200Y-110281748D01*
X134214252Y-110317201D01*
X134214252Y-110435427D01*
X134041402Y-110262577D01*
X133791473Y-110159053D01*
X133520953Y-110159053D01*
X133271024Y-110262577D01*
X133079737Y-110453864D01*
X132976213Y-110703793D01*
X132976213Y-110974313D01*
X133079737Y-111224242D01*
X133271024Y-111415529D01*
X133520953Y-111519053D01*
X133532457Y-111519053D01*
X133532456Y-117095438D01*
X133456510Y-117171384D01*
X133426454Y-117191467D01*
X133406371Y-117221523D01*
X133346886Y-117310548D01*
X133318946Y-117451012D01*
X133325999Y-117486470D01*
X133325998Y-121788545D01*
X133318946Y-121823998D01*
X133325998Y-121859450D01*
X133346886Y-121964462D01*
X133426453Y-122083542D01*
X133456509Y-122103625D01*
X133620434Y-122267550D01*
X133610000Y-122292740D01*
X133610000Y-122563260D01*
X133713524Y-122813189D01*
X133904811Y-123004476D01*
X134154740Y-123108000D01*
X134192883Y-123108000D01*
X132710884Y-124590000D01*
X132079133Y-124590000D01*
X132043680Y-124582948D01*
X132008227Y-124590000D01*
X131903215Y-124610888D01*
X131784135Y-124690455D01*
X131764052Y-124720511D01*
X130471753Y-126012811D01*
X130471750Y-126012813D01*
X130461690Y-126022873D01*
X130436501Y-126012439D01*
X130165981Y-126012439D01*
X129916052Y-126115963D01*
X129724765Y-126307250D01*
X129621241Y-126557179D01*
X129621241Y-126827699D01*
X129724765Y-127077628D01*
X129916052Y-127268915D01*
X130165981Y-127372439D01*
X130436501Y-127372439D01*
X130686430Y-127268915D01*
X130877717Y-127077628D01*
X130981241Y-126827699D01*
X130981241Y-126557179D01*
X130970807Y-126531990D01*
X130980867Y-126521930D01*
X130980869Y-126521927D01*
X132192797Y-125310000D01*
X132824547Y-125310000D01*
X132860000Y-125317052D01*
X132895453Y-125310000D01*
X133000465Y-125289112D01*
X133082758Y-125234126D01*
X130417940Y-127898944D01*
X130285292Y-127844000D01*
X130014772Y-127844000D01*
X129764843Y-127947524D01*
X129573556Y-128138811D01*
X129470032Y-128388740D01*
X129470032Y-128659260D01*
X129573556Y-128909189D01*
X129764843Y-129100476D01*
X130014772Y-129204000D01*
X130285292Y-129204000D01*
X130535221Y-129100476D01*
X130726508Y-128909189D01*
X130830032Y-128659260D01*
X130830032Y-128505084D01*
X134459551Y-124875566D01*
X134484740Y-124886000D01*
X134716038Y-124886000D01*
X131670511Y-127931528D01*
X131640455Y-127951611D01*
X131620373Y-127981666D01*
X131560888Y-128070691D01*
X131532948Y-128211155D01*
X131540000Y-128246608D01*
X131540001Y-129048858D01*
X131540000Y-129048863D01*
X131540000Y-129063090D01*
X131514811Y-129073524D01*
X131323524Y-129264811D01*
X131220000Y-129514740D01*
X131220000Y-129785260D01*
X131323524Y-130035189D01*
X131514811Y-130226476D01*
X131764740Y-130330000D01*
X132035260Y-130330000D01*
X132285189Y-130226476D01*
X132416932Y-130094733D01*
X134594000Y-130094733D01*
X134594000Y-130509267D01*
X134752635Y-130892246D01*
X135045754Y-131185365D01*
X135428733Y-131344000D01*
X135843267Y-131344000D01*
X136226246Y-131185365D01*
X136519365Y-130892246D01*
X136678000Y-130509267D01*
X136678000Y-130094733D01*
X137134000Y-130094733D01*
X137134000Y-130509267D01*
X137292635Y-130892246D01*
X137585754Y-131185365D01*
X137968733Y-131344000D01*
X138383267Y-131344000D01*
X138766246Y-131185365D01*
X139059365Y-130892246D01*
X139218000Y-130509267D01*
X139218000Y-130094733D01*
X139059365Y-129711754D01*
X138766246Y-129418635D01*
X138383267Y-129260000D01*
X137968733Y-129260000D01*
X137585754Y-129418635D01*
X137292635Y-129711754D01*
X137134000Y-130094733D01*
X136678000Y-130094733D01*
X136519365Y-129711754D01*
X136226246Y-129418635D01*
X135843267Y-129260000D01*
X135428733Y-129260000D01*
X135045754Y-129418635D01*
X134752635Y-129711754D01*
X134594000Y-130094733D01*
X132416932Y-130094733D01*
X132476476Y-130035189D01*
X132580000Y-129785260D01*
X132580000Y-129514740D01*
X132476476Y-129264811D01*
X132285189Y-129073524D01*
X132260000Y-129063090D01*
X132260000Y-128360271D01*
X135488023Y-125132249D01*
X135488023Y-125762560D01*
X135480970Y-125798018D01*
X135508910Y-125938482D01*
X135539721Y-125984593D01*
X135588478Y-126057563D01*
X135618533Y-126077645D01*
X136930436Y-127389549D01*
X136920002Y-127414738D01*
X136920002Y-127685258D01*
X137023526Y-127935187D01*
X137214813Y-128126474D01*
X137464742Y-128229998D01*
X137735262Y-128229998D01*
X137985191Y-128126474D01*
X138176478Y-127935187D01*
X138280002Y-127685258D01*
X138280002Y-127414738D01*
X138176478Y-127164809D01*
X138066667Y-127054998D01*
X138244476Y-126877189D01*
X138348000Y-126627260D01*
X138348000Y-126356740D01*
X138244476Y-126106811D01*
X138053189Y-125915524D01*
X137803260Y-125812000D01*
X137532740Y-125812000D01*
X137507551Y-125822434D01*
X136568033Y-124882917D01*
X136568033Y-124649999D01*
X138437068Y-124649999D01*
X138445002Y-124689886D01*
X138445001Y-128396118D01*
X138437068Y-128436001D01*
X138445001Y-128475884D01*
X138445001Y-128475887D01*
X138468500Y-128594023D01*
X138558013Y-128727989D01*
X138591830Y-128750585D01*
X139750731Y-129909487D01*
X139674000Y-130094733D01*
X139674000Y-130509267D01*
X139832635Y-130892246D01*
X140125754Y-131185365D01*
X140508733Y-131344000D01*
X140923267Y-131344000D01*
X141306246Y-131185365D01*
X141599365Y-130892246D01*
X141758000Y-130509267D01*
X141758000Y-130094733D01*
X141599365Y-129711754D01*
X141306246Y-129418635D01*
X140923267Y-129260000D01*
X140508733Y-129260000D01*
X140323487Y-129336731D01*
X139255001Y-128268246D01*
X139255001Y-124930000D01*
X139385260Y-124930000D01*
X139635189Y-124826476D01*
X139826476Y-124635189D01*
X139930000Y-124385260D01*
X139930000Y-124114740D01*
X139826476Y-123864811D01*
X139635189Y-123673524D01*
X139385260Y-123570000D01*
X139114740Y-123570000D01*
X138864811Y-123673524D01*
X138673524Y-123864811D01*
X138570000Y-124114740D01*
X138570000Y-124350002D01*
X138558014Y-124358011D01*
X138535420Y-124391825D01*
X138535419Y-124391826D01*
X138468500Y-124491977D01*
X138437068Y-124649999D01*
X136568033Y-124649999D01*
X136568033Y-123055477D01*
X136752783Y-123132003D01*
X137023303Y-123132003D01*
X137273232Y-123028479D01*
X137464519Y-122837192D01*
X137568043Y-122587263D01*
X137568043Y-122316743D01*
X137464519Y-122066814D01*
X137375379Y-121977674D01*
X137391303Y-121967034D01*
X137480816Y-121833069D01*
X137504315Y-121714933D01*
X137504315Y-121714929D01*
X137512248Y-121675046D01*
X137504315Y-121635163D01*
X137504315Y-117811819D01*
X137532328Y-117853744D01*
X137566145Y-117876340D01*
X140020398Y-120330594D01*
X140020397Y-121850725D01*
X139848921Y-122022201D01*
X139745397Y-122272130D01*
X139745397Y-122542650D01*
X139848921Y-122792579D01*
X140040208Y-122983866D01*
X140290137Y-123087390D01*
X140560657Y-123087390D01*
X140810586Y-122983866D01*
X141001873Y-122792579D01*
X141105397Y-122542650D01*
X141105397Y-122272130D01*
X141001873Y-122022201D01*
X140830397Y-121850725D01*
X140830397Y-120504182D01*
X141759955Y-121433740D01*
X141759956Y-124882939D01*
X140830524Y-125812372D01*
X140830521Y-125812374D01*
X140820461Y-125822434D01*
X140795272Y-125812000D01*
X140524752Y-125812000D01*
X140274823Y-125915524D01*
X140083536Y-126106811D01*
X139980012Y-126356740D01*
X139980012Y-126627260D01*
X140083536Y-126877189D01*
X140274823Y-127068476D01*
X140524752Y-127172000D01*
X140795272Y-127172000D01*
X141045201Y-127068476D01*
X141236488Y-126877189D01*
X141340012Y-126627260D01*
X141340012Y-126356740D01*
X141329578Y-126331551D01*
X141339638Y-126321491D01*
X141339640Y-126321488D01*
X142119965Y-125541164D01*
X142119965Y-125622827D01*
X142112913Y-125658280D01*
X142121941Y-125703665D01*
X142140853Y-125798744D01*
X142220420Y-125917824D01*
X142250476Y-125937907D01*
X142295452Y-125982883D01*
X142171524Y-126106811D01*
X142068000Y-126356740D01*
X142068000Y-126627260D01*
X142171524Y-126877189D01*
X142362811Y-127068476D01*
X142612740Y-127172000D01*
X142883260Y-127172000D01*
X143133189Y-127068476D01*
X143324476Y-126877189D01*
X143428000Y-126627260D01*
X143428000Y-126356740D01*
X143324476Y-126106811D01*
X143133189Y-125915524D01*
X143111084Y-125906368D01*
X143087112Y-125785850D01*
X143046419Y-125724949D01*
X143007545Y-125666770D01*
X142977489Y-125646687D01*
X142839965Y-125509164D01*
X142839965Y-123041908D01*
X143035763Y-123123010D01*
X143306283Y-123123010D01*
X143556212Y-123019486D01*
X143715698Y-122860000D01*
X145370917Y-122860000D01*
X145294811Y-122891524D01*
X145103524Y-123082811D01*
X145000000Y-123332740D01*
X145000000Y-123603260D01*
X145010434Y-123628450D01*
X144193511Y-124445373D01*
X144163455Y-124465456D01*
X144143373Y-124495511D01*
X144083888Y-124584536D01*
X144055948Y-124725000D01*
X144063000Y-124760453D01*
X144063001Y-129635390D01*
X143846246Y-129418635D01*
X143463267Y-129260000D01*
X143048733Y-129260000D01*
X142665754Y-129418635D01*
X142372635Y-129711754D01*
X142214000Y-130094733D01*
X142214000Y-130509267D01*
X142372635Y-130892246D01*
X142665754Y-131185365D01*
X143048733Y-131344000D01*
X143463267Y-131344000D01*
X143606009Y-131284874D01*
X143061477Y-131829407D01*
X130290793Y-131829407D01*
X130280359Y-131804218D01*
X130089072Y-131612931D01*
X129839143Y-131509407D01*
X129568623Y-131509407D01*
X129383881Y-131585930D01*
X129383881Y-126334367D01*
X132688314Y-123029935D01*
X132718367Y-123009854D01*
X132738448Y-122979801D01*
X132738450Y-122979799D01*
X132797935Y-122890774D01*
X132825875Y-122750309D01*
X132818823Y-122714856D01*
X132818823Y-110080469D01*
X132891720Y-110050274D01*
X133083007Y-109858987D01*
X133186531Y-109609058D01*
X133186531Y-109338538D01*
X133083007Y-109088609D01*
X132891720Y-108897322D01*
X132641791Y-108793798D01*
X132371271Y-108793798D01*
X132121342Y-108897322D01*
X131930055Y-109088609D01*
X131826531Y-109338538D01*
X131826531Y-109609058D01*
X131930055Y-109858987D01*
X132098824Y-110027756D01*
X132098824Y-116037161D01*
X131985189Y-115923526D01*
X131960000Y-115913092D01*
X131960000Y-111961775D01*
X131967051Y-111926327D01*
X131960000Y-111890879D01*
X131960000Y-111890875D01*
X131939112Y-111785863D01*
X131888676Y-111710381D01*
X131879627Y-111696838D01*
X131879625Y-111696836D01*
X131859544Y-111666783D01*
X131829491Y-111646702D01*
X130697301Y-110514513D01*
X130677217Y-110484455D01*
X130618856Y-110445459D01*
X130618856Y-109744000D01*
X130591692Y-109607437D01*
X130514335Y-109491665D01*
X130487898Y-109474000D01*
X130514335Y-109456335D01*
X130591692Y-109340563D01*
X130618856Y-109204000D01*
X130618856Y-108031988D01*
X131018594Y-108031988D01*
X130934674Y-108115908D01*
X130934674Y-108115908D01*
G37*
X130934674Y-108115908D02*
X130831150Y-108365837D01*
X130831150Y-108636357D01*
X130934674Y-108886286D01*
X131125961Y-109077573D01*
X131375890Y-109181097D01*
X131646410Y-109181097D01*
X131896339Y-109077573D01*
X132087626Y-108886286D01*
X132191150Y-108636357D01*
X132191150Y-108408405D01*
X134529990Y-108408405D01*
X134529990Y-108583664D01*
X134633514Y-108833593D01*
X134824801Y-109024880D01*
X135074730Y-109128404D01*
X135218479Y-109128404D01*
X134344763Y-110002121D01*
X134314707Y-110022204D01*
X134239165Y-110135260D01*
X134235140Y-110141284D01*
X134207200Y-110281748D01*
X134214252Y-110317201D01*
X134214252Y-110435427D01*
X134041402Y-110262577D01*
X133791473Y-110159053D01*
X133520953Y-110159053D01*
X133271024Y-110262577D01*
X133079737Y-110453864D01*
X132976213Y-110703793D01*
X132976213Y-110974313D01*
X133079737Y-111224242D01*
X133271024Y-111415529D01*
X133520953Y-111519053D01*
X133532457Y-111519053D01*
X133532456Y-117095438D01*
X133456510Y-117171384D01*
X133426454Y-117191467D01*
X133406371Y-117221523D01*
X133346886Y-117310548D01*
X133318946Y-117451012D01*
X133325999Y-117486470D01*
X133325998Y-121788545D01*
X133318946Y-121823998D01*
X133325998Y-121859450D01*
X133346886Y-121964462D01*
X133426453Y-122083542D01*
X133456509Y-122103625D01*
X133620434Y-122267550D01*
X133610000Y-122292740D01*
X133610000Y-122563260D01*
X133713524Y-122813189D01*
X133904811Y-123004476D01*
X134154740Y-123108000D01*
X134192883Y-123108000D01*
X132710884Y-124590000D01*
X132079133Y-124590000D01*
X132043680Y-124582948D01*
X132008227Y-124590000D01*
X131903215Y-124610888D01*
X131784135Y-124690455D01*
X131764052Y-124720511D01*
X130471753Y-126012811D01*
X130471750Y-126012813D01*
X130461690Y-126022873D01*
X130436501Y-126012439D01*
X130165981Y-126012439D01*
X129916052Y-126115963D01*
X129724765Y-126307250D01*
X129621241Y-126557179D01*
X129621241Y-126827699D01*
X129724765Y-127077628D01*
X129916052Y-127268915D01*
X130165981Y-127372439D01*
X130436501Y-127372439D01*
X130686430Y-127268915D01*
X130877717Y-127077628D01*
X130981241Y-126827699D01*
X130981241Y-126557179D01*
X130970807Y-126531990D01*
X130980867Y-126521930D01*
X130980869Y-126521927D01*
X132192797Y-125310000D01*
X132824547Y-125310000D01*
X132860000Y-125317052D01*
X132895453Y-125310000D01*
X133000465Y-125289112D01*
X133082758Y-125234126D01*
X130417940Y-127898944D01*
X130285292Y-127844000D01*
X130014772Y-127844000D01*
X129764843Y-127947524D01*
X129573556Y-128138811D01*
X129470032Y-128388740D01*
X129470032Y-128659260D01*
X129573556Y-128909189D01*
X129764843Y-129100476D01*
X130014772Y-129204000D01*
X130285292Y-129204000D01*
X130535221Y-129100476D01*
X130726508Y-128909189D01*
X130830032Y-128659260D01*
X130830032Y-128505084D01*
X134459551Y-124875566D01*
X134484740Y-124886000D01*
X134716038Y-124886000D01*
X131670511Y-127931528D01*
X131640455Y-127951611D01*
X131620373Y-127981666D01*
X131560888Y-128070691D01*
X131532948Y-128211155D01*
X131540000Y-128246608D01*
X131540001Y-129048858D01*
X131540000Y-129048863D01*
X131540000Y-129063090D01*
X131514811Y-129073524D01*
X131323524Y-129264811D01*
X131220000Y-129514740D01*
X131220000Y-129785260D01*
X131323524Y-130035189D01*
X131514811Y-130226476D01*
X131764740Y-130330000D01*
X132035260Y-130330000D01*
X132285189Y-130226476D01*
X132416932Y-130094733D01*
X134594000Y-130094733D01*
X134594000Y-130509267D01*
X134752635Y-130892246D01*
X135045754Y-131185365D01*
X135428733Y-131344000D01*
X135843267Y-131344000D01*
X136226246Y-131185365D01*
X136519365Y-130892246D01*
X136678000Y-130509267D01*
X136678000Y-130094733D01*
X137134000Y-130094733D01*
X137134000Y-130509267D01*
X137292635Y-130892246D01*
X137585754Y-131185365D01*
X137968733Y-131344000D01*
X138383267Y-131344000D01*
X138766246Y-131185365D01*
X139059365Y-130892246D01*
X139218000Y-130509267D01*
X139218000Y-130094733D01*
X139059365Y-129711754D01*
X138766246Y-129418635D01*
X138383267Y-129260000D01*
X137968733Y-129260000D01*
X137585754Y-129418635D01*
X137292635Y-129711754D01*
X137134000Y-130094733D01*
X136678000Y-130094733D01*
X136519365Y-129711754D01*
X136226246Y-129418635D01*
X135843267Y-129260000D01*
X135428733Y-129260000D01*
X135045754Y-129418635D01*
X134752635Y-129711754D01*
X134594000Y-130094733D01*
X132416932Y-130094733D01*
X132476476Y-130035189D01*
X132580000Y-129785260D01*
X132580000Y-129514740D01*
X132476476Y-129264811D01*
X132285189Y-129073524D01*
X132260000Y-129063090D01*
X132260000Y-128360271D01*
X135488023Y-125132249D01*
X135488023Y-125762560D01*
X135480970Y-125798018D01*
X135508910Y-125938482D01*
X135539721Y-125984593D01*
X135588478Y-126057563D01*
X135618533Y-126077645D01*
X136930436Y-127389549D01*
X136920002Y-127414738D01*
X136920002Y-127685258D01*
X137023526Y-127935187D01*
X137214813Y-128126474D01*
X137464742Y-128229998D01*
X137735262Y-128229998D01*
X137985191Y-128126474D01*
X138176478Y-127935187D01*
X138280002Y-127685258D01*
X138280002Y-127414738D01*
X138176478Y-127164809D01*
X138066667Y-127054998D01*
X138244476Y-126877189D01*
X138348000Y-126627260D01*
X138348000Y-126356740D01*
X138244476Y-126106811D01*
X138053189Y-125915524D01*
X137803260Y-125812000D01*
X137532740Y-125812000D01*
X137507551Y-125822434D01*
X136568033Y-124882917D01*
X136568033Y-124649999D01*
X138437068Y-124649999D01*
X138445002Y-124689886D01*
X138445001Y-128396118D01*
X138437068Y-128436001D01*
X138445001Y-128475884D01*
X138445001Y-128475887D01*
X138468500Y-128594023D01*
X138558013Y-128727989D01*
X138591830Y-128750585D01*
X139750731Y-129909487D01*
X139674000Y-130094733D01*
X139674000Y-130509267D01*
X139832635Y-130892246D01*
X140125754Y-131185365D01*
X140508733Y-131344000D01*
X140923267Y-131344000D01*
X141306246Y-131185365D01*
X141599365Y-130892246D01*
X141758000Y-130509267D01*
X141758000Y-130094733D01*
X141599365Y-129711754D01*
X141306246Y-129418635D01*
X140923267Y-129260000D01*
X140508733Y-129260000D01*
X140323487Y-129336731D01*
X139255001Y-128268246D01*
X139255001Y-124930000D01*
X139385260Y-124930000D01*
X139635189Y-124826476D01*
X139826476Y-124635189D01*
X139930000Y-124385260D01*
X139930000Y-124114740D01*
X139826476Y-123864811D01*
X139635189Y-123673524D01*
X139385260Y-123570000D01*
X139114740Y-123570000D01*
X138864811Y-123673524D01*
X138673524Y-123864811D01*
X138570000Y-124114740D01*
X138570000Y-124350002D01*
X138558014Y-124358011D01*
X138535420Y-124391825D01*
X138535419Y-124391826D01*
X138468500Y-124491977D01*
X138437068Y-124649999D01*
X136568033Y-124649999D01*
X136568033Y-123055477D01*
X136752783Y-123132003D01*
X137023303Y-123132003D01*
X137273232Y-123028479D01*
X137464519Y-122837192D01*
X137568043Y-122587263D01*
X137568043Y-122316743D01*
X137464519Y-122066814D01*
X137375379Y-121977674D01*
X137391303Y-121967034D01*
X137480816Y-121833069D01*
X137504315Y-121714933D01*
X137504315Y-121714929D01*
X137512248Y-121675046D01*
X137504315Y-121635163D01*
X137504315Y-117811819D01*
X137532328Y-117853744D01*
X137566145Y-117876340D01*
X140020398Y-120330594D01*
X140020397Y-121850725D01*
X139848921Y-122022201D01*
X139745397Y-122272130D01*
X139745397Y-122542650D01*
X139848921Y-122792579D01*
X140040208Y-122983866D01*
X140290137Y-123087390D01*
X140560657Y-123087390D01*
X140810586Y-122983866D01*
X141001873Y-122792579D01*
X141105397Y-122542650D01*
X141105397Y-122272130D01*
X141001873Y-122022201D01*
X140830397Y-121850725D01*
X140830397Y-120504182D01*
X141759955Y-121433740D01*
X141759956Y-124882939D01*
X140830524Y-125812372D01*
X140830521Y-125812374D01*
X140820461Y-125822434D01*
X140795272Y-125812000D01*
X140524752Y-125812000D01*
X140274823Y-125915524D01*
X140083536Y-126106811D01*
X139980012Y-126356740D01*
X139980012Y-126627260D01*
X140083536Y-126877189D01*
X140274823Y-127068476D01*
X140524752Y-127172000D01*
X140795272Y-127172000D01*
X141045201Y-127068476D01*
X141236488Y-126877189D01*
X141340012Y-126627260D01*
X141340012Y-126356740D01*
X141329578Y-126331551D01*
X141339638Y-126321491D01*
X141339640Y-126321488D01*
X142119965Y-125541164D01*
X142119965Y-125622827D01*
X142112913Y-125658280D01*
X142121941Y-125703665D01*
X142140853Y-125798744D01*
X142220420Y-125917824D01*
X142250476Y-125937907D01*
X142295452Y-125982883D01*
X142171524Y-126106811D01*
X142068000Y-126356740D01*
X142068000Y-126627260D01*
X142171524Y-126877189D01*
X142362811Y-127068476D01*
X142612740Y-127172000D01*
X142883260Y-127172000D01*
X143133189Y-127068476D01*
X143324476Y-126877189D01*
X143428000Y-126627260D01*
X143428000Y-126356740D01*
X143324476Y-126106811D01*
X143133189Y-125915524D01*
X143111084Y-125906368D01*
X143087112Y-125785850D01*
X143046419Y-125724949D01*
X143007545Y-125666770D01*
X142977489Y-125646687D01*
X142839965Y-125509164D01*
X142839965Y-123041908D01*
X143035763Y-123123010D01*
X143306283Y-123123010D01*
X143556212Y-123019486D01*
X143715698Y-122860000D01*
X145370917Y-122860000D01*
X145294811Y-122891524D01*
X145103524Y-123082811D01*
X145000000Y-123332740D01*
X145000000Y-123603260D01*
X145010434Y-123628450D01*
X144193511Y-124445373D01*
X144163455Y-124465456D01*
X144143373Y-124495511D01*
X144083888Y-124584536D01*
X144055948Y-124725000D01*
X144063000Y-124760453D01*
X144063001Y-129635390D01*
X143846246Y-129418635D01*
X143463267Y-129260000D01*
X143048733Y-129260000D01*
X142665754Y-129418635D01*
X142372635Y-129711754D01*
X142214000Y-130094733D01*
X142214000Y-130509267D01*
X142372635Y-130892246D01*
X142665754Y-131185365D01*
X143048733Y-131344000D01*
X143463267Y-131344000D01*
X143606009Y-131284874D01*
X143061477Y-131829407D01*
X130290793Y-131829407D01*
X130280359Y-131804218D01*
X130089072Y-131612931D01*
X129839143Y-131509407D01*
X129568623Y-131509407D01*
X129383881Y-131585930D01*
X129383881Y-126334367D01*
X132688314Y-123029935D01*
X132718367Y-123009854D01*
X132738448Y-122979801D01*
X132738450Y-122979799D01*
X132797935Y-122890774D01*
X132825875Y-122750309D01*
X132818823Y-122714856D01*
X132818823Y-110080469D01*
X132891720Y-110050274D01*
X133083007Y-109858987D01*
X133186531Y-109609058D01*
X133186531Y-109338538D01*
X133083007Y-109088609D01*
X132891720Y-108897322D01*
X132641791Y-108793798D01*
X132371271Y-108793798D01*
X132121342Y-108897322D01*
X131930055Y-109088609D01*
X131826531Y-109338538D01*
X131826531Y-109609058D01*
X131930055Y-109858987D01*
X132098824Y-110027756D01*
X132098824Y-116037161D01*
X131985189Y-115923526D01*
X131960000Y-115913092D01*
X131960000Y-111961775D01*
X131967051Y-111926327D01*
X131960000Y-111890879D01*
X131960000Y-111890875D01*
X131939112Y-111785863D01*
X131888676Y-111710381D01*
X131879627Y-111696838D01*
X131879625Y-111696836D01*
X131859544Y-111666783D01*
X131829491Y-111646702D01*
X130697301Y-110514513D01*
X130677217Y-110484455D01*
X130618856Y-110445459D01*
X130618856Y-109744000D01*
X130591692Y-109607437D01*
X130514335Y-109491665D01*
X130487898Y-109474000D01*
X130514335Y-109456335D01*
X130591692Y-109340563D01*
X130618856Y-109204000D01*
X130618856Y-108031988D01*
X131018594Y-108031988D01*
X130934674Y-108115908D01*
G36*
X150008001Y-118026884D02*
X145902891Y-113921774D01*
X146031476Y-113793189D01*
X146135000Y-113543260D01*
X146135000Y-113272740D01*
X146031476Y-113022811D01*
X145840189Y-112831524D01*
X145590260Y-112728000D01*
X145319740Y-112728000D01*
X145069811Y-112831524D01*
X144878524Y-113022811D01*
X144775000Y-113272740D01*
X144775000Y-113543260D01*
X144878524Y-113793189D01*
X145069811Y-113984476D01*
X145089896Y-113992796D01*
X145115888Y-114123464D01*
X145175373Y-114212489D01*
X145195456Y-114242545D01*
X145225512Y-114262628D01*
X151890000Y-120927117D01*
X151890001Y-130027137D01*
X151759365Y-129711754D01*
X151466246Y-129418635D01*
X151083267Y-129260000D01*
X150668733Y-129260000D01*
X150285754Y-129418635D01*
X150178021Y-129526368D01*
X150178021Y-119626342D01*
X150185073Y-119590889D01*
X150157133Y-119450424D01*
X150097648Y-119361399D01*
X150077566Y-119331344D01*
X150047510Y-119311261D01*
X147076097Y-116339849D01*
X147056012Y-116309790D01*
X146936932Y-116230223D01*
X146831920Y-116209335D01*
X146796467Y-116202283D01*
X146761014Y-116209335D01*
X144556900Y-116209335D01*
X144546466Y-116184146D01*
X144355179Y-115992859D01*
X144105250Y-115889335D01*
X143834730Y-115889335D01*
X143584801Y-115992859D01*
X143393514Y-116184146D01*
X143289990Y-116434075D01*
X143289990Y-116704595D01*
X143393514Y-116954524D01*
X143584801Y-117145811D01*
X143834730Y-117249335D01*
X144105250Y-117249335D01*
X144355179Y-117145811D01*
X144546466Y-116954524D01*
X144556900Y-116929335D01*
X146647351Y-116929335D01*
X147616005Y-117897989D01*
X141267106Y-117897989D01*
X140640468Y-117271352D01*
X140640466Y-117271349D01*
X140630406Y-117261289D01*
X140640840Y-117236100D01*
X140640840Y-116965580D01*
X140537316Y-116715651D01*
X140346029Y-116524364D01*
X140096100Y-116420840D01*
X139825580Y-116420840D01*
X139584338Y-116520766D01*
X139584338Y-115953474D01*
X139769088Y-116030000D01*
X140039608Y-116030000D01*
X140289537Y-115926476D01*
X140480824Y-115735189D01*
X140491258Y-115710000D01*
X143464547Y-115710000D01*
X143500000Y-115717052D01*
X143535453Y-115710000D01*
X143640465Y-115689112D01*
X143759545Y-115609545D01*
X143779629Y-115579487D01*
X143889550Y-115469566D01*
X143914740Y-115480000D01*
X144185260Y-115480000D01*
X144435189Y-115376476D01*
X144626476Y-115185189D01*
X144730000Y-114935260D01*
X144730000Y-114664740D01*
X144626476Y-114414811D01*
X144435189Y-114223524D01*
X144185260Y-114120000D01*
X143914740Y-114120000D01*
X143664811Y-114223524D01*
X143473524Y-114414811D01*
X143370000Y-114664740D01*
X143370000Y-114935260D01*
X143380434Y-114960450D01*
X143350884Y-114990000D01*
X140491258Y-114990000D01*
X140480824Y-114964811D01*
X140289537Y-114773524D01*
X140039608Y-114670000D01*
X140032712Y-114670000D01*
X149327491Y-105375222D01*
X149357544Y-105355141D01*
X149377625Y-105325088D01*
X149377627Y-105325086D01*
X149437112Y-105236061D01*
X149465052Y-105095596D01*
X149458000Y-105060143D01*
X149458000Y-98616530D01*
X149538904Y-98600437D01*
X149912685Y-98350685D01*
X150008000Y-98208036D01*
X150008001Y-118026884D01*
X150008001Y-118026884D01*
G37*
X150008001Y-118026884D02*
X145902891Y-113921774D01*
X146031476Y-113793189D01*
X146135000Y-113543260D01*
X146135000Y-113272740D01*
X146031476Y-113022811D01*
X145840189Y-112831524D01*
X145590260Y-112728000D01*
X145319740Y-112728000D01*
X145069811Y-112831524D01*
X144878524Y-113022811D01*
X144775000Y-113272740D01*
X144775000Y-113543260D01*
X144878524Y-113793189D01*
X145069811Y-113984476D01*
X145089896Y-113992796D01*
X145115888Y-114123464D01*
X145175373Y-114212489D01*
X145195456Y-114242545D01*
X145225512Y-114262628D01*
X151890000Y-120927117D01*
X151890001Y-130027137D01*
X151759365Y-129711754D01*
X151466246Y-129418635D01*
X151083267Y-129260000D01*
X150668733Y-129260000D01*
X150285754Y-129418635D01*
X150178021Y-129526368D01*
X150178021Y-119626342D01*
X150185073Y-119590889D01*
X150157133Y-119450424D01*
X150097648Y-119361399D01*
X150077566Y-119331344D01*
X150047510Y-119311261D01*
X147076097Y-116339849D01*
X147056012Y-116309790D01*
X146936932Y-116230223D01*
X146831920Y-116209335D01*
X146796467Y-116202283D01*
X146761014Y-116209335D01*
X144556900Y-116209335D01*
X144546466Y-116184146D01*
X144355179Y-115992859D01*
X144105250Y-115889335D01*
X143834730Y-115889335D01*
X143584801Y-115992859D01*
X143393514Y-116184146D01*
X143289990Y-116434075D01*
X143289990Y-116704595D01*
X143393514Y-116954524D01*
X143584801Y-117145811D01*
X143834730Y-117249335D01*
X144105250Y-117249335D01*
X144355179Y-117145811D01*
X144546466Y-116954524D01*
X144556900Y-116929335D01*
X146647351Y-116929335D01*
X147616005Y-117897989D01*
X141267106Y-117897989D01*
X140640468Y-117271352D01*
X140640466Y-117271349D01*
X140630406Y-117261289D01*
X140640840Y-117236100D01*
X140640840Y-116965580D01*
X140537316Y-116715651D01*
X140346029Y-116524364D01*
X140096100Y-116420840D01*
X139825580Y-116420840D01*
X139584338Y-116520766D01*
X139584338Y-115953474D01*
X139769088Y-116030000D01*
X140039608Y-116030000D01*
X140289537Y-115926476D01*
X140480824Y-115735189D01*
X140491258Y-115710000D01*
X143464547Y-115710000D01*
X143500000Y-115717052D01*
X143535453Y-115710000D01*
X143640465Y-115689112D01*
X143759545Y-115609545D01*
X143779629Y-115579487D01*
X143889550Y-115469566D01*
X143914740Y-115480000D01*
X144185260Y-115480000D01*
X144435189Y-115376476D01*
X144626476Y-115185189D01*
X144730000Y-114935260D01*
X144730000Y-114664740D01*
X144626476Y-114414811D01*
X144435189Y-114223524D01*
X144185260Y-114120000D01*
X143914740Y-114120000D01*
X143664811Y-114223524D01*
X143473524Y-114414811D01*
X143370000Y-114664740D01*
X143370000Y-114935260D01*
X143380434Y-114960450D01*
X143350884Y-114990000D01*
X140491258Y-114990000D01*
X140480824Y-114964811D01*
X140289537Y-114773524D01*
X140039608Y-114670000D01*
X140032712Y-114670000D01*
X149327491Y-105375222D01*
X149357544Y-105355141D01*
X149377625Y-105325088D01*
X149377627Y-105325086D01*
X149437112Y-105236061D01*
X149465052Y-105095596D01*
X149458000Y-105060143D01*
X149458000Y-98616530D01*
X149538904Y-98600437D01*
X149912685Y-98350685D01*
X150008000Y-98208036D01*
X150008001Y-118026884D01*
G36*
X124905144Y-113476261D02*
X124905144Y-114284000D01*
X124932308Y-114420563D01*
X125009665Y-114536335D01*
X125125437Y-114613692D01*
X125262000Y-114640856D01*
X126884356Y-114640856D01*
X126694763Y-114830450D01*
X126669573Y-114820016D01*
X126399053Y-114820016D01*
X126149124Y-114923540D01*
X125957837Y-115114827D01*
X125854313Y-115364756D01*
X125854313Y-115635276D01*
X125957837Y-115885205D01*
X126149124Y-116076492D01*
X126399053Y-116180016D01*
X126669573Y-116180016D01*
X126919502Y-116076492D01*
X127110789Y-115885205D01*
X127214313Y-115635276D01*
X127214313Y-115364756D01*
X127203879Y-115339566D01*
X127397017Y-115146429D01*
X130149444Y-115146429D01*
X130159878Y-115171618D01*
X130351165Y-115362905D01*
X130601094Y-115466429D01*
X130871614Y-115466429D01*
X131121543Y-115362905D01*
X131240001Y-115244447D01*
X131240001Y-115898860D01*
X131240000Y-115898865D01*
X131240000Y-115913092D01*
X131214811Y-115923526D01*
X131023524Y-116114813D01*
X130920000Y-116364742D01*
X130920000Y-116635262D01*
X131023524Y-116885191D01*
X131214811Y-117076478D01*
X131464740Y-117180002D01*
X131735260Y-117180002D01*
X131985189Y-117076478D01*
X132098823Y-116962844D01*
X132098823Y-122601192D01*
X131424000Y-123276015D01*
X131424000Y-121099453D01*
X131431052Y-121064000D01*
X131403112Y-120923535D01*
X131343627Y-120834510D01*
X131323545Y-120804455D01*
X131293489Y-120784372D01*
X130618856Y-120109740D01*
X130618856Y-119142000D01*
X130591692Y-119005437D01*
X130514335Y-118889665D01*
X130487898Y-118872000D01*
X130514335Y-118854335D01*
X130591692Y-118738563D01*
X130618856Y-118602000D01*
X130618856Y-116602000D01*
X130591692Y-116465437D01*
X130514335Y-116349665D01*
X130398563Y-116272308D01*
X130262000Y-116245144D01*
X125414260Y-116245144D01*
X125269241Y-116100125D01*
X125269241Y-115949987D01*
X125294430Y-115939553D01*
X125485717Y-115748266D01*
X125589241Y-115498337D01*
X125589241Y-115227817D01*
X125485717Y-114977888D01*
X125294430Y-114786601D01*
X125044501Y-114683077D01*
X124773981Y-114683077D01*
X124546000Y-114777510D01*
X124546000Y-113117116D01*
X124905144Y-113476261D01*
X124905144Y-113476261D01*
G37*
X124905144Y-113476261D02*
X124905144Y-114284000D01*
X124932308Y-114420563D01*
X125009665Y-114536335D01*
X125125437Y-114613692D01*
X125262000Y-114640856D01*
X126884356Y-114640856D01*
X126694763Y-114830450D01*
X126669573Y-114820016D01*
X126399053Y-114820016D01*
X126149124Y-114923540D01*
X125957837Y-115114827D01*
X125854313Y-115364756D01*
X125854313Y-115635276D01*
X125957837Y-115885205D01*
X126149124Y-116076492D01*
X126399053Y-116180016D01*
X126669573Y-116180016D01*
X126919502Y-116076492D01*
X127110789Y-115885205D01*
X127214313Y-115635276D01*
X127214313Y-115364756D01*
X127203879Y-115339566D01*
X127397017Y-115146429D01*
X130149444Y-115146429D01*
X130159878Y-115171618D01*
X130351165Y-115362905D01*
X130601094Y-115466429D01*
X130871614Y-115466429D01*
X131121543Y-115362905D01*
X131240001Y-115244447D01*
X131240001Y-115898860D01*
X131240000Y-115898865D01*
X131240000Y-115913092D01*
X131214811Y-115923526D01*
X131023524Y-116114813D01*
X130920000Y-116364742D01*
X130920000Y-116635262D01*
X131023524Y-116885191D01*
X131214811Y-117076478D01*
X131464740Y-117180002D01*
X131735260Y-117180002D01*
X131985189Y-117076478D01*
X132098823Y-116962844D01*
X132098823Y-122601192D01*
X131424000Y-123276015D01*
X131424000Y-121099453D01*
X131431052Y-121064000D01*
X131403112Y-120923535D01*
X131343627Y-120834510D01*
X131323545Y-120804455D01*
X131293489Y-120784372D01*
X130618856Y-120109740D01*
X130618856Y-119142000D01*
X130591692Y-119005437D01*
X130514335Y-118889665D01*
X130487898Y-118872000D01*
X130514335Y-118854335D01*
X130591692Y-118738563D01*
X130618856Y-118602000D01*
X130618856Y-116602000D01*
X130591692Y-116465437D01*
X130514335Y-116349665D01*
X130398563Y-116272308D01*
X130262000Y-116245144D01*
X125414260Y-116245144D01*
X125269241Y-116100125D01*
X125269241Y-115949987D01*
X125294430Y-115939553D01*
X125485717Y-115748266D01*
X125589241Y-115498337D01*
X125589241Y-115227817D01*
X125485717Y-114977888D01*
X125294430Y-114786601D01*
X125044501Y-114683077D01*
X124773981Y-114683077D01*
X124546000Y-114777510D01*
X124546000Y-113117116D01*
X124905144Y-113476261D01*
G04 #@! TD*
M02*
